<?xml version="1.0" encoding="UTF-8"?>
<svg viewBox="0 0 1024 768" version="1.1" xmlns="http://www.w3.org/2000/svg" xmlns:xlink="http://www.w3.org/1999/xlink">
    <rect id="Rectangle" fill="#EDF4FA" x="0" y="0" width="1024" height="768"></rect>
    <rect id="discussion-bg" stroke-opacity="0.6" stroke="#284155" stroke-width="4" fill="#FFFFFF" x="225" y="219" width="574" height="394" rx="6"></rect>
    <rect id="text-skeleton" fill-opacity="0.25" fill="#284155" x="323" y="525" width="240" height="26" rx="2"></rect>
    <rect id="text-skeleton" fill-opacity="0.25" fill="#284155" x="323" y="489" width="414" height="26" rx="2"></rect>
    <rect id="prompt-bkg" fill-opacity="0.4" fill="#93A0AA" x="267" y="484" width="36" height="36" rx="2"></rect>
    <path d="M283.56,500.66 C283.866668,500.686667 284.193332,500.686667 284.54,500.66 C284.886668,500.633333 285.209998,500.556667 285.51,500.43 C285.810001,500.303333 286.056666,500.120001 286.25,499.88 C286.443334,499.639999 286.54,499.320002 286.54,498.92 C286.54,498.319997 286.340002,497.860002 285.94,497.54 C285.539998,497.22 285.080003,497.06 284.56,497.06 C283.839996,497.06 283.296669,497.296664 282.93,497.77 C282.563332,498.243336 282.386667,498.839996 282.4,499.56 L279.7,499.56 C279.726667,498.839996 279.856666,498.183336 280.09,497.59 C280.323334,496.996664 280.649998,496.486669 281.07,496.06 C281.490002,495.633331 281.99333,495.303335 282.58,495.07 C283.16667,494.836665 283.819996,494.72 284.54,494.72 C285.100003,494.72 285.659997,494.803333 286.22,494.97 C286.780003,495.136667 287.283331,495.386665 287.73,495.72 C288.176669,496.053335 288.539999,496.459998 288.82,496.94 C289.100001,497.420002 289.24,497.97333 289.24,498.6 C289.24,499.280003 289.076668,499.879997 288.75,500.4 C288.423332,500.920003 287.933337,501.273332 287.28,501.46 L287.28,501.5 C288.053337,501.673334 288.659998,502.046664 289.1,502.62 C289.540002,503.193336 289.76,503.879996 289.76,504.68 C289.76,505.413337 289.616668,506.066664 289.33,506.64 C289.043332,507.213336 288.660002,507.693331 288.18,508.08 C287.699998,508.466669 287.14667,508.759999 286.52,508.96 C285.89333,509.160001 285.240003,509.26 284.56,509.26 C283.773329,509.26 283.05667,509.146668 282.41,508.92 C281.76333,508.693332 281.213336,508.363336 280.76,507.93 C280.306664,507.496665 279.956668,506.96667 279.71,506.34 C279.463332,505.71333 279.346667,504.993337 279.36,504.18 L282.06,504.18 C282.073333,504.553335 282.133333,504.909998 282.24,505.25 C282.346667,505.590002 282.499999,505.883332 282.7,506.13 C282.900001,506.376668 283.149998,506.573333 283.45,506.72 C283.750001,506.866667 284.106665,506.94 284.52,506.94 C285.160003,506.94 285.699998,506.743335 286.14,506.35 C286.580002,505.956665 286.8,505.420003 286.8,504.74 C286.8,504.206664 286.696668,503.800001 286.49,503.52 C286.283332,503.239999 286.020002,503.036667 285.7,502.91 C285.379998,502.783333 285.030002,502.71 284.65,502.69 C284.269998,502.67 283.906668,502.66 283.56,502.66 L283.56,500.66 Z" id="3" fill="#333E47" fill-rule="nonzero"></path>
    <rect id="text-skeleton" fill-opacity="0.25" fill="#284155" x="323" y="403" width="414" height="26" rx="2"></rect>
    <rect id="prompt-bkg" fill-opacity="0.4" fill="#93A0AA" x="267" y="398" width="36" height="36" rx="2"></rect>
    <path d="M279.74,414.38 C279.713333,413.579996 279.806666,412.83667 280.02,412.15 C280.233334,411.46333 280.553331,410.863336 280.98,410.35 C281.406669,409.836664 281.94333,409.436668 282.59,409.15 C283.23667,408.863332 283.979996,408.72 284.82,408.72 C285.460003,408.72 286.069997,408.819999 286.65,409.02 C287.230003,409.22 287.739998,409.506665 288.18,409.88 C288.620002,410.253335 288.969999,410.713331 289.23,411.26 C289.490001,411.806669 289.62,412.419997 289.62,413.1 C289.62,413.80667 289.506668,414.413331 289.28,414.92 C289.053332,415.426669 288.753335,415.876665 288.38,416.27 C288.006665,416.663335 287.583336,417.019998 287.11,417.34 C286.636664,417.660002 286.160002,417.976665 285.68,418.29 C285.199998,418.603335 284.733336,418.939998 284.28,419.3 C283.826664,419.660002 283.426668,420.079998 283.08,420.56 L289.7,420.56 L289.7,423 L279.42,423 C279.42,422.186663 279.536666,421.480003 279.77,420.88 C280.003334,420.279997 280.319998,419.743336 280.72,419.27 C281.120002,418.796664 281.589997,418.360002 282.13,417.96 C282.670003,417.559998 283.239997,417.153335 283.84,416.74 C284.146668,416.526666 284.473332,416.310001 284.82,416.09 C285.166668,415.869999 285.483332,415.626668 285.77,415.36 C286.056668,415.093332 286.296666,414.793335 286.49,414.46 C286.683334,414.126665 286.78,413.746669 286.78,413.32 C286.78,412.639997 286.583335,412.110002 286.19,411.73 C285.796665,411.349998 285.293336,411.16 284.68,411.16 C284.266665,411.16 283.916668,411.256666 283.63,411.45 C283.343332,411.643334 283.113334,411.896665 282.94,412.21 C282.766666,412.523335 282.643334,412.869998 282.57,413.25 C282.496666,413.630002 282.46,414.006665 282.46,414.38 L279.74,414.38 Z" id="2" fill="#333E47" fill-rule="nonzero"></path>
    <rect id="text-skeleton" fill-opacity="0.25" fill="#284155" x="323" y="286" width="414" height="26" rx="2"></rect>
    <rect id="text-skeleton" fill-opacity="0.25" fill="#284155" x="323" y="322" width="240" height="26" rx="2"></rect>
    <rect id="prompt-bkg" fill-opacity="0.4" fill="#93A0AA" x="267" y="281" width="36" height="36" rx="2"></rect>
    <path d="M286.84,306 L284,306 L284,296.92 L280.48,296.92 L280.48,294.78 C280.973336,294.793333 281.449998,294.756667 281.91,294.67 C282.370002,294.583333 282.783331,294.430001 283.15,294.21 C283.516668,293.989999 283.826665,293.700002 284.08,293.34 C284.333335,292.979998 284.5,292.533336 284.58,292 L286.84,292 L286.84,306 Z" id="1" fill="#333E47" fill-rule="nonzero"></path>
    <rect id="Header" fill="#203344" x="0" y="0" width="1024" height="64"></rect>
</svg>
