<?xml version="1.0" encoding="UTF-8"?>
<svg viewBox="0 0 1024 768" version="1.1" xmlns="http://www.w3.org/2000/svg" xmlns:xlink="http://www.w3.org/1999/xlink">
    <rect id="Rectangle" fill="#EDF4FA" x="0" y="64" width="1024" height="704"></rect>
    <g id="search-image" transform="translate(373.500000, 296.000000)">
        <path d="M240.019592,8.24229573e-13 C253.273212,8.24229573e-13 264.017395,10.752169 264.017395,24.0029075 L264.017395,168.009743 C264.017395,176.395621 259.720136,183.777086 253.205953,188.069133 L246.44043,181.304809 C247.153551,179.772969 247.8039,178.205998 248.388177,176.607213 C250.558538,174.493431 251.93169,171.56599 252.0128,168.318116 L252.016604,168.013174 L252.016604,23.9994762 C252.016604,17.3769575 246.641734,12.0007907 240.011496,12.0007907 L24.0058986,12.0007907 C17.4808392,12.0007907 12.1665661,17.2087645 12.0045944,23.6945348 L12.0007907,23.9994762 L12.0007907,168.013174 C12.0007907,174.533808 17.2115521,179.846144 23.700794,180.008058 L24.0058986,180.01186 L137.001688,180.012176 C138.873649,184.29657 141.231458,188.320111 144.005474,192.013158 L23.9978031,192.012651 C10.7441824,192.012651 -1.67688086e-12,181.260482 -1.67688086e-12,168.009743 L-1.67688086e-12,24.0029075 C-1.67688086e-12,10.7464678 10.7386131,8.24229573e-13 23.9978031,8.24229573e-13 L240.019592,8.24229573e-13 Z M164.498265,92.4935212 L171.580552,99.5747877 C148.500468,107.932455 132.008697,130.045437 132.008697,156.010279 C132.008697,160.120537 132.421968,164.134271 133.209222,168.012195 L78.0090915,168.011069 C74.692982,168.011069 73.9071033,166.10871 76.242609,163.773204 L147.522292,92.4935212 C152.210078,87.8057357 159.810521,87.8057769 164.498265,92.4935212 Z M73.9047479,129.036934 L85.605,142.409 L60.0039533,168.011069 L30.0093396,168.011069 C26.6913463,168.011069 25.7662134,165.994347 27.9530997,163.495048 L58.1039494,129.036934 C62.4672194,124.05034 69.5402557,124.048943 73.9047479,129.036934 Z M54.003558,36.002372 C63.9453385,36.002372 72.004744,44.0617775 72.004744,54.003558 C72.004744,63.9453385 63.9453385,72.004744 54.003558,72.004744 C44.0617775,72.004744 36.002372,63.9453385 36.002372,54.003558 C36.002372,44.0617775 44.0617775,36.002372 54.003558,36.002372 Z" id="image-bkgd" fill="#4B96CC"></path>
        <path d="M192.012651,108.007116 C218.524065,108.007116 240.015813,129.498864 240.015813,156.010279 C240.015813,165.117138 237.479849,173.631691 233.07558,180.886278 L272.629845,220.441722 C277.042402,224.854278 277.162239,231.91693 272.889295,236.430813 L272.664362,236.66199 C268.19479,241.131562 260.9218,241.10518 256.444094,236.627473 L216.88865,197.073208 C209.634063,201.477477 201.11951,204.013441 192.012651,204.013441 C165.501236,204.013441 144.009488,182.521693 144.009488,156.010279 C144.009488,129.498864 165.501236,108.007116 192.012651,108.007116 Z M192.012651,126.008302 C175.443016,126.008302 162.010674,139.440644 162.010674,156.010279 C162.010674,172.579913 175.443016,186.012255 192.012651,186.012255 C208.582285,186.012255 222.014627,172.579913 222.014627,156.010279 C222.014627,139.440644 208.582285,126.008302 192.012651,126.008302 Z" id="magnifying-glass" fill="#203344"></path>
    </g>
    <rect id="Header" fill="#203344" x="0" y="0" width="1024" height="64"></rect>
</svg>
