<?xml version="1.0" encoding="UTF-8"?>
<svg viewBox="0 0 1024 768" version="1.1" xmlns="http://www.w3.org/2000/svg" xmlns:xlink="http://www.w3.org/1999/xlink">
    <rect id="Rectangle" fill="#EDF4FA" x="0" y="0" width="1024" height="768"></rect>
    <path d="M578.664897,316 C597.075366,316 612,330.930295 612,349.334775 L612,482.665225 C612,501.075513 597.066401,516 578.664897,516 L362.00177,516 C343.591301,516 328.666667,501.069705 328.666667,482.665225 L328.666667,349.334775 C328.666667,330.924487 343.600266,316 362.00177,316 L578.664897,316 Z M695.333333,337.092579 L695.333333,498.840999 C695.333333,508.051099 690.308842,510.003263 684.109039,503.199327 L628.666667,442.354432 L628.666667,393.579146 L684.109039,332.734251 C690.308046,325.931189 695.333333,327.885414 695.333333,337.092579 Z" id="video" fill="#4B96CC"></path>
    <rect id="Header" fill="#203344" x="0" y="0" width="1024" height="64"></rect>
</svg>
