<?xml version="1.0" encoding="UTF-8"?>
<svg viewBox="0 0 1025 768" version="1.1" xmlns="http://www.w3.org/2000/svg" xmlns:xlink="http://www.w3.org/1999/xlink">
    <rect id="Rectangle" fill="#EDF4FA" x="0" y="0" width="1024" height="768"></rect>
    <path d="M767,660 L767,600 L658.990476,600 C657.894975,600 657,600.897261 657,602.003487 L657,657.996513 C657,659.102756 657.893872,660 658.990476,660 L767,660 Z" id="input" stroke="#536777" stroke-width="4" fill="#FFFFFF" transform="translate(712.000000, 630.000000) scale(-1, 1) translate(-712.000000, -630.000000) "></path>
    <rect id="text-skeleton" fill-opacity="0.25" fill="#536777" x="695" y="620" width="34" height="20" rx="2"></rect>
    <path d="M316,600 L316,660 L422,660 L422,600 L316,600 Z" id="input" stroke="#536777" stroke-width="4" fill="#FFFFFF" transform="translate(369.000000, 630.000000) scale(-1, 1) translate(-369.000000, -630.000000) "></path>
    <path d="M422,600 L422,660 L657,660 L657,600 L422,600 Z" id="input" stroke="#536777" stroke-width="4" fill="#FFFFFF" transform="translate(539.500000, 630.000000) scale(-1, 1) translate(-539.500000, -630.000000) "></path>
    <rect id="text-skeleton" fill-opacity="0.25" fill="#536777" x="354" y="620" width="30" height="20" rx="2"></rect>
    <rect id="text-skeleton" fill-opacity="0.25" fill="#536777" x="460" y="620" width="159" height="20" rx="2"></rect>
    <path d="M316,660 L316,600 L168.000656,600 C166.89119,600 166,600.893116 166,602.003487 L166,657.996513 C166,659.101619 166.897288,660 168.000656,660 L316,660 Z" id="input" stroke="#536777" stroke-width="4" fill="#FFFFFF"></path>
    <rect id="text-skeleton" fill-opacity="0.25" fill="#536777" x="164" y="552" width="260" height="26" rx="2"></rect>
    <rect id="text-skeleton" fill-opacity="0.25" fill="#536777" x="204" y="620" width="74" height="20" rx="2"></rect>
    <rect id="prompt-bgd" fill-opacity="0.4" fill="#93A0AA" x="108" y="547" width="36" height="36" rx="2"></rect>
    <path d="M124.56,563.66 C124.866668,563.686667 125.193332,563.686667 125.54,563.66 C125.886668,563.633333 126.209998,563.556667 126.51,563.43 C126.810001,563.303333 127.056666,563.120001 127.25,562.88 C127.443334,562.639999 127.54,562.320002 127.54,561.92 C127.54,561.319997 127.340002,560.860002 126.94,560.54 C126.539998,560.22 126.080003,560.06 125.56,560.06 C124.839996,560.06 124.296668,560.296664 123.93,560.77 C123.563332,561.243336 123.386667,561.839996 123.4,562.56 L120.7,562.56 C120.726667,561.839996 120.856666,561.183336 121.09,560.59 C121.323335,559.996664 121.649998,559.486669 122.07,559.06 C122.490002,558.633331 122.99333,558.303335 123.58,558.07 C124.16667,557.836665 124.819996,557.72 125.54,557.72 C126.100003,557.72 126.659997,557.803333 127.22,557.97 C127.780003,558.136668 128.283331,558.386665 128.73,558.72 C129.176669,559.053335 129.539999,559.459998 129.82,559.94 C130.100001,560.420002 130.24,560.97333 130.24,561.6 C130.24,562.280003 130.076668,562.879997 129.75,563.4 C129.423332,563.920003 128.933337,564.273332 128.28,564.46 L128.28,564.5 C129.053337,564.673334 129.659998,565.046664 130.1,565.62 C130.540002,566.193336 130.76,566.879996 130.76,567.68 C130.76,568.413337 130.616668,569.066664 130.33,569.64 C130.043332,570.213336 129.660002,570.693331 129.18,571.08 C128.699998,571.466669 128.14667,571.759999 127.52,571.96 C126.89333,572.160001 126.240003,572.26 125.56,572.26 C124.773329,572.26 124.05667,572.146668 123.41,571.92 C122.76333,571.693332 122.213336,571.363335 121.76,570.93 C121.306664,570.496664 120.956668,569.96667 120.71,569.34 C120.463332,568.71333 120.346667,567.993337 120.36,567.18 L123.06,567.18 C123.073333,567.553335 123.133333,567.909998 123.24,568.25 C123.346667,568.590002 123.499999,568.883332 123.7,569.13 C123.900001,569.376668 124.149998,569.573333 124.45,569.72 C124.750001,569.866667 125.106665,569.94 125.52,569.94 C126.160003,569.94 126.699998,569.743335 127.14,569.35 C127.580002,568.956665 127.8,568.420003 127.8,567.74 C127.8,567.206664 127.696668,566.800001 127.49,566.52 C127.283332,566.239999 127.020002,566.036667 126.7,565.91 C126.379998,565.783333 126.030002,565.71 125.65,565.69 C125.269998,565.67 124.906668,565.66 124.56,565.66 L124.56,563.66 Z" id="3" fill="#333E47" fill-rule="nonzero"></path>
    <path d="M636,505 L636,445 L527.990476,445 C526.894975,445 526,445.897261 526,447.003487 L526,502.996513 C526,504.102756 526.893872,505 527.990476,505 L636,505 Z" id="input" stroke="#536777" stroke-width="4" fill="#FFFFFF" transform="translate(581.000000, 475.000000) scale(-1, 1) translate(-581.000000, -475.000000) "></path>
    <rect id="text-skeleton" fill-opacity="0.25" fill="#536777" x="564" y="465" width="34" height="20" rx="2"></rect>
    <path d="M316,445 L316,505 L526,505 L526,445 L316,445 Z" id="input" stroke="#536777" stroke-width="4" fill="#FFFFFF" transform="translate(421.000000, 475.000000) scale(-1, 1) translate(-421.000000, -475.000000) "></path>
    <rect id="text-skeleton" fill-opacity="0.25" fill="#536777" x="354" y="465" width="134" height="20" rx="2"></rect>
    <path d="M316,505 L316,445 L168.000656,445 C166.89119,445 166,445.893116 166,447.003487 L166,502.996513 C166,504.101619 166.897288,505 168.000656,505 L316,505 Z" id="input" stroke="#536777" stroke-width="4" fill="#FFFFFF"></path>
    <rect id="text-skeleton" fill-opacity="0.25" fill="#536777" x="164" y="397" width="316" height="26" rx="2"></rect>
    <rect id="text-skeleton" fill-opacity="0.25" fill="#536777" x="204" y="465" width="74" height="20" rx="2"></rect>
    <rect id="prompt-bgd" fill-opacity="0.4" fill="#93A0AA" x="108" y="392" width="36" height="36" rx="2"></rect>
    <path d="M120.74,408.38 C120.713333,407.579996 120.806666,406.83667 121.02,406.15 C121.233334,405.46333 121.553331,404.863336 121.98,404.35 C122.406669,403.836664 122.94333,403.436668 123.59,403.15 C124.23667,402.863332 124.979996,402.72 125.82,402.72 C126.460003,402.72 127.069997,402.819999 127.65,403.02 C128.230003,403.22 128.739998,403.506665 129.18,403.88 C129.620002,404.253335 129.969999,404.713331 130.23,405.26 C130.490001,405.806669 130.62,406.419997 130.62,407.1 C130.62,407.80667 130.506668,408.413331 130.28,408.92 C130.053332,409.426669 129.753335,409.876665 129.38,410.27 C129.006665,410.663335 128.583336,411.019998 128.11,411.34 C127.636664,411.660002 127.160002,411.976665 126.68,412.29 C126.199998,412.603335 125.733336,412.939998 125.28,413.3 C124.826664,413.660002 124.426668,414.079998 124.08,414.56 L130.7,414.56 L130.7,417 L120.42,417 C120.42,416.186663 120.536665,415.480003 120.77,414.88 C121.003334,414.279997 121.319998,413.743336 121.72,413.27 C122.120002,412.796664 122.589997,412.360002 123.13,411.96 C123.670003,411.559998 124.239997,411.153335 124.84,410.74 C125.146668,410.526666 125.473332,410.310001 125.82,410.09 C126.166668,409.869999 126.483332,409.626668 126.77,409.36 C127.056668,409.093332 127.296666,408.793335 127.49,408.46 C127.683334,408.126665 127.78,407.746669 127.78,407.32 C127.78,406.639997 127.583335,406.110002 127.19,405.73 C126.796665,405.349998 126.293336,405.16 125.68,405.16 C125.266665,405.16 124.916668,405.256666 124.63,405.45 C124.343332,405.643334 124.113334,405.896665 123.94,406.21 C123.766666,406.523335 123.643334,406.869998 123.57,407.25 C123.496666,407.630002 123.46,408.006665 123.46,408.38 L120.74,408.38 Z" id="2" fill="#333E47" fill-rule="nonzero"></path>
    <path d="M166,282 L316,282 L316,222 L168.000656,222 C166.89119,222 166,222.893116 166,224.003487 L166,282 Z" id="input" stroke="#536777" stroke-width="4" fill="#FFFFFF"></path>
    <rect id="text-skeleton" fill-opacity="0.25" fill="#536777" x="204" y="242" width="74" height="20" rx="2"></rect>
    <path d="M396,290 L168.000011,290 C166.890813,290 166,290.892926 166,292.003487 L166,347.996513 C166,349.101691 166.897072,350 168.000011,350 L393.999989,350 C395.109187,350 396,349.107074 396,347.996513 L396,290 Z" id="input" stroke="#536777" stroke-width="4" fill="#FFFFFF" transform="translate(281.000000, 320.000000) scale(-1, 1) translate(-281.000000, -320.000000) "></path>
    <rect id="text-skeleton" fill-opacity="0.25" fill="#536777" x="204" y="310" width="154" height="20" rx="2"></rect>
    <path d="M316,222 L316,282 L426,282 L426,222 L316,222 Z" id="input" stroke="#536777" stroke-width="4" fill="#FFFFFF" transform="translate(371.000000, 252.000000) scale(-1, 1) translate(-371.000000, -252.000000) "></path>
    <rect id="text-skeleton" fill-opacity="0.25" fill="#536777" x="354" y="242" width="34" height="20" rx="2"></rect>
    <path d="M676,222 L676,282 L786,282 L786,222 L676,222 Z" id="input" stroke="#536777" stroke-width="4" fill="#FFFFFF" transform="translate(731.000000, 252.000000) scale(-1, 1) translate(-731.000000, -252.000000) "></path>
    <rect id="text-skeleton" fill-opacity="0.25" fill="#536777" x="714" y="242" width="34" height="20" rx="2"></rect>
    <path d="M426,222 L426,282 L676,282 L676,222 L426,222 Z" id="input" stroke="#536777" stroke-width="4" fill="#FFFFFF" transform="translate(551.000000, 252.000000) scale(-1, 1) translate(-551.000000, -252.000000) "></path>
    <rect id="text-skeleton" fill-opacity="0.25" fill="#536777" x="464" y="242" width="174" height="20" rx="2"></rect>
    <rect id="text-skeleton" fill-opacity="0.25" fill="#536777" x="164" y="174" width="210" height="26" rx="2"></rect>
    <rect id="prompt-bgd" fill-opacity="0.4" fill="#93A0AA" x="108" y="169" width="36" height="36" rx="2"></rect>
    <path d="M127.84,194 L125,194 L125,184.92 L121.48,184.92 L121.48,182.78 C121.973336,182.793333 122.449998,182.756667 122.91,182.67 C123.370002,182.583333 123.783332,182.430001 124.15,182.21 C124.516668,181.989999 124.826665,181.700002 125.08,181.34 C125.333335,180.979998 125.5,180.533336 125.58,180 L127.84,180 L127.84,194 Z" id="1" fill="#333E47" fill-rule="nonzero"></path>
    <rect id="Header" fill="#203344" x="0" y="0" width="1024" height="64"></rect>
</svg>
