<?xml version="1.0" encoding="UTF-8"?>
<svg viewBox="0 0 1024 768" version="1.1" xmlns="http://www.w3.org/2000/svg" xmlns:xlink="http://www.w3.org/1999/xlink">
    <rect id="Rectangle" fill="#EDF4FA" x="0" y="0" width="1024" height="768"></rect>
    <path d="M394.999322,474.731963 C342.333559,423.00666 342.333559,336.484337 394.999322,283.818574 C456.129224,222.688672 547.353848,236.795572 594.37685,293.223175 C625.624873,330.568373 632.784847,379.031132 618.359451,422.594299 C616.343098,426.586451 604.963761,425.307021 607.097726,417.962107 C609.315395,410.220066 612.737249,395.710704 613.186051,385.388259 L566.163049,385.388259 C566.163049,402.31654 564.282129,419.24482 560.520289,433.351721 L556.758449,445.577701 C551.115688,463.446442 542.651548,482.255643 529.485108,495.422084 C543.378901,490.97607 556.287453,483.902746 567.434478,474.978398 C573.534848,470.425767 580.456952,480.557608 574.642945,485.49125 C522.301703,526.928793 444.397554,524.902042 394.999322,474.731963 Z M553.937069,385.388259 L496.569006,385.388259 L496.569006,426.768501 C514.437747,426.768501 531.366028,428.649421 548.294308,431.470801 C551.115688,417.3639 553.937069,402.31654 553.937069,385.388259 Z M484.343026,385.388259 L426.974963,385.388259 C427.915423,402.31654 429.796343,417.3639 432.617723,431.470801 C449.546004,428.649421 466.474285,426.768501 484.343026,426.768501 L484.343026,385.388259 Z M414.748983,385.388259 L367.725981,385.388259 C369.606901,407.01884 375.249661,425.828041 385.594721,442.756321 C396.880242,438.994481 408.165762,436.173101 420.391743,433.351721 C416.629903,419.24482 414.748983,402.31654 414.748983,385.388259 Z M367.725981,373.162278 L414.748983,373.162278 C414.748983,357.174458 416.629903,342.127097 420.391743,328.020196 C407.225302,325.198816 395.939782,321.436976 384.654261,317.675136 C375.249661,334.603417 368.666441,353.412617 367.725981,373.162278 Z M426.974963,373.162278 L484.343026,373.162278 L484.343026,334.603417 C466.474285,334.603417 448.605544,332.722497 432.617723,329.901116 C429.796343,343.067557 426.974963,358.114918 426.974963,373.162278 Z M496.569006,373.162278 L553.937069,373.162278 C553.937069,358.114918 552.056148,343.067557 548.294308,329.901116 C532.306488,332.722497 514.437747,334.603417 496.569006,334.603417 L496.569006,373.162278 Z M566.163049,373.162278 L613.186051,373.162278 C612.245591,353.412617 605.662371,334.603417 596.25777,317.675136 C584.97225,321.436976 573.686729,325.198816 560.520289,328.020196 C564.282129,342.127097 566.163049,357.174458 566.163049,373.162278 Z M496.569006,257.485693 L496.569006,322.377436 C513.497287,321.436976 530.425568,320.496516 545.472928,317.675136 C537.949248,295.104095 521.961427,262.187993 496.569006,257.485693 Z M496.569006,438.994481 L496.569006,501.064844 C521.961427,496.362544 537.008788,465.327362 544.532468,443.696781 C529.485108,440.875401 513.497287,439.934941 496.569006,438.994481 Z M484.343026,501.064844 L484.343026,438.994481 C467.414745,439.934941 451.426924,440.875401 436.379563,443.696781 C443.903244,465.327362 459.891065,496.362544 484.343026,501.064844 Z M484.343026,322.377436 L484.343026,257.485693 C458.950604,262.187993 442.962784,295.104095 435.439103,317.675136 C451.426924,320.496516 467.414745,321.436976 484.343026,322.377436 Z M529.485108,263.128453 C543.592008,277.235354 552.056148,296.985015 557.698909,315.794216 C568.984429,312.972836 579.32949,310.151456 589.67455,307.330075 C574.627189,286.639955 553.937069,271.592594 529.485108,263.128453 Z M451.426924,495.422084 C438.260484,482.255643 429.796343,463.446442 424.153583,445.577701 C412.868062,447.458621 402.523002,450.280002 393.118402,454.041842 C408.165762,472.851043 427.915423,487.898403 451.426924,495.422084 Z M423.213123,315.794216 C428.855883,296.985015 438.260484,277.235354 451.426924,263.128453 C426.974963,271.592594 406.284842,286.639955 391.237482,307.330075 C401.582542,310.151456 411.927602,312.972836 423.213123,315.794216 Z" id="web-link" fill="#4B96CC" fill-rule="nonzero"></path>
    <path d="M588.801087,440.586308 L589.004748,440.653314 L654.909077,466.512345 C656.106756,466.984956 656.891571,468.144219 656.885505,469.43176 C656.881849,470.655382 656.164819,471.757604 655.062632,472.261774 L654.885449,472.33634 L636.116358,479.5665 L648.225534,491.973921 C648.806113,492.566661 649.126928,493.366089 649.117162,494.195738 C649.108209,494.95625 648.822152,495.684836 648.316721,496.246893 L648.17348,496.395952 L639.234642,505.115894 C638.641902,505.696473 637.842474,506.017288 637.012825,506.007522 C636.252312,505.998569 635.523727,505.712512 634.96167,505.207081 L634.812611,505.06384 L622.698095,492.641748 L615.012073,511.240491 C614.522659,512.435686 613.34797,513.206269 612.056738,513.179158 C610.830066,513.153402 609.738702,512.412778 609.256253,511.297394 L609.185206,511.118216 L585.005272,444.684393 C584.57526,443.541209 584.851021,442.252213 585.711254,441.385158 C586.520885,440.569106 587.708356,440.267819 588.801087,440.586308 Z M593.239819,449.047892 L612.303946,501.426149 L618.746318,485.938524 C619.05613,485.188868 619.644273,484.591736 620.382914,484.269332 L620.570636,484.194525 L621.040133,484.023642 C621.991605,483.846418 622.967262,484.12082 623.685202,484.7584 L623.834998,484.900551 L637.08237,498.472167 L641.556455,494.10219 L628.309083,480.530574 C627.576839,479.777958 627.271885,478.707708 627.497465,477.682172 C627.708947,476.720731 628.36017,475.919286 629.248631,475.513144 L629.429426,475.437256 L645.144144,469.401873 L593.239819,449.047892 Z M581.372022,449.994488 C582.534823,451.17714 582.564072,453.050862 581.471173,454.26832 L581.33464,454.411179 L574.628178,460.956139 C574.365538,461.2142 574.059751,461.423365 573.725247,461.574485 L573.521214,461.658118 L573.49187,461.668798 C572.111362,462.164106 570.572191,461.63191 569.792472,460.389665 C569.048194,459.203887 569.187382,457.676215 570.111521,456.645795 L570.248869,456.502066 L576.955331,449.957106 C578.185289,448.747793 580.162709,448.764529 581.372022,449.994488 Z M566.135924,440.226778 L566.336958,440.230468 L575.699926,440.345094 C577.375052,440.429664 578.684172,441.82244 578.664948,443.499589 C578.64641,445.116841 577.399102,446.441426 575.806707,446.575357 L575.628399,446.585293 L566.265431,446.470667 C565.121196,446.502163 564.051437,445.905085 563.477586,444.914652 C562.903734,443.924218 562.917775,442.699192 563.514179,441.722173 C564.040417,440.860096 564.945621,440.313035 565.936659,440.235895 L566.135924,440.226778 Z M605.682115,426.283849 C606.838542,427.473232 606.857332,429.347493 605.757414,430.559089 L605.620056,430.701214 L598.913594,437.246174 C598.320853,437.826753 597.521426,438.147567 596.691776,438.137801 C595.862127,438.128035 595.070473,437.788491 594.491563,437.19412 C593.911246,436.599221 593.592009,435.797535 593.604533,434.966563 C593.616013,434.204838 593.905396,433.476112 594.414144,432.915402 L594.558289,432.766749 L601.26475,426.221789 C602.501709,425.019104 604.479431,425.04689 605.682115,426.283849 Z M574.940001,425.834299 L575.090081,425.978725 L581.604348,432.646512 C582.342181,433.40511 582.645608,434.485774 582.410476,435.51756 C582.175344,436.549346 581.433653,437.391839 580.440003,437.755884 C579.366399,438.152455 578.168016,437.928523 577.311994,437.185806 L577.155616,437.040492 L570.610656,430.334031 C569.832655,429.533859 569.54064,428.379411 569.844609,427.305556 C570.148579,426.231702 571.002352,425.401586 572.084322,425.127904 C573.098668,424.871327 574.169106,425.140348 574.940001,425.834299 Z M588.260648,418.842257 C589.962852,418.900403 591.30449,420.311852 591.276291,422.014815 L591.276291,422.014815 L591.161664,431.377783 C591.193161,432.522018 590.596083,433.591776 589.605649,434.165628 C588.615216,434.73948 587.39019,434.725439 586.41317,434.129035 C585.43615,433.532632 584.86375,432.449468 584.921465,431.306256 L584.921465,431.306256 L585.036092,421.943288 C585.041482,421.100907 585.386988,420.296436 585.99417,419.712514 C586.601352,419.128592 587.418698,418.814756 588.260648,418.842257 Z" id="mouse" fill="#284155" fill-rule="nonzero"></path>
    <rect id="Header" fill="#203344" x="0" y="0" width="1024" height="64"></rect>
</svg>
