<?xml version="1.0" encoding="UTF-8"?>
<svg viewBox="0 0 1024 768" version="1.1" xmlns="http://www.w3.org/2000/svg" xmlns:xlink="http://www.w3.org/1999/xlink">
    <rect id="Rectangle" fill="#EDF4FA" x="0" y="0" width="1024" height="768"></rect>
    <path d="M183,354 L190.038605,354 C190.663874,354 191.273517,354.195369 191.782319,354.5588 L194.5,356.5 C196.55098,357.964985 199.340118,357.827397 201.236955,356.167665 L202,355.5 C204.25092,353.530445 207.643402,353.643402 209.758324,355.758324 L210,356 C212.209139,358.209139 215.790861,358.209139 218,356 C220.209139,353.790861 223.790861,353.790861 226,356 C228.209139,358.209139 231.790861,358.209139 234,356 C236.209139,353.790861 239.790861,353.790861 242,356 C244.209139,358.209139 247.790861,358.209139 250,356 C252.209139,353.790861 255.790861,353.790861 258,356 C260.209139,358.209139 263.790861,358.209139 266,356 C268.209139,353.790861 271.790861,353.790861 274,356 C276.209139,358.209139 279.790861,358.209139 282,356 C284.209139,353.790861 287.790861,353.790861 290,356 C292.209139,358.209139 295.790861,358.209139 298,356 L298.241676,355.758324 C300.356598,353.643402 303.74908,353.530445 306,355.5 L307.061094,356.428457 C308.753766,357.909545 311.272141,357.939883 313,356.5 L315.165597,354.695336 C315.704742,354.246049 316.38434,354 317.08615,354 L325,354 L325,354 L325,418 C325,420.209139 323.209139,422 321,422 L187,422 C184.790861,422 183,420.209139 183,418 L183,354 L183,354 Z" id="matching-target" fill="#284155" opacity="0.400000006"></path>
    <path d="M183,340 L190.038605,340 C190.663874,340 191.273517,340.195369 191.782319,340.5588 L194.5,342.5 C196.55098,343.964985 199.340118,343.827397 201.236955,342.167665 L202,341.5 C204.25092,339.530445 207.643402,339.643402 209.758324,341.758324 L210,342 L210,342 C212.209139,344.209139 215.790861,344.209139 218,342 C220.209139,339.790861 223.790861,339.790861 226,342 C228.209139,344.209139 231.790861,344.209139 234,342 C236.209139,339.790861 239.790861,339.790861 242,342 C244.209139,344.209139 247.790861,344.209139 250,342 C252.209139,339.790861 255.790861,339.790861 258,342 C260.209139,344.209139 263.790861,344.209139 266,342 C268.209139,339.790861 271.790861,339.790861 274,342 C276.209139,344.209139 279.790861,344.209139 282,342 C284.209139,339.790861 287.790861,339.790861 290,342 C292.209139,344.209139 295.790861,344.209139 298,342 L298.241676,341.758324 C300.356598,339.643402 303.74908,339.530445 306,341.5 L307.061094,342.428457 C308.753766,343.909545 311.272141,343.939883 313,342.5 L315.165597,340.695336 C315.704742,340.246049 316.38434,340 317.08615,340 L325,340 L325,340 L325,274 C325,269.581722 321.418278,266 317,266 L191,266 C186.581722,266 183,269.581722 183,274 L183,340 L183,340 Z" id="image" fill="#4B96CC"></path>
    <path d="M183,340 L190.038605,340 C190.663874,340 191.273517,340.195369 191.782319,340.5588 L194.5,342.5 C196.55098,343.964985 199.340118,343.827397 201.236955,342.167665 L202,341.5 C204.25092,339.530445 207.643402,339.643402 209.758324,341.758324 L210,342 C212.149433,344.149433 215.598257,344.207525 217.817927,342.174278 L218,342 C220.149433,339.850567 223.598257,339.792475 225.817927,341.825722 L226,342 C228.149433,344.149433 231.598257,344.207525 233.817927,342.174278 L234,342 C236.149433,339.850567 239.598257,339.792475 241.817927,341.825722 L242,342 C244.149433,344.149433 247.598257,344.207525 249.817927,342.174278 L250,342 C252.149433,339.850567 255.598257,339.792475 257.817927,341.825722 L258,342 C260.149433,344.149433 263.598257,344.207525 265.817927,342.174278 L266,342 C268.149433,339.850567 271.598257,339.792475 273.817927,341.825722 L274,342 C276.149433,344.149433 279.598257,344.207525 281.817927,342.174278 L282,342 C284.149433,339.850567 287.598257,339.792475 289.817927,341.825722 L290,342 C292.209139,344.209139 295.790861,344.209139 298,342 L298.241676,341.758324 C300.356598,339.643402 303.74908,339.530445 306,341.5 L307.061094,342.428457 C308.753766,343.909545 311.272141,343.939883 313,342.5 L315.165597,340.695336 C315.704742,340.246049 316.38434,340 317.08615,340 L325,340 L325,274 C325,269.581722 321.418278,266 317,266 L191,266 C186.581722,266 183,269.581722 183,274 L183,340 Z M187,274 C187,271.790861 188.790861,270 191,270 L317,270 C319.209139,270 321,271.790861 321,274 L321,336 L317.08615,336 C315.448594,336 313.862864,336.574114 312.604859,337.622451 L310.439262,339.427115 C310.22276,339.607533 309.907206,339.603732 309.695112,339.418151 L308.634018,338.489693 C304.79828,335.133422 299.017236,335.32591 295.413249,338.929897 L295.171573,339.171573 C294.524531,339.818615 293.475469,339.818615 292.828427,339.171573 C289.057191,335.400337 282.942809,335.400337 279.171573,339.171573 C278.524531,339.818615 277.475469,339.818615 276.828427,339.171573 C273.057191,335.400337 266.942809,335.400337 263.171573,339.171573 C262.524531,339.818615 261.475469,339.818615 260.828427,339.171573 C257.057191,335.400337 250.942809,335.400337 247.171573,339.171573 C246.524531,339.818615 245.475469,339.818615 244.828427,339.171573 C241.057191,335.400337 234.942809,335.400337 231.171573,339.171573 C230.524531,339.818615 229.475469,339.818615 228.828427,339.171573 C225.057191,335.400337 218.942809,335.400337 215.171573,339.171573 C214.524531,339.818615 213.475469,339.818615 212.828427,339.171573 L212.586751,338.929897 C208.982764,335.32591 203.20172,335.133422 199.365982,338.489693 L198.602936,339.157358 C198.102333,339.595386 197.366237,339.631698 196.824953,339.245066 L194.107272,337.303866 C192.920067,336.455862 191.497566,336 190.038605,336 L187,336 L187,274 Z" id="image" fill-opacity="0.600005463" fill="#284155" fill-rule="nonzero"></path>
    <rect id="text-skeleton" fill="#FFFFFF" x="214" y="296" width="80" height="16" rx="2"></rect>
    <rect id="prompt-background" fill="#284155" x="172" y="255" width="22" height="22" rx="2"></rect>
    <path d="M184.88,271 L182.75,271 L182.75,264.19 L180.11,264.19 L180.11,262.585 C180.480002,262.595 180.837498,262.5675 181.1825,262.5025 C181.527502,262.4375 181.837499,262.322501 182.1125,262.1575 C182.387501,261.992499 182.619999,261.775001 182.81,261.505 C183.000001,261.234999 183.125,260.900002 183.185,260.5 L184.88,260.5 L184.88,271 Z" id="1" fill="#FFFFFF" fill-rule="nonzero"></path>
    <path d="M355,354 L362.038605,354 C362.663874,354 363.273517,354.195369 363.782319,354.5588 L366.5,356.5 C368.55098,357.964985 371.340118,357.827397 373.236955,356.167665 L374,355.5 C376.25092,353.530445 379.643402,353.643402 381.758324,355.758324 L382,356 C384.209139,358.209139 387.790861,358.209139 390,356 C392.209139,353.790861 395.790861,353.790861 398,356 C400.209139,358.209139 403.790861,358.209139 406,356 C408.209139,353.790861 411.790861,353.790861 414,356 C416.209139,358.209139 419.790861,358.209139 422,356 C424.209139,353.790861 427.790861,353.790861 430,356 C432.209139,358.209139 435.790861,358.209139 438,356 C440.209139,353.790861 443.790861,353.790861 446,356 C448.209139,358.209139 451.790861,358.209139 454,356 C456.209139,353.790861 459.790861,353.790861 462,356 C464.209139,358.209139 467.790861,358.209139 470,356 L470.241676,355.758324 C472.356598,353.643402 475.74908,353.530445 478,355.5 L479.061094,356.428457 C480.753766,357.909545 483.272141,357.939883 485,356.5 L487.165597,354.695336 C487.704742,354.246049 488.38434,354 489.08615,354 L497,354 L497,354 L497,418 C497,420.209139 495.209139,422 493,422 L359,422 C356.790861,422 355,420.209139 355,418 L355,354 L355,354 Z" id="matching-target" fill="#284155" opacity="0.400000006"></path>
    <path d="M355,340 L362.038605,340 C362.663874,340 363.273517,340.195369 363.782319,340.5588 L366.5,342.5 C368.55098,343.964985 371.340118,343.827397 373.236955,342.167665 L374,341.5 C376.25092,339.530445 379.643402,339.643402 381.758324,341.758324 L382,342 L382,342 C384.209139,344.209139 387.790861,344.209139 390,342 C392.209139,339.790861 395.790861,339.790861 398,342 C400.209139,344.209139 403.790861,344.209139 406,342 C408.209139,339.790861 411.790861,339.790861 414,342 C416.209139,344.209139 419.790861,344.209139 422,342 C424.209139,339.790861 427.790861,339.790861 430,342 C432.209139,344.209139 435.790861,344.209139 438,342 C440.209139,339.790861 443.790861,339.790861 446,342 C448.209139,344.209139 451.790861,344.209139 454,342 C456.209139,339.790861 459.790861,339.790861 462,342 C464.209139,344.209139 467.790861,344.209139 470,342 L470.241676,341.758324 C472.356598,339.643402 475.74908,339.530445 478,341.5 L479.061094,342.428457 C480.753766,343.909545 483.272141,343.939883 485,342.5 L487.165597,340.695336 C487.704742,340.246049 488.38434,340 489.08615,340 L497,340 L497,340 L497,274 C497,269.581722 493.418278,266 489,266 L363,266 C358.581722,266 355,269.581722 355,274 L355,340 L355,340 Z" id="image" fill="#4B96CC"></path>
    <path d="M355,340 L362.038605,340 C362.663874,340 363.273517,340.195369 363.782319,340.5588 L366.5,342.5 C368.55098,343.964985 371.340118,343.827397 373.236955,342.167665 L374,341.5 C376.25092,339.530445 379.643402,339.643402 381.758324,341.758324 L382,342 C384.149433,344.149433 387.598257,344.207525 389.817927,342.174278 L390,342 C392.149433,339.850567 395.598257,339.792475 397.817927,341.825722 L398,342 C400.149433,344.149433 403.598257,344.207525 405.817927,342.174278 L406,342 C408.149433,339.850567 411.598257,339.792475 413.817927,341.825722 L414,342 C416.149433,344.149433 419.598257,344.207525 421.817927,342.174278 L422,342 C424.149433,339.850567 427.598257,339.792475 429.817927,341.825722 L430,342 C432.149433,344.149433 435.598257,344.207525 437.817927,342.174278 L438,342 C440.149433,339.850567 443.598257,339.792475 445.817927,341.825722 L446,342 C448.149433,344.149433 451.598257,344.207525 453.817927,342.174278 L454,342 C456.149433,339.850567 459.598257,339.792475 461.817927,341.825722 L462,342 C464.209139,344.209139 467.790861,344.209139 470,342 L470.241676,341.758324 C472.356598,339.643402 475.74908,339.530445 478,341.5 L479.061094,342.428457 C480.753766,343.909545 483.272141,343.939883 485,342.5 L487.165597,340.695336 C487.704742,340.246049 488.38434,340 489.08615,340 L497,340 L497,274 C497,269.581722 493.418278,266 489,266 L363,266 C358.581722,266 355,269.581722 355,274 L355,340 Z M359,274 C359,271.790861 360.790861,270 363,270 L489,270 C491.209139,270 493,271.790861 493,274 L493,336 L489.08615,336 C487.448594,336 485.862864,336.574114 484.604859,337.622451 L482.439262,339.427115 C482.22276,339.607533 481.907206,339.603732 481.695112,339.418151 L480.634018,338.489693 C476.79828,335.133422 471.017236,335.32591 467.413249,338.929897 L467.171573,339.171573 C466.524531,339.818615 465.475469,339.818615 464.828427,339.171573 C461.057191,335.400337 454.942809,335.400337 451.171573,339.171573 C450.524531,339.818615 449.475469,339.818615 448.828427,339.171573 C445.057191,335.400337 438.942809,335.400337 435.171573,339.171573 C434.524531,339.818615 433.475469,339.818615 432.828427,339.171573 C429.057191,335.400337 422.942809,335.400337 419.171573,339.171573 C418.524531,339.818615 417.475469,339.818615 416.828427,339.171573 C413.057191,335.400337 406.942809,335.400337 403.171573,339.171573 C402.524531,339.818615 401.475469,339.818615 400.828427,339.171573 C397.057191,335.400337 390.942809,335.400337 387.171573,339.171573 C386.524531,339.818615 385.475469,339.818615 384.828427,339.171573 L384.586751,338.929897 C380.982764,335.32591 375.20172,335.133422 371.365982,338.489693 L370.602936,339.157358 C370.102333,339.595386 369.366237,339.631698 368.824953,339.245066 L366.107272,337.303866 C364.920067,336.455862 363.497566,336 362.038605,336 L359,336 L359,274 Z" id="image" fill-opacity="0.600005463" fill="#284155" fill-rule="nonzero"></path>
    <rect id="text-skeleton" fill="#FFFFFF" x="386" y="296" width="80" height="16" rx="2"></rect>
    <rect id="prompt-background" fill="#284155" x="344" y="255" width="22" height="22" rx="2"></rect>
    <path d="M351.555,264.535 C351.535,263.934997 351.604999,263.377503 351.765,262.8625 C351.925001,262.347497 352.164998,261.897502 352.485,261.5125 C352.805002,261.127498 353.207498,260.827501 353.6925,260.6125 C354.177502,260.397499 354.734997,260.29 355.365,260.29 C355.845002,260.29 356.302498,260.364999 356.7375,260.515 C357.172502,260.665001 357.554998,260.879999 357.885,261.16 C358.215002,261.440001 358.477499,261.784998 358.6725,262.195 C358.867501,262.605002 358.965,263.064997 358.965,263.575 C358.965,264.105003 358.880001,264.559998 358.71,264.94 C358.539999,265.320002 358.315,265.657499 358.035,265.9525 C357.754999,266.247501 357.437502,266.514999 357.0825,266.755 C356.727498,266.995001 356.370002,267.232499 356.01,267.4675 C355.649998,267.702501 355.300002,267.954999 354.96,268.225 C354.619998,268.495001 354.320001,268.809998 354.06,269.17 L359.025,269.17 L359.025,271 L351.315,271 C351.315,270.389997 351.402499,269.860002 351.5775,269.41 C351.752501,268.959998 351.989999,268.557502 352.29,268.2025 C352.590002,267.847498 352.942498,267.520001 353.3475,267.22 C353.617501,267.019999 353.8975,266.817778 354.187499,266.613334 L354.63,266.305 C354.860001,266.144999 355.104999,265.982501 355.365,265.8175 C355.625001,265.652499 355.862499,265.470001 356.0775,265.27 C356.292501,265.069999 356.472499,264.845001 356.6175,264.595 C356.762501,264.344999 356.835,264.060002 356.835,263.74 C356.835,263.229997 356.687501,262.832501 356.3925,262.5475 C356.097499,262.262499 355.720002,262.12 355.26,262.12 C354.949998,262.12 354.687501,262.192499 354.4725,262.3375 C354.257499,262.482501 354.085001,262.672499 353.955,262.9075 C353.824999,263.142501 353.7325,263.402499 353.6775,263.6875 C353.6225,263.972501 353.595,264.254999 353.595,264.535 L351.555,264.535 Z" id="2" fill="#FFFFFF" fill-rule="nonzero"></path>
    <path d="M527,354 L534.038605,354 C534.663874,354 535.273517,354.195369 535.782319,354.5588 L538.5,356.5 C540.55098,357.964985 543.340118,357.827397 545.236955,356.167665 L546,355.5 C548.25092,353.530445 551.643402,353.643402 553.758324,355.758324 L554,356 C556.209139,358.209139 559.790861,358.209139 562,356 C564.209139,353.790861 567.790861,353.790861 570,356 C572.209139,358.209139 575.790861,358.209139 578,356 C580.209139,353.790861 583.790861,353.790861 586,356 C588.209139,358.209139 591.790861,358.209139 594,356 C596.209139,353.790861 599.790861,353.790861 602,356 C604.209139,358.209139 607.790861,358.209139 610,356 C612.209139,353.790861 615.790861,353.790861 618,356 C620.209139,358.209139 623.790861,358.209139 626,356 C628.209139,353.790861 631.790861,353.790861 634,356 C636.209139,358.209139 639.790861,358.209139 642,356 L642.241676,355.758324 C644.356598,353.643402 647.74908,353.530445 650,355.5 L651.061094,356.428457 C652.753766,357.909545 655.272141,357.939883 657,356.5 L659.165597,354.695336 C659.704742,354.246049 660.38434,354 661.08615,354 L669,354 L669,354 L669,418 C669,420.209139 667.209139,422 665,422 L531,422 C528.790861,422 527,420.209139 527,418 L527,354 L527,354 Z" id="matching-target" fill="#284155" opacity="0.400000006"></path>
    <path d="M527,340 L534.038605,340 C534.663874,340 535.273517,340.195369 535.782319,340.5588 L538.5,342.5 C540.55098,343.964985 543.340118,343.827397 545.236955,342.167665 L546,341.5 C548.25092,339.530445 551.643402,339.643402 553.758324,341.758324 L554,342 L554,342 C556.209139,344.209139 559.790861,344.209139 562,342 C564.209139,339.790861 567.790861,339.790861 570,342 C572.209139,344.209139 575.790861,344.209139 578,342 C580.209139,339.790861 583.790861,339.790861 586,342 C588.209139,344.209139 591.790861,344.209139 594,342 C596.209139,339.790861 599.790861,339.790861 602,342 C604.209139,344.209139 607.790861,344.209139 610,342 C612.209139,339.790861 615.790861,339.790861 618,342 C620.209139,344.209139 623.790861,344.209139 626,342 C628.209139,339.790861 631.790861,339.790861 634,342 C636.209139,344.209139 639.790861,344.209139 642,342 L642.241676,341.758324 C644.356598,339.643402 647.74908,339.530445 650,341.5 L651.061094,342.428457 C652.753766,343.909545 655.272141,343.939883 657,342.5 L659.165597,340.695336 C659.704742,340.246049 660.38434,340 661.08615,340 L669,340 L669,340 L669,274 C669,269.581722 665.418278,266 661,266 L535,266 C530.581722,266 527,269.581722 527,274 L527,340 L527,340 Z" id="image" fill="#4B96CC"></path>
    <path d="M527,340 L534.038605,340 C534.663874,340 535.273517,340.195369 535.782319,340.5588 L538.5,342.5 C540.55098,343.964985 543.340118,343.827397 545.236955,342.167665 L546,341.5 C548.25092,339.530445 551.643402,339.643402 553.758324,341.758324 L554,342 C556.149433,344.149433 559.598257,344.207525 561.817927,342.174278 L562,342 C564.149433,339.850567 567.598257,339.792475 569.817927,341.825722 L570,342 C572.149433,344.149433 575.598257,344.207525 577.817927,342.174278 L578,342 C580.149433,339.850567 583.598257,339.792475 585.817927,341.825722 L586,342 C588.149433,344.149433 591.598257,344.207525 593.817927,342.174278 L594,342 C596.149433,339.850567 599.598257,339.792475 601.817927,341.825722 L602,342 C604.149433,344.149433 607.598257,344.207525 609.817927,342.174278 L610,342 C612.149433,339.850567 615.598257,339.792475 617.817927,341.825722 L618,342 C620.149433,344.149433 623.598257,344.207525 625.817927,342.174278 L626,342 C628.149433,339.850567 631.598257,339.792475 633.817927,341.825722 L634,342 C636.209139,344.209139 639.790861,344.209139 642,342 L642.241676,341.758324 C644.356598,339.643402 647.74908,339.530445 650,341.5 L651.061094,342.428457 C652.753766,343.909545 655.272141,343.939883 657,342.5 L659.165597,340.695336 C659.704742,340.246049 660.38434,340 661.08615,340 L669,340 L669,274 C669,269.581722 665.418278,266 661,266 L535,266 C530.581722,266 527,269.581722 527,274 L527,340 Z M531,274 C531,271.790861 532.790861,270 535,270 L661,270 C663.209139,270 665,271.790861 665,274 L665,336 L661.08615,336 C659.448594,336 657.862864,336.574114 656.604859,337.622451 L654.439262,339.427115 C654.22276,339.607533 653.907206,339.603732 653.695112,339.418151 L652.634018,338.489693 C648.79828,335.133422 643.017236,335.32591 639.413249,338.929897 L639.171573,339.171573 C638.524531,339.818615 637.475469,339.818615 636.828427,339.171573 C633.057191,335.400337 626.942809,335.400337 623.171573,339.171573 C622.524531,339.818615 621.475469,339.818615 620.828427,339.171573 C617.057191,335.400337 610.942809,335.400337 607.171573,339.171573 C606.524531,339.818615 605.475469,339.818615 604.828427,339.171573 C601.057191,335.400337 594.942809,335.400337 591.171573,339.171573 C590.524531,339.818615 589.475469,339.818615 588.828427,339.171573 C585.057191,335.400337 578.942809,335.400337 575.171573,339.171573 C574.524531,339.818615 573.475469,339.818615 572.828427,339.171573 C569.057191,335.400337 562.942809,335.400337 559.171573,339.171573 C558.524531,339.818615 557.475469,339.818615 556.828427,339.171573 L556.586751,338.929897 C552.982764,335.32591 547.20172,335.133422 543.365982,338.489693 L542.602936,339.157358 C542.102333,339.595386 541.366237,339.631698 540.824953,339.245066 L538.107272,337.303866 C536.920067,336.455862 535.497566,336 534.038605,336 L531,336 L531,274 Z" id="image" fill-opacity="0.600005463" fill="#284155" fill-rule="nonzero"></path>
    <rect id="text-skeleton" fill="#FFFFFF" x="558" y="296" width="80" height="16" rx="2"></rect>
    <rect id="prompt-background" fill="#284155" x="516" y="255" width="22" height="22" rx="2"></rect>
    <path d="M526.42,264.745 C526.650001,264.765 526.894999,264.765 527.155,264.745 C527.415001,264.725 527.657499,264.6675 527.8825,264.5725 C528.107501,264.4775 528.292499,264.340001 528.4375,264.16 C528.582501,263.979999 528.655,263.740002 528.655,263.44 C528.655,262.989998 528.505002,262.645001 528.205,262.405 C527.904999,262.164999 527.560002,262.045 527.17,262.045 C526.629997,262.045 526.222501,262.222498 525.9475,262.5775 C525.672499,262.932502 525.54,263.379997 525.55,263.92 L523.525,263.92 C523.545,263.379997 523.642499,262.887502 523.8175,262.4425 C523.992501,261.997498 524.237498,261.615002 524.5525,261.295 C524.867502,260.974998 525.244998,260.727501 525.685,260.5525 C526.125002,260.377499 526.614997,260.29 527.155,260.29 C527.575002,260.29 527.994998,260.352499 528.415,260.4775 C528.835002,260.602501 529.212498,260.79 529.5475,261.04 C529.882502,261.29 530.154999,261.594998 530.365,261.955 C530.575001,262.315002 530.68,262.729998 530.68,263.2 C530.68,263.710003 530.557501,264.159998 530.3125,264.55 C530.067499,264.940002 529.700002,265.204999 529.21,265.345 L529.21,265.375 C529.790003,265.505001 530.244998,265.784998 530.575,266.215 C530.905002,266.645002 531.07,267.159997 531.07,267.76 C531.07,268.310003 530.962501,268.799998 530.7475,269.23 C530.532499,269.660002 530.245002,270.019999 529.885,270.31 C529.524998,270.600001 529.110002,270.819999 528.64,270.97 C528.169998,271.120001 527.680003,271.195 527.17,271.195 C526.579997,271.195 526.042502,271.110001 525.5575,270.94 C525.072498,270.769999 524.660002,270.522502 524.32,270.1975 C523.979998,269.872498 523.717501,269.475002 523.5325,269.005 C523.347499,268.534998 523.26,267.995003 523.27,267.385 L525.295,267.385 C525.305,267.665001 525.35,267.932499 525.43,268.1875 C525.51,268.442501 525.624999,268.662499 525.775,268.8475 C525.925001,269.032501 526.112499,269.179999 526.3375,269.29 C526.562501,269.400001 526.829998,269.455 527.14,269.455 C527.620002,269.455 528.024998,269.307501 528.355,269.0125 C528.685002,268.717499 528.85,268.315003 528.85,267.805 C528.85,267.404998 528.772501,267.100001 528.6175,266.89 C528.462499,266.679999 528.265001,266.5275 528.025,266.4325 C527.784999,266.3375 527.522501,266.2825 527.2375,266.2675 C526.952499,266.2525 526.680001,266.245 526.42,266.245 L526.42,264.745 Z" id="3" fill="#FFFFFF" fill-rule="nonzero"></path>
    <path d="M699,354 L706.038605,354 C706.663874,354 707.273517,354.195369 707.782319,354.5588 L710.5,356.5 C712.55098,357.964985 715.340118,357.827397 717.236955,356.167665 L718,355.5 C720.25092,353.530445 723.643402,353.643402 725.758324,355.758324 L726,356 C728.209139,358.209139 731.790861,358.209139 734,356 C736.209139,353.790861 739.790861,353.790861 742,356 C744.209139,358.209139 747.790861,358.209139 750,356 C752.209139,353.790861 755.790861,353.790861 758,356 C760.209139,358.209139 763.790861,358.209139 766,356 C768.209139,353.790861 771.790861,353.790861 774,356 C776.209139,358.209139 779.790861,358.209139 782,356 C784.209139,353.790861 787.790861,353.790861 790,356 C792.209139,358.209139 795.790861,358.209139 798,356 C800.209139,353.790861 803.790861,353.790861 806,356 C808.209139,358.209139 811.790861,358.209139 814,356 L814.241676,355.758324 C816.356598,353.643402 819.74908,353.530445 822,355.5 L823.061094,356.428457 C824.753766,357.909545 827.272141,357.939883 829,356.5 L831.165597,354.695336 C831.704742,354.246049 832.38434,354 833.08615,354 L841,354 L841,354 L841,418 C841,420.209139 839.209139,422 837,422 L703,422 C700.790861,422 699,420.209139 699,418 L699,354 L699,354 Z" id="matching-target" fill="#284155" opacity="0.400000006"></path>
    <path d="M699,340 L706.038605,340 C706.663874,340 707.273517,340.195369 707.782319,340.5588 L710.5,342.5 C712.55098,343.964985 715.340118,343.827397 717.236955,342.167665 L718,341.5 C720.25092,339.530445 723.643402,339.643402 725.758324,341.758324 L726,342 L726,342 C728.209139,344.209139 731.790861,344.209139 734,342 C736.209139,339.790861 739.790861,339.790861 742,342 C744.209139,344.209139 747.790861,344.209139 750,342 C752.209139,339.790861 755.790861,339.790861 758,342 C760.209139,344.209139 763.790861,344.209139 766,342 C768.209139,339.790861 771.790861,339.790861 774,342 C776.209139,344.209139 779.790861,344.209139 782,342 C784.209139,339.790861 787.790861,339.790861 790,342 C792.209139,344.209139 795.790861,344.209139 798,342 C800.209139,339.790861 803.790861,339.790861 806,342 C808.209139,344.209139 811.790861,344.209139 814,342 L814.241676,341.758324 C816.356598,339.643402 819.74908,339.530445 822,341.5 L823.061094,342.428457 C824.753766,343.909545 827.272141,343.939883 829,342.5 L831.165597,340.695336 C831.704742,340.246049 832.38434,340 833.08615,340 L841,340 L841,340 L841,274 C841,269.581722 837.418278,266 833,266 L707,266 C702.581722,266 699,269.581722 699,274 L699,340 L699,340 Z" id="image" fill="#4B96CC"></path>
    <path d="M699,340 L706.038605,340 C706.663874,340 707.273517,340.195369 707.782319,340.5588 L710.5,342.5 C712.55098,343.964985 715.340118,343.827397 717.236955,342.167665 L718,341.5 C720.25092,339.530445 723.643402,339.643402 725.758324,341.758324 L726,342 C728.149433,344.149433 731.598257,344.207525 733.817927,342.174278 L734,342 C736.149433,339.850567 739.598257,339.792475 741.817927,341.825722 L742,342 C744.149433,344.149433 747.598257,344.207525 749.817927,342.174278 L750,342 C752.149433,339.850567 755.598257,339.792475 757.817927,341.825722 L758,342 C760.149433,344.149433 763.598257,344.207525 765.817927,342.174278 L766,342 C768.149433,339.850567 771.598257,339.792475 773.817927,341.825722 L774,342 C776.149433,344.149433 779.598257,344.207525 781.817927,342.174278 L782,342 C784.149433,339.850567 787.598257,339.792475 789.817927,341.825722 L790,342 C792.149433,344.149433 795.598257,344.207525 797.817927,342.174278 L798,342 C800.149433,339.850567 803.598257,339.792475 805.817927,341.825722 L806,342 C808.209139,344.209139 811.790861,344.209139 814,342 L814.241676,341.758324 C816.356598,339.643402 819.74908,339.530445 822,341.5 L823.061094,342.428457 C824.753766,343.909545 827.272141,343.939883 829,342.5 L831.165597,340.695336 C831.704742,340.246049 832.38434,340 833.08615,340 L841,340 L841,274 C841,269.581722 837.418278,266 833,266 L707,266 C702.581722,266 699,269.581722 699,274 L699,340 Z M703,274 C703,271.790861 704.790861,270 707,270 L833,270 C835.209139,270 837,271.790861 837,274 L837,336 L833.08615,336 C831.448594,336 829.862864,336.574114 828.604859,337.622451 L826.439262,339.427115 C826.22276,339.607533 825.907206,339.603732 825.695112,339.418151 L824.634018,338.489693 C820.79828,335.133422 815.017236,335.32591 811.413249,338.929897 L811.171573,339.171573 C810.524531,339.818615 809.475469,339.818615 808.828427,339.171573 C805.057191,335.400337 798.942809,335.400337 795.171573,339.171573 C794.524531,339.818615 793.475469,339.818615 792.828427,339.171573 C789.057191,335.400337 782.942809,335.400337 779.171573,339.171573 C778.524531,339.818615 777.475469,339.818615 776.828427,339.171573 C773.057191,335.400337 766.942809,335.400337 763.171573,339.171573 C762.524531,339.818615 761.475469,339.818615 760.828427,339.171573 C757.057191,335.400337 750.942809,335.400337 747.171573,339.171573 C746.524531,339.818615 745.475469,339.818615 744.828427,339.171573 C741.057191,335.400337 734.942809,335.400337 731.171573,339.171573 C730.524531,339.818615 729.475469,339.818615 728.828427,339.171573 L728.586751,338.929897 C724.982764,335.32591 719.20172,335.133422 715.365982,338.489693 L714.602936,339.157358 C714.102333,339.595386 713.366237,339.631698 712.824953,339.245066 L710.107272,337.303866 C708.920067,336.455862 707.497566,336 706.038605,336 L703,336 L703,274 Z" id="image" fill-opacity="0.600005463" fill="#284155" fill-rule="nonzero"></path>
    <rect id="text-skeleton" fill="#FFFFFF" x="730" y="296" width="80" height="16" rx="2"></rect>
    <rect id="prompt-background" fill="#284155" x="688" y="255" width="22" height="22" rx="2"></rect>
    <path d="M701.465,261 L701.465,267.315 L702.86,267.315 L702.86,269.07 L701.465,269.07 L701.465,271.5 L699.44,271.5 L699.44,269.07 L695,269.07 L695,267.12 L699.56,261 L701.465,261 Z M699.44,263.67 L699.395,263.67 L696.68,267.315 L699.44,267.315 L699.44,263.67 Z" id="Combined-Shape" fill="#FFFFFF" fill-rule="nonzero"></path>
    <rect id="boottom-tray-background" fill-opacity="0.4" fill="#284155" x="0" y="623" width="1024" height="145"></rect>
    <path d="M22,662 L29.0386048,662 C29.6638738,662 30.2735172,662.195369 30.7823194,662.5588 L33.5,664.5 C35.5509796,665.964985 38.3401181,665.827397 40.2369548,664.167665 L41,663.5 C43.2509204,661.530445 46.643402,661.643402 48.7583241,663.758324 L49,664 C51.209139,666.209139 54.790861,666.209139 57,664 C59.209139,661.790861 62.790861,661.790861 65,664 C67.209139,666.209139 70.790861,666.209139 73,664 C75.209139,661.790861 78.790861,661.790861 81,664 C83.209139,666.209139 86.790861,666.209139 89,664 C91.209139,661.790861 94.790861,661.790861 97,664 C99.209139,666.209139 102.790861,666.209139 105,664 C107.209139,661.790861 110.790861,661.790861 113,664 C115.209139,666.209139 118.790861,666.209139 121,664 C123.209139,661.790861 126.790861,661.790861 129,664 C131.209139,666.209139 134.790861,666.209139 137,664 L137.241676,663.758324 C139.356598,661.643402 142.74908,661.530445 145,663.5 L146.061094,664.428457 C147.753766,665.909545 150.272141,665.939883 152,664.5 L154.165597,662.695336 C154.704742,662.246049 155.38434,662 156.08615,662 L164,662 L164,662 L164,726 C164,728.209139 162.209139,730 160,730 L26,730 C23.790861,730 22,728.209139 22,726 L22,662 L22,662 Z" id="option-background" stroke-opacity="0.6" stroke="#284155" stroke-width="2" fill="#FFFFFF"></path>
    <rect id="text-skeleton" fill-opacity="0.4" fill="#284155" x="53" y="689" width="80" height="16" rx="2"></rect>
    <path d="M190,662 L197.038605,662 C197.663874,662 198.273517,662.195369 198.782319,662.5588 L201.5,664.5 C203.55098,665.964985 206.340118,665.827397 208.236955,664.167665 L209,663.5 C211.25092,661.530445 214.643402,661.643402 216.758324,663.758324 L217,664 C219.209139,666.209139 222.790861,666.209139 225,664 C227.209139,661.790861 230.790861,661.790861 233,664 C235.209139,666.209139 238.790861,666.209139 241,664 C243.209139,661.790861 246.790861,661.790861 249,664 C251.209139,666.209139 254.790861,666.209139 257,664 C259.209139,661.790861 262.790861,661.790861 265,664 C267.209139,666.209139 270.790861,666.209139 273,664 C275.209139,661.790861 278.790861,661.790861 281,664 C283.209139,666.209139 286.790861,666.209139 289,664 C291.209139,661.790861 294.790861,661.790861 297,664 C299.209139,666.209139 302.790861,666.209139 305,664 L305.241676,663.758324 C307.356598,661.643402 310.74908,661.530445 313,663.5 L314.061094,664.428457 C315.753766,665.909545 318.272141,665.939883 320,664.5 L322.165597,662.695336 C322.704742,662.246049 323.38434,662 324.08615,662 L332,662 L332,662 L332,726 C332,728.209139 330.209139,730 328,730 L194,730 C191.790861,730 190,728.209139 190,726 L190,662 L190,662 Z" id="option-background" stroke-opacity="0.6" stroke="#284155" stroke-width="2" fill="#FFFFFF"></path>
    <rect id="text-skeleton" fill-opacity="0.4" fill="#284155" x="221" y="689" width="80" height="16" rx="2"></rect>
    <path d="M357,662 L364.038605,662 C364.663874,662 365.273517,662.195369 365.782319,662.5588 L368.5,664.5 C370.55098,665.964985 373.340118,665.827397 375.236955,664.167665 L376,663.5 C378.25092,661.530445 381.643402,661.643402 383.758324,663.758324 L384,664 C386.209139,666.209139 389.790861,666.209139 392,664 C394.209139,661.790861 397.790861,661.790861 400,664 C402.209139,666.209139 405.790861,666.209139 408,664 C410.209139,661.790861 413.790861,661.790861 416,664 C418.209139,666.209139 421.790861,666.209139 424,664 C426.209139,661.790861 429.790861,661.790861 432,664 C434.209139,666.209139 437.790861,666.209139 440,664 C442.209139,661.790861 445.790861,661.790861 448,664 C450.209139,666.209139 453.790861,666.209139 456,664 C458.209139,661.790861 461.790861,661.790861 464,664 C466.209139,666.209139 469.790861,666.209139 472,664 L472.241676,663.758324 C474.356598,661.643402 477.74908,661.530445 480,663.5 L481.061094,664.428457 C482.753766,665.909545 485.272141,665.939883 487,664.5 L489.165597,662.695336 C489.704742,662.246049 490.38434,662 491.08615,662 L499,662 L499,662 L499,726 C499,728.209139 497.209139,730 495,730 L361,730 C358.790861,730 357,728.209139 357,726 L357,662 L357,662 Z" id="option-background" stroke-opacity="0.6" stroke="#284155" stroke-width="2" fill="#FFFFFF"></path>
    <rect id="text-skeleton" fill-opacity="0.4" fill="#284155" x="388" y="689" width="80" height="16" rx="2"></rect>
    <path d="M525,662 L532.038605,662 C532.663874,662 533.273517,662.195369 533.782319,662.5588 L536.5,664.5 C538.55098,665.964985 541.340118,665.827397 543.236955,664.167665 L544,663.5 C546.25092,661.530445 549.643402,661.643402 551.758324,663.758324 L552,664 C554.209139,666.209139 557.790861,666.209139 560,664 C562.209139,661.790861 565.790861,661.790861 568,664 C570.209139,666.209139 573.790861,666.209139 576,664 C578.209139,661.790861 581.790861,661.790861 584,664 C586.209139,666.209139 589.790861,666.209139 592,664 C594.209139,661.790861 597.790861,661.790861 600,664 C602.209139,666.209139 605.790861,666.209139 608,664 C610.209139,661.790861 613.790861,661.790861 616,664 C618.209139,666.209139 621.790861,666.209139 624,664 C626.209139,661.790861 629.790861,661.790861 632,664 C634.209139,666.209139 637.790861,666.209139 640,664 L640.241676,663.758324 C642.356598,661.643402 645.74908,661.530445 648,663.5 L649.061094,664.428457 C650.753766,665.909545 653.272141,665.939883 655,664.5 L657.165597,662.695336 C657.704742,662.246049 658.38434,662 659.08615,662 L667,662 L667,662 L667,726 C667,728.209139 665.209139,730 663,730 L529,730 C526.790861,730 525,728.209139 525,726 L525,662 L525,662 Z" id="option-background" stroke-opacity="0.6" stroke="#284155" stroke-width="2" fill="#FFFFFF"></path>
    <rect id="text-skeleton" fill-opacity="0.4" fill="#284155" x="556" y="689" width="80" height="16" rx="2"></rect>
    <path d="M692,662 L699.038605,662 C699.663874,662 700.273517,662.195369 700.782319,662.5588 L703.5,664.5 C705.55098,665.964985 708.340118,665.827397 710.236955,664.167665 L711,663.5 C713.25092,661.530445 716.643402,661.643402 718.758324,663.758324 L719,664 C721.209139,666.209139 724.790861,666.209139 727,664 C729.209139,661.790861 732.790861,661.790861 735,664 C737.209139,666.209139 740.790861,666.209139 743,664 C745.209139,661.790861 748.790861,661.790861 751,664 C753.209139,666.209139 756.790861,666.209139 759,664 C761.209139,661.790861 764.790861,661.790861 767,664 C769.209139,666.209139 772.790861,666.209139 775,664 C777.209139,661.790861 780.790861,661.790861 783,664 C785.209139,666.209139 788.790861,666.209139 791,664 C793.209139,661.790861 796.790861,661.790861 799,664 C801.209139,666.209139 804.790861,666.209139 807,664 L807.241676,663.758324 C809.356598,661.643402 812.74908,661.530445 815,663.5 L816.061094,664.428457 C817.753766,665.909545 820.272141,665.939883 822,664.5 L824.165597,662.695336 C824.704742,662.246049 825.38434,662 826.08615,662 L834,662 L834,662 L834,726 C834,728.209139 832.209139,730 830,730 L696,730 C693.790861,730 692,728.209139 692,726 L692,662 L692,662 Z" id="option-background" stroke-opacity="0.6" stroke="#284155" stroke-width="2" fill="#FFFFFF"></path>
    <rect id="text-skeleton" fill-opacity="0.4" fill="#284155" x="723" y="689" width="80" height="16" rx="2"></rect>
    <path d="M860,662 L867.038605,662 C867.663874,662 868.273517,662.195369 868.782319,662.5588 L871.5,664.5 C873.55098,665.964985 876.340118,665.827397 878.236955,664.167665 L879,663.5 C881.25092,661.530445 884.643402,661.643402 886.758324,663.758324 L887,664 C889.209139,666.209139 892.790861,666.209139 895,664 C897.209139,661.790861 900.790861,661.790861 903,664 C905.209139,666.209139 908.790861,666.209139 911,664 C913.209139,661.790861 916.790861,661.790861 919,664 C921.209139,666.209139 924.790861,666.209139 927,664 C929.209139,661.790861 932.790861,661.790861 935,664 C937.209139,666.209139 940.790861,666.209139 943,664 C945.209139,661.790861 948.790861,661.790861 951,664 C953.209139,666.209139 956.790861,666.209139 959,664 C961.209139,661.790861 964.790861,661.790861 967,664 C969.209139,666.209139 972.790861,666.209139 975,664 L975.241676,663.758324 C977.356598,661.643402 980.74908,661.530445 983,663.5 L984.061094,664.428457 C985.753766,665.909545 988.272141,665.939883 990,664.5 L992.165597,662.695336 C992.704742,662.246049 993.38434,662 994.08615,662 L1002,662 L1002,662 L1002,726 C1002,728.209139 1000.20914,730 998,730 L864,730 C861.790861,730 860,728.209139 860,726 L860,662 L860,662 Z" id="option-background" stroke-opacity="0.6" stroke="#284155" stroke-width="2" fill="#FFFFFF"></path>
    <rect id="text-skeleton" fill-opacity="0.4" fill="#284155" x="891" y="689" width="80" height="16" rx="2"></rect>
    <rect id="Header" fill="#203344" x="0" y="0" width="1024" height="64"></rect>
</svg>
