<?xml version="1.0" encoding="UTF-8"?>
<svg viewBox="0 0 1024 768" version="1.1" xmlns="http://www.w3.org/2000/svg" xmlns:xlink="http://www.w3.org/1999/xlink">
    <rect id="Rectangle" fill="#EDF4FA" x="0" y="0" width="1024" height="768"></rect>
    <path d="M667.886595,286.027422 C679.770298,286.027422 689.403943,295.654521 689.403943,307.537014 L689.403943,523.654043 C689.403943,535.533462 679.773226,545.163634 667.886595,545.163634 L356.017348,545.163634 C344.133645,545.163634 334.5,535.536535 334.5,523.654043 L334.5,307.537014 C334.5,295.657594 344.130717,286.027422 356.017348,286.027422 L667.886595,286.027422 Z M662.514107,302.223435 L361.389836,302.223435 C355.539173,302.223435 350.787495,306.888785 350.635737,312.701459 L350.631997,312.988238 L350.631997,518.202818 C350.631997,524.057199 355.29433,528.812021 361.103243,528.963879 L361.389836,528.967621 L662.514107,528.967621 C668.364771,528.967621 673.116449,524.302271 673.268206,518.489597 L673.271946,518.202818 L673.271946,312.988238 C673.271946,307.037884 668.455497,302.223435 662.514107,302.223435 Z M563.116902,418.375454 L638.239013,493.795668 C648.677711,504.27579 645.15684,512.771608 630.359282,512.771608 L372.134585,512.771608 C369.16849,512.771608 368.347909,510.954237 370.295945,508.719075 L416.160725,456.094181 C420.062761,451.617015 426.392788,451.62112 430.291247,456.094181 L457.103,486.857422 L525.315031,418.375454 C535.753729,407.895332 552.680514,407.897652 563.116902,418.375454 Z M407.093988,334.615462 C420.458173,334.615462 431.291985,345.492265 431.291985,358.909482 C431.291985,372.326698 420.458173,383.203502 407.093988,383.203502 C393.729804,383.203502 382.895992,372.326698 382.895992,358.909482 C382.895992,345.492265 393.729804,334.615462 407.093988,334.615462 Z" id="image" fill="#4B96CC"></path>
    <rect id="Header" fill="#203344" x="0" y="0" width="1024" height="64"></rect>
</svg>
