<?xml version="1.0" encoding="UTF-8"?>
<svg viewBox="0 0 1024 768" version="1.1" xmlns="http://www.w3.org/2000/svg" xmlns:xlink="http://www.w3.org/1999/xlink">
    <rect id="Rectangle" fill="#EDF4FA" x="0" y="0" width="1024" height="768"></rect>
    <rect id="activity-bgd" stroke="#536777" stroke-width="4" fill="#FFFFFF" x="229" y="146" width="566" height="540" rx="6"></rect>
    <rect id="text-skeleton" fill-opacity="0.25" fill="#536777" x="267" y="184" width="244" height="40" rx="2"></rect>
    <rect id="text-skeleton" fill-opacity="0.25" fill="#536777" x="267" y="244" width="414" height="40" rx="2"></rect>
    <rect id="text-skeleton" fill-opacity="0.25" fill="#536777" x="267" y="589" width="174" height="20" rx="2"></rect>
    <rect id="text-skeleton" fill-opacity="0.25" fill="#536777" x="461" y="589" width="174" height="20" rx="2"></rect>
    <rect id="text-skeleton" fill-opacity="0.25" fill="#536777" x="267" y="349" width="104" height="20" rx="2"></rect>
    <rect id="text-skeleton" fill-opacity="0.25" fill="#536777" x="615" y="349" width="142" height="20" rx="2"></rect>
    <rect id="text-skeleton" fill-opacity="0.25" fill="#536777" x="481" y="469" width="94" height="20" rx="2"></rect>
    <rect id="text-skeleton" fill-opacity="0.25" fill="#536777" transform="translate(374.000000, 539.000000) scale(-1, 1) translate(-374.000000, -539.000000) " x="267" y="529" width="214" height="20" rx="2"></rect>
    <rect id="text-skeleton" fill-opacity="0.25" fill="#536777" x="267" y="409" width="174" height="20" rx="2"></rect>
    <rect id="text-skeleton" fill-opacity="0.25" fill="#536777" x="461" y="409" width="194" height="20" rx="2"></rect>
    <path d="M740.993615,514 C743.21057,514 745,515.79408 745,518.00719 L745,518.00719 L745,559.99281 C745,562.205732 743.20628,564 740.993615,564 L740.993615,564 L505.006385,564 C502.78943,564 501,562.20592 501,559.99281 L501,559.99281 L501,518.00719 C501,515.794268 502.79372,514 505.006385,514 L505.006385,514 Z M723,529 L523,529 C521.895431,529 521,529.895431 521,531 L521,547 C521,548.104569 521.895431,549 523,549 L723,549 C724.104569,549 725,548.104569 725,547 L725,531 C725,529.895431 724.104569,529 723,529 Z" id="input" fill="#4B96CC"></path>
    <path d="M456.992565,454 C459.20581,454 461,455.794268 461,458.00719 L461,499.99281 C461,502.20592 459.203355,504 456.992565,504 L271.007435,504 C268.79419,504 267,502.205732 267,499.99281 L267,458.00719 C267,455.79408 268.796645,454 271.007435,454 L456.992565,454 Z M439,469 L289,469 C287.895431,469 287,469.895431 287,471 L287,471 L287,487 C287,488.104569 287.895431,489 289,489 L289,489 L439,489 C440.104569,489 441,488.104569 441,487 L441,487 L441,471 C441,469.895431 440.104569,469 439,469 L439,469 Z" id="input" fill="#4B96CC"></path>
    <path d="M590.992565,334 C593.20581,334 595,335.794268 595,338.00719 L595,379.99281 C595,382.20592 593.203355,384 590.992565,384 L405.007435,384 C402.79419,384 401,382.205732 401,379.99281 L401,338.00719 C401,335.79408 402.796645,334 405.007435,334 L590.992565,334 Z M573,349 L423,349 C421.945638,349 421.081835,349.815878 421.005486,350.850738 L421,351 L421,367 C421,368.054362 421.815878,368.918165 422.850738,368.994514 L423,369 L573,369 C574.054362,369 574.918165,368.184122 574.994514,367.149262 L575,367 L575,351 C575,349.945638 574.184122,349.081835 573.149262,349.005486 L573,349 Z" id="input" fill="#4B96CC"></path>
    <rect id="bg" fill="#4B96CC" x="739" y="82" width="120" height="120" rx="60"></rect>
    <path d="M817.663839,127.45 L812.610714,122.316667 C812.610714,122.316667 811.363839,121.05 808.870089,123.583333 C806.376339,126.116667 787.541964,142.716667 787.541964,142.716667 L788.526339,143.716667 C792.726339,139.716667 808.213839,125.45 808.935714,124.783333 C809.066964,124.65 809.263839,124.65 809.329464,124.783333 C809.460714,124.916667 809.460714,125.116667 809.329464,125.183333 C809.132589,125.316667 793.251339,140.05 788.985714,144.116667 L797.648214,152.916667 C797.648214,152.916667 813.988839,133.783333 816.482589,131.25 C818.910714,128.716667 817.663839,127.45 817.663839,127.45 L817.663839,127.45 Z M784.260714,149.65 C784.785714,148.65 785.966964,146.516667 787.279464,145.05 L786.295089,144.05 C786.295089,144.05 782.554464,147.85 783.801339,149.183333 L784.260714,149.65 L784.260714,149.65 Z M787.673214,145.45 C786.47153,146.792835 785.324856,148.862168 784.837594,149.816019 C784.79266,149.90398 784.753334,149.982455 784.720089,150.05 C784.720089,150.05 784.995681,150.329966 785.133477,150.469949 C787.205056,152.574411 791.348214,156.783333 791.348214,156.783333 C792.595089,158.05 796.335714,154.25 796.335714,154.25 L787.673214,145.45 Z M790.035714,158.05 L782.554464,150.45 L782.554464,152.983333 L787.607589,158.116667 L790.035714,158.116667 L790.035714,158.05 Z M780.191964,162.916667 C780.848214,162.383333 781.307589,161.916667 781.307589,161.916667 L786.360714,159.383333 L781.241964,154.25 L778.748214,159.383333 C778.748214,159.383333 775.007589,163.183333 776.254464,164.516667 C776.451339,164.716667 776.779464,164.783333 777.173214,164.716667 L777.173214,164.716667 L800.273214,164.716667 L798.501339,162.916667 L780.191964,162.916667 L780.191964,162.916667 Z" id="highlighter" fill="#FFFFFF"></path>
    <rect id="Header" fill="#203344" x="0" y="0" width="1024" height="64"></rect>
</svg>
