<?xml version="1.0" encoding="UTF-8"?>
<svg viewBox="0 0 1024 768" version="1.1" xmlns="http://www.w3.org/2000/svg" xmlns:xlink="http://www.w3.org/1999/xlink">
    <rect id="Rectangle" fill="#EDF4FA" x="0" y="0" width="1024" height="768"></rect>
    <g id="Group" transform="translate(108.000000, 175.000000)">
        <path d="M54,325.994997 C54,322.683192 56.6867182,320 60.0007892,320 L803.999211,320 C807.310494,320 810,322.689445 810,325.994997 L810,478.005003 C810,481.316808 807.313282,484 803.999211,484 L60.0007892,484 C56.6895059,484 54,481.310555 54,478.005003 L54,325.994997 Z" id="input" stroke-opacity="0.6" stroke="#284155" stroke-width="4" fill="#FFFFFF"></path>
        <rect id="text-skeleton" fill-opacity="0.25" fill="#284155" x="56" y="276" width="400" height="26" rx="2"></rect>
        <rect id="prompt-background" fill-opacity="0.4" fill="#93A0AA" x="0" y="271" width="36" height="36" rx="2"></rect>
        <path d="M12.74,287.38 C12.7133332,286.579996 12.8066656,285.83667 13.02,285.15 C13.2333344,284.46333 13.5533312,283.863336 13.98,283.35 C14.4066688,282.836664 14.9433301,282.436668 15.59,282.15 C16.2366699,281.863332 16.9799958,281.72 17.82,281.72 C18.4600032,281.72 19.0699971,281.819999 19.65,282.02 C20.2300029,282.22 20.7399978,282.506665 21.18,282.88 C21.6200022,283.253335 21.9699987,283.713331 22.23,284.26 C22.4900013,284.806669 22.62,285.419997 22.62,286.1 C22.62,286.80667 22.5066678,287.413331 22.28,287.92 C22.0533322,288.426669 21.7533352,288.876665 21.38,289.27 C21.0066648,289.663335 20.5833357,290.019998 20.11,290.34 C19.6366643,290.660002 19.1600024,290.976665 18.68,291.29 C18.1999976,291.603335 17.7333356,291.939998 17.28,292.3 C16.8266644,292.660002 16.4266684,293.079998 16.08,293.56 L22.7,293.56 L22.7,296 L12.42,296 C12.42,295.186663 12.5366655,294.480003 12.77,293.88 C13.0033345,293.279997 13.319998,292.743336 13.72,292.27 C14.120002,291.796664 14.5899973,291.360002 15.13,290.96 C15.6700027,290.559998 16.239997,290.153335 16.84,289.74 C17.1466682,289.526666 17.4733316,289.310001 17.82,289.09 C18.1666684,288.869999 18.4833319,288.626668 18.77,288.36 C19.0566681,288.093332 19.2966657,287.793335 19.49,287.46 C19.6833343,287.126665 19.78,286.746669 19.78,286.32 C19.78,285.639997 19.5833353,285.110002 19.19,284.73 C18.7966647,284.349998 18.2933364,284.16 17.68,284.16 C17.2666646,284.16 16.9166681,284.256666 16.63,284.45 C16.3433319,284.643334 16.1133342,284.896665 15.94,285.21 C15.7666658,285.523335 15.6433337,285.869998 15.57,286.25 C15.4966663,286.630002 15.46,287.006665 15.46,287.38 L12.74,287.38 Z" id="2" fill="#333E47" fill-rule="nonzero"></path>
        <path d="M54,54.9949965 C54,51.683192 56.6867182,49 60.0007892,49 L803.999211,49 C807.310494,49 810,51.6894445 810,54.9949965 L810,207.005003 C810,210.316808 807.313282,213 803.999211,213 L60.0007892,213 C56.6895059,213 54,210.310555 54,207.005003 L54,54.9949965 Z" id="input" stroke-opacity="0.6" stroke="#284155" stroke-width="4" fill="#FFFFFF"></path>
        <rect id="text-skeleton" fill-opacity="0.25" fill="#284155" x="56" y="5" width="400" height="26" rx="2"></rect>
        <rect id="prompt-background" fill-opacity="0.4" fill="#93A0AA" x="0" y="0" width="36" height="36" rx="2"></rect>
        <path d="M19.84,25 L17,25 L17,15.92 L13.48,15.92 L13.48,13.78 C13.9733358,13.7933334 14.4499977,13.7566671 14.91,13.67 C15.3700023,13.5833329 15.7833315,13.4300011 16.15,13.21 C16.5166685,12.9899989 16.8266654,12.7000018 17.08,12.34 C17.3333346,11.9799982 17.4999996,11.533336 17.58,11 L19.84,11 L19.84,25 Z" id="1" fill="#333E47" fill-rule="nonzero"></path>
    </g>
    <rect id="Header" fill="#203344" x="0" y="0" width="1024" height="64"></rect>
</svg>
