<?xml version="1.0" encoding="UTF-8"?>
<svg viewBox="0 0 1024 768" version="1.1" xmlns="http://www.w3.org/2000/svg" xmlns:xlink="http://www.w3.org/1999/xlink">
    <rect id="Rectangle" fill="#EDF4FA" x="0" y="0" width="1024" height="768"></rect>
    <rect id="Header" fill="#203344" x="0" y="0" width="1024" height="64"></rect>
    <path d="M512,296 C578.27417,296 632,349.72583 632,416 C632,482.27417 578.27417,536 512,536 C445.72583,536 392,482.27417 392,416 C392,349.72583 445.72583,296 512,296 Z M512,306.909091 C451.750755,306.909091 402.909091,355.750755 402.909091,416 C402.909091,476.249245 451.750755,525.090909 512,525.090909 C572.249245,525.090909 621.090909,476.249245 621.090909,416 C621.090909,355.750755 572.249245,306.909091 512,306.909091 Z" id="Shape" fill="#284155"></path>
    <circle id="background" fill="#4B96CC" cx="512" cy="416" r="98.1818182"></circle>
    <path d="M546.234104,324.07573 L545.560907,323.704595 C583.259018,337.415097 610.183021,373.563931 610.183021,416.001202 C610.183021,470.225523 566.225523,514.183021 512.001202,514.183021 C469.563931,514.183021 433.415097,487.259018 419.704595,449.560907 C435.449794,478.318964 465.993669,497.819384 501.092112,497.819384 C552.30397,497.819384 593.819384,456.30397 593.819384,405.092112 C593.819384,370.268048 574.622657,339.92762 546.234104,324.07573 L545.560907,323.704595 L546.234104,324.07573 Z" id="Path" fill="#3C78A3"></path>
</svg>
