<?xml version="1.0" encoding="UTF-8"?>
<svg viewBox="0 0 1024 768" version="1.1" xmlns="http://www.w3.org/2000/svg" xmlns:xlink="http://www.w3.org/1999/xlink">
    <rect id="Rectangle" fill="#EDF4FA" x="0" y="0" width="1024" height="768"></rect>
    <path d="M593.407584,266 C608.470728,266 620.681818,278.202165 620.681818,293.268434 L620.681818,538.731566 C620.681818,553.791506 608.464249,566 593.407584,566 L429.774234,566 C414.711091,566 402.5,553.797835 402.5,538.731566 L402.5,293.268434 C402.5,278.208494 414.717569,266 429.774234,266 L593.407584,266 Z M593.411483,279.636364 L429.770335,279.636364 C422.349757,279.636364 416.306328,285.575296 416.139886,292.96456 L416.136364,293.277633 L416.136364,538.722367 C416.136364,546.147982 422.072119,552.193611 429.45743,552.360112 L429.770335,552.363636 L593.411483,552.363636 C600.832061,552.363636 606.87549,546.424704 607.041932,539.03544 L607.045455,538.722367 L607.045455,293.277633 C607.045455,285.747432 600.941318,279.636364 593.411483,279.636364 Z M532.037088,477.363636 C535.728741,477.363636 538.735979,480.29772 538.859678,483.947878 L538.863636,484.181818 C538.863636,487.947396 535.809197,491 532.037088,491 L450.235639,491 C446.465441,491 443.409091,487.939734 443.409091,484.181818 C443.409091,480.41624 446.46353,477.363636 450.235639,477.363636 L532.037088,477.363636 Z M572.961018,477.363636 C576.644646,477.363636 579.645347,480.29772 579.768777,483.947878 L579.772727,484.181818 C579.772727,487.947396 576.723585,491 572.961018,491 L559.311709,491 C555.549706,491 552.5,487.939734 552.5,484.181818 C552.5,480.41624 555.549143,477.363636 559.311709,477.363636 L572.961018,477.363636 Z M477.493952,436.454545 C481.184351,436.454545 484.190567,439.388629 484.314225,443.038787 L484.318182,443.272727 C484.318182,447.038305 481.260081,450.090909 477.493952,450.090909 L450.233321,450.090909 C446.464403,450.090909 443.409091,447.030643 443.409091,443.272727 C443.409091,439.507149 446.467191,436.454545 450.233321,436.454545 L477.493952,436.454545 Z M572.955188,436.454545 C576.641969,436.454545 579.645238,439.388629 579.768774,443.038787 L579.772727,443.272727 C579.772727,447.038305 576.714683,450.090909 572.955188,450.090909 L504.772084,450.090909 C501.006862,450.090909 497.954545,447.030643 497.954545,443.272727 C497.954545,439.507149 501.012589,436.454545 504.772084,436.454545 L572.955188,436.454545 Z M572.955188,395.545455 C576.641969,395.545455 579.645238,398.479538 579.768774,402.129696 L579.772727,402.363636 C579.772727,406.129214 576.714683,409.181818 572.955188,409.181818 L504.772084,409.181818 C501.006862,409.181818 497.954545,406.121552 497.954545,402.363636 C497.954545,398.598059 501.012589,395.545455 504.772084,395.545455 L572.955188,395.545455 Z M477.493952,341 C481.26287,341 484.318182,344.062088 484.318182,347.818225 L484.318182,402.363593 C484.318182,406.129195 481.260081,409.181818 477.493952,409.181818 L450.233321,409.181818 C446.464403,409.181818 443.409091,406.119731 443.409091,402.363593 L443.409091,347.818225 C443.409091,344.052623 446.467191,341 450.233321,341 L477.493952,341 Z M572.955188,341 C576.720411,341 579.772727,344.049143 579.772727,347.811709 L579.772727,361.461018 C579.772727,365.223021 576.714683,368.272727 572.955188,368.272727 L504.772084,368.272727 C501.006862,368.272727 497.954545,365.223585 497.954545,361.461018 L497.954545,347.811709 C497.954545,344.049706 501.012589,341 504.772084,341 L572.955188,341 Z" id="document" fill="#4B96CC"></path>
    <rect id="Header" fill="#203344" x="0" y="0" width="1024" height="64"></rect>
</svg>
