<?xml version="1.0" encoding="UTF-8"?>
<svg viewBox="0 0 1024 768" version="1.1" xmlns="http://www.w3.org/2000/svg" xmlns:xlink="http://www.w3.org/1999/xlink">
    <rect id="Rectangle" fill="#EDF4FA" x="0" y="64" width="1024" height="704"></rect>
    <g id="Video-search" transform="translate(373.500000, 296.000000)">
        <path d="M48.0015813,-4.54747351e-13 L48.0015813,12.0003953 L216.007116,12.0003953 L216.007116,-4.54747351e-13 L252.000465,-4.54747351e-13 C258.632428,-4.54747351e-13 264.008697,5.37364604 264.008697,11.9927013 L264.008697,180.013624 C264.008697,185.111544 260.831409,189.466534 256.337938,191.202155 L246.432882,181.297632 C250.010658,173.611718 252.008302,165.041716 252.008302,156.005139 C252.008302,131.401009 237.199283,110.25571 216.008429,100.996425 L216.007116,24.0007906 L48.0015813,24.0007906 L48.0015813,168.005534 L133.204713,168.006062 C134.05197,172.17977 135.332451,176.196158 136.997175,180.006245 L48.0015813,180.00593 L48.0015813,192.006325 L12.0082322,192.006325 C5.37626868,192.006325 1.70530257e-12,186.632679 1.70530257e-12,180.013624 L1.70530257e-12,11.9927013 C1.70530257e-12,5.36931527 5.36328203,-4.54747351e-13 12.0082322,-4.54747351e-13 L48.0015813,-4.54747351e-13 Z M30.0066844,144.004744 L17.9948969,144.004744 C14.7589831,144.004744 12.1226893,146.567968 12.0045292,149.774513 L12.0003953,149.999245 L12.0003953,162.011033 C12.0003953,165.246947 14.5636191,167.88324 17.7701647,168.001401 L17.9948969,168.005534 L30.0066844,168.005534 C33.2425982,168.005534 35.8788919,165.442311 35.997052,162.235765 L36.001186,162.011033 L36.001186,149.999245 C36.001186,146.688078 33.3173562,144.004744 30.0066844,144.004744 Z M113.370226,74.6857059 L150.638471,93.3198286 C153.6024,94.801793 153.60831,97.201577 150.638471,98.6864965 L113.370226,117.320619 C110.406297,118.802584 108.003558,117.320324 108.003558,113.997369 L108.003558,78.0089563 C108.003558,74.6916114 110.400387,73.2007864 113.370226,74.6857059 Z M30.0066844,84.0027672 L17.9948969,84.0027672 C14.7589831,84.0027672 12.1226893,86.565991 12.0045292,89.7725366 L12.0003953,89.9972688 L12.0003953,102.009056 C12.0003953,105.24497 14.5636191,107.881264 17.7701647,107.999424 L17.9948969,108.003558 L30.0066844,108.003558 C33.2425982,108.003558 35.8788919,105.440334 35.997052,102.233788 L36.001186,102.009056 L36.001186,89.9972688 C36.001186,86.6861012 33.3173562,84.0027672 30.0066844,84.0027672 Z M246.0138,84.0027672 L234.002013,84.0027672 C230.766099,84.0027672 228.129805,86.565991 228.011645,89.7725366 L228.007511,89.9972688 L228.007511,102.009056 C228.007511,105.24497 230.570735,107.881264 233.77728,107.999424 L234.002013,108.003558 L246.0138,108.003558 C249.249714,108.003558 251.886008,105.440334 252.004168,102.233788 L252.008302,102.009056 L252.008302,89.9972688 C252.008302,86.761355 249.445078,84.1250613 246.238532,84.0069012 L246.0138,84.0027672 Z M30.0066844,24.0007906 L17.9948969,24.0007906 C14.7589831,24.0007906 12.1226893,26.5640144 12.0045292,29.77056 L12.0003953,29.9952922 L12.0003953,42.0070797 C12.0003953,45.2429935 14.5636191,47.8792873 17.7701647,47.9974474 L17.9948969,48.0015813 L30.0066844,48.0015813 C33.2425982,48.0015813 35.8788919,45.4383575 35.997052,42.2318119 L36.001186,42.0070797 L36.001186,29.9952922 C36.001186,26.6841246 33.3173562,24.0007906 30.0066844,24.0007906 Z M246.0138,24.0007906 L234.002013,24.0007906 C230.766099,24.0007906 228.129805,26.5640144 228.011645,29.77056 L228.007511,29.9952922 L228.007511,42.0070797 C228.007511,45.2429935 230.570735,47.8792873 233.77728,47.9974474 L234.002013,48.0015813 L246.0138,48.0015813 C249.249714,48.0015813 251.886008,45.4383575 252.004168,42.2318119 L252.008302,42.0070797 L252.008302,29.9952922 C252.008302,26.6841246 249.324472,24.0007906 246.0138,24.0007906 Z" id="video-bkg" fill="#4B96CC"></path>
        <path d="M192.006325,108.011464 C218.516866,108.011464 240.007906,129.502504 240.007906,156.013046 C240.007906,165.119752 237.471943,173.634153 233.067688,180.888577 L272.620864,220.442366 C277.033275,224.854777 277.153108,231.917196 272.880305,236.430931 L272.65538,236.6621 C268.185955,241.131525 260.913205,241.105143 256.435646,236.627584 L216.881856,197.074409 C209.627432,201.478664 201.113032,204.014627 192.006325,204.014627 C165.495784,204.014627 144.004744,182.523587 144.004744,156.013046 C144.004744,129.502504 165.495784,108.011464 192.006325,108.011464 Z M192.006325,126.012057 C175.437237,126.012057 162.005337,139.443957 162.005337,156.013046 C162.005337,172.582134 175.437237,186.014034 192.006325,186.014034 C208.575413,186.014034 222.007313,172.582134 222.007313,156.013046 C222.007313,139.443957 208.575413,126.012057 192.006325,126.012057 Z" id="magnifying-glass" fill="#203344"></path>
    </g>
    <rect id="Header" fill="#203344" x="0" y="0" width="1024" height="64"></rect>
</svg>
