<svg width="32px" height="32px" viewBox="0 0 32 32" version="1.1" xmlns="http://www.w3.org/2000/svg">
	<path d="M48.5,59 C50.9764731,59 52.8918171,61.11303 52.9887586,62.9186917 C53.0450708,63.588073 52.8898166,63.9466702 52.5229958,63.9944831 L52.4345893,64 L44.5317746,64 C44.1772582,64 44,63.6395639 44,62.9186917 C44,61.0982422 46.0194782,59 48.5,59 Z M59.5,59 C61.9764731,59 63.8918171,61.11303 63.9887586,62.9186917 C64.0450708,63.588073 63.8898166,63.9466702 63.5229958,63.9944831 L63.4345893,64 L55.5317746,64 C55.1772582,64 55,63.6395639 55,62.9186917 C55,61.0982422 57.0194782,59 59.5,59 Z M48.5,51 C48.6321247,51 48.9105268,51.068869 49.0665748,51.1517852 C49.2226229,51.2347015 49.3533528,51.40563 49.3533528,51.40563 L49.3858084,51.3840537 C49.4277103,51.359395 49.5073977,51.322407 49.6084048,51.322407 C49.7599153,51.322407 49.8499577,51.3568956 49.9235358,51.40563 C50.6121649,51.8617438 51,52.7301197 51,54 C51,56.0290745 50.4055977,58 48.5,58 C46.5944023,58 46,56.0792196 46,54 C46,51.9207804 47.092761,51 48.5,51 Z M59.5,51 C59.6321247,51 59.9105268,51.068869 60.0665748,51.1517852 C60.2226229,51.2347015 60.3533528,51.40563 60.3533528,51.40563 L60.3858084,51.3840537 C60.4277103,51.359395 60.5073977,51.322407 60.6084048,51.322407 C60.7599153,51.322407 60.8499577,51.3568956 60.9235358,51.40563 C61.6121649,51.8617438 62,52.7301197 62,54 C62,56.0290745 61.4055977,58 59.5,58 C57.5944023,58 57,56.0792196 57,54 C57,51.9207804 58.092761,51 59.5,51 Z M38.5,43.4 C42.0771278,43.4 44.8437358,46.6118055 44.9837624,49.3564114 C45.0651023,50.373871 44.8408462,50.9189387 44.310994,50.9916143 L44.1832956,51 L32.7681189,51 C32.2560396,51 32,50.4521371 32,49.3564114 C32,46.5893281 34.9170241,43.4 38.5,43.4 Z M63,46 C63.553,46 64,46.447 64,47 C64,47.553 63.553,48 63,48 L63,48 L47,48 C46.447,48 46,47.553 46,47 C46,46.447 46.447,46 47,46 L47,46 Z M62,33 C62.5135,33 62.935602,33.3854235 62.9932824,33.8832467 L63,34 L63,43 C63,43.5135 62.6145765,43.935602 62.1167533,43.9932824 L62,44 L48,44 C47.4865,44 47.064398,43.6145765 47.0067176,43.1167533 L47,43 L47,34 C47,33.4865 47.3854235,33.064398 47.8832467,33.0067176 L48,33 L62,33 Z M61,35 L49,35 L49,42 L61,42 L61,35 Z M38.488255,32 C38.6738004,32 39.0765114,32.0993834 39.2956529,32.2190381 C39.5147944,32.3386928 39.6983812,32.5853563 39.6983812,32.5853563 L39.7439593,32.5542199 C39.8028031,32.5186354 39.9147098,32.4652588 40.0565561,32.4652588 C40.2693255,32.4652588 40.395774,32.5150286 40.4991012,32.5853562 C41.4661575,33.2435646 42.1111111,34.4659802 42.1111111,36.2985181 C42.1111111,39.2266333 41.1643259,41.88 38.488255,41.88 C35.8121841,41.88 34.8888889,39.2989966 34.8888889,36.2985181 C34.8888889,33.2980396 36.5120398,32 38.488255,32 Z" transform="translate(-32.000000, -32.000000)" fill="#284155"></path>
</svg>