<?xml version="1.0" encoding="UTF-8"?>
<svg viewBox="0 0 1024 768" version="1.1" xmlns="http://www.w3.org/2000/svg" xmlns:xlink="http://www.w3.org/1999/xlink">
    <rect id="background" fill="#EDF4FA" x="0" y="0" width="1024" height="768"></rect>
    <path d="M162,589.003487 C162,585.687943 164.685768,583 168.000789,583 L911.999211,583 C915.312866,583 918,585.690316 918,589.003487 L918,644.996513 C918,648.312057 915.314232,651 911.999211,651 L168.000789,651 C164.687134,651 162,648.309684 162,644.996513 L162,589.003487 Z" id="input" stroke-opacity="0.6" stroke="#284155" stroke-width="4" fill="#FFFFFF"></path>
    <rect id="text-skeleton" fill-opacity="0.25" fill="#284155" x="164" y="539" width="400" height="26" rx="2"></rect>
    <rect id="prompt-background" fill-opacity="0.4" fill="#93A0AA" x="108" y="534" width="36" height="36" rx="2"></rect>
    <path d="M124.56,550.66 C124.866668,550.686667 125.193332,550.686667 125.54,550.66 C125.886668,550.633333 126.209998,550.556667 126.51,550.43 C126.810001,550.303333 127.056666,550.120001 127.25,549.88 C127.443334,549.639999 127.54,549.320002 127.54,548.92 C127.54,548.319997 127.340002,547.860002 126.94,547.54 C126.539998,547.22 126.080003,547.06 125.56,547.06 C124.839996,547.06 124.296669,547.296664 123.93,547.77 C123.563332,548.243336 123.386667,548.839996 123.4,549.56 L120.7,549.56 C120.726667,548.839996 120.856666,548.183336 121.09,547.59 C121.323335,546.996664 121.649998,546.486669 122.07,546.06 C122.490002,545.633331 122.99333,545.303335 123.58,545.07 C124.16667,544.836665 124.819996,544.72 125.54,544.72 C126.100003,544.72 126.659997,544.803333 127.22,544.97 C127.780003,545.136667 128.283331,545.386665 128.73,545.72 C129.176669,546.053335 129.539999,546.459998 129.82,546.94 C130.100001,547.420002 130.24,547.97333 130.24,548.6 C130.24,549.280003 130.076668,549.879997 129.75,550.4 C129.423332,550.920003 128.933337,551.273332 128.28,551.46 L128.28,551.5 C129.053337,551.673334 129.659998,552.046664 130.1,552.62 C130.540002,553.193336 130.76,553.879996 130.76,554.68 C130.76,555.413337 130.616668,556.066664 130.33,556.64 C130.043332,557.213336 129.660002,557.693331 129.18,558.08 C128.699998,558.466669 128.14667,558.759999 127.52,558.96 C126.89333,559.160001 126.240003,559.26 125.56,559.26 C124.773329,559.26 124.05667,559.146668 123.41,558.92 C122.76333,558.693332 122.213336,558.363335 121.76,557.93 C121.306664,557.496664 120.956668,556.96667 120.71,556.34 C120.463332,555.71333 120.346667,554.993337 120.36,554.18 L123.06,554.18 C123.073333,554.553335 123.133333,554.909998 123.24,555.25 C123.346667,555.590002 123.499999,555.883332 123.7,556.13 C123.900001,556.376668 124.149999,556.573333 124.45,556.72 C124.750002,556.866667 125.106665,556.94 125.52,556.94 C126.160003,556.94 126.699998,556.743335 127.14,556.35 C127.580002,555.956665 127.8,555.420003 127.8,554.74 C127.8,554.206664 127.696668,553.800001 127.49,553.52 C127.283332,553.239999 127.020002,553.036667 126.7,552.91 C126.379998,552.783333 126.030002,552.71 125.65,552.69 C125.269998,552.67 124.906668,552.66 124.56,552.66 L124.56,550.66 Z" id="3" fill="#284155" fill-rule="nonzero"></path>
    <path d="M162,414.003487 C162,410.687943 164.685768,408 168.000789,408 L911.999211,408 C915.312866,408 918,410.690316 918,414.003487 L918,469.996513 C918,473.312057 915.314232,476 911.999211,476 L168.000789,476 C164.687134,476 162,473.309684 162,469.996513 L162,414.003487 Z" id="input" stroke-opacity="0.6" stroke="#284155" stroke-width="4" fill="#FFFFFF"></path>
    <rect id="text-skeleton" fill-opacity="0.25" fill="#284155" x="164" y="364" width="400" height="26" rx="2"></rect>
    <rect id="prompt-background" fill-opacity="0.4" fill="#93A0AA" x="108" y="359" width="36" height="36" rx="2"></rect>
    <path d="M120.74,375.38 C120.713333,374.579996 120.806666,373.83667 121.02,373.15 C121.233334,372.46333 121.553331,371.863336 121.98,371.35 C122.406669,370.836664 122.94333,370.436668 123.59,370.15 C124.23667,369.863332 124.979996,369.72 125.82,369.72 C126.460003,369.72 127.069997,369.819999 127.65,370.02 C128.230003,370.22 128.739998,370.506665 129.18,370.88 C129.620002,371.253335 129.969999,371.713331 130.23,372.26 C130.490001,372.806669 130.62,373.419997 130.62,374.1 C130.62,374.80667 130.506668,375.413331 130.28,375.92 C130.053332,376.426669 129.753335,376.876665 129.38,377.27 C129.006665,377.663335 128.583336,378.019998 128.11,378.34 C127.636664,378.660002 127.160002,378.976665 126.68,379.29 C126.199998,379.603335 125.733336,379.939998 125.28,380.3 C124.826664,380.660002 124.426668,381.079998 124.08,381.56 L130.7,381.56 L130.7,384 L120.42,384 C120.42,383.186663 120.536665,382.480003 120.77,381.88 C121.003334,381.279997 121.319998,380.743336 121.72,380.27 C122.120002,379.796664 122.589997,379.360002 123.13,378.96 C123.670003,378.559998 124.239997,378.153335 124.84,377.74 C125.146668,377.526666 125.473332,377.310001 125.82,377.09 C126.166668,376.869999 126.483332,376.626668 126.77,376.36 C127.056668,376.093332 127.296666,375.793335 127.49,375.46 C127.683334,375.126665 127.78,374.746669 127.78,374.32 C127.78,373.639997 127.583335,373.110002 127.19,372.73 C126.796665,372.349998 126.293336,372.16 125.68,372.16 C125.266665,372.16 124.916668,372.256666 124.63,372.45 C124.343332,372.643334 124.113334,372.896665 123.94,373.21 C123.766666,373.523335 123.643334,373.869998 123.57,374.25 C123.496666,374.630002 123.46,375.006665 123.46,375.38 L120.74,375.38 Z" id="2" fill="#284155" fill-rule="nonzero"></path>
    <path d="M162,239.003487 C162,235.687943 164.685768,233 168.000789,233 L911.999211,233 C915.312866,233 918,235.690316 918,239.003487 L918,294.996513 C918,298.312057 915.314232,301 911.999211,301 L168.000789,301 C164.687134,301 162,298.309684 162,294.996513 L162,239.003487 Z" id="input" stroke-opacity="0.6" stroke="#284155" stroke-width="4" fill="#FFFFFF"></path>
    <rect id="text-skeleton" fill-opacity="0.25" fill="#284155" x="164" y="189" width="400" height="26" rx="2"></rect>
    <rect id="prompt-background" fill-opacity="0.4" fill="#93A0AA" x="108" y="184" width="36" height="36" rx="2"></rect>
    <path d="M127.84,209 L125,209 L125,199.92 L121.48,199.92 L121.48,197.78 C121.973336,197.793333 122.449998,197.756667 122.91,197.67 C123.370002,197.583333 123.783332,197.430001 124.15,197.21 C124.516669,196.989999 124.826665,196.700002 125.08,196.34 C125.333335,195.979998 125.5,195.533336 125.58,195 L127.84,195 L127.84,209 Z" id="1" fill="#284155" fill-rule="nonzero"></path>
    <rect id="Header" fill="#203344" x="0" y="0" width="1024" height="64"></rect>
</svg>
