<?xml version="1.0" encoding="UTF-8"?>
<svg viewBox="0 0 1025 768" version="1.1" xmlns="http://www.w3.org/2000/svg" xmlns:xlink="http://www.w3.org/1999/xlink">
    <rect id="Rectangle" fill="#EDF4FA" x="0" y="0" width="1024" height="768"></rect>
    <path d="M236,626 L236,566 L168.004799,566 C166.897171,566 166,566.896947 166,568.003487 L166,623.996513 C166,625.101156 166.898681,626 168.004799,626 L236,626 Z" id="input" stroke="#536777" stroke-width="4" fill="#FFFFFF"></path>
    <rect id="text-skeleton" fill-opacity="0.25" fill="#536777" x="164" y="518" width="240" height="26" rx="2"></rect>
    <rect id="text-skeleton" fill-opacity="0.25" fill="#536777" x="191" y="586" width="20" height="20" rx="2"></rect>
    <path d="M796,626 L796,566 L728.004799,566 C726.897171,566 726,566.896947 726,568.003487 L726,623.996513 C726,625.101156 726.898681,626 728.004799,626 L796,626 Z" id="input" stroke="#536777" stroke-width="4" fill="#FFFFFF" transform="translate(761.000000, 596.000000) scale(-1, 1) translate(-761.000000, -596.000000) "></path>
    <rect id="text-skeleton" fill-opacity="0.25" fill="#536777" x="751" y="586" width="20" height="20" rx="2"></rect>
    <path d="M236,566 L236,626 L306,626 L306,566 L236,566 Z" id="input" stroke="#536777" stroke-width="4" fill="#FFFFFF" transform="translate(271.000000, 596.000000) scale(-1, 1) translate(-271.000000, -596.000000) "></path>
    <rect id="text-skeleton" fill-opacity="0.25" fill="#536777" x="261" y="586" width="20" height="20" rx="2"></rect>
    <path d="M306,566 L306,626 L376,626 L376,566 L306,566 Z" id="input" stroke="#536777" stroke-width="4" fill="#FFFFFF" transform="translate(341.000000, 596.000000) scale(-1, 1) translate(-341.000000, -596.000000) "></path>
    <rect id="text-skeleton" fill-opacity="0.25" fill="#536777" x="331" y="586" width="20" height="20" rx="2"></rect>
    <path d="M376,566 L376,626 L446,626 L446,566 L376,566 Z" id="input" stroke="#536777" stroke-width="4" fill="#FFFFFF" transform="translate(411.000000, 596.000000) scale(-1, 1) translate(-411.000000, -596.000000) "></path>
    <rect id="text-skeleton" fill-opacity="0.25" fill="#536777" x="401" y="586" width="20" height="20" rx="2"></rect>
    <path d="M446,566 L446,626 L516,626 L516,566 L446,566 Z" id="input" stroke="#536777" stroke-width="4" fill="#FFFFFF" transform="translate(481.000000, 596.000000) scale(-1, 1) translate(-481.000000, -596.000000) "></path>
    <rect id="text-skeleton" fill-opacity="0.25" fill="#536777" x="471" y="586" width="20" height="20" rx="2"></rect>
    <path d="M516,566 L516,626 L586,626 L586,566 L516,566 Z" id="input" stroke="#536777" stroke-width="4" fill="#FFFFFF" transform="translate(551.000000, 596.000000) scale(-1, 1) translate(-551.000000, -596.000000) "></path>
    <rect id="text-skeleton" fill-opacity="0.25" fill="#536777" x="541" y="586" width="20" height="20" rx="2"></rect>
    <path d="M586,566 L586,626 L656,626 L656,566 L586,566 Z" id="input" stroke="#536777" stroke-width="4" fill="#FFFFFF" transform="translate(621.000000, 596.000000) scale(-1, 1) translate(-621.000000, -596.000000) "></path>
    <rect id="text-skeleton" fill-opacity="0.25" fill="#536777" x="611" y="586" width="20" height="20" rx="2"></rect>
    <path d="M656,566 L656,626 L726,626 L726,566 L656,566 Z" id="input" stroke="#536777" stroke-width="4" fill="#FFFFFF" transform="translate(691.000000, 596.000000) scale(-1, 1) translate(-691.000000, -596.000000) "></path>
    <rect id="text-skeleton" fill-opacity="0.25" fill="#536777" x="681" y="586" width="20" height="20" rx="2"></rect>
    <rect id="prompt-bkgd" fill-opacity="0.4" fill="#93A0AA" x="108" y="513" width="36" height="36" rx="2"></rect>
    <path d="M124.56,529.66 C124.866668,529.686667 125.193332,529.686667 125.54,529.66 C125.886668,529.633333 126.209998,529.556667 126.51,529.43 C126.810001,529.303333 127.056666,529.120001 127.25,528.88 C127.443334,528.639999 127.54,528.320002 127.54,527.92 C127.54,527.319997 127.340002,526.860002 126.94,526.54 C126.539998,526.22 126.080003,526.06 125.56,526.06 C124.839996,526.06 124.296668,526.296664 123.93,526.77 C123.563332,527.243336 123.386667,527.839996 123.4,528.56 L120.7,528.56 C120.726667,527.839996 120.856666,527.183336 121.09,526.59 C121.323335,525.996664 121.649998,525.486669 122.07,525.06 C122.490002,524.633331 122.99333,524.303335 123.58,524.07 C124.16667,523.836665 124.819996,523.72 125.54,523.72 C126.100003,523.72 126.659997,523.803333 127.22,523.97 C127.780003,524.136668 128.283331,524.386665 128.73,524.72 C129.176669,525.053335 129.539999,525.459998 129.82,525.94 C130.100001,526.420002 130.24,526.97333 130.24,527.6 C130.24,528.280003 130.076668,528.879997 129.75,529.4 C129.423332,529.920003 128.933337,530.273332 128.28,530.46 L128.28,530.5 C129.053337,530.673334 129.659998,531.046664 130.1,531.62 C130.540002,532.193336 130.76,532.879996 130.76,533.68 C130.76,534.413337 130.616668,535.066664 130.33,535.64 C130.043332,536.213336 129.660002,536.693331 129.18,537.08 C128.699998,537.466669 128.14667,537.759999 127.52,537.96 C126.89333,538.160001 126.240003,538.26 125.56,538.26 C124.773329,538.26 124.05667,538.146668 123.41,537.92 C122.76333,537.693332 122.213336,537.363335 121.76,536.93 C121.306664,536.496664 120.956668,535.96667 120.71,535.34 C120.463332,534.71333 120.346667,533.993337 120.36,533.18 L123.06,533.18 C123.073333,533.553335 123.133333,533.909998 123.24,534.25 C123.346667,534.590002 123.499999,534.883332 123.7,535.13 C123.900001,535.376668 124.149998,535.573333 124.45,535.72 C124.750001,535.866667 125.106665,535.94 125.52,535.94 C126.160003,535.94 126.699998,535.743335 127.14,535.35 C127.580002,534.956665 127.8,534.420003 127.8,533.74 C127.8,533.206664 127.696668,532.800001 127.49,532.52 C127.283332,532.239999 127.020002,532.036667 126.7,531.91 C126.379998,531.783333 126.030002,531.71 125.65,531.69 C125.269998,531.67 124.906668,531.66 124.56,531.66 L124.56,529.66 Z" id="3" fill="#333E47" fill-rule="nonzero"></path>
    <path d="M236,471 L236,411 L168.004799,411 C166.897171,411 166,411.896947 166,413.003487 L166,468.996513 C166,470.101156 166.898681,471 168.004799,471 L236,471 Z" id="input" stroke="#536777" stroke-width="4" fill="#FFFFFF"></path>
    <rect id="text-skeleton" fill-opacity="0.25" fill="#536777" x="191" y="431" width="20" height="20" rx="2"></rect>
    <path d="M446,471 L446,411 L378.004799,411 C376.897171,411 376,411.896947 376,413.003487 L376,468.996513 C376,470.101156 376.898681,471 378.004799,471 L446,471 Z" id="input" stroke="#536777" stroke-width="4" fill="#FFFFFF" transform="translate(411.000000, 441.000000) scale(-1, 1) translate(-411.000000, -441.000000) "></path>
    <rect id="text-skeleton" fill-opacity="0.25" fill="#536777" x="401" y="431" width="20" height="20" rx="2"></rect>
    <path d="M236,411 L236,471 L306,471 L306,411 L236,411 Z" id="input" stroke="#536777" stroke-width="4" fill="#FFFFFF" transform="translate(271.000000, 441.000000) scale(-1, 1) translate(-271.000000, -441.000000) "></path>
    <rect id="text-skeleton" fill-opacity="0.25" fill="#536777" x="261" y="431" width="20" height="20" rx="2"></rect>
    <path d="M306,411 L306,471 L376,471 L376,411 L306,411 Z" id="input" stroke="#536777" stroke-width="4" fill="#FFFFFF" transform="translate(341.000000, 441.000000) scale(-1, 1) translate(-341.000000, -441.000000) "></path>
    <rect id="text-skeleton" fill-opacity="0.25" fill="#536777" x="331" y="431" width="20" height="20" rx="2"></rect>
    <rect id="text-skeleton" fill-opacity="0.25" fill="#536777" x="164" y="363" width="240" height="26" rx="2"></rect>
    <rect id="prompt-bkgd" fill-opacity="0.4" fill="#93A0AA" x="108" y="358" width="36" height="36" rx="2"></rect>
    <path d="M120.74,374.38 C120.713333,373.579996 120.806666,372.83667 121.02,372.15 C121.233334,371.46333 121.553331,370.863336 121.98,370.35 C122.406669,369.836664 122.94333,369.436668 123.59,369.15 C124.23667,368.863332 124.979996,368.72 125.82,368.72 C126.460003,368.72 127.069997,368.819999 127.65,369.02 C128.230003,369.22 128.739998,369.506665 129.18,369.88 C129.620002,370.253335 129.969999,370.713331 130.23,371.26 C130.490001,371.806669 130.62,372.419997 130.62,373.1 C130.62,373.80667 130.506668,374.413331 130.28,374.92 C130.053332,375.426669 129.753335,375.876665 129.38,376.27 C129.006665,376.663335 128.583336,377.019998 128.11,377.34 C127.636664,377.660002 127.160002,377.976665 126.68,378.29 C126.199998,378.603335 125.733336,378.939998 125.28,379.3 C124.826664,379.660002 124.426668,380.079998 124.08,380.56 L130.7,380.56 L130.7,383 L120.42,383 C120.42,382.186663 120.536665,381.480003 120.77,380.88 C121.003334,380.279997 121.319998,379.743336 121.72,379.27 C122.120002,378.796664 122.589997,378.360002 123.13,377.96 C123.670003,377.559998 124.239997,377.153335 124.84,376.74 C125.146668,376.526666 125.473332,376.310001 125.82,376.09 C126.166668,375.869999 126.483332,375.626668 126.77,375.36 C127.056668,375.093332 127.296666,374.793335 127.49,374.46 C127.683334,374.126665 127.78,373.746669 127.78,373.32 C127.78,372.639997 127.583335,372.110002 127.19,371.73 C126.796665,371.349998 126.293336,371.16 125.68,371.16 C125.266665,371.16 124.916668,371.256666 124.63,371.45 C124.343332,371.643334 124.113334,371.896665 123.94,372.21 C123.766666,372.523335 123.643334,372.869998 123.57,373.25 C123.496666,373.630002 123.46,374.006665 123.46,374.38 L120.74,374.38 Z" id="2" fill="#333E47" fill-rule="nonzero"></path>
    <path d="M236,316 L236,256 L172.007222,256 C168.687572,256 166,258.688769 166,262.008515 L166,309.991485 C166,313.314576 168.686724,316 172.007222,316 L236,316 Z" id="input" stroke="#536777" stroke-width="4" fill="#FFFFFF"></path>
    <rect id="text-skeleton" fill-opacity="0.25" fill="#536777" x="191" y="276" width="20" height="20" rx="2"></rect>
    <path d="M656,316 L656,256 L588.004799,256 C586.897171,256 586,256.896947 586,258.003487 L586,313.996513 C586,315.101156 586.898681,316 588.004799,316 L656,316 Z" id="input" stroke="#536777" stroke-width="4" fill="#FFFFFF" transform="translate(621.000000, 286.000000) scale(-1, 1) translate(-621.000000, -286.000000) "></path>
    <rect id="text-skeleton" fill-opacity="0.25" fill="#536777" x="611" y="276" width="20" height="20" rx="2"></rect>
    <path d="M236,256 L236,316 L306,316 L306,256 L236,256 Z" id="input" stroke="#536777" stroke-width="4" fill="#FFFFFF" transform="translate(271.000000, 286.000000) scale(-1, 1) translate(-271.000000, -286.000000) "></path>
    <rect id="text-skeleton" fill-opacity="0.25" fill="#536777" x="261" y="276" width="20" height="20" rx="2"></rect>
    <path d="M306,256 L306,316 L376,316 L376,256 L306,256 Z" id="input" stroke="#536777" stroke-width="4" fill="#FFFFFF" transform="translate(341.000000, 286.000000) scale(-1, 1) translate(-341.000000, -286.000000) "></path>
    <rect id="text-skeleton" fill-opacity="0.25" fill="#536777" x="331" y="276" width="20" height="20" rx="2"></rect>
    <path d="M376,256 L376,316 L446,316 L446,256 L376,256 Z" id="input" stroke="#536777" stroke-width="4" fill="#FFFFFF" transform="translate(411.000000, 286.000000) scale(-1, 1) translate(-411.000000, -286.000000) "></path>
    <rect id="text-skeleton" fill-opacity="0.25" fill="#536777" x="401" y="276" width="20" height="20" rx="2"></rect>
    <path d="M446,256 L446,316 L516,316 L516,256 L446,256 Z" id="input" stroke="#536777" stroke-width="4" fill="#FFFFFF" transform="translate(481.000000, 286.000000) scale(-1, 1) translate(-481.000000, -286.000000) "></path>
    <rect id="text-skeleton" fill-opacity="0.25" fill="#536777" x="471" y="276" width="20" height="20" rx="2"></rect>
    <path d="M516,256 L516,316 L586,316 L586,256 L516,256 Z" id="input" stroke="#536777" stroke-width="4" fill="#FFFFFF" transform="translate(551.000000, 286.000000) scale(-1, 1) translate(-551.000000, -286.000000) "></path>
    <rect id="text-skeleton" fill-opacity="0.25" fill="#536777" x="541" y="276" width="20" height="20" rx="2"></rect>
    <rect id="text-skeleton" fill-opacity="0.25" fill="#536777" x="164" y="208" width="240" height="26" rx="2"></rect>
    <rect id="prompt-bkgd" fill-opacity="0.4" fill="#93A0AA" x="108" y="203" width="36" height="36" rx="2"></rect>
    <path d="M127.84,228 L125,228 L125,218.92 L121.48,218.92 L121.48,216.78 C121.973336,216.793333 122.449998,216.756667 122.91,216.67 C123.370002,216.583333 123.783332,216.430001 124.15,216.21 C124.516668,215.989999 124.826665,215.700002 125.08,215.34 C125.333335,214.979998 125.5,214.533336 125.58,214 L127.84,214 L127.84,228 Z" id="1" fill="#333E47" fill-rule="nonzero"></path>
    <rect id="Header" fill="#203344" x="0" y="0" width="1024" height="64"></rect>
</svg>
