<?xml version="1.0" encoding="UTF-8"?>
<svg viewBox="0 0 1024 768" version="1.1" xmlns="http://www.w3.org/2000/svg" xmlns:xlink="http://www.w3.org/1999/xlink">
    <rect id="Rectangle" fill="#EDF4FA" x="0" y="0" width="1024" height="768"></rect>
    <path d="M342,495.994997 C342,492.685676 344.690313,490 347.997091,490 L912.002909,490 C915.312567,490 918,492.689858 918,495.994997 L918,648.005003 C918,651.314324 915.309687,654 912.002909,654 L347.997091,654 C344.687433,654 342,651.310142 342,648.005003 L342,495.994997 Z" id="input" stroke-opacity="0.6" stroke="#284155" stroke-width="4" fill="#FFFFFF"></path>
    <rect id="Rectangle" fill="#4B96CC" x="164" y="488" width="160" height="168" rx="8"></rect>
    <path d="M164,496.004058 C164,491.583539 167.58516,488 172.002878,488 L315.997122,488 C320.416989,488 324,491.586641 324,496.004058 L324,647.995942 C324,652.416461 320.41484,656 315.997122,656 L172.002878,656 C167.583011,656 164,652.413359 164,647.995942 L164,496.004058 Z M168,496.004058 L168,647.995942 C168,650.205663 169.793592,652 172.002878,652 L315.997122,652 C318.206477,652 320,650.206546 320,647.995942 L320,496.004058 C320,493.794337 318.206408,492 315.997122,492 L172.002878,492 C169.793523,492 168,493.793454 168,496.004058 Z" id="image" fill-opacity="0.600005463" fill="#284155" fill-rule="nonzero"></path>
    <rect id="text-skeleton" fill-opacity="0.25" fill="#284155" x="164" y="442" width="400" height="26" rx="2"></rect>
    <rect id="prompt-bkg" fill-opacity="0.4" fill="#93A0AA" x="108" y="437" width="36" height="36" rx="2"></rect>
    <path d="M120.74,453.38 C120.713333,452.579996 120.806666,451.83667 121.02,451.15 C121.233334,450.46333 121.553331,449.863336 121.98,449.35 C122.406669,448.836664 122.94333,448.436668 123.59,448.15 C124.23667,447.863332 124.979996,447.72 125.82,447.72 C126.460003,447.72 127.069997,447.819999 127.65,448.02 C128.230003,448.22 128.739998,448.506665 129.18,448.88 C129.620002,449.253335 129.969999,449.713331 130.23,450.26 C130.490001,450.806669 130.62,451.419997 130.62,452.1 C130.62,452.80667 130.506668,453.413331 130.28,453.92 C130.053332,454.426669 129.753335,454.876665 129.38,455.27 C129.006665,455.663335 128.583336,456.019998 128.11,456.34 C127.636664,456.660002 127.160002,456.976665 126.68,457.29 C126.199998,457.603335 125.733336,457.939998 125.28,458.3 C124.826664,458.660002 124.426668,459.079998 124.08,459.56 L130.7,459.56 L130.7,462 L120.42,462 C120.42,461.186663 120.536665,460.480003 120.77,459.88 C121.003334,459.279997 121.319998,458.743336 121.72,458.27 C122.120002,457.796664 122.589997,457.360002 123.13,456.96 C123.670003,456.559998 124.239997,456.153335 124.84,455.74 C125.146668,455.526666 125.473332,455.310001 125.82,455.09 C126.166668,454.869999 126.483332,454.626668 126.77,454.36 C127.056668,454.093332 127.296666,453.793335 127.49,453.46 C127.683334,453.126665 127.78,452.746669 127.78,452.32 C127.78,451.639997 127.583335,451.110002 127.19,450.73 C126.796665,450.349998 126.293336,450.16 125.68,450.16 C125.266665,450.16 124.916668,450.256666 124.63,450.45 C124.343332,450.643334 124.113334,450.896665 123.94,451.21 C123.766666,451.523335 123.643334,451.869998 123.57,452.25 C123.496666,452.630002 123.46,453.006665 123.46,453.38 L120.74,453.38 Z" id="2" fill="#333E47" fill-rule="nonzero"></path>
    <path d="M342,234.994997 C342,231.685676 344.690313,229 347.997091,229 L912.002909,229 C915.312567,229 918,231.689858 918,234.994997 L918,387.005003 C918,390.314324 915.309687,393 912.002909,393 L347.997091,393 C344.687433,393 342,390.310142 342,387.005003 L342,234.994997 Z" id="input" stroke-opacity="0.6" stroke="#284155" stroke-width="4" fill="#FFFFFF"></path>
    <rect id="Rectangle" fill="#4B96CC" x="164" y="227" width="160" height="168" rx="8"></rect>
    <path d="M164,235.004058 C164,230.583539 167.58516,227 172.002878,227 L315.997122,227 C320.416989,227 324,230.586641 324,235.004058 L324,386.995942 C324,391.416461 320.41484,395 315.997122,395 L172.002878,395 C167.583011,395 164,391.413359 164,386.995942 L164,235.004058 Z M168,235.004058 L168,386.995942 C168,389.205663 169.793592,391 172.002878,391 L315.997122,391 C318.206477,391 320,389.206546 320,386.995942 L320,235.004058 C320,232.794337 318.206408,231 315.997122,231 L172.002878,231 C169.793523,231 168,232.793454 168,235.004058 Z" id="image" fill-opacity="0.600005463" fill="#284155" fill-rule="nonzero"></path>
    <rect id="text-skeleton" fill-opacity="0.25" fill="#284155" x="164" y="181" width="400" height="26" rx="2"></rect>
    <rect id="prompt-bkg" fill-opacity="0.4" fill="#93A0AA" x="108" y="176" width="36" height="36" rx="2"></rect>
    <path d="M127.84,201 L125,201 L125,191.92 L121.48,191.92 L121.48,189.78 C121.973336,189.793333 122.449998,189.756667 122.91,189.67 C123.370002,189.583333 123.783331,189.430001 124.15,189.21 C124.516668,188.989999 124.826665,188.700002 125.08,188.34 C125.333335,187.979998 125.5,187.533336 125.58,187 L127.84,187 L127.84,201 Z" id="1" fill="#333E47" fill-rule="nonzero"></path>
    <rect id="Header" fill="#203344" x="0" y="0" width="1024" height="64"></rect>
</svg>
