<?xml version="1.0" encoding="UTF-8"?>
<svg viewBox="0 0 1024 768" version="1.1" xmlns="http://www.w3.org/2000/svg" xmlns:xlink="http://www.w3.org/1999/xlink">
    <rect id="Rectangle" fill="#EDF4FA" x="0" y="0" width="1024" height="768"></rect>
    <rect id="boottom-tray-background" fill-opacity="0.4" fill="#284155" x="0" y="623" width="1024" height="145"></rect>
    <path d="M22,662 L29.0386048,662 C29.6638738,662 30.2735172,662.195369 30.7823194,662.5588 L33.5,664.5 C35.5509796,665.964985 38.3401181,665.827397 40.2369548,664.167665 L41,663.5 C43.2509204,661.530445 46.643402,661.643402 48.7583241,663.758324 L49,664 C51.209139,666.209139 54.790861,666.209139 57,664 C59.209139,661.790861 62.790861,661.790861 65,664 C67.209139,666.209139 70.790861,666.209139 73,664 C75.209139,661.790861 78.790861,661.790861 81,664 C83.209139,666.209139 86.790861,666.209139 89,664 C91.209139,661.790861 94.790861,661.790861 97,664 C99.209139,666.209139 102.790861,666.209139 105,664 C107.209139,661.790861 110.790861,661.790861 113,664 C115.209139,666.209139 118.790861,666.209139 121,664 C123.209139,661.790861 126.790861,661.790861 129,664 C131.209139,666.209139 134.790861,666.209139 137,664 L137.241676,663.758324 C139.356598,661.643402 142.74908,661.530445 145,663.5 L146.061094,664.428457 C147.753766,665.909545 150.272141,665.939883 152,664.5 L154.165597,662.695336 C154.704742,662.246049 155.38434,662 156.08615,662 L164,662 L164,662 L164,726 C164,728.209139 162.209139,730 160,730 L26,730 C23.790861,730 22,728.209139 22,726 L22,662 L22,662 Z" id="option-background" stroke-opacity="0.6" stroke="#284155" stroke-width="2" fill="#FFFFFF"></path>
    <rect id="text-skeleton" fill-opacity="0.4" fill="#284155" x="53" y="689" width="80" height="16" rx="2"></rect>
    <path d="M190,662 L197.038605,662 C197.663874,662 198.273517,662.195369 198.782319,662.5588 L201.5,664.5 C203.55098,665.964985 206.340118,665.827397 208.236955,664.167665 L209,663.5 C211.25092,661.530445 214.643402,661.643402 216.758324,663.758324 L217,664 C219.209139,666.209139 222.790861,666.209139 225,664 C227.209139,661.790861 230.790861,661.790861 233,664 C235.209139,666.209139 238.790861,666.209139 241,664 C243.209139,661.790861 246.790861,661.790861 249,664 C251.209139,666.209139 254.790861,666.209139 257,664 C259.209139,661.790861 262.790861,661.790861 265,664 C267.209139,666.209139 270.790861,666.209139 273,664 C275.209139,661.790861 278.790861,661.790861 281,664 C283.209139,666.209139 286.790861,666.209139 289,664 C291.209139,661.790861 294.790861,661.790861 297,664 C299.209139,666.209139 302.790861,666.209139 305,664 L305.241676,663.758324 C307.356598,661.643402 310.74908,661.530445 313,663.5 L314.061094,664.428457 C315.753766,665.909545 318.272141,665.939883 320,664.5 L322.165597,662.695336 C322.704742,662.246049 323.38434,662 324.08615,662 L332,662 L332,662 L332,726 C332,728.209139 330.209139,730 328,730 L194,730 C191.790861,730 190,728.209139 190,726 L190,662 L190,662 Z" id="option-background" stroke-opacity="0.6" stroke="#284155" stroke-width="2" fill="#FFFFFF"></path>
    <rect id="text-skeleton" fill-opacity="0.4" fill="#284155" x="221" y="689" width="80" height="16" rx="2"></rect>
    <path d="M357,662 L364.038605,662 C364.663874,662 365.273517,662.195369 365.782319,662.5588 L368.5,664.5 C370.55098,665.964985 373.340118,665.827397 375.236955,664.167665 L376,663.5 C378.25092,661.530445 381.643402,661.643402 383.758324,663.758324 L384,664 C386.209139,666.209139 389.790861,666.209139 392,664 C394.209139,661.790861 397.790861,661.790861 400,664 C402.209139,666.209139 405.790861,666.209139 408,664 C410.209139,661.790861 413.790861,661.790861 416,664 C418.209139,666.209139 421.790861,666.209139 424,664 C426.209139,661.790861 429.790861,661.790861 432,664 C434.209139,666.209139 437.790861,666.209139 440,664 C442.209139,661.790861 445.790861,661.790861 448,664 C450.209139,666.209139 453.790861,666.209139 456,664 C458.209139,661.790861 461.790861,661.790861 464,664 C466.209139,666.209139 469.790861,666.209139 472,664 L472.241676,663.758324 C474.356598,661.643402 477.74908,661.530445 480,663.5 L481.061094,664.428457 C482.753766,665.909545 485.272141,665.939883 487,664.5 L489.165597,662.695336 C489.704742,662.246049 490.38434,662 491.08615,662 L499,662 L499,662 L499,726 C499,728.209139 497.209139,730 495,730 L361,730 C358.790861,730 357,728.209139 357,726 L357,662 L357,662 Z" id="option-background" stroke-opacity="0.6" stroke="#284155" stroke-width="2" fill="#FFFFFF"></path>
    <rect id="text-skeleton" fill-opacity="0.4" fill="#284155" x="388" y="689" width="80" height="16" rx="2"></rect>
    <path d="M525,662 L532.038605,662 C532.663874,662 533.273517,662.195369 533.782319,662.5588 L536.5,664.5 C538.55098,665.964985 541.340118,665.827397 543.236955,664.167665 L544,663.5 C546.25092,661.530445 549.643402,661.643402 551.758324,663.758324 L552,664 C554.209139,666.209139 557.790861,666.209139 560,664 C562.209139,661.790861 565.790861,661.790861 568,664 C570.209139,666.209139 573.790861,666.209139 576,664 C578.209139,661.790861 581.790861,661.790861 584,664 C586.209139,666.209139 589.790861,666.209139 592,664 C594.209139,661.790861 597.790861,661.790861 600,664 C602.209139,666.209139 605.790861,666.209139 608,664 C610.209139,661.790861 613.790861,661.790861 616,664 C618.209139,666.209139 621.790861,666.209139 624,664 C626.209139,661.790861 629.790861,661.790861 632,664 C634.209139,666.209139 637.790861,666.209139 640,664 L640.241676,663.758324 C642.356598,661.643402 645.74908,661.530445 648,663.5 L649.061094,664.428457 C650.753766,665.909545 653.272141,665.939883 655,664.5 L657.165597,662.695336 C657.704742,662.246049 658.38434,662 659.08615,662 L667,662 L667,662 L667,726 C667,728.209139 665.209139,730 663,730 L529,730 C526.790861,730 525,728.209139 525,726 L525,662 L525,662 Z" id="option-background" stroke-opacity="0.6" stroke="#284155" stroke-width="2" fill="#FFFFFF"></path>
    <rect id="text-skeleton" fill-opacity="0.4" fill="#284155" x="556" y="689" width="80" height="16" rx="2"></rect>
    <path d="M692,662 L699.038605,662 C699.663874,662 700.273517,662.195369 700.782319,662.5588 L703.5,664.5 C705.55098,665.964985 708.340118,665.827397 710.236955,664.167665 L711,663.5 C713.25092,661.530445 716.643402,661.643402 718.758324,663.758324 L719,664 C721.209139,666.209139 724.790861,666.209139 727,664 C729.209139,661.790861 732.790861,661.790861 735,664 C737.209139,666.209139 740.790861,666.209139 743,664 C745.209139,661.790861 748.790861,661.790861 751,664 C753.209139,666.209139 756.790861,666.209139 759,664 C761.209139,661.790861 764.790861,661.790861 767,664 C769.209139,666.209139 772.790861,666.209139 775,664 C777.209139,661.790861 780.790861,661.790861 783,664 C785.209139,666.209139 788.790861,666.209139 791,664 C793.209139,661.790861 796.790861,661.790861 799,664 C801.209139,666.209139 804.790861,666.209139 807,664 L807.241676,663.758324 C809.356598,661.643402 812.74908,661.530445 815,663.5 L816.061094,664.428457 C817.753766,665.909545 820.272141,665.939883 822,664.5 L824.165597,662.695336 C824.704742,662.246049 825.38434,662 826.08615,662 L834,662 L834,662 L834,726 C834,728.209139 832.209139,730 830,730 L696,730 C693.790861,730 692,728.209139 692,726 L692,662 L692,662 Z" id="option-background" stroke-opacity="0.6" stroke="#284155" stroke-width="2" fill="#FFFFFF"></path>
    <rect id="text-skeleton" fill-opacity="0.4" fill="#284155" x="723" y="689" width="80" height="16" rx="2"></rect>
    <path d="M860,662 L867.038605,662 C867.663874,662 868.273517,662.195369 868.782319,662.5588 L871.5,664.5 C873.55098,665.964985 876.340118,665.827397 878.236955,664.167665 L879,663.5 C881.25092,661.530445 884.643402,661.643402 886.758324,663.758324 L887,664 C889.209139,666.209139 892.790861,666.209139 895,664 C897.209139,661.790861 900.790861,661.790861 903,664 C905.209139,666.209139 908.790861,666.209139 911,664 C913.209139,661.790861 916.790861,661.790861 919,664 C921.209139,666.209139 924.790861,666.209139 927,664 C929.209139,661.790861 932.790861,661.790861 935,664 C937.209139,666.209139 940.790861,666.209139 943,664 C945.209139,661.790861 948.790861,661.790861 951,664 C953.209139,666.209139 956.790861,666.209139 959,664 C961.209139,661.790861 964.790861,661.790861 967,664 C969.209139,666.209139 972.790861,666.209139 975,664 L975.241676,663.758324 C977.356598,661.643402 980.74908,661.530445 983,663.5 L984.061094,664.428457 C985.753766,665.909545 988.272141,665.939883 990,664.5 L992.165597,662.695336 C992.704742,662.246049 993.38434,662 994.08615,662 L1002,662 L1002,662 L1002,726 C1002,728.209139 1000.20914,730 998,730 L864,730 C861.790861,730 860,728.209139 860,726 L860,662 L860,662 Z" id="option-background" stroke-opacity="0.6" stroke="#284155" stroke-width="2" fill="#FFFFFF"></path>
    <rect id="text-skeleton" fill-opacity="0.4" fill="#284155" x="891" y="689" width="80" height="16" rx="2"></rect>
    <rect id="text-skeleton" fill-opacity="0.25" fill="#284155" x="112" y="163" width="270" height="26" rx="2"></rect>
    <rect id="text-skeleton" fill-opacity="0.25" fill="#284155" x="112" y="247" width="471" height="26" rx="2"></rect>
    <rect id="text-skeleton" fill-opacity="0.25" fill="#284155" x="603" y="247" width="309" height="26" rx="2"></rect>
    <rect id="text-skeleton" fill-opacity="0.25" fill="#284155" x="532" y="331" width="309" height="26" rx="2"></rect>
    <rect id="text-skeleton" fill-opacity="0.25" fill="#284155" x="112" y="331" width="176" height="26" rx="2"></rect>
    <rect id="text-skeleton" fill-opacity="0.25" fill="#284155" transform="translate(676.500000, 428.000000) scale(-1, 1) translate(-676.500000, -428.000000) " x="441" y="415" width="471" height="26" rx="2"></rect>
    <rect id="text-skeleton" fill-opacity="0.25" fill="#284155" transform="translate(266.500000, 428.000000) scale(-1, 1) translate(-266.500000, -428.000000) " x="112" y="415" width="309" height="26" rx="2"></rect>
    <rect id="text-skeleton" fill-opacity="0.25" fill="#284155" x="112" y="499" width="406" height="26" rx="2"></rect>
    <path d="M542,488.992679 C542,486.787583 543.790103,485 545.995076,485 L738.004924,485 C740.211344,485 742,486.796677 742,488.992679 L742,535.007321 C742,537.212417 740.209897,539 738.004924,539 L545.995076,539 C543.788656,539 542,537.203323 542,535.007321 L542,488.992679 Z" id="dropping-target" fill="#4B96CC"></path>
    <path d="M542,488.992679 C542,486.787583 543.790103,485 545.995076,485 L738.004924,485 C740.211344,485 742,486.796677 742,488.992679 L742,535.007321 C742,537.212417 740.209897,539 738.004924,539 L545.995076,539 C543.788656,539 542,537.203323 542,535.007321 L542,488.992679 Z M545.995076,489 C545.997981,489 546,488.997983 546,488.992679 L546,535.000148 L738.001373,535.001672 L738.001373,488.999852 L545.995076,489 Z" id="dropping-target" fill-opacity="0.600005463" fill="#284155" fill-rule="nonzero"></path>
    <rect id="prompt-background" fill="#284155" x="533" y="476" width="22" height="22" rx="2"></rect>
    <path d="M543.42,485.745 C543.650001,485.765 543.894999,485.765 544.155,485.745 C544.415001,485.725 544.657499,485.6675 544.8825,485.5725 C545.107501,485.4775 545.292499,485.340001 545.4375,485.16 C545.582501,484.979999 545.655,484.740002 545.655,484.44 C545.655,483.989998 545.505002,483.645001 545.205,483.405 C544.904999,483.164999 544.560002,483.045 544.17,483.045 C543.629997,483.045 543.222501,483.222498 542.9475,483.5775 C542.672499,483.932502 542.54,484.379997 542.55,484.92 L540.525,484.92 C540.545,484.379997 540.642499,483.887502 540.8175,483.4425 C540.992501,482.997498 541.237498,482.615002 541.5525,482.295 C541.867502,481.974998 542.244998,481.727501 542.685,481.5525 C543.125002,481.377499 543.614997,481.29 544.155,481.29 C544.575002,481.29 544.994998,481.352499 545.415,481.4775 C545.835002,481.602501 546.212498,481.79 546.5475,482.04 C546.882502,482.29 547.154999,482.594998 547.365,482.955 C547.575001,483.315002 547.68,483.729998 547.68,484.2 C547.68,484.710003 547.557501,485.159998 547.3125,485.55 C547.067499,485.940002 546.700002,486.204999 546.21,486.345 L546.21,486.375 C546.790003,486.505001 547.244998,486.784998 547.575,487.215 C547.905002,487.645002 548.07,488.159997 548.07,488.76 C548.07,489.310003 547.962501,489.799998 547.7475,490.23 C547.532499,490.660002 547.245002,491.019999 546.885,491.31 C546.524998,491.600001 546.110002,491.819999 545.64,491.97 C545.169998,492.120001 544.680003,492.195 544.17,492.195 C543.579997,492.195 543.042502,492.110001 542.5575,491.94 C542.072498,491.769999 541.660002,491.522502 541.32,491.1975 C540.979998,490.872498 540.717501,490.475002 540.5325,490.005 C540.347499,489.534998 540.26,488.995003 540.27,488.385 L542.295,488.385 C542.305,488.665001 542.35,488.932499 542.43,489.1875 C542.51,489.442501 542.624999,489.662499 542.775,489.8475 C542.925001,490.032501 543.112499,490.179999 543.3375,490.29 C543.562501,490.400001 543.829998,490.455 544.14,490.455 C544.620002,490.455 545.024998,490.307501 545.355,490.0125 C545.685002,489.717499 545.85,489.315003 545.85,488.805 C545.85,488.404998 545.772501,488.100001 545.6175,487.89 C545.462499,487.679999 545.265001,487.5275 545.025,487.4325 C544.784999,487.3375 544.522501,487.2825 544.2375,487.2675 C543.952499,487.2525 543.680001,487.245 543.42,487.245 L543.42,485.745 Z" id="3" fill="#FFFFFF" fill-rule="nonzero"></path>
    <path d="M312,320.992679 C312,318.787583 313.790103,317 315.995076,317 L508.004924,317 C510.211344,317 512,318.796677 512,320.992679 L512,367.007321 C512,369.212417 510.209897,371 508.004924,371 L315.995076,371 C313.788656,371 312,369.203323 312,367.007321 L312,320.992679 Z" id="dropping-target" fill="#4B96CC"></path>
    <path d="M312,320.992679 C312,318.787583 313.790103,317 315.995076,317 L508.004924,317 C510.211344,317 512,318.796677 512,320.992679 L512,367.007321 C512,369.212417 510.209897,371 508.004924,371 L315.995076,371 C313.788656,371 312,369.203323 312,367.007321 L312,320.992679 Z M315.995076,321 C315.997981,321 316,320.997983 316,320.992679 L316,367.000148 L508.001429,367.001672 L508.001429,321.000135 L315.995076,321 Z" id="dropping-target" fill-opacity="0.600005463" fill="#284155" fill-rule="nonzero"></path>
    <rect id="prompt-background" fill="#284155" x="303" y="308" width="22" height="22" rx="2"></rect>
    <path d="M310.555,317.535 C310.535,316.934997 310.604999,316.377503 310.765,315.8625 C310.925001,315.347497 311.164998,314.897502 311.485,314.5125 C311.805002,314.127498 312.207498,313.827501 312.6925,313.6125 C313.177502,313.397499 313.734997,313.29 314.365,313.29 C314.845002,313.29 315.302498,313.364999 315.7375,313.515 C316.172502,313.665001 316.554998,313.879999 316.885,314.16 C317.215002,314.440001 317.477499,314.784998 317.6725,315.195 C317.867501,315.605002 317.965,316.064997 317.965,316.575 C317.965,317.105003 317.880001,317.559998 317.71,317.94 C317.539999,318.320002 317.315,318.657499 317.035,318.9525 C316.754999,319.247501 316.437502,319.514999 316.0825,319.755 C315.727498,319.995001 315.370002,320.232499 315.01,320.4675 C314.649998,320.702501 314.300002,320.954999 313.96,321.225 C313.619998,321.495001 313.320001,321.809998 313.06,322.17 L318.025,322.17 L318.025,324 L310.315,324 C310.315,323.389997 310.402499,322.860002 310.5775,322.41 C310.752501,321.959998 310.989999,321.557502 311.29,321.2025 C311.590002,320.847498 311.942498,320.520001 312.3475,320.22 C312.617501,320.019999 312.8975,319.817778 313.187499,319.613334 L313.63,319.305 C313.860001,319.144999 314.104999,318.982501 314.365,318.8175 C314.625001,318.652499 314.862499,318.470001 315.0775,318.27 C315.292501,318.069999 315.472499,317.845001 315.6175,317.595 C315.762501,317.344999 315.835,317.060002 315.835,316.74 C315.835,316.229997 315.687501,315.832501 315.3925,315.5475 C315.097499,315.262499 314.720002,315.12 314.26,315.12 C313.949998,315.12 313.687501,315.192499 313.4725,315.3375 C313.257499,315.482501 313.085001,315.672499 312.955,315.9075 C312.824999,316.142501 312.7325,316.402499 312.6775,316.6875 C312.6225,316.972501 312.595,317.254999 312.595,317.535 L310.555,317.535 Z" id="2" fill="#FFFFFF" fill-rule="nonzero"></path>
    <path d="M406,152.992679 C406,150.787583 407.790103,149 409.995076,149 L602.004924,149 C604.211344,149 606,150.796677 606,152.992679 L606,199.007321 C606,201.212417 604.209897,203 602.004924,203 L409.995076,203 C407.788656,203 406,201.203323 406,199.007321 L406,152.992679 Z" id="dropping-target" fill="#4B96CC"></path>
    <path d="M406,152.992679 C406,150.787583 407.790103,149 409.995076,149 L602.004924,149 C604.211344,149 606,150.796677 606,152.992679 L606,199.007321 C606,201.212417 604.209897,203 602.004924,203 L409.995076,203 C407.788656,203 406,201.203323 406,199.007321 L406,152.992679 Z M409.995076,153 C409.997981,153 410,152.997983 410,152.992679 L410,199.000148 L602.001429,199.001672 L602.001429,153.000135 L409.995076,153 Z" id="dropping-target" fill-opacity="0.600005463" fill="#284155" fill-rule="nonzero"></path>
    <rect id="prompt-background" fill="#284155" x="397" y="138.5" width="22" height="22" rx="2"></rect>
    <path d="M409.88,154.5 L407.75,154.5 L407.75,147.69 L405.11,147.69 L405.11,146.085 C405.480002,146.095 405.837498,146.0675 406.1825,146.0025 C406.527502,145.9375 406.837499,145.822501 407.1125,145.6575 C407.387501,145.492499 407.619999,145.275001 407.81,145.005 C408.000001,144.734999 408.125,144.400002 408.185,144 L409.88,144 L409.88,154.5 Z" id="1" fill="#FFFFFF" fill-rule="nonzero"></path>
    <rect id="Header" fill="#203344" x="0" y="0" width="1024" height="64"></rect>
</svg>
