<?xml version="1.0" encoding="UTF-8"?>
<svg viewBox="0 0 1024 768" version="1.1" xmlns="http://www.w3.org/2000/svg" xmlns:xlink="http://www.w3.org/1999/xlink">
    <rect id="Rectangle" fill="#EDF4FA" x="0" y="64" width="1024" height="704"></rect>
    <g id="search-web-link" transform="translate(381.500000, 296.000000)">
        <path d="M191.50212,39.2866775 C211.884732,63.6463842 219.426294,93.9327293 215.217156,123.167474 C212.446937,120.782819 209.420378,118.68787 206.184302,116.929696 C206.343969,115.509384 206.458277,114.137078 206.514378,112.846742 L196.352393,112.846511 C191.688847,111.458129 186.74841,110.712561 181.633835,110.712561 C173.587211,110.712561 165.971609,112.557984 159.187173,115.848686 C159.21319,114.857693 159.225765,113.856409 159.225765,112.846742 L113.438378,112.846742 L113.438378,145.87371 C119.924308,145.87371 126.254991,146.184203 132.501031,146.734585 C131.491785,149.939406 130.788276,153.27833 130.423456,156.718353 C124.901443,156.276202 119.239089,155.95394 113.438378,155.631678 L113.438378,205.17213 C123.200034,203.364416 131.046129,196.680726 137.228295,188.308419 C138.989252,191.303262 141.046526,194.103138 143.358188,196.669344 C142.195616,198.062011 140.980145,199.398138 139.70983,200.668452 C141.589194,200.067056 143.445972,199.405429 145.277147,198.686588 C148.019226,201.421098 151.068516,203.847737 154.368316,205.910993 C114.710972,224.320195 65.5068429,217.807356 32.372184,184.154969 C-9.66213875,142.871259 -9.66213875,73.8148712 32.372184,31.7805484 C81.162023,-17.0092905 153.971475,-5.75009691 191.50212,39.2866775 Z M103.68041,155.631678 C90.1693779,156.382291 77.4089584,157.132904 65.3991519,159.384743 C71.4040552,176.648839 84.1644746,201.419065 103.68041,205.17213 L103.68041,155.631678 Z M55.6411841,160.885968 C46.6338293,162.387194 38.3770873,164.639033 30.8709582,167.641485 C42.8807647,182.653743 58.6436358,194.663549 77.4089584,200.668452 C66.9003777,190.159872 60.1448616,175.147614 55.6411841,160.885968 Z M48.1350551,112.846742 L10.6044097,112.846742 C12.1056355,130.110839 16.609313,145.123097 24.866055,158.63413 C33.8734098,155.631678 42.8807647,153.379839 52.6387325,151.128001 C49.6362809,139.868807 48.1350551,126.357775 48.1350551,112.846742 Z M103.68041,112.846742 L57.8930229,112.846742 C58.6436358,126.357775 60.1448616,138.367581 62.3967003,149.626775 C75.9077326,147.374936 89.418765,145.87371 103.68041,145.87371 L103.68041,112.846742 Z M24.1154421,58.8026131 C16.609313,72.3136454 11.3550226,87.3259035 10.6044097,103.088775 L48.1350551,103.088775 C48.1350551,90.3283552 49.6362809,78.3185487 52.6387325,67.0593551 C42.1301518,64.8075163 33.1227969,61.8050647 24.1154421,58.8026131 Z M62.3967003,68.5605809 C60.1448616,79.0691616 57.8930229,91.0789681 57.8930229,103.088775 L103.68041,103.088775 L103.68041,72.3136454 C89.418765,72.3136454 75.1571197,70.8124196 62.3967003,68.5605809 Z M154.722088,68.5605809 C141.961668,70.8124196 127.700023,72.3136454 113.438378,72.3136454 L113.438378,103.088775 L159.225765,103.088775 C159.225765,91.0789681 157.724539,79.0691616 154.722088,68.5605809 Z M193.003346,58.8026131 L190.750639,59.5527916 C182.48434,62.3002607 174.112921,64.9951696 164.480056,67.0593551 C167.482507,78.3185487 168.983733,90.3283552 168.983733,103.088775 L206.514378,103.088775 C205.763766,87.3259035 200.509475,72.3136454 193.003346,58.8026131 Z M113.438378,10.763387 L113.438378,62.5556776 C126.94941,61.8050647 140.460443,61.0544518 152.470249,58.8026131 C146.465346,40.7879033 133.704926,14.5164516 113.438378,10.763387 Z M103.68041,10.763387 C83.4138617,14.5164516 70.6534423,40.7879033 64.648539,58.8026131 C77.4089584,61.0544518 90.1693779,61.8050647 103.68041,62.5556776 L103.68041,10.763387 Z M139.70983,15.2670645 C150.969023,26.5262581 157.724539,42.2891291 162.228217,57.3013873 C171.235572,55.0495485 179.492314,52.7977098 187.749056,50.5458711 C175.739249,34.0323872 159.225765,22.0225806 139.70983,15.2670645 Z M77.4089584,15.2670645 C57.8930229,22.0225806 41.3795389,34.0323872 29.3697324,50.5458711 C37.6264744,52.7977098 45.8832164,55.0495485 54.8905712,57.3013873 C59.3942487,42.2891291 66.9003777,26.5262581 77.4089584,15.2670645 Z" id="Combined-Shape" fill="#4B96CC" fill-rule="nonzero"></path>
        <path d="M182.249436,117.882934 C206.57639,117.882934 226.297282,137.603827 226.297282,161.93078 C226.297282,170.287361 223.970218,178.100427 219.928759,184.757308 L256.224015,221.053265 C260.269251,225.098501 260.382747,231.570981 256.472941,235.71342 L256.255688,235.937032 C252.154396,240.038325 245.480678,240.014116 241.371921,235.905359 L205.075964,199.610103 C198.419082,203.651562 190.606017,205.978626 182.249436,205.978626 C157.922482,205.978626 138.20159,186.257734 138.20159,161.93078 C138.20159,137.603827 157.922482,117.882934 182.249436,117.882934 Z M182.249436,134.400876 C167.04509,134.400876 154.719532,146.726434 154.719532,161.93078 C154.719532,177.135126 167.04509,189.460684 182.249436,189.460684 C197.453782,189.460684 209.77934,177.135126 209.77934,161.93078 C209.77934,146.726434 197.453782,134.400876 182.249436,134.400876 Z" id="magnifying-glass" fill="#203344"></path>
    </g>
    <rect id="Header" fill="#203344" x="0" y="0" width="1024" height="64"></rect>
</svg>
