<?xml version="1.0" encoding="UTF-8"?>
<svg viewBox="0 0 1024 768" version="1.1" xmlns="http://www.w3.org/2000/svg" xmlns:xlink="http://www.w3.org/1999/xlink">
    <rect id="Rectangle" fill="#EDF4FA" x="0" y="0" width="1024" height="768"></rect>
    <path d="M699,388 L706.038605,388 C706.663874,388 707.273517,388.195369 707.782319,388.5588 L710.5,390.5 C712.55098,391.964985 715.340118,391.827397 717.236955,390.167665 L718,389.5 C720.25092,387.530445 723.643402,387.643402 725.758324,389.758324 L726,390 C728.209139,392.209139 731.790861,392.209139 734,390 C736.209139,387.790861 739.790861,387.790861 742,390 C744.209139,392.209139 747.790861,392.209139 750,390 C752.209139,387.790861 755.790861,387.790861 758,390 C760.209139,392.209139 763.790861,392.209139 766,390 C768.209139,387.790861 771.790861,387.790861 774,390 C776.209139,392.209139 779.790861,392.209139 782,390 C784.209139,387.790861 787.790861,387.790861 790,390 C792.209139,392.209139 795.790861,392.209139 798,390 C800.209139,387.790861 803.790861,387.790861 806,390 C808.209139,392.209139 811.790861,392.209139 814,390 L814.241676,389.758324 C816.356598,387.643402 819.74908,387.530445 822,389.5 L823.061094,390.428457 C824.753766,391.909545 827.272141,391.939883 829,390.5 L831.165597,388.695336 C831.704742,388.246049 832.38434,388 833.08615,388 L841,388 L841,388 L841,452 C841,454.209139 839.209139,456 837,456 L703,456 C700.790861,456 699,454.209139 699,452 L699,388 L699,388 Z" id="matching-target" fill="#284155" opacity="0.400000006"></path>
    <path d="M703,374 L706.038605,374 C706.663874,374 707.273517,374.195369 707.782319,374.5588 L710.5,376.5 C712.55098,377.964985 715.340118,377.827397 717.236955,376.167665 L718,375.5 C720.25092,373.530445 723.643402,373.643402 725.758324,375.758324 L726,376 L726,376 C728.209139,378.209139 731.790861,378.209139 734,376 C736.209139,373.790861 739.790861,373.790861 742,376 C744.209139,378.209139 747.790861,378.209139 750,376 C752.209139,373.790861 755.790861,373.790861 758,376 C760.209139,378.209139 763.790861,378.209139 766,376 C768.209139,373.790861 771.790861,373.790861 774,376 C776.209139,378.209139 779.790861,378.209139 782,376 C784.209139,373.790861 787.790861,373.790861 790,376 C792.209139,378.209139 795.790861,378.209139 798,376 C800.209139,373.790861 803.790861,373.790861 806,376 C808.209139,378.209139 811.790861,378.209139 814,376 L814.241676,375.758324 C816.356598,373.643402 819.74908,373.530445 822,375.5 L823.061094,376.428457 C824.753766,377.909545 827.272141,377.939883 829,376.5 L831.165597,374.695336 C831.704742,374.246049 832.38434,374 833.08615,374 L841,374 L841,374 L841,239 C841,234.581722 837.418278,231 833,231 L702,231 C700.343146,231 699,232.343146 699,234 L699,370 C699,372.209139 700.790861,374 703,374 Z" id="image" fill="#4B96CC"></path>
    <path d="M703,374 L706.038605,374 C706.663874,374 707.273517,374.195369 707.782319,374.5588 L710.5,376.5 C712.55098,377.964985 715.340118,377.827397 717.236955,376.167665 L718,375.5 C720.25092,373.530445 723.643402,373.643402 725.758324,375.758324 L726,376 C728.149433,378.149433 731.598257,378.207525 733.817927,376.174278 L734,376 C736.149433,373.850567 739.598257,373.792475 741.817927,375.825722 L742,376 C744.149433,378.149433 747.598257,378.207525 749.817927,376.174278 L750,376 C752.149433,373.850567 755.598257,373.792475 757.817927,375.825722 L758,376 C760.149433,378.149433 763.598257,378.207525 765.817927,376.174278 L766,376 C768.149433,373.850567 771.598257,373.792475 773.817927,375.825722 L774,376 C776.149433,378.149433 779.598257,378.207525 781.817927,376.174278 L782,376 C784.149433,373.850567 787.598257,373.792475 789.817927,375.825722 L790,376 C792.149433,378.149433 795.598257,378.207525 797.817927,376.174278 L798,376 C800.149433,373.850567 803.598257,373.792475 805.817927,375.825722 L806,376 C808.209139,378.209139 811.790861,378.209139 814,376 L814.241676,375.758324 C816.356598,373.643402 819.74908,373.530445 822,375.5 L823.061094,376.428457 C824.753766,377.909545 827.272141,377.939883 829,376.5 L831.165597,374.695336 C831.704742,374.246049 832.38434,374 833.08615,374 L841,374 L841,239 C841,234.581722 837.418278,231 833,231 L702,231 C700.343146,231 699,232.343146 699,234 L699,370 C699,372.209139 700.790861,374 703,374 Z M703,235 L833,235 C835.209139,235 837,236.790861 837,239 L837,370 L833.08615,370 C831.448594,370 829.862864,370.574114 828.604859,371.622451 L826.439262,373.427115 C826.22276,373.607533 825.907206,373.603732 825.695112,373.418151 L824.634018,372.489693 C820.79828,369.133422 815.017236,369.32591 811.413249,372.929897 L811.171573,373.171573 C810.524531,373.818615 809.475469,373.818615 808.828427,373.171573 C805.057191,369.400337 798.942809,369.400337 795.171573,373.171573 C794.524531,373.818615 793.475469,373.818615 792.828427,373.171573 C789.057191,369.400337 782.942809,369.400337 779.171573,373.171573 C778.524531,373.818615 777.475469,373.818615 776.828427,373.171573 C773.057191,369.400337 766.942809,369.400337 763.171573,373.171573 C762.524531,373.818615 761.475469,373.818615 760.828427,373.171573 C757.057191,369.400337 750.942809,369.400337 747.171573,373.171573 C746.524531,373.818615 745.475469,373.818615 744.828427,373.171573 C741.057191,369.400337 734.942809,369.400337 731.171573,373.171573 C730.524531,373.818615 729.475469,373.818615 728.828427,373.171573 L728.586751,372.929897 C724.982764,369.32591 719.20172,369.133422 715.365982,372.489693 L714.602936,373.157358 C714.102333,373.595386 713.366237,373.631698 712.824953,373.245066 L710.107272,371.303866 C708.920067,370.455862 707.497566,370 706.038605,370 L703,370 L703,235 Z" id="image" fill-opacity="0.600005463" fill="#284155" fill-rule="nonzero"></path>
    <path d="M770,280 C783.254834,280 794,290.745166 794,304 C794,317.254834 783.254834,328 770,328 C756.745166,328 746,317.254834 746,304 C746,290.745166 756.745166,280 770,280 Z M763,294.628089 L763,312.572544 C763,313.214622 763.6798,313.392119 764.509701,312.973371 L781.576117,304.362075 C782.409902,303.941367 782.406018,303.257306 781.576117,302.838558 L764.509701,294.227262 C763.675916,293.806554 763,293.986922 763,294.628089 Z" id="Combined-Shape" fill="#FFFFFF"></path>
    <rect id="prompt-background" fill="#284155" x="688" y="220" width="22" height="22" rx="2"></rect>
    <path d="M701.465,226 L701.465,232.315 L702.86,232.315 L702.86,234.07 L701.465,234.07 L701.465,236.5 L699.44,236.5 L699.44,234.07 L695,234.07 L695,232.12 L699.56,226 L701.465,226 Z M699.44,228.67 L699.395,228.67 L696.68,232.315 L699.44,232.315 L699.44,228.67 Z" id="Combined-Shape" fill="#FFFFFF" fill-rule="nonzero"></path>
    <path d="M527,388 L534.038605,388 C534.663874,388 535.273517,388.195369 535.782319,388.5588 L538.5,390.5 C540.55098,391.964985 543.340118,391.827397 545.236955,390.167665 L546,389.5 C548.25092,387.530445 551.643402,387.643402 553.758324,389.758324 L554,390 C556.209139,392.209139 559.790861,392.209139 562,390 C564.209139,387.790861 567.790861,387.790861 570,390 C572.209139,392.209139 575.790861,392.209139 578,390 C580.209139,387.790861 583.790861,387.790861 586,390 C588.209139,392.209139 591.790861,392.209139 594,390 C596.209139,387.790861 599.790861,387.790861 602,390 C604.209139,392.209139 607.790861,392.209139 610,390 C612.209139,387.790861 615.790861,387.790861 618,390 C620.209139,392.209139 623.790861,392.209139 626,390 C628.209139,387.790861 631.790861,387.790861 634,390 C636.209139,392.209139 639.790861,392.209139 642,390 L642.241676,389.758324 C644.356598,387.643402 647.74908,387.530445 650,389.5 L651.061094,390.428457 C652.753766,391.909545 655.272141,391.939883 657,390.5 L659.165597,388.695336 C659.704742,388.246049 660.38434,388 661.08615,388 L669,388 L669,388 L669,452 C669,454.209139 667.209139,456 665,456 L531,456 C528.790861,456 527,454.209139 527,452 L527,388 L527,388 Z" id="matching-target" fill="#284155" opacity="0.400000006"></path>
    <path d="M531,374 L534.038605,374 C534.663874,374 535.273517,374.195369 535.782319,374.5588 L538.5,376.5 C540.55098,377.964985 543.340118,377.827397 545.236955,376.167665 L546,375.5 C548.25092,373.530445 551.643402,373.643402 553.758324,375.758324 L554,376 L554,376 C556.209139,378.209139 559.790861,378.209139 562,376 C564.209139,373.790861 567.790861,373.790861 570,376 C572.209139,378.209139 575.790861,378.209139 578,376 C580.209139,373.790861 583.790861,373.790861 586,376 C588.209139,378.209139 591.790861,378.209139 594,376 C596.209139,373.790861 599.790861,373.790861 602,376 C604.209139,378.209139 607.790861,378.209139 610,376 C612.209139,373.790861 615.790861,373.790861 618,376 C620.209139,378.209139 623.790861,378.209139 626,376 C628.209139,373.790861 631.790861,373.790861 634,376 C636.209139,378.209139 639.790861,378.209139 642,376 L642.241676,375.758324 C644.356598,373.643402 647.74908,373.530445 650,375.5 L651.061094,376.428457 C652.753766,377.909545 655.272141,377.939883 657,376.5 L659.165597,374.695336 C659.704742,374.246049 660.38434,374 661.08615,374 L669,374 L669,374 L669,239 C669,234.581722 665.418278,231 661,231 L530,231 C528.343146,231 527,232.343146 527,234 L527,370 C527,372.209139 528.790861,374 531,374 Z" id="image" fill="#4B96CC"></path>
    <path d="M531,374 L534.038605,374 C534.663874,374 535.273517,374.195369 535.782319,374.5588 L538.5,376.5 C540.55098,377.964985 543.340118,377.827397 545.236955,376.167665 L546,375.5 C548.25092,373.530445 551.643402,373.643402 553.758324,375.758324 L554,376 C556.149433,378.149433 559.598257,378.207525 561.817927,376.174278 L562,376 C564.149433,373.850567 567.598257,373.792475 569.817927,375.825722 L570,376 C572.149433,378.149433 575.598257,378.207525 577.817927,376.174278 L578,376 C580.149433,373.850567 583.598257,373.792475 585.817927,375.825722 L586,376 C588.149433,378.149433 591.598257,378.207525 593.817927,376.174278 L594,376 C596.149433,373.850567 599.598257,373.792475 601.817927,375.825722 L602,376 C604.149433,378.149433 607.598257,378.207525 609.817927,376.174278 L610,376 C612.149433,373.850567 615.598257,373.792475 617.817927,375.825722 L618,376 C620.149433,378.149433 623.598257,378.207525 625.817927,376.174278 L626,376 C628.149433,373.850567 631.598257,373.792475 633.817927,375.825722 L634,376 C636.209139,378.209139 639.790861,378.209139 642,376 L642.241676,375.758324 C644.356598,373.643402 647.74908,373.530445 650,375.5 L651.061094,376.428457 C652.753766,377.909545 655.272141,377.939883 657,376.5 L659.165597,374.695336 C659.704742,374.246049 660.38434,374 661.08615,374 L669,374 L669,239 C669,234.581722 665.418278,231 661,231 L530,231 C528.343146,231 527,232.343146 527,234 L527,370 C527,372.209139 528.790861,374 531,374 Z M531,235 L661,235 C663.209139,235 665,236.790861 665,239 L665,370 L661.08615,370 C659.448594,370 657.862864,370.574114 656.604859,371.622451 L654.439262,373.427115 C654.22276,373.607533 653.907206,373.603732 653.695112,373.418151 L652.634018,372.489693 C648.79828,369.133422 643.017236,369.32591 639.413249,372.929897 L639.171573,373.171573 C638.524531,373.818615 637.475469,373.818615 636.828427,373.171573 C633.057191,369.400337 626.942809,369.400337 623.171573,373.171573 C622.524531,373.818615 621.475469,373.818615 620.828427,373.171573 C617.057191,369.400337 610.942809,369.400337 607.171573,373.171573 C606.524531,373.818615 605.475469,373.818615 604.828427,373.171573 C601.057191,369.400337 594.942809,369.400337 591.171573,373.171573 C590.524531,373.818615 589.475469,373.818615 588.828427,373.171573 C585.057191,369.400337 578.942809,369.400337 575.171573,373.171573 C574.524531,373.818615 573.475469,373.818615 572.828427,373.171573 C569.057191,369.400337 562.942809,369.400337 559.171573,373.171573 C558.524531,373.818615 557.475469,373.818615 556.828427,373.171573 L556.586751,372.929897 C552.982764,369.32591 547.20172,369.133422 543.365982,372.489693 L542.602936,373.157358 C542.102333,373.595386 541.366237,373.631698 540.824953,373.245066 L538.107272,371.303866 C536.920067,370.455862 535.497566,370 534.038605,370 L531,370 L531,235 Z" id="image" fill-opacity="0.600005463" fill="#284155" fill-rule="nonzero"></path>
    <path d="M598,280 C611.254834,280 622,290.745166 622,304 C622,317.254834 611.254834,328 598,328 C584.745166,328 574,317.254834 574,304 C574,290.745166 584.745166,280 598,280 Z M591,294.628089 L591,312.572544 C591,313.214622 591.6798,313.392119 592.509701,312.973371 L609.576117,304.362075 C610.409902,303.941367 610.406018,303.257306 609.576117,302.838558 L592.509701,294.227262 C591.675916,293.806554 591,293.986922 591,294.628089 Z" id="Combined-Shape" fill="#FFFFFF"></path>
    <rect id="prompt-background" fill="#284155" x="516" y="220" width="22" height="22" rx="2"></rect>
    <path d="M526.42,229.745 C526.650001,229.765 526.894999,229.765 527.155,229.745 C527.415001,229.725 527.657499,229.6675 527.8825,229.5725 C528.107501,229.4775 528.292499,229.340001 528.4375,229.16 C528.582501,228.979999 528.655,228.740002 528.655,228.44 C528.655,227.989998 528.505002,227.645001 528.205,227.405 C527.904999,227.164999 527.560002,227.045 527.17,227.045 C526.629997,227.045 526.222501,227.222498 525.9475,227.5775 C525.672499,227.932502 525.54,228.379997 525.55,228.92 L523.525,228.92 C523.545,228.379997 523.642499,227.887502 523.8175,227.4425 C523.992501,226.997498 524.237498,226.615002 524.5525,226.295 C524.867502,225.974998 525.244998,225.727501 525.685,225.5525 C526.125002,225.377499 526.614997,225.29 527.155,225.29 C527.575002,225.29 527.994998,225.352499 528.415,225.4775 C528.835002,225.602501 529.212498,225.79 529.5475,226.04 C529.882502,226.29 530.154999,226.594998 530.365,226.955 C530.575001,227.315002 530.68,227.729998 530.68,228.2 C530.68,228.710003 530.557501,229.159998 530.3125,229.55 C530.067499,229.940002 529.700002,230.204999 529.21,230.345 L529.21,230.375 C529.790003,230.505001 530.244998,230.784998 530.575,231.215 C530.905002,231.645002 531.07,232.159997 531.07,232.76 C531.07,233.310003 530.962501,233.799998 530.7475,234.23 C530.532499,234.660002 530.245002,235.019999 529.885,235.31 C529.524998,235.600001 529.110002,235.819999 528.64,235.97 C528.169998,236.120001 527.680003,236.195 527.17,236.195 C526.579997,236.195 526.042502,236.110001 525.5575,235.94 C525.072498,235.769999 524.660002,235.522502 524.32,235.1975 C523.979998,234.872498 523.717501,234.475002 523.5325,234.005 C523.347499,233.534998 523.26,232.995003 523.27,232.385 L525.295,232.385 C525.305,232.665001 525.35,232.932499 525.43,233.1875 C525.51,233.442501 525.624999,233.662499 525.775,233.8475 C525.925001,234.032501 526.112499,234.179999 526.3375,234.29 C526.562501,234.400001 526.829998,234.455 527.14,234.455 C527.620002,234.455 528.024998,234.307501 528.355,234.0125 C528.685002,233.717499 528.85,233.315003 528.85,232.805 C528.85,232.404998 528.772501,232.100001 528.6175,231.89 C528.462499,231.679999 528.265001,231.5275 528.025,231.4325 C527.784999,231.3375 527.522501,231.2825 527.2375,231.2675 C526.952499,231.2525 526.680001,231.245 526.42,231.245 L526.42,229.745 Z" id="3" fill="#FFFFFF" fill-rule="nonzero"></path>
    <path d="M355,388 L362.038605,388 C362.663874,388 363.273517,388.195369 363.782319,388.5588 L366.5,390.5 C368.55098,391.964985 371.340118,391.827397 373.236955,390.167665 L374,389.5 C376.25092,387.530445 379.643402,387.643402 381.758324,389.758324 L382,390 C384.209139,392.209139 387.790861,392.209139 390,390 C392.209139,387.790861 395.790861,387.790861 398,390 C400.209139,392.209139 403.790861,392.209139 406,390 C408.209139,387.790861 411.790861,387.790861 414,390 C416.209139,392.209139 419.790861,392.209139 422,390 C424.209139,387.790861 427.790861,387.790861 430,390 C432.209139,392.209139 435.790861,392.209139 438,390 C440.209139,387.790861 443.790861,387.790861 446,390 C448.209139,392.209139 451.790861,392.209139 454,390 C456.209139,387.790861 459.790861,387.790861 462,390 C464.209139,392.209139 467.790861,392.209139 470,390 L470.241676,389.758324 C472.356598,387.643402 475.74908,387.530445 478,389.5 L479.061094,390.428457 C480.753766,391.909545 483.272141,391.939883 485,390.5 L487.165597,388.695336 C487.704742,388.246049 488.38434,388 489.08615,388 L497,388 L497,388 L497,452 C497,454.209139 495.209139,456 493,456 L359,456 C356.790861,456 355,454.209139 355,452 L355,388 L355,388 Z" id="matching-target" fill="#284155" opacity="0.400000006"></path>
    <path d="M359,374 L362.038605,374 C362.663874,374 363.273517,374.195369 363.782319,374.5588 L366.5,376.5 C368.55098,377.964985 371.340118,377.827397 373.236955,376.167665 L374,375.5 C376.25092,373.530445 379.643402,373.643402 381.758324,375.758324 L382,376 L382,376 C384.209139,378.209139 387.790861,378.209139 390,376 C392.209139,373.790861 395.790861,373.790861 398,376 C400.209139,378.209139 403.790861,378.209139 406,376 C408.209139,373.790861 411.790861,373.790861 414,376 C416.209139,378.209139 419.790861,378.209139 422,376 C424.209139,373.790861 427.790861,373.790861 430,376 C432.209139,378.209139 435.790861,378.209139 438,376 C440.209139,373.790861 443.790861,373.790861 446,376 C448.209139,378.209139 451.790861,378.209139 454,376 C456.209139,373.790861 459.790861,373.790861 462,376 C464.209139,378.209139 467.790861,378.209139 470,376 L470.241676,375.758324 C472.356598,373.643402 475.74908,373.530445 478,375.5 L479.061094,376.428457 C480.753766,377.909545 483.272141,377.939883 485,376.5 L487.165597,374.695336 C487.704742,374.246049 488.38434,374 489.08615,374 L497,374 L497,374 L497,239 C497,234.581722 493.418278,231 489,231 L358,231 C356.343146,231 355,232.343146 355,234 L355,370 C355,372.209139 356.790861,374 359,374 Z" id="image" fill="#4B96CC"></path>
    <path d="M359,374 L362.038605,374 C362.663874,374 363.273517,374.195369 363.782319,374.5588 L366.5,376.5 C368.55098,377.964985 371.340118,377.827397 373.236955,376.167665 L374,375.5 C376.25092,373.530445 379.643402,373.643402 381.758324,375.758324 L382,376 C384.149433,378.149433 387.598257,378.207525 389.817927,376.174278 L390,376 C392.149433,373.850567 395.598257,373.792475 397.817927,375.825722 L398,376 C400.149433,378.149433 403.598257,378.207525 405.817927,376.174278 L406,376 C408.149433,373.850567 411.598257,373.792475 413.817927,375.825722 L414,376 C416.149433,378.149433 419.598257,378.207525 421.817927,376.174278 L422,376 C424.149433,373.850567 427.598257,373.792475 429.817927,375.825722 L430,376 C432.149433,378.149433 435.598257,378.207525 437.817927,376.174278 L438,376 C440.149433,373.850567 443.598257,373.792475 445.817927,375.825722 L446,376 C448.149433,378.149433 451.598257,378.207525 453.817927,376.174278 L454,376 C456.149433,373.850567 459.598257,373.792475 461.817927,375.825722 L462,376 C464.209139,378.209139 467.790861,378.209139 470,376 L470.241676,375.758324 C472.356598,373.643402 475.74908,373.530445 478,375.5 L479.061094,376.428457 C480.753766,377.909545 483.272141,377.939883 485,376.5 L487.165597,374.695336 C487.704742,374.246049 488.38434,374 489.08615,374 L497,374 L497,239 C497,234.581722 493.418278,231 489,231 L358,231 C356.343146,231 355,232.343146 355,234 L355,370 C355,372.209139 356.790861,374 359,374 Z M359,235 L489,235 C491.209139,235 493,236.790861 493,239 L493,370 L489.08615,370 C487.448594,370 485.862864,370.574114 484.604859,371.622451 L482.439262,373.427115 C482.22276,373.607533 481.907206,373.603732 481.695112,373.418151 L480.634018,372.489693 C476.79828,369.133422 471.017236,369.32591 467.413249,372.929897 L467.171573,373.171573 C466.524531,373.818615 465.475469,373.818615 464.828427,373.171573 C461.057191,369.400337 454.942809,369.400337 451.171573,373.171573 C450.524531,373.818615 449.475469,373.818615 448.828427,373.171573 C445.057191,369.400337 438.942809,369.400337 435.171573,373.171573 C434.524531,373.818615 433.475469,373.818615 432.828427,373.171573 C429.057191,369.400337 422.942809,369.400337 419.171573,373.171573 C418.524531,373.818615 417.475469,373.818615 416.828427,373.171573 C413.057191,369.400337 406.942809,369.400337 403.171573,373.171573 C402.524531,373.818615 401.475469,373.818615 400.828427,373.171573 C397.057191,369.400337 390.942809,369.400337 387.171573,373.171573 C386.524531,373.818615 385.475469,373.818615 384.828427,373.171573 L384.586751,372.929897 C380.982764,369.32591 375.20172,369.133422 371.365982,372.489693 L370.602936,373.157358 C370.102333,373.595386 369.366237,373.631698 368.824953,373.245066 L366.107272,371.303866 C364.920067,370.455862 363.497566,370 362.038605,370 L359,370 L359,235 Z" id="image" fill-opacity="0.600005463" fill="#284155" fill-rule="nonzero"></path>
    <path d="M426,280 C439.254834,280 450,290.745166 450,304 C450,317.254834 439.254834,328 426,328 C412.745166,328 402,317.254834 402,304 C402,290.745166 412.745166,280 426,280 Z M419,294.628089 L419,312.572544 C419,313.214622 419.6798,313.392119 420.509701,312.973371 L437.576117,304.362075 C438.409902,303.941367 438.406018,303.257306 437.576117,302.838558 L420.509701,294.227262 C419.675916,293.806554 419,293.986922 419,294.628089 Z" id="Combined-Shape" fill="#FFFFFF"></path>
    <rect id="prompt-background" fill="#284155" x="344" y="220" width="22" height="22" rx="2"></rect>
    <path d="M351.555,229.535 C351.535,228.934997 351.604999,228.377503 351.765,227.8625 C351.925001,227.347497 352.164998,226.897502 352.485,226.5125 C352.805002,226.127498 353.207498,225.827501 353.6925,225.6125 C354.177502,225.397499 354.734997,225.29 355.365,225.29 C355.845002,225.29 356.302498,225.364999 356.7375,225.515 C357.172502,225.665001 357.554998,225.879999 357.885,226.16 C358.215002,226.440001 358.477499,226.784998 358.6725,227.195 C358.867501,227.605002 358.965,228.064997 358.965,228.575 C358.965,229.105003 358.880001,229.559998 358.71,229.94 C358.539999,230.320002 358.315,230.657499 358.035,230.9525 C357.754999,231.247501 357.437502,231.514999 357.0825,231.755 C356.727498,231.995001 356.370002,232.232499 356.01,232.4675 C355.649998,232.702501 355.300002,232.954999 354.96,233.225 C354.619998,233.495001 354.320001,233.809998 354.06,234.17 L359.025,234.17 L359.025,236 L351.315,236 C351.315,235.389997 351.402499,234.860002 351.5775,234.41 C351.752501,233.959998 351.989999,233.557502 352.29,233.2025 C352.590002,232.847498 352.942498,232.520002 353.3475,232.22 C353.617501,232.019999 353.8975,231.817778 354.187499,231.613334 L354.63,231.305 C354.860001,231.144999 355.104999,230.982501 355.365,230.8175 C355.625001,230.652499 355.862499,230.470001 356.0775,230.27 C356.292501,230.069999 356.472499,229.845001 356.6175,229.595 C356.762501,229.344999 356.835,229.060002 356.835,228.74 C356.835,228.229997 356.687501,227.832501 356.3925,227.5475 C356.097499,227.262499 355.720002,227.12 355.26,227.12 C354.949998,227.12 354.687501,227.192499 354.4725,227.3375 C354.257499,227.482501 354.085001,227.672499 353.955,227.9075 C353.824999,228.142501 353.7325,228.402499 353.6775,228.6875 C353.6225,228.972501 353.595,229.254999 353.595,229.535 L351.555,229.535 Z" id="2" fill="#FFFFFF" fill-rule="nonzero"></path>
    <path d="M183,388 L190.038605,388 C190.663874,388 191.273517,388.195369 191.782319,388.5588 L194.5,390.5 C196.55098,391.964985 199.340118,391.827397 201.236955,390.167665 L202,389.5 C204.25092,387.530445 207.643402,387.643402 209.758324,389.758324 L210,390 C212.209139,392.209139 215.790861,392.209139 218,390 C220.209139,387.790861 223.790861,387.790861 226,390 C228.209139,392.209139 231.790861,392.209139 234,390 C236.209139,387.790861 239.790861,387.790861 242,390 C244.209139,392.209139 247.790861,392.209139 250,390 C252.209139,387.790861 255.790861,387.790861 258,390 C260.209139,392.209139 263.790861,392.209139 266,390 C268.209139,387.790861 271.790861,387.790861 274,390 C276.209139,392.209139 279.790861,392.209139 282,390 C284.209139,387.790861 287.790861,387.790861 290,390 C292.209139,392.209139 295.790861,392.209139 298,390 L298.241676,389.758324 C300.356598,387.643402 303.74908,387.530445 306,389.5 L307.061094,390.428457 C308.753766,391.909545 311.272141,391.939883 313,390.5 L315.165597,388.695336 C315.704742,388.246049 316.38434,388 317.08615,388 L325,388 L325,388 L325,452 C325,454.209139 323.209139,456 321,456 L187,456 C184.790861,456 183,454.209139 183,452 L183,388 L183,388 Z" id="matching-target" fill="#284155" opacity="0.400000006"></path>
    <path d="M183,374 L190.038605,374 C190.663874,374 191.273517,374.195369 191.782319,374.5588 L194.5,376.5 C196.55098,377.964985 199.340118,377.827397 201.236955,376.167665 L202,375.5 C204.25092,373.530445 207.643402,373.643402 209.758324,375.758324 L210,376 L210,376 C212.209139,378.209139 215.790861,378.209139 218,376 C220.209139,373.790861 223.790861,373.790861 226,376 C228.209139,378.209139 231.790861,378.209139 234,376 C236.209139,373.790861 239.790861,373.790861 242,376 C244.209139,378.209139 247.790861,378.209139 250,376 C252.209139,373.790861 255.790861,373.790861 258,376 C260.209139,378.209139 263.790861,378.209139 266,376 C268.209139,373.790861 271.790861,373.790861 274,376 C276.209139,378.209139 279.790861,378.209139 282,376 C284.209139,373.790861 287.790861,373.790861 290,376 C292.209139,378.209139 295.790861,378.209139 298,376 L298.241676,375.758324 C300.356598,373.643402 303.74908,373.530445 306,375.5 L307.061094,376.428457 C308.753766,377.909545 311.272141,377.939883 313,376.5 L315.165597,374.695336 C315.704742,374.246049 316.38434,374 317.08615,374 L325,374 L325,374 L325,239 C325,234.581722 321.418278,231 317,231 L191,231 C186.581722,231 183,234.581722 183,239 L183,374 L183,374 Z" id="image" fill="#4B96CC"></path>
    <path d="M183,374 L190.038605,374 C190.663874,374 191.273517,374.195369 191.782319,374.5588 L194.5,376.5 C196.55098,377.964985 199.340118,377.827397 201.236955,376.167665 L202,375.5 C204.25092,373.530445 207.643402,373.643402 209.758324,375.758324 L210,376 C212.149433,378.149433 215.598257,378.207525 217.817927,376.174278 L218,376 C220.149433,373.850567 223.598257,373.792475 225.817927,375.825722 L226,376 C228.149433,378.149433 231.598257,378.207525 233.817927,376.174278 L234,376 C236.149433,373.850567 239.598257,373.792475 241.817927,375.825722 L242,376 C244.149433,378.149433 247.598257,378.207525 249.817927,376.174278 L250,376 C252.149433,373.850567 255.598257,373.792475 257.817927,375.825722 L258,376 C260.149433,378.149433 263.598257,378.207525 265.817927,376.174278 L266,376 C268.149433,373.850567 271.598257,373.792475 273.817927,375.825722 L274,376 C276.149433,378.149433 279.598257,378.207525 281.817927,376.174278 L282,376 C284.149433,373.850567 287.598257,373.792475 289.817927,375.825722 L290,376 C292.209139,378.209139 295.790861,378.209139 298,376 L298.241676,375.758324 C300.356598,373.643402 303.74908,373.530445 306,375.5 L307.061094,376.428457 C308.753766,377.909545 311.272141,377.939883 313,376.5 L315.165597,374.695336 C315.704742,374.246049 316.38434,374 317.08615,374 L325,374 L325,239 C325,234.581722 321.418278,231 317,231 L191,231 C186.581722,231 183,234.581722 183,239 L183,374 Z M187,239 C187,236.790861 188.790861,235 191,235 L317,235 C319.209139,235 321,236.790861 321,239 L321,370 L317.08615,370 C315.448594,370 313.862864,370.574114 312.604859,371.622451 L310.439262,373.427115 C310.22276,373.607533 309.907206,373.603732 309.695112,373.418151 L308.634018,372.489693 C304.79828,369.133422 299.017236,369.32591 295.413249,372.929897 L295.171573,373.171573 C294.524531,373.818615 293.475469,373.818615 292.828427,373.171573 C289.057191,369.400337 282.942809,369.400337 279.171573,373.171573 C278.524531,373.818615 277.475469,373.818615 276.828427,373.171573 C273.057191,369.400337 266.942809,369.400337 263.171573,373.171573 C262.524531,373.818615 261.475469,373.818615 260.828427,373.171573 C257.057191,369.400337 250.942809,369.400337 247.171573,373.171573 C246.524531,373.818615 245.475469,373.818615 244.828427,373.171573 C241.057191,369.400337 234.942809,369.400337 231.171573,373.171573 C230.524531,373.818615 229.475469,373.818615 228.828427,373.171573 C225.057191,369.400337 218.942809,369.400337 215.171573,373.171573 C214.524531,373.818615 213.475469,373.818615 212.828427,373.171573 L212.586751,372.929897 C208.982764,369.32591 203.20172,369.133422 199.365982,372.489693 L198.602936,373.157358 C198.102333,373.595386 197.366237,373.631698 196.824953,373.245066 L194.107272,371.303866 C192.920067,370.455862 191.497566,370 190.038605,370 L187,370 L187,239 Z" id="image" fill-opacity="0.600005463" fill="#284155" fill-rule="nonzero"></path>
    <path d="M254,280 C267.254834,280 278,290.745166 278,304 C278,317.254834 267.254834,328 254,328 C240.745166,328 230,317.254834 230,304 C230,290.745166 240.745166,280 254,280 Z M247,294.628089 L247,312.572544 C247,313.214622 247.6798,313.392119 248.509701,312.973371 L265.576117,304.362075 C266.409902,303.941367 266.406018,303.257306 265.576117,302.838558 L248.509701,294.227262 C247.675916,293.806554 247,293.986922 247,294.628089 Z" id="Combined-Shape" fill="#FFFFFF"></path>
    <rect id="prompt-background" fill="#284155" x="172" y="220" width="22" height="22" rx="2"></rect>
    <path d="M184.88,236 L182.75,236 L182.75,229.19 L180.11,229.19 L180.11,227.585 C180.480002,227.595 180.837498,227.5675 181.1825,227.5025 C181.527502,227.4375 181.837499,227.322501 182.1125,227.1575 C182.387501,226.992499 182.619999,226.775001 182.81,226.505 C183.000001,226.234999 183.125,225.900002 183.185,225.5 L184.88,225.5 L184.88,236 Z" id="1" fill="#FFFFFF" fill-rule="nonzero"></path>
    <rect id="boottom-tray-background" fill-opacity="0.4" fill="#284155" x="0" y="623" width="1024" height="145"></rect>
    <path d="M22,662 L29.0386048,662 C29.6638738,662 30.2735172,662.195369 30.7823194,662.5588 L33.5,664.5 C35.5509796,665.964985 38.3401181,665.827397 40.2369548,664.167665 L41,663.5 C43.2509204,661.530445 46.643402,661.643402 48.7583241,663.758324 L49,664 C51.209139,666.209139 54.790861,666.209139 57,664 C59.209139,661.790861 62.790861,661.790861 65,664 C67.209139,666.209139 70.790861,666.209139 73,664 C75.209139,661.790861 78.790861,661.790861 81,664 C83.209139,666.209139 86.790861,666.209139 89,664 C91.209139,661.790861 94.790861,661.790861 97,664 C99.209139,666.209139 102.790861,666.209139 105,664 C107.209139,661.790861 110.790861,661.790861 113,664 C115.209139,666.209139 118.790861,666.209139 121,664 C123.209139,661.790861 126.790861,661.790861 129,664 C131.209139,666.209139 134.790861,666.209139 137,664 L137.241676,663.758324 C139.356598,661.643402 142.74908,661.530445 145,663.5 L146.061094,664.428457 C147.753766,665.909545 150.272141,665.939883 152,664.5 L154.165597,662.695336 C154.704742,662.246049 155.38434,662 156.08615,662 L164,662 L164,662 L164,726 C164,728.209139 162.209139,730 160,730 L26,730 C23.790861,730 22,728.209139 22,726 L22,662 L22,662 Z" id="option-background" stroke-opacity="0.6" stroke="#284155" stroke-width="2" fill="#FFFFFF"></path>
    <rect id="text-skeleton" fill-opacity="0.4" fill="#284155" x="53" y="689" width="80" height="16" rx="2"></rect>
    <path d="M190,662 L197.038605,662 C197.663874,662 198.273517,662.195369 198.782319,662.5588 L201.5,664.5 C203.55098,665.964985 206.340118,665.827397 208.236955,664.167665 L209,663.5 C211.25092,661.530445 214.643402,661.643402 216.758324,663.758324 L217,664 C219.209139,666.209139 222.790861,666.209139 225,664 C227.209139,661.790861 230.790861,661.790861 233,664 C235.209139,666.209139 238.790861,666.209139 241,664 C243.209139,661.790861 246.790861,661.790861 249,664 C251.209139,666.209139 254.790861,666.209139 257,664 C259.209139,661.790861 262.790861,661.790861 265,664 C267.209139,666.209139 270.790861,666.209139 273,664 C275.209139,661.790861 278.790861,661.790861 281,664 C283.209139,666.209139 286.790861,666.209139 289,664 C291.209139,661.790861 294.790861,661.790861 297,664 C299.209139,666.209139 302.790861,666.209139 305,664 L305.241676,663.758324 C307.356598,661.643402 310.74908,661.530445 313,663.5 L314.061094,664.428457 C315.753766,665.909545 318.272141,665.939883 320,664.5 L322.165597,662.695336 C322.704742,662.246049 323.38434,662 324.08615,662 L332,662 L332,662 L332,726 C332,728.209139 330.209139,730 328,730 L194,730 C191.790861,730 190,728.209139 190,726 L190,662 L190,662 Z" id="option-background" stroke-opacity="0.6" stroke="#284155" stroke-width="2" fill="#FFFFFF"></path>
    <rect id="text-skeleton" fill-opacity="0.4" fill="#284155" x="221" y="689" width="80" height="16" rx="2"></rect>
    <path d="M357,662 L364.038605,662 C364.663874,662 365.273517,662.195369 365.782319,662.5588 L368.5,664.5 C370.55098,665.964985 373.340118,665.827397 375.236955,664.167665 L376,663.5 C378.25092,661.530445 381.643402,661.643402 383.758324,663.758324 L384,664 C386.209139,666.209139 389.790861,666.209139 392,664 C394.209139,661.790861 397.790861,661.790861 400,664 C402.209139,666.209139 405.790861,666.209139 408,664 C410.209139,661.790861 413.790861,661.790861 416,664 C418.209139,666.209139 421.790861,666.209139 424,664 C426.209139,661.790861 429.790861,661.790861 432,664 C434.209139,666.209139 437.790861,666.209139 440,664 C442.209139,661.790861 445.790861,661.790861 448,664 C450.209139,666.209139 453.790861,666.209139 456,664 C458.209139,661.790861 461.790861,661.790861 464,664 C466.209139,666.209139 469.790861,666.209139 472,664 L472.241676,663.758324 C474.356598,661.643402 477.74908,661.530445 480,663.5 L481.061094,664.428457 C482.753766,665.909545 485.272141,665.939883 487,664.5 L489.165597,662.695336 C489.704742,662.246049 490.38434,662 491.08615,662 L499,662 L499,662 L499,726 C499,728.209139 497.209139,730 495,730 L361,730 C358.790861,730 357,728.209139 357,726 L357,662 L357,662 Z" id="option-background" stroke-opacity="0.6" stroke="#284155" stroke-width="2" fill="#FFFFFF"></path>
    <rect id="text-skeleton" fill-opacity="0.4" fill="#284155" x="388" y="689" width="80" height="16" rx="2"></rect>
    <path d="M525,662 L532.038605,662 C532.663874,662 533.273517,662.195369 533.782319,662.5588 L536.5,664.5 C538.55098,665.964985 541.340118,665.827397 543.236955,664.167665 L544,663.5 C546.25092,661.530445 549.643402,661.643402 551.758324,663.758324 L552,664 C554.209139,666.209139 557.790861,666.209139 560,664 C562.209139,661.790861 565.790861,661.790861 568,664 C570.209139,666.209139 573.790861,666.209139 576,664 C578.209139,661.790861 581.790861,661.790861 584,664 C586.209139,666.209139 589.790861,666.209139 592,664 C594.209139,661.790861 597.790861,661.790861 600,664 C602.209139,666.209139 605.790861,666.209139 608,664 C610.209139,661.790861 613.790861,661.790861 616,664 C618.209139,666.209139 621.790861,666.209139 624,664 C626.209139,661.790861 629.790861,661.790861 632,664 C634.209139,666.209139 637.790861,666.209139 640,664 L640.241676,663.758324 C642.356598,661.643402 645.74908,661.530445 648,663.5 L649.061094,664.428457 C650.753766,665.909545 653.272141,665.939883 655,664.5 L657.165597,662.695336 C657.704742,662.246049 658.38434,662 659.08615,662 L667,662 L667,662 L667,726 C667,728.209139 665.209139,730 663,730 L529,730 C526.790861,730 525,728.209139 525,726 L525,662 L525,662 Z" id="option-background" stroke-opacity="0.6" stroke="#284155" stroke-width="2" fill="#FFFFFF"></path>
    <rect id="text-skeleton" fill-opacity="0.4" fill="#284155" x="556" y="689" width="80" height="16" rx="2"></rect>
    <path d="M692,662 L699.038605,662 C699.663874,662 700.273517,662.195369 700.782319,662.5588 L703.5,664.5 C705.55098,665.964985 708.340118,665.827397 710.236955,664.167665 L711,663.5 C713.25092,661.530445 716.643402,661.643402 718.758324,663.758324 L719,664 C721.209139,666.209139 724.790861,666.209139 727,664 C729.209139,661.790861 732.790861,661.790861 735,664 C737.209139,666.209139 740.790861,666.209139 743,664 C745.209139,661.790861 748.790861,661.790861 751,664 C753.209139,666.209139 756.790861,666.209139 759,664 C761.209139,661.790861 764.790861,661.790861 767,664 C769.209139,666.209139 772.790861,666.209139 775,664 C777.209139,661.790861 780.790861,661.790861 783,664 C785.209139,666.209139 788.790861,666.209139 791,664 C793.209139,661.790861 796.790861,661.790861 799,664 C801.209139,666.209139 804.790861,666.209139 807,664 L807.241676,663.758324 C809.356598,661.643402 812.74908,661.530445 815,663.5 L816.061094,664.428457 C817.753766,665.909545 820.272141,665.939883 822,664.5 L824.165597,662.695336 C824.704742,662.246049 825.38434,662 826.08615,662 L834,662 L834,662 L834,726 C834,728.209139 832.209139,730 830,730 L696,730 C693.790861,730 692,728.209139 692,726 L692,662 L692,662 Z" id="option-background" stroke-opacity="0.6" stroke="#284155" stroke-width="2" fill="#FFFFFF"></path>
    <rect id="text-skeleton" fill-opacity="0.4" fill="#284155" x="723" y="689" width="80" height="16" rx="2"></rect>
    <path d="M860,662 L867.038605,662 C867.663874,662 868.273517,662.195369 868.782319,662.5588 L871.5,664.5 C873.55098,665.964985 876.340118,665.827397 878.236955,664.167665 L879,663.5 C881.25092,661.530445 884.643402,661.643402 886.758324,663.758324 L887,664 C889.209139,666.209139 892.790861,666.209139 895,664 C897.209139,661.790861 900.790861,661.790861 903,664 C905.209139,666.209139 908.790861,666.209139 911,664 C913.209139,661.790861 916.790861,661.790861 919,664 C921.209139,666.209139 924.790861,666.209139 927,664 C929.209139,661.790861 932.790861,661.790861 935,664 C937.209139,666.209139 940.790861,666.209139 943,664 C945.209139,661.790861 948.790861,661.790861 951,664 C953.209139,666.209139 956.790861,666.209139 959,664 C961.209139,661.790861 964.790861,661.790861 967,664 C969.209139,666.209139 972.790861,666.209139 975,664 L975.241676,663.758324 C977.356598,661.643402 980.74908,661.530445 983,663.5 L984.061094,664.428457 C985.753766,665.909545 988.272141,665.939883 990,664.5 L992.165597,662.695336 C992.704742,662.246049 993.38434,662 994.08615,662 L1002,662 L1002,662 L1002,726 C1002,728.209139 1000.20914,730 998,730 L864,730 C861.790861,730 860,728.209139 860,726 L860,662 L860,662 Z" id="option-background" stroke-opacity="0.6" stroke="#284155" stroke-width="2" fill="#FFFFFF"></path>
    <rect id="text-skeleton" fill-opacity="0.4" fill="#284155" x="891" y="689" width="80" height="16" rx="2"></rect>
    <rect id="Header" fill="#203344" x="0" y="0" width="1024" height="64"></rect>
</svg>
