<?xml version="1.0" encoding="UTF-8"?>
<svg viewBox="0 0 1024 768" version="1.1" xmlns="http://www.w3.org/2000/svg" xmlns:xlink="http://www.w3.org/1999/xlink">
    <rect id="Rectangle" fill="#EDF4FA" x="0" y="0" width="1024" height="768"></rect>
    <rect id="boottom-tray-background" fill-opacity="0.4" fill="#284155" x="0" y="623" width="1024" height="145"></rect>
    <path d="M22,662 L29.0386048,662 C29.6638738,662 30.2735172,662.195369 30.7823194,662.5588 L33.5,664.5 C35.5509796,665.964985 38.3401181,665.827397 40.2369548,664.167665 L41,663.5 C43.2509204,661.530445 46.643402,661.643402 48.7583241,663.758324 L49,664 C51.209139,666.209139 54.790861,666.209139 57,664 C59.209139,661.790861 62.790861,661.790861 65,664 C67.209139,666.209139 70.790861,666.209139 73,664 C75.209139,661.790861 78.790861,661.790861 81,664 C83.209139,666.209139 86.790861,666.209139 89,664 C91.209139,661.790861 94.790861,661.790861 97,664 C99.209139,666.209139 102.790861,666.209139 105,664 C107.209139,661.790861 110.790861,661.790861 113,664 C115.209139,666.209139 118.790861,666.209139 121,664 C123.209139,661.790861 126.790861,661.790861 129,664 C131.209139,666.209139 134.790861,666.209139 137,664 L137.241676,663.758324 C139.356598,661.643402 142.74908,661.530445 145,663.5 L146.061094,664.428457 C147.753766,665.909545 150.272141,665.939883 152,664.5 L154.165597,662.695336 C154.704742,662.246049 155.38434,662 156.08615,662 L164,662 L164,662 L164,726 C164,728.209139 162.209139,730 160,730 L26,730 C23.790861,730 22,728.209139 22,726 L22,662 L22,662 Z" id="option-background" stroke-opacity="0.6" stroke="#284155" stroke-width="2" fill="#FFFFFF"></path>
    <rect id="text-skeleton" fill-opacity="0.4" fill="#284155" x="53" y="689" width="80" height="16" rx="2"></rect>
    <path d="M190,662 L197.038605,662 C197.663874,662 198.273517,662.195369 198.782319,662.5588 L201.5,664.5 C203.55098,665.964985 206.340118,665.827397 208.236955,664.167665 L209,663.5 C211.25092,661.530445 214.643402,661.643402 216.758324,663.758324 L217,664 C219.209139,666.209139 222.790861,666.209139 225,664 C227.209139,661.790861 230.790861,661.790861 233,664 C235.209139,666.209139 238.790861,666.209139 241,664 C243.209139,661.790861 246.790861,661.790861 249,664 C251.209139,666.209139 254.790861,666.209139 257,664 C259.209139,661.790861 262.790861,661.790861 265,664 C267.209139,666.209139 270.790861,666.209139 273,664 C275.209139,661.790861 278.790861,661.790861 281,664 C283.209139,666.209139 286.790861,666.209139 289,664 C291.209139,661.790861 294.790861,661.790861 297,664 C299.209139,666.209139 302.790861,666.209139 305,664 L305.241676,663.758324 C307.356598,661.643402 310.74908,661.530445 313,663.5 L314.061094,664.428457 C315.753766,665.909545 318.272141,665.939883 320,664.5 L322.165597,662.695336 C322.704742,662.246049 323.38434,662 324.08615,662 L332,662 L332,662 L332,726 C332,728.209139 330.209139,730 328,730 L194,730 C191.790861,730 190,728.209139 190,726 L190,662 L190,662 Z" id="option-background" stroke-opacity="0.6" stroke="#284155" stroke-width="2" fill="#FFFFFF"></path>
    <rect id="text-skeleton" fill-opacity="0.4" fill="#284155" x="221" y="689" width="80" height="16" rx="2"></rect>
    <path d="M357,662 L364.038605,662 C364.663874,662 365.273517,662.195369 365.782319,662.5588 L368.5,664.5 C370.55098,665.964985 373.340118,665.827397 375.236955,664.167665 L376,663.5 C378.25092,661.530445 381.643402,661.643402 383.758324,663.758324 L384,664 C386.209139,666.209139 389.790861,666.209139 392,664 C394.209139,661.790861 397.790861,661.790861 400,664 C402.209139,666.209139 405.790861,666.209139 408,664 C410.209139,661.790861 413.790861,661.790861 416,664 C418.209139,666.209139 421.790861,666.209139 424,664 C426.209139,661.790861 429.790861,661.790861 432,664 C434.209139,666.209139 437.790861,666.209139 440,664 C442.209139,661.790861 445.790861,661.790861 448,664 C450.209139,666.209139 453.790861,666.209139 456,664 C458.209139,661.790861 461.790861,661.790861 464,664 C466.209139,666.209139 469.790861,666.209139 472,664 L472.241676,663.758324 C474.356598,661.643402 477.74908,661.530445 480,663.5 L481.061094,664.428457 C482.753766,665.909545 485.272141,665.939883 487,664.5 L489.165597,662.695336 C489.704742,662.246049 490.38434,662 491.08615,662 L499,662 L499,662 L499,726 C499,728.209139 497.209139,730 495,730 L361,730 C358.790861,730 357,728.209139 357,726 L357,662 L357,662 Z" id="option-background" stroke-opacity="0.6" stroke="#284155" stroke-width="2" fill="#FFFFFF"></path>
    <rect id="text-skeleton" fill-opacity="0.4" fill="#284155" x="388" y="689" width="80" height="16" rx="2"></rect>
    <path d="M525,662 L532.038605,662 C532.663874,662 533.273517,662.195369 533.782319,662.5588 L536.5,664.5 C538.55098,665.964985 541.340118,665.827397 543.236955,664.167665 L544,663.5 C546.25092,661.530445 549.643402,661.643402 551.758324,663.758324 L552,664 C554.209139,666.209139 557.790861,666.209139 560,664 C562.209139,661.790861 565.790861,661.790861 568,664 C570.209139,666.209139 573.790861,666.209139 576,664 C578.209139,661.790861 581.790861,661.790861 584,664 C586.209139,666.209139 589.790861,666.209139 592,664 C594.209139,661.790861 597.790861,661.790861 600,664 C602.209139,666.209139 605.790861,666.209139 608,664 C610.209139,661.790861 613.790861,661.790861 616,664 C618.209139,666.209139 621.790861,666.209139 624,664 C626.209139,661.790861 629.790861,661.790861 632,664 C634.209139,666.209139 637.790861,666.209139 640,664 L640.241676,663.758324 C642.356598,661.643402 645.74908,661.530445 648,663.5 L649.061094,664.428457 C650.753766,665.909545 653.272141,665.939883 655,664.5 L657.165597,662.695336 C657.704742,662.246049 658.38434,662 659.08615,662 L667,662 L667,662 L667,726 C667,728.209139 665.209139,730 663,730 L529,730 C526.790861,730 525,728.209139 525,726 L525,662 L525,662 Z" id="option-background" stroke-opacity="0.6" stroke="#284155" stroke-width="2" fill="#FFFFFF"></path>
    <rect id="text-skeleton" fill-opacity="0.4" fill="#284155" x="556" y="689" width="80" height="16" rx="2"></rect>
    <path d="M692,662 L699.038605,662 C699.663874,662 700.273517,662.195369 700.782319,662.5588 L703.5,664.5 C705.55098,665.964985 708.340118,665.827397 710.236955,664.167665 L711,663.5 C713.25092,661.530445 716.643402,661.643402 718.758324,663.758324 L719,664 C721.209139,666.209139 724.790861,666.209139 727,664 C729.209139,661.790861 732.790861,661.790861 735,664 C737.209139,666.209139 740.790861,666.209139 743,664 C745.209139,661.790861 748.790861,661.790861 751,664 C753.209139,666.209139 756.790861,666.209139 759,664 C761.209139,661.790861 764.790861,661.790861 767,664 C769.209139,666.209139 772.790861,666.209139 775,664 C777.209139,661.790861 780.790861,661.790861 783,664 C785.209139,666.209139 788.790861,666.209139 791,664 C793.209139,661.790861 796.790861,661.790861 799,664 C801.209139,666.209139 804.790861,666.209139 807,664 L807.241676,663.758324 C809.356598,661.643402 812.74908,661.530445 815,663.5 L816.061094,664.428457 C817.753766,665.909545 820.272141,665.939883 822,664.5 L824.165597,662.695336 C824.704742,662.246049 825.38434,662 826.08615,662 L834,662 L834,662 L834,726 C834,728.209139 832.209139,730 830,730 L696,730 C693.790861,730 692,728.209139 692,726 L692,662 L692,662 Z" id="option-background" stroke-opacity="0.6" stroke="#284155" stroke-width="2" fill="#FFFFFF"></path>
    <rect id="text-skeleton" fill-opacity="0.4" fill="#284155" x="723" y="689" width="80" height="16" rx="2"></rect>
    <path d="M860,662 L867.038605,662 C867.663874,662 868.273517,662.195369 868.782319,662.5588 L871.5,664.5 C873.55098,665.964985 876.340118,665.827397 878.236955,664.167665 L879,663.5 C881.25092,661.530445 884.643402,661.643402 886.758324,663.758324 L887,664 C889.209139,666.209139 892.790861,666.209139 895,664 C897.209139,661.790861 900.790861,661.790861 903,664 C905.209139,666.209139 908.790861,666.209139 911,664 C913.209139,661.790861 916.790861,661.790861 919,664 C921.209139,666.209139 924.790861,666.209139 927,664 C929.209139,661.790861 932.790861,661.790861 935,664 C937.209139,666.209139 940.790861,666.209139 943,664 C945.209139,661.790861 948.790861,661.790861 951,664 C953.209139,666.209139 956.790861,666.209139 959,664 C961.209139,661.790861 964.790861,661.790861 967,664 C969.209139,666.209139 972.790861,666.209139 975,664 L975.241676,663.758324 C977.356598,661.643402 980.74908,661.530445 983,663.5 L984.061094,664.428457 C985.753766,665.909545 988.272141,665.939883 990,664.5 L992.165597,662.695336 C992.704742,662.246049 993.38434,662 994.08615,662 L1002,662 L1002,662 L1002,726 C1002,728.209139 1000.20914,730 998,730 L864,730 C861.790861,730 860,728.209139 860,726 L860,662 L860,662 Z" id="option-background" stroke-opacity="0.6" stroke="#284155" stroke-width="2" fill="#FFFFFF"></path>
    <rect id="text-skeleton" fill-opacity="0.4" fill="#284155" x="891" y="689" width="80" height="16" rx="2"></rect>
    <rect id="dropping-target" fill="#4B96CC" x="562" y="189" width="230" height="352" rx="8"></rect>
    <rect id="text-skeleton" fill-opacity="0.25" fill="#284155" x="617" y="144" width="120" height="26" rx="2"></rect>
    <rect id="dropping-target" fill="#4B96CC" x="232" y="189" width="230" height="352" rx="8"></rect>
    <path d="M562,196.992309 C562,192.578279 565.589636,189 570.000651,189 L783.999349,189 C788.417986,189 792,192.584095 792,196.992309 L792,533.007691 C792,537.421721 788.410364,541 783.999349,541 L570.000651,541 C565.582014,541 562,537.415905 562,533.007691 L562,196.992309 Z M566,196.992309 L566,533.007691 C566,535.20829 567.792679,537 570.000651,537 L783.999349,537 C786.205379,537 788,535.208429 788,533.007691 L788,196.992309 C788,194.79171 786.207321,193 783.999349,193 L570.000651,193 C567.794621,193 566,194.791571 566,196.992309 Z" id="dropping-target" fill-opacity="0.600005463" fill="#284155" fill-rule="nonzero"></path>
    <path d="M232,196.992309 C232,192.578279 235.589636,189 240.000651,189 L453.999349,189 C458.417986,189 462,192.584095 462,196.992309 L462,533.007691 C462,537.421721 458.410364,541 453.999349,541 L240.000651,541 C235.582014,541 232,537.415905 232,533.007691 L232,196.992309 Z M236,196.992309 L236,533.007691 C236,535.20829 237.792679,537 240.000651,537 L453.999349,537 C456.205379,537 458,535.208429 458,533.007691 L458,196.992309 C458,194.79171 456.207321,193 453.999349,193 L240.000651,193 C237.794621,193 236,194.791571 236,196.992309 Z" id="dropping-target" fill-opacity="0.600005463" fill="#284155" fill-rule="nonzero"></path>
    <rect id="text-skeleton" fill-opacity="0.25" fill="#284155" x="287" y="144" width="120" height="26" rx="2"></rect>
    <rect id="Header" fill="#203344" x="0" y="0" width="1024" height="64"></rect>
</svg>
