<?xml version="1.0" encoding="UTF-8"?>
<svg viewBox="0 0 1024 768" version="1.1" xmlns="http://www.w3.org/2000/svg" xmlns:xlink="http://www.w3.org/1999/xlink">
    <rect id="Rectangle" fill="#EDF4FA" x="0" y="0" width="1024" height="768"></rect>
    <path d="M398.699605,286 L398.699605,302.25 L625.300395,302.25 L625.300395,286 L673.861765,286 C682.798679,286 690.043478,293.24234 690.043478,302.190464 L690.043478,529.809536 C690.043478,538.751282 682.789409,546 673.861765,546 L625.300395,546 L625.300395,529.75 L398.699605,529.75 L398.699605,546 L350.138235,546 C341.201321,546 333.956522,538.75766 333.956522,529.809536 L333.956522,302.190464 C333.956522,293.248718 341.210591,286 350.138235,286 L398.699605,286 Z M625.300395,318.5 L398.699605,318.5 L398.699605,513.5 L625.300395,513.5 L625.300395,318.5 Z M374.428631,481 L358.227495,481 C353.844196,481 350.276627,484.491856 350.145998,488.84884 L350.142292,489.096368 L350.142292,505.403632 C350.142292,509.799176 353.629333,513.365709 357.980308,513.496295 L358.227495,513.5 L374.428631,513.5 C378.81193,513.5 382.379499,510.008144 382.510128,505.65116 L382.513834,505.403632 L382.513834,489.096368 C382.513834,484.61789 378.893965,481 374.428631,481 Z M665.772505,481 L649.571369,481 C645.18807,481 641.620501,484.491856 641.489872,488.84884 L641.486166,489.096368 L641.486166,505.403632 C641.486166,509.799176 644.973207,513.365709 649.324182,513.496295 L649.571369,513.5 L665.772505,513.5 C670.155804,513.5 673.723373,510.008144 673.854002,505.65116 L673.857708,505.403632 L673.857708,489.096368 C673.857708,484.61789 670.237839,481 665.772505,481 Z M486.866858,387.133562 L537.133142,412.366438 C541.1308,414.373199 541.138771,417.622799 537.133142,419.633562 L486.866858,444.866438 C482.8692,446.873199 479.628458,444.877736 479.628458,440.39913 L479.628458,391.60087 C479.628458,387.126883 482.861229,385.122799 486.866858,387.133562 Z M374.428631,399.75 L358.227495,399.75 C353.844196,399.75 350.276627,403.241856 350.145998,407.59884 L350.142292,407.846368 L350.142292,424.153632 C350.142292,428.549176 353.629333,432.115709 357.980308,432.246295 L358.227495,432.25 L374.428631,432.25 C378.81193,432.25 382.379499,428.758144 382.510128,424.40116 L382.513834,424.153632 L382.513834,407.846368 C382.513834,403.36789 378.893965,399.75 374.428631,399.75 Z M665.772505,399.75 L649.571369,399.75 C645.18807,399.75 641.620501,403.241856 641.489872,407.59884 L641.486166,407.846368 L641.486166,424.153632 C641.486166,428.549176 644.973207,432.115709 649.324182,432.246295 L649.571369,432.25 L665.772505,432.25 C670.155804,432.25 673.723373,428.758144 673.854002,424.40116 L673.857708,424.153632 L673.857708,407.846368 C673.857708,403.36789 670.237839,399.75 665.772505,399.75 Z M374.428631,318.5 L358.227495,318.5 C353.844196,318.5 350.276627,321.991856 350.145998,326.34884 L350.142292,326.596368 L350.142292,342.903632 C350.142292,347.299176 353.629333,350.865709 357.980308,350.996295 L358.227495,351 L374.428631,351 C378.81193,351 382.379499,347.508144 382.510128,343.15116 L382.513834,342.903632 L382.513834,326.596368 C382.513834,322.11789 378.893965,318.5 374.428631,318.5 Z M665.772505,318.5 L649.571369,318.5 C645.18807,318.5 641.620501,321.991856 641.489872,326.34884 L641.486166,326.596368 L641.486166,342.903632 C641.486166,347.299176 644.973207,350.865709 649.324182,350.996295 L649.571369,351 L665.772505,351 C670.155804,351 673.723373,347.508144 673.854002,343.15116 L673.857708,342.903632 L673.857708,326.596368 C673.857708,322.11789 670.237839,318.5 665.772505,318.5 Z" id="video" fill="#4B96CC"></path>
    <rect id="Header" fill="#203344" x="0" y="0" width="1024" height="64"></rect>
</svg>
