<?xml version="1.0" encoding="UTF-8"?>
<svg viewBox="0 0 1024 768" version="1.1" xmlns="http://www.w3.org/2000/svg" xmlns:xlink="http://www.w3.org/1999/xlink">
    <rect id="Rectangle" fill="#EDF4FA" x="0" y="0" width="1024" height="768"></rect>
    <path d="M370,381.655757 L370,449.795525 C370,454.616433 373.907932,458.523783 378.728258,458.523783 L423.194662,458.523783 L423.194662,372.927499 L378.728258,372.927499 C373.90735,372.927499 370,376.834849 370,381.655757 Z" id="Path" stroke="#4B96CC" stroke-width="15.7939914" fill-rule="nonzero"></path>
    <path d="M536.555287,301.842483 C533.511452,300.397083 529.90319,300.836406 527.292859,302.96901 L453.483797,369.180165 L453.483797,462.271613 L527.292859,528.482769 C528.882566,529.779788 530.840023,530.451282 532.816101,530.451282 C534.086936,530.451282 535.364171,530.174305 536.555287,529.609296 C539.600867,528.165642 541.543196,525.095041 541.543196,521.723023 L541.543196,309.728755 C541.543196,306.357902 539.600867,303.287301 536.555287,301.842483 Z" id="Path" stroke="#4B96CC" stroke-width="15.7939914" fill-rule="nonzero"></path>
    <path d="M583.929962,450.725641 C578.399962,450.725641 573.929962,446.245641 573.929962,440.725641 L573.929962,390.725641 C573.929962,385.205641 578.399962,380.725641 583.929962,380.725641 C589.459962,380.725641 593.929962,385.205641 593.929962,390.725641 L593.929962,440.725641 C593.929962,446.245641 589.459962,450.725641 583.929962,450.725641 Z" id="Path" fill="#4B96CC" fill-rule="nonzero"></path>
    <path d="M613.929962,488.725641 C608.399962,488.725641 603.929962,484.305374 603.929962,478.858974 L603.929962,350.592308 C603.929962,345.145908 608.399962,340.725641 613.929962,340.725641 C619.459962,340.725641 623.929962,345.145908 623.929962,350.592308 L623.929962,478.858974 C623.929962,484.305374 619.459962,488.725641 613.929962,488.725641 Z" id="Path" fill="#4B96CC" fill-rule="nonzero"></path>
    <path d="M643.929962,528.725641 C638.399962,528.725641 633.929962,524.304076 633.929962,518.856076 L633.929962,311.595206 C633.929962,306.147206 638.399962,301.725641 643.929962,301.725641 C649.459962,301.725641 653.929962,306.147206 653.929962,311.595206 L653.929962,518.856076 C653.929962,524.304076 649.459962,528.725641 643.929962,528.725641 Z" id="Path" fill="#4B96CC" fill-rule="nonzero"></path>
    <rect id="Header" fill="#203344" x="0" y="0" width="1024" height="64"></rect>
</svg>
