<?xml version="1.0" encoding="UTF-8"?>
<svg viewBox="0 0 1024 768" version="1.1" xmlns="http://www.w3.org/2000/svg" xmlns:xlink="http://www.w3.org/1999/xlink">
    <rect id="Rectangle" fill="#EDF4FA" x="0" y="0" width="1024" height="768"></rect>
    <rect id="imput" stroke-opacity="0.6" stroke="#284155" stroke-width="4" fill="#FFFFFF" x="225" y="325" width="574" height="365" rx="6"></rect>
    <rect id="text-skeleton" fill-opacity="0.25" fill="#284155" x="323" y="266" width="414" height="26" rx="2"></rect>
    <rect id="prompt-background" fill-opacity="0.4" fill="#93A0AA" x="267" y="261" width="36" height="36" rx="2"></rect>
    <path d="M279.74,277.38 C279.713333,276.579996 279.806666,275.83667 280.02,275.15 C280.233334,274.46333 280.553331,273.863336 280.98,273.35 C281.406669,272.836664 281.94333,272.436668 282.59,272.15 C283.23667,271.863332 283.979996,271.72 284.82,271.72 C285.460003,271.72 286.069997,271.819999 286.65,272.02 C287.230003,272.22 287.739998,272.506665 288.18,272.88 C288.620002,273.253335 288.969999,273.713331 289.23,274.26 C289.490001,274.806669 289.62,275.419997 289.62,276.1 C289.62,276.80667 289.506668,277.413331 289.28,277.92 C289.053332,278.426669 288.753335,278.876665 288.38,279.27 C288.006665,279.663335 287.583336,280.019998 287.11,280.34 C286.636664,280.660002 286.160002,280.976665 285.68,281.29 C285.199998,281.603335 284.733336,281.939998 284.28,282.3 C283.826664,282.660002 283.426668,283.079998 283.08,283.56 L289.7,283.56 L289.7,286 L279.42,286 C279.42,285.186663 279.536665,284.480003 279.77,283.88 C280.003334,283.279997 280.319998,282.743336 280.72,282.27 C281.120002,281.796664 281.589997,281.360002 282.13,280.96 C282.670003,280.559998 283.239997,280.153335 283.84,279.74 C284.146668,279.526666 284.473332,279.310001 284.82,279.09 C285.166668,278.869999 285.483332,278.626668 285.77,278.36 C286.056668,278.093332 286.296666,277.793335 286.49,277.46 C286.683334,277.126665 286.78,276.746669 286.78,276.32 C286.78,275.639997 286.583335,275.110002 286.19,274.73 C285.796665,274.349998 285.293336,274.16 284.68,274.16 C284.266665,274.16 283.916668,274.256666 283.63,274.45 C283.343332,274.643334 283.113334,274.896665 282.94,275.21 C282.766666,275.523335 282.643334,275.869998 282.57,276.25 C282.496666,276.630002 282.46,277.006665 282.46,277.38 L279.74,277.38 Z" id="2" fill="#333E47" fill-rule="nonzero"></path>
    <rect id="text-skeleton" fill-opacity="0.25" fill="#284155" x="323" y="149" width="414" height="26" rx="2"></rect>
    <rect id="text-skeleton" fill-opacity="0.25" fill="#284155" x="323" y="185" width="240" height="26" rx="2"></rect>
    <rect id="prompt-background" fill-opacity="0.4" fill="#93A0AA" x="267" y="144" width="36" height="36" rx="2"></rect>
    <path d="M286.84,169 L284,169 L284,159.92 L280.48,159.92 L280.48,157.78 C280.973336,157.793333 281.449998,157.756667 281.91,157.67 C282.370002,157.583333 282.783331,157.430001 283.15,157.21 C283.516668,156.989999 283.826665,156.700002 284.08,156.34 C284.333335,155.979998 284.5,155.533336 284.58,155 L286.84,155 L286.84,169 Z" id="1" fill="#333E47" fill-rule="nonzero"></path>
    <rect id="Header" fill="#203344" x="0" y="0" width="1024" height="64"></rect>
</svg>
