<?xml version="1.0" encoding="UTF-8"?>
<svg viewBox="0 0 1024 768" version="1.1" xmlns="http://www.w3.org/2000/svg" xmlns:xlink="http://www.w3.org/1999/xlink">
    <rect id="Rectangle" fill="#EDF4FA" x="-0.999678237" y="0" width="1024" height="768"></rect>
    <path d="M583.974776,296 C597.243718,296 608.000322,306.711474 608.000322,319.941072 L608.000322,488.058928 C608.000322,496.56302 603.560037,504.031513 596.854947,508.278731 L595.998244,508.796694 L596.000322,518 C596.000322,527.941125 587.91641,536 578.000207,536 L434.000437,536 C424.059248,536 416.000322,527.920897 416.000322,518 L416.000322,332.031936 C416.000322,312.132047 432.122189,296 452.001376,296 L583.974776,296 Z M584.000322,512 L439.973064,512 C436.731899,512 434.000322,514.686292 434.000322,518 C434.000322,521.098467 436.322595,523.616108 439.314398,523.959962 L440.015947,524 L574.000322,524 L584.000322,512 Z M583.970642,308 L464.030001,308 C457.684639,308 452.492223,312.899534 452.033296,319.114105 L452.000322,320.01046 L452.000322,487.98954 C452.000322,494.361026 456.907696,499.512181 463.132212,499.967304 L464.030001,500 L583.970642,500 C590.316004,500 595.50842,495.100466 595.967348,488.885895 L596.000322,487.98954 L596.000322,320.01046 C596.000322,313.33557 590.614451,308 583.970642,308 Z" id="Dictionary" fill="#4B96CC"></path>
    <path d="M546.416322,395.954 C548.13233,395.954 549.870313,396.074999 551.630322,396.317 C553.390331,396.559001 554.996315,397.031996 556.448322,397.736 C557.900329,398.440004 559.088317,399.418994 560.012322,400.673 C560.936326,401.927006 561.398322,403.58799 561.398322,405.656 L561.398322,423.41 C561.398322,424.950008 561.486321,426.423993 561.662322,427.832 C561.838323,429.240007 562.14632,430.295996 562.586322,431 L553.082322,431 C552.906321,430.471997 552.763322,429.933003 552.653322,429.383 C552.543321,428.832997 552.466322,428.272003 552.422322,427.7 C550.926314,429.240008 549.166332,430.317997 547.142322,430.934 C545.118312,431.550003 543.050332,431.858 540.938322,431.858 C539.310314,431.858 537.792329,431.660002 536.384322,431.264 C534.976315,430.867998 533.744327,430.252004 532.688322,429.416 C531.632316,428.579996 530.807325,427.524006 530.213322,426.248 C529.619319,424.971994 529.322322,423.454 529.322322,421.694 C529.322322,419.75799 529.663318,418.163006 530.345322,416.909 C531.027325,415.654994 531.907316,414.654004 532.985322,413.906 C534.063327,413.157996 535.295315,412.597002 536.681322,412.223 C538.067329,411.848998 539.464315,411.552001 540.872322,411.332 L542.967822,411.035 L545.030322,410.804 C546.394329,410.671999 547.604316,410.474001 548.660322,410.21 C549.716327,409.945999 550.552319,409.561003 551.168322,409.055 C551.73694,408.587921 552.02437,407.924022 552.030618,407.063285 L552.026322,406.844 C552.026322,405.831995 551.861323,405.029003 551.531322,404.435 C551.20132,403.840997 550.761325,403.379002 550.211322,403.049 C549.661319,402.718998 549.023325,402.499001 548.297322,402.389 C547.571318,402.278999 546.790326,402.224 545.954322,402.224 C544.106313,402.224 542.654327,402.619996 541.598322,403.412 C540.542316,404.204004 539.926323,405.523991 539.750322,407.372 L530.378322,407.372 C530.510322,405.171989 531.060317,403.346007 532.028322,401.894 C532.996327,400.441993 534.228314,399.276004 535.724322,398.396 C537.220329,397.515996 538.903312,396.889002 540.773322,396.515 C542.643331,396.140998 544.524312,395.954 546.416322,395.954 Z M510.050322,383.876 L527.672322,431 L516.914322,431 L513.350322,420.506 L495.728322,420.506 L492.032322,431 L481.604322,431 L499.424322,383.876 L510.050322,383.876 Z M552.026322,414.302 C551.63032,414.654002 551.135325,414.928999 550.541322,415.127 C549.947319,415.325001 549.309325,415.489999 548.627322,415.622 L547.579572,415.8035 L545.360322,416.1005 L544.238322,416.282 C543.534318,416.414001 542.841325,416.589999 542.159322,416.81 C541.477318,417.030001 540.883324,417.326998 540.377322,417.701 C539.871319,418.075002 539.464323,418.547997 539.156322,419.12 C538.84832,419.692003 538.694322,420.417996 538.694322,421.298 C538.694322,422.134004 538.84832,422.837997 539.156322,423.41 C539.464323,423.982003 539.882319,424.432998 540.410322,424.763 C540.938324,425.093002 541.554318,425.323999 542.258322,425.456 C542.962325,425.588001 543.688318,425.654 544.436322,425.654 C546.284331,425.654 547.714317,425.346003 548.726322,424.73 C549.738327,424.113997 550.486319,423.377004 550.970322,422.519 C551.454324,421.660996 551.751321,420.792004 551.861322,419.912 L551.975396,418.842962 L552.026322,417.8 L552.026322,414.302 Z M504.704322,395.492 L504.572322,395.492 L498.434322,412.784 L510.644322,412.784 L504.704322,395.492 Z" id="Aa" fill="#203344"></path>
    <rect id="Header" fill="#203344" x="0" y="0" width="1024" height="64"></rect>
</svg>
