<?xml version="1.0" encoding="UTF-8"?>
<svg viewBox="0 0 1024 768" version="1.1" xmlns="http://www.w3.org/2000/svg" xmlns:xlink="http://www.w3.org/1999/xlink">
    <rect id="Rectangle" fill="#EDF4FA" x="0" y="0" width="1024" height="768"></rect>
    <path d="M517.909091,510.545455 L517.909091,534.181818 L553.358486,534.181818 C556.624831,534.181818 559.272727,536.834049 559.272727,540.090909 L559.272727,546 L464.727273,546 L464.727273,540.090909 C464.727273,536.827408 467.379533,534.181818 470.641514,534.181818 L506.090909,534.181818 L506.090909,510.545455 L517.909091,510.545455 Z M447,362.80628 C450.182841,362.812691 452.788223,365.345733 452.905005,368.508194 L452.909091,368.729828 L452.909091,427.816874 C452.909091,460.435977 479.364992,486.909091 512,486.909091 C544.315762,486.909091 570.561315,460.979088 571.082995,428.794072 L571.090909,427.816874 L571.090909,368.729828 C571.090909,365.541168 573.617612,362.9389 576.77847,362.822263 L577,362.818182 L577.221098,362.822259 C580.300928,362.936021 582.788117,365.416443 582.904809,368.502382 L582.909091,368.729238 L582.909091,427.810388 C582.909091,466.976702 551.17062,498.727273 512,498.727273 C473.229611,498.727273 441.726592,467.604853 441.100409,428.983018 L441.090909,427.810388 L441.090909,368.707599 C441.090909,365.443915 443.736499,362.799707 447,362.80628 Z M512,286 C538.108006,286 559.272727,307.163543 559.272727,333.273515 L559.272727,427.817394 C559.272727,453.664751 538.53481,474.667113 512.78191,475.084576 L512,475.090909 C485.891994,475.090909 464.727273,453.927366 464.727273,427.817394 L464.727273,333.273515 C464.727273,307.426158 485.46519,286.423796 511.21809,286.006333 L512,286 Z" id="mic" fill="#4B96CC"></path>
    <rect id="Header" fill="#203344" x="0" y="0" width="1024" height="64"></rect>
</svg>
