<svg width="20px" height="20px" viewBox="0 0 20 20" version="1.1" xmlns="http://www.w3.org/2000/svg">
            <path d="M1,0 L19,0 C19.5522847,-1.01453063e-16 20,0.44771525 20,1 L20,5 L0,5 L0,1 L0,1 C-6.76353751e-17,0.44771525 0.44771525,1.01453063e-16 1,0 L1,0 Z M1.5,6 L18.5,6 L18.5,18 C18.5,18.5522847 18.0522847,19 17.5,19 L2.5,19 L2.5,19 C1.94771525,19 1.5,18.5522847 1.5,18 L1.5,6 Z M7.5,8.5 L12.5,8.5 L12.5,8.5 C12.7761424,8.5 13,8.72385763 13,9 L13,10 L13,10 C13,10.2761424 12.7761424,10.5 12.5,10.5 L7.5,10.5 L7.5,10.5 C7.22385763,10.5 7,10.2761424 7,10 L7,9 L7,9 C7,8.72385763 7.22385763,8.5 7.5,8.5 Z" id="archive" />
</svg>