<svg width="20px" height="20px" viewBox="0 0 20 20">
        <path d="M11,9.5 L3.4079357,9.5 L7.15918357,5.72101029 C7.54896434,5.32800738 7.54797167,4.69060919 7.15744738,4.29685661 C6.76420042,3.90035885 6.13453543,3.90232027 5.74497001,4.29510606 L0.291750148,9.78927199 C0.0971485796,9.98548224 -4.89649684e-05,10.2426104 2.97557267e-06,10.499922 C-0.000622155347,10.7591238 0.0972538941,11.0155711 0.291750148,11.2116751 L5.74497001,16.7058411 C6.13475078,17.098844 6.76692308,17.0978431 7.15744738,16.7040905 C7.55069433,16.3075928 7.54874899,15.6727226 7.15918357,15.2799368 L3.40699553,11.5 L11,11.5 L14.0695266,11.5 C16.2477811,11.4959267 18.0325444,13.2922607 18.0325444,15.5020367 C18.0325444,16.0580448 18.4681953,16.5 19.0162722,16.5 C19.5643491,16.5 20,16.0580448 20,15.5020367 C20,12.194501 17.3439349,9.5 14.0695266,9.5 L11,9.5 L11,9.5 Z" id="arrow-back-curved" />
</svg>