<svg width="20px" height="20px" viewBox="0 0 20 20">
            <path d="M3.40699553,11.5 L7.15918357,15.2799368 C7.54874899,15.6727226 7.55069433,16.3075928 7.15744738,16.7040905 C6.76692308,17.0978431 6.13475078,17.098844 5.74497001,16.7058411 L0.291750148,11.2116751 C0.0972538941,11.0155711 -0.000622155347,10.7591238 2.97557267e-06,10.499922 C-4.89649684e-05,10.2426104 0.0971485796,9.98548224 0.291750148,9.78927199 L5.74497001,4.29510606 C6.13453543,3.90232027 6.76420042,3.90035885 7.15744738,4.29685661 C7.54797167,4.69060919 7.54896434,5.32800738 7.15918357,5.72101029 L3.4079357,9.5 L18.9985704,9.5 C19.5516447,9.5 20,9.94386482 20,10.5 C20,11.0522847 19.5490746,11.5 18.9985704,11.5 L3.40699553,11.5 L3.40699553,11.5 Z" id="arrow-back" />
</svg>