<svg width="32px" height="32px" viewBox="0 0 32 32" version="1.1" xmlns="http://www.w3.org/2000/svg">   
        <path d="M31.125,26 C31.608875,26 32,26.447 32,27 C32,27.553 31.608875,28 31.125,28 L31.125,28 L0.875,28 C0.391125,28 0,27.553 0,27 C0,26.447 0.391125,26 0.875,26 L0.875,26 Z M28.6875,4 C29.6182188,4 30.3832787,4.70076994 30.4878244,5.60590313 L30.5,5.81818182 L30.5,22.1818182 C30.5,23.1154545 29.80142,23.8829128 28.8991153,23.9877862 L28.6875,24 L3.3125,24 C2.38178125,24 1.6167213,23.2992301 1.51217559,22.3940969 L1.5,22.1818182 L1.5,5.81818182 C1.5,4.88454545 2.19858004,4.1170872 3.10088468,4.01221376 L3.3125,4 L28.6875,4 Z M28.5,6 L3.5,6 L3.5,22 L28.5,22 L28.5,6 Z M11.2093704,14.7356265 C11.5043152,14.4222299 11.9952528,14.4208489 12.2910322,14.7351324 C12.5698973,15.0314435 12.5695694,15.4995733 12.2905671,15.7960302 L12.2905671,15.7960302 L9.02645798,19.2643439 C8.88473599,19.4149321 8.69038578,19.4993507 8.48625073,19.4999989 C8.28266317,19.500288 8.08738644,19.4163488 7.94522957,19.2652985 L7.94522957,19.2652985 L6.70894264,17.9516687 C6.43030273,17.6555969 6.43025769,17.1883056 6.70937598,16.8917255 C7.0040644,16.5786012 7.49522875,16.5779047 7.79013935,16.8912651 L7.79013935,16.8912651 L8.485,17.629 Z M24,16 C24.5522847,16 25,16.4477153 25,17 C25,17.5128358 24.6139598,17.9355072 24.1166211,17.9932723 L24,18 L16,18 C15.4477153,18 15,17.5522847 15,17 C15,16.4871642 15.3860402,16.0644928 15.8833789,16.0067277 L16,16 L24,16 Z M11.2093704,8.73562653 C11.5043152,8.42222985 11.9952528,8.42084887 12.2910322,8.7351324 C12.5698973,9.03144351 12.5695694,9.49957329 12.2905671,9.79603018 L12.2905671,9.79603018 L9.02645798,13.2643439 C8.88473599,13.4149321 8.69038578,13.4993507 8.48625073,13.4999989 C8.28266317,13.500288 8.08738644,13.4163488 7.94522957,13.2652985 L7.94522957,13.2652985 L6.70894264,11.9516687 C6.43030273,11.6555969 6.43025769,11.1883056 6.70937598,10.8917255 C7.0040644,10.5786012 7.49522875,10.5779047 7.79013935,10.8912651 L7.79013935,10.8912651 L8.485,11.629 Z M24,10 C24.5522847,10 25,10.4477153 25,11 C25,11.5128358 24.6139598,11.9355072 24.1166211,11.9932723 L24,12 L16,12 C15.4477153,12 15,11.5522847 15,11 C15,10.4871642 15.3860402,10.0644928 15.8833789,10.0067277 L16,10 L24,10 Z" id="assignment" fill="#284155" fill-rule="nonzero"></path>   
</svg>