<svg width="20px" height="20px" viewBox="0 0 20 20" version="1.1" xmlns="http://www.w3.org/2000/svg">
            <path d="M7.72727273,7.3514244 L7.72727273,14.7251618 C7.72727273,15.4782773 6.913245,16.0887981 5.90909091,16.0887981 C4.90493682,16.0887981 4.09090909,15.4782773 4.09090909,14.7251618 C4.09090909,13.9720462 4.90493682,13.3615254 5.90909091,13.3615254 C6.24026104,13.3615254 6.55075148,13.4279306 6.81818182,13.5439557 L6.81818182,6.99788905 L6.81818182,5.53883704 C6.81818182,5.07561048 7.16648709,4.68646119 7.62688043,4.63530637 L13.9905168,3.92823567 L13.9905168,3.92823567 C14.489523,3.87279053 14.9389946,4.23236783 14.9944398,4.73137404 C14.9981437,4.76470994 15,4.79822529 15,4.83176634 L15,6.08879814 L15,13.6363636 L14.984352,13.6363636 C14.9946739,13.695168 15,13.7551529 15,13.8160709 C15,14.5691864 14.1859723,15.1797072 13.1818182,15.1797072 C12.1776641,15.1797072 11.3636364,14.5691864 11.3636364,13.8160709 C11.3636364,13.0629553 12.1776641,12.4524345 13.1818182,12.4524345 C13.5129883,12.4524345 13.8234788,12.5188397 14.0909091,12.6348648 L14.0909091,6.64435369 L7.72727273,7.3514244 Z M10,20 C4.4771525,20 0,15.5228475 0,10 C0,4.4771525 4.4771525,0 10,0 C15.5228475,0 20,4.4771525 20,10 C20,15.5228475 15.5228475,20 10,20 Z M10,19.0909091 C15.0207705,19.0909091 19.0909091,15.0207705 19.0909091,10 C19.0909091,4.97922955 15.0207705,0.909090909 10,0.909090909 C4.97922955,0.909090909 0.909090909,4.97922955 0.909090909,10 C0.909090909,15.0207705 4.97922955,19.0909091 10,19.0909091 Z" id="audio-thumbnail"></path>
</svg>