<svg width="20px" height="20px" viewBox="0 0 20 20" version="1.1" xmlns="http://www.w3.org/2000/svg">
            <path d="M7.74242424,19.0909091 L13.2575758,19.0909091 C13.7596528,19.0909091 14.1666667,19.497923 14.1666667,20 L6.83333333,20 C6.83333333,19.497923 7.2403472,19.0909091 7.74242424,19.0909091 Z M10.0416667,17.2727273 L10.9583333,17.2727273 L10.9583333,19.0909091 L10.0416667,19.0909091 L10.0416667,17.2727273 Z M5,6.36271418 L5.00000091,6.36180622 C5.00050236,6.1107682 5.20441539,5.90766818 5.45545341,5.90816963 L5.46302917,5.90818476 C5.71371269,5.90868551 5.91666667,6.11204529 5.91666667,6.36272931 L5.91666667,10.9089903 C5.91666667,13.4181521 7.9686949,15.4545455 10.5,15.4545455 C13.0318617,15.4545455 15.0833333,13.4194311 15.0833333,10.9089903 L15.0833333,6.36363636 C15.0833333,6.11259784 15.2868403,5.90909091 15.5378788,5.90909091 L15.5454545,5.90909091 C15.7964931,5.90909091 16,6.11259784 16,6.36363636 L16,10.9084914 C16,13.9212848 13.538234,16.3636364 10.5,16.3636364 C7.46243388,16.3636364 5,13.9209955 5,10.9084914 L5,6.36271418 Z M10.5,0 C12.5250441,0 14.1666667,1.64162258 14.1666667,3.66666667 L14.1666667,10.8787879 C14.1666667,12.903832 12.5250441,14.5454545 10.5,14.5454545 C8.47495592,14.5454545 6.83333333,12.903832 6.83333333,10.8787879 L6.83333333,3.66666667 C6.83333333,1.64162258 8.47495592,0 10.5,0 Z" id="audio-recorder" />
</svg>