<svg width="20px" height="20px" viewBox="0 0 20 20" version="1.1" xmlns="http://www.w3.org/2000/svg">
        <path d="M14.5996785,10.68358 C15.1977522,11.0782261 15.6945318,11.5950168 16.0900322,12.2339676 C16.4855325,12.8729184 16.6832797,13.6481044 16.6832797,14.559549 C16.6832797,15.4897862 16.4758863,16.2978589 16.0610932,16.9837914 C15.6463002,17.6697239 15.1061127,18.2334956 14.4405145,18.6751233 C13.794209,19.1073548 13.0635089,19.4362216 12.2483923,19.6617336 C11.4332757,19.8872457 10.5916442,20 9.72347267,20 L0,20 L0,18.9992953 C0.231512412,18.9805026 0.569129614,18.9405688 1.01286174,18.8794926 C1.45659386,18.8184164 1.77491865,18.7455959 1.96784566,18.6610289 C2.26688252,18.5294802 2.47909905,18.3533016 2.60450161,18.1324877 C2.72990416,17.9116738 2.7926045,17.6274389 2.7926045,17.2797745 L2.7926045,2.90345314 C2.7926045,2.58397773 2.73713882,2.3020919 2.62620579,2.05778717 C2.51527276,1.81348245 2.29582158,1.61616237 1.96784566,1.465821 C1.67845514,1.32487597 1.35530725,1.21681973 0.998392283,1.14164905 C0.641477315,1.06647837 0.342444936,1.01949739 0.101286174,1.00070472 L0.101286174,0 L9.57877814,0 C10.3119008,0 11.0136622,0.0704714588 11.6840836,0.21141649 C12.354505,0.352361522 12.9935661,0.601360677 13.6012862,0.958421424 C14.1704209,1.28729316 14.6382618,1.7336124 15.0048232,2.29739253 C15.3713845,2.86117266 15.5546624,3.54709486 15.5546624,4.3551797 C15.5546624,5.05990486 15.4244386,5.68710085 15.1639871,6.23678647 C14.9035357,6.78647209 14.5369799,7.25863087 14.0643087,7.65327696 C13.6205766,8.02913037 13.1117392,8.34625194 12.5377814,8.60465116 C11.9638235,8.86305039 11.3440548,9.06271952 10.6784566,9.20366455 L10.6784566,9.33051445 C11.266884,9.39628879 11.9252375,9.53958076 12.653537,9.76039464 C13.3818364,9.98120853 14.0305438,10.2889339 14.5996785,10.68358 L14.5996785,10.68358 Z M11.1125402,7.66737139 C11.4694552,7.26332896 11.717845,6.82170782 11.857717,6.34249471 C11.9975891,5.86328161 12.0675241,5.29481184 12.0675241,4.63706836 C12.0675241,3.53769711 11.7588455,2.67559626 11.1414791,2.05073996 C10.5241127,1.42588365 9.54984588,1.11346018 8.21864952,1.11346018 C7.9099663,1.11346018 7.52170652,1.12050733 7.05385852,1.13460183 C6.58601052,1.14869634 6.19292764,1.16044158 5.87459807,1.16983791 L5.87459807,8.85130374 L7.71221865,8.85130374 C8.50321939,8.85130374 9.18086535,8.75264369 9.74517685,8.55532065 C10.3094884,8.3579976 10.7652716,8.06201748 11.1125402,7.66737139 L11.1125402,7.66737139 Z M13.1093248,14.0521494 C13.1093248,12.8682111 12.7017726,11.895705 11.8866559,11.1346018 C11.0715393,10.3734987 9.90675998,9.99295278 8.39228296,9.99295278 C7.77491653,9.99295278 7.25402141,9.99999993 6.82958199,10.0140944 C6.40514257,10.0281889 6.08681778,10.0399342 5.87459807,10.0493305 L5.87459807,17.0965469 C5.87459807,17.688516 6.12057632,18.1348352 6.61254019,18.435518 C7.10450407,18.7362007 7.78938468,18.8865398 8.66720257,18.8865398 C10.1045088,18.8865398 11.2041763,18.4778054 11.9662379,17.6603242 C12.7282996,16.842843 13.1093248,15.6401301 13.1093248,14.0521494 L13.1093248,14.0521494 Z" id="bold" />
</svg>