<svg width="55" height="64" viewBox="0 0 55 64">
    <path d="M32.1 12c.497 0 .9.38.9.843v50.3c0 .476-.403.857-.9.857h-7.2c-.497 0-.9-.38-.9-.856V12.843c0-.462.403-.843.9-.843h7.2zm22.782 49.778a.86.86 0 0 1-.518.393l-7.085 1.802c-.07.013-.139.027-.206.027a.847.847 0 0 1-.817-.637l-12.23-48.501a.878.878 0 0 1 .092-.651.84.84 0 0 1 .518-.38l7.085-1.802a.826.826 0 0 1 1.023.61l12.23 48.502a.835.835 0 0 1-.092.637zM20.1 64h-7.2c-.497 0-.9-.38-.9-.856V12.843c0-.462.403-.843.9-.843h7.2c.497 0 .9.38.9.843v50.3c0 .476-.403.857-.9.857zM0 .84C0 .38.386 0 .862 0h8.276c.476 0 .862.38.862.84v62.307a.856.856 0 0 1-.862.853H.862A.856.856 0 0 1 0 63.147V.84zM13.8 62.3h5.4V13.7h-5.4v48.6zm12 0h5.4V13.7h-5.4v48.6zm21.882-.184l5.452-1.382-11.816-46.862-5.452 1.396 11.816 46.848zm-45.958.19h6.552V1.694H1.724v60.614z"/>
</svg>
