<svg width="20px" height="20px" viewBox="0 0 20 20" version="1.1" xmlns="http://www.w3.org/2000/svg">
                <path d="M4.21959895,17.1147815 L6.26565526,15.5234044 C7.33102416,16.2451036 8.61628141,16.6666667 10,16.6666667 C13.6818983,16.6666667 16.6666667,13.6818983 16.6666667,10 C16.6666667,8.61628141 16.2451036,7.33102416 15.5234044,6.26565526 L17.1147815,4.21959895 C18.2080258,5.5635735 18.9280893,7.22326277 19.1170807,9.04077539 L19.8791129,9.88662006 C20.0414028,10.0667595 20.0391847,10.3523693 19.8791129,10.5300466 L19.0531236,11.4468827 C18.421058,15.4330699 15.2195168,18.5638505 11.1987339,19.0889939 L10.3217133,19.8791129 C10.1415738,20.0414028 9.85596406,20.0391847 9.67828672,19.8791129 L8.80126614,19.0889939 C7.07750029,18.8638576 5.50430753,18.1598164 4.21959895,17.1147815 L4.21959895,17.1147815 Z M2.88521851,15.7804011 C1.89054627,14.5576056 1.20479318,13.0734615 0.946876978,11.4468864 L0.120887063,10.5300466 C-0.039184714,10.3523693 -0.0414028455,10.0667595 0.120887063,9.88662006 L0.882919306,9.04077539 C1.32135319,4.82439659 4.61789035,1.45738528 8.80126614,0.911006084 L9.67828672,0.120887063 C9.85596406,-0.039184714 10.1415738,-0.0414028455 10.3217133,0.120887063 L11.1987339,0.911006084 C12.9224997,1.1361424 14.4956925,1.84018356 15.7804011,2.88521851 L13.7343447,4.47659564 C12.6689758,3.75489644 11.3837186,3.33333333 10,3.33333333 C6.31810167,3.33333333 3.33333333,6.31810167 3.33333333,10 C3.33333333,11.3837186 3.75489644,12.6689758 4.47659564,13.7343447 L2.88521851,15.7804011 L2.88521851,15.7804011 Z" id="frame"></path>
                <polygon id="bottom-niddle" points="2.13388348 17.8329124 10.3834626 11.3511003 8.61569564 9.58333333"></polygon>
                <polygon id="top-niddle" points="16.9995791 2.96721681 8.75 9.44902897 10.517767 11.2167959"></polygon>
                <circle id="pin" cx="9.58333333" cy="10.4166667" r="1"></circle>
</svg>