<svg width="20px" height="19px" viewBox="0 0 20 20">
            <path d="M0.909090909,0 L19.0909091,0 C19.5929861,-9.2230057e-17 20,0.407013864 20,0.909090909 L20,1.80519481 C20,2.30727185 19.5929861,2.71428571 19.0909091,2.71428571 L0.909090909,2.71428571 L0.909090909,2.71428571 C0.407013864,2.71428571 1.06068743e-15,2.30727185 9.99200722e-16,1.80519481 L0,0.909090909 L1.11022302e-16,0.909090909 C4.95355978e-17,0.407013864 0.407013864,9.2230057e-17 0.909090909,0 L0.909090909,0 Z M0.909090909,8.14285714 L19.0909091,8.14285714 C19.5929861,8.14285714 20,8.54987101 20,9.05194805 L20,9.94805195 C20,10.450129 19.5929861,10.8571429 19.0909091,10.8571429 L0.909090909,10.8571429 L0.909090909,10.8571429 C0.407013864,10.8571429 1.06068743e-15,10.450129 9.99200722e-16,9.94805195 L0,9.05194805 L1.11022302e-16,9.05194805 C4.95355978e-17,8.54987101 0.407013864,8.14285714 0.909090909,8.14285714 L0.909090909,8.14285714 Z M0.909090909,16.2857143 L19.0909091,16.2857143 C19.5929861,16.2857143 20,16.6927281 20,17.1948052 L20,18.0909091 L20,18.0909091 C20,18.5929861 19.5929861,19 19.0909091,19 L0.909090909,19 L0.909090909,19 C0.407013864,19 1.17263212e-15,18.5929861 8.8817842e-16,18.0909091 L0,17.1948052 C-6.14867046e-17,16.6927281 0.407013864,16.2857143 0.909090909,16.2857143 L0.909090909,16.2857143 Z" id="menu" />
</svg>