<svg width="20px" height="20px" viewBox="0 0 20 20" version="1.1" xmlns="http://www.w3.org/2000/svg">
            <path d="M6.93041355,6.84357436 C7.82847613,6.30781131 8.87829147,6 10,6 C11.1217085,6 12.1715239,6.30781131 13.0695864,6.84357436 L16.4433757,1 L3.55662433,1 L6.93041355,6.84357436 Z M6.11353361,7.42869678 L2.40192379,1 L1.99985364,1 C1.44494629,1 1,1.44710896 1,1.99864581 L1,19.5 C1,19.7761424 0.776142375,20 0.5,20 L0.5,20 C0.223857625,20 3.38176876e-17,19.7761424 0,19.5 L0,2.00001277 C0,0.895436216 0.898212381,0 2.00001277,0 L17.9999872,0 C19.1045638,0 20,0.898212381 20,2.00001277 L20,19.5 C20,19.7761424 19.7761424,20 19.5,20 C19.2238576,20 19,19.7761424 19,19.5 L19,1.99864581 C19,1.44576991 18.5523503,1 18.0001464,1 L17.5980762,1 L13.8864664,7.42869678 C15.1796758,8.52924162 16,10.1688223 16,12 C16,15.3137085 13.3137085,18 10,18 C6.6862915,18 4,15.3137085 4,12 C4,10.1688223 4.82032417,8.52924162 6.11353361,7.42869678 Z M10,15.5 C11.9329966,15.5 13.5,13.9329966 13.5,12 C13.5,10.0670034 11.9329966,8.5 10,8.5 C8.06700338,8.5 6.5,10.0670034 6.5,12 C6.5,13.9329966 8.06700338,15.5 10,15.5 Z M10,15 C8.34314575,15 7,13.6568542 7,12 C7,10.3431458 8.34314575,9 10,9 C11.6568542,9 13,10.3431458 13,12 C13,13.6568542 11.6568542,15 10,15 Z" />
</svg>