<svg width="20px" height="20px" viewBox="0 0 20 20" version="1.1" xmlns="http://www.w3.org/2000/svg">
               <path d="M10.5,11.4146471 C11.0825962,11.2087289 11.5,10.6531094 11.5,10 L16,10 L16,14 C16,14.5522847 15.5522847,15 15,15 L5,15 C4.44771525,15 4,14.5522847 4,14 L4,10 L8.5,10 C8.5,10.6531094 8.91740381,11.2087289 9.5,11.4146471 L9.5,15 L10.5,15 L10.5,11.4146471 Z M3,16 L17,16 C17.2761424,16 17.5,16.2238576 17.5,16.5 C17.5,16.7761424 17.2761424,17 17,17 L3,17 C2.72385763,17 2.5,16.7761424 2.5,16.5 C2.5,16.2238576 2.72385763,16 3,16 Z M16,10 L4,10 C4,6.6862915 6.6862915,4 10,4 C13.3137085,4 16,6.6862915 16,10 Z M9.85,6.4875 C9.85,6.2625 9.6625,6.1125 9.475,6.1125 C7.7125,6.1125 6.1375,7.6875 6.1375,9.4875 C6.1375,9.7125 6.2875,9.8625 6.5125,9.8625 C6.7375,9.8625 6.8875,9.7125 6.8875,9.4875 C6.8875,8.1 8.125,6.8625 9.475,6.8625 C9.7,6.8625 9.85,6.7125 9.85,6.4875 Z M10,0 C10.2761424,-5.07265313e-17 10.5,0.223857625 10.5,0.5 L10.5,2.5 C10.5,2.77614237 10.2761424,3 10,3 C9.72385763,3 9.5,2.77614237 9.5,2.5 L9.5,0.5 L9.5,0.5 C9.5,0.223857625 9.72385763,5.07265313e-17 10,0 Z M17,9.5 C17,9.22385763 17.2238576,9 17.5,9 L19.5,9 C19.7761424,9 20,9.22385763 20,9.5 C20,9.77614237 19.7761424,10 19.5,10 L17.5,10 C17.2238576,10 17,9.77614237 17,9.5 Z M2.52660775e-16,9.5 C2.18843087e-16,9.22385763 0.223857625,9 0.5,9 L2.5,9 C2.77614237,9 3,9.22385763 3,9.5 C3,9.77614237 2.77614237,10 2.5,10 L0.5,10 L0.5,10 C0.223857625,10 2.86478462e-16,9.77614237 2.52660775e-16,9.5 Z M2.43933983,2.43933983 C2.63460197,2.24407768 2.95118446,2.24407768 3.14644661,2.43933983 L4.56066017,3.85355339 C4.75592232,4.04881554 4.75592232,4.36539803 4.56066017,4.56066017 C4.36539803,4.75592232 4.04881554,4.75592232 3.85355339,4.56066017 L2.43933983,3.14644661 C2.24407768,2.95118446 2.24407768,2.63460197 2.43933983,2.43933983 Z M17.5606602,2.43933983 L17.5606602,2.43933983 C17.7559223,2.63460197 17.7559223,2.95118446 17.5606602,3.14644661 L16.1464466,4.56066017 C15.9511845,4.75592232 15.634602,4.75592232 15.4393398,4.56066017 C15.2440777,4.36539803 15.2440777,4.04881554 15.4393398,3.85355339 L16.8535534,2.43933983 C17.0488155,2.24407768 17.365398,2.24407768 17.5606602,2.43933983 L17.5606602,2.43933983 Z" />
</svg>