<svg width="20px" height="20px" viewBox="0 0 20 20" version="1.1" xmlns="http://www.w3.org/2000/svg">
            <path d="M18.3482044,0.854128079 C18.5598643,0.984074025 18.7381639,1.16488013 18.8833017,1.39938075 C19.0775326,1.70353066 19.3635486,1.80869757 19.6529146,1.96177142 C19.7327629,2.00432908 19.8221734,2.04621808 19.9013516,2.07919435 C19.9607352,2.10392656 20.0112266,2.13890881 19.996122,2.19773446 C19.9912497,2.26547283 19.9454483,2.29756029 19.8791824,2.3118223 C19.4447781,2.41460362 19.0350795,2.58287805 18.673963,2.83744279 C18.7786939,3.00692207 18.8254676,3.21343407 18.8045164,3.43328119 C18.7657203,3.84038009 18.4722749,4.17863166 18.0855814,4.28269781 C17.9066188,4.3337163 17.7236379,4.32727258 17.5666453,4.28051175 C17.5373371,4.36149286 17.5110749,4.44459035 17.4878874,4.52985271 C17.3959199,4.86364381 17.3422015,5.19476027 17.3376345,5.5416962 C17.3367822,5.6669229 17.2042502,5.69544691 17.0643484,5.61857566 C16.3225699,5.17940571 15.5712291,4.74090442 14.8294506,4.30173446 C14.6288251,4.18096823 14.4193073,4.07045204 14.2091194,3.95035447 C14.0985744,3.88105863 14.1242487,3.83597138 14.1506484,3.72515973 C14.6342336,2.96397949 15.0486936,2.18194654 15.6579509,1.55829052 C15.6123343,1.47165046 15.5819635,1.36998581 15.5747412,1.26670245 C15.5519613,0.940935264 15.7409381,0.674626872 16.0313388,0.567665931 C16.0504634,0.566328611 16.0586857,0.546497176 16.066908,0.526665741 C16.1431009,0.2421189 16.3872125,0.0228559455 16.6932055,0.00145883394 C16.9035756,-0.0132516803 17.1015212,0.069189002 17.245443,0.203548581 C17.2556753,0.212461309 17.2754699,0.220705377 17.2945944,0.219368058 C17.3226113,0.207780691 17.3512981,0.205774712 17.3799849,0.203768733 C17.3948916,0.20272636 17.4097585,0.202062729 17.4245757,0.201769541 C17.8413092,0.193523634 18.2306313,0.461415423 18.3482044,0.854128079 Z M13.013777,16.7037697 L13.013777,19.4881268 L12.5132029,19.4881268 L12.5132029,16.8233027 C12.3121049,16.8618738 12.106622,16.8900252 11.8971969,16.9066067 C11.4016555,16.9459367 10.940655,16.931594 10.5109068,16.8739504 L10.5109068,19.4881268 L10.0103327,19.4881268 L10.0103327,16.784732 C9.48468478,16.6672223 9.00939597,16.4838488 8.57729142,16.2572399 C8.53547824,16.2366301 8.49351075,16.2152277 8.44938318,16.1925569 C8.40973008,16.1717886 8.37023128,16.1507032 8.32394361,16.1248617 C8.28598773,16.1040934 8.2489576,16.083008 8.20097272,16.0551055 C8.19974368,16.0543831 8.19851464,16.0536605 8.19728501,16.0529373 C8.02811106,16.0363827 7.85648663,16.0115513 7.68338228,15.978177 C6.73393892,15.7933337 5.9184661,15.3843354 5.36277961,14.8695138 C5.151145,15.0468126 4.88087401,15.1536286 4.58555635,15.1536286 C3.90851974,15.1536286 3.35924055,14.5925465 3.35962887,13.8914917 C2.50823641,13.7286866 1.86323623,12.9656865 1.86323623,12.0472273 C1.86323623,11.9946134 1.86692528,11.9443821 1.87100264,11.893158 C1.33570298,11.3892563 1,10.6661632 1,9.86305742 C1,9.12050718 1.28735709,8.44764547 1.7531474,7.95208253 C1.4341422,7.55996042 1.24134112,7.05645576 1.24134112,6.50688917 C1.24134112,5.25984156 2.22942236,4.24905993 3.4497192,4.24905993 C4.02559834,4.24905993 4.54847175,4.47678858 4.94164615,4.84587973 L8.52894994,8.13772009 C8.52894994,8.13772009 9.30093088,8.97914467 10.4352147,8.13772009 C10.6386878,7.98662512 10.6822122,8.24330257 10.623614,8.74436685 L17.5287084,8.77893679 C17.5287084,8.77893679 17.528707,8.77891554 17.5287043,8.77887312 C17.5287084,9.03131522 17.5287084,10.4096017 17.5287084,11.0791107 C17.5287084,12.3832656 16.9879142,13.5112239 16.3759912,14.3468714 C15.648084,15.3405089 14.4649641,16.2881898 13.013777,16.7037697 Z M17.5261741,8.7385803 C17.5278581,8.73871949 17.5287084,8.7387904 17.5287084,8.7387904 C17.5287084,8.7387904 17.5287084,8.75284806 17.5287084,8.77893679 Z M10.0115873,19.4881268 L11.0102262,19.4881268 C11.2873785,19.4881268 11.5120548,19.7128032 11.5120548,19.9899554 L11.5120548,20 L9.50975868,20 L9.50975868,19.9899554 C9.50975868,19.7128032 9.734435,19.4881268 10.0115873,19.4881268 Z M12.5144575,19.4881268 L13.5130964,19.4881268 C13.7902487,19.4881268 14.014925,19.7128032 14.014925,19.9899554 L14.014925,20 L12.0126289,20 L12.0126289,19.9899554 C12.0126289,19.7128032 12.2373052,19.4881268 12.5144575,19.4881268 Z" />
</svg>