<?xml version="1.0" encoding="UTF-8"?>
<svg width="20px" height="20px" viewBox="0 0 20 20" version="1.1" xmlns="http://www.w3.org/2000/svg">
            <path d="M18.15625,16.6666667 L1.84375,16.6666667 C1.37775974,16.6666667 1,16.2935706 1,15.8333333 C1,15.8114259 1.00085592,15.789716 1.00253654,15.7682343 C1.00421715,15.7467526 1.00672246,15.7254992 1.01002124,15.704505 C1.0307187,15.5727811 1.0826523,15.4512581 1.15810926,15.3475535 C1.9120542,14.3416427 3.25,12.374097 3.25,10.5555556 C3.25,10.4308321 3.25770133,9.31972103 3.273104,7.22222222 C3.5129855,4.3504061 5.59585116,1.99471561 8.3508989,1.31149854 C8.51568395,0.561656826 9.1914311,0 10,0 C10.8085689,0 11.4843161,0.561656826 11.6491011,1.31149854 C14.4041488,1.99471561 16.4870145,4.3504061 16.726896,7.22222222 C16.7422987,9.31972103 16.75,10.4308321 16.75,10.5555556 C16.75,12.374097 18.0879458,14.3416427 18.8418907,15.3475535 C18.9173477,15.4512581 18.9692813,15.5727811 18.9899788,15.704505 C18.9932775,15.7254992 18.9957828,15.7467526 18.9974635,15.7682343 C18.9991441,15.789716 19,15.8114259 19,15.8333333 C19,16.2935706 18.6222403,16.6666667 18.15625,16.6666667 Z M7.24376019,17.7777778 L12.7562398,17.7777778 C12.4956502,19.0456891 11.3606638,20 10,20 C8.63933618,20 7.50434975,19.0456891 7.24376019,17.7777778 Z" />
</svg>