<svg width="20px" height="20px" viewBox="0 0 20 20" version="1.1" xmlns="http://www.w3.org/2000/svg">
            <path d="M1.5,8.87731452 L1.5,6 L1.5,6 C1.5,2.6862915 4.1862915,6.08718376e-16 7.5,0 L7.5,0 L12.5,0 L12.5,0 C15.8137085,-6.08718376e-16 18.5,2.6862915 18.5,6 L18.5,8.87731452 C19.4144625,9.61037504 20,10.7368077 20,12 L20,16.5 L20,18.5 C20,19.3284271 19.3284271,20 18.5,20 C17.6715729,20 17,19.3284271 17,18.5 L17,17 L3,17 L3,18.5 L3,18.5 C3,19.3284271 2.32842712,20 1.5,20 C0.671572875,20 -6.40874415e-16,19.3284271 -1.11022302e-15,18.5 L-2.22044605e-16,16.5 L0,12 C-1.54696439e-16,10.7368077 0.585537515,9.61037504 1.5,8.87731452 Z M3.5,13 C4.32842712,13 5,12.3284271 5,11.5 C5,10.6715729 4.32842712,10 3.5,10 C2.67157288,10 2,10.6715729 2,11.5 C2,12.3284271 2.67157288,13 3.5,13 Z M16.5,13 C17.3284271,13 18,12.3284271 18,11.5 C18,10.6715729 17.3284271,10 16.5,10 C15.6715729,10 15,10.6715729 15,11.5 C15,12.3284271 15.6715729,13 16.5,13 Z M6.5,2 L6.5,2 C4.84314575,2 3.5,3.34314575 3.5,5 L3.5,5 L3.5,9 L16.5,9 L16.5,5 C16.5,3.34314575 15.1568542,2 13.5,2 L13.5,2 L6.5,2 Z" id="car" />
</svg>