<svg width="20px" height="20px" viewBox="0 0 20 20" version="1.1" xmlns="http://www.w3.org/2000/svg" >
            <path d="M17.1079267,9.65058159 C17.3048197,9.59320222 17.5125694,9.5625 17.7272727,9.5625 C18.9824653,9.5625 20,10.6118326 20,11.90625 C20,13.1061617 19.1256223,14.0954695 17.9980945,14.2335326 C17.4098139,16.4061745 15.4763047,18 13.1818182,18 C10.4203944,18 8.18181818,15.6914682 8.18181818,12.84375 C8.18181818,11.9997906 8.37843515,11.2031886 8.72700872,10.5 L0.909090909,10.5 C0.407013864,10.5 1.17170973e-15,10.0929861 1.11022302e-15,9.59090909 L0,8.14204545 L-5.55111512e-17,8.14204545 C-8.62545036e-17,7.89100693 0.203506932,7.6875 0.454545455,7.6875 L0.454545455,7.6875 L13.1818182,7.6875 C14.7739356,7.6875 16.1922493,8.4548967 17.1079267,9.65058159 Z M17.6380933,10.5029591 C17.9857523,11.2054231 18.1818182,12.0009742 18.1818182,12.84375 C18.1818182,12.9762691 18.1769705,13.1076205 18.167448,13.237626 C18.7045739,13.048824 19.0909091,12.5240636 19.0909091,11.90625 C19.0909091,11.1295996 18.4803883,10.5 17.7272727,10.5 C17.6973107,10.5 17.6675745,10.5009965 17.6380933,10.5029591 Z M9.09090909,7.6875 L9.09090909,8.15625 L10.9090909,8.15625 L10.9090909,7.6875 L9.09090909,7.6875 Z M10,3 C10.2510385,3 10.4545455,3.20350693 10.4545455,3.45454545 L10.4545455,5.35795455 C10.4545455,5.60899307 10.2510385,5.8125 10,5.8125 C9.74896148,5.8125 9.54545455,5.60899307 9.54545455,5.35795455 L9.54545455,3.45454545 L9.54545455,3.45454545 C9.54545455,3.20350693 9.74896148,3 10,3 Z M6.27835836,4.34938109 L6.27835836,4.34938109 C6.4558694,4.17187005 6.74367167,4.17187005 6.92118271,4.34938109 L8.26709618,5.69529456 C8.44460723,5.87280561 8.44460723,6.16060787 8.26709618,6.33811891 C8.08958514,6.51562995 7.80178288,6.51562995 7.62427184,6.33811891 L6.27835836,4.99220544 C6.10084732,4.81469439 6.10084732,4.52689213 6.27835836,4.34938109 L6.27835836,4.34938109 Z M13.7216416,4.34938109 L13.7216416,4.34938109 C13.8991527,4.52689213 13.8991527,4.81469439 13.7216416,4.99220544 L12.3757282,6.33811891 C12.1982171,6.51562995 11.9104149,6.51562995 11.7329038,6.33811891 C11.5553928,6.16060787 11.5553928,5.87280561 11.7329038,5.69529456 L13.0788173,4.34938109 C13.2563283,4.17187005 13.5441306,4.17187005 13.7216416,4.34938109 L13.7216416,4.34938109 Z" />
</svg>