<svg width="20px" height="20px" viewBox="0 0 20 20" version="1.1" xmlns="http://www.w3.org/2000/svg">
            <path d="M13.178203,16.9827234 L13.0410054,14.1573338 L12.4436159,16.8870795 C12.3346179,17.4050343 12.1976203,17.8798595 12.9328073,18.2600392 C13.4507982,18.7089067 12.8664085,19.3478641 12.3086183,19.265798 C10.6050484,19.3211078 10.851844,18.1923496 10.9990414,17.3918558 L11.0948397,16.2357423 C11.1634385,15.4482273 11.3134359,14.9578276 11.3538352,13.8570238 L11.1238392,13.2603973 C9.28627161,12.7849731 8.01909395,12.4313501 6.59111912,11.6705915 L5.56833716,11.8061703 C5.10614531,11.8744588 5.22994312,12.4183713 5.17514409,12.7713953 L5.02574672,13.7352225 L4.18016163,15.9238512 L4.1139628,16.1139411 C4.05816378,16.2644954 4.07176354,16.8617209 4.29115967,17.1730129 L4.73855179,18.0837269 C5.09254554,18.600883 5.18734387,19.8781987 4.23556065,19.4690663 L3.52737314,19.1715518 C3.024782,18.9676845 2.61498922,17.5685675 2.44019231,16.5492308 L2.45399206,15.1213607 C2.01739976,14.9865806 1.84000289,17.5555887 2.01739976,18.0837269 L2.45399206,19.416552 C2.5881897,19.8494457 2.08599855,20 1.73200479,20 C0.901219439,20 0.53362592,19.1577743 0.356829037,18.4505283 L0.221831417,17.9221905 C0.0158350486,17.1067211 0.124233138,15.8685415 0.546825687,15.1479174 L0.737022334,14.7020449 C1.11761562,13.8172886 0.65502378,13.1783312 0.546825687,12.7296634 C0.192831928,11.2888145 -0.0931630297,9.88929811 0.901019443,8.50315994 L0.970218223,8.4083147 C0.94141873,8.30009129 0.65502378,8.06986696 0.478226897,7.52635384 C0.0968336206,6.30175208 -0.243360382,4.29223111 0.234231198,4.29223111 L0.546625691,4.2768562 C1.35081151,4.2768562 1.12882137,7.66133363 2.08340454,7.5 L8.98667689,7.5 L10.1978555,7.11722144 C10.6478476,6.99621888 11.0282409,6.71088448 11.422234,6.46548491 L12.2102201,5.97688218 C13.122404,6.8877958 13.91299,7.44488677 15.219167,7.92011133 C15.5739608,10.6231007 15.1793677,11.2227223 14.8387737,12.8376871 L14.7011761,13.490422 C14.4579804,14.6459365 14.3757819,15.8423842 14.4311809,17.024655 L14.4579804,17.5815463 C14.4449807,18.1520154 14.7697749,18.1925493 15.219367,18.3285274 C15.505362,18.4788821 15.7087584,19.0495509 15.1509682,19.3211078 C12.8246092,19.6877096 13.2050025,18.4241714 13.178203,16.9827234 Z M16.6125424,2.81184672 C16.9927357,3.07082414 17.4697273,3.53227117 17.8507206,3.93920716 L18.3283122,4.45676264 C18.6407067,4.78123318 19.1162983,4.74129835 19.5392908,4.82296509 L19.6878882,4.8499211 C20.1502801,5.09312425 20.0030827,5.58332437 19.8516853,5.95052519 L19.756287,6.18074952 C19.3196947,7.22843996 18.0273175,7.31030637 17.1147336,6.81930756 L16.7077408,6.60306042 L16.5701432,6.60306042 L16.2857482,6.79315024 L15.7003585,7.2551963 C14.5163794,6.73784049 13.5501964,6.11425802 12.7730101,5.28521082 L14.5573787,3.05544923 L15.1555681,2.18646718 L15.277566,1.9009331 L15.4147636,1.58704529 C15.5235616,1.2358184 15.9723537,0.895373922 16.3007479,1.030154 C16.6125424,1.16713048 16.8167388,1.76375694 16.7345403,2.07824378 L16.6529417,2.43166708 L16.6125424,2.81184672 Z" />
</svg>