<svg width="20px" height="20px" viewBox="0 0 20 20" version="1.1" xmlns="http://www.w3.org/2000/svg">
            <path d="M10.9520149,5.6706499 L13.9889099,0.773109083 L13.9889099,0.773109083 C14.136267,0.535469092 14.0630783,0.223367238 13.8254383,0.0760100814 C13.7453124,0.026325102 13.6529049,-2.4124755e-16 13.5586246,1.11022302e-16 L8.60256072,0 L8.60256072,-6.66133815e-16 C8.40149901,-9.86356731e-16 8.21949,0.118974275 8.13881214,0.303139678 L4.14651561,9.41645595 L4.14651561,9.41645595 C4.03431583,9.67257723 4.15098725,9.97116043 4.40710853,10.0833602 C4.47116208,10.1114203 4.54033403,10.125907 4.6102642,10.125907 L7.99743863,10.125907 L7.99743863,10.125907 C8.27705783,10.125907 8.50373397,10.3525831 8.50373397,10.6322023 C8.50373397,10.6893265 8.49406669,10.7460387 8.4751416,10.7999368 L6.13871121,17.4540241 L6.13871121,17.4540241 C6.04607403,17.7178521 6.18485166,18.0068243 6.44867972,18.0994615 C6.65140487,18.1706438 6.87698042,18.1061186 7.01139665,17.9384979 L15.5691154,7.2667937 L15.5691154,7.2667937 C15.7440458,7.04865091 15.7090151,6.73000219 15.4908723,6.55507186 C15.4010256,6.48302313 15.2893,6.44375898 15.174133,6.44375898 L11.3823002,6.44375898 L11.3823002,6.44375898 C11.102681,6.44375898 10.8760049,6.21708283 10.8760049,5.93746363 C10.8760049,5.84318335 10.90233,5.75077589 10.9520149,5.6706499 Z" />
</svg>