<svg width="220px" height="220px" viewBox="0 0 220 220" version="1.1" xmlns="http://www.w3.org/2000/svg">
    <defs>
        <filter x="-9.4%" y="-24.0%" width="118.8%" height="148.0%" filterUnits="objectBoundingBox" id="filter-1">
            <feGaussianBlur stdDeviation="4" in="SourceGraphic"></feGaussianBlur>
        </filter>
    </defs>
    <g id="----L-No-default-class" stroke="none" stroke-width="1" fill="none" fill-rule="evenodd">
        <g id="SVG-Assets" transform="translate(-733.000000, -265.000000)">
            <circle id="bg-circle" fill="#D2E5F2" cx="843" cy="375" r="110"></circle>
            <path d="M761,328.450815 C761,326.544982 762.503621,325 764.373147,325 L949.626853,325 C951.48979,325 953,326.545795 953,328.450815 L953,471.549185 C953,473.455018 951.496379,475 949.626853,475 L764.373147,475 C762.51021,475 761,473.454205 761,471.549185 L761,328.450815 Z" id="activity-card" stroke-opacity="0.5" stroke="#A5CCE6" fill="#FFFFFF"></path>
            <rect id="stimulus" fill="#D8D8D8" x="781" y="407" width="110" height="8" rx="2"></rect>
            <rect id="input" stroke="#4B96CC" fill="#FFFFFF" opacity="0.75" x="781" y="357" width="152" height="30" rx="2"></rect>
            <rect id="input-copy" stroke="#4B96CC" fill="#FFFFFF" opacity="0.75" x="781" y="425" width="152" height="30" rx="2"></rect>
            <circle id="check-bg" fill="#43A874" cx="933" cy="357" r="14"></circle>
            <circle id="check-bg-copy" fill="#43A874" cx="933" cy="425" r="14"></circle>
            <path d="M938.025021,352.345781 C938.477377,351.885922 939.20273,351.883969 939.655799,352.344554 C940.115213,352.811589 940.114655,353.573905 939.654592,354.041599 L931.182579,362.654145 C930.962646,362.877726 930.670637,362.999076 930.367632,363 C930.065469,363.000408 929.772816,362.880054 929.552925,362.656516 L926.344135,359.394499 C925.885139,358.927889 925.885063,358.167656 926.34526,357.699825 C926.796592,357.241006 927.522531,357.240021 927.973707,357.698681 L930.366586,360.131253 L938.025021,352.345781 Z" id="check" fill="#FFFFFF" fill-rule="nonzero"></path>
            <path d="M938.025021,420.345781 C938.477377,419.885922 939.20273,419.883969 939.655799,420.344554 C940.115213,420.811589 940.114655,421.573905 939.654592,422.041599 L931.182579,430.654145 C930.962646,430.877726 930.670637,430.999076 930.367632,431 C930.065469,431.000408 929.772816,430.880054 929.552925,430.656516 L926.344135,427.394499 C925.885139,426.927889 925.885063,426.167656 926.34526,425.699825 C926.796592,425.241006 927.522531,425.240021 927.973707,425.698681 L930.366586,428.131253 L938.025021,420.345781 Z" id="check-copy" fill="#FFFFFF" fill-rule="nonzero"></path>
            <path d="M939,362 L948.99147,362 C950.10075,362 951,362.88773 951,364 L951,364 C951,365.104569 950.09805,366 948.99147,366 L939,366 L939,362 Z" id="Rectangle-Copy-5" fill="#43A874" transform="translate(945.000000, 364.000000) rotate(90.000000) translate(-945.000000, -364.000000) "></path>
            <path d="M931.5,368.5 L944.508116,368.5 C945.608203,368.5 946.5,369.38773 946.5,370.5 L946.5,370.5 C946.5,371.604569 945.606603,372.5 944.508116,372.5 L931.5,372.5 L931.5,368.5 Z" id="Rectangle-Copy-7" fill="#43A874" transform="translate(939.000000, 370.500000) rotate(90.000000) translate(-939.000000, -370.500000) "></path>
            <circle id="Oval" fill="#43A874" cx="945" cy="374" r="2"></circle>
            <path d="M761,324 L889,324 L889,370 C889,372.209139 887.209139,374 885,374 L761,374 L761,374 L761,324 Z" id="kristina-shadow" fill-opacity="0.25" fill="#000000" opacity="0.5" filter="url(#filter-1)"></path>
            <path d="M881.994019,289 C883.101892,289 884,289.898438 884,290.997498 L884,367.002502 C884,368.10569 883.105988,369 881.994019,369 L746.005981,369 C744.898108,369 744,368.101562 744,367.002502 L744,299 L740.003595,299 C738.947338,299 738.081982,298.191139 738.005496,297.150219 L738,297 C738,295.895431 738.889763,295 740.003595,295 L744,295 L744,293 L735.003595,293 C733.947338,293 733.081982,292.191139 733.005496,291.150219 L733,291 C733,289.895431 733.889763,289 735.003595,289 L881.994019,289 Z" id="kristina-bg" fill="#3B4E61"></path>
            <path d="M767.361538,317.421538 L769.916923,317.421538 L765.009231,310.72 L769.866154,305.423077 L767.192308,305.423077 L762.030769,311.176923 L762.030769,305.423077 L760,305.423077 L760,317.421538 L762.030769,317.421538 L762.030769,313.969231 L763.621538,312.226154 L767.361538,317.421538 Z M776.246154,311.126154 L776.246154,309.129231 L776.125185,309.108547 C776.022393,309.093504 775.879487,309.078462 775.721538,309.078462 C774.638462,309.078462 773.724615,309.603077 773.335385,310.5 L773.335385,309.18 L771.423077,309.18 L771.423077,317.421538 L773.386154,317.421538 L773.386154,313.495385 C773.386154,311.955385 774.08,311.075385 775.603077,311.075385 C775.806154,311.075385 776.026154,311.092308 776.246154,311.126154 Z M780.003077,317.421538 L780.003077,309.18 L778.056923,309.18 L778.056923,317.421538 L780.003077,317.421538 Z M777.752308,306.286154 C777.752308,306.996923 778.327692,307.555385 779.021538,307.555385 C779.732308,307.555385 780.307692,306.996923 780.307692,306.286154 C780.307692,305.575385 779.732308,305 779.021538,305 C778.327692,305 777.752308,305.575385 777.752308,306.286154 Z M782.118462,315.187692 C782.22,316.118462 783.133846,317.675385 785.52,317.675385 C787.618462,317.675385 788.633846,316.287692 788.633846,315.035385 C788.633846,313.816923 787.821538,312.869231 786.264615,312.530769 L785.012308,312.276923 C784.504615,312.175385 784.183077,311.853846 784.183077,311.413846 C784.183077,310.906154 784.673846,310.466154 785.367692,310.466154 C786.467692,310.466154 786.823077,311.227692 786.890769,311.701538 L788.549231,311.227692 C788.413846,310.415385 787.669231,308.926154 785.367692,308.926154 C783.658462,308.926154 782.338462,310.144615 782.338462,311.583077 C782.338462,312.716923 783.1,313.664615 784.555385,313.986154 L785.773846,314.256923 C786.433846,314.392308 786.738462,314.730769 786.738462,315.170769 C786.738462,315.678462 786.315385,316.118462 785.503077,316.118462 C784.453846,316.118462 783.895385,315.458462 783.827692,314.713846 L782.118462,315.187692 Z M793.406154,306.658462 L791.629231,306.658462 L791.629231,307.893846 C791.629231,308.621538 791.24,309.18 790.36,309.18 L789.936923,309.18 L789.936923,310.923077 L791.46,310.923077 L791.46,315.069231 C791.46,316.609231 792.407692,317.523077 793.930769,317.523077 C794.641538,317.523077 795.013846,317.387692 795.132308,317.336923 L795.132308,315.712308 L794.952335,315.741163 C794.813678,315.760168 794.624615,315.78 794.455385,315.78 C793.727692,315.78 793.406154,315.475385 793.406154,314.747692 L793.406154,310.923077 L795.115385,310.923077 L795.115385,309.18 L793.406154,309.18 L793.406154,306.658462 Z M799.193846,317.421538 L799.193846,309.18 L797.247692,309.18 L797.247692,317.421538 L799.193846,317.421538 Z M796.943077,306.286154 C796.943077,306.996923 797.518462,307.555385 798.212308,307.555385 C798.923077,307.555385 799.498462,306.996923 799.498462,306.286154 C799.498462,305.575385 798.923077,305 798.212308,305 C797.518462,305 796.943077,305.575385 796.943077,306.286154 Z M803.847692,312.666154 C803.847692,311.583077 804.44,310.72 805.556923,310.72 C806.792308,310.72 807.249231,311.532308 807.249231,312.547692 L807.249231,317.421538 L809.212308,317.421538 L809.212308,312.209231 C809.212308,310.398462 808.247692,308.943077 806.233846,308.943077 C805.32,308.943077 804.338462,309.332308 803.796923,310.28 L803.796923,309.18 L801.884615,309.18 L801.884615,317.421538 L803.847692,317.421538 L803.847692,312.666154 Z M811.293846,315.187692 C811.293846,316.490769 812.36,317.675385 814.086154,317.675385 C815.423077,317.675385 816.235385,316.998462 816.624615,316.372308 C816.624615,317.032308 816.692308,317.370769 816.709231,317.421538 L818.536923,317.421538 L818.516264,317.299942 C818.488534,317.1172 818.445206,316.756639 818.436817,316.268797 L818.435385,312.006154 C818.435385,310.364615 817.470769,308.926154 814.932308,308.926154 C812.901538,308.926154 811.615385,310.195385 811.463077,311.616923 L813.256923,312.023077 C813.341538,311.193846 813.916923,310.533846 814.949231,310.533846 C816.032308,310.533846 816.506154,311.092308 816.506154,311.786154 C816.506154,312.073846 816.370769,312.310769 815.896923,312.378462 L813.781538,312.7 C812.376923,312.903077 811.293846,313.715385 811.293846,315.187692 Z M814.458462,316.135385 C813.68,316.135385 813.256923,315.627692 813.256923,315.069231 C813.256923,314.392308 813.747692,314.053846 814.356923,313.952308 L816.506154,313.630769 L816.506154,314.003077 C816.506154,315.610769 815.558462,316.135385 814.458462,316.135385 Z" id="Kristina" fill="#FFFFFF" fill-rule="nonzero"></path>
            <path d="M819,329 L867,329 C867.552285,329 868,329.447715 868,330 L868,351 C868,351.552285 867.552285,352 867,352 L819,352 C818.447715,352 818,351.552285 818,351 L818,330 C818,329.447715 818.447715,329 819,329 Z" id="feedback-right-bg" fill="#FFFFFF"></path>
            <path d="M839.914154,339.954769 C839.822769,339.954769 839.690769,339.964923 839.568923,339.985231 L841.944923,337.588923 L841.944923,337 L837.182769,337 L837.182769,337.588923 L841.122462,337.588923 L838.705846,340.036 L839.010462,340.564 C839.244,340.503077 839.457231,340.472615 839.690769,340.472615 C840.655385,340.472615 841.467692,341.041231 841.467692,342.097231 C841.467692,343.061846 840.665538,343.772615 839.589231,343.772615 C838.573846,343.772615 837.66,343.122769 837.609231,342.005846 L837,342.148 C837.071077,343.396923 838.096615,344.331077 839.579077,344.331077 C841.000615,344.331077 842.097231,343.407077 842.097231,342.076923 C842.097231,340.665538 841.031077,339.954769 839.914154,339.954769 Z M847.985538,337 L847.386462,337 L843.903692,344.199077 L844.512923,344.199077 L847.985538,337 Z M852.624923,339.954769 C853.741846,339.954769 854.808,340.665538 854.808,342.076923 C854.808,343.407077 853.711385,344.331077 852.289846,344.331077 C850.807385,344.331077 849.781846,343.396923 849.710769,342.148 L850.32,342.005846 C850.370769,343.122769 851.284615,343.772615 852.3,343.772615 C853.376308,343.772615 854.178462,343.061846 854.178462,342.097231 C854.178462,341.041231 853.366154,340.472615 852.401538,340.472615 C852.168,340.472615 851.954769,340.503077 851.721231,340.564 L851.416615,340.036 L853.833231,337.588923 L849.893538,337.588923 L849.893538,337 L854.655692,337 L854.655692,337.588923 L852.279692,339.985231 C852.401538,339.964923 852.533538,339.954769 852.624923,339.954769 Z" id="feedback-right-stat" fill="#3B4E61" fill-rule="nonzero"></path>
            <path d="M819,329 L824,329 L824,329 L824,352 L819,352 C818.447715,352 818,351.552285 818,351 L818,330 C818,329.447715 818.447715,329 819,329 Z" id="feedback-right-stirp" fill="#43A872"></path>
            <path d="M761,329 L809,329 C809.552285,329 810,329.447715 810,330 L810,351 C810,351.552285 809.552285,352 809,352 L761,352 C760.447715,352 760,351.552285 760,351 L760,330 C760,329.447715 760.447715,329 761,329 Z" id="feedback-left-bg" fill="#FFFFFF"></path>
            <path d="M780.497846,344.463077 C782.071692,344.463077 782.985538,343.579692 782.985538,342.472923 C782.985538,341.569231 782.325538,340.878769 781.442154,340.645231 C782.224,340.432 782.823077,339.761846 782.823077,338.929231 C782.823077,337.822462 781.858462,337 780.497846,337 C779.127077,337 778.172615,337.822462 778.172615,338.929231 C778.172615,339.772 778.771692,340.432 779.543385,340.645231 C778.66,340.878769 778,341.569231 778,342.472923 C778,343.579692 778.924,344.463077 780.497846,344.463077 Z M780.497846,340.381231 C779.492615,340.381231 778.792,339.782154 778.792,338.949538 C778.792,338.137231 779.441846,337.528 780.497846,337.528 C781.543692,337.528 782.193538,338.137231 782.193538,338.949538 C782.193538,339.782154 781.492923,340.381231 780.497846,340.381231 Z M780.497846,343.904615 C779.330154,343.904615 778.639692,343.254769 778.639692,342.422154 C778.639692,341.579385 779.309846,340.919385 780.497846,340.919385 C781.675692,340.919385 782.345846,341.579385 782.345846,342.422154 C782.345846,343.254769 781.655385,343.904615 780.497846,343.904615 Z M784.883385,342.351077 C784.995077,343.508615 785.990154,344.463077 787.421846,344.463077 C788.934769,344.463077 789.950154,343.396923 789.950154,342.087077 C789.950154,340.675692 788.944923,339.711077 787.543692,339.711077 C786.924308,339.711077 786.274462,339.924308 785.837846,340.401538 L786.518154,337.710769 L789.676,337.710769 L789.676,337.132 L786.101846,337.132 L785.177846,340.746769 L785.807385,341.000615 C786.223692,340.543692 786.802462,340.269538 787.432,340.269538 C788.488,340.269538 789.310462,340.990462 789.310462,342.107385 C789.310462,343.143077 788.508308,343.904615 787.421846,343.904615 C786.365846,343.904615 785.563692,343.163385 785.492615,342.168308 L784.883385,342.351077 Z M793.330462,344.331077 L798.133231,337.132 L797.534154,337.132 L792.731385,344.331077 L793.330462,344.331077 Z M794.873846,338.604308 C794.873846,337.741231 794.163077,337.050769 793.310154,337.050769 C792.447077,337.050769 791.746462,337.741231 791.746462,338.604308 C791.746462,339.477538 792.447077,340.168 793.310154,340.168 C794.163077,340.168 794.873846,339.477538 794.873846,338.604308 Z M792.284615,338.604308 C792.284615,338.015385 792.731385,337.558462 793.310154,337.558462 C793.878769,337.558462 794.325538,338.015385 794.325538,338.604308 C794.325538,339.203385 793.878769,339.660308 793.310154,339.660308 C792.731385,339.660308 792.284615,339.203385 792.284615,338.604308 Z M796.000923,342.848615 C796.000923,343.721846 796.701538,344.412308 797.564615,344.412308 C798.427692,344.412308 799.128308,343.721846 799.128308,342.848615 C799.128308,341.985538 798.427692,341.295077 797.564615,341.295077 C796.701538,341.295077 796.000923,341.985538 796.000923,342.848615 Z M798.58,342.848615 C798.58,343.447692 798.143385,343.904615 797.564615,343.904615 C796.996,343.904615 796.549231,343.447692 796.549231,342.848615 C796.549231,342.259692 796.996,341.802769 797.564615,341.802769 C798.143385,341.802769 798.58,342.259692 798.58,342.848615 Z" id="feedback-left-stat" fill="#3B4E61" fill-rule="nonzero"></path>
            <path d="M761,329 L766,329 L766,329 L766,352 L761,352 C760.447715,352 760,351.552285 760,351 L760,330 C760,329.447715 760.447715,329 761,329 Z" id="feedback-left-strip" fill="#43A872"></path>
            <path d="M742.057894,470.890716 C742.195854,470.523543 742.419579,470.523671 742.557491,470.890716 L743.80066,474.19934 L747.109284,475.442509 C747.476457,475.580469 747.476329,475.804194 747.109284,475.942106 L743.80066,477.185275 L742.557491,480.493899 C742.419531,480.861072 742.195806,480.860944 742.057894,480.493899 L740.814725,477.185275 L737.506101,475.942106 C737.138928,475.804146 737.139056,475.580421 737.506101,475.442509 L740.814725,474.19934 L742.057894,470.890716 Z" id="star" fill="#81B6DC"></path>
            <path d="M942.346557,265.550663 C942.622477,264.816318 943.069927,264.816574 943.345751,265.550663 L945.832089,272.167911 L952.449337,274.654249 C953.183682,274.930169 953.183426,275.37762 952.449337,275.653443 L945.832089,278.139781 L943.345751,284.757029 C943.069831,285.491375 942.62238,285.491119 942.346557,284.757029 L939.860219,278.139781 L933.242971,275.653443 C932.508625,275.377523 932.508881,274.930073 933.242971,274.654249 L939.860219,272.167911 L942.346557,265.550663 Z" id="star" fill="#4B96CC"></path>
            <path d="M936.756545,287.183554 C936.848518,286.938773 936.997668,286.938858 937.089609,287.183554 L937.918389,289.389304 L940.124138,290.218083 C940.36892,290.310056 940.368834,290.459207 940.124138,290.551148 L937.918389,291.379927 L937.089609,293.585676 C936.997636,293.830458 936.848486,293.830373 936.756545,293.585676 L935.927765,291.379927 L933.722016,290.551148 C933.477234,290.459174 933.477319,290.310024 933.722016,290.218083 L935.927765,289.389304 L936.756545,287.183554 Z" id="star" fill="#81B6DC"></path>
        </g>
    </g>
</svg>