<svg width="64" height="40" viewBox="0 0 64 40">
    <path d="M48.846 26.904c0-2.988 1.731-5.422 3.858-5.422s3.856 2.434 3.856 5.422c0 3.566-1.406 5.608-3.856 5.608-2.452 0-3.858-2.042-3.858-5.608zm-1.335 6.32c-1.673.431-3.974 1.021-5.059 3.149-1.096-2.128-3.421-2.718-5.111-3.148-.582-.148-1.13-.283-1.546-.455a.779.779 0 0 1-.271-.197c1.093-1.144 1.728-2.914 1.804-5.214h10.003c.077 2.349.74 4.157 1.883 5.3-.058.037-.103.086-.176.11-.414.173-.954.308-1.527.456zm-19.412-6.32c0-2.988 1.73-5.422 3.856-5.422 2.127 0 3.856 2.434 3.856 5.422 0 3.566-1.405 5.608-3.856 5.608-2.45 0-3.856-2.042-3.856-5.608zm.073 5.866c-.416.172-.962.307-1.541.455-1.683.43-3.995 1.02-5.09 3.135-1.09-2.115-3.388-2.705-5.06-3.135-.575-.148-1.115-.283-1.53-.455-.08-.037-.133-.086-.195-.123 1.136-1.144 1.792-2.939 1.87-5.288h9.957c.078 2.324.723 4.107 1.84 5.25a.692.692 0 0 1-.251.16zM7.397 26.904c0-2.988 1.73-5.422 3.857-5.422 2.127 0 3.856 2.434 3.856 5.422 0 3.566-1.406 5.608-3.856 5.608-2.451 0-3.857-2.042-3.857-5.608zm.328-25.367h48.507c.396 0 .873.172.924.172v21.273c-.972-1.832-2.604-3.037-4.452-3.037-2.692 0-4.924 2.557-5.329 5.877H37.283c-.404-3.32-2.636-5.877-5.328-5.877-2.691 0-4.923 2.557-5.326 5.877H16.582c-.405-3.32-2.636-5.877-5.328-5.877-1.816 0-3.423 1.168-4.402 2.938L6.826 1.808c.085-.099.521-.271.899-.271zM58.22 33.225c-.588-.148-1.142-.283-1.56-.455a.6.6 0 0 1-.288-.308c1.103-1.217 1.727-3.098 1.729-5.545.518-.357.597-.836.597-1.07V1.709C58.7.53 57.258 0 56.232 0H7.725C6.723 0 5.312.529 5.312 1.71v24.137c0 .689.249 1.057.554 1.266.033 2.374.659 4.206 1.755 5.399a.562.562 0 0 1-.292.258c-.418.172-.97.307-1.557.455C3.474 33.803 0 34.675 0 39.238c0 .418.346.762.772.762a.77.77 0 0 0 .771-.762c0-3.357 2.342-3.947 4.606-4.513.643-.172 1.25-.32 1.77-.529.379-.16.677-.418.907-.738.704.382 1.51.59 2.428.59.836 0 1.587-.16 2.247-.479.248.258.527.48.86.627.516.21 1.11.357 1.74.517 2.22.565 4.517 1.155 4.517 4.525 0 .418.346.762.772.762.052 0 .097-.012.148-.025.05.013.095.025.147.025a.769.769 0 0 0 .771-.762c0-3.37 2.316-3.96 4.555-4.525.633-.16 1.235-.308 1.752-.517.347-.147.626-.393.869-.664a5.226 5.226 0 0 0 2.323.517c.883 0 1.666-.197 2.35-.541.241.295.538.528.899.688.518.21 1.12.357 1.758.517 2.246.578 4.57 1.155 4.57 4.525a.77.77 0 0 0 .77.762c.055 0 .103-.012.155-.025.05.013.099.025.153.025a.769.769 0 0 0 .772-.762c0-3.37 2.293-3.96 4.512-4.525.627-.16 1.22-.308 1.736-.517.33-.147.608-.356.857-.615.653.308 1.392.468 2.217.468.93 0 1.743-.222 2.453-.603.228.332.53.59.914.75.52.21 1.13.369 1.773.529 2.268.566 4.613 1.156 4.613 4.513a.77.77 0 0 0 .771.762.769.769 0 0 0 .772-.762c0-4.562-3.477-5.435-5.78-6.013z"/>
</svg>
