<svg width="220px" height="220px" viewBox="0 0 220 220" version="1.1" xmlns="http://www.w3.org/2000/svg">
    <g id="----L-No-default-class" stroke="none" stroke-width="1" fill="none" fill-rule="evenodd">
        <g id="SVG-Assets" transform="translate(-433.000000, -265.000000)">
            <circle id="bg-circle" fill="#5DA1D1" cx="543" cy="375" r="110"></circle>
            <path d="M452.169814,312.934006 L499.136056,449.098468 L478.503725,464.117764 C450.932404,444.129173 433,411.658755 433,375 C433,351.973778 440.075033,330.600018 452.169814,312.934006 Z" id="bg-right-shape" fill="#5398C9"></path>
            <path d="M649,265 C651.209139,265 653,266.790861 653,269 L653,375 L652.713609,374.759 L652.714543,375 C652.714543,385.895903 651.130344,396.421796 648.179716,406.359912 L611.001348,339.92366 L610.978609,339.835 L464.452609,297.991463 C484.416171,277.631485 512.232965,265 543,265 L649,265 Z" id="bg-top-shape" fill="#5B9DCC"></path>
            <path d="M486.846054,413.433622 L617.093805,456.303562 C597.544157,474.129811 571.541513,485 543,485 C510.946935,485 482.095901,471.290481 461.990762,449.41531 L486.846054,413.433622 Z" id="bg-bottom-shape" fill="#5A9BCA"></path>
            <path d="M442.596948,420.002453 L643.403052,420.002453 C640.217129,427.099502 636.300826,433.797506 631.749824,440.000786 L454.250176,440.000786 C449.699174,433.797506 445.782871,427.099502 442.596948,420.002453 L643.403052,420.002453 L442.596948,420.002453 Z M614,390 C616.209139,390 618,391.790861 618,394 L618,406 C618,408.209139 616.209139,410 614,410 L472,410 C469.790861,410 468,408.209139 468,406 L468,394 C468,391.790861 469.790861,390 472,390 L614,390 Z" id="info-shape" fill="#B7D5EA"></path>
            <path d="M441,451 C442.104569,451 443,451.895431 443,453 C443,454.104569 442.104569,455 441,455 C439.895431,455 439,454.104569 439,453 C439,451.895431 439.895431,451 441,451 Z M454.250176,440.000786 L443,440 L443,446.999894 C443,448.054312 442.191139,448.918161 441.150219,448.994514 L441,449 C439.895431,449 439,448.109942 439,446.999894 L438.999,440 L437,440 L437,445.005439 C437,446.056933 436.191139,446.918388 435.150219,446.994529 L435,447 C433.895431,447 433,446.097656 433,445.005439 L433,424 C433,421.790861 434.790861,420 437,420 L442.596674,420.001843 C445.782647,427.099118 449.699043,433.797329 454.250176,440.000786 Z" id="bg-drips" fill="#B7D5EA"></path>
            <path d="M641,275 C642.104569,275 643,275.895431 643,277 L643,293 C643,294.104569 642.104569,295 641,295 L551,295 C549.895431,295 549,294.104569 549,293 L549,277 C549,275.895431 549.895431,275 551,275 L641,275 Z M588.303423,282.977692 C587.074808,282.977692 586.246423,283.945692 586.246423,285.155692 C586.246423,286.421538 587.112038,287.324385 588.303423,287.324385 C588.973577,287.324385 589.457577,286.998615 589.671654,286.589077 L589.671654,287.231308 C589.671654,288.199308 589.2435,288.683308 588.303423,288.683308 C587.623962,288.683308 587.149269,288.208615 587.084115,287.585 L586.237115,287.780462 C586.348808,288.739154 587.1865,289.446538 588.303423,289.446538 C589.988115,289.446538 590.546577,288.338923 590.546577,287.203385 L590.546577,283.061462 L589.680962,283.061462 L589.680962,283.685077 C589.457577,283.238308 588.992192,282.977692 588.303423,282.977692 Z M602.050885,282.959077 C601.324885,282.959077 600.794346,283.312769 600.552346,283.759538 L600.552346,283.061462 L599.705346,283.061462 L599.705346,289.306923 L600.570962,289.306923 L600.570962,286.933462 C600.812962,287.333692 601.334192,287.659462 602.022962,287.659462 C603.335346,287.659462 604.107885,286.626308 604.107885,285.295308 C604.107885,283.992231 603.391192,282.959077 602.050885,282.959077 Z M570.786346,282.921846 C569.511192,282.921846 568.533885,283.899154 568.533885,285.295308 C568.533885,286.654231 569.492577,287.678077 570.795654,287.678077 C571.959115,287.678077 572.601346,286.924154 572.815423,286.281923 L572.042885,285.946846 C571.9405,286.300538 571.633346,286.868308 570.795654,286.868308 C570.069654,286.868308 569.427423,286.319154 569.427423,285.295308 C569.427423,284.252846 570.078962,283.731615 570.786346,283.731615 C571.549577,283.731615 571.875346,284.243538 571.987038,284.681 L572.778192,284.345923 C572.592038,283.666462 571.977731,282.921846 570.786346,282.921846 Z M622.648808,282.921846 C621.773885,282.921846 621.057192,283.573385 621.057192,284.336615 C621.057192,284.92433 621.41834,285.37561 622.028852,285.556317 L622.174115,285.593154 L622.937346,285.760692 C623.309654,285.844462 623.514423,286.058538 623.514423,286.337769 C623.514423,286.654231 623.2445,286.933462 622.751192,286.933462 C622.166956,286.933462 621.820643,286.616229 621.726897,286.201386 L621.708731,286.095769 L620.917577,286.375 C620.992038,286.886923 621.513269,287.678077 622.741885,287.678077 C623.8495,287.678077 624.380038,286.924154 624.380038,286.291231 C624.380038,285.674441 624.007069,285.203596 623.298967,284.999775 L623.142115,284.960231 L622.416115,284.802 C622.071731,284.727538 621.904192,284.532077 621.904192,284.262154 C621.904192,283.955 622.202038,283.666462 622.648808,283.666462 C623.305665,283.666462 623.513093,284.107865 623.569184,284.357229 L623.579577,284.411077 L624.352115,284.122538 L624.31248,283.984246 C624.169313,283.562659 623.748095,282.921846 622.648808,282.921846 Z M612.661654,282.921846 C611.321346,282.921846 610.371962,283.936385 610.371962,285.295308 C610.371962,286.663538 611.321346,287.678077 612.661654,287.678077 C614.001962,287.678077 614.951346,286.663538 614.951346,285.295308 C614.951346,283.936385 614.001962,282.921846 612.661654,282.921846 Z M560.715423,282.921846 C559.589192,282.921846 558.574654,283.880538 558.574654,285.286 C558.574654,286.803154 559.626423,287.678077 560.827115,287.678077 C561.869577,287.678077 562.586269,287.054462 562.837577,286.263308 L562.083654,286.002692 C561.916115,286.505308 561.553115,286.905538 560.827115,286.905538 C560.073192,286.905538 559.496115,286.347077 559.4775,285.546615 L562.846885,285.546615 C562.856192,285.490769 562.8655,285.379077 562.8655,285.267385 C562.8655,283.871231 562.092962,282.921846 560.715423,282.921846 Z M565.592654,282.921846 C564.624654,282.921846 563.852115,283.517538 563.759038,284.373846 L564.596731,284.569308 C564.652577,284.048077 564.996962,283.666462 565.611269,283.666462 C566.290731,283.666462 566.579269,284.029462 566.579269,284.466923 C566.579269,284.625154 566.504808,284.764769 566.234885,284.802 L565.024885,284.978846 C564.252346,285.090538 563.665962,285.537308 563.665962,286.337769 C563.665962,287.045154 564.252346,287.678077 565.1645,287.678077 C565.964962,287.678077 566.411731,287.249923 566.607192,286.933462 C566.607192,287.259231 566.635115,287.426769 566.653731,287.538462 L567.510038,287.538462 L567.484188,287.359797 L567.466954,287.178152 C567.461937,287.108781 567.457937,287.030392 567.455828,286.942406 L567.454192,284.56 C567.454192,283.685077 566.932962,282.921846 565.592654,282.921846 Z M596.298731,282.921846 C594.958423,282.921846 594.009038,283.936385 594.009038,285.295308 C594.009038,286.663538 594.958423,287.678077 596.298731,287.678077 C597.639038,287.678077 598.588423,286.663538 598.588423,285.295308 C598.588423,283.936385 597.639038,282.921846 596.298731,282.921846 Z M606.378962,281.646692 L605.5785,281.646692 L605.5785,282.372692 C605.5785,282.763615 605.373731,283.061462 604.889731,283.061462 L604.647731,283.061462 L604.647731,283.852615 L605.504038,283.852615 L605.504038,286.309846 C605.504038,287.119615 605.988038,287.585 606.751269,287.585 C607.049115,287.585 607.2725,287.529154 607.346962,287.501231 L607.346962,286.756615 C607.2725,286.775231 607.114269,286.793846 607.002577,286.793846 C606.5465,286.793846 606.378962,286.589077 606.378962,286.179538 L606.378962,283.852615 L607.346962,283.852615 L607.346962,283.061462 L606.378962,283.061462 L606.378962,281.646692 Z M618.302115,282.931154 C617.780885,282.931154 617.250346,283.145231 616.924577,283.703692 L616.924577,283.061462 L616.068269,283.061462 L616.068269,287.538462 L616.943192,287.538462 L616.943192,284.950923 C616.943192,284.271462 617.296885,283.722308 617.985654,283.722308 C618.7675,283.722308 619.028115,284.224923 619.028115,284.848538 L619.028115,287.538462 L619.903038,287.538462 L619.903038,284.699615 C619.903038,283.703692 619.3725,282.931154 618.302115,282.931154 Z M609.255038,283.061462 L608.389423,283.061462 L608.389423,287.538462 L609.255038,287.538462 L609.255038,283.061462 Z M559.077269,280.939308 L553.753269,280.939308 L553.753269,281.786308 L555.959192,281.786308 L555.959192,287.538462 L556.871346,287.538462 L556.871346,281.786308 L559.077269,281.786308 L559.077269,280.939308 Z M574.7235,280.799692 L573.848577,280.799692 L573.848577,287.538462 L574.7235,287.538462 L574.7235,284.904385 C574.742115,284.243538 575.095808,283.722308 575.765962,283.722308 C576.547808,283.722308 576.808423,284.224923 576.808423,284.848538 L576.808423,287.538462 L577.683346,287.538462 L577.683346,284.699615 C577.683346,283.703692 577.152808,282.931154 576.082423,282.931154 C575.5705,282.931154 575.049269,283.108 574.7235,283.582692 L574.7235,280.799692 Z M579.917192,283.061462 L579.051577,283.061462 L579.051577,287.538462 L579.917192,287.538462 L579.917192,283.061462 Z M583.565808,282.931154 C583.044577,282.931154 582.514038,283.145231 582.188269,283.703692 L582.188269,283.061462 L581.331962,283.061462 L581.331962,287.538462 L582.206885,287.538462 L582.206885,284.950923 C582.206885,284.271462 582.560577,283.722308 583.249346,283.722308 C584.031192,283.722308 584.291808,284.224923 584.291808,284.848538 L584.291808,287.538462 L585.166731,287.538462 L585.166731,284.699615 C585.166731,283.703692 584.636192,282.931154 583.565808,282.931154 Z M635.687079,282.855334 L632.859518,285.772959 L629.837196,282.841141 C629.579527,282.591187 629.168017,282.597442 628.918064,282.855111 C628.66811,283.112781 628.674365,283.524291 628.932034,283.774244 L632.421131,287.158859 C632.678887,287.408897 633.090564,287.402542 633.340479,287.144666 L636.620613,283.760051 C636.870444,283.502262 636.863993,283.090756 636.606205,282.840925 C636.348416,282.591094 635.93691,282.597545 635.687079,282.855334 Z M566.579269,285.416308 L566.579269,285.621077 C566.579269,286.598385 566.002192,286.942769 565.2855,286.942769 C564.838731,286.942769 564.5595,286.626308 564.5595,286.291231 C564.5595,285.891 564.838731,285.676923 565.211038,285.621077 L566.579269,285.416308 Z M612.661654,283.703692 C613.406269,283.703692 614.057808,284.262154 614.057808,285.295308 C614.057808,286.337769 613.406269,286.896231 612.661654,286.896231 C611.917038,286.896231 611.2655,286.337769 611.2655,285.295308 C611.2655,284.262154 611.917038,283.703692 612.661654,283.703692 Z M596.298731,283.703692 C597.043346,283.703692 597.694885,284.262154 597.694885,285.295308 C597.694885,286.337769 597.043346,286.896231 596.298731,286.896231 C595.554115,286.896231 594.902577,286.337769 594.902577,285.295308 C594.902577,284.262154 595.554115,283.703692 596.298731,283.703692 Z M601.892654,283.731615 C602.711731,283.731615 603.214346,284.401769 603.214346,285.295308 C603.214346,286.216769 602.702423,286.877615 601.892654,286.877615 C601.092192,286.877615 600.561654,286.216769 600.561654,285.295308 C600.561654,284.401769 601.092192,283.731615 601.892654,283.731615 Z M588.433731,283.722308 C589.187654,283.722308 589.708885,284.290077 589.708885,285.155692 C589.708885,286.021308 589.187654,286.589077 588.433731,286.589077 C587.642577,286.589077 587.139962,286.030615 587.139962,285.155692 C587.139962,284.290077 587.661192,283.722308 588.433731,283.722308 Z M560.724731,283.694385 C561.515885,283.694385 561.934731,284.197 561.953346,284.839231 L559.505423,284.839231 C559.542654,284.262154 559.989423,283.694385 560.724731,283.694385 Z M579.479731,280.734538 C579.135346,280.734538 578.856115,281.013769 578.856115,281.367462 C578.856115,281.711846 579.135346,281.991077 579.479731,281.991077 C579.833423,281.991077 580.112654,281.711846 580.112654,281.367462 C580.112654,281.013769 579.833423,280.734538 579.479731,280.734538 Z M608.817577,280.734538 C608.473192,280.734538 608.193962,281.013769 608.193962,281.367462 C608.193962,281.711846 608.473192,281.991077 608.817577,281.991077 C609.171269,281.991077 609.4505,281.711846 609.4505,281.367462 C609.4505,281.013769 609.171269,280.734538 608.817577,280.734538 Z" id="button-options" fill="#D5E6F2"></path>
            <path d="M443.940387,310.5 C441.488383,310.5 439.5,312.494672 439.5,314.956012 L439.5,357.043988 C439.5,359.505328 441.488383,361.5 443.940387,361.5 L638.059613,361.5 C640.511617,361.5 642.5,359.505328 642.5,357.043988 L642.5,314.956012 C642.5,312.494672 640.511617,310.5 638.059613,310.5 L443.940387,310.5 Z" id="send-button-bg" stroke="#D2E5F2" fill="#FFFFFF"></path>
            <path d="M451.051948,318 L478.948052,318 C481.185881,318 483,319.814119 483,322.051948 L483,349.948052 C483,352.185881 481.185881,354 478.948052,354 L451.051948,354 C448.814119,354 447,352.185881 447,349.948052 L447,322.051948 C447,319.814119 448.814119,318 451.051948,318 Z" id="send-button-icon-bg" fill="#D9EDE3"></path>
            <path d="M458.519733,329.172482 L463.749067,331.422616 L463.749067,332.409016 L458.519733,330.158616 L458.519733,329.172482 Z M458.519733,332.64528 L463.749067,334.895413 L463.749067,335.881546 L458.519733,333.631413 L458.519733,332.64528 Z M458.519733,336.115677 L463.749067,338.36581 L463.749067,339.351944 L458.519733,337.10181 L458.519733,336.115677 Z M466.2512,331.422616 L471.480267,329.172482 L471.480267,330.158616 L466.2512,332.409016 L466.2512,331.422616 Z M466.2512,334.895413 L471.480267,332.64528 L471.480267,333.631413 L466.2512,335.881546 L466.2512,334.895413 Z M466.2512,338.36581 L471.480267,336.115677 L471.480267,337.10181 L466.2512,339.351944 L466.2512,338.36581 Z M473.079733,328.751149 L474.521067,328.751149 C474.7856,328.751149 475,328.965549 475,329.229816 L475,342.395682 C475,342.660216 474.7856,342.874349 474.521067,342.874349 L464.943733,342.874349 L462.4184,342.874349 L462.4184,345.760749 C462.4184,345.810616 462.402933,345.859149 462.373867,345.899682 C462.297067,346.007149 462.147467,346.032216 462.039733,345.955416 L460.881333,345.128216 C460.798133,345.068749 460.6864,345.068749 460.6032,345.128216 L459.4448,345.955416 C459.404267,345.984216 459.355733,345.999949 459.3056,345.999949 C459.1736,345.999949 459.0664,345.892749 459.0664,345.760749 L459.0664,342.874349 L455.478933,342.874349 C455.2144,342.874349 455,342.660216 455,342.395682 L455,329.292216 C455,329.027949 455.2144,328.813282 455.478933,328.813282 L456.920267,328.813282 L456.920267,326.478882 C456.920267,326.415416 456.933067,326.352216 456.9576,326.293816 C457.059733,326.050082 457.340533,325.935149 457.584267,326.037282 L464.2064,328.813282 L465.001333,329.150349 L465.7936,328.813282 L472.415733,326.037282 C472.4744,326.012749 472.537333,326.000216 472.6008,326.000216 C472.865333,326.000216 473.079733,326.214349 473.079733,326.478882 L473.079733,328.751149 Z M464.630133,341.962349 L464.630133,329.811682 L462.278933,328.813282 L457.971733,326.984749 C457.941867,326.972216 457.910133,326.965816 457.878133,326.965816 C457.745867,326.965816 457.638667,327.072749 457.638667,327.205016 L457.638667,338.835682 C457.638667,338.931682 457.696,339.018616 457.784533,339.055949 L464.630133,341.962349 Z M472.215467,339.055949 C472.304,339.018616 472.361333,338.931682 472.361333,338.835682 L472.361333,327.205016 C472.361333,327.172749 472.354933,327.141016 472.3424,327.111416 C472.290667,326.989816 472.150133,326.933016 472.028533,326.984749 L467.721067,328.813282 L465.369867,329.811682 L465.369867,341.962349 L472.215467,339.055949 Z" id="send-button-icon" fill="#284155"></path>
            <path d="M497.148308,327.653538 C496.931692,326.570462 496.038154,325.162462 493.709538,325.162462 C491.895385,325.162462 490.365538,326.462154 490.365538,328.168 C490.365538,329.616615 491.353846,330.604923 492.883692,330.916308 L494.224,331.187077 C494.968615,331.336 495.388308,331.769231 495.388308,332.324308 C495.388308,333.001231 494.833231,333.502154 493.831385,333.502154 C492.477538,333.502154 491.814154,332.649231 491.732923,331.701538 L490,332.161846 C490.148923,333.529231 491.272615,335.167385 493.817846,335.167385 C496.051692,335.167385 497.283692,333.678154 497.283692,332.202462 C497.283692,330.848615 496.349538,329.711385 494.603077,329.372923 L493.262769,329.115692 C492.558769,328.980308 492.220308,328.560615 492.220308,328.032615 C492.220308,327.396308 492.816,326.814154 493.723077,326.814154 C494.941538,326.814154 495.374769,327.64 495.469538,328.168 L497.148308,327.653538 Z M500.153846,330.875692 C500.194462,330.266462 500.708923,329.562462 501.643077,329.562462 C502.672,329.562462 503.105231,330.212308 503.132308,330.875692 L500.153846,330.875692 Z M503.308308,332.608615 C503.091692,333.204308 502.631385,333.624 501.792,333.624 C500.898462,333.624 500.153846,332.987692 500.113231,332.107692 L504.878769,332.107692 L504.901615,331.744058 C504.904154,331.682077 504.905846,331.616923 504.905846,331.552615 C504.905846,329.413538 503.673846,328.100308 501.616,328.100308 C499.910154,328.100308 498.339692,329.481231 498.339692,331.606769 C498.339692,333.854154 499.950769,335.167385 501.778462,335.167385 C503.416615,335.167385 504.472615,334.206154 504.811077,333.055385 L503.308308,332.608615 Z M508.155077,331.132923 C508.155077,330.361231 508.615385,329.752 509.400615,329.752 C510.267077,329.752 510.632615,330.334154 510.632615,331.078769 L510.632615,334.964308 L512.433231,334.964308 L512.433231,330.767385 C512.433231,329.305231 511.675077,328.127385 510.023385,328.127385 C509.305846,328.127385 508.507077,328.438769 508.100923,329.129231 L508.100923,328.303385 L506.354462,328.303385 L506.354462,334.964308 L508.155077,334.964308 L508.155077,331.132923 Z M520.651077,325.162462 L518.877538,325.162462 L518.877538,328.966769 C518.688,328.614769 518.146462,328.140923 516.995692,328.140923 C515.113846,328.140923 513.800615,329.670769 513.800615,331.620308 C513.800615,333.637538 515.154462,335.126769 517.049846,335.126769 C517.943385,335.126769 518.620308,334.720615 518.918154,334.192615 C518.918154,334.504 518.958769,334.828923 518.985846,334.964308 L520.705231,334.964308 L520.685346,334.724635 C520.669481,334.49776 520.65626,334.211389 520.652293,333.928325 L520.651077,325.162462 Z M515.614769,331.620308 C515.614769,330.428923 516.345846,329.752 517.266462,329.752 C518.187077,329.752 518.904615,330.415385 518.904615,331.606769 C518.904615,332.811692 518.187077,333.515692 517.266462,333.515692 C516.318769,333.515692 515.614769,332.811692 515.614769,331.620308 Z M525.308308,333.150154 C525.308308,334.192615 526.174769,335.153846 527.596308,335.153846 C528.584615,335.153846 529.220923,334.693538 529.559385,334.165538 C529.559385,334.422769 529.586462,334.788308 529.627077,334.964308 L531.278769,334.964308 C531.238154,334.734154 531.197538,334.260308 531.197538,333.908308 L531.197538,330.632 C531.197538,329.291692 530.412308,328.100308 528.300308,328.100308 C526.513231,328.100308 525.552,329.251077 525.443692,330.293538 L527.041231,330.632 C527.095385,330.049846 527.528615,329.548923 528.313846,329.548923 C529.072,329.548923 529.437538,329.941538 529.437538,330.415385 C529.437538,330.645538 529.315692,330.835077 528.936615,330.889231 L527.298462,331.132923 C526.188308,331.295385 525.308308,331.958769 525.308308,333.150154 Z M527.975385,333.813538 C527.393231,333.813538 527.108923,333.434462 527.108923,333.041846 C527.108923,332.527385 527.474462,332.270154 527.934769,332.202462 L529.437538,331.972308 L529.437538,332.270154 C529.437538,333.448 528.733538,333.813538 527.975385,333.813538 Z M532.537846,333.109538 C532.619077,333.867692 533.309538,335.167385 535.313231,335.167385 C537.059692,335.167385 537.899077,334.057231 537.899077,332.974154 C537.899077,331.999385 537.235692,331.200615 535.922462,330.929846 L534.974769,330.726769 C534.609231,330.659077 534.365538,330.456 534.365538,330.131077 C534.365538,329.752 534.744615,329.467692 535.218462,329.467692 C535.976615,329.467692 536.260923,329.968615 536.315077,330.361231 L537.817846,330.022769 C537.736615,329.305231 537.100308,328.100308 535.204923,328.100308 C533.769846,328.100308 532.713846,329.088615 532.713846,330.28 C532.713846,331.214154 533.296,331.985846 534.582154,332.270154 L535.462154,332.473231 C535.976615,332.581538 536.179692,332.825231 536.179692,333.123077 C536.179692,333.475077 535.895385,333.786462 535.299692,333.786462 C534.514462,333.786462 534.121846,333.299077 534.081231,332.771077 L532.537846,333.109538 Z M538.914462,333.109538 C538.995692,333.867692 539.686154,335.167385 541.689846,335.167385 C543.436308,335.167385 544.275692,334.057231 544.275692,332.974154 C544.275692,331.999385 543.612308,331.200615 542.299077,330.929846 L541.351385,330.726769 C540.985846,330.659077 540.742154,330.456 540.742154,330.131077 C540.742154,329.752 541.121231,329.467692 541.595077,329.467692 C542.353231,329.467692 542.637538,329.968615 542.691692,330.361231 L544.194462,330.022769 C544.113231,329.305231 543.476923,328.100308 541.581538,328.100308 C540.146462,328.100308 539.090462,329.088615 539.090462,330.28 C539.090462,331.214154 539.672615,331.985846 540.958769,332.270154 L541.838769,332.473231 C542.353231,332.581538 542.556308,332.825231 542.556308,333.123077 C542.556308,333.475077 542.272,333.786462 541.676308,333.786462 C540.891077,333.786462 540.498462,333.299077 540.457846,332.771077 L538.914462,333.109538 Z M547.538462,334.964308 L547.538462,328.303385 L545.737846,328.303385 L545.737846,334.964308 L547.538462,334.964308 Z M545.521231,326.123692 C545.521231,326.719385 546.022154,327.220308 546.631385,327.220308 C547.254154,327.220308 547.741538,326.719385 547.741538,326.123692 C547.741538,325.500923 547.254154,325 546.631385,325 C546.022154,325 545.521231,325.500923 545.521231,326.123692 Z M548.987077,335.329846 C549.176615,336.602462 550.395077,337.739692 552.222769,337.739692 C554.727385,337.739692 555.715692,336.074462 555.715692,334.246769 L555.715692,328.303385 L553.982769,328.303385 L553.982769,329.088615 C553.752615,328.641846 553.143385,328.181538 552.087385,328.181538 C550.259692,328.181538 548.987077,329.670769 548.987077,331.430769 C548.987077,333.299077 550.313846,334.666462 552.087385,334.666462 C553.048615,334.666462 553.671385,334.246769 553.942154,333.813538 L553.942154,334.300923 C553.942154,335.587077 553.305846,336.155692 552.168615,336.155692 C551.315692,336.155692 550.733538,335.627692 550.611692,334.896615 L548.987077,335.329846 Z M552.398769,333.123077 C551.464615,333.123077 550.801231,332.473231 550.801231,331.430769 C550.801231,330.401846 551.505231,329.752 552.398769,329.752 C553.265231,329.752 553.969231,330.401846 553.969231,331.430769 C553.969231,332.459692 553.319385,333.123077 552.398769,333.123077 Z M559.357538,331.132923 C559.357538,330.361231 559.817846,329.752 560.603077,329.752 C561.469538,329.752 561.835077,330.334154 561.835077,331.078769 L561.835077,334.964308 L563.635692,334.964308 L563.635692,330.767385 C563.635692,329.305231 562.877538,328.127385 561.225846,328.127385 C560.508308,328.127385 559.709538,328.438769 559.303385,329.129231 L559.303385,328.303385 L557.556923,328.303385 L557.556923,334.964308 L559.357538,334.964308 L559.357538,331.132923 Z M567.209846,334.964308 L567.209846,331.065231 C567.209846,330.334154 567.670154,329.752 568.455385,329.752 C569.267692,329.752 569.633231,330.293538 569.633231,331.011077 L569.633231,334.964308 L571.420308,334.964308 L571.420308,331.065231 C571.420308,330.347692 571.880615,329.752 572.652308,329.752 C573.478154,329.752 573.830154,330.293538 573.830154,331.011077 L573.830154,334.964308 L575.576615,334.964308 L575.576615,330.645538 C575.576615,328.858462 574.398769,328.113846 573.166769,328.113846 C572.286769,328.113846 571.582769,328.411692 571.054769,329.224 C570.716308,328.506462 569.985231,328.113846 569.078154,328.113846 C568.347077,328.113846 567.494154,328.465846 567.128615,329.115692 L567.128615,328.303385 L565.409231,328.303385 L565.409231,334.964308 L567.209846,334.964308 Z M578.758154,330.875692 C578.798769,330.266462 579.313231,329.562462 580.247385,329.562462 C581.276308,329.562462 581.709538,330.212308 581.736615,330.875692 L578.758154,330.875692 Z M581.912615,332.608615 C581.696,333.204308 581.235692,333.624 580.396308,333.624 C579.502769,333.624 578.758154,332.987692 578.717538,332.107692 L583.483077,332.107692 L583.505923,331.744058 C583.508462,331.682077 583.510154,331.616923 583.510154,331.552615 C583.510154,329.413538 582.278154,328.100308 580.220308,328.100308 C578.514462,328.100308 576.944,329.481231 576.944,331.606769 C576.944,333.854154 578.555077,335.167385 580.382769,335.167385 C582.020923,335.167385 583.076923,334.206154 583.415385,333.055385 L581.912615,332.608615 Z M586.759385,331.132923 C586.759385,330.361231 587.219692,329.752 588.004923,329.752 C588.871385,329.752 589.236923,330.334154 589.236923,331.078769 L589.236923,334.964308 L591.037538,334.964308 L591.037538,330.767385 C591.037538,329.305231 590.279385,328.127385 588.627692,328.127385 C587.910154,328.127385 587.111385,328.438769 586.705231,329.129231 L586.705231,328.303385 L584.958769,328.303385 L584.958769,334.964308 L586.759385,334.964308 L586.759385,331.132923 Z M595.153231,326.313231 L595.153231,328.303385 L596.493538,328.303385 L596.493538,329.900923 L595.153231,329.900923 L595.153231,332.689846 C595.153231,333.272 595.424,333.461538 595.938462,333.461538 C596.155077,333.461538 596.398769,333.434462 596.493538,333.407385 L596.493538,334.896615 L596.360717,334.944418 C596.176638,335.001747 595.888821,335.059077 595.478154,335.059077 C594.178462,335.059077 593.366154,334.287385 593.366154,333.001231 L593.366154,329.900923 L592.161231,329.900923 L592.161231,328.303385 L592.499692,328.303385 C593.203692,328.303385 593.528615,327.843077 593.528615,327.247385 L593.528615,326.313231 L595.153231,326.313231 Z" id="send-button-title" fill="#203444" fill-rule="nonzero"></path>
            <path d="M493.498631,347.906465 L493.498631,347.163107 L490.791838,347.163107 L490.791838,342.17776 L490,342.17776 L490,347.906465 L493.498631,347.906465 Z M494.815668,345.563271 C494.847988,345.062312 495.235827,344.569434 495.874145,344.569434 C496.560944,344.569434 496.924543,345.005753 496.940703,345.563271 L494.815668,345.563271 Z M497.053822,346.573269 C496.908383,347.009588 496.593264,347.357027 495.963025,347.357027 C495.308547,347.357027 494.807588,346.872228 494.791428,346.17735 L497.716381,346.17735 L497.727491,346.07433 C497.730521,346.03191 497.732541,345.98343 497.732541,345.93495 C497.732541,344.722953 497.061902,343.898795 495.866065,343.898795 C494.888388,343.898795 494.00767,344.731033 494.00767,345.95111 C494.00767,347.268147 494.920708,348.027665 495.963025,348.027665 C496.867983,348.027665 497.490141,347.486306 497.708301,346.799508 L497.053822,346.573269 Z M499.744456,342.791838 L499.049577,342.791838 L499.049577,343.422076 C499.049577,343.761436 498.871818,344.019995 498.451659,344.019995 L498.241579,344.019995 L498.241579,344.706793 L498.984938,344.706793 L498.984938,346.839908 C498.984938,347.542866 499.405097,347.946865 500.067655,347.946865 C500.326214,347.946865 500.520134,347.898385 500.584774,347.874145 L500.584774,347.227747 C500.520134,347.243907 500.382774,347.260067 500.285814,347.260067 C499.889895,347.260067 499.744456,347.082307 499.744456,346.726788 L499.744456,344.706793 L500.584774,344.706793 L500.584774,344.019995 L499.744456,344.019995 L499.744456,342.791838 Z M503.218847,346.896468 C503.283487,347.340867 503.735966,348.027665 504.802523,348.027665 C505.764041,348.027665 506.2246,347.373187 506.2246,346.823748 C506.2246,346.250069 505.852921,345.82183 505.149962,345.668311 L504.519724,345.530951 C504.220765,345.466311 504.075325,345.296632 504.075325,345.062312 C504.075325,344.795673 504.333884,344.545194 504.721723,344.545194 C505.335802,344.545194 505.497401,344.989593 505.529721,345.191592 L506.20036,344.941113 L506.168121,344.8275 C506.045951,344.461647 505.681625,343.898795 504.721723,343.898795 C503.962205,343.898795 503.340047,344.464394 503.340047,345.126952 C503.340047,345.676391 503.703646,346.08847 504.309644,346.217749 L504.972203,346.363189 C505.295402,346.435909 505.473161,346.621748 505.473161,346.864148 C505.473161,347.138867 505.238842,347.381267 504.810603,347.381267 C504.261164,347.381267 503.954125,347.058067 503.905645,346.654068 L503.218847,346.896468 Z M508.260755,342.791838 L507.565876,342.791838 L507.565876,343.422076 C507.565876,343.761436 507.388117,344.019995 506.967958,344.019995 L506.757878,344.019995 L506.757878,344.706793 L507.501236,344.706793 L507.501236,346.839908 C507.501236,347.542866 507.921395,347.946865 508.583954,347.946865 C508.842513,347.946865 509.036433,347.898385 509.101072,347.874145 L509.101072,347.227747 C509.036433,347.243907 508.899073,347.260067 508.802113,347.260067 C508.406194,347.260067 508.260755,347.082307 508.260755,346.726788 L508.260755,344.706793 L509.101072,344.706793 L509.101072,344.019995 L508.260755,344.019995 L508.260755,342.791838 Z M512.567384,347.437826 C512.567384,347.599426 512.583544,347.817586 512.599704,347.906465 L513.326902,347.906465 C513.313051,347.788728 513.293263,347.570074 513.287892,347.31665 L513.286502,344.019995 L512.526984,344.019995 L512.526984,346.363189 C512.526984,346.953028 512.219945,347.357027 511.605866,347.357027 C510.967548,347.357027 510.725148,346.888388 510.725148,346.355109 L510.725148,344.019995 L509.96563,344.019995 L509.96563,346.468229 C509.96563,347.348947 510.515069,348.027665 511.420027,348.027665 C511.872506,348.027665 512.357304,347.841825 512.567384,347.437826 Z M515.039858,345.95111 C515.039858,345.151192 515.492337,344.585594 516.187215,344.585594 C516.882093,344.585594 517.302252,345.135032 517.302252,345.93495 C517.302252,346.734868 516.874013,347.340867 516.179135,347.340867 C515.451937,347.340867 515.039858,346.751028 515.039858,345.95111 Z M517.310332,347.316627 L517.310332,347.381267 C517.310332,347.615586 517.334572,347.817586 517.350732,347.906465 L518.08601,347.906465 L518.071945,347.773894 C518.06197,347.665163 518.050332,347.5024 518.04673,347.307771 L518.04561,342.05656 L517.294172,342.05656 L517.294172,344.569434 C517.164892,344.254314 516.793213,343.914955 516.106415,343.914955 C515.007538,343.914955 514.26418,344.852233 514.26418,345.95111 C514.26418,347.106547 514.967138,348.011505 516.106415,348.011505 C516.712413,348.011505 517.124492,347.688306 517.310332,347.316627 Z M519.831286,345.563271 C519.863606,345.062312 520.251445,344.569434 520.889763,344.569434 C521.576561,344.569434 521.94016,345.005753 521.95632,345.563271 L519.831286,345.563271 Z M522.06944,346.573269 C521.924001,347.009588 521.608881,347.357027 520.978643,347.357027 C520.324164,347.357027 519.823206,346.872228 519.807046,346.17735 L522.731998,346.17735 L522.743108,346.07433 C522.746138,346.03191 522.748158,345.98343 522.748158,345.93495 C522.748158,344.722953 522.07752,343.898795 520.881683,343.898795 C519.904006,343.898795 519.023288,344.731033 519.023288,345.95111 C519.023288,347.268147 519.936325,348.027665 520.978643,348.027665 C521.883601,348.027665 522.505759,347.486306 522.723919,346.799508 L522.06944,346.573269 Z M524.461114,345.660231 C524.461114,345.070392 524.768153,344.593674 525.366072,344.593674 C526.04479,344.593674 526.27103,345.029992 526.27103,345.571351 L526.27103,347.906465 L527.030548,347.906465 L527.030548,345.442071 C527.030548,344.577514 526.569989,343.906875 525.640791,343.906875 C525.188312,343.906875 524.727754,344.092715 524.444954,344.577514 L524.444954,344.019995 L523.701596,344.019995 L523.701596,347.906465 L524.461114,347.906465 L524.461114,345.660231 Z M529.276782,342.791838 L528.581904,342.791838 L528.581904,343.422076 C528.581904,343.761436 528.404144,344.019995 527.983985,344.019995 L527.773906,344.019995 L527.773906,344.706793 L528.517264,344.706793 L528.517264,346.839908 C528.517264,347.542866 528.937423,347.946865 529.599981,347.946865 C529.858541,347.946865 530.05246,347.898385 530.1171,347.874145 L530.1171,347.227747 C530.05246,347.243907 529.915101,347.260067 529.818141,347.260067 C529.422222,347.260067 529.276782,347.082307 529.276782,346.726788 L529.276782,344.706793 L530.1171,344.706793 L530.1171,344.019995 L529.276782,344.019995 L529.276782,342.791838 Z M530.715019,346.896468 C530.779658,347.340867 531.232137,348.027665 532.298695,348.027665 C533.260212,348.027665 533.720771,347.373187 533.720771,346.823748 C533.720771,346.250069 533.349092,345.82183 532.646134,345.668311 L532.015895,345.530951 C531.716936,345.466311 531.571496,345.296632 531.571496,345.062312 C531.571496,344.795673 531.830056,344.545194 532.217895,344.545194 C532.831973,344.545194 532.993573,344.989593 533.025893,345.191592 L533.696531,344.941113 L533.664292,344.8275 C533.542123,344.461647 533.177796,343.898795 532.217895,343.898795 C531.458377,343.898795 530.836218,344.464394 530.836218,345.126952 C530.836218,345.676391 531.199817,346.08847 531.805816,346.217749 L532.468374,346.363189 C532.791573,346.435909 532.969333,346.621748 532.969333,346.864148 C532.969333,347.138867 532.735014,347.381267 532.306775,347.381267 C531.757336,347.381267 531.450297,347.058067 531.401817,346.654068 L530.715019,346.896468 Z M538.431399,344.601754 C539.093958,344.601754 539.376757,345.046152 539.473717,345.425911 L540.160515,345.135032 C539.998916,344.545194 539.465637,343.898795 538.431399,343.898795 C537.324442,343.898795 536.476044,344.747193 536.476044,345.95919 C536.476044,347.138867 537.308282,348.027665 538.439479,348.027665 C539.449477,348.027665 540.006995,347.373187 540.192835,346.815668 L539.522197,346.524789 C539.433317,346.831828 539.166678,347.324707 538.439479,347.324707 C537.809241,347.324707 537.251722,346.847988 537.251722,345.95919 C537.251722,345.054232 537.817321,344.601754 538.431399,344.601754 Z M542.818828,347.348947 C542.17243,347.348947 541.606832,346.864148 541.606832,345.95919 C541.606832,345.062312 542.17243,344.577514 542.818828,344.577514 C543.465227,344.577514 544.030825,345.062312 544.030825,345.95919 C544.030825,346.864148 543.465227,347.348947 542.818828,347.348947 Z M542.818828,343.898795 C541.655311,343.898795 540.831153,344.779513 540.831153,345.95919 C540.831153,347.146947 541.655311,348.027665 542.818828,348.027665 C543.982346,348.027665 544.806504,347.146947 544.806504,345.95919 C544.806504,344.779513 543.982346,343.898795 542.818828,343.898795 Z M546.527539,347.906465 L546.527539,345.563271 C546.527539,344.981513 546.891138,344.577514 547.432497,344.577514 C548.014256,344.577514 548.256655,344.965353 548.256655,345.466311 L548.256655,347.906465 L549.016173,347.906465 L549.016173,345.555191 C549.016173,344.997673 549.379772,344.577514 549.913051,344.577514 C550.486729,344.577514 550.737209,344.957273 550.737209,345.466311 L550.737209,347.906465 L551.488647,347.906465 L551.488647,345.385512 C551.488647,344.367434 550.826089,343.906875 550.14737,343.906875 C549.654491,343.906875 549.153533,344.084635 548.846493,344.642153 C548.636414,344.141195 548.167775,343.906875 547.682976,343.906875 C547.230498,343.906875 546.745699,344.108875 546.503299,344.537114 L546.503299,344.019995 L545.776101,344.019995 L545.776101,347.906465 L546.527539,347.906465 Z M553.427842,349.441661 L553.427842,347.381267 C553.637922,347.728706 554.0904,348.011505 554.688319,348.011505 C555.827596,348.011505 556.498234,347.114627 556.498234,345.95919 C556.498234,344.827993 555.876076,343.931115 554.712559,343.931115 C554.08232,343.931115 553.621762,344.238154 553.411682,344.625993 L553.411682,344.019995 L552.676404,344.019995 L552.676404,349.441661 L553.427842,349.441661 Z M555.722556,345.95919 C555.722556,346.759108 555.278157,347.332787 554.575199,347.332787 C553.880321,347.332787 553.419762,346.759108 553.419762,345.95919 C553.419762,345.183512 553.880321,344.601754 554.575199,344.601754 C555.286237,344.601754 555.722556,345.183512 555.722556,345.95919 Z M558.23543,347.906465 L558.23543,342.05656 L557.475912,342.05656 L557.475912,347.906465 L558.23543,347.906465 Z M560.013026,345.563271 C560.045346,345.062312 560.433185,344.569434 561.071503,344.569434 C561.758301,344.569434 562.1219,345.005753 562.13806,345.563271 L560.013026,345.563271 Z M562.25118,346.573269 C562.10574,347.009588 561.790621,347.357027 561.160383,347.357027 C560.505904,347.357027 560.004946,346.872228 559.988786,346.17735 L562.913738,346.17735 L562.924848,346.07433 C562.927878,346.03191 562.929898,345.98343 562.929898,345.93495 C562.929898,344.722953 562.25926,343.898795 561.063423,343.898795 C560.085745,343.898795 559.205028,344.731033 559.205028,345.95111 C559.205028,347.268147 560.118065,348.027665 561.160383,348.027665 C562.065341,348.027665 562.687499,347.486306 562.905658,346.799508 L562.25118,346.573269 Z M564.941813,342.791838 L564.246935,342.791838 L564.246935,343.422076 C564.246935,343.761436 564.069176,344.019995 563.649017,344.019995 L563.438937,344.019995 L563.438937,344.706793 L564.182295,344.706793 L564.182295,346.839908 C564.182295,347.542866 564.602454,347.946865 565.265013,347.946865 C565.523572,347.946865 565.717491,347.898385 565.782131,347.874145 L565.782131,347.227747 C565.717491,347.243907 565.580132,347.260067 565.483172,347.260067 C565.087253,347.260067 564.941813,347.082307 564.941813,346.726788 L564.941813,344.706793 L565.782131,344.706793 L565.782131,344.019995 L564.941813,344.019995 L564.941813,342.791838 Z M567.236528,345.563271 C567.268848,345.062312 567.656687,344.569434 568.295005,344.569434 C568.981803,344.569434 569.345402,345.005753 569.361562,345.563271 L567.236528,345.563271 Z M569.474682,346.573269 C569.329242,347.009588 569.014123,347.357027 568.383885,347.357027 C567.729406,347.357027 567.228448,346.872228 567.212288,346.17735 L570.13724,346.17735 L570.14835,346.07433 C570.15138,346.03191 570.1534,345.98343 570.1534,345.93495 C570.1534,344.722953 569.482762,343.898795 568.286925,343.898795 C567.309248,343.898795 566.42853,344.731033 566.42853,345.95111 C566.42853,347.268147 567.341567,348.027665 568.383885,348.027665 C569.288843,348.027665 569.911001,347.486306 570.12916,346.799508 L569.474682,346.573269 Z M573.894431,347.906465 L573.894431,344.019995 L573.142993,344.019995 L573.142993,347.906465 L573.894431,347.906465 Z M572.973313,342.549439 C572.973313,342.848398 573.215713,343.090797 573.514672,343.090797 C573.821711,343.090797 574.064111,342.848398 574.064111,342.549439 C574.064111,342.242399 573.821711,342 573.514672,342 C573.215713,342 572.973313,342.242399 572.973313,342.549439 Z M575.882106,345.660231 C575.882106,345.070392 576.189145,344.593674 576.787064,344.593674 C577.465782,344.593674 577.692022,345.029992 577.692022,345.571351 L577.692022,347.906465 L578.45154,347.906465 L578.45154,345.442071 C578.45154,344.577514 577.990981,343.906875 577.061783,343.906875 C576.609304,343.906875 576.148745,344.092715 575.865946,344.577514 L575.865946,344.019995 L575.122588,344.019995 L575.122588,347.906465 L575.882106,347.906465 L575.882106,345.660231 Z M582.733929,342.791838 L582.039051,342.791838 L582.039051,343.422076 C582.039051,343.761436 581.861291,344.019995 581.441132,344.019995 L581.231053,344.019995 L581.231053,344.706793 L581.974411,344.706793 L581.974411,346.839908 C581.974411,347.542866 582.39457,347.946865 583.057128,347.946865 C583.315688,347.946865 583.509607,347.898385 583.574247,347.874145 L583.574247,347.227747 C583.509607,347.243907 583.372248,347.260067 583.275288,347.260067 C582.879369,347.260067 582.733929,347.082307 582.733929,346.726788 L582.733929,344.706793 L583.574247,344.706793 L583.574247,344.019995 L582.733929,344.019995 L582.733929,342.791838 Z M585.238723,345.619831 C585.254883,345.046152 585.561922,344.593674 586.143681,344.593674 C586.822399,344.593674 587.048638,345.029992 587.048638,345.571351 L587.048638,347.906465 L587.808156,347.906465 L587.808156,345.442071 C587.808156,344.577514 587.347598,343.906875 586.4184,343.906875 C585.974001,343.906875 585.521522,344.060395 585.238723,344.472474 L585.238723,342.05656 L584.479205,342.05656 L584.479205,347.906465 L585.238723,347.906465 L585.238723,345.619831 Z M589.545352,345.563271 C589.577672,345.062312 589.965511,344.569434 590.60383,344.569434 C591.290628,344.569434 591.654227,345.005753 591.670387,345.563271 L589.545352,345.563271 Z M591.783507,346.573269 C591.638067,347.009588 591.322948,347.357027 590.692709,347.357027 C590.038231,347.357027 589.537272,346.872228 589.521112,346.17735 L592.446065,346.17735 L592.457175,346.07433 C592.460205,346.03191 592.462225,345.98343 592.462225,345.93495 C592.462225,344.722953 591.791587,343.898795 590.59575,343.898795 C589.618072,343.898795 588.737354,344.731033 588.737354,345.95111 C588.737354,347.268147 589.650392,348.027665 590.692709,348.027665 C591.597667,348.027665 592.219825,347.486306 592.437985,346.799508 L591.783507,346.573269 Z M594.167101,347.906465 L594.167101,344.019995 L593.415663,344.019995 L593.415663,347.906465 L594.167101,347.906465 Z M593.245983,342.549439 C593.245983,342.848398 593.488382,343.090797 593.787342,343.090797 C594.094381,343.090797 594.33678,342.848398 594.33678,342.549439 C594.33678,342.242399 594.094381,342 593.787342,342 C593.488382,342 593.245983,342.242399 593.245983,342.549439 Z M597.552612,344.787593 L597.552612,343.979595 L597.477242,343.967572 C597.428181,343.961173 597.365157,343.955355 597.302133,343.955355 C596.906214,343.955355 596.421415,344.100795 596.138616,344.698713 L596.138616,344.019995 L595.395258,344.019995 L595.395258,347.906465 L596.154776,347.906465 L596.154776,345.95919 C596.154776,345.102712 596.583015,344.763353 597.221333,344.763353 C597.326373,344.763353 597.439492,344.771433 597.552612,344.787593 Z M602.093561,347.348947 C601.447163,347.348947 600.881564,346.864148 600.881564,345.95919 C600.881564,345.062312 601.447163,344.577514 602.093561,344.577514 C602.739959,344.577514 603.305558,345.062312 603.305558,345.95919 C603.305558,346.864148 602.739959,347.348947 602.093561,347.348947 Z M602.093561,343.898795 C600.930044,343.898795 600.105886,344.779513 600.105886,345.95919 C600.105886,347.146947 600.930044,348.027665 602.093561,348.027665 C603.257078,348.027665 604.081236,347.146947 604.081236,345.95919 C604.081236,344.779513 603.257078,343.898795 602.093561,343.898795 Z M607.361708,344.019995 L606.35171,346.944948 L605.479072,344.019995 L604.646835,344.019995 L605.923471,347.906465 L606.723389,347.906465 L607.733387,344.949193 L608.767624,347.906465 L609.551382,347.906465 L610.811859,344.019995 L610.011941,344.019995 L609.155463,346.944948 L608.145466,344.019995 L607.361708,344.019995 Z M612.403615,345.660231 C612.403615,345.070392 612.710654,344.593674 613.308573,344.593674 C613.987291,344.593674 614.213531,345.029992 614.213531,345.571351 L614.213531,347.906465 L614.973049,347.906465 L614.973049,345.442071 C614.973049,344.577514 614.51249,343.906875 613.583292,343.906875 C613.130813,343.906875 612.670255,344.092715 612.387455,344.577514 L612.387455,344.019995 L611.644097,344.019995 L611.644097,347.906465 L612.403615,347.906465 L612.403615,345.660231 Z M619.255438,342.791838 L618.56056,342.791838 L618.56056,343.422076 C618.56056,343.761436 618.3828,344.019995 617.962641,344.019995 L617.752562,344.019995 L617.752562,344.706793 L618.49592,344.706793 L618.49592,346.839908 C618.49592,347.542866 618.916079,347.946865 619.578637,347.946865 C619.837197,347.946865 620.031116,347.898385 620.095756,347.874145 L620.095756,347.227747 C620.031116,347.243907 619.893757,347.260067 619.796797,347.260067 C619.400878,347.260067 619.255438,347.082307 619.255438,346.726788 L619.255438,344.706793 L620.095756,344.706793 L620.095756,344.019995 L619.255438,344.019995 L619.255438,342.791838 Z M621.752152,347.906465 L621.752152,344.019995 L621.000714,344.019995 L621.000714,347.906465 L621.752152,347.906465 Z M620.831034,342.549439 C620.831034,342.848398 621.073434,343.090797 621.372393,343.090797 C621.679432,343.090797 621.921832,342.848398 621.921832,342.549439 C621.921832,342.242399 621.679432,342 621.372393,342 C621.073434,342 620.831034,342.242399 620.831034,342.549439 Z M623.731747,347.906465 L623.731747,345.563271 C623.731747,344.981513 624.095346,344.577514 624.636705,344.577514 C625.218463,344.577514 625.460863,344.965353 625.460863,345.466311 L625.460863,347.906465 L626.220381,347.906465 L626.220381,345.555191 C626.220381,344.997673 626.58398,344.577514 627.117259,344.577514 C627.690937,344.577514 627.941417,344.957273 627.941417,345.466311 L627.941417,347.906465 L628.692855,347.906465 L628.692855,345.385512 C628.692855,344.367434 628.030296,343.906875 627.351578,343.906875 C626.858699,343.906875 626.35774,344.084635 626.050701,344.642153 C625.840622,344.141195 625.371983,343.906875 624.887184,343.906875 C624.434705,343.906875 623.949906,344.108875 623.707507,344.537114 L623.707507,344.019995 L622.980309,344.019995 L622.980309,347.906465 L623.731747,347.906465 Z M631.480448,343.898795 C632.676285,343.898795 633.346923,344.722953 633.346923,345.93495 C633.346923,346.03191 633.338843,346.12887 633.330763,346.17735 L630.40581,346.17735 C630.42197,346.872228 630.922929,347.357027 631.577407,347.357027 C632.207646,347.357027 632.522765,347.009588 632.668205,346.573269 L633.322683,346.799508 C633.104524,347.486306 632.482365,348.027665 631.577407,348.027665 C630.53509,348.027665 629.622052,347.268147 629.622052,345.95111 C629.622052,344.731033 630.50277,343.898795 631.480448,343.898795 Z M631.488528,344.569434 C630.850209,344.569434 630.46237,345.062312 630.43005,345.563271 L630.43005,345.563271 L632.555085,345.563271 C632.538925,345.005753 632.175326,344.569434 631.488528,344.569434 Z" id="send-button-subtitle" fill="#586773" fill-rule="nonzero"></path>
            <path d="M442.654249,265.550663 C442.930169,264.816318 443.37762,264.816574 443.653443,265.550663 L446.139781,272.167911 L452.757029,274.654249 C453.491375,274.930169 453.491119,275.37762 452.757029,275.653443 L446.139781,278.139781 L443.653443,284.757029 C443.377523,285.491375 442.930073,285.491119 442.654249,284.757029 L440.167911,278.139781 L433.550663,275.653443 C432.816318,275.377523 432.816574,274.930073 433.550663,274.654249 L440.167911,272.167911 L442.654249,265.550663 Z" id="star" fill="#4B96CC"></path>
            <path d="M450.602698,287.183554 C450.694672,286.938773 450.843822,286.938858 450.935763,287.183554 L451.764542,289.389304 L453.970292,290.218083 C454.215074,290.310056 454.214988,290.459207 453.970292,290.551148 L451.764542,291.379927 L450.935763,293.585676 C450.84379,293.830458 450.69464,293.830373 450.602698,293.585676 L449.773919,291.379927 L447.56817,290.551148 C447.323388,290.459174 447.323473,290.310024 447.56817,290.218083 L449.773919,289.389304 L450.602698,287.183554 Z" id="star" fill="#81B6DC"></path>
            <path d="M642.679621,472.491247 C642.771595,472.246465 642.920745,472.24655 643.012686,472.491247 L643.841466,474.696996 L646.047215,475.525775 C646.291997,475.617749 646.291911,475.766899 646.047215,475.85884 L643.841466,476.687619 L643.012686,478.893369 C642.920713,479.138151 642.771563,479.138065 642.679621,478.893369 L641.850842,476.687619 L639.645093,475.85884 C639.400311,475.766867 639.400396,475.617717 639.645093,475.525775 L641.850842,474.696996 L642.679621,472.491247 Z" id="star" fill="#81B6DC"></path>
        </g>
    </g>
</svg>