<svg width="220px" height="220px" viewBox="0 0 220 220" version="1.1" xmlns="http://www.w3.org/2000/svg">

    <defs>
        <filter x="-6.3%" y="-16.8%" width="112.5%" height="133.7%" filterUnits="objectBoundingBox" id="filter-1">
            <feGaussianBlur stdDeviation="3" in="SourceGraphic"></feGaussianBlur>
        </filter>
    </defs>
    <g id="----L-No-default-class" stroke="none" stroke-width="1" fill="none" fill-rule="evenodd">
        <g id="003-–-Your-Classes,-Default-Class-not-activiated-Copy" transform="translate(-828.000000, -265.000000)">
            <circle id="bg" fill="#D2E5F2" cx="938" cy="375" r="110"></circle>
            <path d="M845.373147,471.000907 C843.51021,471.000907 842,469.488677 842,467.630914 L842.000216,428.743545 C841.997967,428.742209 841.997967,428.740873 841.997967,428.739537 L841.997967,321.260336 C851.916916,303.578951 866.579064,288.916822 884.260463,278.997967 L991.739537,278.997967 L991.742967,278.999967 L1029.99444,279 C1032.20665,279 1034,280.784503 1034,283.007328 L1034.00203,428.739537 C1024.08353,446.420309 1009.42209,461.082045 991.741543,471.000907 L845.373147,471.000907 Z" id="Path" fill="#2D455C"></path>
            <path d="M841.947582,429.610512 C866.742852,390.91761 889.9923,371.571159 911.695926,371.571159 C947.887171,371.571159 956.460865,392.345263 980.720367,388.923826 C995.151324,386.888557 1012.7811,376.709975 1033.60969,358.388081" id="graph-shadow" stroke="#000000" stroke-width="6" opacity="0.160584089" stroke-linecap="round" filter="url(#filter-1)"></path>
            <path d="M833.076923,446.076923 C854.205083,391.923077 876.678567,363.435897 900.497374,360.615385 C936.225585,356.384615 953.637373,379.777322 981.401915,370.769231 C1009.16646,361.761139 1010.5903,319.948616 1042.92308,331.904253" id="graph" stroke="#43A872" stroke-width="4" stroke-linecap="round"></path>
            <path d="M899.212959,302.4 C898.942189,301.046154 897.825266,299.286154 894.914497,299.286154 C892.646805,299.286154 890.734497,300.910769 890.734497,303.043077 C890.734497,304.853846 891.969882,306.089231 893.882189,306.478462 L895.557574,306.816923 C896.488343,307.003077 897.012959,307.544615 897.012959,308.238462 C897.012959,309.084615 896.319112,309.710769 895.066805,309.710769 C893.374497,309.710769 892.545266,308.644615 892.443728,307.46 L890.277574,308.035385 C890.463728,309.744615 891.868343,311.792308 895.049882,311.792308 C897.842189,311.792308 899.382189,309.930769 899.382189,308.086154 C899.382189,306.393846 898.214497,304.972308 896.03142,304.549231 L894.356036,304.227692 C893.476036,304.058462 893.052959,303.533846 893.052959,302.873846 C893.052959,302.078462 893.797574,301.350769 894.93142,301.350769 C896.454497,301.350769 896.996036,302.383077 897.114497,303.043077 L899.212959,302.4 Z M912.867278,301.756923 L912.867278,299.54 L902.933432,299.54 L902.933432,301.756923 L906.724201,301.756923 L906.724201,311.538462 L909.076509,311.538462 L909.076509,301.756923 L912.867278,301.756923 Z M921.647751,311.809231 C924.220059,311.809231 926.267751,310.235385 926.267751,307.290769 L926.267751,299.54 L923.932367,299.54 L923.932367,307.121538 C923.932367,308.695385 923.06929,309.524615 921.647751,309.524615 C920.260059,309.524615 919.380059,308.695385 919.380059,307.121538 L919.380059,299.54 L917.044675,299.54 L917.044675,307.290769 C917.044675,310.235385 919.092367,311.809231 921.647751,311.809231 Z M933.914379,309.372308 L933.914379,301.706154 L935.79284,301.706154 C937.755917,301.706154 939.380533,302.941538 939.380533,305.547692 C939.380533,308.153846 937.738994,309.372308 935.775917,309.372308 L933.914379,309.372308 Z M935.860533,311.538462 C939.278994,311.538462 941.800533,309.338462 941.800533,305.547692 C941.800533,301.756923 939.295917,299.54 935.877456,299.54 L931.578994,299.54 L931.578994,311.538462 L935.860533,311.538462 Z M954.050237,311.538462 L954.050237,309.338462 L948.871775,309.338462 L948.871775,306.563077 L953.559467,306.563077 L953.559467,304.481538 L948.871775,304.481538 L948.871775,301.74 L954.050237,301.74 L954.050237,299.54 L946.536391,299.54 L946.536391,311.538462 L954.050237,311.538462 Z M969.176864,311.538462 L969.176864,299.54 L966.841479,299.54 L966.841479,307.476923 L961.849172,299.54 L958.938402,299.54 L958.938402,311.538462 L961.273787,311.538462 L961.273787,303.026154 L966.723018,311.538462 L969.176864,311.538462 Z M983.389645,301.756923 L983.389645,299.54 L973.455799,299.54 L973.455799,301.756923 L977.246568,301.756923 L977.246568,311.538462 L979.598876,311.538462 L979.598876,301.756923 L983.389645,301.756923 Z M894.330651,324.4 C894.059882,323.046154 892.942959,321.286154 890.032189,321.286154 C887.764497,321.286154 885.852189,322.910769 885.852189,325.043077 C885.852189,326.853846 887.087574,328.089231 888.999882,328.478462 L890.675266,328.816923 C891.606036,329.003077 892.130651,329.544615 892.130651,330.238462 C892.130651,331.084615 891.436805,331.710769 890.184497,331.710769 C888.492189,331.710769 887.662959,330.644615 887.56142,329.46 L885.395266,330.035385 C885.58142,331.744615 886.986036,333.792308 890.167574,333.792308 C892.959882,333.792308 894.499882,331.930769 894.499882,330.086154 C894.499882,328.393846 893.332189,326.972308 891.149112,326.549231 L889.473728,326.227692 C888.593728,326.058462 888.170651,325.533846 888.170651,324.873846 C888.170651,324.078462 888.915266,323.350769 890.049112,323.350769 C891.572189,323.350769 892.113728,324.383077 892.232189,325.043077 L894.330651,324.4 Z M903.686509,333.809231 C906.258817,333.809231 908.306509,332.235385 908.306509,329.290769 L908.306509,321.54 L905.971124,321.54 L905.971124,329.121538 C905.971124,330.695385 905.108047,331.524615 903.686509,331.524615 C902.298817,331.524615 901.418817,330.695385 901.418817,329.121538 L901.418817,321.54 L899.083432,321.54 L899.083432,329.290769 C899.083432,332.235385 901.131124,333.809231 903.686509,333.809231 Z M927.003905,333.538462 L927.003905,321.54 L923.822367,321.54 L920.302367,330.204615 L916.697751,321.54 L913.617751,321.54 L913.617751,333.538462 L915.851598,333.538462 L915.851598,325.195385 L919.303905,333.538462 L921.250059,333.538462 L924.702367,325.127692 L924.702367,333.538462 L927.003905,333.538462 Z M945.80284,333.538462 L945.80284,321.54 L942.621302,321.54 L939.101302,330.204615 L935.496686,321.54 L932.416686,321.54 L932.416686,333.538462 L934.650533,333.538462 L934.650533,325.195385 L938.10284,333.538462 L940.048994,333.538462 L943.501302,325.127692 L943.501302,333.538462 L945.80284,333.538462 Z M959.304852,333.538462 L961.843314,333.538462 L957.274083,321.54 L954.566391,321.54 L949.963314,333.538462 L952.434083,333.538462 L953.432544,330.796923 L958.306391,330.796923 L959.304852,333.538462 Z M955.869467,324.129231 L957.527929,328.664615 L954.211006,328.664615 L955.869467,324.129231 Z M971.943787,333.538462 L974.549941,333.538462 L971.977633,328.630769 C973.551479,328.173846 974.533018,326.904615 974.533018,325.229231 C974.533018,323.147692 973.043787,321.54 970.708402,321.54 L966.02071,321.54 L966.02071,333.538462 L968.373018,333.538462 L968.373018,328.918462 L969.591479,328.918462 L971.943787,333.538462 Z M968.373018,326.904615 L968.373018,323.570769 L970.268402,323.570769 C971.453018,323.570769 972.146864,324.230769 972.146864,325.246154 C972.146864,326.227692 971.453018,326.904615 970.268402,326.904615 L968.373018,326.904615 Z M981.790414,328.495385 L977.610414,321.54 L980.351953,321.54 L983.042722,326.295385 L985.733491,321.54 L988.356568,321.54 L984.125799,328.495385 L984.125799,333.538462 L981.790414,333.538462 L981.790414,328.495385 Z" id="title" fill="#FFFFFF" fill-rule="nonzero"></path>
            <circle id="Oval" fill="#FFFFFF" cx="938.423077" cy="365.269231" r="8.03846154"></circle>
            <circle id="Oval" fill="#43A872" cx="938.423077" cy="365.269231" r="5.5"></circle>
            <path d="M969.461538,424.076923 L1019.92308,424.076923 C1020.47536,424.076923 1020.92308,424.524638 1020.92308,425.076923 L1020.92308,456.923077 C1020.92308,457.475362 1020.47536,457.923077 1019.92308,457.923077 L969.461538,457.923077 C968.909254,457.923077 968.461538,457.475362 968.461538,456.923077 L968.461538,425.076923 C968.461538,424.524638 968.909254,424.076923 969.461538,424.076923 Z" id="card" fill="#FFFFFF"></path>
            <path d="M984,444.384615 L1012.15385,444.384615 C1013.25842,444.384615 1014.15385,445.280046 1014.15385,446.384615 L1014.15385,449.153846 C1014.15385,450.258416 1013.25842,451.153846 1012.15385,451.153846 L984,451.153846 C982.895431,451.153846 982,450.258416 982,449.153846 L982,446.384615 C982,445.280046 982.895431,444.384615 984,444.384615 Z" id="info" fill="#D8D8D8"></path>
            <path d="M988.181154,436.354615 C988.274231,434.975385 989.044231,433.934615 990.431923,433.934615 C990.880385,433.934615 991.244231,434.061538 991.506538,434.205385 L991.743462,433.511538 C991.472692,433.333846 991.032692,433.198462 990.474231,433.198462 C988.748077,433.198462 987.394231,434.391538 987.394231,436.667692 C987.394231,438.419231 988.384231,439.417692 989.695769,439.417692 C990.897308,439.417692 991.861923,438.571538 991.861923,437.37 C991.861923,436.168462 991.041154,435.356154 989.898846,435.356154 C989.035769,435.356154 988.418077,435.787692 988.181154,436.354615 Z M988.341923,437.386923 C988.341923,436.608462 988.951154,436.058462 989.704231,436.058462 C990.457308,436.058462 991.049615,436.566154 991.049615,437.386923 C991.049615,438.182308 990.431923,438.706923 989.687308,438.706923 C988.968077,438.706923 988.341923,438.173846 988.341923,437.386923 Z M997.023462,433.308462 L996.253462,433.308462 L993.351154,439.307692 L994.121154,439.307692 L997.023462,433.308462 Z M1000.45885,439.307692 L1000.45885,433.308462 L999.731154,433.308462 C999.604231,433.900769 999.079615,434.323846 998.318077,434.340769 L998.318077,434.924615 L999.646538,434.924615 L999.646538,439.307692 L1000.45885,439.307692 Z M1002.415,436.17396 L1002.41346,436.312308 C1002.41346,437.708462 1002.88731,439.417692 1004.73192,439.417692 C1006.585,439.417692 1007.05038,437.716923 1007.05038,436.312308 C1007.05038,434.890769 1006.56808,433.198462 1004.73192,433.198462 C1002.955,433.198462 1002.44599,434.783349 1002.415,436.17396 L1002.415,436.17396 Z M1006.22962,436.312308 C1006.22962,437.513846 1005.90808,438.681538 1004.73192,438.681538 C1003.60101,438.681538 1003.26805,437.601941 1003.24411,436.450732 L1003.24269,436.312308 C1003.24269,435.102308 1003.54731,433.943077 1004.73192,433.943077 C1005.90808,433.943077 1006.22962,435.110769 1006.22962,436.312308 Z" id="6/10" fill="#35506B" fill-rule="nonzero"></path>
            <path d="M969.461538,424.076923 L975.230769,424.076923 L975.230769,424.076923 L975.230769,457.923077 L969.461538,457.923077 C968.909254,457.923077 968.461538,457.475362 968.461538,456.923077 L968.461538,425.076923 C968.461538,424.524638 968.909254,424.076923 969.461538,424.076923 Z" id="colour-bar" fill="#778592"></path>
            <path d="M912.769231,424.076923 L963.230769,424.076923 C963.783054,424.076923 964.230769,424.524638 964.230769,425.076923 L964.230769,456.923077 C964.230769,457.475362 963.783054,457.923077 963.230769,457.923077 L912.769231,457.923077 C912.216946,457.923077 911.769231,457.475362 911.769231,456.923077 L911.769231,425.076923 C911.769231,424.524638 912.216946,424.076923 912.769231,424.076923 Z" id="card" fill="#FFFFFF"></path>
            <path d="M927.307692,444.384615 L955.461538,444.384615 C956.566108,444.384615 957.461538,445.280046 957.461538,446.384615 L957.461538,449.153846 C957.461538,450.258416 956.566108,451.153846 955.461538,451.153846 L927.307692,451.153846 C926.203123,451.153846 925.307692,450.258416 925.307692,449.153846 L925.307692,446.384615 C925.307692,445.280046 926.203123,444.384615 927.307692,444.384615 Z" id="info" fill="#D8D8D8"></path>
            <path d="M930.566538,439.307692 L930.566538,433.308462 L929.838846,433.308462 C929.711923,433.900769 929.187308,434.323846 928.425769,434.340769 L928.425769,434.924615 L929.754231,434.924615 L929.754231,439.307692 L930.566538,439.307692 Z M932.522689,436.17396 L932.521154,436.312308 C932.521154,437.708462 932.995,439.417692 934.839615,439.417692 C936.692692,439.417692 937.158077,437.716923 937.158077,436.312308 C937.158077,434.890769 936.675769,433.198462 934.839615,433.198462 C933.062692,433.198462 932.553679,434.783349 932.522689,436.17396 L932.522689,436.17396 Z M936.337308,436.312308 C936.337308,437.513846 936.015769,438.681538 934.839615,438.681538 C933.708698,438.681538 933.375744,437.601941 933.351805,436.450732 L933.350385,436.312308 C933.350385,435.102308 933.655,433.943077 934.839615,433.943077 C936.015769,433.943077 936.337308,435.110769 936.337308,436.312308 Z M942.378846,433.308462 L941.608846,433.308462 L938.706538,439.307692 L939.476538,439.307692 L942.378846,433.308462 Z M945.814231,439.307692 L945.814231,433.308462 L945.086538,433.308462 C944.959615,433.900769 944.435,434.323846 943.673462,434.340769 L943.673462,434.924615 L945.001923,434.924615 L945.001923,439.307692 L945.814231,439.307692 Z M947.770381,436.17396 L947.768846,436.312308 C947.768846,437.708462 948.242692,439.417692 950.087308,439.417692 C951.940385,439.417692 952.405769,437.716923 952.405769,436.312308 C952.405769,434.890769 951.923462,433.198462 950.087308,433.198462 C948.310385,433.198462 947.801372,434.783349 947.770381,436.17396 L947.770381,436.17396 Z M951.585,436.312308 C951.585,437.513846 951.263462,438.681538 950.087308,438.681538 C948.956391,438.681538 948.623437,437.601941 948.599498,436.450732 L948.598077,436.312308 C948.598077,435.102308 948.902692,433.943077 950.087308,433.943077 C951.263462,433.943077 951.585,435.110769 951.585,436.312308 Z" id="10/10" fill="#35506B" fill-rule="nonzero"></path>
            <path d="M912.769231,424.076923 L918.538462,424.076923 L918.538462,424.076923 L918.538462,457.923077 L912.769231,457.923077 C912.216946,457.923077 911.769231,457.475362 911.769231,456.923077 L911.769231,425.076923 C911.769231,424.524638 912.216946,424.076923 912.769231,424.076923 Z" id="colour-bar" fill="#43A872"></path>
            <path d="M856.076923,424.076923 L906.538462,424.076923 C907.090746,424.076923 907.538462,424.524638 907.538462,425.076923 L907.538462,456.923077 C907.538462,457.475362 907.090746,457.923077 906.538462,457.923077 L856.076923,457.923077 C855.524638,457.923077 855.076923,457.475362 855.076923,456.923077 L855.076923,425.076923 C855.076923,424.524638 855.524638,424.076923 856.076923,424.076923 Z" id="card" fill="#FFFFFF"></path>
            <path d="M870.615385,444.384615 L898.769231,444.384615 C899.8738,444.384615 900.769231,445.280046 900.769231,446.384615 L900.769231,449.153846 C900.769231,450.258416 899.8738,451.153846 898.769231,451.153846 L870.615385,451.153846 C869.510815,451.153846 868.615385,450.258416 868.615385,449.153846 L868.615385,446.384615 C868.615385,445.280046 869.510815,444.384615 870.615385,444.384615 Z" id="info" fill="#D8D8D8"></path>
            <path d="M875.600385,436.354615 C875.693462,434.975385 876.463462,433.934615 877.851154,433.934615 C878.299615,433.934615 878.663462,434.061538 878.925769,434.205385 L879.162692,433.511538 C878.891923,433.333846 878.451923,433.198462 877.893462,433.198462 C876.167308,433.198462 874.813462,434.391538 874.813462,436.667692 C874.813462,438.419231 875.803462,439.417692 877.115,439.417692 C878.316538,439.417692 879.281154,438.571538 879.281154,437.37 C879.281154,436.168462 878.460385,435.356154 877.318077,435.356154 C876.455,435.356154 875.837308,435.787692 875.600385,436.354615 Z M875.761154,437.386923 C875.761154,436.608462 876.370385,436.058462 877.123462,436.058462 C877.876538,436.058462 878.468846,436.566154 878.468846,437.386923 C878.468846,438.182308 877.851154,438.706923 877.106538,438.706923 C876.387308,438.706923 875.761154,438.173846 875.761154,437.386923 Z M880.863462,437.640769 C880.948077,438.605385 881.777308,439.417692 882.978846,439.417692 C884.307308,439.417692 885.128077,438.503846 885.128077,437.395385 C885.128077,436.168462 884.332692,435.406923 883.139615,435.406923 C882.699615,435.406923 882.158077,435.567692 881.861923,435.906154 L882.251154,434.07 L884.848846,434.07 L884.848846,433.308462 L881.684231,433.308462 L881.032692,436.38 L881.785769,436.659231 C882.048077,436.320769 882.471154,436.092308 882.978846,436.092308 C883.740385,436.092308 884.307308,436.574615 884.307308,437.403846 C884.307308,438.156923 883.765769,438.69 882.978846,438.69 C882.200385,438.69 881.684231,438.14 881.616538,437.454615 L880.863462,437.640769 Z M893.039615,438.046923 C893.039615,437.302308 892.405,436.718462 891.677308,436.718462 C890.949615,436.718462 890.323462,437.302308 890.323462,438.046923 C890.323462,438.8 890.949615,439.383846 891.677308,439.383846 C892.405,439.383846 893.039615,438.8 893.039615,438.046923 Z M891.025769,438.046923 C891.025769,437.666154 891.313462,437.386923 891.677308,437.386923 C892.049615,437.386923 892.328846,437.666154 892.328846,438.046923 C892.328846,438.436154 892.049615,438.715385 891.677308,438.715385 C891.313462,438.715385 891.025769,438.436154 891.025769,438.046923 Z M888.005,435.897692 C888.732692,435.897692 889.367308,435.313846 889.367308,434.560769 C889.367308,433.816154 888.732692,433.232308 888.005,433.232308 C887.277308,433.232308 886.651154,433.816154 886.651154,434.560769 C886.651154,435.313846 887.277308,435.897692 888.005,435.897692 Z M887.353462,434.560769 C887.353462,434.18 887.641154,433.900769 888.005,433.900769 C888.377308,433.900769 888.656538,434.18 888.656538,434.560769 C888.656538,434.95 888.377308,435.229231 888.005,435.229231 C887.641154,435.229231 887.353462,434.95 887.353462,434.560769 Z M888.258846,439.307692 L887.480385,439.307692 L891.423462,433.308462 L892.193462,433.308462 L888.258846,439.307692 Z" id="65%" fill="#35506B" fill-rule="nonzero"></path>
            <path d="M856.076923,424.076923 L861.846154,424.076923 L861.846154,424.076923 L861.846154,457.923077 L856.076923,457.923077 C855.524638,457.923077 855.076923,457.475362 855.076923,456.923077 L855.076923,425.076923 C855.076923,424.524638 855.524638,424.076923 856.076923,424.076923 Z" id="colour-bar" fill="#F1CC35"></path>
            <path d="M838.5,467.5 C838.5,466.395431 839.401627,465.5 840.500864,465.5 L859.499136,465.5 C860.604183,465.5 861.5,466.38773 861.5,467.5 L861.5,467.5 C861.5,468.604569 860.598373,469.5 859.499136,469.5 L840.500864,469.5 C839.395817,469.5 838.5,468.61227 838.5,467.5 L838.5,467.5 Z" id="drop-right" fill="#2D455C" transform="translate(850.000000, 467.500000) rotate(90.000000) translate(-850.000000, -467.500000) "></path>
            <path d="M829.5,461.5 C829.5,460.395431 830.399713,459.5 831.493287,459.5 L856.506713,459.5 C857.607575,459.5 858.5,460.38773 858.5,461.5 L858.5,461.5 C858.5,462.604569 857.600287,463.5 856.506713,463.5 L831.493287,463.5 C830.392425,463.5 829.5,462.61227 829.5,461.5 L829.5,461.5 Z" id="drop-left" fill="#2D455C" transform="translate(844.000000, 461.500000) rotate(90.000000) translate(-844.000000, -461.500000) "></path>
            <circle id="drop-circle" fill="#2D455C" cx="850" cy="483" r="2"></circle>
            <path d="M1037.34656,465.242971 C1037.62248,464.508625 1038.06993,464.508881 1038.34575,465.242971 L1040.83209,471.860219 L1047.44934,474.346557 C1048.18368,474.622477 1048.18343,475.069927 1047.44934,475.345751 L1040.83209,477.832089 L1038.34575,484.449337 C1038.06983,485.183682 1037.62238,485.183426 1037.34656,484.449337 L1034.86022,477.832089 L1028.24297,475.345751 C1027.50863,475.069831 1027.50888,474.62238 1028.24297,474.346557 L1034.86022,471.860219 L1037.34656,465.242971 Z" id="star" fill="#4B96CC"></path>
            <path d="M1020.75654,468.260477 C1020.84852,468.015696 1020.99767,468.015781 1021.08961,468.260477 L1021.91839,470.466227 L1024.12414,471.295006 C1024.36892,471.386979 1024.36883,471.53613 1024.12414,471.628071 L1021.91839,472.45685 L1021.08961,474.6626 C1020.99764,474.907381 1020.84849,474.907296 1020.75654,474.6626 L1019.92777,472.45685 L1017.72202,471.628071 C1017.47723,471.536098 1017.47732,471.386947 1017.72202,471.295006 L1019.92777,470.466227 L1020.75654,468.260477 Z" id="star" fill="#81B6DC"></path>
            <path d="M843.299965,273.851591 C843.495408,273.33143 843.812352,273.331612 844.007728,273.851591 L845.768884,278.538809 L850.456101,280.299965 C850.976262,280.495408 850.976081,280.812352 850.456101,281.007728 L845.768884,282.768884 L844.007728,287.456101 C843.812284,287.976262 843.49534,287.976081 843.299965,287.456101 L841.538809,282.768884 L836.851591,281.007728 C836.33143,280.812284 836.331612,280.49534 836.851591,280.299965 L841.538809,278.538809 L843.299965,273.851591 Z" id="star" fill="#81B6DC"></path>
        </g>
    </g>
</svg>