<svg width="20px" height="20px" viewBox="0 0 20 20" version="1.1" xmlns="http://www.w3.org/2000/svg">
            <path id="cloud" stroke-width="1" stroke="#000000" fill="none" d="M0.454545455,13.78125 C0.454545455,15.8632396 2.08578424,17.5454545 4.09090909,17.5454545 L15,17.5454545 C17.5072019,17.5454545 19.5454545,15.4435065 19.5454545,12.84375 C19.5454545,10.5115339 17.8941105,8.54448988 15.6933502,8.19633549 L15.3866606,8.14781801 L15.3203239,7.84448335 C14.7623811,5.29320317 12.559511,3.45454545 10,3.45454545 C6.99072106,3.45454545 4.54545455,5.97622654 4.54545455,9.09375 C4.54545455,9.23964154 4.55080465,9.38482195 4.56144795,9.52909477 L4.59744831,10.0170899 L4.10812704,10.0170821 C2.08814501,10.0170496 0.454545455,11.6968035 0.454545455,13.78125 Z" ></path>
            <path id="arrows" d="M12.4736864,13.8998362 L12.4736864,8.45454545 C12.4736864,8.20350693 12.6771933,8 12.9282318,8 C13.1792703,8 13.3827773,8.20350693 13.3827773,8.45454545 L13.3827773,13.8998362 L14.5382568,12.7082479 C14.7141308,12.5268778 15.0027969,12.5305058 15.1754512,12.7085556 L15.1790716,12.712289 C15.3539178,12.8925992 15.3560554,13.1907183 15.1790716,13.3732329 L13.2486894,15.3639394 C13.0738432,15.5442496 12.784758,15.5464541 12.6077742,15.3639394 L10.677392,13.3732329 C10.5025458,13.1929227 10.5004082,12.8948036 10.677392,12.712289 L10.6810124,12.7085556 C10.8570512,12.5270156 11.1447077,12.5293269 11.3182069,12.7082479 L12.4736864,13.8998362 Z M8.83732272,9.60016384 L8.83732272,15.0454545 C8.83732272,15.2964931 8.63381579,15.5 8.38277727,15.5 C8.13173874,15.5 7.92823181,15.2964931 7.92823181,15.0454545 L7.92823181,9.60016384 L6.77275233,10.7917521 C6.59925314,10.9706731 6.31159661,10.9729844 6.13555783,10.7914444 L6.1319375,10.787711 C5.95495365,10.6051964 5.95709126,10.3070773 6.1319375,10.1267671 L8.06231964,8.13606055 C8.2393035,7.95354595 8.52838865,7.95575037 8.70323489,8.13606055 L10.633617,10.1267671 C10.8106009,10.3092817 10.8084633,10.6074008 10.633617,10.787711 L10.6299967,10.7914444 C10.4573424,10.9694942 10.1686762,10.9731222 9.99280221,10.7917521 L8.83732272,9.60016384 Z" ></path>
</svg>