<svg width="20px" height="20px" viewBox="0 0 20 20" version="1.1" xmlns="http://www.w3.org/2000/svg">
     <path id="error" d="M10.4643302,7.02195376 L13.9491787,13.5560447 C14.1854502,13.9990538 14.0178563,14.5497196 13.5748471,14.7859912 C13.4431833,14.8562119 13.2962586,14.8929431 13.1470396,14.8929431 L6.17734266,14.8929431 C5.67526561,14.8929431 5.26825175,14.4859292 5.26825175,13.9838522 C5.26825175,13.8346332 5.30498294,13.6877084 5.37520362,13.5560447 L8.86005211,7.02195376 C9.09632366,6.5789446 9.64698947,6.41135066 10.0899986,6.64762221 C10.2491477,6.73250171 10.3794507,6.86280471 10.4643302,7.02195376 Z M9.66219114,8.33044307 C9.41115262,8.33044307 9.20764569,8.53395 9.20764569,8.78498852 L9.20764569,11.6258976 C9.20764569,11.8769361 9.41115262,12.0804431 9.66219114,12.0804431 C9.91322967,12.0804431 10.1167366,11.8769361 10.1167366,11.6258976 L10.1167366,8.78498852 C10.1167366,8.53395 9.91322967,8.33044307 9.66219114,8.33044307 Z M9.66219114,13.0179431 C9.41115262,13.0179431 9.20764569,13.22145 9.20764569,13.4724885 L9.20764569,13.5008976 C9.20764569,13.7519361 9.41115262,13.9554431 9.66219114,13.9554431 C9.91322967,13.9554431 10.1167366,13.7519361 10.1167366,13.5008976 L10.1167366,13.4724885 C10.1167366,13.22145 9.91322967,13.0179431 9.66219114,13.0179431 Z" ></path>

    <path id="cloud" d="M4.10813435,9.56253661 C4.10239538,9.56251221 4.09665362,9.5625 4.09090909,9.5625 C1.83156239,9.5625 0,11.4512987 0,13.78125 C0,16.1112013 1.83156239,18 4.09090909,18 L15,18 C17.7614237,18 20,15.6914682 20,12.84375 C20,10.2640535 18.162975,8.1268254 15.7643748,7.74737327 C15.170049,5.02972643 12.8148757,3 10,3 C6.73649921,3 4.09090909,5.72826481 4.09090909,9.09375 C4.09090909,9.25148369 4.09672043,9.40781765 4.10813435,9.56253661 L4.10813435,9.56253661 Z" ></path>

    <path id="triangle" fill="#FFFFFF" d="M10.0632607,7.2358575 C10.0208209,7.15628298 9.95566941,7.09113148 9.87609489,7.04869173 C9.65459031,6.93055595 9.3792574,7.01435293 9.26112162,7.2358575 L5.77627314,13.7699484 C5.7411628,13.8357803 5.7227972,13.9092427 5.7227972,13.9838522 C5.7227972,14.2348907 5.92630414,14.4383976 6.17734266,14.4383976 L13.1470396,14.4383976 C13.2216491,14.4383976 13.2951115,14.420032 13.3609434,14.3849217 C13.582448,14.2667859 13.6662449,13.991453 13.5481091,13.7699484 L10.0632607,7.2358575 Z M9.66219114,7.87589761 C10.1642682,7.87589761 10.5712821,8.28291148 10.5712821,8.78498852 L10.5712821,11.6258976 C10.5712821,12.1279747 10.1642682,12.5349885 9.66219114,12.5349885 C9.1601141,12.5349885 8.75310023,12.1279747 8.75310023,11.6258976 L8.75310023,8.78498852 C8.75310023,8.28291148 9.1601141,7.87589761 9.66219114,7.87589761 Z M9.66219114,12.5633976 C10.1642682,12.5633976 10.5712821,12.9704115 10.5712821,13.4724885 L10.5712821,13.5008976 C10.5712821,14.0029747 10.1642682,14.4099885 9.66219114,14.4099885 C9.1601141,14.4099885 8.75310023,14.0029747 8.75310023,13.5008976 L8.75310023,13.4724885 C8.75310023,12.9704115 9.1601141,12.5633976 9.66219114,12.5633976 Z"></path>
           
</svg>