<svg width="20px" height="20px" viewBox="0 0 20 20" version="1.1" xmlns="http://www.w3.org/2000/svg">
            <path id="cloud" stroke-width="1" stroke="#000000" fill="none" d="M4.56144795,9.52909477 L4.59760154,10.0191669 L4.10620205,10.017078 C4.09855834,10.0170509 4.09855834,10.0170509 4.09090909,10.0170455 C2.08578424,10.0170455 0.454545455,11.6992604 0.454545455,13.78125 C0.454545455,15.8632396 2.08578424,17.5454545 4.09090909,17.5454545 L15,17.5454545 C17.5072019,17.5454545 19.5454545,15.4435065 19.5454545,12.84375 C19.5454545,10.5115339 17.8941105,8.54448988 15.6933502,8.19633549 L15.3866606,8.14781801 L15.3203239,7.84448335 C14.7623811,5.29320317 12.559511,3.45454545 10,3.45454545 C6.99072106,3.45454545 4.54545455,5.97622654 4.54545455,9.09375 C4.54545455,9.23964154 4.55080465,9.38482195 4.56144795,9.52909477 Z"></path>
            <path id="error" d="M11.1960784,7.48146287 L14.6809269,14.0155538 C14.9171985,14.4585629 14.7496045,15.0092287 14.3065954,15.2455003 C14.1749316,15.315721 14.0280068,15.3524522 13.8787879,15.3524522 L6.90909091,15.3524522 C6.40701386,15.3524522 6,14.9454383 6,14.4433613 C6,14.2941423 6.03673119,14.1472175 6.10695187,14.0155538 L9.59180036,7.48146287 C9.82807191,7.03845371 10.3787377,6.87085976 10.8217469,7.10713132 C10.9808959,7.19201081 11.1111989,7.32231381 11.1960784,7.48146287 Z M10.3939394,8.78995217 C10.1429009,8.78995217 9.93939394,8.9934591 9.93939394,9.24449763 L9.93939394,12.0854067 C9.93939394,12.3364452 10.1429009,12.5399522 10.3939394,12.5399522 C10.6449779,12.5399522 10.8484848,12.3364452 10.8484848,12.0854067 L10.8484848,9.24449763 C10.8484848,8.9934591 10.6449779,8.78995217 10.3939394,8.78995217 Z M10.3939394,13.4774522 C10.1429009,13.4774522 9.93939394,13.6809591 9.93939394,13.9319976 L9.93939394,13.9604067 C9.93939394,14.2114452 10.1429009,14.4149522 10.3939394,14.4149522 C10.6449779,14.4149522 10.8484848,14.2114452 10.8484848,13.9604067 L10.8484848,13.9319976 C10.8484848,13.6809591 10.6449779,13.4774522 10.3939394,13.4774522 Z" ></path>
</svg>