<svg width="20px" height="20px" viewBox="0 0 20 20" version="1.1" xmlns="http://www.w3.org/2000/svg" >
            <path id="sync-cloud" fill="#000000" d="M12.3827773,14.0560862 L11.2272978,12.8644979 C11.0537986,12.6855769 10.7661421,12.6832656 10.5901033,12.8648056 L10.586483,12.868539 C10.4094991,13.0510536 10.4116367,13.3491727 10.586483,13.5294829 L12.5168651,15.5201894 C12.693849,15.7027041 12.9829341,15.7004996 13.1577803,15.5201894 L15.0881625,13.5294829 C15.2651463,13.3469683 15.2630087,13.0488492 15.0881625,12.868539 L15.0845422,12.8648056 C14.9118879,12.6867558 14.6232217,12.6831278 14.4473477,12.8644979 L13.2918682,14.0560862 L13.2918682,8.61079545 C13.2918682,8.35975693 13.0883612,8.15625 12.8373227,8.15625 C12.5862842,8.15625 12.3827773,8.35975693 12.3827773,8.61079545 L12.3827773,14.0560862 Z M8.74641363,9.75641384 L9.90189311,10.9480021 C10.0777671,11.1293722 10.3664333,11.1257442 10.5390876,10.9476944 L10.5427079,10.943961 C10.7175542,10.7636508 10.7196918,10.4655317 10.5427079,10.2830171 L8.6123258,8.29231055 C8.43747956,8.11200037 8.14839441,8.10979595 7.97141055,8.29231055 L6.04102841,10.2830171 C5.86618217,10.4633273 5.86404455,10.7614464 6.04102841,10.943961 L6.04464874,10.9476944 C6.22068751,11.1292344 6.50834405,11.1269231 6.68184324,10.9480021 L7.83732272,9.75641384 L7.83732272,15.2017045 C7.83732272,15.4527431 8.04082965,15.65625 8.29186818,15.65625 C8.5429067,15.65625 8.74641363,15.4527431 8.74641363,15.2017045 L8.74641363,9.75641384 Z M0,13.78125 C0,11.4512987 1.83156239,9.5625 4.10813435,9.56253661 C4.09672043,9.40781765 4.09090909,9.25148369 4.09090909,9.09375 C4.09090909,5.72826481 6.73649921,3 10,3 C12.8148757,3 15.170049,5.02972643 15.7643748,7.74737327 C18.162975,8.1268254 20,10.2640535 20,12.84375 C20,15.6914682 17.7614237,18 15,18 L4.09090909,18 C1.83156239,18 0,16.1112013 0,13.78125 Z"></path>
</svg>