<svg width="20px" height="20px" viewBox="0 0 20 20" version="1.1" xmlns="http://www.w3.org/2000/svg">
    <path d="M14.3181818,5.70967742 C17.4561634,5.70967742 20,8.23710222 20,11.3548387 C20,12.3612154 19.7349477,13.3060851 19.2704169,14.1242974 L19.8878237,15.9980427 C20.026178,16.4179292 19.7955868,16.6479652 19.3722667,16.5102735 L17.6288581,15.9432017 C16.6966582,16.6083452 15.5534549,17 14.3181818,17 C12.8297738,17 11.4750363,16.4313808 10.4620255,15.5008565 C9.40800027,16.1642891 8.15823777,16.5483871 6.81818182,16.5483871 C5.53161629,16.5483871 4.32827967,16.1943408 3.30148621,15.5789605 L0.689639809,16.4603158 C0.181190736,16.6318896 -0.0919492515,16.3642416 0.0816903778,15.8562886 L0.96976669,13.2583737 C0.354061817,12.2403574 0,11.0483565 0,9.77419355 C0,6.03290976 3.05260398,3 6.81818182,3 C9.18146395,3 11.2639174,4.19461338 12.4871811,6.00921045 C13.0616922,5.81501587 13.6775556,5.70967742 14.3181818,5.70967742 Z M2.34008233,13.0819115 L2.34008233,13.0819115 L2.23062956,13.4011603 L1.7509946,14.8001465 L3.47874241,14.2158059 C4.40984956,14.9079728 5.5658333,15.3178976 6.81818182,15.3178976 C9.89976621,15.3178976 12.3978839,12.8358968 12.3978839,9.77419355 C12.3978839,6.71249035 9.89976621,4.2304895 6.81818182,4.2304895 C3.73659743,4.2304895 1.23847969,6.71249035 1.23847969,9.77419355 C1.23847969,11.0139038 1.64804874,12.1585713 2.34008233,13.0819115 Z" id="path-1"></path>

    <path stroke="#000000" stroke-width="1.0220163" d="M0.587871382,15.955339 L3.36173239,15.0193126 L3.56417933,15.1406436 C4.53819794,15.7243948 5.65442418,16.0373789 6.81818182,16.0373789 C8.02966283,16.0373789 9.18933439,15.6981161 10.1898162,15.0683852 L10.5202095,14.8604266 L10.807716,15.1245223 C11.7570087,15.9965169 12.9980768,16.4889918 14.3181818,16.4889918 C15.4156607,16.4889918 16.4602382,16.1492832 17.3320516,15.5272267 L17.5418412,15.3775375 L19.3378168,15.9617076 L18.7141723,14.0690318 L18.826033,13.8720034 C19.2585799,13.1101267 19.4889918,12.2496852 19.4889918,11.3548387 C19.4889918,8.52006728 17.1746791,6.22068557 14.3181818,6.22068557 C13.743753,6.22068557 13.1827247,6.31351637 12.6508153,6.49331083 L12.2814199,6.61817279 L12.0634606,6.29485063 C10.8996631,4.56846605 8.94981097,3.51100815 6.81818182,3.51100815 C3.33408824,3.51100815 0.51100815,6.31587482 0.51100815,9.77419355 C0.51100815,10.9250984 0.823603413,12.0292837 1.40702225,12.9939178 L1.53044819,13.1979922 L0.587871382,15.955339 Z M1.77142201,13.1649046 C1.09591818,12.1733521 0.727471543,11.0009285 0.727471543,9.77419355 C0.727471543,6.42952529 3.45511317,3.71948135 6.81818182,3.71948135 C10.1812505,3.71948135 12.9088921,6.42952529 12.9088921,9.77419355 C12.9088921,13.1188618 10.1812505,15.8289057 6.81818182,15.8289057 C5.57944267,15.8289057 4.39566787,15.4598217 3.39574655,14.7833189 L0.930730551,15.6170106 L1.77142201,13.1649046 Z"></path>
</svg>