<svg width="20px" height="20px" viewBox="0 0 20 20">
            <path d="M17.0833333,15.4166667 L19.1666667,15.4166667 C19.626904,15.4166667 20,15.7897627 20,16.25 C20,16.7102373 19.626904,17.0833333 19.1666667,17.0833333 L17.0833333,17.0833333 L17.0833333,19.1666667 C17.0833333,19.626904 16.7102373,20 16.25,20 C15.7897627,20 15.4166667,19.626904 15.4166667,19.1666667 L15.4166667,17.0833333 L13.3333333,17.0833333 C12.873096,17.0833333 12.5,16.7102373 12.5,16.25 C12.5,15.7897627 12.873096,15.4166667 13.3333333,15.4166667 L13.3333333,15.4166667 L15.4166667,15.4166667 L15.4166667,13.3333333 C15.4166667,12.873096 15.7897627,12.5 16.25,12.5 C16.7102373,12.5 17.0833333,12.873096 17.0833333,13.3333333 L17.0833333,15.4166667 Z M16.6666667,1.66451825 L16.6666667,3.33333333 C16.6666667,3.79357062 16.2935706,4.16666667 15.8333333,4.16666667 C15.373096,4.16666667 15,3.79357062 15,3.33333333 L15,2.49875194 C15,2.03957452 14.6274627,1.66666667 14.1679147,1.66666667 L2.49875194,1.66666667 C2.03957452,1.66666667 1.66666667,2.03920393 1.66666667,2.49875194 L1.66666667,14.1679147 C1.66666667,14.6270921 2.03920393,15 2.49875194,15 L3.33333333,15 C3.79357062,15 4.16666667,15.373096 4.16666667,15.8333333 L4.16666667,15.8333333 C4.16666667,16.2935706 3.79357062,16.6666667 3.33333333,16.6666667 L1.66451825,16.6666667 C0.745230207,16.6666667 0,15.9242288 0,15.0021484 L3.55271368e-15,1.66451825 C3.55271368e-15,0.745230207 0.742437827,-1.14887654e-15 1.66451825,-9.79493116e-16 L15.0021484,1.4705898e-15 C15.9214365,1.63946027e-15 16.6666667,0.742437827 16.6666667,1.66451825 Z M20,6.66451825 L20,11.25 C20,11.7102373 19.626904,12.0833333 19.1666667,12.0833333 L19.1666667,12.0833333 C18.7064294,12.0833333 18.3333333,11.7102373 18.3333333,11.25 L18.3333333,7.49875194 C18.3333333,7.03957452 17.9607961,6.66666667 17.5012481,6.66666667 L7.49875194,6.66666667 C7.03957452,6.66666667 6.66666667,7.03920393 6.66666667,7.49875194 L6.66666667,17.5012481 C6.66666667,17.9604255 7.03920393,18.3333333 7.49875194,18.3333333 L11.25,18.3333333 C11.7102373,18.3333333 12.0833333,18.7064294 12.0833333,19.1666667 L12.0833333,19.1666667 C12.0833333,19.626904 11.7102373,20 11.25,20 L6.66451825,20 C5.74523021,20 5,19.2575622 5,18.3354817 L5,6.66451825 C5,5.74523021 5.74243783,5 6.66451825,5 L18.3354817,5 C19.2547698,5 20,5.74243783 20,6.66451825 Z" id="copy-instructions" />
</svg>