<svg width="20px" height="20px" viewBox="0 0 20 20">
            <path d="M10.8165923,1.7038901 C15.4044877,2.12415277 19,6.0510789 19,10.8333333 C19,15.8959435 14.9705627,20 10,20 C5.02943725,20 1,15.8959435 1,10.8333333 C1,6.05107589 4.59551679,2.12414782 9.18341639,1.7038893 C9.18235838,1.69165985 9.18181818,1.67927177 9.18181818,1.66674688 L9.18181818,0.416586455 C9.18181818,0.186512109 9.36318994,0 9.59474182,0 L10.4052582,0 C10.6333096,0 10.8181818,0.184881936 10.8181818,0.416586455 L10.8181818,1.66674688 C10.8181818,1.67926458 10.8176449,1.69165332 10.8165923,1.7038901 L10.8165923,1.7038901 Z M10,18.3333333 C14.0668241,18.3333333 17.3636364,14.975469 17.3636364,10.8333333 C17.3636364,6.69119771 14.0668241,3.33333333 10,3.33333333 C5.93317593,3.33333333 2.63636364,6.69119771 2.63636364,10.8333333 C2.63636364,14.975469 5.93317593,18.3333333 10,18.3333333 Z M13.9933862,6.80964406 L10.8435091,11.3809143 L10.8435091,11.3809143 C10.5232592,11.8456781 9.88687982,11.9628297 9.42211603,11.6425798 C9.3710132,11.6073669 9.3232241,11.5675723 9.27934103,11.5236893 C8.88023867,11.1245869 8.88023867,10.4775141 9.27934103,10.0784118 C9.3232241,10.0345287 9.3710132,9.99473412 9.42211603,9.95952123 L13.9933862,6.80964406 Z" id="counter" />
</svg>