<svg width="20px" height="20px" viewBox="0 0 20 20">
            <path d="M0.303352622,18.2647814 C-0.0988222637,18.6597614 -0.0996439087,19.3040663 0.304483336,19.7009638 C0.711428082,20.1006284 1.36332407,20.0983585 1.76682684,19.7020743 L10.1829343,11.4365295 L18.2331732,19.3427511 C18.6353481,19.7377311 19.2913894,19.7385381 19.6955167,19.3416406 C20.1024614,18.941976 20.1001501,18.3017423 19.6966474,17.9054581 L11.6464085,9.99923657 L19.6966474,2.093015 C20.0988223,1.69803495 20.0996439,1.05373004 19.6955167,0.656832559 C19.2885719,0.257167981 18.6366759,0.259437896 18.2331732,0.655722074 L10.1829343,8.56194365 L1.76682684,0.296398843 C1.36465195,-0.0985812076 0.708610581,-0.0993881536 0.304483336,0.297509328 C-0.10246141,0.697173906 -0.100150147,1.33740759 0.303352622,1.73369177 L8.71946006,9.99923657 L0.303352622,18.2647814 Z" id="cross" />
</svg>