<svg width="20px" height="20px" viewBox="0 0 20 20" version="1.1" xmlns="http://www.w3.org/2000/svg">
        <path d="M1,1 L19,1 C19.5522847,1 20,1.44771525 20,2 L20,5 C20,5.55228475 19.5522847,6 19,6 L1,6 C0.44771525,6 6.76353751e-17,5.55228475 0,5 L0,2 L0,2 C-6.76353751e-17,1.44771525 0.44771525,1 1,1 L1,1 Z M1,8 L19,8 C19.5522847,8 20,8.44771525 20,9 L20,12 C20,12.5522847 19.5522847,13 19,13 L1,13 C0.44771525,13 6.76353751e-17,12.5522847 0,12 L0,9 C-6.76353751e-17,8.44771525 0.44771525,8 1,8 L1,8 Z M1,15 L8,15 C8.55228475,15 9,15.4477153 9,16 L9,19 C9,19.5522847 8.55228475,20 8,20 L1,20 C0.44771525,20 6.76353751e-17,19.5522847 0,19 L0,16 C-6.76353751e-17,15.4477153 0.44771525,15 1,15 L1,15 Z M12,15 L19,15 C19.5522847,15 20,15.4477153 20,16 L20,19 C20,19.5522847 19.5522847,20 19,20 L12,20 C11.4477153,20 11,19.5522847 11,19 L11,16 C11,15.4477153 11.4477153,15 12,15 Z" id="dashboard"></path>
</svg>