<svg width="66" height="48" viewBox="0 0 66 48">
        <path d="M0 6.006A6.006 6.006 0 0 1 6.003 0h53.994A6.001 6.001 0 0 1 66 6.006v35.988A6.006 6.006 0 0 1 59.997 48H6.003A6.001 6.001 0 0 1 0 41.994V6.006zm3-.02A2.989 2.989 0 0 1 5.996 3h54.008A3 3 0 0 1 63 5.987v36.026A2.989 2.989 0 0 1 60.004 45H5.996A3 3 0 0 1 3 42.013V5.987z"/>
        <path fill="#D75049" d="M15 30.879l-3.187-3.187a1.506 1.506 0 0 0-2.116.005 1.493 1.493 0 0 0-.005 2.116L12.879 33l-3.187 3.187c-.573.572-.581 1.53.005 2.116.59.59 1.533.588 2.116.005L15 35.121l3.187 3.187c.572.573 1.53.581 2.116-.005.59-.59.588-1.533.005-2.116L17.121 33l3.187-3.187c.573-.572.581-1.53-.005-2.116a1.493 1.493 0 0 0-2.116-.005L15 30.879z"/>
        <path fill="#43A874" d="M12.889 20.746c.38-.002.759-.148 1.049-.438l8.495-8.495c.572-.572.58-1.53-.005-2.116a1.493 1.493 0 0 0-2.116-.005l-7.43 7.43L9.69 13.93a1.5 1.5 0 0 0-2.111.01 1.49 1.49 0 0 0-.01 2.11l4.262 4.263c.286.286.666.43 1.048.43l.01.003z"/>
        <path fill="#556877" d="M30 14.5c0-.828.667-1.5 1.49-1.5h24.02c.823 0 1.49.666 1.49 1.5 0 .828-.667 1.5-1.49 1.5H31.49c-.823 0-1.49-.666-1.49-1.5zM30 33.5c0-.828.667-1.5 1.49-1.5h24.02c.823 0 1.49.666 1.49 1.5 0 .828-.667 1.5-1.49 1.5H31.49c-.823 0-1.49-.666-1.49-1.5z"/>
</svg>
