<svg width="20px" height="20px" viewBox="0 0 20 20" version="1.1" xmlns="http://www.w3.org/2000/svg">
   <path d="M2,16 L17,16 L17,18 C17,19.1045695 16.1066027,20 15.0003626,20 L3.9996374,20 C2.89526816,20 2,19.1023219 2,18 L2,16 Z" id="Rectangle" fill="#000000" />
            <path d="M3.5,18.5 C3.5,18.2238576 3.72763144,18 3.99772852,18 L16,18 L15.1666667,19 L4.00130208,19 C3.72444059,19 3.5,18.7780676 3.5,18.5 Z" id="Rectangle" />

            <path d="M2,3.00266133 C2,1.34433727 3.34348897,0 5.00008783,0 L15.9978711,0 C17.1036164,0 18,0.892622799 18,1.99508929 L18,16.0049107 C18,17.1067681 17.1054862,18 15.9978711,18 L2,18 L2,3.00266133 Z" id="Rectangle" />
            <path d="M5,2.00087166 C5,1.4481055 5.44851311,1 6.00247329,1 L15.9975267,1 C16.5511774,1 17,1.44463086 17,2.00087166 L17,15.9991283 C17,16.5518945 16.5514869,17 15.9975267,17 L6.00247329,17 C5.44882258,17 5,16.5553691 5,15.9991283 L5,2.00087166 Z" id="Rectangle" />

            <text id="Aa" font-family="HelveticaNeue-Bold, Helvetica Neue" font-size="5.5" font-weight="bold" fill="#000000">
                <tspan x="7.5" y="11">Aa</tspan>
            </text>
</svg>