<svg width="20px" height="20px" viewBox="0 0 20 20" version="1.1" xmlns="http://www.w3.org/2000/svg">
    <path d="M4.78571429,0 L15.2142857,0 L15.2142857,-2.22044605e-16 C16.2005085,-4.03210788e-16 17,0.799491518 17,1.78571429 L17,18.2142857 L17,18.2142857 C17,19.2005085 16.2005085,20 15.2142857,20 L4.78571429,20 C3.79949152,20 3,19.2005085 3,18.2142857 L3,1.78571429 L3,1.78571429 C3,0.799491518 3.79949152,8.47299998e-16 4.78571429,6.66133815e-16 L4.78571429,0 Z M4.76785714,0.909090909 L4.76785714,0.909090909 C4.27474576,0.909090909 3.875,1.30883667 3.875,1.80194805 L3.875,18.1980519 C3.875,18.6911633 4.27474576,19.0909091 4.76785714,19.0909091 L4.76785714,19.0909091 L15.2321429,19.0909091 C15.7252542,19.0909091 16.125,18.6911633 16.125,18.1980519 L16.125,1.80194805 C16.125,1.30883667 15.7252542,0.909090909 15.2321429,0.909090909 L4.76785714,0.909090909 Z M9.57142857,8.63636364 L13.9285714,8.63636364 C14.1751271,8.63636364 14.375,8.83623652 14.375,9.08279221 L14.375,9.09902597 C14.375,9.34558167 14.1751271,9.54545455 13.9285714,9.54545455 L9.57142857,9.54545455 C9.32487288,9.54545455 9.125,9.34558167 9.125,9.09902597 L9.125,9.08279221 C9.125,8.83623652 9.32487288,8.63636364 9.57142857,8.63636364 Z M6.07142857,11.3636364 L7.80357143,11.3636364 C8.05012712,11.3636364 8.25,11.5635092 8.25,11.8100649 L8.25,11.8262987 C8.25,12.0728544 8.05012712,12.2727273 7.80357143,12.2727273 L6.07142857,12.2727273 C5.82487288,12.2727273 5.625,12.0728544 5.625,11.8262987 L5.625,11.8100649 C5.625,11.5635092 5.82487288,11.3636364 6.07142857,11.3636364 Z M9.57142857,11.3636364 L13.9285714,11.3636364 C14.1751271,11.3636364 14.375,11.5635092 14.375,11.8100649 L14.375,11.8262987 C14.375,12.0728544 14.1751271,12.2727273 13.9285714,12.2727273 L9.57142857,12.2727273 C9.32487288,12.2727273 9.125,12.0728544 9.125,11.8262987 L9.125,11.8100649 C9.125,11.5635092 9.32487288,11.3636364 9.57142857,11.3636364 Z M6.07142857,14.0909091 L11.3035714,14.0909091 C11.5501271,14.0909091 11.75,14.290782 11.75,14.5373377 L11.75,14.5535714 C11.75,14.8001271 11.5501271,15 11.3035714,15 L6.07142857,15 C5.82487288,15 5.625,14.8001271 5.625,14.5535714 L5.625,14.5373377 C5.625,14.290782 5.82487288,14.0909091 6.07142857,14.0909091 L6.07142857,14.0909091 Z M13.0714286,14.0909091 L13.9285714,14.0909091 C14.1751271,14.0909091 14.375,14.290782 14.375,14.5373377 L14.375,14.5535714 C14.375,14.8001271 14.1751271,15 13.9285714,15 L13.0714286,15 C12.8248729,15 12.625,14.8001271 12.625,14.5535714 L12.625,14.5373377 C12.625,14.290782 12.8248729,14.0909091 13.0714286,14.0909091 Z M9.57142857,5 L13.9285714,5 C14.1751271,5 14.375,5.19987288 14.375,5.44642857 L14.375,6.37175325 C14.375,6.61830894 14.1751271,6.81818182 13.9285714,6.81818182 L9.57142857,6.81818182 C9.32487288,6.81818182 9.125,6.61830894 9.125,6.37175325 L9.125,5.44642857 C9.125,5.19987288 9.32487288,5 9.57142857,5 Z M6.07142857,5 L7.80357143,5 C8.05012712,5 8.25,5.19987288 8.25,5.44642857 L8.25,9.09902597 C8.25,9.34558167 8.05012712,9.54545455 7.80357143,9.54545455 L6.07142857,9.54545455 C5.82487288,9.54545455 5.625,9.34558167 5.625,9.09902597 L5.625,5.44642857 C5.625,5.19987288 5.82487288,5 6.07142857,5 Z" id="Document-thumbnail"></path>
</svg>