<svg width="20px" height="20px" viewBox="0 0 20 20">
            <path d="M9.36620922,5.61738252 L0.269483325,14.4735354 L0.269483325,14.4735354 C-0.0793226167,14.8131168 -0.0868006002,15.371165 0.252780782,15.7199709 C0.258273444,15.7256128 0.263841458,15.7311808 0.269483325,15.7366735 L0.284055205,15.75086 L0.284055205,15.75086 C0.637004046,16.0944747 1.19941318,16.0944747 1.55236202,15.75086 L10.0003626,7.52627611 L18.4483632,15.75086 L18.4483632,15.75086 C18.8013121,16.0944747 19.3637212,16.0944747 19.7166701,15.75086 L19.7312419,15.7366735 L19.7312419,15.7366735 C20.0800479,15.3970921 20.0875259,14.8390439 19.7479445,14.4902379 C19.7424518,14.4845961 19.7368838,14.4790281 19.7312419,14.4735354 L10.6490879,5.63156903 L10.634516,5.61738252 L10.634516,5.61738252 C10.2815672,5.2737678 9.71915806,5.2737678 9.36620922,5.61738252 Z" id="down-chevron" transform="translate(10.000000, 10.500000) scale(1, -1) translate(-10.000000, -10.500000) " />
</svg>