<svg width="20px" height="20px" viewBox="0 0 20 20" version="1.1" xmlns="http://www.w3.org/2000/svg">
        <path d="M10.4545455,9.21252927 C10.7262734,9.36971537 10.9090909,9.66350802 10.9090909,10 L10.9090909,10 C10.9090909,10.0644987 10.902374,10.1274285 10.8896015,10.1881282 L13.9816186,12.924897 C14.1680063,13.0898702 14.1853661,13.3747045 14.0203929,13.5610922 C14.0195453,13.5620498 14.0186937,13.5630037 14.0178381,13.563954 L14.0152601,13.5668172 C13.8482927,13.7522533 13.5630536,13.7684196 13.376203,13.6030367 L10.2821419,10.8644588 C10.1933226,10.8934286 10.0984904,10.9090909 10,10.9090909 C9.49792295,10.9090909 9.09090909,10.502077 9.09090909,10 C9.09090909,9.66350802 9.27372665,9.36971537 9.54545455,9.21252927 L9.54545455,6.36363636 C9.54545455,6.11259784 9.74896148,5.90909091 10,5.90909091 C10.2510385,5.90909091 10.4545455,6.11259784 10.4545455,6.36363636 L10.4545455,9.21252927 Z M10,20 C4.4771525,20 0,15.5228475 0,10 C0,4.4771525 4.4771525,0 10,0 C15.5228475,0 20,4.4771525 20,10 C20,15.5228475 15.5228475,20 10,20 Z M10,18.1818182 C14.5186934,18.1818182 18.1818182,14.5186934 18.1818182,10 C18.1818182,5.48130659 14.5186934,1.81818182 10,1.81818182 C5.48130659,1.81818182 1.81818182,5.48130659 1.81818182,10 C1.81818182,14.5186934 5.48130659,18.1818182 10,18.1818182 Z" id="duration" />
</svg>