<svg width="180" height="32" viewBox="0 0 180 32">
        <path fill="#284155" d="M6.41.145l-1.12 5.54A37.004 37.004 0 0 1 9.745.145H6.41zM7.991 11.73c-1.314 2.97-1.981 5.979-1.981 8.94 0 2.278.4 4.45 1.19 6.46a16.141 16.141 0 0 0 2.872 4.73h5.462a12.52 12.52 0 0 1-2.114-1.723c-3.087-3.128-4.552-7.393-4.121-12.005.212-2.277.874-4.557 1.967-6.776 1.128-2.294 2.686-4.454 4.63-6.427a23.267 23.267 0 0 1 6.75-4.784h-5.279a29.561 29.561 0 0 0-3.424 2.98c-2.583 2.618-4.586 5.513-5.952 8.605zm6.986-4.214h2.67c.14-.149.284-.299.43-.447 2.833-2.87 6.354-4.724 9.968-5.257l.338-1.667H25.47c-3.129 1-6.207 2.857-8.84 5.526a25.7 25.7 0 0 0-1.653 1.845zM31.62 20.73c1.856-1.88 2.877-4.043 2.877-6.093 0-1.577-.589-3.005-1.703-4.136A5.202 5.202 0 0 0 30.93 9.29l-.358 1.772c.353.196.675.437.957.723.976.99 1.448 2.35 1.332 3.83-.117 1.47-.814 2.925-1.966 4.092a7.77 7.77 0 0 1-2.405 1.654l-.335 1.658c1.226-.464 2.425-1.231 3.466-2.288zm3.914-6.093c0 2.328-1.13 4.757-3.18 6.835-1.29 1.307-2.828 2.248-4.44 2.739l-.395 1.948c2.078-.56 4.127-1.783 5.864-3.545 4.509-4.569 5.192-10.769 1.586-14.424a7.296 7.296 0 0 0-3.424-1.95l-.408 2.017a6.24 6.24 0 0 1 2.389 1.503c1.314 1.33 2.008 3.016 2.008 4.877zm-3.707.894c.092-1.169-.274-2.235-1.032-3.004a3.222 3.222 0 0 0-.444-.374l-1.598 7.903a6.742 6.742 0 0 0 1.408-1.093c.979-.991 1.57-2.21 1.666-3.432zM1.804 29.529c-.327-.827-.6-1.673-.82-2.538L0 31.859h2.894c-.41-.75-.774-1.528-1.09-2.33zm3.17-8.858c0-3.11.699-6.266 2.072-9.371 1.419-3.208 3.494-6.207 6.166-8.916C14 1.584 14.82.839 15.668.145H11.22c-.179.175-.355.35-.532.529-2.469 2.502-4.49 5.221-6.025 8.107l-3.14 15.54a20.365 20.365 0 0 0 1.243 4.819c.372.943.814 1.85 1.323 2.72h4.632a17.217 17.217 0 0 1-2.483-4.342c-.838-2.131-1.263-4.436-1.263-6.847zm8.726-1.595c0 .15.003.3.008.448h2.345c-.038-.36-.058-.725-.058-1.097 0-2.161.648-4.372 1.835-6.383h-2.217c-1.25 2.263-1.913 4.662-1.913 7.032zm10.492-7.032h-1.91c-1.557 1.729-2.443 3.823-2.443 5.812 0 .585.074 1.142.217 1.668h1.843a4.878 4.878 0 0 1-.481-2.138c0-1.674.759-3.366 2.138-4.765.204-.206.415-.399.636-.577zm-7.162 6.383c0 .374.023.74.064 1.098h1.897a7.443 7.443 0 0 1-.188-1.669c0-1.186.262-2.383.777-3.558.345-.79.796-1.543 1.344-2.254h-1.871c-1.305 1.99-2.023 4.217-2.023 6.383zm17.085 4.931c-2.001 2.029-4.4 3.397-6.825 3.938l-.423 2.097c3.135-.625 6.25-2.32 8.684-4.788 2.762-2.798 4.548-6.195 5.033-9.564a12.768 12.768 0 0 0 .123-2.213c-.097-2.738-1.156-5.19-3.121-7.182-1.467-1.486-3.324-2.396-5.363-2.759l-.47 2.324a8.362 8.362 0 0 1 3.95 2.238c4.022 4.077 3.34 10.917-1.588 15.91zm4.203-18.455c1.396 1.416 2.382 3.055 2.929 4.872l.046.158.488-2.417h1.382a13.288 13.288 0 0 0-2.952-4.53 12.092 12.092 0 0 0-4.408-2.84h-3.025l-.346 1.71c.49.088.97.206 1.442.352a10.674 10.674 0 0 1 4.444 2.695zm5.952 2.613h3.525A16.62 16.62 0 0 0 43.88.146h-5.65a12.832 12.832 0 0 1 2.713 2.098 14.285 14.285 0 0 1 3.327 5.272zM27.38 5.113l.444-2.2c-3.027.533-6.121 2.089-8.715 4.603h2.826c1.675-1.227 3.54-2.053 5.446-2.403zm-.225 1.116c-1.13.253-2.244.687-3.3 1.287h3.042l.258-1.287zM10.331 18.23c-.4 4.294.957 8.26 3.822 11.165a11.674 11.674 0 0 0 3.575 2.463h4.227l.268-1.3c-2.435-.38-4.579-1.462-6.281-3.187a11.066 11.066 0 0 1-2.123-3.037h-2.46l.95-4.811h.364c-.006-.15-.01-.298-.01-.45 0-2.37.613-4.762 1.774-7.03h-.607l.827-4.125c-2.481 3.192-3.996 6.772-4.326 10.312zm13.168 6.111l.003-.007h-4.024a7.892 7.892 0 0 0 3.62 1.955l.4-1.948zm-.612 2.977c-1.652-.38-3.142-1.219-4.382-2.474a8.455 8.455 0 0 1-.463-.51h-3.058a10.009 10.009 0 0 0 1.69 2.295c1.554 1.575 3.52 2.559 5.76 2.897l.453-2.208zm13.972 4.54l.709-3.501a22.377 22.377 0 0 1-5.087 3.501h4.378zm7.217-18.616h-2.327c0 .64-.045 1.291-.14 1.95-.269 1.87-.911 3.745-1.877 5.531h2.322c1.011-2.025 1.666-4.13 1.918-6.227.052-.421.084-.838.104-1.254zM50.146.145H45.26a17.695 17.695 0 0 1 3.602 7.37h3.777a21.137 21.137 0 0 0-1.23-4.72c-.36-.92-.78-1.803-1.263-2.65zm1.188 0a21.477 21.477 0 0 1 1.941 5.169L54.32.145h-2.985zm-3.077 13.098h-3.145a17.27 17.27 0 0 1-.11 1.38c-.249 2.054-.86 4.113-1.796 6.101h3.196c.949-2.209 1.557-4.486 1.793-6.759.027-.241.047-.48.062-.722zm.97.832c-.233 2.236-.81 4.474-1.7 6.65h2.389l1.487-7.482h-2.107c-.018.277-.042.555-.07.832zM26.641 30.499l-.274 1.36h3.48a21.211 21.211 0 0 0 7.763-4.993c.111-.11.22-.225.326-.337l.864-4.263a20.981 20.981 0 0 1-2.516 3.081c-2.688 2.725-6.163 4.557-9.643 5.152zm-2.353-17.135a6.582 6.582 0 0 1 1.358-1.061l-1.436 7.22H23.1c-.425-.602-.648-1.33-.648-2.137 0-1.395.652-2.822 1.836-4.022zm70.639 7.894h.849c-.552 5.163-2.717 10.713-8.915 10.713-7.896 0-9.679-8.303-9.679-15.876C77.183 8.523 78.966.22 86.862.22c6.453 0 8.236 5.55 8.448 9.293h-.85C94.25 4.823 91.872.994 86.905.994c-7.004 0-8.872 7.314-8.872 15.101 0 7.788 1.868 15.102 8.872 15.102 6.326 0 7.684-6.712 8.024-9.939zm6.208 10.197V.735h.85V30.68h12.947v.775h-13.797zm16.779 0l9.636-30.72h1.02l9.593 30.72h-.849l-3.099-9.982h-12.353l-3.099 9.982h-.849zm23.529-8.046v-1.333h.849v1.333c0 4.69 2.674 7.788 7.429 7.788 4.245 0 7.896-2.453 7.896-8.003 0-4.732-3.863-6.023-7.43-7.185-4.584-1.462-7.98-2.925-7.98-8.131 0-2.969 1.868-7.658 7.81-7.658 5.902 0 7.897 4.087 7.897 7.7v.646h-.85v-.731c0-4.346-2.759-6.841-7.131-6.841-4.627 0-6.877 3.485-6.877 7.056 0 9.551 15.41 4.733 15.41 15.36 0 4-2.42 8.561-8.703 8.561-5.9 0-8.32-4.216-8.32-8.562zm21.533 0v-1.333h.849v1.333c0 4.69 2.674 7.788 7.429 7.788 4.245 0 7.896-2.453 7.896-8.003 0-4.732-3.863-6.023-7.429-7.185-4.585-1.462-7.98-2.925-7.98-8.131 0-2.969 1.867-7.658 7.81-7.658 5.9 0 7.896 4.087 7.896 7.7v.646h-.849v-.731c0-4.346-2.76-6.841-7.132-6.841-4.627 0-6.877 3.485-6.877 7.056 0 9.551 15.41 4.733 15.41 15.36 0 4-2.42 8.561-8.703 8.561-5.9 0-8.32-4.216-8.32-8.562zm-28.973-2.71l-5.9-19.189h-.086l-5.9 19.189h11.886z"/>
        <path fill="#4B96CC" d="M66.75 0l.761.03-6.413 31.948-.771.022z"/>
</svg>
