<svg width="120" height="83" viewBox="0 0 120 83">
    <path d="M17.143 81.454c1.177 0 2.245-1.069 2.592-2.78l.707-3.446h.814l-1.375 6.721h-.753l.223-1.22h-.025c-.501.791-1.376 1.418-2.376 1.418-1.165 0-2.027-.523-2.04-1.812 0-.209.039-.482.098-.79l.88-4.317h.816l-.892 4.34c-.05.205-.09.455-.085.678.008.887.686 1.208 1.416 1.208zM7.937 73.4h-5.32l-.683 3.362h4.972l-.162.758H1.788L1.042 81.2h5.45l-.16.75H0l1.884-9.304h6.212l-.16.755zm19.123 3.923c.055-1-.665-1.6-1.626-1.6-1.957 0-2.873 1.898-2.855 3.648.011 1.197.614 2.083 1.884 2.083 1.079 0 1.85-.705 2.19-1.68h.816c-.478 1.536-1.484 2.373-3.103 2.373-1.66 0-2.593-1.119-2.608-2.776-.02-2.094 1.298-4.34 3.595-4.34 1.453 0 2.56.73 2.524 2.292h-.817zm37.53 4.626h-.82l1.38-6.72h.819l-1.378 6.72zm13.762-8.754h.819l-.412 2.033h1.337l-.123.688h-1.36l-.879 4.312c-.066.318-.084.436-.08.641 0 .237.116.469.428.469.324 0 .632-.023.958-.077l-.134.72c-.274.023-.56.05-.833.05-.605 0-1.237-.159-1.244-.968 0-.14.026-.391.088-.69l.878-4.457h-1.209l.15-.688h1.208l.408-2.033zm-12.67-.55h.817l-.272 1.317h-.819l.274-1.317zm4.562 2.49c.143 0 .297 0 .44.012l-.175.82c-.157 0-.309-.01-.467-.01-1.462.026-2.23 1.21-2.487 2.477l-.723 3.515h-.82l1.38-6.72h.741l-.324 1.548h.024c.508-.966 1.217-1.654 2.41-1.642zm4.933 2.06c.062-1.03-.66-1.475-1.582-1.475-.71 0-1.657.224-1.647 1.146.007.626.67.939 1.428 1.243.92.362 2.183.74 2.196 1.978.011 1.51-1.41 2.06-2.679 2.06-1.286 0-2.6-.705-2.54-2.381h.822c-.008 1.297.96 1.692 1.904 1.692.725 0 1.684-.38 1.676-1.238-.01-.874-.933-1.149-1.817-1.486-.896-.354-1.8-.757-1.81-1.868-.012-1.3 1.385-1.838 2.46-1.838 1.402 0 2.423.614 2.41 2.168h-.821zm-34.534-3.233l.269-1.317h.82l-.274 1.317h-.815zm-.823 7.987h-.811l1.37-6.72h.82l-1.379 6.72zm24.713-8.547h-5.048l-.682 3.36h4.474l-.135.758h-4.497l-.906 4.43h-.88l1.894-9.305h5.922l-.142.757zm-14.178 3.05c.498-.798 1.376-1.421 2.374-1.421 1.166 0 2.027.523 2.039 1.808a3.92 3.92 0 0 1-.092.801l-.881 4.31h-.819l.896-4.338c.044-.21.083-.456.083-.677-.01-.888-.686-1.213-1.41-1.213-1.183 0-2.25 1.07-2.596 2.778l-.703 3.45h-.821l1.376-6.722h.75l-.215 1.224h.02zm-13.132-3.257h.818l-.41 2.033h1.337l-.12.69h-1.366l-.874 4.313c-.068.314-.09.429-.087.64.002.235.123.467.43.467.325 0 .637-.028.961-.077l-.138.716c-.27.03-.558.054-.83.054-.608 0-1.232-.155-1.24-.966 0-.143.023-.389.08-.691l.883-4.456h-1.21l.154-.69h1.207l.405-2.033zm4.398 6.149C41.6 77.14 42.93 75.03 45.32 75.03c1.557 0 2.657.98 2.672 2.632.024 2.269-1.193 4.484-3.672 4.484-1.719 0-2.68-1.119-2.698-2.803zm-9.528-4.313c.906 0 2.324.315 2.336 1.499.007.653-.269 1.671-.396 2.268-.283 1.512-.422 1.862-.418 2.267.004.238.235.273.432.273.117 0 .208-.012.324-.028l-.11.655a3.375 3.375 0 0 1-.676.066c-.451 0-.702-.287-.713-.728a3.35 3.35 0 0 1 .015-.368l-.02-.025c-.466.78-1.379 1.237-2.315 1.237-1.218 0-2.145-.55-2.159-1.866-.01-1.42 1.11-1.874 2.3-2.08.857-.135 1.612-.069 2.132-.197.525-.127.794-.433.786-1.312-.007-.8-.793-.97-1.422-.97-1.038 0-1.93.389-2.088 1.511h-.817c.208-1.525 1.368-2.202 2.81-2.202zm-18.717 1.461l.765-3.847h.819l-1.896 9.304h-.79l.287-1.213h-.03c-.562.888-1.244 1.411-2.423 1.411-1.717 0-2.553-1.105-2.568-2.749-.02-2.062 1.37-4.367 3.618-4.367 1.05 0 1.883.403 2.191 1.461h.027zm29.064 2.775c.014 1.3.67 2.187 2.03 2.187 1.79 0 2.72-2.056 2.706-3.62-.011-1.25-.682-2.112-1.992-2.112-1.788 0-2.76 1.969-2.744 3.545zm-11.726 2.187c1.306 0 2.135-.794 2.381-1.968l.247-1.13-.027-.027c-.258.324-1.06.345-1.472.376-.998.085-2.644.132-2.63 1.54.01.86.722 1.21 1.5 1.21zM8.354 79.45c.012 1.145.594 2.005 1.827 2.005 1.877 0 2.898-2.13 2.88-3.79-.01-1.172-.695-1.942-1.887-1.942-1.883 0-2.834 2.083-2.82 3.727zm5.878-67.602L16.648 0h7.198c-3.669 3.744-6.882 7.701-9.614 11.847zm1.556 32.047c0-6.334 1.44-12.769 4.274-19.119 2.946-6.613 7.268-12.804 12.84-18.402A63.578 63.578 0 0 1 40.289 0h11.39c-.37.17-.737.344-1.105.526-4.93 2.42-9.458 5.688-13.457 9.705-4.194 4.218-7.557 8.837-9.99 13.743-2.357 4.747-3.784 9.62-4.243 14.492-.929 9.863 2.231 18.983 8.89 25.672a26.944 26.944 0 0 0 4.56 3.684H24.553a34.468 34.468 0 0 1-6.197-10.113c-1.703-4.298-2.567-8.944-2.567-13.815zm25.105-28.132h-5.761a55.216 55.216 0 0 1 3.566-3.945C44.38 6.11 51.018 2.139 57.768 0h6.283l-.728 3.564c-7.796 1.14-15.391 5.105-21.503 11.242a58.12 58.12 0 0 0-.927.956zM77.24 30.993c0 4.383-2.204 9.008-6.206 13.03-2.248 2.26-4.832 3.901-7.478 4.893l.723-3.545a16.767 16.767 0 0 0 5.188-3.537c2.484-2.497 3.99-5.606 4.24-8.75.251-3.167-.766-6.075-2.874-8.193a9.036 9.036 0 0 0-2.063-1.545l.771-3.79a11.233 11.233 0 0 1 4.025 2.592c2.403 2.418 3.674 5.473 3.674 8.845zm-4.626 14.618c4.426-4.445 6.861-9.639 6.861-14.618 0-3.98-1.496-7.585-4.33-10.43a13.48 13.48 0 0 0-5.155-3.214l.88-4.313c2.839.72 5.362 2.13 7.388 4.17 7.777 7.817 6.304 21.076-3.422 30.846-3.746 3.768-8.168 6.385-12.65 7.581l.85-4.166c3.48-1.049 6.797-3.063 9.578-5.856zm-3.36-19.13c1.634 1.643 2.424 3.924 2.225 6.423-.207 2.614-1.483 5.22-3.593 7.341a14.529 14.529 0 0 1-3.04 2.336l3.449-16.9c.342.236.663.503.959.8zM4.944 57.41a44.449 44.449 0 0 0 1.77 5.428 44.015 44.015 0 0 0 2.35 4.983H2.821L4.944 57.41zm13.078-33.557c-2.964 6.642-4.469 13.389-4.469 20.042 0 5.155.917 10.084 2.725 14.641a36.725 36.725 0 0 0 5.357 9.285h-9.993a41.673 41.673 0 0 1-2.854-5.816 43.228 43.228 0 0 1-2.68-10.307l6.773-33.23C16.193 12.296 20.55 6.48 25.877 1.13 26.26.749 26.64.373 27.026 0h9.595a66.512 66.512 0 0 0-5.299 4.787c-5.765 5.794-10.24 12.208-13.3 19.067zm14.372 17.59c-.012-.32-.02-.64-.02-.96 0-5.069 1.43-10.2 4.128-15.039h4.782c-2.56 4.302-3.958 9.03-3.958 13.652 0 .794.043 1.576.126 2.346h-5.058zm18.493-15.999h4.122c-.476.382-.933.794-1.372 1.235-2.975 2.991-4.613 6.61-4.613 10.19 0 1.635.36 3.191 1.038 4.573h-3.976a13.465 13.465 0 0 1-.467-3.567c0-4.254 1.91-8.733 5.268-12.43zm-11.19 15.998a20.421 20.421 0 0 1-.138-2.346c0-4.633 1.55-9.397 4.363-13.652h4.037a22.94 22.94 0 0 0-2.898 4.82c-1.112 2.513-1.677 5.075-1.677 7.61 0 1.226.139 2.422.405 3.568h-4.093zm21.996 16.62c5.23-1.156 10.406-4.083 14.723-8.421 10.628-10.677 12.1-25.304 3.427-34.023-2.352-2.358-5.257-3.973-8.522-4.786l1.013-4.97c4.397.777 8.404 2.723 11.568 5.901 4.24 4.261 6.524 9.503 6.734 15.358a27.068 27.068 0 0 1-.266 4.733c-1.045 7.205-4.898 14.469-10.856 20.452-5.254 5.28-11.972 8.904-18.734 10.241l.913-4.485zM91.8 20.593c-1.18-3.886-3.307-7.39-6.318-10.418-2.657-2.67-5.885-4.608-9.586-5.763a25.856 25.856 0 0 0-3.112-.753L73.53 0h6.527c3.545 1.313 6.775 3.33 9.508 6.075 2.82 2.838 4.96 6.09 6.37 9.687h-2.982L91.9 20.93a35.249 35.249 0 0 0-.1-.337zm14.126-4.831h-7.604c-1.513-4.217-3.925-8.003-7.177-11.275A27.676 27.676 0 0 0 85.291 0H97.48c4.148 4.484 7.003 9.85 8.447 15.762zM62.846 5.92l-.959 4.704c-4.111.747-8.134 2.515-11.747 5.138h-6.097c5.596-5.376 12.27-8.704 18.802-9.842zm-8.565 9.842c2.279-1.282 4.681-2.21 7.12-2.753l-.558 2.753h-6.562zM33.353 62.554c-6.18-6.212-9.11-14.693-8.247-23.877.714-7.571 3.982-15.226 9.334-22.052l-1.784 8.82h1.31c-2.505 4.851-3.827 9.966-3.827 15.036 0 .323.008.64.02.96h-.787l-2.047 10.29h5.308a23.672 23.672 0 0 0 4.578 6.494c3.672 3.689 8.297 6.003 13.55 6.816l-.577 2.78h-9.12c-2.92-1.291-5.51-3.058-7.71-5.267zM53.52 51.731l-.006.015-.862 4.166c-2.914-.677-5.562-2.09-7.812-4.181h8.68zm-10.778 1.09c2.674 2.684 5.888 4.477 9.453 5.29l-.98 4.723c-4.828-.723-9.07-2.828-12.423-6.196a21.416 21.416 0 0 1-3.646-4.907h6.598c.317.375.647.737.998 1.09zm41.123 7.513l-1.53 7.488H72.89a48.296 48.296 0 0 0 10.974-7.488zm9.019-32.324h5.02c-.042.889-.113 1.781-.223 2.682-.545 4.483-1.957 8.985-4.138 13.316h-5.01c2.083-3.82 3.47-7.828 4.05-11.828a28.94 28.94 0 0 0 .3-4.17zM100.458 0h10.54c1.04 1.81 1.95 3.7 2.724 5.668a44.867 44.867 0 0 1 2.655 10.094h-8.15C106.89 9.935 104.268 4.584 100.458 0zM115.8 4.842A45.505 45.505 0 0 0 113.561 0H120l-2.251 11.054a45.638 45.638 0 0 0-1.95-6.212zM100.137 28.01h6.786a33.084 33.084 0 0 1-.134 1.545c-.509 4.86-1.822 9.73-3.868 14.453h-6.894c2.02-4.251 3.337-8.655 3.873-13.046.12-.99.199-1.973.237-2.952zm5.21 16c1.92-4.653 3.165-9.439 3.666-14.221.061-.592.112-1.186.15-1.779h4.547l-3.21 16h-5.152zM59.704 67.822l.591-2.908c7.507-1.274 15.004-5.192 20.802-11.02a44.907 44.907 0 0 0 5.428-6.59l-1.863 9.119c-.232.24-.464.484-.703.72A45.798 45.798 0 0 1 67.21 67.822h-7.508zM51.257 36.87c0-2.983 1.407-6.035 3.962-8.602a14.182 14.182 0 0 1 2.929-2.27l-3.099 15.443h-2.393c-.917-1.29-1.399-2.847-1.399-4.57z"/>
</svg>
