<svg viewBox="0 0 60 35" version="1.1" xmlns="http://www.w3.org/2000/svg">
    <path d="M7.07974878,6.30281988e-05 L10.7656807,6.30281988e-05 C8.88713143,1.93208742 7.24137788,3.97420106 5.84252886,6.11400841 L7.07974878,6.30281988e-05 Z M8.82795734,12.7854382 C10.3365648,9.37288143 12.5495763,6.17798203 15.4026722,3.2887694 C16.5965283,2.07904817 17.8613434,0.981937319 19.1844612,0.000168075197 L25.0161802,0.000168075197 C24.8267484,0.0877772716 24.6393914,0.177907596 24.4507896,0.271819612 C21.9261389,1.52040823 19.6077261,3.20683274 17.5604933,5.2798302 C15.4126314,7.45682418 13.6909392,9.84034057 12.445005,12.3719732 C11.238285,14.8214591 10.5073231,17.3369145 10.2722451,19.8504791 C9.79669452,24.9404263 11.4148529,29.646952 14.8246252,33.0987964 C15.5329714,33.8168977 16.3135217,34.4522219 17.1598441,34.999937 L11.1268667,34.999937 C9.77324897,33.4492332 8.70761732,31.6989401 7.95383231,29.7807819 C7.08157463,27.5630297 6.63963627,25.165437 6.63963627,22.6516624 C6.63963627,19.38302 7.37661517,16.0622743 8.82795734,12.7854382 Z M16.5441181,8.13402016 C17.1113761,7.43671819 17.7193007,6.7572742 18.3703817,6.09820934 C21.279083,3.15290161 24.6788962,1.10385486 28.1347296,2.10093996e-05 L31.3519579,2.10093996e-05 L30.9795263,1.83939394 C26.9873498,2.42765713 23.0982922,4.47355247 19.9688292,7.64050936 C19.8069926,7.80438268 19.6490982,7.97014684 19.4941085,8.13402016 L16.5441181,8.13402016 Z M34.9273222,22.7187244 C33.7766226,23.8845359 32.4530899,24.731845 31.0984347,25.2432138 L31.468584,23.4141355 C32.4352463,22.9924768 33.3523203,22.3710188 34.1249863,21.5888388 C35.3974783,20.3001223 36.1678619,18.6956344 36.2960863,17.0732886 C36.4247256,15.4389674 35.9037363,13.9384761 34.8248257,12.845357 C34.5133941,12.5297958 34.157976,12.2638168 33.7683233,12.0480503 L34.1631631,10.0920752 C34.942676,10.3878875 35.6369134,10.8364382 36.2240897,11.4297437 C37.4546702,12.677702 38.1053363,14.2540373 38.1053363,15.9942458 C38.1053363,18.2561178 36.9768373,20.6427856 34.9273222,22.7187244 Z M39.2498114,15.9942878 C39.2498114,13.9404089 38.4837849,12.0802367 37.0322352,10.6116797 C36.2960863,9.86647626 35.3974783,9.30489501 34.393054,8.95319766 L34.8441216,6.72746187 C36.2973311,7.09890805 37.5889116,7.82646356 38.6263256,8.87924457 C42.6087504,12.9132594 41.8547579,19.7556007 36.8743408,24.7976465 C34.9561623,26.7418563 32.6921101,28.0923405 30.3973503,28.7098068 L30.8324417,26.560125 C32.614304,26.0185027 34.3127582,24.9795879 35.7367126,23.5379229 C38.0028397,21.2441166 39.2498114,18.5637374 39.2498114,15.9942878 Z M35.1554703,16.980343 C35.0490316,18.3291465 34.3962908,19.6745884 33.3155129,20.7687579 C32.8468092,21.2442007 32.319388,21.6488417 31.7595994,21.9744874 L33.5250705,13.2530654 C33.6999785,13.3749199 33.8643049,13.5127416 34.0161823,13.66569 C34.8529604,14.5138395 35.2573444,15.6907861 35.1554703,16.980343 Z M1.99287227,32.4283024 C2.34206582,33.3134284 2.74354504,34.1714523 3.19647999,34.9998529 L0,34.9998529 L1.08700238,29.6269091 C1.32975725,30.5819964 1.63164472,31.5150238 1.99287227,32.4283024 Z M5.49516116,22.6527759 C5.49516116,25.3131961 5.96490221,27.8568041 6.89027549,30.2083862 C7.57206396,31.9408213 8.49059031,33.5453092 9.63299059,35 L4.51667228,35 C3.95418641,34.0405007 3.46577191,33.0396129 3.05537093,31.9983871 C2.38540898,30.3043992 1.92770193,28.5251131 1.68287223,26.6796475 L5.15094719,9.53072505 C6.84691158,6.34570007 9.07859656,3.34471743 11.8057505,0.583452036 C12.0007843,0.386593962 12.1962331,0.192887298 12.3937567,2.10093996e-05 L17.3067419,2.10093996e-05 C16.3697496,0.765183343 15.4638797,1.58833162 14.5936968,2.47051631 C11.641839,5.46057406 9.34998406,8.77039487 7.78307397,12.3100585 C6.26575227,15.737532 5.49516116,19.2192097 5.49516116,22.6527759 Z M15.1323637,20.8915999 C15.1323637,18.2761397 15.864363,15.6285352 17.2457834,13.1311479 L19.6944954,13.1311479 C18.3832041,15.351001 17.6680109,17.7906125 17.6680109,20.1762298 C17.6680109,20.5859131 17.6897966,20.9895037 17.7321231,21.3870015 L15.1421153,21.3870015 C15.1363058,21.2222879 15.1323637,21.0573641 15.1323637,20.8915999 Z M26.7220208,13.1311479 C26.4782285,13.3280059 26.2446029,13.5408312 26.019484,13.768363 C24.4963528,15.3119236 23.6574998,17.179239 23.6574998,19.0272258 C23.6574998,19.8705431 23.8421595,20.6737324 24.1892783,21.3870015 L22.1530421,21.3870015 C21.9951477,20.8056715 21.9142294,20.1911465 21.9142294,19.5459479 C21.9142294,17.3508858 22.8920958,15.0392215 24.6117132,13.1311479 L26.7220208,13.1311479 Z M18.8114486,20.1762719 C18.8114486,17.7856123 19.6046554,15.3268822 21.0452084,13.1311899 L23.1121521,13.1311899 C22.5073397,13.9165213 22.008966,14.7466026 21.6282351,15.6187028 C21.0591098,16.915403 20.7698788,18.2373144 20.7698788,19.5459899 C20.7698788,20.1783728 20.8408379,20.795629 20.9769466,21.3870436 L18.8813703,21.3870436 C18.8361391,20.992487 18.8114486,20.5886864 18.8114486,20.1762719 Z M37.6831503,25.6179795 C43.1252166,20.1082644 43.879209,12.5597973 39.4378323,8.06021414 C38.2340171,6.84334971 36.7461579,6.01011693 35.0746765,5.59055922 L35.5929685,3.02594181 C37.8447794,3.42680115 39.8963693,4.43063026 41.5166024,6.07104419 C43.6874949,8.26988795 44.856868,10.9752683 44.9645516,13.99642 C44.9695312,14.1481079 44.9722284,14.3021068 44.9722284,14.4548451 C44.971606,15.1031952 44.9249223,15.7656215 44.8284428,16.4389728 C44.2931372,20.1574264 42.3203908,23.9057134 39.2695637,26.9934649 C36.5795493,29.7177537 33.1396919,31.5882206 29.6770115,32.2783793 L30.1444703,29.9635637 C32.8224507,29.3671068 35.4726285,27.8567411 37.6831503,25.6179795 Z M42.3253911,5.25087924 C40.9649264,3.87329291 39.3123259,2.87324549 37.4169706,2.27678864 C36.8959813,2.11501626 36.3654478,1.98496807 35.8235027,1.88832484 L36.205686,0 L39.5478189,0 C41.3628784,0.677343043 43.0169313,1.71835879 44.4161953,3.13502261 C45.8600681,4.59958786 46.9553698,6.2778187 47.6776174,8.13399915 L46.150959,8.13399915 L45.6117112,10.8013525 C45.5951125,10.7435767 45.5778915,10.6855907 45.5606704,10.6276048 C44.956273,8.62162732 43.8671958,6.81334829 42.3253911,5.25087924 Z M48.8997948,8.13402016 C48.125469,5.95828674 46.8903239,4.00420248 45.225067,2.31588713 C44.3289488,1.40870125 43.3265994,0.635345253 42.2279779,2.10093996e-05 L48.4686455,2.10093996e-05 C50.5920245,2.31378619 52.0541558,5.08303515 52.793832,8.13402016 L48.8997948,8.13402016 Z M30.2441658,5.48250787 C28.1388378,5.86824045 26.0787411,6.78046858 24.2288245,8.1341042 L21.1072458,8.1341042 C23.9723757,5.35981298 27.3900324,3.64229456 30.7344476,3.05508184 L30.2441658,5.48250787 Z M29.9953524,6.71353263 L29.7094411,8.13397814 L26.3492572,8.13397814 C27.5163479,7.47260224 28.7465134,6.99316774 29.9953524,6.71353263 Z M11.4109522,19.9593918 C11.7761219,16.0522738 13.4492632,12.1022966 16.190111,8.57965054 L15.2763567,13.1311269 L15.9473561,13.1311269 C14.6646974,15.634817 13.9878885,18.2742279 13.9878885,20.8905284 C13.9878885,21.0573431 13.9918307,21.2212164 13.9978477,21.3861402 L13.5953311,21.3861402 L12.5465055,26.6958457 L15.2647377,26.6958457 C15.8546113,27.9366609 16.641801,29.0696978 17.6088783,30.0474752 C19.4892949,31.9509268 21.8570886,33.1453112 24.5466881,33.5648689 L24.2516476,34.9998109 L19.5820397,34.9998109 C18.0862962,34.3333928 16.7602737,33.4211646 15.6336421,32.2814047 C12.4686995,29.0755804 10.9690138,24.6989023 11.4109522,19.9593918 Z M25.9563263,26.7038503 L25.5143879,28.8535321 C24.0225866,28.5041458 22.6671015,27.7749095 21.514742,26.6958667 L25.9297685,26.6958667 L25.9594385,26.6958667 L25.9563263,26.7038503 Z M25.2807,29.9886279 L24.7794216,32.4261385 C22.3068491,32.0525913 20.1345042,30.9666155 18.4177915,29.2285078 C17.675833,28.4761612 17.0502724,27.6248604 16.5510688,26.6958247 L19.9293037,26.6958247 C20.0919702,26.8897415 20.2608612,27.076515 20.4403338,27.2582463 C21.8097203,28.6440263 23.4554738,29.5690702 25.2807,29.9886279 Z M40.7133328,34.999895 L35.8775312,34.999895 C37.8992436,33.9876621 39.8045581,32.6859197 41.4967878,31.135426 L40.7133328,34.999895 Z M48.6852161,14.4548871 C48.6640528,14.9135223 48.6279508,15.3738383 48.5711006,15.8385662 C48.2920362,18.1523314 47.5693736,20.4759709 46.4522862,22.7107408 L43.8869689,22.7107408 C44.9538455,20.7396389 45.6636441,18.6706332 45.960552,16.6066698 C46.0657458,15.8795345 46.1147117,15.161013 46.1147117,14.4548871 L48.6852161,14.4548871 Z M55.3901057,6.30281988e-05 C55.923129,0.934140935 56.3887204,1.90918717 56.785635,2.92520174 C57.4327738,4.58347365 57.8886136,6.3278841 58.1446473,8.13406218 L53.9719608,8.13406218 C53.2872675,5.12698681 51.9448538,2.36572142 49.9938931,6.30281988e-05 L55.3901057,6.30281988e-05 Z M56.7028909,6.30281988e-05 L60,6.30281988e-05 L58.8472256,5.70432512 C58.5893245,4.60742436 58.2554846,3.53846611 57.8490258,2.49871092 C57.5135261,1.63837601 57.1309279,0.805143221 56.7028909,6.30281988e-05 Z M53.3043434,14.4548871 C53.2873298,14.7217065 53.2651291,14.9853745 53.2356666,15.2519837 C52.9750682,17.7605061 52.3026164,20.2730201 51.2550358,22.7107408 L47.724716,22.7107408 C48.7590177,20.5169393 49.4335443,18.2441424 49.708044,15.9782787 C49.7692515,15.4669099 49.8099181,14.9603733 49.829629,14.4548871 L53.3043434,14.4548871 Z M54.3743737,15.3729349 C54.4054961,15.0672481 54.4316389,14.7605109 54.4513498,14.4548241 L56.7793068,14.4548241 L55.136043,22.7117282 L52.4974843,22.7117282 C53.4801228,20.3101438 54.1177174,17.8406989 54.3743737,15.3729349 Z M29.4282189,33.4990675 C33.2720452,32.8418935 37.1110994,30.8197388 40.0797633,27.8128735 C41.132531,26.7468565 42.0618465,25.6049957 42.8589954,24.412082 L41.9049895,29.1175572 C41.7865168,29.2410925 41.6674217,29.3671489 41.5450068,29.4890034 C39.1097812,31.9565574 36.1286684,33.8457226 32.9701577,34.999979 L29.1255015,34.999979 L29.4282189,33.4990675 Z M26.8295176,14.5877506 C27.2882621,14.1221823 27.7965949,13.7286762 28.3292033,13.4168967 L26.7427898,21.3859721 L25.5173964,21.3859721 C25.0476553,20.7206044 24.8011658,19.9165747 24.8011658,19.0272468 C24.8011658,17.4878881 25.5213386,15.9123932 26.8295176,14.5877506 Z" id="navigation-ef-logo-c" fill="#FFFFFF"></path>
</svg>
