<svg width="20px" height="20px" viewBox="0 0 20 20" >
            <path d="M11.1728365,19 L11.1728365,19 L19.500627,19 C19.7764231,19 20,19.2219324 20,19.5 C20,19.7761424 19.7806926,20 19.500627,20 L10.1267867,20 L6.80663299,20 C6.53051456,20 6.14892183,19.8379306 5.96011367,19.6439582 L0.629894783,14.1679485 C-0.212554593,13.3022748 -0.208253377,11.8943207 0.632550691,11.0303377 L10.1922958,0.651497747 C11.036212,-0.215683189 12.4024731,-0.217735637 13.2457308,0.648768622 L19.3701052,6.94197732 C20.2125546,7.807651 20.2082534,9.21560515 19.3674493,10.0795882 L11.1728365,19 Z M5.61768602,7.16906526 L1.31856106,11.8409607 C0.895601326,12.2760024 0.892351183,12.9884999 1.31759712,13.4258931 L6.39909521,18.6428351 C6.59035157,18.8391892 6.97152257,19 7.24850085,19 L9.82578053,19 L13.4706827,15.0220619 L5.61768602,7.16906526 L5.61768602,7.16906526 Z" id="eraser" />
</svg>