<svg width="20px" height="20px" viewBox="0 0 20 20" version="1.1" xmlns="http://www.w3.org/2000/svg">
            <path d="M9.08835726,18 L13.1786429,18 L1.36404317,18 C0.86172105,18 0.521369444,17.5862644 0.603285876,17.0793653 L2.12376523,7.67063472 C2.2059327,7.1621822 2.6760761,6.75 3.18207724,6.75 L19.2270755,6.75 C19.7293976,6.75 20.0697492,7.1637356 19.9878328,7.67063472 L18.4673535,17.0793653 C18.3898369,17.5590379 17.9670226,17.9530301 17.4945564,17.9960955 L9.08835726,18 Z M18.1803407,5.8125 L18.1803407,4.87107048 C18.1803407,4.35836269 17.773911,3.9375 17.2725546,3.9375 L0,3.9375 L0,14.953125 L1.22538531,6.73854655 C1.30167806,6.22710516 1.7700712,5.8125 2.27493779,5.8125 L18.1803407,5.8125 L18.1803407,5.8125 Z M0,3.46875 C0,3.20986652 0.207103349,3 0.452416673,3 L4.0926685,3 C4.34253133,3 4.68711909,3.14648438 4.86813008,3.33316713 L5.45410221,3.9375 L0,3.9375 L0,3.46875 L0,3.46875 Z" id="folder" />
</svg>