<svg width="20px" height="20px" viewBox="0 0 20 20" xmlns="http://www.w3.org/2000/svg">
    <path d="M10.897415,18.7692308 L10.897415,17.0306643 C6.92830196,16.8457451 3.35157155,14.1086247 2.03987447,10.1839136 C1.14162604,7.50096029 1.38191629,4.55404959 2.6603332,2.07905705 C2.83353838,1.74373489 3.23816359,1.62088185 3.56408892,1.8046571 C3.89001424,1.98843235 4.01381839,2.40924394 3.84061321,2.7445661 C2.73520244,4.88462181 2.52751099,7.43174209 3.30218409,9.74559204 C4.45372075,13.191089 7.6447355,15.5817028 11.1455363,15.6542435 C13.471892,15.7046777 15.7492275,14.6522069 17.328768,12.8314592 C17.573903,12.5488903 17.996308,12.5286667 18.2722357,12.7862886 C18.5481635,13.0439106 18.5731259,13.4818218 18.3279908,13.7643908 C16.7073267,15.632542 14.451562,16.8040749 12.0712148,17.0085854 L12.0712148,18.7692308 L14.6928545,18.7692308 C15.5091289,18.7692308 15.5091289,20 14.6928545,20 L8.25124688,20 C7.43497244,20 7.43497244,18.7692308 8.25124688,18.7692308 L10.897415,18.7692308 Z M4.58705368,6.93322675 C4.60109322,4.0311485 6.42155345,1.41738748 9.11714494,0.410640466 C11.794017,-0.586653523 14.9388738,0.278298136 16.7452945,2.5092117 C18.5704345,4.75903132 18.8465455,8.00141841 17.3489946,10.5064697 C15.8561237,13.0067944 12.9171802,14.2971321 10.0811933,13.7299507 C7.32944364,13.1816753 5.09715694,10.8373255 4.67597077,8.034504 C4.61981261,7.66583608 4.58705368,7.30189467 4.58705368,6.92850024 C4.58705368,6.32823324 4.58237384,7.54294677 4.58705368,6.93322675 Z" id="path-1">
    </path>
</svg>
