<svg xmlns="http://www.w3.org/2000/svg" viewBox="0 0 500 500"><defs><style>.cls-1{fill:#ffbf00;}.cls-2{fill:#00a85e;}.cls-3{fill:#fff;}.cls-4{fill:#10be86;}</style></defs><title>google-class</title><g id="Layer_2" data-name="Layer 2"><g id="Layer_1-2" data-name="Layer 1"><rect class="cls-1" width="500" height="500"/><rect class="cls-2" x="26.99" y="26.99" width="446.88" height="446.88"/><rect class="cls-3" x="293" y="448" width="125" height="26"/><circle class="cls-4" cx="128.1" cy="209.13" r="40.03" transform="translate(-48.4 38.85) rotate(-14.54)"/><circle class="cls-4" cx="372.25" cy="209.14" r="40.03" transform="matrix(0.97, -0.25, 0.25, 0.97, -40.58, 100.15)"/><path class="cls-4" d="M239.47,312.16c0-15.05-38.36-31.6-86.51-31.6-55.27,0-92.49,15.17-94,30.64h-.25V343H239.32V312.16Z"/><path class="cls-4" d="M440.47,312.16c0-15.05-38.36-31.6-86.51-31.6-55.27,0-92.49,15.17-94,30.64h-.25V343H440.32V312.16Z"/><circle class="cls-3" cx="250" cy="177" r="55"/><path class="cls-3" d="M365,302c0-20-51-42-115-42-73.48,0-123,20.16-124.93,40.73h-.33V343H364.8V302Z"/></g></g></svg>