<svg xmlns="http://www.w3.org/2000/svg" width="32" height="32" viewBox="0 0 32 32">
    <g fill="none" fill-rule="evenodd">
        <path fill="#4285F4" d="M31.07 13.09H16v6.19h8.61c-.37 2-1.497 3.695-3.192 4.83v4.014h5.171c3.026-2.786 4.771-6.888 4.771-11.76 0-1.135-.102-2.226-.29-3.273z"/>
        <path fill="#34A853" d="M26.59 28.124l-5.172-4.015c-1.433.96-3.265 1.527-5.418 1.527-4.167 0-7.695-2.814-8.953-6.596H1.702v4.145C4.335 28.415 9.745 32 16 32c4.32 0 7.942-1.433 10.59-3.876z"/>
        <path fill="#FBBC05" d="M6.545 16c0-1.055.182-2.08.502-3.04V8.815H1.702A15.994 15.994 0 0 0 0 16c0 2.582.618 5.025 1.702 7.185l5.345-4.145A9.618 9.618 0 0 1 6.545 16z"/>
        <path fill="#EA4335" d="M22.116 8.756l4.59-4.589C23.934 1.585 20.312 0 16 0 9.745 0 4.335 3.585 1.702 8.815l5.345 4.145C8.305 9.178 11.833 6.364 16 6.364c2.35 0 4.458.807 6.116 2.392z"/>
    </g>
</svg>
