<svg width="20px" height="20px" viewBox="0 0 20 20" xmlns="http://www.w3.org/2000/svg">
    <path d="M14.6153846,12.4528061 C15.1630574,12.1753204 15.8193184,12 16.5244295,12 C18.4348676,12 19.991328,13.291226 19.991328,14.4115026 C20.0381109,14.8551162 19.895609,15.0769231 19.5638224,15.0769231 L16.5076558,15.0769231 C16.4300122,14.1500046 15.7127009,13.1700521 14.6153846,12.4528061 L14.6153846,12.4528061 Z M5.38461538,12.4528061 C4.28729913,13.1700521 3.5699878,14.1500046 3.49234417,15.0769231 L0.436177642,15.0769231 C0.104391017,15.0769231 -0.0381108638,14.8551162 0.00867199961,14.4115026 C0.00867199961,13.291226 1.56513244,12 3.47557052,12 C4.18068155,12 4.83694255,12.1753204 5.38461538,12.4528061 L5.38461538,12.4528061 Z M5.25169613,17.3846154 C4.82748845,17.3846154 4.61538462,16.9964534 4.61538462,16.2201295 C4.61538462,14.2596454 7.03185425,12 10,12 C12.9633011,12 15.2551657,14.2755707 15.3711642,16.2201295 C15.4437296,16.9964534 15.2226934,17.3846154 14.7080555,17.3846154 C13.9360988,17.3846154 5.88800765,17.3846154 5.25169613,17.3846154 Z M9.9899924,10.4615385 C7.70978997,10.4615385 6.92307692,8.25108708 6.92307692,5.68138421 C6.92307692,3.11168133 8.30611673,2 9.9899924,2 C10.1480903,2 10.4912287,2.08511501 10.6779528,2.18759101 C10.8646769,2.29006701 11.0211059,2.50131727 11.0211059,2.50131727 C11.0211059,2.50131727 11.1450016,2.39846206 11.3262963,2.39846206 C11.507591,2.39846206 11.6153341,2.44108643 11.7033762,2.50131725 C12.5273768,3.06502729 13.0769231,4.11194194 13.0769231,5.68138421 C13.0769231,8.18911292 12.2701948,10.4615385 9.9899924,10.4615385 Z M16.3405246,11.2307692 C15.0579107,11.2307692 14.6153846,10.0250685 14.6153846,8.62341236 C14.6153846,7.22175625 15.3933445,6.61538462 16.3405246,6.61538462 C16.4294546,6.61538462 16.62247,6.66181099 16.7275023,6.71770699 C16.8325346,6.77360298 16.9205259,6.8888304 16.9205259,6.8888304 C16.9205259,6.8888304 16.9902173,6.83272756 17.0921955,6.83272756 C17.1941738,6.83272756 17.2547792,6.85597721 17.3043029,6.88883039 C17.7678033,7.19630859 18.0769231,7.76735294 18.0769231,8.62341236 C18.0769231,9.99126439 17.6231384,11.2307692 16.3405246,11.2307692 Z M3.64821688,11.2307692 C2.36560301,11.2307692 1.92307692,10.0250685 1.92307692,8.62341236 C1.92307692,7.22175625 2.70103681,6.61538462 3.64821688,6.61538462 C3.73714695,6.61538462 3.93016227,6.66181099 4.0351946,6.71770699 C4.14022692,6.77360298 4.22821822,6.8888304 4.22821822,6.8888304 C4.22821822,6.8888304 4.29790957,6.83272756 4.39988783,6.83272756 C4.50186609,6.83272756 4.56247156,6.85597721 4.61199525,6.88883039 C5.07549559,7.19630859 5.38461538,7.76735294 5.38461538,8.62341236 C5.38461538,9.99126439 4.93083074,11.2307692 3.64821688,11.2307692 Z" id="path-1"></path>
</svg>