<svg width="20px" height="20px" viewBox="0 0 20 20" version="1.1" xmlns="http://www.w3.org/2000/svg">
            <path d="M13.9322409,17 L8.34606671,17 L8.34606671,16.3495419 C8.49781413,16.3373267 8.71752846,16.3190041 9.00521629,16.2945736 C9.29290412,16.2701432 9.49048895,16.233498 9.59797671,16.1846371 C9.78766099,16.1113457 9.92676071,15.9998833 10.01528,15.8502467 C10.1037994,15.70061 10.1480584,15.506696 10.1480584,15.2684989 L10.1480584,10.6420014 L3.82211918,10.6420014 L3.82211918,15.1677237 C3.82211918,15.3814904 3.85847479,15.5616624 3.9311871,15.7082452 C4.00389941,15.8548281 4.14774117,15.9830861 4.36271669,16.0930233 C4.47020445,16.1479918 4.66146656,16.2029596 4.93650877,16.2579281 C5.21155098,16.3128967 5.42810396,16.3434343 5.58617419,16.3495419 L5.58617419,17 L0,17 L0,16.3495419 C0.151747426,16.3373267 0.371461758,16.3190041 0.659149586,16.2945736 C0.946837415,16.2701432 1.14442225,16.233498 1.25191001,16.1846371 C1.44159429,16.1113457 1.58069401,15.9998833 1.66921334,15.8502467 C1.75773267,15.70061 1.80199168,15.506696 1.80199168,15.2684989 L1.80199168,5.88724454 C1.80199168,5.69180076 1.76089403,5.51315561 1.67869751,5.35130374 C1.59650099,5.18945186 1.45423991,5.06272068 1.25191001,4.97110641 C1.08119415,4.89170738 0.874125249,4.82147082 0.630697086,4.76039464 C0.387268924,4.69931846 0.177038664,4.66267331 0,4.65045807 L0,4 L5.58617419,4 L5.58617419,4.65045807 C5.40913553,4.65656569 5.19258255,4.68404956 4.93650877,4.7329105 C4.68043499,4.78177144 4.48917288,4.82757789 4.36271669,4.87033122 C4.14774117,4.94362264 4.00389941,5.06577316 3.9311871,5.23678647 C3.85847479,5.40779977 3.82211918,5.59407933 3.82211918,5.79563073 L3.82211918,9.82663848 L10.1480584,9.82663848 L10.1480584,5.88724454 C10.1480584,5.69180076 10.1069607,5.51315561 10.0247642,5.35130374 C9.94256769,5.18945186 9.80030661,5.06272068 9.59797671,4.97110641 C9.42726086,4.89170738 9.22019195,4.82147082 8.97676379,4.76039464 C8.73333563,4.69931846 8.52310537,4.66267331 8.34606671,4.65045807 L8.34606671,4 L13.9322409,4 L13.9322409,4.65045807 C13.7552022,4.65656569 13.5386493,4.68404956 13.2825755,4.7329105 C13.0265017,4.78177144 12.8352396,4.82757789 12.7087834,4.87033122 C12.4938079,4.94362264 12.3499661,5.06577316 12.2772538,5.23678647 C12.2045415,5.40779977 12.1681859,5.59407933 12.1681859,5.79563073 L12.1681859,15.1677237 C12.1681859,15.3814904 12.2045415,15.5616624 12.2772538,15.7082452 C12.3499661,15.8548281 12.4938079,15.9830861 12.7087834,16.0930233 C12.8162712,16.1479918 13.0075333,16.2029596 13.2825755,16.2579281 C13.5576177,16.3128967 13.7741707,16.3434343 13.9322409,16.3495419 L13.9322409,17 Z M19.5884925,17 L15.6820697,17 L15.6820697,16.6024978 C15.7979878,16.595033 15.9786243,16.5791704 16.2239844,16.5549096 C16.4693445,16.5306487 16.6383893,16.5054552 16.7311239,16.4793282 C16.850906,16.4420038 16.9426732,16.3813527 17.0064282,16.297373 C17.0701832,16.2133932 17.1020602,16.0874255 17.1020602,15.919466 L17.1020602,11.9892334 L15.6588861,11.9892334 L15.6588861,11.5189492 L15.9776595,11.5189492 C16.3949649,11.5189492 16.7687954,11.4443016 17.0991622,11.2950043 C17.429529,11.145707 17.6661917,10.9852148 17.8091575,10.8135228 L18.2902155,10.8135228 C18.2786237,11.056131 18.267032,11.3397917 18.2554402,11.6645134 C18.2438484,11.989235 18.2380526,12.2803605 18.2380526,12.5378984 L18.2380526,15.8578811 C18.2380526,15.9885163 18.2679977,16.1051531 18.3278887,16.207795 C18.3877798,16.3104369 18.4737511,16.3860176 18.5858054,16.4345392 C18.6862678,16.475596 18.8504827,16.5129197 19.0784551,16.5465116 C19.3064275,16.5801035 19.4764383,16.5987654 19.5884925,16.6024978 L19.5884925,17 Z" id="heading-one"></path>
</svg>