<svg width="20px" height="20px" viewBox="0 0 20 20" version="1.1" xmlns="http://www.w3.org/2000/svg">
            <path d="M12.9420978,17 L7.75292448,17 L7.75292448,16.3495419 C7.89388745,16.3373267 8.09798701,16.3190041 8.36522931,16.2945736 C8.6324716,16.2701432 8.81601438,16.233498 8.91586315,16.1846371 C9.09206686,16.1113457 9.22128097,15.9998833 9.30350937,15.8502467 C9.38573777,15.70061 9.42685135,15.506696 9.42685135,15.2684989 L9.42685135,10.6420014 L3.55048701,10.6420014 L3.55048701,15.1677237 C3.55048701,15.3814904 3.58425888,15.5616624 3.65180363,15.7082452 C3.71934839,15.8548281 3.85296753,15.9830861 4.05266507,16.0930233 C4.15251384,16.1479918 4.33018325,16.2029596 4.58567863,16.2579281 C4.84117401,16.3128967 5.04233689,16.3434343 5.18917332,16.3495419 L5.18917332,17 L0,17 L0,16.3495419 C0.140962968,16.3373267 0.345062537,16.3190041 0.612304831,16.2945736 C0.879547124,16.2701432 1.0630899,16.233498 1.16293867,16.1846371 C1.33914238,16.1113457 1.4683565,15.9998833 1.5505849,15.8502467 C1.63281329,15.70061 1.67392688,15.506696 1.67392688,15.2684989 L1.67392688,5.88724454 C1.67392688,5.69180076 1.63574998,5.51315561 1.55939504,5.35130374 C1.4830401,5.18945186 1.3508893,5.06272068 1.16293867,4.97110641 C1.00435533,4.89170738 0.812002501,4.82147082 0.585874407,4.76039464 C0.359746312,4.69931846 0.164456796,4.66267331 0,4.65045807 L0,4 L5.18917332,4 L5.18917332,4.65045807 C5.02471652,4.65656569 4.82355363,4.68404956 4.58567863,4.7329105 C4.34780362,4.78177144 4.17013421,4.82757789 4.05266507,4.87033122 C3.85296753,4.94362264 3.71934839,5.06577316 3.65180363,5.23678647 C3.58425888,5.40779977 3.55048701,5.59407933 3.55048701,5.79563073 L3.55048701,9.82663848 L9.42685135,9.82663848 L9.42685135,5.88724454 C9.42685135,5.69180076 9.38867446,5.51315561 9.31231951,5.35130374 C9.23596457,5.18945186 9.10381377,5.06272068 8.91586315,4.97110641 C8.75727981,4.89170738 8.56492698,4.82147082 8.33879888,4.76039464 C8.11267079,4.69931846 7.91738127,4.66267331 7.75292448,4.65045807 L7.75292448,4 L12.9420978,4 L12.9420978,4.65045807 C12.777641,4.65656569 12.5764781,4.68404956 12.3386031,4.7329105 C12.1007281,4.78177144 11.9230587,4.82757789 11.8055895,4.87033122 C11.605892,4.94362264 11.4722729,5.06577316 11.4047281,5.23678647 C11.3371834,5.40779977 11.3034115,5.59407933 11.3034115,5.79563073 L11.3034115,15.1677237 C11.3034115,15.3814904 11.3371834,15.5616624 11.4047281,15.7082452 C11.4722729,15.8548281 11.605892,15.9830861 11.8055895,16.0930233 C11.9054383,16.1479918 12.0831077,16.2029596 12.3386031,16.2579281 C12.5940985,16.3128967 12.7952614,16.3434343 12.9420978,16.3495419 L12.9420978,17 Z M19.4777544,17 L14.4329695,17 L14.4329695,16.2385874 C14.5298815,16.122882 14.6644796,15.9931819 14.8367677,15.8494832 C15.0090557,15.7057845 15.2136447,15.5499578 15.4505408,15.3819983 C15.5941142,15.2812226 15.7663997,15.1711175 15.9674025,15.0516796 C16.1684052,14.9322417 16.3963246,14.8016085 16.6511673,14.6597761 C16.9347248,14.5030139 17.1527736,14.3649159 17.3053203,14.245478 C17.4578671,14.1260402 17.5969517,13.9786113 17.7225784,13.8031869 C17.8051331,13.6874815 17.8715348,13.5428519 17.9217855,13.3692937 C17.9720362,13.1957356 17.9971612,12.9484656 17.9971612,12.6274763 C17.9971612,12.1609222 17.8769203,11.8184765 17.6364348,11.6001292 C17.3959494,11.3817819 17.0872712,11.2726098 16.7103911,11.2726098 C16.4770843,11.2726098 16.2563435,11.3201976 16.0481621,11.4153747 C15.8399807,11.5105517 15.683847,11.642118 15.5797563,11.8100775 C15.6048816,11.9295154 15.6362878,12.0713457 15.6739758,12.2355728 C15.7116638,12.3997998 15.7305076,12.5602921 15.7305076,12.7170543 C15.7305076,12.8588867 15.6739764,12.9848545 15.5609123,13.0949612 C15.4478483,13.205068 15.2800494,13.2601206 15.0575106,13.2601206 C14.8780439,13.2601206 14.7398566,13.1957371 14.6429445,13.0669681 C14.5460325,12.9381992 14.4975772,12.7655767 14.4975772,12.5490956 C14.4975772,12.3475442 14.5514164,12.1450627 14.6590965,11.9416451 C14.7667765,11.7382275 14.9211156,11.5506756 15.1221183,11.3789836 C15.3195318,11.2110241 15.5636029,11.0747924 15.854339,10.9702842 C16.1450751,10.8657761 16.4591372,10.8135228 16.7965347,10.8135228 C17.5323483,10.8135228 18.1165038,10.9842791 18.5490186,11.3257967 C18.9815335,11.6673144 19.1977877,12.1235975 19.1977877,12.6946598 C19.1977877,12.9671274 19.1592029,13.2153305 19.0820322,13.4392765 C19.0048615,13.6632225 18.880134,13.8610385 18.7078459,14.0327304 C18.5176112,14.2230845 18.2950758,14.386376 18.040233,14.5226098 C17.7853902,14.6588436 17.3959532,14.8482618 16.8719103,15.0908699 C16.5596382,15.2364348 16.2689064,15.3885292 15.9997063,15.5471576 C15.7305062,15.705786 15.5097654,15.8597466 15.3374774,16.0090439 L19.4777544,16.0090439 L19.4777544,17 Z" id="heading-two"></path>
</svg>