<svg width="20px" height="20px" viewBox="0 0 20 20">
        <path d="M19.8475194,2.55020472 L17.4403482,0.148177033 C17.4403482,0.148177033 16.8463708,-0.444531098 15.6584162,0.740885163 C14.4704615,1.92630142 5.49827775,9.69389745 5.49827775,9.69389745 L5.96720721,10.1618249 C7.96797294,8.29011503 15.3457965,1.61434978 15.6896782,1.30239813 C15.7522021,1.2400078 15.845988,1.2400078 15.8772499,1.30239813 C15.9397739,1.36478846 15.9397739,1.45837395 15.8772499,1.48956912 C15.783464,1.55195945 8.21806865,8.44609086 6.18604096,10.3489959 L10.3126203,14.4667577 C10.3126203,14.4667577 18.0968494,5.51374537 19.2848041,4.32832911 C20.4414967,3.14291285 19.8475194,2.55020472 19.8475194,2.55020472 L19.8475194,2.55020472 Z M3.93517952,12.9381946 C4.18527524,12.4702671 4.7479906,11.4720218 5.37322989,10.7857282 L4.90430042,10.3178007 C4.90430042,10.3178007 3.12236845,12.0959251 3.71634577,12.7198284 L3.93517952,12.9381946 L3.93517952,12.9381946 Z M5.56080167,10.9728992 C4.98835182,11.6012485 4.44210785,12.5695462 4.20998924,13.0158796 C4.18858402,13.0570389 4.16985011,13.0937596 4.15401327,13.1253656 C4.15401327,13.1253656 4.28529774,13.2563695 4.35093997,13.3218715 C5.33778387,14.3066067 7.31147168,16.2760772 7.31147168,16.2760772 C7.90544901,16.8687853 9.68738098,15.0906609 9.68738098,15.0906609 L5.56080167,10.9728992 Z M6.68623239,16.8687853 L3.12236845,13.3125366 L3.12236845,14.4979528 L5.52953971,16.8999805 L6.68623239,16.8999805 L6.68623239,16.8687853 Z M1.99693773,19.1460324 C2.30955737,18.896471 2.52839112,18.6781049 2.52839112,18.6781049 L4.93556239,17.4926886 L2.49712916,15.0906609 L1.30917451,17.4926886 C1.30917451,17.4926886 -0.472757462,19.270813 0.121219862,19.8947163 C0.215005755,19.9883018 0.371315578,20.019497 0.558887364,19.9883018 L0.558887364,19.9883018 L11.5630988,19.9883018 L10.7190258,19.1460324 L1.99693773,19.1460324 L1.99693773,19.1460324 Z" id="highlighter" />
</svg>