<svg width="20px" height="20px" viewBox="0 0 20 20" version="1.1" xmlns="http://www.w3.org/2000/svg">
            <path d="M10,20 C4.4771525,20 0,15.5228475 0,10 C0,4.4771525 4.4771525,0 10,0 C15.5228475,0 20,4.4771525 20,10 C20,15.5228475 15.5228475,20 10,20 Z M10.8190013,9.21766323 C9.62514934,9.86933828 8.8771485,11.1786244 9.02624841,12.5972153 C9.07596751,13.070261 9.50587761,13.4127912 9.98647947,13.3622779 C10.4670813,13.3117646 10.8163808,12.8873362 10.7666617,12.4142904 C10.6978618,11.7597028 11.0110875,11.151662 11.528998,10.8056522 C12.72285,10.1539771 13.4708508,8.84469096 13.3217509,7.42610013 C13.1228745,5.53391728 11.4032341,4.16379645 9.48082663,4.36584962 C7.55841917,4.56790279 6.1612212,6.26561652 6.36009763,8.15779938 C6.40981674,8.63084509 6.83972684,8.9733753 7.3203287,8.92286201 C7.80093057,8.87234871 8.15023006,8.44792028 8.10051095,7.97487457 C8.00107274,7.02878314 8.69967172,6.17992627 9.66087545,6.07889969 C10.6220792,5.97787311 11.4818994,6.66293352 11.5813376,7.60902495 C11.6501375,8.26361256 11.3369118,8.87165335 10.8190013,9.21766323 L10.8190013,9.21766323 Z M10,14 C9.44771525,14 9,14.4477153 9,15 C9,15.5522847 9.44771525,16 10,16 C10.5522847,16 11,15.5522847 11,15 C11,14.4477153 10.5522847,14 10,14 Z" id="Combined-Shape"></path>
</svg>