<svg xmlns="http://www.w3.org/2000/svg" xmlns:xlink="http://www.w3.org/1999/xlink" width="20" height="20" viewBox="0 0 20 20">
    <defs>
        <path id="a" d="M10 0c5.523 0 10 4.477 10 10s-4.477 10-10 10S0 15.523 0 10 4.477 0 10 0zm0 1a9 9 0 1 0 0 18 9 9 0 0 0 0-18zm0 13a1 1 0 1 1 0 2 1 1 0 0 1 0-2zm3.322-6.574c.149 1.419-.6 2.728-1.793 3.38a1.719 1.719 0 0 0-.762 1.608c.05.473-.3.898-.78.948a.868.868 0 0 1-.96-.765c-.15-1.418.598-2.728 1.792-3.38.518-.345.831-.953.762-1.608-.1-.946-.959-1.631-1.92-1.53-.961.1-1.66.95-1.56 1.896.05.473-.3.897-.78.948a.868.868 0 0 1-.96-.765c-.2-1.892 1.197-3.59 3.12-3.792 1.922-.202 3.642 1.168 3.84 3.06z"/>
    </defs>
    <g fill="none" fill-rule="evenodd">
        <mask id="b" fill="#fff">
            <use xlink:href="#a"/>
        </mask>
        <use fill="#000" fill-rule="nonzero" xlink:href="#a"/>
        <g fill="#FFF" mask="url(#b)">
            <path d="M0 0h20v20H0z"/>
        </g>
    </g>
</svg>
