<svg width="20px" height="20px" viewBox="0 0 20 20">
         <path d="M16.0041915,20 L12.5,20 C12.2238576,20 12,19.7761424 12,19.5 L12,19.5 L12,14.5 C12,14.2238576 11.7761424,14 11.5,14 L8.5,14 C8.22385763,14 8,14.2238576 8,14.5 L8,19.5 C8,19.7761424 7.77614237,20 7.5,20 L3.99580851,20 C3.44583866,20 3,19.555163 3,19.0044225 L3,11 L10,5 L17,11 L17,19.0044225 C17,19.5542648 16.5510798,20 16.0041915,20 Z M17,2.99769878 L17,5.68994379 L19.6523203,7.96187206 C20.0655454,8.31583303 20.1173164,8.94732854 19.770605,9.36913158 L19.1387055,10.1378895 C18.7908072,10.5611365 18.1706433,10.6146045 17.7605696,10.263343 L10.0023142,3.61776564 L2.23888477,10.2677749 C1.82565964,10.6217359 1.20746028,10.5641245 0.860748881,10.1423215 L0.228849356,9.37356353 C-0.119048946,8.95031653 -0.0629396433,8.31756552 0.347134045,7.96630402 L9.31724923,0.282670116 C9.6735007,-0.0712812502 10.2430573,-0.0979276626 10.6277375,0.23158223 L15,3.97678098 L15,2.99769878 C15,2.72282734 15.2216766,2.5 15.5046844,2.5 L16.4953156,2.5 C16.7740451,2.5 17,2.7278322 17,2.99769878 Z" id="home" />
</svg>