<svg width="20px" height="20px" viewBox="0 0 20 20" version="1.1" xmlns="http://www.w3.org/2000/svg">
            <path d="M6.48484848,14.125 L5.69319012,13.1919741 C5.66110396,13.1541582 5.62597715,13.1190314 5.58816132,13.0869453 C5.20532298,12.7621127 4.6316424,12.8091357 4.30680988,13.1919741 L2.45337973,15.3763739 C2.38368636,15.4585125 2.34542934,15.5627331 2.34542934,15.6704545 C2.34542934,15.9214931 2.54893627,16.125 2.79997479,16.125 L4.54545455,16.125 L6.36363636,16.125 L4.54545455,16.125 Z M1.81818182,3 L18.1818182,3 L18.1818182,3 C19.1859723,3 20,3.81402773 20,4.81818182 L20,16.1818182 L20,16.1818182 C20,17.1859723 19.1859723,18 18.1818182,18 L1.81818182,18 L1.81818182,18 C0.814027728,18 3.45018014e-16,17.1859723 2.22044605e-16,16.1818182 L0,4.81818182 L2.22044605e-16,4.81818182 C9.90711956e-17,3.81402773 0.814027728,3 1.81818182,3 L1.81818182,3 Z M1.81818182,3.9375 L1.81818182,3.9375 C1.31610477,3.9375 0.909090909,4.34451386 0.909090909,4.84659091 L0.909090909,16.1534091 C0.909090909,16.6554861 1.31610477,17.0625 1.81818182,17.0625 L18.1818182,17.0625 C18.6838952,17.0625 19.0909091,16.6554861 19.0909091,16.1534091 L19.0909091,4.84659091 C19.0909091,4.34451386 18.6838952,3.9375 18.1818182,3.9375 L18.1818182,3.9375 L1.81818182,3.9375 Z M12.4708185,10.2355316 L17.4342057,15.3540246 C17.6089651,15.5342453 17.6045379,15.8220135 17.4243173,15.9967729 C17.3395104,16.0790098 17.2260191,16.125 17.1078873,16.125 L6.5284763,16.125 C6.27743778,16.125 6.07393085,15.9214931 6.07393085,15.6704545 C6.07393085,15.5523228 6.11992102,15.4388314 6.20215794,15.3540246 L11.1655451,10.2355316 L11.1655451,10.2355316 C11.5150639,9.87509031 12.0906004,9.8662359 12.4510417,10.2157547 C12.457735,10.2222452 12.4643281,10.2288383 12.4708185,10.2355316 L12.4708185,10.2355316 Z M4.09090909,8.625 C3.33779352,8.625 2.72727273,7.99540043 2.72727273,7.21875 C2.72727273,6.44209957 3.33779352,5.8125 4.09090909,5.8125 C4.84402466,5.8125 5.45454545,6.44209957 5.45454545,7.21875 C5.45454545,7.99540043 4.84402466,8.625 4.09090909,8.625 Z" id="image"></path>
</svg>