<svg width="20px" height="20px" viewBox="0 0 20 20" version="1.1" xmlns="http://www.w3.org/2000/svg">
                <path d="M10.4344642,13.6 L1.73991739,13.6 C0.778987549,13.6 0,12.8396633 0,11.8981905 L0,1.70180952 C0,0.761926076 0.779604885,0 1.73991739,0 L17.3905174,0 C18.3514472,0 19.1304348,0.760336693 19.1304348,1.70180952 L19.1304348,11.8981905 C19.1304348,12.4925903 18.8186292,13.0158155 18.3465018,13.3201582 L17.8568515,12.841525 C17.9080578,12.7339993 17.9547973,12.6240306 17.996837,12.5118468 C18.1597865,12.3579964 18.2608696,12.1423974 18.2608696,11.9037212 L18.2608696,1.69627883 C18.2608696,1.23245644 17.8720792,0.85 17.3924819,0.85 L1.73795288,0.85 C1.25719123,0.85 0.869565217,1.22889194 0.869565217,1.69627883 L0.869565217,11.9037212 C0.869565217,12.3675436 1.25835562,12.75 1.73795288,12.75 L9.92699451,12.75 C10.0626303,13.0534524 10.2334688,13.3384298 10.4344642,13.6 L10.4344642,13.6 Z" id="Combined-Shape"></path>
                <path d="M16.8883897,12.8119858 L19.7544843,15.6135932 C20.0797263,15.9315172 20.0831039,16.4436723 19.7569853,16.7624532 C19.4331247,17.079027 18.9061311,17.0771584 18.581681,16.7600084 L15.7155865,13.958401 C15.1899149,14.2703689 14.5729396,14.45 13.9130435,14.45 C11.992053,14.45 10.4347826,12.9277681 10.4347826,11.05 C10.4347826,9.17223185 11.992053,7.65 13.9130435,7.65 C15.8340339,7.65 17.3913043,9.17223185 17.3913043,11.05 C17.3913043,11.6950484 17.2075385,12.2981418 16.8883897,12.8119858 L16.8883897,12.8119858 Z M13.9130435,13.175 C15.1136625,13.175 16.0869565,12.2236051 16.0869565,11.05 C16.0869565,9.87639491 15.1136625,8.925 13.9130435,8.925 C12.7124245,8.925 11.7391304,9.87639491 11.7391304,11.05 C11.7391304,12.2236051 12.7124245,13.175 13.9130435,13.175 Z" id="magnifying-glass"></path>
                <path d="M12.4324999,7.05276865 C10.7601686,7.64474573 9.56521739,9.21096479 9.56521739,11.05 C9.56521739,11.341096 9.59515675,11.6253566 9.65218967,11.9 L5.65066731,11.9 C5.41137558,11.9 5.35596257,11.7645466 5.52761275,11.5967585 L10.6872004,6.55326157 C11.0280415,6.2200894 11.5817088,6.22112032 11.9214952,6.55326157 L12.4324999,7.05276865 L12.4324999,7.05276865 Z M4.21015371,9.13951399 C4.52631187,8.78632017 5.03750912,8.78476018 5.35431163,9.13867385 L6.20838607,10.092797 L4.34782609,11.9 L2.16990346,11.9 C1.93199409,11.9 1.86990489,11.7539063 2.02545348,11.5801363 L4.21015371,9.13951399 Z M3.91304348,5.1 C3.19267207,5.1 2.60869565,4.52916306 2.60869565,3.825 C2.60869565,3.12083694 3.19267207,2.55 3.91304348,2.55 C4.63341489,2.55 5.2173913,3.12083694 5.2173913,3.825 C5.2173913,4.52916306 4.63341489,5.1 3.91304348,5.1 Z" id="image-thumb"></path>
</svg>