<svg width="20px" height="20px" viewBox="0 0 20 20">
            <path d="M10,20 C4.4771525,20 0,15.5228475 0,10 C0,4.4771525 4.4771525,0 10,0 C15.5228475,0 20,4.4771525 20,10 C20,15.5228475 15.5228475,20 10,20 Z M10,8.18181818 C9.49792295,8.18181818 9.09090909,8.58883205 9.09090909,9.09090909 L9.09090909,14.5454545 C9.09090909,15.0475316 9.49792295,15.4545455 10,15.4545455 C10.502077,15.4545455 10.9090909,15.0475316 10.9090909,14.5454545 L10.9090909,9.09090909 C10.9090909,8.58883205 10.502077,8.18181818 10,8.18181818 Z M10,4.54545455 C9.49792295,4.54545455 9.09090909,4.95246841 9.09090909,5.45454545 C9.09090909,5.9566225 9.49792295,6.36363636 10,6.36363636 C10.502077,6.36363636 10.9090909,5.9566225 10.9090909,5.45454545 L10.9090909,5.45454545 C10.9090909,4.95246841 10.502077,4.54545455 10,4.54545455 Z" id="instructions-on" />
</svg>