<svg width="20px" height="20px" viewBox="0 0 20 20" version="1.1" xmlns="http://www.w3.org/2000/svg">
             <path d="M17,0 L16.7981366,0.930232558 C16.5200124,0.939628894 16.156662,0.981911769 15.7080745,1.05708245 C15.2594871,1.13225314 14.9275373,1.20272459 14.7122153,1.26849894 C14.3354018,1.3906513 14.0662534,1.57857519 13.9047619,1.83227625 C13.7432704,2.08597731 13.6266394,2.36316505 13.5548654,2.66384778 L10.3250518,17.2797745 C10.3071083,17.3455488 10.2936508,17.4207184 10.2846791,17.5052854 C10.2757073,17.5898524 10.2712215,17.665022 10.2712215,17.7307963 C10.2712215,17.9469121 10.3160796,18.1301378 10.4057971,18.2804792 C10.4955146,18.4308206 10.6570037,18.5623673 10.8902692,18.6751233 C11.0248454,18.7408977 11.3209087,18.8184163 11.7784679,18.9076815 C12.2360271,18.9969467 12.5769485,19.0509748 12.8012422,19.0697674 L12.5993789,20 L4,20 L4.20186335,19.0697674 C4.45307234,19.0509748 4.81193694,19.0227862 5.27846791,18.9852008 C5.74499888,18.9476155 6.07694863,18.8912383 6.27432712,18.8160677 C6.62422535,18.684519 6.88888799,18.5036422 7.06832298,18.273432 C7.24775797,18.0432218 7.36887477,17.763685 7.43167702,17.4348132 L10.6480331,2.80479211 C10.6659766,2.72022509 10.679434,2.63565934 10.6884058,2.55109232 C10.6973775,2.4665253 10.7018634,2.38195955 10.7018634,2.29739253 C10.7018634,2.10946582 10.663734,1.94503242 10.5874741,1.80408739 C10.5112142,1.66314235 10.3519681,1.53629373 10.1097308,1.4235377 C9.86749361,1.31078168 9.53778677,1.20507449 9.12060041,1.10641297 C8.70341406,1.00775144 8.39613625,0.949025229 8.19875776,0.930232558 L8.40062112,0 L17,0 Z" id="italic"></path>
</svg>