<?xml version="1.0" encoding="UTF-8"?>
<svg viewBox="0 0 220 220" xmlns="http://www.w3.org/2000/svg" xmlns:xlink="http://www.w3.org/1999/xlink">
<defs>
<path id="a" d="m19.024 63h194.95c0.56552 0 1.024 0.45845 1.024 1.024v53.952c0 0.56552-0.45845 1.024-1.024 1.024h-194.95c-0.56553 0-1.024-0.45845-1.024-1.024v-53.952c0-0.56553 0.45845-1.024 1.024-1.024z"/>
<filter id="b" x="-11.2%" y="-35.7%" width="122.3%" height="178.6%">
<feOffset dx="0" dy="2" in="SourceAlpha" result="shadowOffsetOuter1"/>
<feGaussianBlur in="shadowOffsetOuter1" result="shadowBlurOuter1" stdDeviation="7"/>
<feColorMatrix in="shadowBlurOuter1" values="0 0 0 0 0   0 0 0 0 0   0 0 0 0 0  0 0 0 0.2 0"/>
</filter>
</defs>
<g fill="none" fill-rule="evenodd">
<circle cx="110" cy="110" r="110" fill="#FBE3F2"/>
<path d="m179.16 191c0.46454 0 0.84223 0.37658 0.84223 0.84112v3.0147c-19.019 15.707-43.408 25.144-70.001 25.144-28.702 0-54.836-10.993-74.423-28.997l143.58-0.002553z" fill="#FDF6FB"/>
<path d="m49 197-7.53e-4 4.5504c-2.1614-1.443-4.2687-2.9605-6.3185-4.5488l6.3192-0.001563z" fill="#EDF4FA"/>
<path d="m124 209c1.1046 0 2 0.89543 2 2v4c0 1.1046-0.89543 2-2 2l-39.608 0.00359c-7.8213-1.8649-15.318-4.565-22.392-8.0009l62-0.002692z" fill="#ECE8EE"/>
<path d="m179.16 143c0.46454 0 0.84112 0.37658 0.84112 0.84112v42.318c0 0.46454-0.37658 0.84112-0.84112 0.84112l-147.71 0.002521c-11.992-12.232-21.15-27.254-26.411-44.002l174.12-9.19e-4z" fill="#fff"/>
<path d="m49 150v32l-22.162 0.002732c-8.151-9.4061-14.733-20.209-19.338-32.002l41.501-9.5e-4z" fill="#EDF4FA"/>
<path d="m21 158v1h14v-1h2.997c0.55394 0 1.003 0.44906 1.003 1.003v13.994c0 0.55394-0.44906 1.003-1.003 1.003h-2.997v-1h-14v1l-0.47398 0.00206c-0.47399-0.66146-0.94083-1.3284-1.4004-2.0007l0.37289-0.001386c0.2462 0 0.45096-0.17741 0.49342-0.41136l0.0080798-0.090145v-0.997c0-0.2462-0.17741-0.45096-0.41135-0.49342l-0.090145-0.00808h-0.997c-0.22484 0-0.41511 0.14796-0.47878 0.35182-0.34748-0.52382-0.68912-1.0533-1.0263-1.5858l0.0035989-9.763c0-0.55394 0.44906-1.003 1.003-1.003h2.997zm14 2h-14v12h14v-12zm2.4985 10h-0.997c-0.2462 0-0.45096 0.17741-0.49342 0.41136l-0.0080798 0.090145v0.997c0 0.2462 0.17741 0.45096 0.41135 0.49342l0.090145 0.00808h0.997c0.2462 0 0.45096-0.17741 0.49342-0.41136l0.0080798-0.090145v-0.997c0-0.2462-0.17741-0.45096-0.41135-0.49342l-0.090145-0.00808zm-10.997-5.6901c0.077855 0 0.15464 0.018127 0.22428 0.052945l2.3771 1.1886c0.24773 0.12386 0.34814 0.4251 0.22428 0.67283-0.048527 0.097054-0.12722 0.17575-0.22428 0.22428l-2.3771 1.1886c-0.24773 0.12386-0.54897 0.023453-0.67283-0.22428-0.034818-0.069636-0.052945-0.14642-0.052945-0.22428v-2.3771c0-0.27697 0.22453-0.5015 0.5015-0.5015zm-7.003 0.69006h-0.997c-0.2462 0-0.45096 0.17741-0.49342 0.41136l-0.0080798 0.090145v0.997c0 0.2462 0.17741 0.45096 0.41135 0.49342l0.090145 0.00808h0.997c0.2462 0 0.45096-0.17741 0.49342-0.41136l0.0080798-0.090145v-0.997c0-0.2462-0.17741-0.45096-0.41135-0.49342l-0.090145-0.00808zm18 0h-0.997c-0.2462 0-0.45096 0.17741-0.49342 0.41136l-0.0080798 0.090145v0.997c0 0.2462 0.17741 0.45096 0.41135 0.49342l0.090145 0.00808h0.997c0.2462 0 0.45096-0.17741 0.49342-0.41136l0.0080798-0.090145v-0.997c0-0.2462-0.17741-0.45096-0.41135-0.49342l-0.090145-0.00808zm-18-5h-0.997c-0.2462 0-0.45096 0.17741-0.49342 0.41136l-0.0080798 0.090145v0.997c0 0.2462 0.17741 0.45096 0.41135 0.49342l0.090145 0.00808h0.997c0.2462 0 0.45096-0.17741 0.49342-0.41136l0.0080798-0.090145v-0.997c0-0.2462-0.17741-0.45096-0.41135-0.49342l-0.090145-0.00808zm18 0h-0.997c-0.2462 0-0.45096 0.17741-0.49342 0.41136l-0.0080798 0.090145v0.997c0 0.2462 0.17741 0.45096 0.41135 0.49342l0.090145 0.00808h0.997c0.2462 0 0.45096-0.17741 0.49342-0.41136l0.0080798-0.090145v-0.997c0-0.2462-0.17741-0.45096-0.41135-0.49342l-0.090145-0.00808z" fill="#4B96CC"/>
<rect x="55" y="161" width="71" height="8" rx="2" fill="#AAB3BB" fill-opacity=".29644"/>
<path d="m178 95c1.1046 0 2 0.89543 2 2v40c0 1.1046-0.89543 2-2 2l-174.14 0.001859c-2.5189-9.2397-3.8634-18.964-3.8634-29.002 0-4.991 0.3324-9.9044 0.97628-14.719 0.30074-0.1784 0.65028-0.28075 1.0237-0.28075h176z" fill="#D7C8D6"/>
<path d="m179.16 47c0.46454 0 0.84112 0.37658 0.84112 0.84112v42.318c0 0.46454-0.37658 0.84112-0.84112 0.84112l-177.52-0.001324c2.8122-16.15 9.1468-31.091 18.183-44.002l159.34 0.0028298z" fill="#fff"/>
<path d="m49 53v32h-43l-0.0025803-10.917c2.562-7.4199 5.8957-14.48 9.9051-21.085l33.097 0.0019073z" fill="#EDF4FA"/>
<path d="m36.061 61c1.0711 0 1.9394 0.8683 1.9394 1.9394v12.121c0 1.0711-0.8683 1.9394-1.9394 1.9394h-17.121c-1.0711 0-1.9394-0.8683-1.9394-1.9394v-12.121c0-1.0711 0.8683-1.9394 1.9394-1.9394h17.121zm0.015152 1h-17.152c-0.53555 0-0.9697 0.43415-0.9697 0.9697v12.061c0 0.53555 0.43415 0.9697 0.9697 0.9697h17.152c0.53555 0 0.9697-0.43415 0.9697-0.9697v-12.061c0-0.53555-0.43415-0.9697-0.9697-0.9697zm-13.204 9.7684c0.044458 0.037132 0.085499 0.078174 0.12263 0.12263l0.81475 0.97493-2.0363 2.134h-1.827c-0.26777 0-0.48485-0.21707-0.48485-0.48485 0-0.11361 0.039896-0.22361 0.11272-0.31081l1.9321-2.3133c0.34331-0.41104 0.95483-0.46594 1.3659-0.12263zm7.207-3.0655 0.031884 0.031884 5.198 5.4455c0.18489 0.1937 0.17775 0.5006-0.015942 0.68549-0.090194 0.086094-0.21009 0.13413-0.33478 0.13413h-11.097c-0.26777 0-0.48485-0.21707-0.48485-0.48485 0-0.12469 0.048037-0.24458 0.13413-0.33478l5.198-5.4455c0.36978-0.38739 0.9836-0.40167 1.371-0.031884zm-8.7832-4.703c0.79077 0 1.4318 0.67157 1.4318 1.5s-0.64105 1.5-1.4318 1.5c-0.79077 0-1.4318-0.67157-1.4318-1.5s0.64105-1.5 1.4318-1.5z" fill="#4B96CC"/>
<path d="m110 0c26.593 0 50.982 9.4367 70.001 25.144v17.015c0 0.46454-0.3777 0.84112-0.84223 0.84112l-156.41-0.0019314c20.11-26.147 51.71-42.998 87.247-42.998z" fill="#FDF6FB"/>
<rect x="55" y="17" width="71" height="8" rx="2" fill="#AAB3BB" fill-opacity=".19644"/>
<path d="m48.999 18.45 7.53e-4 18.55-21.287-7.272e-4c6.2616-7.0529 13.416-13.295 21.286-18.55z" fill="#EDF4FA"/>
<path d="m39.467 25.586 7.224e-4 8.0134c0 0.037037-0.017348 0.067062-0.068663 0.067062l-8.6017-0.0013207" fill="#fff" stroke="#D7D7D7" stroke-width=".5"/>
<path d="m200.56 0.48809c0.24457-0.6509 0.64117-0.65067 0.88565 0l2.2038 5.8653 5.8653 2.2038c0.6509 0.24457 0.65067 0.64117 0 0.88565l-5.8653 2.2038-2.2038 5.8653c-0.24457 0.6509-0.64117 0.65067-0.88565 0l-2.2038-5.8653-5.8653-2.2038c-0.6509-0.24457-0.65067-0.64117 0-0.88565l5.8653-2.2038 2.2038-5.8653z" fill="#EE84C4"/>
<path d="m214.75 20.271c0.13587-0.36161 0.35621-0.36148 0.49203 0l1.2243 3.2585 3.2585 1.2243c0.36161 0.13587 0.36148 0.35621 0 0.49203l-3.2585 1.2243-1.2243 3.2585c-0.13587 0.36161-0.35621 0.36148-0.49203 0l-1.2243-3.2585-3.2585-1.2243c-0.36161-0.13587-0.36148-0.35621 0-0.49203l3.2585-1.2243 1.2243-3.2585z" fill="#EE84C4" opacity=".47221"/>
<path d="m9.754 201.27c0.13587-0.36161 0.35621-0.36148 0.49203 0l1.2243 3.2585 3.2585 1.2243c0.36161 0.13587 0.36148 0.35621 0 0.49203l-3.2585 1.2243-1.2243 3.2585c-0.13587 0.36161-0.35621 0.36148-0.49203 0l-1.2243-3.2585-3.2585-1.2243c-0.36161-0.13587-0.36148-0.35621 0-0.49203l3.2585-1.2243 1.2243-3.2585z" fill="#EE84C4"/>
<use fill="black" filter="url(#b)" xlink:href="#a"/>
<use fill="#FFFFFF" fill-rule="evenodd" xlink:href="#a"/>
<rect x="26" y="71" width="53" height="40" fill="#EDF4FA"/>
<path d="m73.499 103.48-18.986 0.01635-0.012073-4.9828 18.986-0.016351 0.012073 4.9828z" fill="#fff" stroke="#ECECEC"/>
<path d="m50.499 103.48-18.986 0.01635-0.012073-4.9828 18.986-0.016351 0.012073 4.9828z" fill="#fff" stroke="#ECECEC"/>
<rect id="e" x="36" y="93" width="32" height="3" rx=".5" fill="#536777" fill-opacity=".25"/>
<rect id="c" x="31" y="93" width="3" height="3" rx=".5" fill="#93A0AA" fill-opacity=".4"/>
<path id="d" d="m73.499 88.483-18.986 0.016351-0.012073-4.9828 18.986-0.016351 0.012073 4.9828z" fill="#fff" stroke="#ECECEC"/>
<path d="m50.499 88.483-18.986 0.016351-0.012073-4.9828 18.986-0.016351 0.012073 4.9828z" fill="#fff" stroke="#ECECEC"/>
<rect x="36" y="78" width="26" height="3" rx=".5" fill="#536777" fill-opacity=".25"/>
<rect x="31" y="78" width="3" height="3" rx=".5" fill="#93A0AA" fill-opacity=".4"/>
<path d="m91.229 95.363v-3.9005h1.8553c0.50643 0 0.96904-0.080348 1.3878-0.24104 0.41878-0.1607 0.77913-0.38226 1.081-0.6647 0.30191-0.28243 0.53322-0.6233 0.69391-1.0226 0.1607-0.3993 0.24104-0.8327 0.24104-1.3002 0-0.46748-0.080348-0.89843-0.24104-1.2929-0.1607-0.39443-0.392-0.7353-0.69391-1.0226-0.30191-0.2873-0.66226-0.5113-1.081-0.672-0.41878-0.1607-0.88139-0.24104-1.3878-0.24104h-3.8713v10.358h2.016zm1.607-5.639h-1.5923v-2.9656h1.5923c0.50643 0 0.9033 0.13148 1.1906 0.39443 0.2873 0.26296 0.43096 0.62817 0.43096 1.0957 0 0.448-0.14365 0.80591-0.43096 1.0737-0.2873 0.26783-0.68417 0.40174-1.1906 0.40174zm6.9391 5.639v-3.287c0-0.38957 0.05113-0.71339 0.15339-0.97148 0.10226-0.25809 0.23617-0.46504 0.40174-0.62087s0.36035-0.26783 0.58435-0.336 0.46261-0.10226 0.71583-0.10226c0.19478 0 0.38956 0.019478 0.58435 0.058435v-1.9576c-0.077913-0.0097392-0.15339-0.017044-0.22644-0.021913-0.073043-0.0048695-0.14852-0.0073043-0.22644-0.0073043-0.15583 0-0.3287 0.014609-0.51861 0.043826s-0.37983 0.082783-0.56974 0.1607c-0.18991 0.077913-0.37009 0.19235-0.54052 0.3433-0.17044 0.15096-0.30922 0.3433-0.41635 0.57704v-1.0664h-1.8845v7.1875h1.943zm5.7704 0.20452c0.53565 0 0.97635-0.10713 1.3221-0.32139 0.34574-0.21426 0.61113-0.46261 0.79617-0.74504 0 0.13635 0.007305 0.28974 0.021913 0.46017 0.014609 0.17043 0.031653 0.30435 0.051131 0.40174h1.7823c-0.019479-0.12661-0.038957-0.29948-0.058435-0.51861-0.019478-0.21913-0.029217-0.42609-0.029217-0.62087v-3.5353c0-0.36035-0.056-0.70609-0.168-1.0372-0.112-0.33113-0.29217-0.62087-0.54052-0.86922-0.24835-0.24835-0.57217-0.448-0.97148-0.59896-0.3993-0.15096-0.88139-0.22643-1.4463-0.22643-0.48696 0-0.91548 0.070609-1.2856 0.21183s-0.68174 0.32383-0.93496 0.54783-0.45287 0.47722-0.59896 0.75965-0.23374 0.56487-0.26296 0.8473l1.7238 0.36522c0.029217-0.31165 0.15826-0.58435 0.38713-0.81809 0.22887-0.23374 0.55757-0.35061 0.98609-0.35061 0.40904 0 0.71339 0.092522 0.91304 0.27757s0.29948 0.40417 0.29948 0.65739c0 0.12661-0.038956 0.23617-0.11687 0.3287-0.077914 0.092522-0.21913 0.15339-0.42365 0.18261l-1.7677 0.26296c-0.30191 0.048696-0.58191 0.12661-0.84 0.23374-0.25809 0.10713-0.48452 0.25322-0.6793 0.43826-0.19478 0.18504-0.34817 0.40174-0.46017 0.65009s-0.168 0.53322-0.168 0.85461c0 0.28243 0.056 0.5527 0.168 0.81078 0.112 0.25809 0.27513 0.48696 0.48939 0.68661s0.47478 0.36035 0.78156 0.48209c0.30678 0.12174 0.65009 0.18261 1.0299 0.18261zm0.40904-1.4463c-0.31165 0-0.54539-0.085217-0.70122-0.25565-0.15583-0.17043-0.23374-0.36278-0.23374-0.57704 0-0.28243 0.085218-0.49426 0.25565-0.63548 0.17043-0.14122 0.38226-0.2313 0.63548-0.27026l1.6216-0.24835v0.32139c0 0.32139-0.043826 0.58678-0.13148 0.79617s-0.20452 0.37983-0.35061 0.5113c-0.14609 0.13148-0.31409 0.224-0.504 0.27757-0.18991 0.053565-0.38713 0.080348-0.59165 0.080348zm8.7506 1.4609c0.47722 0 0.90574-0.070609 1.2856-0.21183s0.71096-0.32626 0.99339-0.55513c0.28244-0.22887 0.51374-0.48696 0.69391-0.77426 0.18017-0.2873 0.30922-0.58191 0.38713-0.88383l-1.7092-0.56974c-0.038956 0.13635-0.099826 0.27757-0.18261 0.42365-0.082783 0.14609-0.19235 0.27757-0.3287 0.39443s-0.29948 0.21183-0.48939 0.28487c-0.18991 0.073043-0.40661 0.10957-0.65009 0.10957-0.25322 0-0.48939-0.043826-0.70852-0.13148-0.21913-0.087652-0.41391-0.21913-0.58435-0.39443-0.17044-0.1753-0.30435-0.38957-0.40174-0.64278s-0.14609-0.54052-0.14609-0.86191 0.048696-0.6087 0.14609-0.86191c0.097391-0.25322 0.22887-0.46504 0.39444-0.63548s0.35791-0.29948 0.57704-0.38713c0.21913-0.087652 0.4553-0.13148 0.70852-0.13148 0.47722 0 0.84 0.12661 1.0883 0.37983s0.41635 0.53078 0.504 0.8327l1.7384-0.58435c-0.077913-0.30191-0.20452-0.59896-0.37983-0.89113-0.1753-0.29217-0.40417-0.55026-0.68661-0.77426s-0.616-0.40661-1.0007-0.54783-0.82052-0.21183-1.3075-0.21183c-0.52591 0-1.0153 0.094956-1.4682 0.28487-0.45287 0.18991-0.8473 0.45287-1.1833 0.78887s-0.59896 0.73774-0.78887 1.2052c-0.18991 0.46748-0.28487 0.97878-0.28487 1.5339s0.097392 1.064 0.29217 1.5266c0.19478 0.46261 0.46261 0.86435 0.80348 1.2052 0.34087 0.34087 0.74261 0.60626 1.2052 0.79617 0.46261 0.18991 0.95687 0.28487 1.4828 0.28487zm7.655-0.11687c0.28244 0 0.51374-0.019478 0.69391-0.058435s0.31409-0.077913 0.40174-0.11687v-1.607c-0.048695 0.019478-0.13148 0.034087-0.24835 0.043826-0.11687 0.0097391-0.23374 0.014609-0.35061 0.014609-0.28244 0-0.49426-0.06087-0.63548-0.18261-0.14122-0.12174-0.21183-0.33843-0.21183-0.65009v-3.0094h1.4463v-1.7238h-1.4463v-2.1475h-1.753v1.008c0 0.32139-0.090087 0.59165-0.27026 0.81078s-0.46017 0.3287-0.84 0.3287h-0.36522v1.7238h1.3002v3.3454c0 0.70122 0.20452 1.2466 0.61356 1.6362 0.40904 0.38957 0.96417 0.58435 1.6654 0.58435zm3.623-8.4584c0.34087 0 0.62574-0.11687 0.85461-0.35061 0.22887-0.23374 0.3433-0.5113 0.3433-0.8327 0-0.34087-0.11444-0.62817-0.3433-0.86191-0.22887-0.23374-0.51374-0.35061-0.85461-0.35061-0.33113 0-0.61357 0.11687-0.8473 0.35061s-0.35061 0.52104-0.35061 0.86191c0 0.32139 0.11687 0.59896 0.35061 0.8327s0.51617 0.35061 0.8473 0.35061zm0.97878 8.3562v-7.1875h-1.943v7.1875h1.943zm5.3322 0.21913c0.47722 0 0.90574-0.070609 1.2856-0.21183 0.37983-0.14122 0.71096-0.32626 0.99339-0.55513 0.28244-0.22887 0.51374-0.48696 0.69391-0.77426 0.18017-0.2873 0.30922-0.58191 0.38713-0.88383l-1.7092-0.56974c-0.038957 0.13635-0.099826 0.27757-0.18261 0.42365-0.082782 0.14609-0.19235 0.27757-0.3287 0.39443-0.13635 0.11687-0.29948 0.21183-0.48939 0.28487-0.18991 0.073043-0.40661 0.10957-0.65009 0.10957-0.25322 0-0.48939-0.043826-0.70852-0.13148-0.21913-0.087652-0.41391-0.21913-0.58435-0.39443-0.17044-0.1753-0.30435-0.38957-0.40174-0.64278-0.097392-0.25322-0.14609-0.54052-0.14609-0.86191s0.048695-0.6087 0.14609-0.86191c0.097391-0.25322 0.22887-0.46504 0.39443-0.63548 0.16557-0.17043 0.35791-0.29948 0.57704-0.38713 0.21913-0.087652 0.4553-0.13148 0.70852-0.13148 0.47722 0 0.84 0.12661 1.0883 0.37983 0.24835 0.25322 0.41635 0.53078 0.504 0.8327l1.7384-0.58435c-0.077913-0.30191-0.20452-0.59896-0.37983-0.89113s-0.40417-0.55026-0.68661-0.77426c-0.28243-0.224-0.616-0.40661-1.0007-0.54783-0.3847-0.14122-0.82052-0.21183-1.3075-0.21183-0.52591 0-1.0153 0.094956-1.4682 0.28487-0.45287 0.18991-0.8473 0.45287-1.1833 0.78887s-0.59896 0.73774-0.78887 1.2052c-0.18991 0.46748-0.28487 0.97878-0.28487 1.5339s0.097391 1.064 0.29217 1.5266 0.46261 0.86435 0.80348 1.2052c0.34087 0.34087 0.74261 0.60626 1.2052 0.79617 0.46261 0.18991 0.95687 0.28487 1.4828 0.28487zm8.0494 0c0.43826 0 0.84-0.06087 1.2052-0.18261 0.36522-0.12174 0.68417-0.28487 0.95687-0.48939 0.2727-0.20452 0.504-0.44557 0.69391-0.72313 0.18991-0.27757 0.3287-0.57217 0.41635-0.88383l-1.6216-0.48209c-0.11687 0.32139-0.30435 0.58435-0.56244 0.78887-0.25809 0.20452-0.616 0.30678-1.0737 0.30678-0.24348 0-0.47235-0.041391-0.68661-0.12417-0.21426-0.082783-0.40174-0.19722-0.56244-0.3433-0.1607-0.14609-0.29217-0.31896-0.39444-0.51861s-0.15826-0.41635-0.168-0.65009h5.1423c0-0.019478 0.004869-0.090087 0.014609-0.21183 0.009739-0.12174 0.014608-0.25078 0.014608-0.38713 0-1.159-0.31165-2.0696-0.93496-2.7318-0.6233-0.66226-1.495-0.99339-2.615-0.99339-0.45774 0-0.90087 0.090087-1.3294 0.27026s-0.80591 0.43339-1.1322 0.75965c-0.32626 0.32626-0.58678 0.72313-0.78156 1.1906-0.19478 0.46748-0.29217 0.98852-0.29217 1.5631 0 0.60383 0.099826 1.1443 0.29948 1.6216s0.46991 0.88139 0.81078 1.2125c0.34087 0.33113 0.7353 0.58191 1.1833 0.75235s0.92035 0.25565 1.417 0.25565zm1.4609-4.631h-3.2139c0.009739-0.16557 0.05113-0.33113 0.12417-0.4967 0.073043-0.16557 0.17774-0.31652 0.31409-0.45287s0.30191-0.24835 0.4967-0.336c0.19478-0.087652 0.41878-0.13148 0.672-0.13148 0.2727 0 0.50887 0.041391 0.70852 0.12417s0.36522 0.18991 0.4967 0.32139c0.13148 0.13148 0.22887 0.28243 0.29217 0.45287 0.063304 0.17043 0.099826 0.3433 0.10956 0.51861z" fill="#556877" fill-rule="nonzero"/>
<path d="m190.6 95.8c0.88366 0 1.6 0.71634 1.6 1.6s-0.71634 1.6-1.6 1.6-1.6-0.71634-1.6-1.6 0.71634-1.6 1.6-1.6zm6.4 0c0.88366 0 1.6 0.71634 1.6 1.6s-0.71634 1.6-1.6 1.6-1.6-0.71634-1.6-1.6 0.71634-1.6 1.6-1.6zm6.4 0c0.88366 0 1.6 0.71634 1.6 1.6s-0.71634 1.6-1.6 1.6-1.6-0.71634-1.6-1.6 0.71634-1.6 1.6-1.6zm-12.8-6.4c0.88366 0 1.6 0.71634 1.6 1.6s-0.71634 1.6-1.6 1.6-1.6-0.71634-1.6-1.6 0.71634-1.6 1.6-1.6zm6.4 0c0.88366 0 1.6 0.71634 1.6 1.6s-0.71634 1.6-1.6 1.6-1.6-0.71634-1.6-1.6 0.71634-1.6 1.6-1.6zm6.4 0c0.88366 0 1.6 0.71634 1.6 1.6s-0.71634 1.6-1.6 1.6-1.6-0.71634-1.6-1.6 0.71634-1.6 1.6-1.6zm0-6.4c0.88366 0 1.6 0.71634 1.6 1.6s-0.71634 1.6-1.6 1.6-1.6-0.71634-1.6-1.6 0.71634-1.6 1.6-1.6zm-12.8 0c0.88366 0 1.6 0.71634 1.6 1.6s-0.71634 1.6-1.6 1.6-1.6-0.71634-1.6-1.6 0.71634-1.6 1.6-1.6zm6.4 0c0.88366 0 1.6 0.71634 1.6 1.6s-0.71634 1.6-1.6 1.6-1.6-0.71634-1.6-1.6 0.71634-1.6 1.6-1.6z" fill="#778692"/>
</g>
</svg>
