<?xml version="1.0" encoding="UTF-8"?>
<svg viewBox="0 0 220 220" xmlns="http://www.w3.org/2000/svg">
<g fill="none" fill-rule="evenodd">
<circle cx="110" cy="110" r="110" fill="#FBE3F2"/>
<path d="m167.16 15.996 0.004676 3e-3 48.839 5.436e-4c2.2091 0 4 1.7909 4 4v164c0 2.2091-1.7909 4.0009-4 4.0009h-183.56c-20.035-19.923-32.438-47.514-32.438-78.001 0-39.819 21.157-74.696 52.844-94.004h114.31z" fill="#4386B7"/>
<path d="m23.874 138.68c-0.058667-0.22733-0.13933-0.43633-0.242-0.627-0.10267-0.19067-0.23467-0.35567-0.396-0.495-0.16133-0.13933-0.35017-0.2475-0.5665-0.3245-0.21633-0.077-0.4675-0.1155-0.7535-0.1155-0.418 0-0.77917 0.084332-1.0835 0.253-0.30433 0.16867-0.55183 0.39416-0.7425 0.6765-0.19067 0.28234-0.33183 0.60316-0.4235 0.9625-0.091667 0.35934-0.1375 0.726-0.1375 1.1s0.045833 0.74066 0.1375 1.1c0.091667 0.35934 0.23283 0.68016 0.4235 0.9625 0.19067 0.28234 0.43817 0.50783 0.7425 0.6765 0.30433 0.16867 0.6655 0.253 1.0835 0.253 0.308 0 0.57933-0.053166 0.814-0.1595 0.23467-0.10633 0.43633-0.253 0.605-0.44 0.16867-0.187 0.30067-0.40516 0.396-0.6545 0.095334-0.24934 0.15767-0.517 0.187-0.803h1.342c-0.029334 0.46934-0.13017 0.89833-0.3025 1.287-0.17233 0.38867-0.40517 0.72416-0.6985 1.0065s-0.638 0.5005-1.034 0.6545c-0.396 0.154-0.83233 0.231-1.309 0.231-0.58667 0-1.1128-0.10817-1.5785-0.3245-0.46567-0.21633-0.85983-0.5115-1.1825-0.8855-0.32267-0.374-0.57017-0.81033-0.7425-1.309-0.17233-0.49867-0.2585-1.0303-0.2585-1.595 0-0.55734 0.086166-1.0853 0.2585-1.584 0.17233-0.49867 0.41983-0.935 0.7425-1.309 0.32267-0.374 0.71683-0.671 1.1825-0.891 0.46567-0.22 0.99183-0.33 1.5785-0.33 0.44 0 0.85433 0.060499 1.243 0.1815 0.38867 0.121 0.7315 0.297 1.0285 0.528 0.297 0.231 0.53717 0.5115 0.7205 0.8415 0.18333 0.33 0.297 0.70766 0.341 1.133h-1.375zm5.071 5.511c-0.45467 0-0.85983-0.075166-1.2155-0.2255-0.35567-0.15033-0.65633-0.3575-0.902-0.6215-0.24567-0.264-0.43267-0.57933-0.561-0.946-0.12833-0.36667-0.1925-0.77-0.1925-1.21 0-0.43267 0.064166-0.83233 0.1925-1.199 0.12833-0.36667 0.31533-0.682 0.561-0.946 0.24567-0.264 0.54633-0.47117 0.902-0.6215 0.35567-0.15033 0.76083-0.2255 1.2155-0.2255 0.45467 0 0.85983 0.075166 1.2155 0.2255 0.35567 0.15033 0.65633 0.3575 0.902 0.6215 0.24567 0.264 0.43267 0.57933 0.561 0.946 0.12833 0.36667 0.1925 0.76633 0.1925 1.199 0 0.44-0.064166 0.84333-0.1925 1.21-0.12833 0.36667-0.31533 0.682-0.561 0.946-0.24567 0.264-0.54633 0.47117-0.902 0.6215-0.35567 0.15033-0.76083 0.2255-1.2155 0.2255zm0-0.99c0.27867 0 0.52067-0.058666 0.726-0.176 0.20533-0.11733 0.374-0.27133 0.506-0.462 0.132-0.19067 0.22917-0.40516 0.2915-0.6435 0.062334-0.23834 0.0935-0.48216 0.0935-0.7315 0-0.242-0.031166-0.484-0.0935-0.726-0.062334-0.242-0.1595-0.4565-0.2915-0.6435-0.132-0.187-0.30067-0.33917-0.506-0.4565-0.20533-0.11733-0.44733-0.176-0.726-0.176-0.27867 0-0.52067 0.058666-0.726 0.176-0.20533 0.11733-0.374 0.2695-0.506 0.4565-0.132 0.187-0.22917 0.4015-0.2915 0.6435-0.062334 0.242-0.0935 0.484-0.0935 0.726 0 0.24934 0.031166 0.49316 0.0935 0.7315 0.062334 0.23834 0.1595 0.45283 0.2915 0.6435 0.132 0.19067 0.30067 0.34467 0.506 0.462 0.20533 0.11733 0.44733 0.176 0.726 0.176zm8.91 0.836h-1.232v-0.792h-0.022c-0.154 0.286-0.38317 0.51517-0.6875 0.6875-0.30433 0.17233-0.61417 0.2585-0.9295 0.2585-0.748 0-1.2888-0.18516-1.6225-0.5555-0.33367-0.37034-0.5005-0.9295-0.5005-1.6775v-3.608h1.254v3.487c0 0.49867 0.095332 0.85067 0.286 1.056 0.19067 0.20533 0.45833 0.308 0.803 0.308 0.264 0 0.484-0.040333 0.66-0.121 0.176-0.080667 0.319-0.18883 0.429-0.3245 0.11-0.13567 0.18883-0.29883 0.2365-0.4895 0.047667-0.19067 0.0715-0.396 0.0715-0.616v-3.3h1.254v5.687zm1.32-5.687h1.177v1.1h0.022c0.036667-0.154 0.10817-0.30433 0.2145-0.451 0.10633-0.14667 0.23467-0.2805 0.385-0.4015 0.15033-0.121 0.31717-0.21817 0.5005-0.2915 0.18333-0.073334 0.37033-0.11 0.561-0.11 0.14667 0 0.2475 0.003667 0.3025 0.011 0.055 0.007333 0.11183 0.014667 0.1705 0.022v1.21c-0.088-0.014667-0.17783-0.0275-0.2695-0.0385-0.091667-0.011-0.1815-0.0165-0.2695-0.0165-0.21267 0-0.4125 0.042166-0.5995 0.1265-0.187 0.084334-0.35017 0.209-0.4895 0.374-0.13933 0.165-0.24933 0.3685-0.33 0.6105-0.080667 0.242-0.121 0.52066-0.121 0.836v2.706h-1.254v-5.687zm4.818 3.861c0.036667 0.36667 0.176 0.62333 0.418 0.77 0.242 0.14667 0.53166 0.22 0.869 0.22 0.11733 0 0.25117-0.009167 0.4015-0.0275 0.15033-0.018333 0.2915-0.053166 0.4235-0.1045 0.132-0.051334 0.24017-0.1265 0.3245-0.2255 0.084334-0.099 0.12283-0.22917 0.1155-0.3905-0.0073334-0.16133-0.066-0.29333-0.176-0.396-0.11-0.10267-0.25117-0.18517-0.4235-0.2475-0.17233-0.062334-0.3685-0.1155-0.5885-0.1595s-0.44367-0.091666-0.671-0.143c-0.23467-0.051334-0.46017-0.11367-0.6765-0.187-0.21633-0.073334-0.41067-0.17233-0.583-0.297-0.17233-0.12467-0.30983-0.28417-0.4125-0.4785-0.10267-0.19433-0.154-0.4345-0.154-0.7205 0-0.308 0.075166-0.5665 0.2255-0.7755 0.15033-0.209 0.341-0.37767 0.572-0.506 0.231-0.12833 0.48767-0.21817 0.77-0.2695 0.28233-0.051334 0.55183-0.077 0.8085-0.077 0.29333 0 0.57383 0.031166 0.8415 0.0935 0.26767 0.062334 0.50967 0.16317 0.726 0.3025 0.21633 0.13933 0.396 0.32083 0.539 0.5445 0.143 0.22367 0.23283 0.49316 0.2695 0.8085h-1.309c-0.058667-0.30067-0.19617-0.50233-0.4125-0.605-0.21633-0.10267-0.46383-0.154-0.7425-0.154-0.088 0-0.1925 0.007333-0.3135 0.022-0.121 0.014667-0.23467 0.042166-0.341 0.0825-0.10633 0.040334-0.19617 0.099-0.2695 0.176s-0.11 0.17783-0.11 0.3025c0 0.154 0.053166 0.27867 0.1595 0.374 0.10633 0.095334 0.24567 0.17417 0.418 0.2365 0.17233 0.062334 0.3685 0.1155 0.5885 0.1595s0.44733 0.091666 0.682 0.143c0.22733 0.051334 0.451 0.11367 0.671 0.187s0.41617 0.17233 0.5885 0.297c0.17233 0.12467 0.31167 0.28233 0.418 0.473 0.10633 0.19067 0.1595 0.42533 0.1595 0.704 0 0.33734-0.076999 0.62333-0.231 0.858-0.154 0.23467-0.35383 0.42533-0.5995 0.572-0.24567 0.14667-0.51883 0.253-0.8195 0.319-0.30067 0.066-0.59767 0.099-0.891 0.099-0.35934 0-0.69117-0.040333-0.9955-0.121-0.30433-0.080667-0.56833-0.2035-0.792-0.3685-0.22367-0.165-0.39967-0.37033-0.528-0.616-0.12833-0.24567-0.19617-0.53716-0.2035-0.8745h1.254zm8.668-1.518c-0.014667-0.198-0.056833-0.38867-0.1265-0.572-0.069667-0.18333-0.165-0.34283-0.286-0.4785-0.121-0.13567-0.26767-0.24567-0.44-0.33-0.17233-0.084334-0.36483-0.1265-0.5775-0.1265-0.22 0-0.41983 0.0385-0.5995 0.1155-0.17967 0.077-0.33367 0.18333-0.462 0.319-0.12833 0.13567-0.231 0.29517-0.308 0.4785-0.077 0.18333-0.11917 0.38133-0.1265 0.594h2.926zm-2.926 0.825c0 0.22 0.031166 0.43267 0.0935 0.638 0.062334 0.20533 0.15583 0.385 0.2805 0.539 0.12467 0.154 0.28233 0.27683 0.473 0.3685 0.19067 0.091667 0.418 0.1375 0.682 0.1375 0.36667 0 0.66183-0.078833 0.8855-0.2365 0.22367-0.15767 0.3905-0.39416 0.5005-0.7095h1.188c-0.066 0.308-0.17967 0.583-0.341 0.825-0.16133 0.242-0.35567 0.4455-0.583 0.6105-0.22733 0.165-0.48217 0.28967-0.7645 0.374-0.28233 0.084334-0.5775 0.1265-0.8855 0.1265-0.44734 0-0.84333-0.073333-1.188-0.22-0.34467-0.14667-0.63617-0.352-0.8745-0.616-0.23833-0.264-0.418-0.57933-0.539-0.946-0.121-0.36667-0.1815-0.77-0.1815-1.21 0-0.40334 0.064166-0.7865 0.1925-1.1495 0.12833-0.363 0.31167-0.682 0.55-0.957 0.23833-0.275 0.52616-0.49317 0.8635-0.6545 0.33734-0.16133 0.71866-0.242 1.144-0.242 0.44734 0 0.84883 0.093499 1.2045 0.2805 0.35567 0.187 0.65083 0.4345 0.8855 0.7425 0.23467 0.308 0.40517 0.66183 0.5115 1.0615 0.10633 0.39967 0.13383 0.81216 0.0825 1.2375h-4.18zm5.236 1.034h1.529v1.485h-1.529v-1.485zm0-4.081h1.529v1.485h-1.529v-1.485zm69.382 4.081h1.529v1.485c-0.007333 0.45467-0.14666 0.836-0.418 1.144s-0.627 0.506-1.067 0.594v-0.671c0.242-0.058667 0.4235-0.1925 0.5445-0.4015 0.121-0.209 0.17783-0.43083 0.1705-0.6655h-0.759v-1.485zm6.105-6.369h1.375v4.576c0 0.264 0.012833 0.53166 0.0385 0.803s0.099 0.51517 0.22 0.7315c0.121 0.21633 0.30433 0.39417 0.55 0.5335s0.59216 0.209 1.0395 0.209c0.44734 0 0.79383-0.069666 1.0395-0.209s0.429-0.31717 0.55-0.5335c0.121-0.21633 0.19433-0.46016 0.22-0.7315s0.0385-0.539 0.0385-0.803v-4.576h1.375v5.027c0 0.506-0.076999 0.946-0.231 1.32s-0.37216 0.6875-0.6545 0.9405-0.6215 0.44183-1.0175 0.5665-0.836 0.187-1.32 0.187c-0.484 0-0.924-0.062333-1.32-0.187s-0.73516-0.3135-1.0175-0.5665-0.5005-0.5665-0.6545-0.9405-0.231-0.814-0.231-1.32v-5.027zm7.854 2.167h1.188v0.836l0.022 0.022c0.19067-0.31534 0.44-0.56283 0.748-0.7425 0.308-0.17967 0.649-0.2695 1.023-0.2695 0.62334 0 1.1147 0.16133 1.474 0.484s0.539 0.80666 0.539 1.452v3.905h-1.254v-3.575c-0.014667-0.44734-0.11-0.77183-0.286-0.9735s-0.451-0.3025-0.825-0.3025c-0.21267 0-0.40333 0.0385-0.572 0.1155-0.16867 0.077-0.31167 0.18333-0.429 0.319s-0.209 0.29517-0.275 0.4785-0.099 0.37767-0.099 0.583v3.355h-1.254v-5.687zm6.347-2.167h1.254v1.188h-1.254v-1.188zm0 2.167h1.254v5.687h-1.254v-5.687zm2.046 0h0.946v-1.705h1.254v1.705h1.133v0.935h-1.133v3.036c0 0.132 0.0055 0.24567 0.0165 0.341s0.036667 0.176 0.077 0.242c0.040334 0.066 0.10083 0.1155 0.1815 0.1485s0.19067 0.0495 0.33 0.0495c0.088001 0 0.176-0.001833 0.264-0.0055 0.088001-0.003667 0.176-0.0165 0.264-0.0385v0.968c-0.13933 0.014667-0.275 0.029333-0.407 0.044s-0.26767 0.022-0.407 0.022c-0.33 0-0.59583-0.031166-0.7975-0.0935s-0.35933-0.154-0.473-0.275-0.19067-0.27317-0.231-0.4565c-0.040333-0.18333-0.064166-0.39233-0.0715-0.627v-3.355h-0.946v-0.935zm4.334 4.202h1.529v1.485h-1.529v-1.485zm0-4.081h1.529v1.485h-1.529v-1.485zm5.423-2.288h1.397l1.419 6.006h0.022l1.584-6.006h1.408l1.54 6.006h0.022l1.463-6.006h1.397l-2.167 7.854h-1.397l-1.573-6.006h-0.022l-1.606 6.006h-1.419l-2.068-7.854zm14.685 4.51c-0.014667-0.198-0.056833-0.38867-0.1265-0.572s-0.165-0.34283-0.286-0.4785c-0.121-0.13567-0.26767-0.24567-0.44-0.33s-0.36483-0.1265-0.5775-0.1265c-0.22 0-0.41983 0.0385-0.5995 0.1155-0.17967 0.077-0.33367 0.18333-0.462 0.319s-0.231 0.29517-0.308 0.4785c-0.077 0.18333-0.11917 0.38133-0.1265 0.594h2.926zm-2.926 0.825c0 0.22 0.031167 0.43267 0.0935 0.638 0.062334 0.20533 0.15583 0.385 0.2805 0.539s0.28233 0.27683 0.473 0.3685c0.19067 0.091667 0.418 0.1375 0.682 0.1375 0.36667 0 0.66183-0.078833 0.8855-0.2365s0.3905-0.39416 0.5005-0.7095h1.188c-0.066 0.308-0.17967 0.583-0.341 0.825s-0.35566 0.4455-0.583 0.6105c-0.22733 0.165-0.48216 0.28967-0.7645 0.374s-0.5775 0.1265-0.8855 0.1265c-0.44734 0-0.84333-0.073333-1.188-0.22-0.34467-0.14667-0.63616-0.352-0.8745-0.616-0.23833-0.264-0.418-0.57933-0.539-0.946-0.121-0.36667-0.1815-0.77-0.1815-1.21 0-0.40334 0.064166-0.7865 0.1925-1.1495s0.31167-0.682 0.55-0.957c0.23834-0.275 0.52616-0.49317 0.8635-0.6545s0.71866-0.242 1.144-0.242c0.44734 0 0.84883 0.093499 1.2045 0.2805 0.35567 0.187 0.65083 0.4345 0.8855 0.7425s0.40517 0.66183 0.5115 1.0615 0.13383 0.81216 0.0825 1.2375h-4.18zm5.17-5.335h1.254v7.854h-1.254v-7.854zm6.457 4.07c-0.051333-0.352-0.1925-0.61783-0.4235-0.7975s-0.5225-0.2695-0.8745-0.2695c-0.16133 0-0.33367 0.0275-0.517 0.0825s-0.352 0.15767-0.506 0.308-0.28233 0.35933-0.385 0.627-0.154 0.61783-0.154 1.0505c0 0.23467 0.0275 0.46933 0.0825 0.704s0.143 0.44367 0.264 0.627c0.121 0.18333 0.27683 0.33183 0.4675 0.4455 0.19067 0.11367 0.42166 0.1705 0.693 0.1705 0.36667 0 0.66917-0.11367 0.9075-0.341 0.23834-0.22733 0.38683-0.54633 0.4455-0.957h1.254c-0.11733 0.74067-0.39783 1.3072-0.8415 1.6995s-1.0322 0.5885-1.7655 0.5885c-0.44734 0-0.8415-0.075166-1.1825-0.2255s-0.62883-0.35566-0.8635-0.616-0.4125-0.57016-0.5335-0.9295c-0.121-0.35934-0.1815-0.748-0.1815-1.166 0-0.42534 0.058666-0.825 0.176-1.199s0.29333-0.6985 0.528-0.9735 0.52616-0.49133 0.8745-0.649 0.75716-0.2365 1.2265-0.2365c0.33 0 0.6435 0.042166 0.9405 0.1265 0.297 0.084334 0.561 0.21083 0.792 0.3795s0.41983 0.38133 0.5665 0.638c0.14667 0.25667 0.23467 0.561 0.264 0.913h-1.254zm4.884 3.938c-0.45467 0-0.85983-0.075166-1.2155-0.2255-0.35567-0.15033-0.65633-0.3575-0.902-0.6215s-0.43267-0.57933-0.561-0.946c-0.12833-0.36667-0.1925-0.77-0.1925-1.21 0-0.43267 0.064166-0.83233 0.1925-1.199 0.12833-0.36667 0.31533-0.682 0.561-0.946s0.54633-0.47117 0.902-0.6215c0.35567-0.15033 0.76083-0.2255 1.2155-0.2255s0.85983 0.075166 1.2155 0.2255c0.35567 0.15033 0.65633 0.3575 0.902 0.6215s0.43267 0.57933 0.561 0.946c0.12833 0.36667 0.1925 0.76633 0.1925 1.199 0 0.44-0.064166 0.84333-0.1925 1.21-0.12833 0.36667-0.31533 0.682-0.561 0.946s-0.54633 0.47117-0.902 0.6215c-0.35567 0.15033-0.76083 0.2255-1.2155 0.2255zm0-0.99c0.27867 0 0.52067-0.058666 0.726-0.176 0.20534-0.11733 0.374-0.27133 0.506-0.462s0.22917-0.40516 0.2915-0.6435c0.062334-0.23834 0.0935-0.48216 0.0935-0.7315 0-0.242-0.031166-0.484-0.0935-0.726-0.062333-0.242-0.1595-0.4565-0.2915-0.6435s-0.30066-0.33917-0.506-0.4565c-0.20533-0.11733-0.44733-0.176-0.726-0.176s-0.52066 0.058666-0.726 0.176c-0.20533 0.11733-0.374 0.2695-0.506 0.4565s-0.22917 0.4015-0.2915 0.6435c-0.062333 0.242-0.0935 0.484-0.0935 0.726 0 0.24934 0.031167 0.49316 0.0935 0.7315 0.062334 0.23834 0.1595 0.45283 0.2915 0.6435s0.30067 0.34467 0.506 0.462c0.20534 0.11733 0.44733 0.176 0.726 0.176zm3.916-4.851h1.188v0.792h0.033c0.095334-0.13933 0.198-0.26767 0.308-0.385 0.11-0.11733 0.23283-0.21633 0.3685-0.297s0.2915-0.14483 0.4675-0.1925 0.37767-0.0715 0.605-0.0715c0.34467 0 0.6655 0.076999 0.9625 0.231 0.297 0.154 0.50783 0.39233 0.6325 0.715 0.21267-0.29334 0.45833-0.52433 0.737-0.693s0.627-0.253 1.045-0.253c0.60134 0 1.0688 0.14666 1.4025 0.44s0.5005 0.78466 0.5005 1.474v3.927h-1.254v-3.322c0-0.22733-0.007333-0.4345-0.022-0.6215s-0.056833-0.34833-0.1265-0.484-0.17417-0.24017-0.3135-0.3135-0.33-0.11-0.572-0.11c-0.42534 0-0.73333 0.132-0.924 0.396-0.19067 0.264-0.286 0.638-0.286 1.122v3.333h-1.254v-3.652c0-0.396-0.071499-0.69483-0.2145-0.8965s-0.40516-0.3025-0.7865-0.3025c-0.16133 0-0.31717 0.033-0.4675 0.099s-0.28233 0.16133-0.396 0.286-0.20533 0.27867-0.275 0.462-0.1045 0.39233-0.1045 0.627v3.377h-1.254v-5.687zm13.475 2.343c-0.014667-0.198-0.056833-0.38867-0.1265-0.572s-0.165-0.34283-0.286-0.4785c-0.121-0.13567-0.26767-0.24567-0.44-0.33s-0.36483-0.1265-0.5775-0.1265c-0.22 0-0.41983 0.0385-0.5995 0.1155-0.17967 0.077-0.33367 0.18333-0.462 0.319s-0.231 0.29517-0.308 0.4785c-0.077 0.18333-0.11917 0.38133-0.1265 0.594h2.926zm-2.926 0.825c0 0.22 0.031167 0.43267 0.0935 0.638 0.062334 0.20533 0.15583 0.385 0.2805 0.539s0.28233 0.27683 0.473 0.3685c0.19067 0.091667 0.418 0.1375 0.682 0.1375 0.36667 0 0.66183-0.078833 0.8855-0.2365s0.3905-0.39416 0.5005-0.7095h1.188c-0.066 0.308-0.17967 0.583-0.341 0.825s-0.35566 0.4455-0.583 0.6105c-0.22733 0.165-0.48216 0.28967-0.7645 0.374s-0.5775 0.1265-0.8855 0.1265c-0.44734 0-0.84333-0.073333-1.188-0.22-0.34467-0.14667-0.63616-0.352-0.8745-0.616-0.23833-0.264-0.418-0.57933-0.539-0.946-0.121-0.36667-0.1815-0.77-0.1815-1.21 0-0.40334 0.064166-0.7865 0.1925-1.1495s0.31167-0.682 0.55-0.957c0.23834-0.275 0.52616-0.49317 0.8635-0.6545s0.71866-0.242 1.144-0.242c0.44734 0 0.84883 0.093499 1.2045 0.2805 0.35567 0.187 0.65083 0.4345 0.8855 0.7425s0.40517 0.66183 0.5115 1.0615 0.13383 0.81216 0.0825 1.2375h-4.18z" fill="#B7D5EA"/>
<path d="m62.526 144v-7.854h-1.375v7.854h1.375zm2.761 0v-3.355c0-0.20533 0.033-0.39967 0.099-0.583s0.15767-0.34283 0.275-0.4785 0.26033-0.242 0.429-0.319 0.35933-0.1155 0.572-0.1155c0.374 0 0.649 0.10083 0.825 0.3025s0.27133 0.52617 0.286 0.9735v3.575h1.254v-3.905c0-0.64533-0.17967-1.1293-0.539-1.452s-0.85067-0.484-1.474-0.484c-0.374 0-0.715 0.089833-1.023 0.2695s-0.55733 0.42717-0.748 0.7425l-0.022-0.022v-0.836h-1.188v5.687h1.254zm7.007 0.055c0.13933 0 0.275-0.007333 0.407-0.022s0.26767-0.029333 0.407-0.044v-0.968c-0.088 0.022-0.176 0.034833-0.264 0.0385s-0.176 0.0055-0.264 0.0055c-0.13933 0-0.24933-0.0165-0.33-0.0495s-0.14117-0.0825-0.1815-0.1485-0.066-0.14667-0.077-0.242-0.0165-0.209-0.0165-0.341v-3.036h1.133v-0.935h-1.133v-1.705h-1.254v1.705h-0.946v0.935h0.946v3.355c0.0073333 0.23467 0.031167 0.44367 0.0715 0.627s0.11733 0.3355 0.231 0.4565 0.27133 0.21267 0.473 0.275 0.4675 0.0935 0.7975 0.0935zm4.224 0.099c0.308 0 0.60317-0.042167 0.8855-0.1265s0.53717-0.209 0.7645-0.374 0.42167-0.3685 0.583-0.6105 0.275-0.517 0.341-0.825h-1.188c-0.11 0.31533-0.27683 0.55183-0.5005 0.7095s-0.51883 0.2365-0.8855 0.2365c-0.264 0-0.49133-0.045833-0.682-0.1375s-0.34833-0.2145-0.473-0.3685-0.21817-0.33367-0.2805-0.539-0.0935-0.418-0.0935-0.638h4.18c0.051333-0.42533 0.023833-0.83783-0.0825-1.2375s-0.27683-0.7535-0.5115-1.0615-0.52983-0.5555-0.8855-0.7425-0.75717-0.2805-1.2045-0.2805c-0.42533 0-0.80667 0.080667-1.144 0.242s-0.62517 0.3795-0.8635 0.6545-0.42167 0.594-0.55 0.957-0.1925 0.74617-0.1925 1.1495c0 0.44 0.0605 0.84333 0.1815 1.21s0.30067 0.682 0.539 0.946 0.52983 0.46933 0.8745 0.616 0.74067 0.22 1.188 0.22zm1.397-3.498h-2.926c0.0073333-0.21267 0.0495-0.41067 0.1265-0.594s0.17967-0.34283 0.308-0.4785 0.28233-0.242 0.462-0.319 0.3795-0.1155 0.5995-0.1155c0.21267 0 0.40517 0.042167 0.5775 0.1265s0.319 0.19433 0.44 0.33 0.21633 0.29517 0.286 0.4785 0.11183 0.374 0.1265 0.572zm3.465 3.344v-2.706c0-0.31533 0.040333-0.594 0.121-0.836s0.19067-0.4455 0.33-0.6105 0.3025-0.28967 0.4895-0.374 0.38683-0.1265 0.5995-0.1265c0.088 0 0.17783 0.0055 0.2695 0.0165s0.1815 0.023833 0.2695 0.0385v-1.21c-0.058667-0.007333-0.1155-0.014667-0.1705-0.022s-0.15583-0.011-0.3025-0.011c-0.19067 0-0.37767 0.036667-0.561 0.11s-0.35017 0.1705-0.5005 0.2915-0.27867 0.25483-0.385 0.4015-0.17783 0.297-0.2145 0.451h-0.022v-1.1h-1.177v5.687h1.254zm3.872 0v-3.355c0-0.20533 0.033-0.39967 0.099-0.583s0.15767-0.34283 0.275-0.4785 0.26033-0.242 0.429-0.319 0.35933-0.1155 0.572-0.1155c0.374 0 0.649 0.10083 0.825 0.3025s0.27133 0.52617 0.286 0.9735v3.575h1.254v-3.905c0-0.64533-0.17967-1.1293-0.539-1.452s-0.85067-0.484-1.474-0.484c-0.374 0-0.715 0.089833-1.023 0.2695s-0.55733 0.42717-0.748 0.7425l-0.022-0.022v-0.836h-1.188v5.687h1.254zm9.636 0.154c0.051333 0 0.11367-0.003667 0.187-0.011s0.14667-0.018333 0.22-0.033 0.14483-0.031167 0.2145-0.0495 0.1265-0.034833 0.1705-0.0495v-0.869c-0.066 0.014667-0.12467 0.022-0.176 0.022h-0.132c-0.11733 0-0.19617-0.033-0.2365-0.099s-0.0605-0.176-0.0605-0.33v-2.926c0-0.30067-0.066-0.5555-0.198-0.7645s-0.30617-0.3795-0.5225-0.5115-0.46017-0.22733-0.7315-0.286-0.54633-0.088-0.825-0.088c-0.31533 0-0.62333 0.029333-0.924 0.088s-0.57017 0.16133-0.8085 0.308-0.4345 0.341-0.5885 0.583-0.242 0.54633-0.264 0.913h1.254c0.029333-0.308 0.15767-0.53533 0.385-0.682s0.517-0.22 0.869-0.22c0.12467 0 0.25667 0.009167 0.396 0.0275s0.26583 0.055 0.3795 0.11 0.209 0.13383 0.286 0.2365 0.1155 0.23467 0.1155 0.396c0 0.18333-0.045833 0.32083-0.1375 0.4125s-0.21633 0.1595-0.374 0.2035-0.33917 0.075167-0.5445 0.0935-0.42167 0.0495-0.649 0.0935c-0.264 0.029333-0.52617 0.0715-0.7865 0.1265s-0.495 0.14483-0.704 0.2695-0.37767 0.297-0.506 0.517-0.1925 0.506-0.1925 0.858c0 0.27867 0.053167 0.5225 0.1595 0.7315s0.24933 0.38133 0.429 0.517 0.38683 0.23833 0.6215 0.308 0.48033 0.1045 0.737 0.1045c0.33733 0 0.6875-0.055 1.0505-0.165s0.66917-0.286 0.9185-0.528c0.051333 0.25667 0.16133 0.43633 0.33 0.539s0.38133 0.154 0.638 0.154zm-2.475-0.99c-0.11 0-0.23283-0.011-0.3685-0.033s-0.26033-0.0605-0.374-0.1155-0.21083-0.13017-0.2915-0.2255-0.121-0.21267-0.121-0.352c0-0.16133 0.0275-0.29883 0.0825-0.4125s0.13017-0.20533 0.2255-0.275 0.20533-0.12467 0.33-0.165 0.253-0.0715 0.385-0.0935c0.27867-0.051333 0.55733-0.089833 0.836-0.1155s0.51333-0.10083 0.704-0.2255v0.935c0 0.198-0.047667 0.36483-0.143 0.5005s-0.2145 0.2475-0.3575 0.3355-0.29517 0.15033-0.4565 0.187-0.31167 0.055-0.451 0.055zm5.962 0.891c0.13933 0 0.275-0.007333 0.407-0.022s0.26767-0.029333 0.407-0.044v-0.968c-0.088 0.022-0.176 0.034833-0.264 0.0385s-0.176 0.0055-0.264 0.0055c-0.13933 0-0.24933-0.0165-0.33-0.0495s-0.14117-0.0825-0.1815-0.1485-0.066-0.14667-0.077-0.242-0.0165-0.209-0.0165-0.341v-3.036h1.133v-0.935h-1.133v-1.705h-1.254v1.705h-0.946v0.935h0.946v3.355c0.0073333 0.23467 0.031167 0.44367 0.0715 0.627s0.11733 0.3355 0.231 0.4565 0.27133 0.21267 0.473 0.275 0.4675 0.0935 0.7975 0.0935zm3.003-6.721v-1.188h-1.254v1.188h1.254zm0 6.666v-5.687h-1.254v5.687h1.254zm3.971 0.154c0.45467 0 0.85983-0.075167 1.2155-0.2255s0.65633-0.3575 0.902-0.6215 0.43267-0.57933 0.561-0.946 0.1925-0.77 0.1925-1.21c0-0.43267-0.064167-0.83233-0.1925-1.199s-0.31533-0.682-0.561-0.946-0.54633-0.47117-0.902-0.6215-0.76083-0.2255-1.2155-0.2255-0.85983 0.075167-1.2155 0.2255-0.65633 0.3575-0.902 0.6215-0.43267 0.57933-0.561 0.946-0.1925 0.76633-0.1925 1.199c0 0.44 0.064167 0.84333 0.1925 1.21s0.31533 0.682 0.561 0.946 0.54633 0.47117 0.902 0.6215 0.76083 0.2255 1.2155 0.2255zm0-0.99c-0.27867 0-0.52067-0.058667-0.726-0.176s-0.374-0.27133-0.506-0.462-0.22917-0.40517-0.2915-0.6435-0.0935-0.48217-0.0935-0.7315c0-0.242 0.031167-0.484 0.0935-0.726s0.1595-0.4565 0.2915-0.6435 0.30067-0.33917 0.506-0.4565 0.44733-0.176 0.726-0.176 0.52067 0.058667 0.726 0.176 0.374 0.2695 0.506 0.4565 0.22917 0.4015 0.2915 0.6435 0.0935 0.484 0.0935 0.726c0 0.24933-0.031167 0.49317-0.0935 0.7315s-0.1595 0.45283-0.2915 0.6435-0.30067 0.34467-0.506 0.462-0.44733 0.176-0.726 0.176zm5.17 0.836v-3.355c0-0.20533 0.033-0.39967 0.099-0.583s0.15767-0.34283 0.275-0.4785 0.26033-0.242 0.429-0.319 0.35933-0.1155 0.572-0.1155c0.374 0 0.649 0.10083 0.825 0.3025s0.27133 0.52617 0.286 0.9735v3.575h1.254v-3.905c0-0.64533-0.17967-1.1293-0.539-1.452s-0.85067-0.484-1.474-0.484c-0.374 0-0.715 0.089833-1.023 0.2695s-0.55733 0.42717-0.748 0.7425l-0.022-0.022v-0.836h-1.188v5.687h1.254zm9.636 0.154c0.051333 0 0.11367-0.003667 0.187-0.011s0.14667-0.018333 0.22-0.033 0.14483-0.031167 0.2145-0.0495 0.1265-0.034833 0.1705-0.0495v-0.869c-0.066 0.014667-0.12467 0.022-0.176 0.022h-0.132c-0.11733 0-0.19617-0.033-0.2365-0.099s-0.0605-0.176-0.0605-0.33v-2.926c0-0.30067-0.066-0.5555-0.198-0.7645s-0.30617-0.3795-0.5225-0.5115-0.46017-0.22733-0.7315-0.286-0.54633-0.088-0.825-0.088c-0.31533 0-0.62333 0.029333-0.924 0.088s-0.57017 0.16133-0.8085 0.308-0.4345 0.341-0.5885 0.583-0.242 0.54633-0.264 0.913h1.254c0.029333-0.308 0.15767-0.53533 0.385-0.682s0.517-0.22 0.869-0.22c0.12467 0 0.25667 0.009167 0.396 0.0275s0.26583 0.055 0.3795 0.11 0.209 0.13383 0.286 0.2365 0.1155 0.23467 0.1155 0.396c0 0.18333-0.045833 0.32083-0.1375 0.4125s-0.21633 0.1595-0.374 0.2035-0.33917 0.075167-0.5445 0.0935-0.42167 0.0495-0.649 0.0935c-0.264 0.029333-0.52617 0.0715-0.7865 0.1265s-0.495 0.14483-0.704 0.2695-0.37767 0.297-0.506 0.517-0.1925 0.506-0.1925 0.858c0 0.27867 0.053167 0.5225 0.1595 0.7315s0.24933 0.38133 0.429 0.517 0.38683 0.23833 0.6215 0.308 0.48033 0.1045 0.737 0.1045c0.33733 0 0.6875-0.055 1.0505-0.165s0.66917-0.286 0.9185-0.528c0.051333 0.25667 0.16133 0.43633 0.33 0.539s0.38133 0.154 0.638 0.154zm-2.475-0.99c-0.11 0-0.23283-0.011-0.3685-0.033s-0.26033-0.0605-0.374-0.1155-0.21083-0.13017-0.2915-0.2255-0.121-0.21267-0.121-0.352c0-0.16133 0.0275-0.29883 0.0825-0.4125s0.13017-0.20533 0.2255-0.275 0.20533-0.12467 0.33-0.165 0.253-0.0715 0.385-0.0935c0.27867-0.051333 0.55733-0.089833 0.836-0.1155s0.51333-0.10083 0.704-0.2255v0.935c0 0.198-0.047667 0.36483-0.143 0.5005s-0.2145 0.2475-0.3575 0.3355-0.29517 0.15033-0.4565 0.187-0.31167 0.055-0.451 0.055zm5.302 0.836v-7.854h-1.254v7.854h1.254z" fill="#B7D5EA" fill-rule="nonzero"/>
<path d="m18 156h1.143l1.161 4.914h0.018l1.296-4.914h1.152l1.26 4.914h0.018l1.197-4.914h1.143l-1.773 6.426h-1.143l-1.287-4.914h-0.018l-1.314 4.914h-1.161l-1.692-6.426zm8.82 1.773h0.963v0.9h0.018c0.03-0.126 0.0885-0.249 0.1755-0.369s0.192-0.2295 0.315-0.3285 0.2595-0.1785 0.4095-0.2385c0.15-0.06 0.303-0.09 0.459-0.09 0.12 0 0.2025 3e-3 0.2475 9e-3s0.0915 0.012 0.1395 0.018v0.99c-0.072-0.012-0.1455-0.0225-0.2205-0.0315s-0.1485-0.0135-0.2205-0.0135c-0.174 0-0.3375 0.0345-0.4905 0.1035s-0.2865 0.171-0.4005 0.306-0.204 0.3015-0.27 0.4995-0.099 0.426-0.099 0.684v2.214h-1.026v-4.653zm3.195-1.773h1.026v0.972h-1.026v-0.972zm0 1.773h1.026v4.653h-1.026v-4.653zm1.674 0h0.774v-1.395h1.026v1.395h0.927v0.765h-0.927v2.484c0 0.108 0.0045 0.201 0.0135 0.279s0.03 0.144 0.063 0.198 0.0825 0.0945 0.1485 0.1215 0.156 0.0405 0.27 0.0405c0.072 0 0.144-0.0015 0.216-0.0045s0.144-0.0135 0.216-0.0315v0.792c-0.114 0.012-0.225 0.024-0.333 0.036s-0.219 0.018-0.333 0.018c-0.27 0-0.4875-0.0255-0.6525-0.0765s-0.294-0.126-0.387-0.225-0.156-0.2235-0.189-0.3735-0.0525-0.321-0.0585-0.513v-2.745h-0.774v-0.765zm3.492-1.773h1.026v0.972h-1.026v-0.972zm0 1.773h1.026v4.653h-1.026v-4.653zm2.142 0h0.972v0.684l0.018 0.018c0.156-0.258 0.36-0.4605 0.612-0.6075s0.531-0.2205 0.837-0.2205c0.51 0 0.912 0.132 1.206 0.396s0.441 0.66 0.441 1.188v3.195h-1.026v-2.925c-0.012-0.366-0.089999-0.6315-0.234-0.7965s-0.369-0.2475-0.675-0.2475c-0.174 0-0.33 0.0315-0.468 0.0945s-0.255 0.15-0.351 0.261-0.171 0.2415-0.225 0.3915-0.081 0.309-0.081 0.477v2.745h-1.026v-4.653zm9.468 4.41c0 0.702-0.1965 1.2255-0.5895 1.5705s-0.9585 0.5175-1.6965 0.5175c-0.234 0-0.4695-0.024-0.7065-0.072s-0.453-0.129-0.648-0.243-0.3585-0.264-0.4905-0.45-0.21-0.414-0.234-0.684h1.026c0.03 0.144 0.081 0.261 0.153 0.351s0.1575 0.1605 0.2565 0.2115 0.2085 0.084 0.3285 0.099 0.246 0.0225 0.378 0.0225c0.414 0 0.717-0.102 0.909-0.306s0.288-0.498 0.288-0.882v-0.711h-0.018c-0.144 0.258-0.3405 0.459-0.5895 0.603s-0.5175 0.216-0.8055 0.216c-0.372 0-0.6885-0.064499-0.9495-0.1935s-0.477-0.306-0.648-0.531-0.2955-0.4845-0.3735-0.7785-0.117-0.609-0.117-0.945c0-0.312 0.048-0.609 0.144-0.891s0.234-0.5295 0.414-0.7425 0.4005-0.3825 0.6615-0.5085 0.5565-0.189 0.8865-0.189c0.294 0 0.564 0.061499 0.81 0.1845s0.435 0.3165 0.567 0.5805h0.018v-0.639h1.026v4.41zm-2.277-0.567c0.228 0 0.4215-0.0465 0.5805-0.1395s0.288-0.216 0.387-0.369 0.171-0.327 0.216-0.522 0.0675-0.3915 0.0675-0.5895-0.024-0.39-0.072-0.576-0.1215-0.351-0.2205-0.495-0.228-0.258-0.387-0.342-0.3495-0.126-0.5715-0.126c-0.228 0-0.42 0.048-0.576 0.144s-0.282 0.2205-0.378 0.3735-0.165 0.327-0.207 0.522-0.063 0.3885-0.063 0.5805 0.024 0.3795 0.072 0.5625 0.1215 0.3465 0.2205 0.4905 0.225 0.261 0.378 0.351 0.3375 0.135 0.5535 0.135z" fill="#B7D5EA"/>
<path d="m62 156h1.1337v6.4757h-1.1337v-6.4757zm2.3762 1.7867h0.97952v0.68929l0.018139 0.01814c0.15721-0.26 0.36278-0.46406 0.61673-0.6122 0.25395-0.14814 0.53511-0.22221 0.84348-0.22221 0.51395 0 0.91905 0.13302 1.2153 0.39906s0.44441 0.6651 0.44441 1.1972v3.2197h-1.0339v-2.9476c-0.012093-0.36883-0.090696-0.63638-0.23581-0.80266-0.14511-0.16628-0.37185-0.24942-0.68022-0.24942-0.17535 0-0.33255 0.031744-0.47162 0.095231-0.13907 0.063488-0.25697 0.15116-0.35372 0.26302-0.096743 0.11186-0.17232 0.24337-0.22674 0.39453-0.054418 0.15116-0.081627 0.31139-0.081627 0.48069v2.7662h-1.0339v-4.689zm10.893 1.569c-0.042325-0.29023-0.15872-0.50941-0.34918-0.65755s-0.43081-0.22221-0.72104-0.22221c-0.13302 0-0.27511 0.022674-0.42627 0.068023-0.15116 0.045348-0.29023 0.13-0.4172 0.25395-0.12698 0.12395-0.23279 0.29627-0.31744 0.51697-0.08465 0.2207-0.12697 0.50941-0.12697 0.86615 0 0.19349 0.022674 0.38697 0.068022 0.58046 0.045348 0.19349 0.1179 0.36581 0.21767 0.51697 0.099766 0.15116 0.22825 0.2736 0.38546 0.36732 0.15721 0.09372 0.34767 0.14058 0.57139 0.14058 0.30232 0 0.55174-0.093719 0.74824-0.28116 0.19651-0.18744 0.31895-0.45046 0.36732-0.78906h1.0339c-0.096743 0.61069-0.32802 1.0778-0.69383 1.4013s-0.85103 0.48523-1.4557 0.48523c-0.36883 0-0.69383-0.061976-0.97499-0.18593-0.28116-0.12395-0.51848-0.29325-0.71197-0.5079s-0.34011-0.47011-0.43988-0.76638c-0.099766-0.29628-0.14965-0.61673-0.14965-0.96138 0-0.35069 0.048371-0.68022 0.14511-0.98859 0.096743-0.30837 0.24186-0.57592 0.43534-0.80266 0.19349-0.22674 0.43383-0.40511 0.72104-0.53511 0.28721-0.13 0.62429-0.195 1.0113-0.195 0.27209 0 0.53057 0.034766 0.77545 0.1043 0.24488 0.069534 0.46255 0.17383 0.65301 0.3129 0.19046 0.13907 0.34616 0.31441 0.46709 0.52604s0.19349 0.46255 0.21767 0.75278h-1.0339zm1.9046-3.3558h1.0339v6.4757h-1.0339v-6.4757zm6.0857 5.4327c0 0.12698 0.016628 0.21767 0.049883 0.27209s0.098254 0.081627 0.195 0.081627h0.10884c0.042325 0 0.090696-0.006047 0.14511-0.018139v0.7165c-0.036279 0.012093-0.083138 0.025698-0.14058 0.040814-0.057441 0.015116-0.11639 0.02872-0.17686 0.040813-0.060464 0.012093-0.12093 0.021163-0.18139 0.027209s-0.11186 0.00907-0.15418 0.00907c-0.21163 0-0.38697-0.042325-0.52604-0.12698-0.13907-0.084651-0.22976-0.23279-0.27209-0.44441-0.20558 0.19953-0.45801 0.34464-0.75731 0.43534s-0.58801 0.13604-0.86615 0.13604c-0.21163 0-0.41418-0.028721-0.60767-0.086162s-0.3643-0.14209-0.51243-0.25395c-0.14814-0.11186-0.26604-0.25395-0.35372-0.42627-0.087674-0.17232-0.13151-0.37337-0.13151-0.60313 0-0.29023 0.052906-0.52604 0.15872-0.70743 0.10581-0.18139 0.24488-0.32348 0.4172-0.42627 0.17232-0.10279 0.36581-0.17686 0.58046-0.22221 0.21465-0.045348 0.43081-0.080115 0.64848-0.1043 0.18744-0.036279 0.36581-0.061976 0.53511-0.077092 0.1693-0.015116 0.31895-0.040813 0.44895-0.077092s0.23279-0.092208 0.30837-0.16779c0.075581-0.075581 0.11337-0.18895 0.11337-0.34011 0-0.13302-0.031743-0.24186-0.095231-0.32651-0.063488-0.08465-0.14209-0.14965-0.23581-0.195-0.09372-0.045349-0.19802-0.07558-0.3129-0.090697-0.11488-0.015116-0.22372-0.022674-0.32651-0.022674-0.29023 0-0.52906 0.060464-0.7165 0.18139s-0.29325 0.30837-0.31744 0.56232h-1.0339c0.018139-0.30232 0.090696-0.55325 0.21767-0.75278s0.28872-0.35976 0.48523-0.48069c0.19651-0.12093 0.41871-0.20558 0.66662-0.25395 0.2479-0.048372 0.50185-0.072557 0.76185-0.072557 0.22977 0 0.4565 0.024185 0.68022 0.072557 0.22372 0.048371 0.42476 0.12697 0.60313 0.23581s0.32197 0.24941 0.43081 0.42174c0.10884 0.17232 0.16325 0.38244 0.16325 0.63034v2.4125zm-1.0339-1.306c-0.15721 0.10279-0.35069 0.16476-0.58046 0.18593-0.22977 0.021162-0.45953 0.052906-0.68929 0.095231-0.10884 0.018139-0.21465 0.043836-0.31744 0.077092-0.10279 0.033255-0.19349 0.078603-0.27209 0.13604s-0.14058 0.13302-0.18593 0.22674-0.068022 0.20709-0.068022 0.34011c0 0.11488 0.033255 0.21162 0.099766 0.29023 0.066511 0.078604 0.14663 0.14058 0.24035 0.18593 0.09372 0.045348 0.19651 0.077092 0.30837 0.095231 0.11186 0.018139 0.21314 0.027209 0.30383 0.027209 0.11488 0 0.23883-0.015116 0.37185-0.045348 0.13302-0.030233 0.25848-0.081627 0.37639-0.15418s0.21616-0.16476 0.29476-0.27662c0.078604-0.11186 0.11791-0.24941 0.11791-0.41267v-0.77092zm2.9295 0.84348c0.030232 0.30232 0.14511 0.51394 0.34465 0.63487s0.43836 0.18139 0.7165 0.18139c0.096743 0 0.20709-0.007558 0.33104-0.022674 0.12395-0.015116 0.24034-0.043837 0.34918-0.086162s0.19802-0.1043 0.26755-0.18593 0.10128-0.18895 0.095231-0.32197c-0.0060464-0.13302-0.054417-0.24186-0.14511-0.32651-0.090697-0.08465-0.20709-0.15267-0.34918-0.20407-0.14209-0.051394-0.30383-0.095231-0.48523-0.13151-0.18139-0.036279-0.36581-0.07558-0.55325-0.1179-0.19349-0.042326-0.37941-0.09372-0.55778-0.15418-0.17837-0.060465-0.3386-0.14209-0.48069-0.24488-0.14209-0.10279-0.25546-0.2343-0.34011-0.39453s-0.12697-0.35825-0.12697-0.59406c0-0.25395 0.061975-0.46708 0.18593-0.63941 0.12395-0.17232 0.28116-0.31139 0.47162-0.4172s0.40209-0.17988 0.63487-0.22221 0.45499-0.063487 0.66662-0.063487c0.24186 0 0.47313 0.025697 0.69383 0.077091 0.2207 0.051395 0.42023 0.13453 0.5986 0.24942 0.17837 0.11488 0.32651 0.26453 0.44441 0.44895s0.19197 0.40662 0.22221 0.66662h-1.0793c-0.048372-0.2479-0.16174-0.41418-0.34011-0.49883-0.17837-0.08465-0.38244-0.12698-0.6122-0.12698-0.072557 0-0.15872 0.006047-0.25848 0.01814-0.099766 0.012093-0.19349 0.034766-0.28116 0.068022-0.087674 0.033255-0.16174 0.081626-0.22221 0.14511s-0.090696 0.14662-0.090696 0.24942c0 0.12698 0.043836 0.22976 0.13151 0.30837 0.087674 0.078604 0.20255 0.1436 0.34465 0.195 0.14209 0.051395 0.30383 0.095231 0.48523 0.13151 0.18139 0.036279 0.36883 0.07558 0.56232 0.1179 0.18744 0.042325 0.37185 0.093719 0.55325 0.15418 0.18139 0.060464 0.34313 0.14209 0.48523 0.24488s0.25697 0.23279 0.34465 0.38999c0.087674 0.15721 0.13151 0.35069 0.13151 0.58046 0 0.27814-0.063487 0.51394-0.19046 0.70743-0.12698 0.19349-0.29174 0.35069-0.49429 0.47162-0.20256 0.12093-0.42778 0.2086-0.67569 0.26302s-0.49278 0.081627-0.73464 0.081627c-0.29628 0-0.56987-0.033255-0.8208-0.099766-0.25093-0.066511-0.4686-0.16779-0.65301-0.30383-0.18442-0.13604-0.32953-0.30534-0.43534-0.5079s-0.16174-0.4429-0.16779-0.72104h1.0339zm4.7071 0c0.030232 0.30232 0.14511 0.51394 0.34465 0.63487 0.19953 0.12093 0.43836 0.18139 0.7165 0.18139 0.096743 0 0.20709-0.007558 0.33104-0.022674 0.12395-0.015116 0.24034-0.043837 0.34918-0.086162 0.10884-0.042325 0.19802-0.1043 0.26755-0.18593s0.10128-0.18895 0.095231-0.32197c-0.0060464-0.13302-0.054417-0.24186-0.14511-0.32651-0.090697-0.08465-0.20709-0.15267-0.34918-0.20407-0.14209-0.051394-0.30383-0.095231-0.48523-0.13151-0.18139-0.036279-0.36581-0.07558-0.55325-0.1179-0.19349-0.042326-0.37941-0.09372-0.55778-0.15418-0.17837-0.060465-0.3386-0.14209-0.48069-0.24488-0.14209-0.10279-0.25546-0.2343-0.34011-0.39453-0.08465-0.16023-0.12697-0.35825-0.12697-0.59406 0-0.25395 0.061975-0.46708 0.18593-0.63941 0.12395-0.17232 0.28116-0.31139 0.47162-0.4172s0.40209-0.17988 0.63487-0.22221 0.45499-0.063487 0.66662-0.063487c0.24186 0 0.47313 0.025697 0.69383 0.077091 0.2207 0.051395 0.42023 0.13453 0.5986 0.24942 0.17837 0.11488 0.32651 0.26453 0.44441 0.44895s0.19197 0.40662 0.22221 0.66662h-1.0793c-0.048372-0.2479-0.16174-0.41418-0.34011-0.49883-0.17837-0.08465-0.38244-0.12698-0.6122-0.12698-0.072557 0-0.15872 0.006047-0.25848 0.01814-0.099766 0.012093-0.19348 0.034766-0.28116 0.068022-0.087674 0.033255-0.16174 0.081626-0.22221 0.14511s-0.090696 0.14662-0.090696 0.24942c0 0.12698 0.043836 0.22976 0.13151 0.30837 0.087674 0.078604 0.20255 0.1436 0.34465 0.195 0.14209 0.051395 0.30383 0.095231 0.48523 0.13151 0.18139 0.036279 0.36883 0.07558 0.56232 0.1179 0.18744 0.042325 0.37185 0.093719 0.55325 0.15418 0.18139 0.060464 0.34313 0.14209 0.48523 0.24488s0.25697 0.23279 0.34465 0.38999c0.087674 0.15721 0.13151 0.35069 0.13151 0.58046 0 0.27814-0.063487 0.51394-0.19046 0.70743-0.12698 0.19349-0.29174 0.35069-0.49429 0.47162s-0.42778 0.2086-0.67569 0.26302-0.49278 0.081627-0.73464 0.081627c-0.29628 0-0.56987-0.033255-0.8208-0.099766s-0.4686-0.16779-0.65301-0.30383c-0.18442-0.13604-0.32953-0.30534-0.43534-0.5079-0.10581-0.20256-0.16174-0.4429-0.16779-0.72104h1.0339z" fill="#B7D5EA"/>
<path d="m110.64 162.43c0.414 0 0.771-0.0465 1.071-0.1395s0.546-0.219 0.738-0.378 0.333-0.348 0.423-0.567 0.135-0.4545 0.135-0.7065c0-0.438-0.102-0.8025-0.306-1.0935s-0.504-0.4785-0.9-0.5625v-0.018c0.294-0.126 0.5205-0.3045 0.6795-0.5355s0.2385-0.5085 0.2385-0.8325c0-0.534-0.174-0.933-0.522-1.197s-0.81-0.396-1.386-0.396h-3.123v6.426h2.952zm9e-3 -3.735h-1.836v-1.773h1.836c0.306 0 0.54 0.066 0.702 0.198s0.243 0.36 0.243 0.684c0 0.288-0.09 0.5085-0.27 0.6615s-0.405 0.2295-0.675 0.2295zm0.153 2.817h-1.989v-2.007h1.989c0.342 0 0.6075 0.0855 0.7965 0.2565s0.2835 0.4155 0.2835 0.7335c0 0.324-0.0945 0.5745-0.2835 0.7515s-0.4545 0.2655-0.7965 0.2655zm5.688 0.918v-6.3h-0.837c-0.036 0.192-0.1125 0.354-0.2295 0.486s-0.258 0.24-0.423 0.324-0.3495 0.144-0.5535 0.18-0.414 0.054-0.63 0.054v0.81h1.548v4.446h1.125zm22.5 0c0.414 0 0.771-0.0465 1.071-0.1395s0.546-0.219 0.738-0.378 0.333-0.348 0.423-0.567 0.135-0.4545 0.135-0.7065c0-0.438-0.102-0.8025-0.306-1.0935s-0.504-0.4785-0.9-0.5625v-0.018c0.294-0.126 0.5205-0.3045 0.6795-0.5355s0.2385-0.5085 0.2385-0.8325c0-0.534-0.174-0.933-0.522-1.197s-0.81-0.396-1.386-0.396h-3.123v6.426h2.952zm9e-3 -3.735h-1.836v-1.773h1.836c0.306 0 0.54 0.066 0.702 0.198s0.243 0.36 0.243 0.684c0 0.288-0.09 0.5085-0.27 0.6615s-0.405 0.2295-0.675 0.2295zm0.153 2.817h-1.989v-2.007h1.989c0.342 0 0.6075 0.0855 0.7965 0.2565s0.2835 0.4155 0.2835 0.7335c0 0.324-0.0945 0.5745-0.2835 0.7515s-0.4545 0.2655-0.7965 0.2655zm7.191 0.918v-0.918h-3.069c0.042-0.138 0.12-0.2685 0.234-0.3915s0.2475-0.2415 0.4005-0.3555 0.3195-0.228 0.4995-0.342 0.36-0.234 0.54-0.36 0.354-0.261 0.522-0.405 0.318-0.3015 0.45-0.4725 0.237-0.3585 0.315-0.5625 0.117-0.432 0.117-0.684c0-0.204-0.033-0.4185-0.099-0.6435s-0.1785-0.4335-0.3375-0.6255-0.3675-0.351-0.6255-0.477-0.579-0.189-0.963-0.189c-0.354 0-0.6645 0.0615-0.9315 0.1845s-0.4935 0.2925-0.6795 0.5085-0.3255 0.4725-0.4185 0.7695-0.1395 0.6195-0.1395 0.9675h1.026c6e-3 -0.222 0.0285-0.429 0.0675-0.621s0.099-0.3585 0.18-0.4995 0.189-0.252 0.324-0.333 0.3045-0.1215 0.5085-0.1215c0.222 0 0.402 0.0375 0.54 0.1125s0.246 0.168 0.324 0.279 0.1305 0.231 0.1575 0.36 0.0405 0.2505 0.0405 0.3645c-6e-3 0.246-0.069 0.4635-0.189 0.6525s-0.273 0.3645-0.459 0.5265-0.39 0.3135-0.612 0.4545-0.435 0.2865-0.639 0.4365c-0.426 0.288-0.762 0.627-1.008 1.017s-0.372 0.846-0.378 1.368h4.302z" fill="#B7D5EA" fill-rule="nonzero"/>
<polygon points="127.3 163.5 127.3 155.5 126.39 155.5 126.39 163.5" fill="#B7D5EA" fill-rule="nonzero"/>
<rect x="36" y="40" width="149" height="33" rx="1.6923" stroke="#fff" stroke-width="1.5"/>
<path d="m76.312 61.21c1.0827 0 1.939-0.29633 2.569-0.889s0.945-1.2997 0.945-2.121c0-0.70933-0.23333-1.3207-0.7-1.834s-1.1293-0.854-1.988-1.022l-1.428-0.294c-0.77467-0.168-1.162-0.59267-1.162-1.274 0-0.392 0.161-0.728 0.483-1.008s0.73033-0.42 1.225-0.42c0.59733 0 1.0547 0.15867 1.372 0.476s0.50867 0.66733 0.574 1.05l1.512-0.476c-0.14-0.672-0.49-1.2623-1.05-1.771s-1.3673-0.763-2.422-0.763c-0.924 0-1.7173 0.29867-2.38 0.896s-0.994 1.3113-0.994 2.142c0 0.728 0.22633 1.3347 0.679 1.82s1.0663 0.80733 1.841 0.966l1.4 0.294c0.42 0.093333 0.74667 0.259 0.98 0.497s0.35 0.52033 0.35 0.847c0 0.40133-0.15633 0.73033-0.469 0.987s-0.75833 0.385-1.337 0.385c-0.672 0-1.204-0.19133-1.596-0.574s-0.616-0.854-0.672-1.414l-1.568 0.448c0.084 0.812 0.45267 1.5237 1.106 2.135s1.5633 0.917 2.73 0.917zm6.972 0c0.952 0 1.652-0.35933 2.1-1.078 0 0.43867 0.023333 0.728 0.07 0.868h1.512c-0.056-0.28-0.084-0.644-0.084-1.092v-3.388c0-0.74667-0.23567-1.358-0.707-1.834s-1.2017-0.714-2.191-0.714c-0.80267 0-1.4653 0.217-1.988 0.651s-0.81667 0.959-0.882 1.575l1.484 0.336c0.037333-0.364 0.17733-0.66033 0.42-0.889s0.56933-0.343 0.98-0.343c0.42933 0 0.75133 0.095667 0.966 0.287s0.322 0.441 0.322 0.749c0 0.28-0.168 0.44333-0.504 0.49l-1.75 0.266c-0.616 0.093333-1.113 0.315-1.491 0.665s-0.567 0.81433-0.567 1.393c0 0.56 0.21233 1.043 0.637 1.449s0.98233 0.609 1.673 0.609zm0.308-1.274c-0.308 0-0.55067-0.086333-0.728-0.259s-0.266-0.38033-0.266-0.623c0-0.51333 0.30333-0.82133 0.91-0.924l1.778-0.266v0.308c0 0.62533-0.15633 1.0757-0.469 1.351s-0.721 0.413-1.225 0.413zm8.666 1.064 2.674-6.818h-1.708l-1.764 4.872-1.806-4.872h-1.792l2.772 6.818h1.624zm6.608 0.21c0.784 0 1.4443-0.203 1.981-0.609s0.903-0.92167 1.099-1.547l-1.372-0.434c-0.26133 0.79333-0.83067 1.19-1.708 1.19-0.504 0-0.93567-0.168-1.295-0.504s-0.54833-0.76067-0.567-1.274h4.984c0.028-0.056 0.042-0.22867 0.042-0.518 0-1.0827-0.294-1.9437-0.882-2.583s-1.4047-0.959-2.45-0.959c-0.896 0-1.673 0.336-2.331 1.008s-0.987 1.5307-0.987 2.576c0 1.1107 0.33833 1.9973 1.015 2.66s1.5003 0.994 2.471 0.994zm1.526-4.368h-3.346c0.028-0.40133 0.19133-0.75367 0.49-1.057s0.69067-0.455 1.176-0.455c0.532 0 0.94033 0.14467 1.225 0.434 0.28467 0.28933 0.43633 0.64867 0.455 1.078zm9.156 4.242c0.42 0 0.75133-0.051333 0.994-0.154v-1.344c-0.18667 0.037333-0.37333 0.056-0.56 0.056-0.29867 0-0.518-0.067667-0.658-0.203s-0.21-0.35233-0.21-0.651v-3.164h1.414v-1.442h-1.414v-2.086h-1.47v1.022c0 0.31733-0.088667 0.574-0.266 0.77s-0.43867 0.294-0.784 0.294h-0.35v1.442h1.26v3.43c0 0.63467 0.182 1.1317 0.546 1.491s0.86333 0.539 1.498 0.539zm5.572 0.126c1.0267 0 1.8737-0.343 2.541-1.029s1.001-1.5517 1.001-2.597-0.33367-1.9087-1.001-2.59-1.5143-1.022-2.541-1.022c-1.0173 0-1.8597 0.34067-2.527 1.022s-1.001 1.5447-1.001 2.59 0.33367 1.911 1.001 2.597 1.5097 1.029 2.527 1.029zm0-1.456c-0.532 0-0.98467-0.19133-1.358-0.574-0.364-0.392-0.546-0.924-0.546-1.596s0.18433-1.197 0.553-1.575 0.819-0.567 1.351-0.567 0.98233 0.189 1.351 0.567 0.553 0.903 0.553 1.575c0 0.68133-0.18433 1.2133-0.553 1.596s-0.819 0.574-1.351 0.574zm14.952 1.246v-1.596h-4.55v-8.33h-1.68v9.926h6.23zm2.198-8.162c0.29867 0 0.55067-0.10267 0.756-0.308s0.308-0.45267 0.308-0.742c0-0.29867-0.10267-0.55067-0.308-0.756s-0.45733-0.308-0.756-0.308c-0.28933 0-0.53667 0.105-0.742 0.315s-0.308 0.45967-0.308 0.749 0.10267 0.53667 0.308 0.742 0.45267 0.308 0.742 0.308zm0.812 8.162v-6.818h-1.61v6.818h1.61zm5.782 0.168c0.97067 0 1.7477-0.33833 2.331-1.015s0.875-1.5423 0.875-2.597c0-1.036-0.27767-1.8877-0.833-2.555s-1.3277-1.001-2.317-1.001c-0.49467 0-0.93333 0.098-1.316 0.294s-0.658 0.43867-0.826 0.728v-4.158h-1.596v10.136h1.582v-0.91c0.42933 0.71867 1.1293 1.078 2.1 1.078zm-0.266-1.442c-0.532 0-0.97067-0.196-1.316-0.588s-0.518-0.91467-0.518-1.568c0-0.66267 0.17267-1.183 0.518-1.561s0.784-0.567 1.316-0.567c0.55067 0 0.994 0.189 1.33 0.567s0.504 0.89833 0.504 1.561-0.17267 1.19-0.518 1.582c-0.336 0.38267-0.77467 0.574-1.316 0.574zm6.664 1.274v-3.248c0-1.3347 0.61133-2.002 1.834-2.002 0.168 0 0.34533 0.014 0.532 0.042v-1.652c-0.14-0.028-0.28467-0.042-0.434-0.042-0.448 0-0.84933 0.105-1.204 0.315s-0.61133 0.497-0.77 0.861v-1.092h-1.582v6.818h1.624zm5.628 0.21c0.952 0 1.652-0.35933 2.1-1.078 0 0.43867 0.023333 0.728 0.07 0.868h1.512c-0.056-0.28-0.084-0.644-0.084-1.092v-3.388c0-0.74667-0.23567-1.358-0.707-1.834s-1.2017-0.714-2.191-0.714c-0.80267 0-1.4653 0.217-1.988 0.651s-0.81667 0.959-0.882 1.575l1.484 0.336c0.037333-0.364 0.17733-0.66033 0.42-0.889s0.56933-0.343 0.98-0.343c0.42933 0 0.75133 0.095667 0.966 0.287s0.322 0.441 0.322 0.749c0 0.28-0.168 0.44333-0.504 0.49l-1.75 0.266c-0.616 0.093333-1.113 0.315-1.491 0.665s-0.567 0.81433-0.567 1.393c0 0.56 0.21233 1.043 0.637 1.449s0.98233 0.609 1.673 0.609zm0.308-1.274c-0.308 0-0.55067-0.086333-0.728-0.259s-0.266-0.38033-0.266-0.623c0-0.51333 0.30333-0.82133 0.91-0.924l1.778-0.266v0.308c0 0.62533-0.15633 1.0757-0.469 1.351s-0.721 0.413-1.225 0.413zm6.874 1.064v-3.248c0-1.3347 0.61133-2.002 1.834-2.002 0.168 0 0.34533 0.014 0.532 0.042v-1.652c-0.14-0.028-0.28467-0.042-0.434-0.042-0.448 0-0.84933 0.105-1.204 0.315s-0.61133 0.497-0.77 0.861v-1.092h-1.582v6.818h1.624zm6.048 2.758 4.34-9.576h-1.722l-1.834 4.312-1.96-4.312h-1.834l2.912 6.006-1.638 3.57h1.736z" fill="#fff" fill-rule="nonzero"/>
<path d="m64 49.723c0-0.39885-0.29867-0.72256-0.66667-0.72256h-10.667c-0.368 0-0.66667 0.3237-0.66667 0.72256v15.277l6-3.9885 6 3.9885v-15.277z" fill="#fff" fill-rule="nonzero"/>
<path d="m193 43.498c0-0.82738 0.66695-1.4981 1.5013-1.4981h20.997c0.82915 0 1.5013 0.67416 1.5013 1.4981v26.004c0 0.82738-0.66695 1.4981-1.5013 1.4981h-20.997c-0.82915 0-1.5013-0.67416-1.5013-1.4981v-26.004z" fill="#fff" opacity=".10075"/>
<rect transform="translate(24.769 116.23) rotate(90) translate(-24.769 -116.23)" x="18.846" y="114.54" width="11.846" height="3.3846" rx="1.6923" fill="#B7D5EA"/>
<rect transform="translate(19.692 115.38) rotate(90) translate(-19.692 -115.38)" x="16.308" y="113.69" width="6.7692" height="3.3846" rx="1.6923" fill="#B7D5EA"/>
<rect transform="translate(24.769 125.54) rotate(90) translate(-24.769 -125.54)" x="23.077" y="123.85" width="3.3846" height="3.3846" rx="1.6923" fill="#B7D5EA"/>
<rect x="34.923" y="89" width="152.31" height="8.4615" rx="1.6923" fill="#B7D5EA"/>
<path d="m18 107.69c0-0.93446 0.76615-1.692 1.6873-1.692h181.93c0.93184 0 1.6873 0.7509 1.6873 1.692v5.0776c0 0.93446-0.76615 1.692-1.6873 1.692h-183.62v-6.7696z" fill="#B7D5EA"/>
<path d="m185.75 208.27c0.13587-0.36161 0.35621-0.36148 0.49203 0l1.2243 3.2585 3.2585 1.2243c0.36161 0.13587 0.36148 0.35621 0 0.49203l-3.2585 1.2243-1.2243 3.2585c-0.13587 0.36161-0.35621 0.36148-0.49203 0l-1.2243-3.2585-3.2585-1.2243c-0.36161-0.13587-0.36148-0.35621 0-0.49203l3.2585-1.2243 1.2243-3.2585z" fill="#EE84C4" opacity=".47221"/>
<path d="m13.557 6.4881c0.24457-0.6509 0.64117-0.65067 0.88565 0l2.2038 5.8653 5.8653 2.2038c0.6509 0.24457 0.65067 0.64117 0 0.88565l-5.8653 2.2038-2.2038 5.8653c-0.24457 0.6509-0.64117 0.65067-0.88565 0l-2.2038-5.8653-5.8653-2.2038c-0.6509-0.24457-0.65067-0.64117 0-0.88565l5.8653-2.2038 2.2038-5.8653z" fill="#EE84C4"/>
<path d="m189.7 27.325c0.16304-0.43393 0.42745-0.43378 0.59043 0l1.4692 3.9102 3.9102 1.4692c0.43393 0.16304 0.43378 0.42745 0 0.59043l-3.9102 1.4692-1.4692 3.9102c-0.16304 0.43393-0.42745 0.43378-0.59043 0l-1.4692-3.9102-3.9102-1.4692c-0.43393-0.16304-0.43378-0.42745 0-0.59043l3.9102-1.4692 1.4692-3.9102z" fill="#fff" opacity=".59887"/>
</g>
</svg>
