<?xml version="1.0" encoding="UTF-8"?>
<svg viewBox="0 0 220 220" xmlns="http://www.w3.org/2000/svg">
<g fill-rule="evenodd">
<circle cx="110" cy="110" r="110" fill="#FBE3F2"/>
<path d="m167.16 15.997 0.002491 2e-3 48.84 9.341e-4c2.2091 0 4 1.7909 4 4v88c0 0.1101-0.004448 0.21916-0.013175 0.32701 0.009008 0.55636 0.013175 1.1142 0.013175 1.673 0 30.487-12.403 58.078-32.438 78.001h-155.12c-18.754-18.65-30.821-44.017-32.287-72.191v-11.62c1.9455-37.385 22.557-69.83 52.692-88.193h114.31z" fill="#4386B7"/>
<path d="m123.48 135c3.0467 0 5.5165 2.4709 5.5165 5.5145v68.971c0 3.0456-2.4754 5.5145-5.5165 5.5145l-46.363 0.00196c-36.895-11.541-65.433-41.991-74.267-80.002h120.63z" fill="#fff"/>
<path d="m118.25 178c1.5209 0 2.7539 1.2276 2.7539 2.7544v23.491c0 1.5212-1.2406 2.7544-2.7539 2.7544l-60.165 9.9e-4c-1.2016-0.64447-2.3898-1.3106-3.5641-1.9979l63.112-0.003076c0.70856 0 1.298-0.52222 1.3649-1.1843l0.00632-0.12569v-22.38c0-0.68391-0.54176-1.2409-1.2388-1.3041l-0.13242-0.005966-66.629 1e-3 -1.915e-4 22.854c-9.4791-6.0357-17.972-13.483-25.182-22.046l-0.67279-0.80678c-0.54541-0.66038-1.0833-1.3272-1.6134-2.0004l94.715-0.001677z" fill="#E4E4E4"/>
<path d="m118.93 172-99.8 0.001386-0.47796-0.70502-0.85684-1.294c-5.2201-8.0056-9.426-16.733-12.435-26.001l-0.31957-1.0006 113.89-9.19e-4c1.1458 0 2.0747 1.2276 2.0747 2.7544v23.491c0 1.5212-0.92156 2.7544-2.0747 2.7544zm-0.95529-27h-35.971v25h35.971c0.53983 0 0.97591-0.51665 1.0253-1.1834l0.004669-0.12668v-22.38c0-0.68323-0.40646-1.2408-0.93046-1.3041l-0.099555-0.005973z" fill="#ED77BE"/>
<path d="m98.69 156.51v-8.508h-1.44c-0.04 0.224-0.122 0.43-0.246 0.618s-0.284 0.354-0.48 0.498-0.422 0.258-0.678 0.342-0.536 0.13-0.84 0.138v1.128h2.04v5.784h1.644zm6.864 0v-1.836h1.404v-1.452h-1.404v-5.22h-2.1l-3.588 4.896v1.776h4.044v1.836h1.644zm-1.644-3.288h-2.568l2.568-3.528v3.528zm-13.902 13.288 2.292-5.904h-1.68l-1.404 3.96-1.464-3.96h-1.752l2.412 5.904h1.596zm5.82 0.18c0.44 0 0.85-0.078 1.23-0.234s0.708-0.374 0.984-0.654 0.492-0.61 0.648-0.99 0.234-0.798 0.234-1.254-0.078-0.876-0.234-1.26-0.372-0.714-0.648-0.99-0.604-0.492-0.984-0.648-0.79-0.234-1.23-0.234-0.85 0.078-1.23 0.234-0.708 0.372-0.984 0.648-0.492 0.606-0.648 0.99-0.234 0.804-0.234 1.26 0.078 0.874 0.234 1.254 0.372 0.71 0.648 0.99 0.604 0.498 0.984 0.654 0.79 0.234 1.23 0.234zm0-1.452c-0.192 0-0.38-0.036-0.564-0.108s-0.344-0.178-0.48-0.318-0.246-0.314-0.33-0.522-0.126-0.452-0.126-0.732 0.042-0.524 0.126-0.732 0.194-0.382 0.33-0.522 0.296-0.246 0.48-0.318 0.372-0.108 0.564-0.108 0.38 0.036 0.564 0.108 0.344 0.178 0.48 0.318 0.246 0.314 0.33 0.522 0.126 0.452 0.126 0.732-0.042 0.524-0.126 0.732-0.194 0.382-0.33 0.522-0.296 0.246-0.48 0.318-0.372 0.108-0.564 0.108zm6.648 1.356c0.232 0 0.422-0.016 0.57-0.048s0.258-0.064 0.33-0.096v-1.32c-0.04 0.016-0.108 0.028-0.204 0.036s-0.192 0.012-0.288 0.012c-0.232 0-0.406-0.05-0.522-0.15s-0.174-0.278-0.174-0.534v-2.472h1.188v-1.416h-1.188v-1.764h-1.44v0.828c0 0.264-0.074 0.486-0.222 0.666s-0.378 0.27-0.69 0.27h-0.3v1.416h1.068v2.748c0 0.576 0.168 1.024 0.504 1.344s0.792 0.48 1.368 0.48zm4.812 0.096c0.36 0 0.69-0.05 0.99-0.15s0.562-0.234 0.786-0.402 0.414-0.366 0.57-0.594 0.27-0.47 0.342-0.726l-1.332-0.396c-0.096 0.264-0.25 0.48-0.462 0.648s-0.506 0.252-0.882 0.252c-0.2 0-0.388-0.034-0.564-0.102s-0.33-0.162-0.462-0.282-0.24-0.262-0.324-0.426-0.13-0.342-0.138-0.534h4.224c0-0.016 4e-3 -0.074 0.012-0.174s0.012-0.206 0.012-0.318c0-0.952-0.256-1.7-0.768-2.244s-1.228-0.816-2.148-0.816c-0.376 0-0.74 0.074-1.092 0.222s-0.662 0.356-0.93 0.624-0.482 0.594-0.642 0.978-0.24 0.812-0.24 1.284c0 0.496 0.082 0.94 0.246 1.332s0.386 0.724 0.666 0.996 0.604 0.478 0.972 0.618 0.756 0.21 1.164 0.21zm1.2-3.804h-2.64c8e-3 -0.136 0.042-0.272 0.102-0.408s0.146-0.26 0.258-0.372 0.248-0.204 0.408-0.276 0.344-0.108 0.552-0.108c0.224 0 0.418 0.034 0.582 0.102s0.3 0.156 0.408 0.264 0.188 0.232 0.24 0.372 0.082 0.282 0.09 0.426zm4.92 3.804c0.384 0 0.72-0.056 1.008-0.168s0.528-0.26 0.72-0.444 0.334-0.392 0.426-0.624 0.138-0.468 0.138-0.708c0-0.432-0.146-0.812-0.438-1.14s-0.73-0.552-1.314-0.672l-0.84-0.18c-0.16-0.032-0.29-0.092-0.39-0.18s-0.15-0.204-0.15-0.348c0-0.168 0.074-0.308 0.222-0.42s0.326-0.168 0.534-0.168c0.168 0 0.31 0.024 0.426 0.072s0.214 0.112 0.294 0.192 0.138 0.166 0.174 0.258 0.062 0.182 0.078 0.27l1.332-0.3c-0.016-0.16-0.068-0.338-0.156-0.534s-0.222-0.382-0.402-0.558-0.414-0.322-0.702-0.438-0.64-0.174-1.056-0.174c-0.32 0-0.614 0.052-0.882 0.156s-0.5 0.242-0.696 0.414-0.35 0.376-0.462 0.612-0.168 0.486-0.168 0.75c0 0.416 0.132 0.782 0.396 1.098s0.684 0.538 1.26 0.666l0.78 0.18c0.232 0.048 0.396 0.122 0.492 0.222s0.144 0.218 0.144 0.354c0 0.16-0.064 0.298-0.192 0.414s-0.324 0.174-0.588 0.174c-0.352 0-0.616-0.092-0.792-0.276s-0.272-0.392-0.288-0.624l-1.368 0.3c0.016 0.168 0.07 0.358 0.162 0.57s0.234 0.41 0.426 0.594 0.44 0.34 0.744 0.468 0.68 0.192 1.128 0.192z" fill="#284155" fill-rule="nonzero"/>
<path d="m99.884 191.87c0.72 0 1.354-0.11 1.902-0.33s1.004-0.54 1.368-0.96 0.64-0.932 0.828-1.536 0.282-1.29 0.282-2.058c0-0.672-0.092-1.258-0.276-1.758s-0.43-0.916-0.738-1.248-0.666-0.578-1.074-0.738-0.836-0.24-1.284-0.24c-0.456 0-0.88 0.072-1.272 0.216s-0.732 0.348-1.02 0.612-0.514 0.578-0.678 0.942-0.246 0.762-0.246 1.194c0 0.448 0.08 0.848 0.24 1.2s0.374 0.652 0.642 0.9 0.58 0.436 0.936 0.564 0.726 0.192 1.11 0.192c0.48 0 0.898-0.09 1.254-0.27s0.614-0.406 0.774-0.678c-0.04 0.792-0.298 1.414-0.774 1.866s-1.138 0.678-1.986 0.678c-0.288 0-0.574-0.038-0.858-0.114s-0.506-0.158-0.666-0.246l-0.432 1.344c0.104 0.072 0.234 0.136 0.39 0.192s0.32 0.104 0.492 0.144 0.352 0.072 0.54 0.096 0.37 0.036 0.546 0.036zm0.972-4.44c-0.216 0-0.418-0.034-0.606-0.102s-0.352-0.168-0.492-0.3-0.252-0.292-0.336-0.48-0.126-0.398-0.126-0.63c0-0.224 0.042-0.43 0.126-0.618s0.198-0.346 0.342-0.474 0.31-0.228 0.498-0.3 0.386-0.108 0.594-0.108 0.406 0.036 0.594 0.108 0.354 0.174 0.498 0.306 0.258 0.29 0.342 0.474 0.126 0.388 0.126 0.612c0 0.232-0.042 0.44-0.126 0.624s-0.198 0.342-0.342 0.474-0.31 0.234-0.498 0.306-0.386 0.108-0.594 0.108zm-10.848 14.26 2.292-5.904h-1.68l-1.404 3.96-1.464-3.96h-1.752l2.412 5.904h1.596zm5.82 0.18c0.44 0 0.85-0.078 1.23-0.234s0.708-0.374 0.984-0.654 0.492-0.61 0.648-0.99 0.234-0.798 0.234-1.254-0.078-0.876-0.234-1.26-0.372-0.714-0.648-0.99-0.604-0.492-0.984-0.648-0.79-0.234-1.23-0.234-0.85 0.078-1.23 0.234-0.708 0.372-0.984 0.648-0.492 0.606-0.648 0.99-0.234 0.804-0.234 1.26 0.078 0.874 0.234 1.254 0.372 0.71 0.648 0.99 0.604 0.498 0.984 0.654 0.79 0.234 1.23 0.234zm0-1.452c-0.192 0-0.38-0.036-0.564-0.108s-0.344-0.178-0.48-0.318-0.246-0.314-0.33-0.522-0.126-0.452-0.126-0.732 0.042-0.524 0.126-0.732 0.194-0.382 0.33-0.522 0.296-0.246 0.48-0.318 0.372-0.108 0.564-0.108 0.38 0.036 0.564 0.108 0.344 0.178 0.48 0.318 0.246 0.314 0.33 0.522 0.126 0.452 0.126 0.732-0.042 0.524-0.126 0.732-0.194 0.382-0.33 0.522-0.296 0.246-0.48 0.318-0.372 0.108-0.564 0.108zm6.648 1.356c0.232 0 0.422-0.016 0.57-0.048s0.258-0.064 0.33-0.096v-1.32c-0.04 0.016-0.108 0.028-0.204 0.036s-0.192 0.012-0.288 0.012c-0.232 0-0.406-0.05-0.522-0.15s-0.174-0.278-0.174-0.534v-2.472h1.188v-1.416h-1.188v-1.764h-1.44v0.828c0 0.264-0.074 0.486-0.222 0.666s-0.378 0.27-0.69 0.27h-0.3v1.416h1.068v2.748c0 0.576 0.168 1.024 0.504 1.344s0.792 0.48 1.368 0.48zm4.812 0.096c0.36 0 0.69-0.05 0.99-0.15s0.562-0.234 0.786-0.402 0.414-0.366 0.57-0.594 0.27-0.47 0.342-0.726l-1.332-0.396c-0.096 0.264-0.25 0.48-0.462 0.648s-0.506 0.252-0.882 0.252c-0.2 0-0.388-0.034-0.564-0.102s-0.33-0.162-0.462-0.282-0.24-0.262-0.324-0.426-0.13-0.342-0.138-0.534h4.224c0-0.016 4e-3 -0.074 0.012-0.174s0.012-0.206 0.012-0.318c0-0.952-0.256-1.7-0.768-2.244s-1.228-0.816-2.148-0.816c-0.376 0-0.74 0.074-1.092 0.222s-0.662 0.356-0.93 0.624-0.482 0.594-0.642 0.978-0.24 0.812-0.24 1.284c0 0.496 0.082 0.94 0.246 1.332s0.386 0.724 0.666 0.996 0.604 0.478 0.972 0.618 0.756 0.21 1.164 0.21zm1.2-3.804h-2.64c8e-3 -0.136 0.042-0.272 0.102-0.408s0.146-0.26 0.258-0.372 0.248-0.204 0.408-0.276 0.344-0.108 0.552-0.108c0.224 0 0.418 0.034 0.582 0.102s0.3 0.156 0.408 0.264 0.188 0.232 0.24 0.372 0.082 0.282 0.09 0.426zm4.92 3.804c0.384 0 0.72-0.056 1.008-0.168s0.528-0.26 0.72-0.444 0.334-0.392 0.426-0.624 0.138-0.468 0.138-0.708c0-0.432-0.146-0.812-0.438-1.14s-0.73-0.552-1.314-0.672l-0.84-0.18c-0.16-0.032-0.29-0.092-0.39-0.18s-0.15-0.204-0.15-0.348c0-0.168 0.074-0.308 0.222-0.42s0.326-0.168 0.534-0.168c0.168 0 0.31 0.024 0.426 0.072s0.214 0.112 0.294 0.192 0.138 0.166 0.174 0.258 0.062 0.182 0.078 0.27l1.332-0.3c-0.016-0.16-0.068-0.338-0.156-0.534s-0.222-0.382-0.402-0.558-0.414-0.322-0.702-0.438-0.64-0.174-1.056-0.174c-0.32 0-0.614 0.052-0.882 0.156s-0.5 0.242-0.696 0.414-0.35 0.376-0.462 0.612-0.168 0.486-0.168 0.75c0 0.416 0.132 0.782 0.396 1.098s0.684 0.538 1.26 0.666l0.78 0.18c0.232 0.048 0.396 0.122 0.492 0.222s0.144 0.218 0.144 0.354c0 0.16-0.064 0.298-0.192 0.414s-0.324 0.174-0.588 0.174c-0.352 0-0.616-0.092-0.792-0.276s-0.272-0.392-0.288-0.624l-1.368 0.3c0.016 0.168 0.07 0.358 0.162 0.57s0.234 0.41 0.426 0.594 0.44 0.34 0.744 0.468 0.68 0.192 1.128 0.192z" fill="#284155" fill-rule="nonzero" opacity=".3"/>
<path d="m208.37 214.12h-40.737c-0.75961 0-1.4473-0.30789-1.9451-0.80569s-0.80569-1.1855-0.80569-1.9451v-28.737c0-0.75961 0.30789-1.4473 0.80569-1.9451s1.1855-0.80569 1.9451-0.80569h40.737c0.75961 0 1.4473 0.30789 1.9451 0.80569s0.80569 1.1855 0.80569 1.9451v28.737c0 0.75961-0.30789 1.4473-0.80569 1.9451s-1.1855 0.80569-1.9451 0.80569z" fill="#fff" stroke="#6FABD6" stroke-width="2.239"/>
<path d="m193.03 195 0.052046 0.052046 12.778 13.368c0.31126 0.32563 0.29961 0.84194-0.026023 1.1532-0.15177 0.14507-0.35364 0.22603-0.56359 0.22603h-35.317c-0.45047 0-0.81564-0.36518-0.81564-0.81564 0-0.18898 0.065622-0.3721 0.18566-0.51806l5.2808-6.4218c0.57224-0.69587 1.6002-0.79609 2.2961-0.22385 0.081699 0.067184 0.15667 0.14215 0.22385 0.22385l3.1985 3.8895 10.401-10.881c0.62252-0.65127 1.6551-0.67457 2.3064-0.052046zm-19.839-10.001c1.8982 0 3.4369 1.5141 3.4369 3.3818 0 1.8677-1.5388 3.3818-3.4369 3.3818-1.8982 0-3.4369-1.5141-3.4369-3.3818 0-1.8677 1.5388-3.3818 3.4369-3.3818z" fill="#4B96CC"/>
<path d="m150.76 137v2h27.152v-2h5.8182c1.0711 0 1.9394 0.8683 1.9394 1.9394v28.121c0 1.0711-0.8683 1.9394-1.9394 1.9394h-5.8182v-2h-27.152v2h-5.8182c-1.0711 0-1.9394-0.8683-1.9394-1.9394v-28.121c0-1.0711 0.8683-1.9394 1.9394-1.9394h5.8182zm27.152 4h-27.152v24h27.152v-24zm-30.061 20h-1.9394c-0.4973 0-0.90716 0.37434-0.96317 0.85661l-0.006524 0.11309v2.0606c0 0.4973 0.37434 0.90716 0.85661 0.96317l0.11309 0.006524h1.9394c0.4973 0 0.90716-0.37434 0.96317-0.85661l0.006524-0.11309v-2.0606c0-0.4973-0.37434-0.90716-0.85661-0.96317l-0.11309-0.006524zm34.909 0h-1.9394c-0.4973 0-0.90716 0.37434-0.96317 0.85661l-0.006524 0.11309v2.0606c0 0.4973 0.37434 0.90716 0.85661 0.96317l0.11309 0.006524h1.9394c0.4973 0 0.90716-0.37434 0.96317-0.85661l0.006524-0.11309v-2.0606c0-0.4973-0.37434-0.90716-0.85661-0.96317l-0.11309-0.006524zm-21.303-13.101c0.22581 0 0.44852 0.052574 0.65049 0.15356l7.293 3.6465c0.71851 0.35926 1.0098 1.233 0.65049 1.9515-0.14075 0.28149-0.369 0.50974-0.65049 0.65049l-7.293 3.6465c-0.71851 0.35926-1.5922 0.068022-1.9515-0.65049-0.10098-0.20197-0.15356-0.42468-0.15356-0.65049v-7.293c0-0.80332 0.65122-1.4545 1.4545-1.4545zm-13.606 3.101h-1.9394c-0.4973 0-0.90716 0.37434-0.96317 0.85661l-0.006524 0.11309v2.0606c0 0.4973 0.37434 0.90716 0.85661 0.96317l0.11309 0.006524h1.9394c0.4973 0 0.90716-0.37434 0.96317-0.85661l0.006524-0.11309v-2.0606c0-0.4973-0.37434-0.90716-0.85661-0.96317l-0.11309-0.006524zm34.909 0h-1.9394c-0.4973 0-0.90716 0.37434-0.96317 0.85661l-0.006524 0.11309v2.0606c0 0.4973 0.37434 0.90716 0.85661 0.96317l0.11309 0.006524h1.9394c0.4973 0 0.90716-0.37434 0.96317-0.85661l0.006524-0.11309v-2.0606c0-0.4973-0.37434-0.90716-0.85661-0.96317l-0.11309-0.006524zm-34.909-10h-1.9394c-0.4973 0-0.90716 0.37434-0.96317 0.85661l-0.006524 0.11309v2.0606c0 0.4973 0.37434 0.90716 0.85661 0.96317l0.11309 0.006524h1.9394c0.4973 0 0.90716-0.37434 0.96317-0.85661l0.006524-0.11309v-2.0606c0-0.4973-0.37434-0.90716-0.85661-0.96317l-0.11309-0.006524zm34.909 0h-1.9394c-0.4973 0-0.90716 0.37434-0.96317 0.85661l-0.006524 0.11309v2.0606c0 0.4973 0.37434 0.90716 0.85661 0.96317l0.11309 0.006524h1.9394c0.4973 0 0.90716-0.37434 0.96317-0.85661l0.006524-0.11309v-2.0606c0-0.4973-0.37434-0.90716-0.85661-0.96317l-0.11309-0.006524z" fill="#fff"/>
<rect transform="translate(24.769 115.23) rotate(90) translate(-24.769 -115.23)" x="18.846" y="113.54" width="11.846" height="3.3846" rx="1.6923" fill="#B7D5EA"/>
<rect transform="translate(19.692 114.38) rotate(90) translate(-19.692 -114.38)" x="16.308" y="112.69" width="6.7692" height="3.3846" rx="1.6923" fill="#B7D5EA"/>
<rect transform="translate(24.769 124.54) rotate(90) translate(-24.769 -124.54)" x="23.077" y="122.85" width="3.3846" height="3.3846" rx="1.6923" fill="#B7D5EA"/>
<path d="m18 107.62c0-0.93446 0.76615-1.692 1.6873-1.692h181.93c0.93184 0 1.6873 0.7509 1.6873 1.692v5.0776c0 0.93446-0.76615 1.692-1.6873 1.692h-183.62v-6.7696z" fill="#B7D5EA"/>
<rect x="34.923" y="89" width="152.31" height="8.4615" rx="1.6923" fill="#B7D5EA"/>
<path d="m177 39.25h-133.99c-1.5193 0-2.754 1.2324-2.754 2.7517v27.997c0 1.5249 1.2312 2.7517 2.754 2.7517h133.99c1.5193 0 2.754-1.2324 2.754-2.7517v-27.997c0-1.5249-1.2312-2.7517-2.754-2.7517zm-133.99 1.5h133.99c0.69557 0 1.254 0.55647 1.254 1.2517v27.997c0 0.69026-0.56254 1.2517-1.254 1.2517h-133.99c-0.69557 0-1.254-0.55647-1.254-1.2517v-27.997c0-0.69026 0.56254-1.2517 1.254-1.2517z" fill="#fff" fill-rule="nonzero"/>
<path d="m65 48c0.44183 0 0.8 0.36424 0.8 0.79344v6.4056l6.4066 1e-3c0.4045 0 0.7383 0.30256 0.78726 0.69904l0.006182 0.10096c0 0.44183-0.36424 0.8-0.79344 0.8l-6.4066-1e-3v6.4076c0 0.4045-0.30256 0.7383-0.69904 0.78726l-0.10096 0.006182c-0.44183 0-0.8-0.36424-0.8-0.79344v-6.4076l-6.4066 1e-3c-0.4045 0-0.7383-0.30256-0.78726-0.69904l-0.006182-0.10096c0-0.44183 0.36424-0.8 0.79344-0.8l6.4066-1e-3v-6.4056c0-0.4045 0.30256-0.7383 0.69904-0.78726l0.10096-0.006182z" fill="#fff"/>
<path d="m85.044 61.304 0.826-2.268h4.032l0.826 2.268h2.1l-3.78-9.926h-2.24l-3.808 9.926h2.044zm4.214-4.032h-2.744l1.372-3.752 1.372 3.752zm7.602 4.2c0.46667 0 0.86567-0.093333 1.197-0.28s0.57633-0.41533 0.735-0.686c0 0.15867 7e-3 0.31267 0.021 0.462s0.030333 0.26133 0.049 0.336h1.778c-0.018667-0.14-0.032667-0.32433-0.042-0.553s-0.014-0.45967-0.014-0.693v-8.89h-1.834v3.934c-0.046667-0.093333-0.119-0.189-0.217-0.287s-0.22633-0.189-0.385-0.273-0.34767-0.154-0.567-0.21-0.47833-0.084-0.777-0.084c-0.48533 0-0.931 0.093333-1.337 0.28s-0.75367 0.441-1.043 0.763-0.51567 0.70233-0.679 1.141-0.245 0.91-0.245 1.414c0 0.52267 0.084 1.0057 0.252 1.449s0.399 0.826 0.693 1.148 0.64633 0.574 1.057 0.756 0.86333 0.273 1.358 0.273zm0.224-1.666c-0.49467 0-0.903-0.17267-1.225-0.518s-0.483-0.826-0.483-1.442 0.16567-1.092 0.497-1.428 0.735-0.504 1.211-0.504 0.87733 0.16567 1.204 0.497 0.49 0.805 0.49 1.421c0 0.62533-0.16333 1.1107-0.49 1.456s-0.728 0.518-1.204 0.518zm8.344 1.666c0.46667 0 0.86567-0.093333 1.197-0.28s0.57633-0.41533 0.735-0.686c0 0.15867 7e-3 0.31267 0.021 0.462s0.030333 0.26133 0.049 0.336h1.778c-0.018667-0.14-0.032667-0.32433-0.042-0.553s-0.014-0.45967-0.014-0.693v-8.89h-1.834v3.934c-0.046667-0.093333-0.119-0.189-0.217-0.287s-0.22633-0.189-0.385-0.273-0.34767-0.154-0.567-0.21-0.47833-0.084-0.777-0.084c-0.48533 0-0.931 0.093333-1.337 0.28s-0.75367 0.441-1.043 0.763-0.51567 0.70233-0.679 1.141-0.245 0.91-0.245 1.414c0 0.52267 0.084 1.0057 0.252 1.449s0.399 0.826 0.693 1.148 0.64633 0.574 1.057 0.756 0.86333 0.273 1.358 0.273zm0.224-1.666c-0.49467 0-0.903-0.17267-1.225-0.518s-0.483-0.826-0.483-1.442 0.16567-1.092 0.497-1.428 0.735-0.504 1.211-0.504 0.87733 0.16567 1.204 0.497 0.49 0.805 0.49 1.421c0 0.62533-0.16333 1.1107-0.49 1.456s-0.728 0.518-1.204 0.518zm10.682 1.694c0.51333 0 0.93567-0.10267 1.267-0.308s0.58567-0.44333 0.763-0.714c0 0.13067 7e-3 0.27767 0.021 0.441s0.030333 0.29167 0.049 0.385h1.708c-0.018667-0.12133-0.037333-0.287-0.056-0.497s-0.028-0.40833-0.028-0.595v-3.388c0-0.34533-0.053667-0.67667-0.161-0.994s-0.28-0.595-0.518-0.833-0.54833-0.42933-0.931-0.574-0.84467-0.217-1.386-0.217c-0.46667 0-0.87733 0.067667-1.232 0.203s-0.65333 0.31033-0.896 0.525-0.434 0.45733-0.574 0.728-0.224 0.54133-0.252 0.812l1.652 0.35c0.028-0.29867 0.15167-0.56 0.371-0.784s0.53433-0.336 0.945-0.336c0.392 0 0.68367 0.088667 0.875 0.266s0.287 0.38733 0.287 0.63c0 0.12133-0.037333 0.22633-0.112 0.315s-0.21 0.147-0.406 0.175l-1.694 0.252c-0.28933 0.046667-0.55767 0.12133-0.805 0.224s-0.46433 0.24267-0.651 0.42-0.33367 0.385-0.441 0.623-0.161 0.511-0.161 0.819c0 0.27067 0.053667 0.52967 0.161 0.777s0.26367 0.46667 0.469 0.658 0.455 0.34533 0.749 0.462 0.623 0.175 0.987 0.175zm0.392-1.386c-0.29867 0-0.52267-0.081667-0.672-0.245s-0.224-0.34767-0.224-0.553c0-0.27067 0.081667-0.47367 0.245-0.609s0.36633-0.22167 0.609-0.259l1.554-0.238v0.308c0 0.308-0.042 0.56233-0.126 0.763s-0.196 0.364-0.336 0.49-0.301 0.21467-0.483 0.266-0.371 0.077-0.567 0.077zm8.386 1.4c0.45733 0 0.868-0.067667 1.232-0.203s0.68133-0.31267 0.952-0.532 0.49233-0.46667 0.665-0.742 0.29633-0.55767 0.371-0.847l-1.638-0.546c-0.037333 0.13067-0.095667 0.266-0.175 0.406s-0.18433 0.266-0.315 0.378-0.287 0.203-0.469 0.273-0.38967 0.105-0.623 0.105c-0.24267 0-0.469-0.042-0.679-0.126s-0.39667-0.21-0.56-0.378-0.29167-0.37333-0.385-0.616-0.14-0.518-0.14-0.826 0.046667-0.58333 0.14-0.826 0.21933-0.44567 0.378-0.609 0.343-0.287 0.553-0.371 0.43633-0.126 0.679-0.126c0.45733 0 0.805 0.12133 1.043 0.364s0.399 0.50867 0.483 0.798l1.666-0.56c-0.074667-0.28933-0.196-0.574-0.364-0.854s-0.38733-0.52733-0.658-0.742-0.59033-0.38967-0.959-0.525-0.78633-0.203-1.253-0.203c-0.504 0-0.973 0.091-1.407 0.273s-0.812 0.434-1.134 0.756-0.574 0.707-0.756 1.155-0.273 0.938-0.273 1.47 0.093333 1.0197 0.28 1.463 0.44333 0.82833 0.77 1.155 0.71167 0.581 1.155 0.763 0.917 0.273 1.421 0.273zm7.336-0.112c0.27067 0 0.49233-0.018667 0.665-0.056s0.301-0.074667 0.385-0.112v-1.54c-0.046667 0.018667-0.126 0.032667-0.238 0.042s-0.224 0.014-0.336 0.014c-0.27067 0-0.47367-0.058333-0.609-0.175s-0.203-0.32433-0.203-0.623v-2.884h1.386v-1.652h-1.386v-2.058h-1.68v0.966c0 0.308-0.086333 0.567-0.259 0.777s-0.441 0.315-0.805 0.315h-0.35v1.652h1.246v3.206c0 0.672 0.196 1.1947 0.588 1.568s0.924 0.56 1.596 0.56zm3.472-8.106c0.32667 0 0.59967-0.112 0.819-0.336s0.329-0.49 0.329-0.798c0-0.32667-0.10967-0.602-0.329-0.826s-0.49233-0.336-0.819-0.336c-0.31733 0-0.588 0.112-0.812 0.336s-0.336 0.49933-0.336 0.826c0 0.308 0.112 0.574 0.336 0.798s0.49467 0.336 0.812 0.336zm0.938 8.008v-6.888h-1.862v6.888h1.862zm5.796 0 2.674-6.888h-1.96l-1.638 4.62-1.708-4.62h-2.044l2.814 6.888h1.862zm4.788-8.008c0.32667 0 0.59967-0.112 0.819-0.336s0.329-0.49 0.329-0.798c0-0.32667-0.10967-0.602-0.329-0.826s-0.49233-0.336-0.819-0.336c-0.31733 0-0.588 0.112-0.812 0.336s-0.336 0.49933-0.336 0.826c0 0.308 0.112 0.574 0.336 0.798s0.49467 0.336 0.812 0.336zm0.938 8.008v-6.888h-1.862v6.888h1.862zm4.662 0.098c0.27067 0 0.49233-0.018667 0.665-0.056s0.301-0.074667 0.385-0.112v-1.54c-0.046667 0.018667-0.126 0.032667-0.238 0.042s-0.224 0.014-0.336 0.014c-0.27067 0-0.47367-0.058333-0.609-0.175s-0.203-0.32433-0.203-0.623v-2.884h1.386v-1.652h-1.386v-2.058h-1.68v0.966c0 0.308-0.086333 0.567-0.259 0.777s-0.441 0.315-0.805 0.315h-0.35v1.652h1.246v3.206c0 0.672 0.196 1.1947 0.588 1.568s0.924 0.56 1.596 0.56zm5.04 2.618 4.326-9.604h-1.988l-1.694 4.032-1.834-4.032h-2.086l2.926 6.02-1.624 3.584h1.974z" fill="#fff" fill-rule="nonzero"/>
<path d="m122.75 205.27c0.13587-0.36161 0.35621-0.36148 0.49203 0l1.2243 3.2585 3.2585 1.2243c0.36161 0.13587 0.36148 0.35621 0 0.49203l-3.2585 1.2243-1.2243 3.2585c-0.13587 0.36161-0.35621 0.36148-0.49203 0l-1.2243-3.2585-3.2585-1.2243c-0.36161-0.13587-0.36148-0.35621 0-0.49203l3.2585-1.2243 1.2243-3.2585z" fill="#EE84C4" opacity=".47221"/>
<path d="m8.5572 0.48809c0.24457-0.6509 0.64117-0.65067 0.88565 0l2.2038 5.8653 5.8653 2.2038c0.6509 0.24457 0.65067 0.64117 0 0.88565l-5.8653 2.2038-2.2038 5.8653c-0.24457 0.6509-0.64117 0.65067-0.88565 0l-2.2038-5.8653-5.8653-2.2038c-0.6509-0.24457-0.65067-0.64117 0-0.88565l5.8653-2.2038 2.2038-5.8653z" fill="#EE84C4"/>
</g>
</svg>
