<svg width="20px" height="20px" viewBox="0 0 20 20">
        <path d="M10.5,0 C12.1627907,0 13.8255814,0.63022113 15.0953488,1.89066339 C17.6348837,4.41154791 17.6348837,8.49297999 15.0953488,10.983854 C14.0372093,12.0342225 13.4325581,14.1728677 13.2511628,15.5533521 C13.1906977,15.8234468 12.9186047,16.3636364 12.4046512,16.3636364 L8.59534884,16.3636364 C8.08139535,16.3636364 7.77906977,15.8234468 7.74883721,15.5533521 C7.59767442,14.1728677 6.9627907,12.0342225 5.90465116,10.983854 C3.36511628,8.49297999 3.36511628,4.41154791 5.90465116,1.89066339 C7.1744186,0.63022113 8.8372093,0 10.5,0 Z M8.63298044,17.2727273 L12.3667467,17.2727273 C12.6177852,17.2727273 12.8212921,17.4762342 12.8212921,17.7272727 C12.8212921,17.9783112 12.6177852,18.1818182 12.3667467,18.1818182 L8.63298044,18.1818182 C8.38194192,18.1818182 8.17843498,17.9783112 8.17843498,17.7272727 C8.17843498,17.4762342 8.38194192,17.2727273 8.63298044,17.2727273 Z M8.64285714,19.0909091 L12.3571429,19.0909091 L12.3571429,19.5454545 C12.3571429,19.7964931 12.1536359,20 11.9025974,20 L9.0974026,20 L9.0974026,20 C8.84636407,20 8.64285714,19.7964931 8.64285714,19.5454545 L8.64285714,19.0909091 Z M16.0431568,5.89393531 C16.030335,5.72179587 16.0168433,5.59192101 16.0026816,5.50431076 C15.632776,3.21591275 13.809299,1.40097434 11.4872532,0.994463125 C11.367126,0.973432935 11.1911706,0.954311872 10.9593871,0.937099936 L10.9593872,0.937097733 C10.7238165,0.91960456 10.5186676,1.09639139 10.5011744,1.33196217 C10.5003917,1.3425021 10.5,1.35306742 10.5,1.36363636 L10.5,1.39105903 L10.4999905,1.39105903 C10.4999905,1.62859364 10.6828804,1.82607744 10.9197167,1.84427775 C11.0890722,1.85729232 11.2174742,1.87128183 11.3049227,1.88624628 C13.2388773,2.21719051 14.7613373,3.71981886 15.0809199,5.6193512 C15.0927448,5.68963619 15.1044052,5.79805033 15.1159011,5.94459362 L15.1158555,5.9445972 C15.134412,6.18114616 15.3317787,6.36363636 15.5690544,6.36363636 L15.6071429,6.36363636 C15.8486153,6.36363636 16.0443674,6.16788428 16.0443674,5.92641184 C16.0443674,5.91557504 16.0439645,5.90474198 16.0431595,5.89393511 L16.0431568,5.89393531 Z" id="lightbulb" />
</svg>