<svg width="20px" height="20px" viewBox="0 0 20 20" version="1.1" xmlns="http://www.w3.org/2000/svg">
            <path d="M5.87509756,1.85346126 L18.9959279,1.85346126 L18.9959279,1.85346126 C19.5504616,1.85346126 20,2.30299964 20,2.85753333 L20,2.85753333 C20,3.41206702 19.5504616,3.8616054 18.9959279,3.8616054 L5.87509756,3.8616054 C5.32056387,3.8616054 4.87102549,3.41206702 4.87102549,2.85753333 L4.87102549,2.85753333 L4.87102549,2.85753333 C4.87102549,2.30299964 5.32056387,1.85346126 5.87509756,1.85346126 L5.87509756,1.85346126 Z M5.87509756,8.88196575 L18.9959279,8.88196575 L18.9959279,8.88196575 C19.5504616,8.88196575 20,9.33150413 20,9.88603782 L20,9.88603782 C20,10.4405715 19.5504616,10.8901099 18.9959279,10.8901099 L5.87509756,10.8901099 C5.32056387,10.8901099 4.87102549,10.4405715 4.87102549,9.88603782 C4.87102549,9.33150413 5.32056387,8.88196575 5.87509756,8.88196575 L5.87509756,8.88196575 Z M5.87509756,15.9104702 L18.9959279,15.9104702 C19.5504616,15.9104702 20,16.3600086 20,16.9145423 C20,17.469076 19.5504616,17.9186144 18.9959279,17.9186144 L5.87509756,17.9186144 C5.32056387,17.9186144 4.87102549,17.469076 4.87102549,16.9145423 C4.87102549,16.3600086 5.32056387,15.9104702 5.87509756,15.9104702 Z M0.122040394,1.64059798 C0.255176036,1.64059798 0.384611523,1.6295533 0.51035074,1.6074636 C0.636089957,1.58537391 0.749808278,1.5485583 0.851509115,1.49701567 C0.953209952,1.44547305 1.04011664,1.37920496 1.11223178,1.2982094 C1.18434691,1.21721385 1.23149841,1.11781171 1.25368769,1 L1.76958572,1 L1.76958572,4.86567747 L1.07617439,4.86567747 L1.07617439,2.13761366 L0.122040394,2.13761366 L0.122040394,1.64059798 Z M1.09281626,16.6585039 C1.1963662,16.6621855 1.29991459,16.6548224 1.40346454,16.6364143 C1.50701448,16.6180063 1.5994684,16.5857926 1.68082907,16.5397724 C1.76218974,16.4937522 1.82783202,16.4302453 1.87775789,16.3492497 C1.92768375,16.2682542 1.95264631,16.168852 1.95264631,16.0510403 C1.95264631,15.8853676 1.89624942,15.7528314 1.78345394,15.6534278 C1.67065847,15.5540242 1.52550582,15.5043231 1.34799163,15.5043231 C1.23704526,15.5043231 1.14089318,15.5264125 1.05953251,15.5705918 C0.978171845,15.6147712 0.910680484,15.6745966 0.857056406,15.7500697 C0.803432328,15.8255429 0.763677143,15.9102188 0.737789657,16.0041 C0.711902171,16.0979812 0.700807701,16.1946221 0.704505913,16.2940258 L0.0721147785,16.2940258 C0.079511203,16.1062634 0.114643692,15.9323096 0.177513301,15.7721593 C0.240382909,15.612009 0.326365055,15.4730301 0.435462316,15.3552184 C0.544559578,15.2374067 0.676768683,15.1453677 0.832093598,15.0790986 C0.987418513,15.0128295 1.16308096,14.9796954 1.35908621,14.9796954 C1.51071291,14.9796954 1.65956372,15.0017848 1.80564311,15.0459642 C1.95172249,15.0901436 2.08300706,15.1545709 2.19950074,15.2392481 C2.31599443,15.3239252 2.40937289,15.4316109 2.47963892,15.5623083 C2.54990495,15.6930056 2.58503744,15.8430292 2.58503744,16.0123836 C2.58503744,16.2075092 2.54065956,16.3777814 2.45190247,16.5232052 C2.36314537,16.6686291 2.22446449,16.7744739 2.03585567,16.840743 L2.03585567,16.8517878 C2.25774841,16.8959672 2.43063723,17.0054936 2.55452735,17.1803704 C2.67841746,17.3552472 2.74036158,17.5678573 2.74036158,17.8182072 C2.74036158,18.002288 2.70338001,18.1670378 2.62941577,18.3124617 C2.55545152,18.4578855 2.45560129,18.5812178 2.32986207,18.6824622 C2.20412286,18.7837066 2.05804566,18.8619398 1.89162611,18.9171641 C1.72520656,18.9723883 1.54954411,19 1.3646335,19 C1.13904255,19 0.942115704,18.9677863 0.773847046,18.9033581 C0.605578388,18.8389298 0.46504843,18.7478112 0.352252956,18.6299994 C0.239457483,18.5121877 0.153475337,18.3704476 0.0943039411,18.2047749 C0.0351325449,18.0391022 0.00369821226,17.8550242 0,17.6525353 L0.632391134,17.6525353 C0.62499471,17.8881587 0.683240679,18.0842018 0.80713079,18.2406705 C0.931020901,18.3971392 1.11685328,18.4753723 1.3646335,18.4753723 C1.5754316,18.4753723 1.75201859,18.415547 1.89439976,18.2958945 C2.03678093,18.1762419 2.10797045,18.0059698 2.10797045,17.7850728 C2.10797045,17.6341265 2.07838519,17.5144758 2.0192138,17.426117 C1.9600424,17.3377582 1.88238111,17.2705698 1.78622759,17.2245496 C1.69007407,17.1785294 1.58190299,17.1499973 1.46171109,17.1389524 C1.34151919,17.1279076 1.21855548,17.124226 1.09281626,17.1279076 L1.09281626,16.6585039 Z M2.69598326,11.894182 L0.0443783252,11.894182 C0.0480765375,11.5738814 0.12573783,11.2940827 0.277364533,11.0547777 C0.428991235,10.8154727 0.636088015,10.6074645 0.898661086,10.4307469 C1.0244003,10.3387065 1.15568487,10.2494287 1.29251872,10.1629107 C1.42935258,10.0763927 1.55508991,9.98343331 1.66973449,9.88402968 C1.78437907,9.78462604 1.87868206,9.67694039 1.95264631,9.56096949 C2.02661055,9.44499858 2.0654412,9.31154201 2.06913941,9.16059575 C2.06913941,9.09064505 2.06081856,9.01609344 2.04417661,8.9369387 C2.02753465,8.85778395 1.99517578,8.78415274 1.94709902,8.71604284 C1.89902226,8.64793294 1.83245544,8.59086875 1.74739656,8.54484855 C1.66233767,8.49882835 1.55139297,8.4758186 1.41455912,8.4758186 C1.2888199,8.4758186 1.18434697,8.50066913 1.10113719,8.55037095 C1.01792742,8.60007276 0.951360597,8.66818164 0.901434731,8.75469962 C0.851508866,8.84121759 0.814527298,8.9433809 0.790488918,9.06119261 C0.766450538,9.17900433 0.75258245,9.30601817 0.748884238,9.44223797 L0.116493104,9.44223797 C0.116493104,9.22870424 0.145153819,9.03082035 0.202476109,8.84858035 C0.259798399,8.66634036 0.345780544,8.50895364 0.460425124,8.37641546 C0.575069704,8.24387729 0.714675123,8.13987319 0.879245568,8.06440007 C1.04381601,7.98892694 1.23519563,7.95119094 1.45339015,7.95119094 C1.69007574,7.95119094 1.88792712,7.98984733 2.04695025,8.06716127 C2.20597338,8.1444752 2.33448433,8.24203656 2.43248695,8.35984827 C2.53048958,8.47765999 2.59983002,8.60559422 2.64051035,8.74365482 C2.68119069,8.88171542 2.70153055,9.01333122 2.70153055,9.13850616 C2.70153055,9.29313404 2.67749253,9.43303335 2.62941577,9.55820829 C2.58133901,9.68338323 2.51662127,9.79843201 2.4352606,9.90335806 C2.35389993,10.0082841 2.26144601,10.1049251 2.15789606,10.1932839 C2.05434612,10.2816427 1.94709957,10.3644778 1.83615321,10.4417917 C1.72520684,10.5191056 1.61426213,10.5927369 1.50331577,10.6626876 C1.3923694,10.7326383 1.28974555,10.8025879 1.19544114,10.8725386 C1.10113672,10.9424893 1.01885273,11.0152002 0.948586702,11.0906733 C0.878320669,11.1661464 0.83024463,11.2462204 0.804357145,11.3308975 L2.69598326,11.3308975 L2.69598326,11.894182 Z" id="list-numbered" />
</svg>