<svg width="20px" height="20px" viewBox="0 0 20 20" version="1.1" xmlns="http://www.w3.org/2000/svg">
               <path d="M6,2.5 L19,2.5 C19.5522847,2.5 20,2.94771525 20,3.5 L20,3.5 C20,4.05228475 19.5522847,4.5 19,4.5 L6,4.5 C5.44771525,4.5 5,4.05228475 5,3.5 L5,3.5 L5,3.5 C5,2.94771525 5.44771525,2.5 6,2.5 Z M6,9.5 L19,9.5 L19,9.5 C19.5522847,9.5 20,9.94771525 20,10.5 L20,10.5 C20,11.0522847 19.5522847,11.5 19,11.5 L6,11.5 C5.44771525,11.5 5,11.0522847 5,10.5 C5,9.94771525 5.44771525,9.5 6,9.5 Z M6,16.5 L19,16.5 L19,16.5 C19.5522847,16.5 20,16.9477153 20,17.5 L20,17.5 C20,18.0522847 19.5522847,18.5 19,18.5 L6,18.5 L6,18.5 C5.44771525,18.5 5,18.0522847 5,17.5 L5,17.5 L5,17.5 C5,16.9477153 5.44771525,16.5 6,16.5 Z M1.5,5 C0.671572875,5 0,4.32842712 0,3.5 C0,2.67157288 0.671572875,2 1.5,2 C2.32842712,2 3,2.67157288 3,3.5 C3,4.32842712 2.32842712,5 1.5,5 Z M1.5,12 C0.671572875,12 0,11.3284271 0,10.5 C0,9.67157288 0.671572875,9 1.5,9 C2.32842712,9 3,9.67157288 3,10.5 C3,11.3284271 2.32842712,12 1.5,12 Z M1.5,19 C0.671572875,19 0,18.3284271 0,17.5 C0,16.6715729 0.671572875,16 1.5,16 C2.32842712,16 3,16.6715729 3,17.5 C3,18.3284271 2.32842712,19 1.5,19 Z" id="list-bulleted"></path>
</svg>