<svg width="20px" height="20px" viewBox="0 0 20 20">
        <path d="M16.5536819,2.63346121 C18.664982,4.44741952 20,7.12266146 20,10.106396 C20,15.5704826 15.5228475,20 10,20 C4.4771525,20 0,15.5704826 0,10.106396 C0,7.23324835 1.23789165,4.64614959 3.21479077,2.83867601 C3.30097556,2.75987749 3.40706142,2.66911578 3.53304834,2.56639089 L3.53304769,2.56639009 C3.87900269,2.28431168 4.38812436,2.33609389 4.67020277,2.68204889 C4.69385777,2.71106056 4.71546871,2.74168053 4.73487952,2.77368767 L4.79342829,2.87023073 L4.79342944,2.87023003 C5.02494848,3.25198964 4.944977,3.74536655 4.60472143,4.03444719 C4.40353996,4.20537068 4.24306284,4.35198495 4.12329009,4.47429 C2.69641187,5.93133596 1.81818182,7.91739639 1.81818182,10.106396 C1.81818182,14.5770123 5.48130659,18.2011629 10,18.2011629 C14.5186934,18.2011629 18.1818182,14.5770123 18.1818182,10.106396 C18.1818182,7.85982569 17.2567858,5.82700954 15.7629967,4.36043273 C15.6686316,4.26778669 15.547137,4.15860498 15.3985127,4.03288758 L15.3985057,4.03289587 C15.0570514,3.74406851 14.9763847,3.249794 15.2082929,2.86739256 L15.2651205,2.77368767 L15.2651205,2.77368767 C15.4977007,2.3901783 15.9971399,2.26782601 16.3806493,2.5004062 C16.4144864,2.52092681 16.4467784,2.5438932 16.4772672,2.56912183 C16.5045608,2.59169043 16.5300297,2.61314009 16.5536819,2.63346121 Z" id="loading" />
</svg>