<svg width="20px" height="20px" viewBox="0 0 20 20">
    <path d="M11.1988811,12.601353 C10.0291481,13.4796092 8.57534593,14 7,14 C3.13400675,14 0,10.8659932 0,7 C0,3.13400675 3.13400675,0 7,0 C10.8659932,0 14,3.13400675 14,7 C14,8.57501303 13.4798291,10.0285336 12.6019097,11.1981395 L19.7071913,18.3047981 C20.0955705,18.6932579 20.0990483,19.3195972 19.7089263,19.7098002 C19.3215053,20.0973016 18.6928121,20.0967418 18.3042159,19.7080648 L11.1988811,12.601353 L11.1988811,12.601353 Z M7,12 C9.76142375,12 12,9.76142375 12,7 C12,4.23857625 9.76142375,2 7,2 C4.23857625,2 2,4.23857625 2,7 C2,9.76142375 4.23857625,12 7,12 Z" id="magnifying-glass" />
</svg>