<svg width="20px" height="20px" viewBox="0 0 20 20">
            <path d="M1.66767604,17.1559232 L1.66767604,13.333838 C1.66767604,12.873322 1.29435404,12.5 0.83383802,12.5 L0.83383802,12.5 L0.83383802,12.5 L0.83383802,12.5 C0.373321998,12.5 -5.63969473e-17,12.873322 0,13.333838 L0,19.166162 C1.03017676e-20,19.1662461 1.24564956e-08,19.1663302 3.7367743e-08,19.1664143 C1.24640406e-08,19.1664984 -1.0301768e-20,19.1665825 0,19.1666667 C5.63628126e-17,19.626904 0.373096042,20 0.833333333,20 L6.67120885,20 C7.13144614,20 7.50454218,19.626904 7.50454218,19.1666667 L7.50454218,19.1666667 C7.50454218,18.7064294 7.13144614,18.3333333 6.67120885,18.3333333 L2.84871603,18.3333333 L8.49648112,12.6855682 C8.82211513,12.3599342 8.82211513,11.8319772 8.49648112,11.5063432 C8.17084712,11.1807092 7.64289009,11.1807092 7.31725609,11.5063432 L1.66767604,17.1559232 Z M18.332324,2.84407675 L18.332324,6.66616198 C18.332324,7.126678 18.705646,7.5 19.166162,7.5 C19.626678,7.5 20,7.126678 20,6.66616198 L20,0.83383802 C20,0.8337539 20,0.833669783 20,0.833585668 C20,0.833501571 20,0.833417454 20,0.833333333 C20,0.373096042 19.626904,2.22044605e-16 19.1666667,2.22044605e-16 L19.1666667,0 L13.3287911,-2.22044605e-16 C12.8685539,-2.22044605e-16 12.4954578,0.373096042 12.4954578,0.833333333 L12.4954578,0.833333333 C12.4954578,1.29357062 12.8685539,1.66666667 13.3287911,1.66666667 L13.3287911,1.66666667 L17.151284,1.66666667 L11.5035189,7.31443176 C11.1778849,7.64006576 11.1778849,8.16802279 11.5035189,8.4936568 C11.8291529,8.8192908 12.3571099,8.8192908 12.6827439,8.4936568 L18.332324,2.84407675 Z" id="maximise" />
</svg>