<svg width="20px" height="20px" viewBox="0 0 20 20">
            <path d="M0.909090909,0 L19.0909091,0 C19.5929861,0 20,0.415735589 20,0.928571429 L20,1.85714286 C20,2.3699787 19.5929861,2.78571429 19.0909091,2.78571429 L0.909090909,2.78571429 C0.407013864,2.78571429 0,2.3699787 0,1.85714286 L0,0.928571429 C0,0.415735589 0.407013864,0 0.909090909,0 Z M4.54545455,10.2142857 L19.0909091,10.2142857 C19.5929861,10.2142857 20,10.6300213 20,11.1428571 L20,12.0714286 C20,12.5842644 19.5929861,13 19.0909091,13 L4.54545455,13 C4.0433775,13 3.63636364,12.5842644 3.63636364,12.0714286 L3.63636364,11.1428571 C3.63636364,10.6300213 4.0433775,10.2142857 4.54545455,10.2142857 Z" id="menu-slim" />
</svg>