<svg width="20px" height="20px" viewBox="0 0 20 20" version="1.1" xmlns="http://www.w3.org/2000/svg" xmlns:xlink="http://www.w3.org/1999/xlink">
            <path d="M12.5,6.32930054 L12.5,2.5 C12.5,2.03976271 12.126904,1.66666667 11.6666667,1.66666667 C11.2064294,1.66666667 10.8333333,2.03976271 10.8333333,2.5 L10.8333333,8.33333333 C10.8333333,8.56345198 10.9266073,8.77178531 11.077411,8.92258898 C11.2282147,9.07339266 11.436548,9.16666667 11.6666667,9.16666667 L17.5,9.16666667 C17.9602373,9.16666667 18.3333333,8.79357062 18.3333333,8.33333333 C18.3333333,7.87309604 17.9602373,7.5 17.5,7.5 L17.5,7.5 L13.6696686,7.5 L19.7565328,1.41427731 C20.0806804,1.09018955 20.0811473,0.565861902 19.75798,0.242754337 C19.4325597,-0.0826058744 18.9102072,-0.0797053966 18.5862406,0.244201308 L12.5,6.32930054 Z M7.5,13.6706995 L7.5,17.5 C7.5,17.9602373 7.87309604,18.3333333 8.33333333,18.3333333 C8.79357062,18.3333333 9.16666667,17.9602373 9.16666667,17.5 L9.16666667,11.6666667 C9.16666667,11.436548 9.07339266,11.2282147 8.92258898,11.077411 C8.77178531,10.9266073 8.56345198,10.8333333 8.33333333,10.8333333 L2.5,10.8333333 C2.03976271,10.8333333 1.66666667,11.2064294 1.66666667,11.6666667 C1.66666667,12.126904 2.03976271,12.5 2.5,12.5 L2.5,12.5 L6.33033145,12.5 L0.243467226,18.5857227 C-0.0806803949,18.9098104 -0.0811472611,19.4341381 0.242019987,19.7572457 C0.567440298,20.0826059 1.08979282,20.0797054 1.41375936,19.7557987 L7.5,13.6706995 Z" id="minimise" />
</svg>