<svg width="20px" height="20px" viewBox="0 0 20 20">
        <path d="M4.84635099,4.26315789 L8.95935644,0.213057663 C9.3598956,-0.181355559 9.68459674,-0.0122602757 9.68459674,0.58883317 L9.68459674,17.4117603 C9.68459674,18.0137086 9.35802962,18.1801116 8.95935644,17.7875358 L4.84574833,13.7368421 L1.84227935,13.7368421 C0.824816559,13.7368421 0,12.8877785 0,11.84247 L0,6.15752998 C0,5.11129717 0.826287775,4.26315789 1.84227935,4.26315789 L4.84635099,4.26315789 Z M16.1409946,7.66021873 L16.1409946,7.66021873 L18.4265602,5.31263892 C18.7857503,4.943703 19.3678681,4.94563113 19.7280653,5.31560151 C20.0907736,5.68815126 20.0895538,6.284086 19.7309496,6.65242019 L17.4453839,9 L19.7309496,11.3475798 C20.0895538,11.715914 20.0907736,12.3118487 19.7280653,12.6843985 C19.3678681,13.0543689 18.7857503,13.056297 18.4265602,12.6873611 L16.1409946,10.3397813 L13.8554289,12.6873611 C13.4962389,13.056297 12.9141211,13.0543689 12.5539239,12.6843985 C12.1912155,12.3118487 12.1924354,11.715914 12.5510396,11.3475798 L14.8366052,9 L12.5510396,6.65242019 C12.1924354,6.284086 12.1912155,5.68815126 12.5539239,5.31560151 C12.9141211,4.94563113 13.4962389,4.943703 13.8554289,5.31263892 L16.1409946,7.66021873 Z" id="muted" />
</svg>