<?xml version="1.0" encoding="UTF-8"?>
<svg width="319px" height="319px" viewBox="0 0 319 319" version="1.1" xmlns="http://www.w3.org/2000/svg">
            <path d="M55.5,44 L269.255,44 C280.085806,44 282.577,51.0826516 282.577,57.322 L282.577,250.558 C282.577,256.325 277.901,261 272.135,261 L83.159,261 C44.104,239.859 17.577,198.528 17.577,151 C17.577,111.857745 35.5683265,76.9195432 63.7318809,54 L58.506,54 C57.398,54 56.5,53.112 56.5,52 C56.5,50.896 57.397,50 58.506,50 L68.9176656,50 C69.8475051,49.3207229 70.7870774,48.6539735 71.7361343,48 L55.5,48 C54.396,48 53.5,47.112 53.5,46 C53.5,44.896 54.39,44 55.5,44 Z" id="Path" fill="#5DA1D1"></path>
            <path d="M116.5371,93.9976 C116.4571,93.2276 116.1811,92.6696 115.7081,92.3256 C115.2351,91.9796 114.6301,91.8076 113.8931,91.8076 C113.5951,91.8076 113.3011,91.8376 113.0121,91.8976 C112.7241,91.9576 112.4671,92.0576 112.2431,92.1976 C112.0191,92.3376 111.8401,92.5246 111.7051,92.7596 C111.5711,92.9956 111.5031,93.2876 111.5031,93.6376 C111.5031,93.9676 111.6001,94.2346 111.7951,94.4396 C111.9891,94.6446 112.2481,94.8126 112.5721,94.9426 C112.8951,95.0726 113.2611,95.1806 113.6691,95.2656 C114.0781,95.3506 114.4941,95.4426 114.9161,95.5426 C115.3401,95.6426 115.7551,95.7596 116.1641,95.8946 C116.5721,96.0296 116.9381,96.2126 117.2621,96.4426 C117.5851,96.6726 117.8441,96.9626 118.0381,97.3126 C118.2321,97.6626 118.3291,98.1026 118.3291,98.6326 C118.3291,99.2026 118.2031,99.6896 117.9491,100.0956 C117.6951,100.4996 117.3691,100.8306 116.9701,101.0846 C116.5721,101.3396 116.1261,101.5246 115.6341,101.6406 C115.1411,101.7546 114.6501,101.8126 114.1621,101.8126 C113.5651,101.8126 113.0001,101.7376 112.4671,101.5876 C111.9341,101.4376 111.4661,101.2096 111.0631,100.9046 C110.6601,100.6006 110.3411,100.2096 110.1071,99.7346 C109.8731,99.2596 109.7561,98.6976 109.7561,98.0476 L111.1001,98.0476 C111.1001,98.4976 111.1871,98.8846 111.3621,99.2096 C111.5361,99.5356 111.7651,99.8026 112.0491,100.0126 C112.3321,100.2226 112.6631,100.3776 113.0421,100.4776 C113.4201,100.5776 113.8081,100.6276 114.2071,100.6276 C114.5261,100.6276 114.8471,100.5976 115.1701,100.5376 C115.4941,100.4776 115.7861,100.3746 116.0441,100.2296 C116.3031,100.0846 116.5121,99.8876 116.6721,99.6376 C116.8311,99.3876 116.9111,99.0676 116.9111,98.6776 C116.9111,98.3076 116.8131,98.0076 116.6201,97.7776 C116.4251,97.5476 116.1661,97.3596 115.8431,97.2146 C115.5191,97.0696 115.1531,96.9526 114.7451,96.8626 C114.3361,96.7726 113.9211,96.6806 113.4971,96.5846 C113.0741,96.4906 112.6591,96.3796 112.2501,96.2546 C111.8421,96.1296 111.4761,95.9646 111.1521,95.7596 C110.8291,95.5556 110.5701,95.2896 110.3761,94.9646 C110.1821,94.6406 110.0841,94.2326 110.0841,93.7426 C110.0841,93.2026 110.1941,92.7346 110.4131,92.3396 C110.6321,91.9446 110.9231,91.6206 111.2871,91.3656 C111.6501,91.1096 112.0641,90.9196 112.5271,90.7946 C112.9901,90.6696 113.4651,90.6076 113.9531,90.6076 C114.5011,90.6076 115.0091,90.6726 115.4761,90.8026 C115.9451,90.9326 116.3551,91.1376 116.7091,91.4176 C117.0621,91.6976 117.3411,92.0496 117.5451,92.4756 C117.7491,92.8996 117.8621,93.4076 117.8811,93.9976 L116.5371,93.9976 Z M126.6791,101.5426 C126.4601,101.6726 126.1571,101.7376 125.7681,101.7376 C125.4391,101.7376 125.1781,101.6446 124.9841,101.4596 C124.7901,101.2746 124.6931,100.9726 124.6931,100.5526 C124.3441,100.9726 123.9381,101.2746 123.4751,101.4596 C123.0121,101.6446 122.5121,101.7376 121.9741,101.7376 C121.6251,101.7376 121.2941,101.6976 120.9811,101.6176 C120.6671,101.5376 120.3961,101.4126 120.1671,101.2426 C119.9381,101.0726 119.7561,100.8506 119.6211,100.5756 C119.4871,100.2996 119.4201,99.9676 119.4201,99.5776 C119.4201,99.1376 119.4951,98.7776 119.6441,98.4976 C119.7931,98.2176 119.9901,97.9906 120.2341,97.8146 C120.4781,97.6406 120.7571,97.5076 121.0711,97.4176 C121.3841,97.3276 121.7051,97.2526 122.0341,97.1926 C122.3821,97.1226 122.7131,97.0696 123.0271,97.0356 C123.3411,96.9996 123.6171,96.9506 123.8561,96.8846 C124.0951,96.8196 124.2851,96.7256 124.4241,96.6006 C124.5631,96.4756 124.6331,96.2926 124.6331,96.0526 C124.6331,95.7726 124.5801,95.5476 124.4761,95.3776 C124.3711,95.2076 124.2371,95.0776 124.0731,94.9876 C123.9091,94.8976 123.7241,94.8376 123.5201,94.8076 C123.3161,94.7776 123.1141,94.7626 122.9151,94.7626 C122.3771,94.7626 121.9291,94.8656 121.5711,95.0696 C121.2121,95.2746 121.0181,95.6626 120.9881,96.2326 L119.7191,96.2326 C119.7391,95.7526 119.8381,95.3476 120.0171,95.0176 C120.1971,94.6876 120.4351,94.4196 120.7341,94.2146 C121.0331,94.0096 121.3741,93.8626 121.7581,93.7726 C122.1411,93.6826 122.5521,93.6376 122.9901,93.6376 C123.3381,93.6376 123.6841,93.6626 124.0281,93.7126 C124.3711,93.7626 124.6831,93.8656 124.9611,94.0196 C125.2401,94.1746 125.4641,94.3926 125.6341,94.6726 C125.8031,94.9526 125.8881,95.3176 125.8881,95.7676 L125.8881,99.7576 C125.8881,100.0576 125.9051,100.2776 125.9401,100.4176 C125.9751,100.5576 126.0921,100.6276 126.2911,100.6276 C126.4001,100.6276 126.5301,100.6026 126.6791,100.5526 L126.6791,101.5426 Z M124.6181,97.5676 C124.4581,97.6876 124.2491,97.7746 123.9911,97.8306 C123.7321,97.8846 123.4601,97.9306 123.1771,97.9646 C122.8931,97.9996 122.6061,98.0396 122.3181,98.0846 C122.0291,98.1296 121.7701,98.2026 121.5411,98.3026 C121.3121,98.4026 121.1251,98.5446 120.9811,98.7296 C120.8361,98.9146 120.7641,99.1676 120.7641,99.4876 C120.7641,99.6976 120.8071,99.8746 120.8911,100.0196 C120.9761,100.1646 121.0851,100.2826 121.2201,100.3726 C121.3541,100.4626 121.5111,100.5276 121.6901,100.5676 C121.8701,100.6076 122.0591,100.6276 122.2581,100.6276 C122.6761,100.6276 123.0351,100.5696 123.3331,100.4556 C123.6321,100.3396 123.8761,100.1946 124.0651,100.0196 C124.2541,99.8456 124.3941,99.6546 124.4831,99.4506 C124.5731,99.2456 124.6181,99.0526 124.6181,98.8726 L124.6181,97.5676 Z M131.3391,101.5726 L129.9801,101.5726 L127.1121,93.8176 L128.5311,93.8176 L130.6971,100.2826 L130.7271,100.2826 L132.8331,93.8176 L134.1621,93.8176 L131.3391,101.5726 Z M140.6901,96.9526 C140.6701,96.6526 140.6031,96.3676 140.4881,96.0976 C140.3731,95.8276 140.2191,95.5956 140.0251,95.3996 C139.8311,95.2056 139.6021,95.0496 139.3381,94.9346 C139.0741,94.8196 138.7831,94.7626 138.4641,94.7626 C138.1361,94.7626 137.8391,94.8196 137.5761,94.9346 C137.3111,95.0496 137.0851,95.2076 136.8961,95.4076 C136.7071,95.6076 136.5581,95.8396 136.4481,96.1046 C136.3381,96.3706 136.2731,96.6526 136.2541,96.9526 L140.6901,96.9526 Z M141.9141,99.1126 C141.7451,99.9826 141.3721,100.6376 140.7941,101.0776 C140.2171,101.5176 139.4901,101.7376 138.6141,101.7376 C137.9961,101.7376 137.4611,101.6376 137.0081,101.4376 C136.5551,101.2376 136.1741,100.9576 135.8651,100.5976 C135.5571,100.2376 135.3251,99.8076 135.1711,99.3076 C135.0161,98.8076 134.9291,98.2626 134.9101,97.6726 C134.9101,97.0826 134.9991,96.5426 135.1781,96.0526 C135.3571,95.5626 135.6091,95.1376 135.9331,94.7776 C136.2561,94.4176 136.6401,94.1376 137.0821,93.9376 C137.5261,93.7376 138.0111,93.6376 138.5391,93.6376 C139.2261,93.6376 139.7961,93.7796 140.2491,94.0646 C140.7021,94.3506 141.0661,94.7126 141.3401,95.1526 C141.6131,95.5926 141.8031,96.0726 141.9071,96.5926 C142.0121,97.1126 142.0541,97.6076 142.0341,98.0776 L136.2541,98.0776 C136.2441,98.4176 136.2841,98.7406 136.3731,99.0446 C136.4631,99.3506 136.6071,99.6206 136.8061,99.8546 C137.0051,100.0896 137.2591,100.2776 137.5681,100.4176 C137.8771,100.5576 138.2401,100.6276 138.6591,100.6276 C139.1961,100.6276 139.6371,100.5026 139.9801,100.2526 C140.3241,100.0026 140.5501,99.6226 140.6601,99.1126 L141.9141,99.1126 Z M149.2641,93.8176 L150.8021,93.8176 L150.8021,94.9426 L149.2641,94.9426 L149.2641,99.7576 C149.2641,99.9076 149.2761,100.0276 149.3011,100.1176 C149.3261,100.2076 149.3731,100.2776 149.4431,100.3276 C149.5131,100.3776 149.6101,100.4106 149.7341,100.4246 C149.8581,100.4396 150.0201,100.4476 150.2201,100.4476 L150.8021,100.4476 L150.8021,101.5726 L149.8311,101.5726 C149.5021,101.5726 149.2211,101.5496 148.9871,101.5046 C148.7531,101.4596 148.5641,101.3776 148.4191,101.2576 C148.2751,101.1376 148.1681,100.9676 148.0991,100.7476 C148.0291,100.5276 147.9941,100.2376 147.9941,99.8776 L147.9941,94.9426 L146.6801,94.9426 L146.6801,93.8176 L147.9941,93.8176 L147.9941,91.4926 L149.2641,91.4926 L149.2641,93.8176 Z M153.1321,97.7026 C153.1321,98.1726 153.1941,98.5896 153.3191,98.9556 C153.4431,99.3196 153.6151,99.6246 153.8341,99.8706 C154.0531,100.1156 154.3091,100.3026 154.6031,100.4326 C154.8971,100.5626 155.2081,100.6276 155.5371,100.6276 C155.8661,100.6276 156.1771,100.5626 156.4711,100.4326 C156.7641,100.3026 157.0201,100.1156 157.2401,99.8706 C157.4591,99.6246 157.6311,99.3196 157.7551,98.9556 C157.8791,98.5896 157.9421,98.1726 157.9421,97.7026 C157.9421,97.2326 157.8791,96.8146 157.7551,96.4506 C157.6311,96.0846 157.4591,95.7776 157.2401,95.5276 C157.0201,95.2776 156.7641,95.0876 156.4711,94.9576 C156.1771,94.8276 155.8661,94.7626 155.5371,94.7626 C155.2081,94.7626 154.8971,94.8276 154.6031,94.9576 C154.3091,95.0876 154.0531,95.2776 153.8341,95.5276 C153.6151,95.7776 153.4431,96.0846 153.3191,96.4506 C153.1941,96.8146 153.1321,97.2326 153.1321,97.7026 L153.1321,97.7026 Z M151.7881,97.7026 C151.7881,97.1326 151.8681,96.6006 152.0271,96.1046 C152.1861,95.6096 152.4251,95.1806 152.7441,94.8146 C153.0621,94.4506 153.4561,94.1626 153.9241,93.9526 C154.3921,93.7426 154.9301,93.6376 155.5371,93.6376 C156.1541,93.6376 156.6951,93.7426 157.1581,93.9526 C157.6201,94.1626 158.0121,94.4506 158.3301,94.8146 C158.6491,95.1806 158.8881,95.6096 159.0471,96.1046 C159.2061,96.6006 159.2861,97.1326 159.2861,97.7026 C159.2861,98.2726 159.2061,98.8026 159.0471,99.2926 C158.8881,99.7826 158.6491,100.2096 158.3301,100.5756 C158.0121,100.9396 157.6201,101.2256 157.1581,101.4306 C156.6951,101.6346 156.1541,101.7376 155.5371,101.7376 C154.9301,101.7376 154.3921,101.6346 153.9241,101.4306 C153.4561,101.2256 153.0621,100.9396 152.7441,100.5756 C152.4251,100.2096 152.1861,99.7826 152.0271,99.2926 C151.8681,98.8026 151.7881,98.2726 151.7881,97.7026 L151.7881,97.7026 Z M166.2771,100.3726 L171.002033,100.3726 L171.002033,101.5726 L166.2771,101.5726 L165.0071,101.5726 L165.0071,90.5726 L166.2771,90.5726 L166.2771,100.3726 Z M172.3221,92.4226 L173.5921,92.4226 L173.5921,90.8626 L172.3221,90.8626 L172.3221,92.4226 Z M172.3231,101.5726 L173.5931,101.5726 L173.5931,93.8176 L172.3231,93.8176 L172.3231,101.5726 Z M175.6091,90.8626 L176.8781,90.8626 L176.8781,94.8676 L176.9081,94.8676 C177.1181,94.4376 177.4461,94.1246 177.8941,93.9306 C178.3421,93.7346 178.8351,93.6376 179.3731,93.6376 C179.9701,93.6376 180.4911,93.7476 180.9341,93.9676 C181.3771,94.1876 181.7451,94.4846 182.0391,94.8596 C182.3331,95.2346 182.5551,95.6676 182.7041,96.1576 C182.8531,96.6476 182.9281,97.1676 182.9281,97.7176 C182.9281,98.2676 182.8561,98.7876 182.7111,99.2776 C182.5671,99.7676 182.3481,100.1946 182.0541,100.5596 C181.7601,100.9246 181.3921,101.2126 180.9491,101.4226 C180.5061,101.6326 179.9901,101.7376 179.4031,101.7376 C179.2141,101.7376 179.0021,101.7176 178.7681,101.6776 C178.5341,101.6376 178.3031,101.5726 178.0731,101.4826 C177.8441,101.3926 177.6281,101.2696 177.4241,101.1156 C177.2201,100.9596 177.0481,100.7676 176.9081,100.5376 L176.8781,100.5376 L176.8781,101.5726 L175.6091,101.5726 L175.6091,90.8626 Z M181.5831,97.6276 C181.5831,97.2676 181.5361,96.9146 181.4421,96.5696 C181.3471,96.2256 181.2031,95.9176 181.0081,95.6476 C180.8141,95.3776 180.5651,95.1626 180.2621,95.0026 C179.9581,94.8426 179.6021,94.7626 179.1941,94.7626 C178.7661,94.7626 178.4021,94.8476 178.1031,95.0176 C177.8051,95.1876 177.5601,95.4106 177.3711,95.6846 C177.1821,95.9596 177.0451,96.2726 176.9601,96.6226 C176.8761,96.9726 176.8331,97.3276 176.8331,97.6876 C176.8331,98.0676 176.8781,98.4346 176.9681,98.7896 C177.0581,99.1446 177.2001,99.4576 177.3941,99.7276 C177.5881,99.9976 177.8391,100.2146 178.1481,100.3796 C178.4571,100.5446 178.8301,100.6276 179.2681,100.6276 C179.7061,100.6276 180.0721,100.5426 180.3661,100.3726 C180.6601,100.2026 180.8961,99.9776 181.0761,99.6976 C181.2551,99.4176 181.3841,99.0976 181.4641,98.7376 C181.5441,98.3776 181.5831,98.0076 181.5831,97.6276 L181.5831,97.6276 Z M184.3771,93.8176 L185.5721,93.8176 L185.5721,95.4526 L185.6011,95.4526 C185.9101,94.8226 186.2881,94.3576 186.7371,94.0576 C187.1851,93.7576 187.7521,93.6176 188.4391,93.6376 L188.4391,94.9876 C187.9321,94.9876 187.4981,95.0576 187.1401,95.1976 C186.7821,95.3376 186.4931,95.5426 186.2741,95.8126 C186.0551,96.0826 185.8951,96.4106 185.7961,96.7946 C185.6961,97.1806 185.6461,97.6226 185.6461,98.1226 L185.6461,101.5726 L184.3771,101.5726 L184.3771,93.8176 Z M196.2361,101.5426 C196.0171,101.6726 195.7141,101.7376 195.3251,101.7376 C194.9961,101.7376 194.7351,101.6446 194.5411,101.4596 C194.3471,101.2746 194.2501,100.9726 194.2501,100.5526 C193.9011,100.9726 193.4951,101.2746 193.0331,101.4596 C192.5691,101.6446 192.0691,101.7376 191.5311,101.7376 C191.1831,101.7376 190.8521,101.6976 190.5381,101.6176 C190.2251,101.5376 189.9531,101.4126 189.7241,101.2426 C189.4951,101.0726 189.3131,100.8506 189.1791,100.5756 C189.0441,100.2996 188.9771,99.9676 188.9771,99.5776 C188.9771,99.1376 189.0521,98.7776 189.2011,98.4976 C189.3501,98.2176 189.5471,97.9906 189.7911,97.8146 C190.0351,97.6406 190.3141,97.5076 190.6281,97.4176 C190.9411,97.3276 191.2631,97.2526 191.5911,97.1926 C191.9401,97.1226 192.2711,97.0696 192.5841,97.0356 C192.8981,96.9996 193.1741,96.9506 193.4131,96.8846 C193.6521,96.8196 193.8421,96.7256 193.9811,96.6006 C194.1201,96.4756 194.1901,96.2926 194.1901,96.0526 C194.1901,95.7726 194.1381,95.5476 194.0331,95.3776 C193.9291,95.2076 193.7941,95.0776 193.6301,94.9876 C193.4661,94.8976 193.2821,94.8376 193.0781,94.8076 C192.8731,94.7776 192.6711,94.7626 192.4731,94.7626 C191.9341,94.7626 191.4871,94.8656 191.1281,95.0696 C190.7691,95.2746 190.5761,95.6626 190.5451,96.2326 L189.2761,96.2326 C189.2961,95.7526 189.3951,95.3476 189.5751,95.0176 C189.7541,94.6876 189.9931,94.4196 190.2911,94.2146 C190.5901,94.0096 190.9321,93.8626 191.3151,93.7726 C191.6981,93.6826 192.1091,93.6376 192.5471,93.6376 C192.8951,93.6376 193.2421,93.6626 193.5851,93.7126 C193.9291,93.7626 194.2401,93.8656 194.5181,94.0196 C194.7981,94.1746 195.0211,94.3926 195.1911,94.6726 C195.3601,94.9526 195.4451,95.3176 195.4451,95.7676 L195.4451,99.7576 C195.4451,100.0576 195.4621,100.2776 195.4971,100.4176 C195.5321,100.5576 195.6491,100.6276 195.8481,100.6276 C195.9571,100.6276 196.0871,100.6026 196.2361,100.5526 L196.2361,101.5426 Z M194.1751,97.5676 C194.0161,97.6876 193.8071,97.7746 193.5481,97.8306 C193.2891,97.8846 193.0171,97.9306 192.7341,97.9646 C192.4501,97.9996 192.1631,98.0396 191.8751,98.0846 C191.5861,98.1296 191.3271,98.2026 191.0981,98.3026 C190.8691,98.4026 190.6831,98.5446 190.5381,98.7296 C190.3931,98.9146 190.3221,99.1676 190.3221,99.4876 C190.3221,99.6976 190.3641,99.8746 190.4491,100.0196 C190.5331,100.1646 190.6421,100.2826 190.7771,100.3726 C190.9121,100.4626 191.0681,100.5276 191.2471,100.5676 C191.4271,100.6076 191.6161,100.6276 191.8151,100.6276 C192.2331,100.6276 192.5921,100.5696 192.8911,100.4556 C193.1891,100.3396 193.4331,100.1946 193.6221,100.0196 C193.8121,99.8456 193.9511,99.6546 194.0411,99.4506 C194.1301,99.2456 194.1751,99.0526 194.1751,98.8726 L194.1751,97.5676 Z M197.3711,93.8176 L198.5661,93.8176 L198.5661,95.4526 L198.5971,95.4526 C198.9051,94.8226 199.2841,94.3576 199.7321,94.0576 C200.1801,93.7576 200.7471,93.6176 201.4341,93.6376 L201.4341,94.9876 C200.9271,94.9876 200.4941,95.0576 200.1351,95.1976 C199.7761,95.3376 199.4881,95.5426 199.2681,95.8126 C199.0501,96.0826 198.8901,96.4106 198.7901,96.7946 C198.6911,97.1806 198.6411,97.6226 198.6411,98.1226 L198.6411,101.5726 L197.3711,101.5726 L197.3711,93.8176 Z M205.4221,102.6076 C205.2731,102.9876 205.1261,103.3076 204.9821,103.5676 C204.8371,103.8276 204.6781,104.0396 204.5041,104.2056 C204.3291,104.3706 204.1361,104.4906 203.9211,104.5646 C203.7071,104.6406 203.4611,104.6776 203.1821,104.6776 C203.0331,104.6776 202.8831,104.6676 202.7341,104.6476 C202.5841,104.6276 202.4401,104.5926 202.3011,104.5426 L202.3011,103.3726 C202.4101,103.4226 202.5371,103.4646 202.6821,103.4996 C202.8261,103.5356 202.9481,103.5526 203.0481,103.5526 C203.3071,103.5526 203.5231,103.4906 203.6971,103.3656 C203.8711,103.2406 204.0031,103.0626 204.0931,102.8326 L204.6161,101.5276 L201.5541,93.8176 L202.9881,93.8176 L205.2431,100.1626 L205.2731,100.1626 L207.4391,93.8176 L208.7831,93.8176 L205.4221,102.6076 Z" id="button-label" fill="#FFFFFF"></path>
            <path d="M99.3022,87.0908 C99.3022,86.5678 98.9062,86.1428 98.4172,86.1428 L84.2552,86.1428 C83.7662,86.1428 83.3692,86.5678 83.3692,87.0908 L83.3692,107.1428 L91.3362,101.9078 L99.3022,107.1428 L99.3022,87.0908 Z" id="button-icon" fill="#FFFFFF"></path>
            <path d="M68.4131,77.1426 C67.5841,77.1426 66.9101,77.8136 66.9101,78.6396 L66.9101,114.6446 C66.9101,115.4706 67.5841,116.1426 68.4131,116.1426 L221.7391,116.1426 C222.5681,116.1426 223.2431,115.4706 223.2431,114.6446 L223.2431,78.6396 C223.2431,77.8136 222.5681,77.1426 221.7391,77.1426 L68.4131,77.1426 Z M221.7391,117.1426 L68.4131,117.1426 C67.0331,117.1426 65.9101,116.0216 65.9101,114.6446 L65.9101,78.6396 C65.9101,77.2626 67.0331,76.1426 68.4131,76.1426 L221.7391,76.1426 C223.1201,76.1426 224.2431,77.2626 224.2431,78.6396 L224.2431,114.6446 C224.2431,116.0216 223.1201,117.1426 221.7391,117.1426 L221.7391,117.1426 Z" id="button-border" fill="#FFFFFF"></path>
            <path d="M8,189 C9.104,189 10,189.888 10,191 C10,192.104 9.112,193 8,193 C6.896,193 6,192.112 6,191 C6,189.896 6.888,189 8,189 Z M237.9971,169 C239.1031,169 240.0001,169.887 240.0001,171 L240.0001,177 C240.0001,178.104 239.1071,179 237.9971,179 L10.0001,179 L10.0001,184.994 C10.0001,186.102 9.1121,187 8.0001,187 C6.8951,187 6.0001,186.103 6.0001,184.994 L6.0001,179 L4.0001,179 L4.0001,181.002 C4.0001,182.105 3.1121,183 2.0001,183 C0.8951,183 0.0001,182.113 0.0001,181.002 L0.0001,171 C0.0001,169.896 0.8931,169 2.0031,169 L237.9971,169 Z" id="Shape" fill="#B7D5EA"></path>
            <path d="M35,150.9995 C35,149.8955 35.895,148.9995 37,148.9995 L202.997,148.9995 C204.104,148.9995 205,149.8965 205,151.0025 L205,157.0005 C205,158.1045 204.105,158.9995 203,158.9995 L37.264,158.9995 C36.014,158.9995 35,157.9865 35,156.7355 L35,150.9995 Z" id="line-title" fill="#B7D5EA"></path>
            <path d="M142.5767,26 C118.9137,26 96.7867,32.577 77.9227,44 L207.2297,44 C188.3657,32.577 166.2397,26 142.5767,26" id="circle-top" fill="#E4EEF4"></path>
            <path d="M142.5767,276 C164.0837,276 184.3217,270.566 201.9937,261 L83.1587,261 C100.8317,270.566 121.0697,276 142.5767,276" id="circle-bottom" fill="#E4EEF4"></path>
            <path d="M236.5,81.5083 C236.5,80.6783 237.137429,80.0003 237.915673,80.0003 L282.5,80.0003 L282.5,110.0003 L237.91098,110.0003 C237.131796,110.0003 236.5,109.3273 236.5,108.4963 L236.5,81.5083 Z" id="button-start" fill="#7BAFD6"></path>
            <path d="M49.2661,220.0747 L47.9221,220.0747 L47.9221,219.2107 L47.8981,219.2107 C47.7301,219.5227 47.4801,219.7727 47.1481,219.9607 C46.8161,220.1487 46.4781,220.2427 46.1341,220.2427 C45.3181,220.2427 44.7281,220.0407 44.3641,219.6367 C44.0001,219.2327 43.8181,218.6227 43.8181,217.8067 L43.8181,213.8707 L45.1861,213.8707 L45.1861,217.6747 C45.1861,218.2187 45.2901,218.6027 45.4981,218.8267 C45.7061,219.0507 45.9981,219.1627 46.3741,219.1627 C46.6621,219.1627 46.9021,219.1187 47.0941,219.0307 C47.2861,218.9427 47.4421,218.8247 47.5621,218.6767 C47.6821,218.5287 47.7681,218.3507 47.8201,218.1427 C47.8721,217.9347 47.8981,217.7107 47.8981,217.4707 L47.8981,213.8707 L49.2661,213.8707 L49.2661,220.0747 Z M50.7061,213.8706 L51.9901,213.8706 L51.9901,215.0706 L52.0141,215.0706 C52.0541,214.9026 52.1321,214.7386 52.2481,214.5786 C52.3641,214.4186 52.5041,214.2726 52.6681,214.1406 C52.8311,214.0086 53.0141,213.9026 53.2141,213.8226 C53.4141,213.7426 53.6181,213.7026 53.8261,213.7026 C53.9861,213.7026 54.0961,213.7066 54.1561,213.7146 C54.2161,213.7226 54.2781,213.7306 54.3421,213.7386 L54.3421,215.0586 C54.2461,215.0426 54.1481,215.0286 54.0481,215.0166 C53.9481,215.0046 53.8501,214.9986 53.7541,214.9986 C53.5211,214.9986 53.3041,215.0446 53.1001,215.1366 C52.8961,215.2286 52.7181,215.3646 52.5661,215.5446 C52.4141,215.7246 52.2941,215.9466 52.2061,216.2106 C52.1181,216.4746 52.0741,216.7786 52.0741,217.1226 L52.0741,220.0746 L50.7061,220.0746 L50.7061,213.8706 Z M55.9619,218.0825 C56.0019,218.4825 56.1539,218.7625 56.4179,218.9225 C56.6819,219.0825 56.9979,219.1625 57.3659,219.1625 C57.4939,219.1625 57.6399,219.1525 57.8039,219.1325 C57.9679,219.1125 58.1219,219.0745 58.2659,219.0185 C58.4099,218.9625 58.5279,218.8805 58.6199,218.7725 C58.7119,218.6645 58.7539,218.5225 58.7459,218.3465 C58.7379,218.1705 58.6739,218.0265 58.5539,217.9145 C58.4339,217.8025 58.2799,217.7125 58.0919,217.6445 C57.9039,217.5765 57.6899,217.5185 57.4499,217.4705 C57.2099,217.4225 56.9659,217.3705 56.7179,217.3145 C56.4619,217.2585 56.2159,217.1905 55.9799,217.1105 C55.7439,217.0305 55.5319,216.9225 55.3439,216.7865 C55.1559,216.6505 55.0059,216.4765 54.8939,216.2645 C54.7819,216.0525 54.7259,215.7905 54.7259,215.4785 C54.7259,215.1425 54.8079,214.8605 54.9719,214.6325 C55.1359,214.4045 55.3439,214.2205 55.5959,214.0805 C55.8479,213.9405 56.1279,213.8425 56.4359,213.7865 C56.7439,213.7305 57.0379,213.7025 57.3179,213.7025 C57.6379,213.7025 57.9439,213.7365 58.2359,213.8045 C58.5279,213.8725 58.7919,213.9825 59.0279,214.1345 C59.2639,214.2865 59.4599,214.4845 59.6159,214.7285 C59.7719,214.9725 59.8699,215.2665 59.9099,215.6105 L58.4819,215.6105 C58.4179,215.2825 58.2679,215.0625 58.0319,214.9505 C57.7959,214.8385 57.5259,214.7825 57.2219,214.7825 C57.1259,214.7825 57.0119,214.7905 56.8799,214.8065 C56.7479,214.8225 56.6239,214.8535 56.5079,214.8965 C56.3919,214.9405 56.2939,215.0045 56.2139,215.0885 C56.1339,215.1725 56.0939,215.2825 56.0939,215.4185 C56.0939,215.5865 56.1519,215.7225 56.2679,215.8265 C56.3839,215.9305 56.5359,216.0165 56.7239,216.0845 C56.9119,216.1525 57.1259,216.2105 57.3659,216.2585 C57.6059,216.3065 57.8539,216.3585 58.1099,216.4145 C58.3579,216.4705 58.6019,216.5395 58.8419,216.6185 C59.0819,216.6985 59.2959,216.8065 59.4839,216.9425 C59.6719,217.0785 59.8239,217.2505 59.9399,217.4585 C60.0559,217.6665 60.1139,217.9225 60.1139,218.2265 C60.1139,218.5945 60.0299,218.9065 59.8619,219.1625 C59.6939,219.4185 59.4759,219.6265 59.2079,219.7865 C58.9399,219.9465 58.6419,220.0625 58.3139,220.1345 C57.9859,220.2065 57.6619,220.2425 57.3419,220.2425 C56.9499,220.2425 56.5879,220.1985 56.2559,220.1105 C55.9239,220.0225 55.6359,219.8885 55.3919,219.7085 C55.1479,219.5285 54.9559,219.3045 54.8159,219.0365 C54.6759,218.7685 54.6019,218.4505 54.5939,218.0825 L55.9619,218.0825 Z M65.418,216.4268 C65.402,216.2108 65.356,216.0028 65.28,215.8028 C65.204,215.6028 65.1,215.4288 64.968,215.2808 C64.836,215.1328 64.676,215.0128 64.488,214.9208 C64.3,214.8288 64.09,214.7828 63.858,214.7828 C63.618,214.7828 63.4,214.8248 63.204,214.9088 C63.008,214.9928 62.84,215.1088 62.7,215.2568 C62.56,215.4048 62.448,215.5788 62.364,215.7788 C62.28,215.9788 62.234,216.1948 62.226,216.4268 L65.418,216.4268 Z M62.226,217.3268 C62.226,217.5668 62.26,217.7988 62.328,218.0228 C62.396,218.2468 62.498,218.4428 62.634,218.6108 C62.77,218.7788 62.942,218.9128 63.15,219.0128 C63.358,219.1128 63.606,219.1628 63.894,219.1628 C64.294,219.1628 64.616,219.0768 64.86,218.9048 C65.104,218.7328 65.286,218.4748 65.406,218.1308 L66.702,218.1308 C66.63,218.4668 66.506,218.7668 66.33,219.0308 C66.154,219.2948 65.942,219.5168 65.694,219.6968 C65.446,219.8768 65.168,220.0128 64.86,220.1048 C64.552,220.1968 64.23,220.2428 63.894,220.2428 C63.406,220.2428 62.974,220.1628 62.598,220.0028 C62.222,219.8428 61.904,219.6188 61.644,219.3308 C61.384,219.0428 61.188,218.6988 61.056,218.2988 C60.924,217.8988 60.858,217.4588 60.858,216.9788 C60.858,216.5388 60.928,216.1208 61.068,215.7248 C61.208,215.3288 61.408,214.9808 61.668,214.6808 C61.928,214.3808 62.242,214.1428 62.61,213.9668 C62.978,213.7908 63.394,213.7028 63.858,213.7028 C64.346,213.7028 64.784,213.8048 65.172,214.0088 C65.56,214.2128 65.882,214.4828 66.138,214.8188 C66.394,215.1548 66.58,215.5408 66.696,215.9768 C66.812,216.4128 66.842,216.8628 66.786,217.3268 L62.226,217.3268 Z M67.938,220.075 L67.938,218.455 L69.606,218.455 L69.606,220.075 L67.938,220.075 Z M67.938,215.623 L67.938,214.003 L69.606,214.003 L69.606,215.623 L67.938,215.623 Z M74.6938,211.5068 L80.8618,211.5068 L80.8618,212.8028 L76.1938,212.8028 L76.1938,215.0468 L80.5138,215.0468 L80.5138,216.2708 L76.1938,216.2708 L76.1938,218.7788 L80.9458,218.7788 L80.9458,220.0748 L74.6938,220.0748 L74.6938,211.5068 Z M82.062,213.8706 L83.358,213.8706 L83.358,214.7826 L83.382,214.8066 C83.59,214.4626 83.862,214.1926 84.198,213.9966 C84.534,213.8006 84.906,213.7026 85.314,213.7026 C85.994,213.7026 86.53,213.8786 86.922,214.2306 C87.313,214.5826 87.51,215.1106 87.51,215.8146 L87.51,220.0746 L86.142,220.0746 L86.142,216.1746 C86.125,215.6866 86.022,215.3326 85.83,215.1126 C85.638,214.8926 85.338,214.7826 84.93,214.7826 C84.698,214.7826 84.49,214.8246 84.306,214.9086 C84.122,214.9926 83.966,215.1086 83.838,215.2566 C83.71,215.4046 83.61,215.5786 83.538,215.7786 C83.466,215.9786 83.43,216.1906 83.43,216.4146 L83.43,220.0746 L82.062,220.0746 L82.062,213.8706 Z M91.6494,218.9946 C91.9534,218.9946 92.2114,218.9326 92.4234,218.8086 C92.6354,218.6846 92.8074,218.5206 92.9394,218.3166 C93.0714,218.1126 93.1674,217.8806 93.2274,217.6206 C93.2874,217.3606 93.3174,217.0986 93.3174,216.8346 C93.3174,216.5706 93.2854,216.3146 93.2214,216.0666 C93.1574,215.8186 93.0594,215.5986 92.9274,215.4066 C92.7954,215.2146 92.6234,215.0626 92.4114,214.9506 C92.1994,214.8386 91.9454,214.7826 91.6494,214.7826 C91.3454,214.7826 91.0894,214.8466 90.8814,214.9746 C90.6734,215.1026 90.5054,215.2686 90.3774,215.4726 C90.2494,215.6766 90.1574,215.9086 90.1014,216.1686 C90.0454,216.4286 90.0174,216.6866 90.0174,216.9426 C90.0174,217.1986 90.0494,217.4486 90.1134,217.6926 C90.1774,217.9366 90.2754,218.1546 90.4074,218.3466 C90.5394,218.5386 90.7074,218.6946 90.9114,218.8146 C91.1154,218.9346 91.3614,218.9946 91.6494,218.9946 Z M94.6854,219.7506 C94.6854,220.6866 94.4234,221.3846 93.8994,221.8446 C93.3754,222.3046 92.6214,222.5346 91.6374,222.5346 C91.3254,222.5346 91.0114,222.5026 90.6954,222.4386 C90.3794,222.3746 90.0914,222.2666 89.8314,222.1146 C89.5714,221.9626 89.3534,221.7626 89.1774,221.5146 C89.0014,221.2666 88.8974,220.9626 88.8654,220.6026 L90.2334,220.6026 C90.2734,220.7946 90.3414,220.9506 90.4374,221.0706 C90.5334,221.1906 90.6474,221.2846 90.7794,221.3526 C90.9114,221.4206 91.0574,221.4646 91.2174,221.4846 C91.3774,221.5046 91.5454,221.5146 91.7214,221.5146 C92.2734,221.5146 92.6774,221.3786 92.9334,221.1066 C93.1894,220.8346 93.3174,220.4426 93.3174,219.9306 L93.3174,218.9826 L93.2934,218.9826 C93.1014,219.3266 92.8394,219.5946 92.5074,219.7866 C92.1754,219.9786 91.8174,220.0746 91.4334,220.0746 C90.9374,220.0746 90.5154,219.9886 90.1674,219.8166 C89.8194,219.6446 89.5314,219.4086 89.3034,219.1086 C89.0754,218.8086 88.9094,218.4626 88.8054,218.0706 C88.7014,217.6786 88.6494,217.2586 88.6494,216.8106 C88.6494,216.3946 88.7134,215.9986 88.8414,215.6226 C88.9694,215.2466 89.1534,214.9166 89.3934,214.6326 C89.6334,214.3486 89.9274,214.1226 90.2754,213.9546 C90.6234,213.7866 91.0174,213.7026 91.4574,213.7026 C91.8494,213.7026 92.2094,213.7846 92.5374,213.9486 C92.8654,214.1126 93.1174,214.3706 93.2934,214.7226 L93.3174,214.7226 L93.3174,213.8706 L94.6854,213.8706 L94.6854,219.7506 Z M96.101,220.075 L96.101,211.507 L97.469,211.507 L97.469,220.075 L96.101,220.075 Z M98.993,220.075 L98.993,213.871 L100.361,213.871 L100.361,220.075 L98.993,220.075 Z M98.993,212.803 L98.993,211.507 L100.361,211.507 L100.361,212.803 L98.993,212.803 Z M102.8813,218.0825 C102.9213,218.4825 103.0733,218.7625 103.3373,218.9225 C103.6013,219.0825 103.9173,219.1625 104.2853,219.1625 C104.4133,219.1625 104.5593,219.1525 104.7233,219.1325 C104.8873,219.1125 105.0413,219.0745 105.1853,219.0185 C105.3293,218.9625 105.4473,218.8805 105.5393,218.7725 C105.6313,218.6645 105.6733,218.5225 105.6653,218.3465 C105.6573,218.1705 105.5933,218.0265 105.4733,217.9145 C105.3533,217.8025 105.1993,217.7125 105.0113,217.6445 C104.8233,217.5765 104.6093,217.5185 104.3693,217.4705 C104.1293,217.4225 103.8853,217.3705 103.6373,217.3145 C103.3813,217.2585 103.1353,217.1905 102.8993,217.1105 C102.6633,217.0305 102.4513,216.9225 102.2633,216.7865 C102.0753,216.6505 101.9253,216.4765 101.8133,216.2645 C101.7013,216.0525 101.6453,215.7905 101.6453,215.4785 C101.6453,215.1425 101.7273,214.8605 101.8913,214.6325 C102.0553,214.4045 102.2633,214.2205 102.5153,214.0805 C102.7673,213.9405 103.0473,213.8425 103.3553,213.7865 C103.6633,213.7305 103.9573,213.7025 104.2373,213.7025 C104.5573,213.7025 104.8633,213.7365 105.1553,213.8045 C105.4473,213.8725 105.7113,213.9825 105.9473,214.1345 C106.1833,214.2865 106.3793,214.4845 106.5353,214.7285 C106.6913,214.9725 106.7893,215.2665 106.8293,215.6105 L105.4013,215.6105 C105.3373,215.2825 105.1873,215.0625 104.9513,214.9505 C104.7153,214.8385 104.4453,214.7825 104.1413,214.7825 C104.0453,214.7825 103.9313,214.7905 103.7993,214.8065 C103.6673,214.8225 103.5433,214.8535 103.4273,214.8965 C103.3113,214.9405 103.2133,215.0045 103.1333,215.0885 C103.0533,215.1725 103.0133,215.2825 103.0133,215.4185 C103.0133,215.5865 103.0713,215.7225 103.1873,215.8265 C103.3033,215.9305 103.4553,216.0165 103.6433,216.0845 C103.8313,216.1525 104.0453,216.2105 104.2853,216.2585 C104.5253,216.3065 104.7733,216.3585 105.0293,216.4145 C105.2773,216.4705 105.5213,216.5395 105.7613,216.6185 C106.0013,216.6985 106.2153,216.8065 106.4033,216.9425 C106.5913,217.0785 106.7433,217.2505 106.8593,217.4585 C106.9753,217.6665 107.0333,217.9225 107.0333,218.2265 C107.0333,218.5945 106.9493,218.9065 106.7813,219.1625 C106.6133,219.4185 106.3953,219.6265 106.1273,219.7865 C105.8593,219.9465 105.5613,220.0625 105.2333,220.1345 C104.9053,220.2065 104.5813,220.2425 104.2613,220.2425 C103.8693,220.2425 103.5073,220.1985 103.1753,220.1105 C102.8433,220.0225 102.5553,219.8885 102.3113,219.7085 C102.0673,219.5285 101.8753,219.3045 101.7353,219.0365 C101.5953,218.7685 101.5213,218.4505 101.5133,218.0825 L102.8813,218.0825 Z M108.0776,211.5068 L109.4456,211.5068 L109.4456,214.6868 L109.4696,214.6868 C109.6376,214.4068 109.8876,214.1728 110.2196,213.9848 C110.5516,213.7968 110.9216,213.7028 111.3296,213.7028 C112.0096,213.7028 112.5456,213.8788 112.9376,214.2308 C113.3286,214.5828 113.5256,215.1108 113.5256,215.8148 L113.5256,220.0748 L112.1576,220.0748 L112.1576,216.1748 C112.1406,215.6868 112.0376,215.3328 111.8456,215.1128 C111.6536,214.8928 111.3536,214.7828 110.9456,214.7828 C110.7136,214.7828 110.5056,214.8248 110.3216,214.9088 C110.1376,214.9928 109.9816,215.1088 109.8536,215.2568 C109.7256,215.4048 109.6256,215.5788 109.5536,215.7788 C109.4816,215.9788 109.4456,216.1908 109.4456,216.4148 L109.4456,220.0748 L108.0776,220.0748 L108.0776,211.5068 Z M119.0571,211.6748 L123.4011,211.6748 L123.4011,212.8988 L120.0771,212.8988 L119.6451,215.0348 L119.6691,215.0588 C119.8531,214.8508 120.0871,214.6928 120.3711,214.5848 C120.6551,214.4768 120.9371,214.4228 121.2171,214.4228 C121.6331,214.4228 122.0051,214.4928 122.3331,214.6328 C122.6611,214.7728 122.9371,214.9688 123.1611,215.2208 C123.3851,215.4728 123.5551,215.7708 123.6711,216.1148 C123.7871,216.4588 123.8451,216.8308 123.8451,217.2308 C123.8451,217.5668 123.7911,217.9128 123.6831,218.2688 C123.5751,218.6248 123.4031,218.9488 123.1671,219.2408 C122.9311,219.5328 122.6291,219.7728 122.2611,219.9608 C121.8931,220.1488 121.4531,220.2428 120.9411,220.2428 C120.5331,220.2428 120.1551,220.1888 119.8071,220.0808 C119.4591,219.9728 119.1531,219.8108 118.8891,219.5948 C118.6251,219.3788 118.4151,219.1128 118.2591,218.7968 C118.1031,218.4808 118.0171,218.1108 118.0011,217.6868 L119.3691,217.6868 C119.4091,218.1428 119.5651,218.4928 119.8371,218.7368 C120.1091,218.9808 120.4691,219.1028 120.9171,219.1028 C121.2051,219.1028 121.4491,219.0548 121.6491,218.9588 C121.8491,218.8628 122.0111,218.7308 122.1351,218.5628 C122.2591,218.3948 122.3471,218.1988 122.3991,217.9748 C122.4511,217.7508 122.4771,217.5108 122.4771,217.2548 C122.4771,217.0228 122.4451,216.8008 122.3811,216.5888 C122.3171,216.3768 122.2211,216.1908 122.0931,216.0308 C121.9651,215.8708 121.7991,215.7428 121.5951,215.6468 C121.3911,215.5508 121.1531,215.5028 120.8811,215.5028 C120.5931,215.5028 120.3231,215.5568 120.0711,215.6648 C119.8191,215.7728 119.6371,215.9748 119.5251,216.2708 L118.1571,216.2708 L119.0571,211.6748 Z M125.0811,218.4546 L126.7491,218.4546 L126.7491,220.0746 C126.7411,220.5706 126.5891,220.9866 126.2931,221.3226 C125.9971,221.6586 125.6091,221.8746 125.1291,221.9706 L125.1291,221.2386 C125.3931,221.1746 125.5911,221.0286 125.7231,220.8006 C125.8551,220.5726 125.9171,220.3306 125.9091,220.0746 L125.0811,220.0746 L125.0811,218.4546 Z M131.7407,211.5068 L133.2407,211.5068 L133.2407,216.4988 C133.2407,216.7868 133.2547,217.0788 133.2827,217.3748 C133.3107,217.6708 133.3907,217.9368 133.5227,218.1728 C133.6547,218.4088 133.8547,218.6028 134.1227,218.7548 C134.3907,218.9068 134.7687,218.9828 135.2567,218.9828 C135.7447,218.9828 136.1227,218.9068 136.3907,218.7548 C136.6587,218.6028 136.8587,218.4088 136.9907,218.1728 C137.1227,217.9368 137.2027,217.6708 137.2307,217.3748 C137.2587,217.0788 137.2727,216.7868 137.2727,216.4988 L137.2727,211.5068 L138.7727,211.5068 L138.7727,216.9908 C138.7727,217.5428 138.6887,218.0228 138.5207,218.4308 C138.3527,218.8388 138.1147,219.1808 137.8067,219.4568 C137.4987,219.7328 137.1287,219.9388 136.6967,220.0748 C136.2647,220.2108 135.7847,220.2788 135.2567,220.2788 C134.7287,220.2788 134.2487,220.2108 133.8167,220.0748 C133.3847,219.9388 133.0147,219.7328 132.7067,219.4568 C132.3987,219.1808 132.1607,218.8388 131.9927,218.4308 C131.8247,218.0228 131.7407,217.5428 131.7407,216.9908 L131.7407,211.5068 Z M140.3091,213.8706 L141.6051,213.8706 L141.6051,214.7826 L141.6291,214.8066 C141.8371,214.4626 142.1091,214.1926 142.4451,213.9966 C142.7811,213.8006 143.1531,213.7026 143.5611,213.7026 C144.2411,213.7026 144.7771,213.8786 145.1691,214.2306 C145.5601,214.5826 145.7571,215.1106 145.7571,215.8146 L145.7571,220.0746 L144.3891,220.0746 L144.3891,216.1746 C144.3721,215.6866 144.2691,215.3326 144.0771,215.1126 C143.8851,214.8926 143.5851,214.7826 143.1771,214.7826 C142.9451,214.7826 142.7371,214.8246 142.5531,214.9086 C142.3691,214.9926 142.2131,215.1086 142.0851,215.2566 C141.9571,215.4046 141.8571,215.5786 141.7851,215.7786 C141.7131,215.9786 141.6771,216.1906 141.6771,216.4146 L141.6771,220.0746 L140.3091,220.0746 L140.3091,213.8706 Z M147.232,220.075 L147.232,213.871 L148.6,213.871 L148.6,220.075 L147.232,220.075 Z M147.232,212.803 L147.232,211.507 L148.6,211.507 L148.6,212.803 L147.232,212.803 Z M149.4648,213.8706 L150.4968,213.8706 L150.4968,212.0106 L151.8648,212.0106 L151.8648,213.8706 L153.1008,213.8706 L153.1008,214.8906 L151.8648,214.8906 L151.8648,218.2026 C151.8648,218.3466 151.8708,218.4706 151.8828,218.5746 C151.8948,218.6786 151.9228,218.7666 151.9668,218.8386 C152.0108,218.9106 152.0768,218.9646 152.1648,219.0006 C152.2528,219.0366 152.3728,219.0546 152.5248,219.0546 C152.6208,219.0546 152.7168,219.0526 152.8128,219.0486 C152.9088,219.0446 153.0048,219.0306 153.1008,219.0066 L153.1008,220.0626 C152.9488,220.0786 152.8008,220.0946 152.6568,220.1106 C152.5128,220.1266 152.3648,220.1346 152.2128,220.1346 C151.8528,220.1346 151.5628,220.1006 151.3428,220.0326 C151.1228,219.9646 150.9508,219.8646 150.8268,219.7326 C150.7028,219.6006 150.6188,219.4346 150.5748,219.2346 C150.5308,219.0346 150.5048,218.8066 150.4968,218.5506 L150.4968,214.8906 L149.4648,214.8906 L149.4648,213.8706 Z M154.193,220.075 L154.193,218.455 L155.861,218.455 L155.861,220.075 L154.193,220.075 Z M154.193,215.623 L154.193,214.003 L155.861,214.003 L155.861,215.623 L154.193,215.623 Z M160.1084,211.5068 L161.6324,211.5068 L163.1804,218.0588 L163.2044,218.0588 L164.9324,211.5068 L166.4684,211.5068 L168.1484,218.0588 L168.1724,218.0588 L169.7684,211.5068 L171.2924,211.5068 L168.9284,220.0748 L167.4044,220.0748 L165.6884,213.5228 L165.6644,213.5228 L163.9124,220.0748 L162.3644,220.0748 L160.1084,211.5068 Z M176.1284,216.4268 C176.1124,216.2108 176.0664,216.0028 175.9904,215.8028 C175.9144,215.6028 175.8104,215.4288 175.6784,215.2808 C175.5464,215.1328 175.3864,215.0128 175.1984,214.9208 C175.0104,214.8288 174.8004,214.7828 174.5684,214.7828 C174.3284,214.7828 174.1104,214.8248 173.9144,214.9088 C173.7184,214.9928 173.5504,215.1088 173.4104,215.2568 C173.2704,215.4048 173.1584,215.5788 173.0744,215.7788 C172.9904,215.9788 172.9444,216.1948 172.9364,216.4268 L176.1284,216.4268 Z M172.9364,217.3268 C172.9364,217.5668 172.9704,217.7988 173.0384,218.0228 C173.1064,218.2468 173.2084,218.4428 173.3444,218.6108 C173.4804,218.7788 173.6524,218.9128 173.8604,219.0128 C174.0684,219.1128 174.3164,219.1628 174.6044,219.1628 C175.0044,219.1628 175.3264,219.0768 175.5704,218.9048 C175.8144,218.7328 175.9964,218.4748 176.1164,218.1308 L177.4124,218.1308 C177.3404,218.4668 177.2164,218.7668 177.0404,219.0308 C176.8644,219.2948 176.6524,219.5168 176.4044,219.6968 C176.1564,219.8768 175.8784,220.0128 175.5704,220.1048 C175.2624,220.1968 174.9404,220.2428 174.6044,220.2428 C174.1164,220.2428 173.6844,220.1628 173.3084,220.0028 C172.9324,219.8428 172.6144,219.6188 172.3544,219.3308 C172.0944,219.0428 171.8984,218.6988 171.7664,218.2988 C171.6344,217.8988 171.5684,217.4588 171.5684,216.9788 C171.5684,216.5388 171.6384,216.1208 171.7784,215.7248 C171.9184,215.3288 172.1184,214.9808 172.3784,214.6808 C172.6384,214.3808 172.9524,214.1428 173.3204,213.9668 C173.6884,213.7908 174.1044,213.7028 174.5684,213.7028 C175.0564,213.7028 175.4944,213.8048 175.8824,214.0088 C176.2704,214.2128 176.5924,214.4828 176.8484,214.8188 C177.1044,215.1548 177.2904,215.5408 177.4064,215.9768 C177.5224,216.4128 177.5524,216.8628 177.4964,217.3268 L172.9364,217.3268 Z M178.576,220.075 L178.576,211.507 L179.944,211.507 L179.944,220.075 L178.576,220.075 Z M185.6206,215.9468 C185.5646,215.5628 185.4106,215.2728 185.1586,215.0768 C184.9066,214.8808 184.5886,214.7828 184.2046,214.7828 C184.0286,214.7828 183.8406,214.8128 183.6406,214.8728 C183.4406,214.9328 183.2566,215.0448 183.0886,215.2088 C182.9206,215.3728 182.7806,215.6008 182.6686,215.8928 C182.5566,216.1848 182.5006,216.5668 182.5006,217.0388 C182.5006,217.2948 182.5306,217.5508 182.5906,217.8068 C182.6506,218.0628 182.7466,218.2908 182.8786,218.4908 C183.0106,218.6908 183.1806,218.8528 183.3886,218.9768 C183.5966,219.1008 183.8486,219.1628 184.1446,219.1628 C184.5446,219.1628 184.8746,219.0388 185.1346,218.7908 C185.3936,218.5428 185.5566,218.1948 185.6206,217.7468 L186.9886,217.7468 C186.8606,218.5548 186.5546,219.1728 186.0706,219.6008 C185.5866,220.0288 184.9446,220.2428 184.1446,220.2428 C183.6566,220.2428 183.2266,220.1608 182.8546,219.9968 C182.4826,219.8328 182.1686,219.6088 181.9126,219.3248 C181.6566,219.0408 181.4626,218.7028 181.3306,218.3108 C181.1986,217.9188 181.1326,217.4948 181.1326,217.0388 C181.1326,216.5748 181.1966,216.1388 181.3246,215.7308 C181.4526,215.3228 181.6436,214.9688 181.9006,214.6688 C182.1566,214.3688 182.4746,214.1328 182.8546,213.9608 C183.2346,213.7888 183.6806,213.7028 184.1926,213.7028 C184.5526,213.7028 184.8946,213.7488 185.2186,213.8408 C185.5426,213.9328 185.8306,214.0708 186.0826,214.2548 C186.3346,214.4388 186.5396,214.6708 186.7006,214.9508 C186.8606,215.2308 186.9566,215.5628 186.9886,215.9468 L185.6206,215.9468 Z M190.9482,219.1626 C191.2522,219.1626 191.5162,219.0986 191.7402,218.9706 C191.9642,218.8426 192.1482,218.6746 192.2922,218.4666 C192.4362,218.2586 192.5422,218.0246 192.6102,217.7646 C192.6782,217.5046 192.7122,217.2386 192.7122,216.9666 C192.7122,216.7026 192.6782,216.4386 192.6102,216.1746 C192.5422,215.9106 192.4362,215.6766 192.2922,215.4726 C192.1482,215.2686 191.9642,215.1026 191.7402,214.9746 C191.5162,214.8466 191.2522,214.7826 190.9482,214.7826 C190.6442,214.7826 190.3802,214.8466 190.1562,214.9746 C189.9322,215.1026 189.7482,215.2686 189.6042,215.4726 C189.4602,215.6766 189.3542,215.9106 189.2862,216.1746 C189.2182,216.4386 189.1842,216.7026 189.1842,216.9666 C189.1842,217.2386 189.2182,217.5046 189.2862,217.7646 C189.3542,218.0246 189.4602,218.2586 189.6042,218.4666 C189.7482,218.6746 189.9322,218.8426 190.1562,218.9706 C190.3802,219.0986 190.6442,219.1626 190.9482,219.1626 Z M190.9482,220.2426 C190.4522,220.2426 190.0102,220.1606 189.6222,219.9966 C189.2342,219.8326 188.9062,219.6066 188.6382,219.3186 C188.3702,219.0306 188.1662,218.6866 188.0262,218.2866 C187.8862,217.8866 187.8162,217.4466 187.8162,216.9666 C187.8162,216.4946 187.8862,216.0586 188.0262,215.6586 C188.1662,215.2586 188.3702,214.9146 188.6382,214.6266 C188.9062,214.3386 189.2342,214.1126 189.6222,213.9486 C190.0102,213.7846 190.4522,213.7026 190.9482,213.7026 C191.4442,213.7026 191.8862,213.7846 192.2742,213.9486 C192.6622,214.1126 192.9902,214.3386 193.2582,214.6266 C193.5262,214.9146 193.7302,215.2586 193.8702,215.6586 C194.0102,216.0586 194.0802,216.4946 194.0802,216.9666 C194.0802,217.4466 194.0102,217.8866 193.8702,218.2866 C193.7302,218.6866 193.5262,219.0306 193.2582,219.3186 C192.9902,219.6066 192.6622,219.8326 192.2742,219.9966 C191.8862,220.1606 191.4442,220.2426 190.9482,220.2426 Z M195.2202,213.8706 L196.5162,213.8706 L196.5162,214.7346 L196.5522,214.7346 C196.6562,214.5826 196.7682,214.4426 196.8882,214.3146 C197.0082,214.1866 197.1422,214.0786 197.2902,213.9906 C197.4382,213.9026 197.6082,213.8326 197.8002,213.7806 C197.9922,213.7286 198.2122,213.7026 198.4602,213.7026 C198.8362,213.7026 199.1862,213.7866 199.5102,213.9546 C199.8342,214.1226 200.0642,214.3826 200.2002,214.7346 C200.4322,214.4146 200.6992,214.1626 201.0042,213.9786 C201.3082,213.7946 201.6882,213.7026 202.1442,213.7026 C202.8002,213.7026 203.3102,213.8626 203.6742,214.1826 C204.0382,214.5026 204.2202,215.0386 204.2202,215.7906 L204.2202,220.0746 L202.8522,220.0746 L202.8522,216.4506 C202.8522,216.2026 202.8442,215.9766 202.8282,215.7726 C202.8122,215.5686 202.7662,215.3926 202.6902,215.2446 C202.6142,215.0966 202.5002,214.9826 202.3482,214.9026 C202.1962,214.8226 201.9882,214.7826 201.7242,214.7826 C201.2602,214.7826 200.9242,214.9266 200.7162,215.2146 C200.5082,215.5026 200.4042,215.9106 200.4042,216.4386 L200.4042,220.0746 L199.0362,220.0746 L199.0362,216.0906 C199.0362,215.6586 198.9582,215.3326 198.8022,215.1126 C198.6462,214.8926 198.3602,214.7826 197.9442,214.7826 C197.7682,214.7826 197.5972,214.8186 197.4342,214.8906 C197.2702,214.9626 197.1262,215.0666 197.0022,215.2026 C196.8782,215.3386 196.7782,215.5066 196.7022,215.7066 C196.6262,215.9066 196.5882,216.1346 196.5882,216.3906 L196.5882,220.0746 L195.2202,220.0746 L195.2202,213.8706 Z M209.9199,216.4268 C209.9039,216.2108 209.8579,216.0028 209.7819,215.8028 C209.7059,215.6028 209.6019,215.4288 209.4699,215.2808 C209.3379,215.1328 209.1779,215.0128 208.9899,214.9208 C208.8019,214.8288 208.5919,214.7828 208.3599,214.7828 C208.1199,214.7828 207.9019,214.8248 207.7059,214.9088 C207.5099,214.9928 207.3419,215.1088 207.2019,215.2568 C207.0619,215.4048 206.9499,215.5788 206.8659,215.7788 C206.7819,215.9788 206.7359,216.1948 206.7279,216.4268 L209.9199,216.4268 Z M206.7279,217.3268 C206.7279,217.5668 206.7619,217.7988 206.8299,218.0228 C206.8979,218.2468 206.9999,218.4428 207.1359,218.6108 C207.2719,218.7788 207.4439,218.9128 207.6519,219.0128 C207.8599,219.1128 208.1079,219.1628 208.3959,219.1628 C208.7959,219.1628 209.1179,219.0768 209.3619,218.9048 C209.6059,218.7328 209.7879,218.4748 209.9079,218.1308 L211.2039,218.1308 C211.1319,218.4668 211.0079,218.7668 210.8319,219.0308 C210.6559,219.2948 210.4439,219.5168 210.1959,219.6968 C209.9479,219.8768 209.6699,220.0128 209.3619,220.1048 C209.0539,220.1968 208.7319,220.2428 208.3959,220.2428 C207.9079,220.2428 207.4759,220.1628 207.0999,220.0028 C206.7239,219.8428 206.4059,219.6188 206.1459,219.3308 C205.8859,219.0428 205.6899,218.6988 205.5579,218.2988 C205.4259,217.8988 205.3599,217.4588 205.3599,216.9788 C205.3599,216.5388 205.4299,216.1208 205.5699,215.7248 C205.7099,215.3288 205.9099,214.9808 206.1699,214.6808 C206.4299,214.3808 206.7439,214.1428 207.1119,213.9668 C207.4799,213.7908 207.8959,213.7028 208.3599,213.7028 C208.8479,213.7028 209.2859,213.8048 209.6739,214.0088 C210.0619,214.2128 210.3839,214.4828 210.6399,214.8188 C210.8959,215.1548 211.0819,215.5408 211.1979,215.9768 C211.3139,216.4128 211.3439,216.8628 211.2879,217.3268 L206.7279,217.3268 Z M54.9414,230.9048 L56.0214,230.9048 L56.0214,231.6248 L56.0514,231.6248 C56.1374,231.4978 56.2314,231.3818 56.3314,231.2748 C56.4314,231.1678 56.5434,231.0778 56.6664,231.0048 C56.7894,230.9318 56.9314,230.8728 57.0914,230.8298 C57.2514,230.7868 57.4344,230.7648 57.6414,230.7648 C57.9544,230.7648 58.2464,230.8348 58.5164,230.9748 C58.7864,231.1148 58.9784,231.3318 59.0914,231.6248 C59.2844,231.3578 59.5074,231.1478 59.7614,230.9948 C60.0144,230.8418 60.3314,230.7648 60.7114,230.7648 C61.2574,230.7648 61.6834,230.8978 61.9864,231.1648 C62.2894,231.4318 62.4414,231.8778 62.4414,232.5048 L62.4414,236.0748 L61.3014,236.0748 L61.3014,233.0548 C61.3014,232.8478 61.2944,232.6598 61.2814,232.4898 C61.2684,232.3198 61.2294,232.1738 61.1664,232.0498 C61.1034,231.9258 61.0074,231.8318 60.8814,231.7648 C60.7544,231.6978 60.5814,231.6648 60.3614,231.6648 C59.9744,231.6648 59.6944,231.7848 59.5214,232.0248 C59.3474,232.2648 59.2614,232.6048 59.2614,233.0448 L59.2614,236.0748 L58.1214,236.0748 L58.1214,232.7548 C58.1214,232.3948 58.0564,232.1228 57.9264,231.9398 C57.7964,231.7568 57.5584,231.6648 57.2114,231.6648 C57.0644,231.6648 56.9224,231.6948 56.7864,231.7548 C56.6494,231.8148 56.5294,231.9018 56.4264,232.0148 C56.3224,232.1278 56.2394,232.2678 56.1764,232.4348 C56.1124,232.6018 56.0814,232.7918 56.0814,233.0048 L56.0814,236.0748 L54.9414,236.0748 L54.9414,230.9048 Z M63.671,236.075 L63.671,230.905 L64.811,230.905 L64.811,236.075 L63.671,236.075 Z M63.671,230.015 L63.671,228.935 L64.811,228.935 L64.811,230.015 L63.671,230.015 Z M66.0513,230.9048 L67.1313,230.9048 L67.1313,231.6648 L67.1513,231.6848 C67.3243,231.3978 67.5513,231.1738 67.8313,231.0098 C68.1113,230.8458 68.4213,230.7648 68.7613,230.7648 C69.3273,230.7648 69.7743,230.9118 70.1013,231.2048 C70.4273,231.4978 70.5913,231.9378 70.5913,232.5248 L70.5913,236.0748 L69.4513,236.0748 L69.4513,232.8248 C69.4373,232.4178 69.3513,232.1228 69.1913,231.9398 C69.0313,231.7568 68.7813,231.6648 68.4413,231.6648 C68.2473,231.6648 68.0743,231.6998 67.9213,231.7698 C67.7673,231.8398 67.6373,231.9368 67.5313,232.0598 C67.4243,232.1828 67.3413,232.3278 67.2813,232.4948 C67.2213,232.6618 67.1913,232.8388 67.1913,233.0248 L67.1913,236.0748 L66.0513,236.0748 L66.0513,230.9048 Z M72.6509,234.4146 C72.6839,234.7476 72.8109,234.9816 73.0309,235.1146 C73.2509,235.2476 73.5139,235.3146 73.8209,235.3146 C73.9269,235.3146 74.0489,235.3066 74.1859,235.2896 C74.3219,235.2726 74.4509,235.2416 74.5709,235.1946 C74.6909,235.1476 74.7889,235.0796 74.8659,234.9896 C74.9429,234.8996 74.9779,234.7816 74.9709,234.6346 C74.9639,234.4886 74.9109,234.3686 74.8109,234.2746 C74.7109,234.1816 74.5829,234.1066 74.4259,234.0496 C74.2689,233.9936 74.0909,233.9446 73.8909,233.9046 C73.6909,233.8646 73.4869,233.8216 73.2809,233.7746 C73.0679,233.7276 72.8619,233.6716 72.6659,233.6046 C72.4689,233.5386 72.2929,233.4486 72.1359,233.3346 C71.9789,233.2216 71.8539,233.0766 71.7609,232.8996 C71.6679,232.7236 71.6209,232.5046 71.6209,232.2446 C71.6209,231.9646 71.6889,231.7296 71.8259,231.5396 C71.9629,231.3496 72.1359,231.1966 72.3459,231.0796 C72.5559,230.9636 72.7889,230.8816 73.0459,230.8346 C73.3019,230.7886 73.5469,230.7646 73.7809,230.7646 C74.0469,230.7646 74.3019,230.7926 74.5459,230.8496 C74.7889,230.9066 75.0089,230.9976 75.2059,231.1246 C75.4019,231.2516 75.5659,231.4166 75.6959,231.6196 C75.8259,231.8236 75.9079,232.0686 75.9409,232.3546 L74.7509,232.3546 C74.6969,232.0816 74.5719,231.8976 74.3759,231.8046 C74.1789,231.7116 73.9539,231.6646 73.7009,231.6646 C73.6209,231.6646 73.5259,231.6716 73.4159,231.6846 C73.3059,231.6986 73.2029,231.7236 73.1059,231.7596 C73.0089,231.7966 72.9269,231.8496 72.8609,231.9196 C72.7949,231.9896 72.7609,232.0816 72.7609,232.1946 C72.7609,232.3346 72.8089,232.4486 72.9059,232.5346 C73.0029,232.6216 73.1299,232.6936 73.2859,232.7496 C73.4429,232.8066 73.6209,232.8546 73.8209,232.8946 C74.0209,232.9346 74.2279,232.9776 74.4409,233.0246 C74.6479,233.0716 74.8509,233.1276 75.0509,233.1946 C75.2509,233.2616 75.4289,233.3516 75.5859,233.4646 C75.7429,233.5786 75.8689,233.7216 75.9659,233.8946 C76.0629,234.0686 76.1109,234.2816 76.1109,234.5346 C76.1109,234.8416 76.0409,235.1016 75.9009,235.3146 C75.7609,235.5286 75.5789,235.7016 75.3559,235.8346 C75.1319,235.9686 74.8839,236.0646 74.6109,236.1246 C74.3379,236.1846 74.0679,236.2146 73.8009,236.2146 C73.4739,236.2146 73.1719,236.1786 72.8959,236.1046 C72.6189,236.0316 72.3799,235.9196 72.1759,235.7696 C71.9729,235.6196 71.8129,235.4336 71.6959,235.2096 C71.5789,234.9866 71.5179,234.7216 71.5109,234.4146 L72.6509,234.4146 Z M90.3398,228.9346 L91.6098,228.9346 L92.8998,234.3946 L92.9198,234.3946 L94.3598,228.9346 L95.6398,228.9346 L97.0398,234.3946 L97.0598,234.3946 L98.3898,228.9346 L99.6598,228.9346 L97.6898,236.0746 L96.4198,236.0746 L94.9898,230.6146 L94.9698,230.6146 L93.5098,236.0746 L92.2198,236.0746 L90.3398,228.9346 Z M100.1401,230.9048 L101.2101,230.9048 L101.2101,231.9048 L101.2301,231.9048 C101.2631,231.7648 101.3281,231.6278 101.4251,231.4948 C101.5211,231.3618 101.6381,231.2398 101.7751,231.1298 C101.9111,231.0198 102.0631,230.9318 102.2301,230.8648 C102.3961,230.7988 102.5661,230.7648 102.7401,230.7648 C102.8731,230.7648 102.9651,230.7678 103.0151,230.7748 C103.0651,230.7808 103.1171,230.7878 103.1701,230.7948 L103.1701,231.8948 C103.0901,231.8818 103.0081,231.8698 102.9251,231.8598 C102.8421,231.8498 102.7601,231.8448 102.6801,231.8448 C102.4871,231.8448 102.3051,231.8838 102.1351,231.9598 C101.9651,232.0368 101.8161,232.1498 101.6901,232.2998 C101.5631,232.4498 101.4631,232.6348 101.3901,232.8548 C101.3161,233.0748 101.2801,233.3278 101.2801,233.6148 L101.2801,236.0748 L100.1401,236.0748 L100.1401,230.9048 Z M103.69,236.075 L103.69,230.905 L104.83,230.905 L104.83,236.075 L103.69,236.075 Z M103.69,230.015 L103.69,228.935 L104.83,228.935 L104.83,230.015 L103.69,230.015 Z M105.5503,230.9048 L106.4103,230.9048 L106.4103,229.3548 L107.5503,229.3548 L107.5503,230.9048 L108.5803,230.9048 L108.5803,231.7548 L107.5503,231.7548 L107.5503,234.5148 C107.5503,234.6348 107.5553,234.7378 107.5653,234.8248 C107.5753,234.9118 107.5983,234.9848 107.6353,235.0448 C107.6723,235.1048 107.7263,235.1498 107.8003,235.1798 C107.8733,235.2098 107.9733,235.2248 108.1003,235.2248 C108.1803,235.2248 108.2603,235.2228 108.3403,235.2198 C108.4203,235.2168 108.5003,235.2048 108.5803,235.1848 L108.5803,236.0648 C108.4533,236.0778 108.3303,236.0918 108.2103,236.1048 C108.0903,236.1178 107.9673,236.1248 107.8403,236.1248 C107.5403,236.1248 107.2983,236.0958 107.1153,236.0398 C106.9313,235.9828 106.7883,235.8998 106.6853,235.7898 C106.5813,235.6798 106.5113,235.5418 106.4753,235.3748 C106.4383,235.2078 106.4173,235.0178 106.4103,234.8048 L106.4103,231.7548 L105.5503,231.7548 L105.5503,230.9048 Z M109.43,236.075 L109.43,230.905 L110.57,230.905 L110.57,236.075 L109.43,236.075 Z M109.43,230.015 L109.43,228.935 L110.57,228.935 L110.57,230.015 L109.43,230.015 Z M111.8105,230.9048 L112.8905,230.9048 L112.8905,231.6648 L112.9105,231.6848 C113.0835,231.3978 113.3105,231.1738 113.5905,231.0098 C113.8705,230.8458 114.1805,230.7648 114.5205,230.7648 C115.0865,230.7648 115.5335,230.9118 115.8605,231.2048 C116.1865,231.4978 116.3505,231.9378 116.3505,232.5248 L116.3505,236.0748 L115.2105,236.0748 L115.2105,232.8248 C115.1965,232.4178 115.1105,232.1228 114.9505,231.9398 C114.7905,231.7568 114.5405,231.6648 114.2005,231.6648 C114.0065,231.6648 113.8335,231.6998 113.6805,231.7698 C113.5265,231.8398 113.3965,231.9368 113.2905,232.0598 C113.1835,232.1828 113.1005,232.3278 113.0405,232.4948 C112.9805,232.6618 112.9505,232.8388 112.9505,233.0248 L112.9505,236.0748 L111.8105,236.0748 L111.8105,230.9048 Z M119.8003,235.1748 C120.0533,235.1748 120.2683,235.1228 120.4453,235.0198 C120.6213,234.9168 120.7653,234.7798 120.8753,234.6098 C120.9853,234.4398 121.0653,234.2468 121.1153,234.0298 C121.1653,233.8128 121.1903,233.5948 121.1903,233.3748 C121.1903,233.1548 121.1633,232.9418 121.1103,232.7348 C121.0563,232.5288 120.9753,232.3448 120.8653,232.1848 C120.7553,232.0248 120.6123,231.8978 120.4353,231.8048 C120.2583,231.7118 120.0473,231.6648 119.8003,231.6648 C119.5473,231.6648 119.3333,231.7178 119.1603,231.8248 C118.9873,231.9318 118.8463,232.0698 118.7403,232.2398 C118.6333,232.4098 118.5563,232.6028 118.5103,232.8198 C118.4633,233.0368 118.4403,233.2518 118.4403,233.4648 C118.4403,233.6778 118.4673,233.8858 118.5203,234.0898 C118.5733,234.2928 118.6553,234.4748 118.7653,234.6348 C118.8753,234.7948 119.0153,234.9248 119.1853,235.0248 C119.3553,235.1248 119.5603,235.1748 119.8003,235.1748 Z M122.3303,235.8048 C122.3303,236.5848 122.1123,237.1668 121.6753,237.5498 C121.2383,237.9328 120.6103,238.1248 119.7903,238.1248 C119.5303,238.1248 119.2683,238.0978 119.0053,238.0448 C118.7413,237.9908 118.5023,237.9018 118.2853,237.7748 C118.0683,237.6478 117.8863,237.4818 117.7403,237.2748 C117.5933,237.0678 117.5073,236.8148 117.4803,236.5148 L118.6203,236.5148 C118.6533,236.6748 118.7103,236.8048 118.7903,236.9048 C118.8703,237.0048 118.9653,237.0828 119.0753,237.1398 C119.1853,237.1958 119.3063,237.2328 119.4403,237.2498 C119.5733,237.2658 119.7133,237.2748 119.8603,237.2748 C120.3203,237.2748 120.6563,237.1608 120.8703,236.9348 C121.0833,236.7078 121.1903,236.3818 121.1903,235.9548 L121.1903,235.1648 L121.1703,235.1648 C121.0103,235.4518 120.7923,235.6748 120.5153,235.8348 C120.2383,235.9948 119.9403,236.0748 119.6203,236.0748 C119.2063,236.0748 118.8553,236.0028 118.5653,235.8598 C118.2753,235.7168 118.0353,235.5198 117.8453,235.2698 C117.6553,235.0198 117.5163,234.7318 117.4303,234.4048 C117.3433,234.0778 117.3003,233.7278 117.3003,233.3548 C117.3003,233.0078 117.3533,232.6778 117.4603,232.3648 C117.5673,232.0508 117.7203,231.7768 117.9203,231.5398 C118.1203,231.3028 118.3653,231.1148 118.6553,230.9748 C118.9453,230.8348 119.2733,230.7648 119.6403,230.7648 C119.9673,230.7648 120.2663,230.8328 120.5403,230.9698 C120.8133,231.1068 121.0233,231.3208 121.1703,231.6148 L121.1903,231.6148 L121.1903,230.9048 L122.3303,230.9048 L122.3303,235.8048 Z M137.539,236.075 L137.539,228.935 L138.789,228.935 L138.789,236.075 L137.539,236.075 Z M140.1587,230.9048 L141.2387,230.9048 L141.2387,231.6648 L141.2587,231.6848 C141.4317,231.3978 141.6587,231.1738 141.9387,231.0098 C142.2187,230.8458 142.5287,230.7648 142.8687,230.7648 C143.4347,230.7648 143.8817,230.9118 144.2087,231.2048 C144.5347,231.4978 144.6987,231.9378 144.6987,232.5248 L144.6987,236.0748 L143.5587,236.0748 L143.5587,232.8248 C143.5447,232.4178 143.4587,232.1228 143.2987,231.9398 C143.1387,231.7568 142.8887,231.6648 142.5487,231.6648 C142.3547,231.6648 142.1817,231.6998 142.0287,231.7698 C141.8747,231.8398 141.7447,231.9368 141.6387,232.0598 C141.5317,232.1828 141.4487,232.3278 141.3887,232.4948 C141.3287,232.6618 141.2987,232.8388 141.2987,233.0248 L141.2987,236.0748 L140.1587,236.0748 L140.1587,230.9048 Z M152.168,232.6348 C152.122,232.3148 151.993,232.0728 151.783,231.9098 C151.573,231.7468 151.308,231.6648 150.988,231.6648 C150.841,231.6648 150.685,231.6898 150.518,231.7398 C150.352,231.7898 150.198,231.8838 150.058,232.0198 C149.918,232.1558 149.801,232.3458 149.708,232.5898 C149.615,232.8328 149.568,233.1518 149.568,233.5448 C149.568,233.7588 149.593,233.9708 149.643,234.1848 C149.693,234.3978 149.773,234.5888 149.883,234.7548 C149.993,234.9218 150.135,235.0568 150.308,235.1598 C150.481,235.2628 150.691,235.3148 150.938,235.3148 C151.272,235.3148 151.546,235.2118 151.763,235.0048 C151.98,234.7988 152.115,234.5088 152.168,234.1348 L153.308,234.1348 C153.201,234.8078 152.946,235.3228 152.543,235.6798 C152.14,236.0368 151.605,236.2148 150.938,236.2148 C150.531,236.2148 150.173,236.1468 149.863,236.0098 C149.553,235.8728 149.292,235.6868 149.078,235.4498 C148.865,235.2138 148.703,234.9318 148.593,234.6048 C148.483,234.2788 148.428,233.9248 148.428,233.5448 C148.428,233.1578 148.481,232.7948 148.588,232.4548 C148.695,232.1148 148.855,231.8198 149.068,231.5698 C149.281,231.3198 149.546,231.1228 149.863,230.9798 C150.18,230.8368 150.551,230.7648 150.978,230.7648 C151.278,230.7648 151.563,230.8028 151.833,230.8798 C152.103,230.9568 152.343,231.0718 152.553,231.2248 C152.763,231.3778 152.935,231.5718 153.068,231.8048 C153.201,232.0378 153.281,232.3148 153.308,232.6348 L152.168,232.6348 Z M154.268,236.075 L154.268,228.935 L155.408,228.935 L155.408,236.075 L154.268,236.075 Z M159.8384,233.4849 C159.6654,233.5979 159.4514,233.6669 159.1984,233.6899 C158.9444,233.7139 158.6914,233.7479 158.4384,233.7949 C158.3184,233.8149 158.2014,233.8429 158.0884,233.8799 C157.9754,233.9169 157.8754,233.9659 157.7884,234.0299 C157.7014,234.0929 157.6334,234.1759 157.5834,234.2799 C157.5334,234.3829 157.5084,234.5079 157.5084,234.6549 C157.5084,234.7809 157.5454,234.8879 157.6184,234.9749 C157.6914,235.0619 157.7794,235.1299 157.8834,235.1799 C157.9864,235.2299 158.1004,235.2649 158.2234,235.2849 C158.3464,235.3049 158.4584,235.3149 158.5584,235.3149 C158.6854,235.3149 158.8214,235.2979 158.9684,235.2649 C159.1144,235.2319 159.2534,235.1749 159.3834,235.0949 C159.5134,235.0149 159.6214,234.9129 159.7084,234.7899 C159.7954,234.6669 159.8384,234.5149 159.8384,234.3349 L159.8384,233.4849 Z M160.9784,234.9249 C160.9784,235.0649 160.9964,235.1649 161.0334,235.2249 C161.0694,235.2849 161.1414,235.3149 161.2484,235.3149 L161.3684,235.3149 C161.4154,235.3149 161.4684,235.3079 161.5284,235.2949 L161.5284,236.0849 C161.4884,236.0979 161.4364,236.1129 161.3734,236.1299 C161.3104,236.1469 161.2454,236.1609 161.1784,236.1749 C161.1114,236.1879 161.0454,236.1979 160.9784,236.2049 C160.9114,236.2119 160.8554,236.2149 160.8084,236.2149 C160.5744,236.2149 160.3814,236.1679 160.2284,236.0749 C160.0744,235.9819 159.9754,235.8179 159.9284,235.5849 C159.7014,235.8049 159.4234,235.9649 159.0934,236.0649 C158.7634,236.1649 158.4444,236.2149 158.1384,236.2149 C157.9044,236.2149 157.6814,236.1829 157.4684,236.1199 C157.2554,236.0569 157.0664,235.9639 156.9034,235.8399 C156.7394,235.7159 156.6094,235.5599 156.5134,235.3699 C156.4164,235.1799 156.3684,234.9579 156.3684,234.7049 C156.3684,234.3849 156.4264,234.1249 156.5434,233.9249 C156.6594,233.7249 156.8134,233.5679 157.0034,233.4549 C157.1934,233.3409 157.4064,233.2599 157.6434,233.2099 C157.8804,233.1599 158.1184,233.1219 158.3584,233.0949 C158.5654,233.0549 158.7614,233.0269 158.9484,233.0099 C159.1344,232.9929 159.2994,232.9649 159.4434,232.9249 C159.5864,232.8849 159.6994,232.8229 159.7834,232.7399 C159.8664,232.6559 159.9084,232.5309 159.9084,232.3649 C159.9084,232.2179 159.8734,232.0979 159.8034,232.0049 C159.7334,231.9119 159.6464,231.8399 159.5434,231.7899 C159.4404,231.7399 159.3244,231.7069 159.1984,231.6899 C159.0714,231.6729 158.9514,231.6649 158.8384,231.6649 C158.5184,231.6649 158.2554,231.7319 158.0484,231.8649 C157.8414,231.9979 157.7254,232.2049 157.6984,232.4849 L156.5584,232.4849 C156.5784,232.1519 156.6584,231.8749 156.7984,231.6549 C156.9384,231.4349 157.1164,231.2579 157.3334,231.1249 C157.5494,230.9909 157.7954,230.8979 158.0684,230.8449 C158.3414,230.7919 158.6214,230.7649 158.9084,230.7649 C159.1614,230.7649 159.4114,230.7919 159.6584,230.8449 C159.9044,230.8979 160.1264,230.9849 160.3234,231.1049 C160.5204,231.2249 160.6784,231.3799 160.7984,231.5699 C160.9184,231.7599 160.9784,231.9909 160.9784,232.2649 L160.9784,234.9249 Z M163.0684,234.4146 C163.1014,234.7476 163.2284,234.9816 163.4484,235.1146 C163.6684,235.2476 163.9314,235.3146 164.2384,235.3146 C164.3444,235.3146 164.4664,235.3066 164.6034,235.2896 C164.7394,235.2726 164.8684,235.2416 164.9884,235.1946 C165.1084,235.1476 165.2064,235.0796 165.2834,234.9896 C165.3604,234.8996 165.3954,234.7816 165.3884,234.6346 C165.3814,234.4886 165.3284,234.3686 165.2284,234.2746 C165.1284,234.1816 165.0004,234.1066 164.8434,234.0496 C164.6864,233.9936 164.5084,233.9446 164.3084,233.9046 C164.1084,233.8646 163.9044,233.8216 163.6984,233.7746 C163.4854,233.7276 163.2794,233.6716 163.0834,233.6046 C162.8864,233.5386 162.7104,233.4486 162.5534,233.3346 C162.3964,233.2216 162.2714,233.0766 162.1784,232.8996 C162.0854,232.7236 162.0384,232.5046 162.0384,232.2446 C162.0384,231.9646 162.1064,231.7296 162.2434,231.5396 C162.3804,231.3496 162.5534,231.1966 162.7634,231.0796 C162.9734,230.9636 163.2064,230.8816 163.4634,230.8346 C163.7194,230.7886 163.9644,230.7646 164.1984,230.7646 C164.4644,230.7646 164.7194,230.7926 164.9634,230.8496 C165.2064,230.9066 165.4264,230.9976 165.6234,231.1246 C165.8194,231.2516 165.9834,231.4166 166.1134,231.6196 C166.2434,231.8236 166.3254,232.0686 166.3584,232.3546 L165.1684,232.3546 C165.1144,232.0816 164.9894,231.8976 164.7934,231.8046 C164.5964,231.7116 164.3714,231.6646 164.1184,231.6646 C164.0384,231.6646 163.9434,231.6716 163.8334,231.6846 C163.7234,231.6986 163.6204,231.7236 163.5234,231.7596 C163.4264,231.7966 163.3444,231.8496 163.2784,231.9196 C163.2124,231.9896 163.1784,232.0816 163.1784,232.1946 C163.1784,232.3346 163.2264,232.4486 163.3234,232.5346 C163.4204,232.6216 163.5474,232.6936 163.7034,232.7496 C163.8604,232.8066 164.0384,232.8546 164.2384,232.8946 C164.4384,232.9346 164.6454,232.9776 164.8584,233.0246 C165.0654,233.0716 165.2684,233.1276 165.4684,233.1946 C165.6684,233.2616 165.8464,233.3516 166.0034,233.4646 C166.1604,233.5786 166.2864,233.7216 166.3834,233.8946 C166.4804,234.0686 166.5284,234.2816 166.5284,234.5346 C166.5284,234.8416 166.4584,235.1016 166.3184,235.3146 C166.1784,235.5286 165.9964,235.7016 165.7734,235.8346 C165.5494,235.9686 165.3014,236.0646 165.0284,236.1246 C164.7554,236.1846 164.4854,236.2146 164.2184,236.2146 C163.8914,236.2146 163.5894,236.1786 163.3134,236.1046 C163.0364,236.0316 162.7974,235.9196 162.5934,235.7696 C162.3904,235.6196 162.2304,235.4336 162.1134,235.2096 C161.9964,234.9866 161.9354,234.7216 161.9284,234.4146 L163.0684,234.4146 Z M168.2583,234.4146 C168.2913,234.7476 168.4183,234.9816 168.6383,235.1146 C168.8583,235.2476 169.1213,235.3146 169.4283,235.3146 C169.5343,235.3146 169.6563,235.3066 169.7933,235.2896 C169.9293,235.2726 170.0583,235.2416 170.1783,235.1946 C170.2983,235.1476 170.3963,235.0796 170.4733,234.9896 C170.5503,234.8996 170.5853,234.7816 170.5783,234.6346 C170.5713,234.4886 170.5183,234.3686 170.4183,234.2746 C170.3183,234.1816 170.1903,234.1066 170.0333,234.0496 C169.8763,233.9936 169.6983,233.9446 169.4983,233.9046 C169.2983,233.8646 169.0943,233.8216 168.8883,233.7746 C168.6753,233.7276 168.4693,233.6716 168.2733,233.6046 C168.0763,233.5386 167.9003,233.4486 167.7433,233.3346 C167.5863,233.2216 167.4613,233.0766 167.3683,232.8996 C167.2753,232.7236 167.2283,232.5046 167.2283,232.2446 C167.2283,231.9646 167.2963,231.7296 167.4333,231.5396 C167.5703,231.3496 167.7433,231.1966 167.9533,231.0796 C168.1633,230.9636 168.3963,230.8816 168.6533,230.8346 C168.9093,230.7886 169.1543,230.7646 169.3883,230.7646 C169.6543,230.7646 169.9093,230.7926 170.1533,230.8496 C170.3963,230.9066 170.6163,230.9976 170.8133,231.1246 C171.0093,231.2516 171.1733,231.4166 171.3033,231.6196 C171.4333,231.8236 171.5153,232.0686 171.5483,232.3546 L170.3583,232.3546 C170.3043,232.0816 170.1793,231.8976 169.9833,231.8046 C169.7863,231.7116 169.5613,231.6646 169.3083,231.6646 C169.2283,231.6646 169.1333,231.6716 169.0233,231.6846 C168.9133,231.6986 168.8103,231.7236 168.7133,231.7596 C168.6163,231.7966 168.5343,231.8496 168.4683,231.9196 C168.4023,231.9896 168.3683,232.0816 168.3683,232.1946 C168.3683,232.3346 168.4163,232.4486 168.5133,232.5346 C168.6103,232.6216 168.7373,232.6936 168.8933,232.7496 C169.0503,232.8066 169.2283,232.8546 169.4283,232.8946 C169.6283,232.9346 169.8353,232.9776 170.0483,233.0246 C170.2553,233.0716 170.4583,233.1276 170.6583,233.1946 C170.8583,233.2616 171.0363,233.3516 171.1933,233.4646 C171.3503,233.5786 171.4763,233.7216 171.5733,233.8946 C171.6703,234.0686 171.7183,234.2816 171.7183,234.5346 C171.7183,234.8416 171.6483,235.1016 171.5083,235.3146 C171.3683,235.5286 171.1863,235.7016 170.9633,235.8346 C170.7393,235.9686 170.4913,236.0646 170.2183,236.1246 C169.9453,236.1846 169.6753,236.2146 169.4083,236.2146 C169.0813,236.2146 168.7793,236.1786 168.5033,236.1046 C168.2263,236.0316 167.9873,235.9196 167.7833,235.7696 C167.5803,235.6196 167.4203,235.4336 167.3033,235.2096 C167.1863,234.9866 167.1253,234.7216 167.1183,234.4146 L168.2583,234.4146 Z M187.897,235.0547 L190.107,235.0547 C190.487,235.0547 190.782,234.9567 190.992,234.7597 C191.202,234.5627 191.307,234.2847 191.307,233.9247 C191.307,233.5717 191.202,233.2997 190.992,233.1097 C190.782,232.9197 190.487,232.8247 190.107,232.8247 L187.897,232.8247 L187.897,235.0547 Z M187.897,231.9247 L189.937,231.9247 C190.237,231.9247 190.487,231.8397 190.687,231.6697 C190.887,231.4997 190.987,231.2547 190.987,230.9347 C190.987,230.5747 190.897,230.3217 190.717,230.1747 C190.537,230.0287 190.277,229.9547 189.937,229.9547 L187.897,229.9547 L187.897,231.9247 Z M186.647,228.9347 L190.117,228.9347 C190.757,228.9347 191.271,229.0817 191.657,229.3747 C192.044,229.6677 192.237,230.1117 192.237,230.7047 C192.237,231.0647 192.149,231.3727 191.972,231.6297 C191.795,231.8867 191.544,232.0847 191.217,232.2247 L191.217,232.2447 C191.657,232.3387 191.991,232.5467 192.217,232.8697 C192.444,233.1937 192.557,233.5977 192.557,234.0847 C192.557,234.3647 192.507,234.6267 192.407,234.8697 C192.307,235.1137 192.15,235.3237 191.937,235.4997 C191.724,235.6767 191.451,235.8167 191.117,235.9197 C190.784,236.0227 190.387,236.0747 189.927,236.0747 L186.647,236.0747 L186.647,228.9347 Z M193.457,230.2349 C193.697,230.2349 193.931,230.2149 194.157,230.1749 C194.384,230.1349 194.589,230.0679 194.772,229.9749 C194.956,229.8809 195.112,229.7609 195.242,229.6149 C195.372,229.4679 195.457,229.2879 195.497,229.0749 L196.427,229.0749 L196.427,236.0749 L195.177,236.0749 L195.177,231.1349 L193.457,231.1349 L193.457,230.2349 Z M50.6514,232.0298 C50.8384,232.2398 50.9804,232.4878 51.0764,232.7748 C51.1724,233.0618 51.2214,233.3718 51.2214,233.7048 C51.2214,233.9848 51.1764,234.2728 51.0864,234.5698 C50.9964,234.8658 50.8534,235.1358 50.6564,235.3798 C50.5994,235.4508 50.5264,235.5098 50.4604,235.5738 C50.2324,235.3268 50.0144,235.0708 49.7884,234.8218 C49.7904,234.8188 49.7944,234.8178 49.7964,234.8148 C49.9004,234.6748 49.9734,234.5108 50.0164,234.3248 C50.0594,234.1378 50.0814,233.9378 50.0814,233.7248 C50.0814,233.5308 50.0544,233.3458 50.0014,233.1698 C49.9484,232.9928 49.8684,232.8388 49.7614,232.7048 C49.6544,232.5718 49.5164,232.4648 49.3464,232.3848 C49.1764,232.3048 48.9784,232.2648 48.7514,232.2648 C48.5114,232.2648 48.2864,232.3098 48.0764,232.3998 C47.9714,232.4458 47.8804,232.5108 47.8044,232.5948 C47.4574,232.1928 47.1244,231.7778 46.7814,231.3698 L46.7924,231.3168 L47.2314,229.0748 L50.8514,229.0748 L50.8514,230.0948 L48.0814,230.0948 L47.7214,231.8748 L47.7414,231.8948 C47.8944,231.7208 48.0894,231.5898 48.3264,231.4998 C48.5634,231.4098 48.7974,231.3648 49.0314,231.3648 C49.3784,231.3648 49.6884,231.4238 49.9614,231.5398 C50.2344,231.6558 50.4644,231.8198 50.6514,232.0298 Z M41.2085,217.7646 C41.2765,217.5046 41.3105,217.2386 41.3105,216.9666 C41.3105,216.7026 41.2765,216.4386 41.2085,216.1746 C41.1405,215.9106 41.0345,215.6766 40.8905,215.4726 C40.7465,215.2686 40.5625,215.1026 40.3385,214.9746 C40.1145,214.8466 39.8505,214.7826 39.5465,214.7826 C39.2425,214.7826 38.9785,214.8466 38.7545,214.9746 C38.5305,215.1026 38.3465,215.2686 38.2025,215.4726 C38.0585,215.6766 37.9525,215.9106 37.8845,216.1746 C37.8165,216.4386 37.7825,216.7026 37.7825,216.9666 C37.7825,217.2386 37.8165,217.5046 37.8845,217.7646 C37.9525,218.0246 38.0585,218.2586 38.2025,218.4666 C38.3465,218.6746 38.5305,218.8426 38.7545,218.9706 C38.9785,219.0986 39.2425,219.1626 39.5465,219.1626 C39.8505,219.1626 40.1145,219.0986 40.3385,218.9706 C40.5625,218.8426 40.7465,218.6746 40.8905,218.4666 C41.0345,218.2586 41.1405,218.0246 41.2085,217.7646 Z M42.4685,215.6586 C42.6085,216.0586 42.6785,216.4946 42.6785,216.9666 C42.6785,217.4466 42.6085,217.8866 42.4685,218.2866 C42.3285,218.6866 42.1245,219.0306 41.8565,219.3186 C41.5885,219.6066 41.2605,219.8326 40.8725,219.9966 C40.4845,220.1606 40.0425,220.2426 39.5465,220.2426 C39.0785,220.2426 38.6635,220.1636 38.2915,220.0176 C37.6565,219.0616 37.0355,218.0966 36.4265,217.1216 C36.4245,217.0686 36.4145,217.0206 36.4145,216.9666 C36.4145,216.4946 36.4845,216.0586 36.6245,215.6586 C36.7645,215.2586 36.9685,214.9146 37.2365,214.6266 C37.5045,214.3386 37.8325,214.1126 38.2205,213.9486 C38.6085,213.7846 39.0505,213.7026 39.5465,213.7026 C40.0425,213.7026 40.4845,213.7846 40.8725,213.9486 C41.2605,214.1126 41.5885,214.3386 41.8565,214.6266 C42.1245,214.9146 42.3285,215.2586 42.4685,215.6586 Z" id="course-info" fill="#B7D5EA"></path>
            <path d="M228.9097,0.6509 C229.2357,-0.2171 229.7647,-0.2171 230.0907,0.6509 L233.0287,8.4709 L240.8487,11.4099 C241.7177,11.7359 241.7167,12.2649 240.8487,12.5899 L233.0287,15.5289 L230.0907,23.3489 C229.7637,24.2169 229.2357,24.2169 228.9097,23.3489 L225.9717,15.5289 L218.1507,12.5899 C217.2827,12.2639 217.2837,11.7349 218.1507,11.4099 L225.9717,8.4709 L228.9097,0.6509 Z" id="star-top" fill="#7AA8C9"></path>
            <path d="M313.2397,125.9961 C313.3837,125.6131 313.6167,125.6131 313.7607,125.9961 L315.0557,129.4441 L318.5037,130.7401 C318.8867,130.8831 318.8867,131.1171 318.5037,131.2601 L315.0557,132.5561 L313.7607,136.0041 C313.6167,136.3871 313.3837,136.3871 313.2397,136.0041 L311.9447,132.5561 L308.4957,131.2601 C308.1137,131.1171 308.1137,130.8831 308.4957,130.7401 L311.9447,129.4441 L313.2397,125.9961 Z" id="star-right" fill="#7AA8C9"></path>
            <path d="M28.1514,237.3013 C28.3444,236.7893 28.6564,236.7893 28.8484,237.3013 L30.5834,241.9173 L35.1984,243.6513 C35.7114,243.8433 35.7114,244.1563 35.1984,244.3483 L30.5834,246.0833 L28.8484,250.6983 C28.6554,251.2113 28.3434,251.2113 28.1514,250.6983 L26.4174,246.0833 L21.8014,244.3483 C21.2894,244.1563 21.2894,243.8433 21.8014,243.6513 L26.4174,241.9173 L28.1514,237.3013 Z" id="star-bottom" fill="#7AA8C9"></path>
</svg>