<svg width="20px" height="20px" viewBox="0 0 20 20" version="1.1" xmlns="http://www.w3.org/2000/svg">
            <path d="M5.95075839,4.53624187 L1.70815525,0.293638726 C1.3156941,-0.0988224252 0.684428436,-0.0969231056 0.293904145,0.293601186 C-0.0993428106,0.686848141 -0.0966033396,1.31730726 0.293941685,1.70785229 L4.53654483,5.95045544 L4.53478735,5.95221292 C3.55855326,6.928447 3.5602341,8.50967861 4.53654483,9.48598934 L5.9523856,10.9018301 C6.14321009,11.0926546 6.46368661,11.0943815 6.66028542,10.8977827 L10.8980856,6.65998246 C11.0949783,6.46308974 11.0964965,6.14644611 10.9021331,5.95208264 L9.4862923,4.53624187 C8.51196817,3.56191774 6.92785598,3.55914429 5.95251588,4.53448439 L5.95075839,4.53624187 L5.95075839,4.53624187 Z M7.36497196,10.1930961 L8.07207874,9.48598934 L9.1294265,10.5433371 C9.32651804,10.7404286 9.32936239,11.0571328 9.13273891,11.2537563 C8.93747676,11.4490184 8.6224365,11.4505607 8.42231972,11.2504439 L7.36497196,10.1930961 L7.36497196,10.1930961 Z M9.4862923,8.07177578 L10.1933991,7.364669 L11.2507468,8.42201676 C11.4478384,8.6191083 11.4506827,8.93581247 11.2540593,9.13243595 C11.0587971,9.3276981 10.7437568,9.32924032 10.5436401,9.12912355 L9.4862923,8.07177578 Z M14.0744724,15.4822773 L14.0727224,15.4840276 C13.1015177,16.4553859 11.524122,16.4526237 10.5539289,15.4822773 L9.14409123,14.0722167 C8.95055185,13.8786467 8.95206361,13.5632957 9.14812152,13.3672068 L13.3679537,9.14670738 C13.563719,8.95091118 13.8828367,8.952631 14.0728521,9.14267646 L15.4826898,10.5527371 C16.454861,11.525062 16.4565348,13.0998383 15.4844398,14.0720869 L15.4826898,14.0738372 L19.7073046,18.29912 C20.0961937,18.6880706 20.0989216,19.3159559 19.707342,19.7075974 C19.3184735,20.0965274 18.6898844,20.098419 18.2990872,19.70756 L14.0744724,15.4822773 Z M16.1875753,3.12900404 C16.3745563,2.94202303 16.6778076,2.94211817 16.8678447,3.1321553 C17.0565661,3.3208767 17.0554522,3.62796851 16.870996,3.81242469 L15.4978521,5.18556853 C15.3108711,5.37254954 15.0076199,5.3724544 14.8175827,5.18241727 C14.6288613,4.99369587 14.6299753,4.68660406 14.8144315,4.50214788 L16.1875753,3.12900404 Z M18.5212052,7.03349724 C18.7856363,7.03349724 19,7.24799553 19,7.51674862 C19,7.78364099 18.7820656,8 18.5212052,8 L16.5792865,8 C16.3148555,8 16.1004917,7.78550171 16.1004917,7.51674862 C16.1004917,7.24985625 16.3184261,7.03349724 16.5792865,7.03349724 L18.5212052,7.03349724 L18.5212052,7.03349724 Z M12.9665028,1.47879482 L12.9665028,3.42071346 C12.9665028,3.6815739 12.7501437,3.89950828 12.4832514,3.89950828 C12.2144983,3.89950828 12,3.68514454 12,3.42071346 L12,1.47879482 C12,1.21793438 12.216359,1 12.4832514,1 C12.7520045,1 12.9665028,1.21436374 12.9665028,1.47879482 Z M3.81242469,16.870996 C3.62544369,17.057977 3.32219244,17.0578818 3.1321553,16.8678447 C2.9434339,16.6791233 2.94454785,16.3720315 3.12900404,16.1875753 L4.50214788,14.8144315 C4.68912888,14.6274505 4.99238014,14.6275456 5.18241727,14.8175827 C5.37113867,15.0063041 5.37002472,15.3133959 5.18556853,15.4978521 L3.81242469,16.870996 Z M1.47879482,12.9665028 C1.21436374,12.9665028 1,12.7520045 1,12.4832514 C1,12.216359 1.21793438,12 1.47879482,12 L3.42071346,12 C3.68514454,12 3.89950828,12.2144983 3.89950828,12.4832514 C3.89950828,12.7501437 3.6815739,12.9665028 3.42071346,12.9665028 L1.47879482,12.9665028 L1.47879482,12.9665028 Z M7.03349724,18.5212052 C7.03349724,18.7856363 7.24799553,19 7.51674862,19 C7.78364099,19 8,18.7820656 8,18.5212052 L8,16.5792865 C8,16.3148555 7.78550171,16.1004917 7.51674862,16.1004917 C7.24985625,16.1004917 7.03349724,16.3184261 7.03349724,16.5792865 L7.03349724,18.5212052 L7.03349724,18.5212052 Z" id="network-disconnected" />
</svg>