<svg width="20px" height="20px" viewBox="0 0 20 20" version="1.1" xmlns="http://www.w3.org/2000/svg">
            <path d="M9,15 L11,15 L11,19 C11,19.5522847 10.5522847,20 10,20 C9.44771525,20 9,19.5522847 9,19 L9,15 Z M3,8 L17,8 C17.5522847,8 18,8.44771525 18,9 L18,14 C18,14.5522847 17.5522847,15 17,15 L3,15 L3,15 C2.44771525,15 2,14.5522847 2,14 L2,9 C2,8.44771525 2.44771525,8 3,8 L3,8 Z M6,0 L7,0 C7.55228475,-1.01453063e-16 8,0.44771525 8,1 L8,7 L5,7 L5,1 L5,1 C5,0.44771525 5.44771525,1.01453063e-16 6,0 Z M13,0 L14,0 C14.5522847,-1.01453063e-16 15,0.44771525 15,1 L15,7 L12,7 L12,1 L12,1 C12,0.44771525 12.4477153,1.01453063e-16 13,0 Z" id="network-socket" />
</svg>