<svg width="20px" height="20px" viewBox="0 0 20 20" version="1.1" xmlns="http://www.w3.org/2000/svg">
            <path d="M0.324512143,3.68047378 C0.420658284,3.59333543 0.50574489,3.51838432 0.579771959,3.45562046 C3.21854515,1.21833619 6.51730077,-5.68434189e-14 10.0009861,-5.68434189e-14 C13.4915055,-5.68434189e-14 16.7963689,1.22287761 19.4375085,3.46871806 C19.5074066,3.5281545 19.5873446,3.59864326 19.6773226,3.68018435 L19.6773532,3.68015056 C20.0640489,4.03058726 20.0934426,4.62815112 19.7430059,5.01484679 C19.7338654,5.02493309 19.7245079,5.0348207 19.7149402,5.04450271 L19.324661,5.43944228 L19.3246736,5.43945478 C18.970345,5.79801445 18.3969398,5.81528175 18.0216777,5.47869268 C17.9341404,5.40017659 17.8565748,5.33273233 17.7889808,5.2763599 C15.5990543,3.44999152 12.8754844,2.45665073 10.0009861,2.45665073 C7.18722419,2.45665073 4.5176315,3.40845768 2.35213492,5.16170712 C2.24853829,5.24558198 2.12509842,5.35179104 1.98181531,5.4803343 L1.98184693,5.48036954 C1.60657973,5.81703218 1.03310452,5.79979198 0.678738692,5.44119464 L0.286972878,5.04475071 L0.286955917,5.04476747 C-0.0798508532,4.67358062 -0.0763000982,4.07531858 0.294886751,3.70851181 C0.304558981,3.69895372 0.314436412,3.68960553 0.324512143,3.68047378 L0.324512143,3.68047378 Z M11.7964154,11.2730546 C10.8056164,10.6466822 9.55064049,10.5895864 8.51170213,11.1015099 C8.43517343,11.1392184 8.34783037,11.1907915 8.24967298,11.2562291 L8.24965586,11.2562034 C7.87668212,11.50485 7.38033147,11.4572015 7.06147228,11.1421406 L6.73981181,10.8243118 L6.73980452,10.8243192 C6.36860217,10.4575387 6.36501756,9.85928542 6.73179806,9.48808307 C6.77133285,9.44807166 6.81436148,9.41167041 6.86037136,9.37931298 C6.96638376,9.30475747 7.06196565,9.2430419 7.14711705,9.19416626 C9.03647762,8.10970134 11.4284348,8.19083421 13.2425097,9.43824338 C13.6254597,9.70157064 13.7224331,10.2254819 13.4591058,10.6084319 C13.429057,10.6521312 13.3949443,10.692892 13.3572232,10.7301704 L12.9323985,11.1500349 L12.9324004,11.1500369 C12.6284932,11.4503771 12.1575721,11.5013739 11.7964154,11.2730546 Z M10.000834,15 C9.3485386,15 8.81974871,14.4753337 8.81974871,13.828125 C8.81974871,13.1809163 9.3485386,12.65625 10.000834,12.65625 C10.6531294,12.65625 11.1819193,13.1809163 11.1819193,13.828125 C11.1819193,14.4753337 10.6531294,15 10.000834,15 Z M3.87812491,6.47460655 C3.98226006,6.38362221 4.07439106,6.30672251 4.15451791,6.24390747 C7.66133662,3.49475445 12.5782303,3.54446105 16.0334296,6.39378224 C16.060941,6.41646942 16.0902393,6.44121072 16.1213246,6.46800615 L16.1213297,6.4680002 C16.516591,6.80871446 16.56081,7.4053405 16.2200958,7.80060175 C16.2083793,7.81419396 16.196278,7.82744963 16.1838067,7.84035263 L15.7933374,8.2443353 L15.7933372,8.2443351 C15.4502314,8.59931508 14.8916769,8.63031453 14.511397,8.31548203 C14.4989042,8.30513931 14.4867973,8.29524438 14.4750763,8.28579725 C11.9115589,6.21960797 8.30979747,6.17457357 5.7004163,8.15016163 C5.64122449,8.19497633 5.57445501,8.24880527 5.50010787,8.31164843 L5.50012447,8.31166807 C5.12020812,8.63279873 4.55637378,8.6043701 4.210685,8.24665428 L3.82035989,7.84274917 L3.82035935,7.84274969 C3.45772725,7.46750106 3.46795497,6.86933055 3.84320359,6.50669845 C3.85457368,6.49571064 3.86621779,6.48500997 3.87812491,6.47460655 L3.87812491,6.47460655 Z" id="network-wi-fi" />
</svg>