<svg width="20px" height="20px" viewBox="0 0 20 20" version="1.1" xmlns="http://www.w3.org/2000/svg">
             <path d="M1.84821228,0.322492447 C1.84821228,0.322492447 6.07060412,4.60063123 6.08105822,4.61327179 C7.37588138,3.68431087 9.12156397,3.93359452 10.1204644,5.28271594 L10.792497,6.19036749 C10.9722392,6.43312846 10.9242559,6.78072214 10.6831925,6.96386188 L9.82643045,7.61475783 C9.5816669,7.80070866 9.24346342,7.74852052 9.06276725,7.5044711 L8.39073468,6.59681955 C8.07123488,6.16530104 7.57593456,6.13117636 7.19332036,6.51874728 L6.43634361,7.28553056 C6.01044493,7.71694671 6.01086609,8.4107878 6.43626478,8.84169747 L11.7800367,14.2546972 C12.2030834,14.6832244 12.8928841,14.6835201 13.316301,14.2546178 L14.0732776,13.4878348 C14.5803418,12.9742016 14.7211394,11.9576352 14.3747021,11.3259696 L13.7770507,10.2362605 C13.6338441,9.97514933 13.7277295,9.63682179 13.9911386,9.4885876 L14.9273196,8.96174923 C15.1947719,8.81123972 15.5219488,8.90792447 15.6671204,9.1726186 L16.2647719,10.2623277 C16.9915668,11.5875064 16.8413271,13.3861816 15.9576294,14.6146952 L19.4258482,18.1278444 C19.8496531,18.5571396 19.850276,19.2511408 19.4280875,19.6787986 C19.0029557,20.109438 18.3203939,20.1054409 17.8969687,19.6765303 L14.4268815,16.1614886 C13.1585643,17.0738355 11.3868734,16.9538125 10.2511572,15.8033832 L4.90738526,10.3903834 C3.76891695,9.23716642 3.65051048,7.44462146 4.51889567,6.12514612 L0.319332748,1.87117841 C-0.104092404,1.44226784 -0.108038391,0.750863512 0.317093452,0.320224141 C0.739281876,-0.107433678 1.42440743,-0.106802733 1.84821228,0.322492447 Z M16.9595409,2.33144325 C17.1616825,2.1266829 17.4895217,2.12678708 17.6949672,2.33489415 C17.8989904,2.54156039 17.8977861,2.87785242 17.698374,3.07984788 L16.2138942,4.58355894 C16.0117526,4.78831929 15.6839134,4.78821511 15.4784678,4.58010804 C15.2744447,4.37344181 15.275649,4.03714977 15.475061,3.83515432 L16.9595409,2.33144325 Z M19.482384,6.60720044 C19.7682554,6.60720044 20,6.84209458 20,7.13640242 C20,7.42867261 19.7643953,7.66560441 19.482384,7.66560441 L17.3830125,7.66560441 C17.097141,7.66560441 16.8653965,7.43071026 16.8653965,7.13640242 C16.8653965,6.84413224 17.1010012,6.60720044 17.3830125,6.60720044 L19.482384,6.60720044 Z M13.4773003,0.52432167 L13.4773003,2.65089025 C13.4773003,2.93655496 13.2433986,3.17521192 12.9548664,3.17521192 C12.6643225,3.17521192 12.4324324,2.94046512 12.4324324,2.65089025 L12.4324324,0.52432167 C12.4324324,0.238656961 12.6663341,0 12.9548664,0 C13.2454102,0 13.4773003,0.234746808 13.4773003,0.52432167 Z" id="network-asset-failed" />
</svg>