<svg width="20px" height="20px" viewBox="0 0 20 20" version="1.1" xmlns="http://www.w3.org/2000/svg">
            <path d="M1.81574792,1.81818182 L8.63588959,1.81818182 C9.13796664,1.81818182 9.5449805,2.22519568 9.5449805,2.72727273 C9.5449805,3.22934977 9.13796664,3.63636364 8.63588959,3.63636364 L2.72577583,3.63636364 C2.22487989,3.63636364 1.81809152,4.04276793 1.81809152,4.54409303 L1.81809152,17.2740888 C1.81809152,17.7750096 2.22447563,18.1818182 2.72577583,18.1818182 L15.4551394,18.1818182 C15.9560354,18.1818182 16.3628237,17.7754139 16.3628237,17.2740888 L16.3628237,11.3635912 C16.3628237,10.8615391 16.7698174,10.4545455 17.2718695,10.4545455 C17.7739216,10.4545455 18.1809152,10.8615391 18.1809152,11.3635912 L18.1809152,18.1841619 C18.1809152,19.1870216 17.3710233,20 16.3651673,20 L1.81574792,20 C0.812938033,20 0,19.1900678 0,18.1841619 L0,3.63636364 C0,2.63116023 0.809891952,1.81818182 1.81574792,1.81818182 Z M15.9117734,1.55324396 L18.4829431,4.12441365 L10.1251302,12.4822265 L7.55396053,9.91105679 L15.9117734,1.55324396 Z M18.4471204,0.267448417 L19.7326414,1.55296942 C20.0876635,1.9079915 20.0876635,2.48359602 19.7326414,2.83861811 L19.089744,3.48151554 L16.5185743,0.910345852 L17.1614717,0.267448417 L17.1614717,0.267448417 C17.5164938,-0.0875736661 18.0920983,-0.0875736661 18.4471204,0.267448417 L18.4471204,0.267448417 Z M6.91337622,10.5539482 L9.48454591,13.1251179 L7.03070921,13.5303121 L7.03070921,13.5303121 C6.78302476,13.5712114 6.54908139,13.403579 6.50818205,13.1558945 C6.50008459,13.1068567 6.50008459,13.0568227 6.50818205,13.0077849 L6.91337622,10.5539482 Z" id="new-lesson" />
</svg>