<svg width="20px" height="20px" viewBox="0 0 20 20">
            <path d="M1.8158381,1.81818182 L6.81818182,1.81818182 C7.32025886,1.81818182 7.72727273,2.22519568 7.72727273,2.72727273 L7.72727273,2.72727273 C7.72727273,3.22934977 7.32025886,3.63636364 6.81818182,3.63636364 L6.81818182,3.63636364 L2.72591121,3.63636364 C2.22499039,3.63636364 1.81818182,4.04276793 1.81818182,4.54409303 L1.81818182,17.2740888 C1.81818182,17.7750096 2.22458611,18.1818182 2.72591121,18.1818182 L15.455907,18.1818182 C15.9568278,18.1818182 16.3636364,17.7754139 16.3636364,17.2740888 L16.3636364,13.1818182 C16.3636364,12.6797411 16.7706502,12.2727273 17.2727273,12.2727273 C17.7748043,12.2727273 18.1818182,12.6797411 18.1818182,13.1818182 L18.1818182,13.1818182 L18.1818182,18.1841619 C18.1818182,19.1870216 17.371886,20 16.3659801,20 L1.8158381,20 C0.812978407,20 0,19.1900678 0,18.1841619 L0,3.63401991 C0,2.63116023 0.809932175,1.81818182 1.8158381,1.81818182 Z M18.1818182,3.10383051 L11.8305996,9.45504905 C11.4761093,9.80953942 10.9034109,9.81158354 10.5459137,9.45408631 C10.1908916,9.09906422 10.1907464,8.52360486 10.544951,8.16940035 L16.8961695,1.81818182 L12.7250406,1.81818182 C12.2241963,1.81818182 11.8181818,1.41466834 11.8181818,0.909090909 C11.8181818,0.407013864 12.2239195,0 12.7250406,0 L19.0931412,0 C19.3431948,0 19.5696107,0.100581666 19.7336623,0.264229929 C19.8985477,0.430255062 20,0.656669267 20,0.906858769 L20,7.27495941 C20,7.77580368 19.5964865,8.18181818 19.0909091,8.18181818 C18.588832,8.18181818 18.1818182,7.77608055 18.1818182,7.27495941 L18.1818182,3.10383051 L18.1818182,3.10383051 Z" id="new-window" />
</svg>