<svg width="20px" height="20px" viewBox="0 0 20 20" version="1.1" xmlns="http://www.w3.org/2000/svg">
            <path d="M2,8 L2,8 C3.1045695,8 4,8.8954305 4,10 L4,10 C4,11.1045695 3.1045695,12 2,12 C0.8954305,12 1.3527075e-16,11.1045695 0,10 L0,10 L0,10 C-1.3527075e-16,8.8954305 0.8954305,8 2,8 L2,8 Z M10,8 C11.1045695,8 12,8.8954305 12,10 L12,10 C12,11.1045695 11.1045695,12 10,12 C8.8954305,12 8,11.1045695 8,10 L8,10 L8,10 C8,8.8954305 8.8954305,8 10,8 Z M18,8 C19.1045695,8 20,8.8954305 20,10 L20,10 C20,11.1045695 19.1045695,12 18,12 C16.8954305,12 16,11.1045695 16,10 L16,10 L16,10 C16,8.8954305 16.8954305,8 18,8 Z" id="more" />
</svg>