<svg width="20px" height="20px" viewBox="0 0 20 20" version="1.1" xmlns="http://www.w3.org/2000/svg">
        <path d="M16.8961695,1.81818182 L12.7272727,1.81818182 C12.2251957,1.81818182 11.8181818,1.41116795 11.8181818,0.909090909 L11.8181818,0.909090909 L11.8181818,0.909090909 C11.8181818,0.407013864 12.2251957,2.03252359e-16 12.7272727,1.11022302e-16 L12.7272727,0 L19.0909091,0 L19.0909091,1.11022302e-16 C19.3419476,-1.58059724e-16 19.5692203,0.101753466 19.7337334,0.266266563 C19.8982465,0.430779659 20,0.658052386 20,0.909090909 L20,7.27272727 C20,7.77480432 19.5929861,8.18181818 19.0909091,8.18181818 L19.0909091,8.18181818 C18.588832,8.18181818 18.1818182,7.77480432 18.1818182,7.27272727 L18.1818182,3.10383051 L11.8315624,9.45408631 C11.4765403,9.80910839 10.9009358,9.80910839 10.5459137,9.45408631 C10.1908916,9.09906422 10.1908916,8.5234597 10.5459137,8.16843761 L16.8961695,1.81818182 Z M1.8158381,1.81818182 L6.81818182,1.81818182 C7.32025886,1.81818182 7.72727273,2.22519568 7.72727273,2.72727273 L7.72727273,2.72727273 C7.72727273,3.22934977 7.32025886,3.63636364 6.81818182,3.63636364 L2.72591121,3.63636364 C2.22499039,3.63636364 1.81818182,4.04276793 1.81818182,4.54409303 L1.81818182,17.2740888 C1.81818182,17.7750096 2.22458611,18.1818182 2.72591121,18.1818182 L15.455907,18.1818182 C15.9568278,18.1818182 16.3636364,17.7754139 16.3636364,17.2740888 L16.3636364,13.1818182 C16.3636364,12.6797411 16.7706502,12.2727273 17.2727273,12.2727273 L17.2727273,12.2727273 C17.7748043,12.2727273 18.1818182,12.6797411 18.1818182,13.1818182 L18.1818182,13.1818182 L18.1818182,18.1841619 C18.1818182,19.1870216 17.371886,20 16.3659801,20 L1.8158381,20 C0.812978407,20 -5.68434189e-14,19.1900678 -5.68434189e-14,18.1841619 L-5.68434189e-14,3.63401991 C-5.68434189e-14,2.63116023 0.809932175,1.81818182 1.8158381,1.81818182 Z" id="paste" transform="translate(10.000000, 10.000000) rotate(-270.000000) translate(-10.000000, -10.000000) " />
</svg>