<svg width="20px" height="20px" viewBox="0 0 20 20">
            <path d="M1.98765432,0 L6.01234568,0 L6.01234568,-1.11022302e-16 C6.5578121,2.73248644e-16 7,0.442187901 7,0.987654321 L7,19.0123457 L7,19.0123457 C7,19.5578121 6.5578121,20 6.01234568,20 L1.98765432,20 L1.98765432,20 C1.4421879,20 1,19.5578121 1,19.0123457 L1,0.987654321 L1,0.987654321 C1,0.442187901 1.4421879,9.88378975e-16 1.98765432,8.8817842e-16 L1.98765432,0 Z M13.9876543,0 L18.0123457,0 L18.0123457,-1.11022302e-16 C18.5578121,-2.11222858e-16 19,0.442187901 19,0.987654321 L19,19.0123457 C19,19.5578121 18.5578121,20 18.0123457,20 L13.9876543,20 C13.4421879,20 13,19.5578121 13,19.0123457 L13,0.987654321 L13,0.987654321 C13,0.442187901 13.4421879,9.88378975e-16 13.9876543,8.8817842e-16 L13.9876543,0 Z" id="pause" />
</svg>