<svg width="20px" height="20px" viewBox="0 0 20 20" version="1.1" xmlns="http://www.w3.org/2000/svg">
            <path d="M10.03125,0.909090909 L10.03125,0.454545455 L10.03125,0.454545455 C10.03125,0.203506932 10.2347569,1.0162618e-16 10.4857955,5.55111512e-17 L10.4857955,0 L10.5142045,0 L10.5142045,5.55111512e-17 C10.7652431,9.39612275e-18 10.96875,0.203506932 10.96875,0.454545455 L10.96875,0.909090909 L13.78125,0.909090909 L13.78125,0.454545455 L13.78125,0.454545455 C13.78125,0.203506932 13.9847569,1.0162618e-16 14.2357955,5.55111512e-17 L14.2357955,0 L14.2642045,0 L14.2642045,5.55111512e-17 C14.5152431,9.39612275e-18 14.71875,0.203506932 14.71875,0.454545455 L14.71875,0.909090909 L16.1818182,0.909090909 C17.1859723,0.909090909 18,1.72311864 18,2.72727273 L18,18.1818182 C18,19.1859723 17.1859723,20 16.1818182,20 L4.81818182,20 L4.81818182,20 C3.81402773,20 3,19.1859723 3,18.1818182 L3,2.72727273 C3,1.72311864 3.81402773,0.909090909 4.81818182,0.909090909 L4.81818182,0.909090909 L6.28125,0.909090909 L6.28125,0.454545455 L6.28125,0.454545455 C6.28125,0.203506932 6.48475693,1.0162618e-16 6.73579545,5.55111512e-17 L6.73579545,0 L6.76420455,0 L6.76420455,5.55111512e-17 C7.01524307,9.39612275e-18 7.21875,0.203506932 7.21875,0.454545455 L7.21875,0.909090909 L10.03125,0.909090909 Z M10.03125,1.8182847 L7.21875,1.8182847 L7.21875,2.27272727 C7.21875,2.5237658 7.01524307,2.72727273 6.76420455,2.72727273 L6.73579545,2.72727273 C6.48475693,2.72727273 6.28125,2.5237658 6.28125,2.27272727 L6.28125,1.8182847 L4.84659091,1.8182847 L4.84659091,1.8182847 C4.34451386,1.8182847 3.9375,2.22529857 3.9375,2.72737561 L3.9375,18.1818182 C3.9375,18.6838952 4.34451386,19.0909091 4.84659091,19.0909091 L16.1534091,19.0909091 C16.6554861,19.0909091 17.0625,18.6838952 17.0625,18.1818182 L17.0625,18.1818182 L17.0625,2.72737561 C17.0625,2.22529857 16.6554861,1.8182847 16.1534091,1.8182847 L14.71875,1.8182847 L14.71875,2.27272727 C14.71875,2.5237658 14.5152431,2.72727273 14.2642045,2.72727273 L14.2357955,2.72727273 L14.2357955,2.72727273 C13.9847569,2.72727273 13.78125,2.5237658 13.78125,2.27272727 L13.78125,1.8182847 L10.96875,1.8182847 L10.96875,2.27272727 C10.96875,2.5237658 10.7652431,2.72727273 10.5142045,2.72727273 L10.4857955,2.72727273 C10.2347569,2.72727273 10.03125,2.5237658 10.03125,2.27272727 L10.03125,1.8182847 Z M6.26704545,5.90909091 L14.7329545,5.90909091 C14.9839931,5.90909091 15.1875,6.11259784 15.1875,6.36363636 C15.1875,6.61467489 14.9839931,6.81818182 14.7329545,6.81818182 L6.26704545,6.81818182 C6.01600693,6.81818182 5.8125,6.61467489 5.8125,6.36363636 C5.8125,6.11259784 6.01600693,5.90909091 6.26704545,5.90909091 Z M6.26704545,8.63636364 L14.7329545,8.63636364 C14.9839931,8.63636364 15.1875,8.83987057 15.1875,9.09090909 L15.1875,9.09090909 C15.1875,9.34194761 14.9839931,9.54545455 14.7329545,9.54545455 L6.26704545,9.54545455 C6.01600693,9.54545455 5.8125,9.34194761 5.8125,9.09090909 L5.8125,9.09090909 C5.8125,8.83987057 6.01600693,8.63636364 6.26704545,8.63636364 Z M6.26704545,11.3636364 L14.7329545,11.3636364 C14.9839931,11.3636364 15.1875,11.5671433 15.1875,11.8181818 L15.1875,11.8181818 C15.1875,12.0692203 14.9839931,12.2727273 14.7329545,12.2727273 L6.26704545,12.2727273 C6.01600693,12.2727273 5.8125,12.0692203 5.8125,11.8181818 L5.8125,11.8181818 C5.8125,11.5671433 6.01600693,11.3636364 6.26704545,11.3636364 Z M6.26704545,14.0909091 L14.7329545,14.0909091 C14.9839931,14.0909091 15.1875,14.294416 15.1875,14.5454545 L15.1875,14.5454545 C15.1875,14.7964931 14.9839931,15 14.7329545,15 L6.26704545,15 C6.01600693,15 5.8125,14.7964931 5.8125,14.5454545 L5.8125,14.5454545 C5.8125,14.294416 6.01600693,14.0909091 6.26704545,14.0909091 Z" id="Personal-Notes" />
</svg>