<svg width="32px" height="32px" viewBox="0 0 32 32" version="1.1" xmlns="http://www.w3.org/2000/svg">
            <path d="M49.5,59 C51.9764731,59 53.8918171,61.11303 53.9887586,62.9186917 C54.0450708,63.588073 53.8898166,63.9466702 53.5229958,63.9944831 L53.4345893,64 L45.5317746,64 C45.1772582,64 45,63.6395639 45,62.9186917 C45,61.0982422 47.0194782,59 49.5,59 Z M59.5,59 C61.9764731,59 63.8918171,61.11303 63.9887586,62.9186917 C64.0450708,63.588073 63.8898166,63.9466702 63.5229958,63.9944831 L63.4345893,64 L55.5317746,64 C55.1772582,64 55,63.6395639 55,62.9186917 C55,61.0982422 57.0194782,59 59.5,59 Z M49.5,51 C49.6321247,51 49.9105268,51.068869 50.0665748,51.1517852 C50.2226229,51.2347015 50.3533528,51.40563 50.3533528,51.40563 L50.3858084,51.3840537 C50.4277103,51.359395 50.5073977,51.322407 50.6084048,51.322407 C50.7599153,51.322407 50.8499577,51.3568956 50.9235358,51.40563 C51.6121649,51.8617438 52,52.7301197 52,54 C52,56.0290745 51.4055977,58 49.5,58 C47.5944023,58 47,56.0792196 47,54 C47,51.9207804 48.092761,51 49.5,51 Z M59.5,51 C59.6321247,51 59.9105268,51.068869 60.0665748,51.1517852 C60.2226229,51.2347015 60.3533528,51.40563 60.3533528,51.40563 L60.3858084,51.3840537 C60.4277103,51.359395 60.5073977,51.322407 60.6084048,51.322407 C60.7599153,51.322407 60.8499577,51.3568956 60.9235358,51.40563 C61.6121649,51.8617438 62,52.7301197 62,54 C62,56.0290745 61.4055977,58 59.5,58 C57.5944023,58 57,56.0792196 57,54 C57,51.9207804 58.092761,51 59.5,51 Z M39,43 C39.8506171,43 40.6185494,43.3540159 41.1644974,43.9227483 L41.1819805,43.9393398 L45.121,47.879 L49.0606602,43.9393398 C49.6464466,43.3535534 50.5961941,43.3535534 51.1819805,43.9393398 C51.7333089,44.4906682 51.76574,45.3643981 51.2792738,45.9536561 L51.1819805,46.0606602 L46.1819805,51.0606602 L46.1819805,51.0606602 C45.9437141,51.2989266 45.6452331,51.440279 45.3355216,51.4847175 C45.2646008,51.4948997 45.1929606,51.5 45.1213203,51.5 C45.1067679,51.4999632 45.0967321,51.4998331 45.086698,51.4996029 C45.0010162,51.4976163 44.9158355,51.4884014 44.8317909,51.4719497 C44.8171375,51.4690759 44.8030475,51.4661019 44.7889943,51.4629235 C44.6163645,51.4239252 44.4489523,51.3538803 44.295969,51.2528713 C44.2754789,51.2392072 44.2619454,51.2298384 44.2485349,51.2202217 C44.2191044,51.1991347 44.189809,51.1764744 44.1611944,51.1525818 L44.0606602,51.0606602 L42,49 L42,53 C42,54.1045695 41.1045695,55 40,55 L34,55 C32.8954305,55 32,54.1045695 32,53 L32,46 C32,44.3431458 33.3431458,43 35,43 L39,43 Z M62.9678262,33 C63.4998765,33 63.9379043,33.4141766 63.9939433,33.9462467 L64,34.0619582 L64,47.9495818 C63.993325,48.4920763 63.5921412,48.9352835 63.0793217,48.9919667 L62.9678262,48.9980922 L53.5599845,48.9980922 C53.4719119,48.9980922 53.3193183,48.9620361 53.2344738,48.9391342 L53.0034117,48.8051196 L55.0097917,46.997465 L62.0102206,46.997465 L61.9356525,35.1003869 L48.0676139,35.1003869 L47.9973419,40.4098596 L46,42.4045403 L46,34.0619582 C46,33.7797276 46.1091935,33.5091052 46.3034706,33.3098535 C46.4699939,33.1390663 46.6872847,33.0327574 46.9187158,33.006428 L47.0354401,33 L62.9678262,33 Z M37.4886164,32 C37.6684527,32 38.0587726,32.0905314 38.2711713,32.1995286 C38.48357,32.3085258 38.661508,32.5332193 38.661508,32.5332193 L38.7056836,32.5048562 C38.7627168,32.4724412 38.8711803,32.4238187 39.0086621,32.4238187 C39.2148848,32.4238187 39.3374425,32.4691556 39.4375904,32.5332193 C40.3748911,33.1328017 41,34.2463382 41,35.9156541 C41,38.5829656 40.0823466,41 37.4886164,41 C34.8948861,41 34,38.6488835 34,35.9156541 C34,33.1824247 35.5732078,32 37.4886164,32 Z" transform="translate(-32.000000, -32.000000)" fill="#284155"></path>
</svg>