<svg width="20px" height="20px" viewBox="0 0 20 20">
   <path d="M6.52085878,3 L13.4793738,3 C13.7670331,3 14.0002326,3.22386059 13.9999998,3.5 C13.9999998,3.77613941 13.7668003,4 13.4793738,4 L6.52085878,4 C6.23296677,4 6,3.77613941 6,3.5 C6,3.22386059 6.23296677,3 6.52085878,3 Z M5,6.5 C5.00092607,6.76845965 4.76309887,7 4.5,7 C4.23669842,7 4,6.76824959 4,6.5 L4,0.5 C4,0.148367898 4.23691128,0 4.5,0 L15.5,0 C15.7749356,0 16,0.148367898 16,0.5 C16,0.5 16,6.18746948 16,6.5 C16,6.81253052 15.7198335,7 15.5,7 C15.2491733,7 15.0084771,6.76845965 15,6.5 L15,1 L5,1 L5,6.5 Z M6.5,5 L13.5,5 C13.7670331,5 14.0002326,5.22386059 14,5.5 C13.9999998,5.77613941 13.7668003,6 13.5,6 L6.5,6 C6.23296677,6 6,5.77613941 6,5.5 C6,5.22386059 6.23296677,5 6.5,5 Z M0.508996856,8 L19.5180071,8 C19.7807062,8 19.9806864,8.23218026 19.9940574,8.50432882 C20.0074283,8.77647738 19.9940574,16.5259456 19.9940574,16.5259456 C19.9940574,16.7855896 19.7807075,16.9964583 19.5180084,16.9964583 L17.0081502,16.9964583 L16.9902767,19.5294869 C16.9902767,19.7779952 16.7950298,19.9818222 16.5144404,19.9999997 L3.48508006,20 C3.22195558,20 3.00903108,19.7891312 3.00903108,19.5294873 L3.02690419,16.9964583 L0.476049036,16.996458 C0.212924558,16.996458 6.10601596e-08,16.7855893 6.10601596e-08,16.5259453 L0,8.50432882 C0,8.2444746 0.245872378,8 0.508996856,8 Z M15.9959262,19.0005893 L15.9959262,17.0004868 L3.99898156,17.0004868 L3.99898156,19.0005893 L15.9959262,19.0005893 Z M16.5,11 L17.5,11 C17.8129429,11 18,10.7760894 18,10.5 C18,10.2239106 17.8129429,10 17.5,10 L16.5,10 C16.1870571,10 16,10.2239106 16,10.5 C16,10.7760894 16.1870571,11 16.5,11 Z" id="Combined-Shape" />
</svg>