<svg width="19px" height="20px" viewBox="0 0 20 20">
            <path d="M13.9314885,4.28571429 C12.6840076,3.38662816 11.1536832,2.85714286 9.5,2.85714286 C5.3026359,2.85714286 1.9,6.26830667 1.9,10.4761905 C1.9,14.6840743 5.3026359,18.0952381 9.5,18.0952381 C13.6973641,18.0952381 17.1,14.6840743 17.1,10.4761905 C17.1,10.2918217 17.0934678,10.1089825 17.0806226,9.92789265 C17.0611049,9.65273306 17.014238,9.45762093 17.014238,9.45762093 C16.9244493,8.94039396 17.233032,8.33948592 17.7090546,8.1169566 L17.7294948,8.10740126 C18.2042998,7.88544116 18.6828269,8.12190412 18.7955954,8.63682744 C18.7955954,8.63682744 18.9067494,9.07977359 18.9476397,9.47027481 C18.9822537,9.8008376 19,10.1364364 19,10.4761905 C19,15.7360452 14.7467051,20 9.5,20 C4.25329488,20 0,15.7360452 0,10.4761905 C0,5.21633572 4.25329488,0.952380952 9.5,0.952380952 C11.6386512,0.952380952 13.612245,1.66084728 15.2,2.85644536 L15.2,0.953695299 C15.2,0.425496499 15.6253295,0 16.15,0 C16.6783284,0 17.1,0.426983929 17.1,0.953695299 L17.1,5.24213468 C17.1,5.76588923 16.6725236,6.19047619 16.1540293,6.19047619 L11.8763111,6.19047619 C11.3494328,6.19047619 10.925,5.76408071 10.925,5.23809524 C10.925,4.70844269 11.3509165,4.28571429 11.8763111,4.28571429 L13.9314885,4.28571429 L13.9314885,4.28571429 Z" id="refresh" />
</svg>