<svg width="20px" height="20px" viewBox="0 0 20 20" version="1.1" xmlns="http://www.w3.org/2000/svg">
      <path d="M13.9200087,4.81764753 C14.0988892,4.98704958 14.3204964,5.2871589 14.500734,5.53862705 C15.4726591,6.89466053 16.0459503,8.56372548 16.0459503,10.3686316 C16.0459503,12.5082466 15.2388691,14.4464439 13.9200087,15.9196157 C13.0164336,16.9289123 11.4790895,15.4705041 12.4855386,14.4643425 C13.2432807,13.7068168 14.0199304,12.083181 14.0199304,10.3686316 C14.0199304,9.11417102 13.6506819,7.94720378 13.0164336,6.97349063 C12.8568195,6.72844714 12.7457627,6.58640382 12.4889037,6.27676338 C11.7086924,5.33622799 13.0716248,4.01421728 13.9200087,4.81764753 Z M15.4956279,3.7519021 C14.6173887,2.86627677 16.0123554,1.36008042 16.9312163,2.29549435 C18.8403084,4.47368554 20,7.34290653 20,10.4869161 C20,13.6309257 18.8465069,16.5683471 16.9312163,18.6783378 C16.0863031,19.6091413 14.5427366,18.3331714 15.4956279,17.2219301 C16.8494995,15.6430741 17.8884591,13.5955072 17.9739801,10.4869161 C18.0429505,7.97991923 16.7226495,4.98924319 15.4956279,3.7519021 Z M1.57047973,5.97587632 L8.91310873,9.78079698 C9.4405395,10.0541095 9.64654307,10.7032401 9.37323057,11.2306709 C9.27104154,11.4278725 9.11031026,11.5886037 8.91310873,11.6907928 L1.57047973,15.4957134 C1.04304896,15.7690259 0.393918283,15.5630224 0.120605788,15.0355916 C0.0413616174,14.8826684 -2.00951815e-16,14.7129512 -2.22044605e-16,14.5407155 L0,6.93087421 L-4.4408921e-16,6.93087421 C-5.16838068e-16,6.3368347 0.481564172,5.85527053 1.07560368,5.85527053 C1.24783938,5.85527053 1.41755656,5.89663215 1.57047973,5.97587632 L1.57047973,5.97587632 Z" id="remote-teach" />
</svg>