<svg xmlns="http://www.w3.org/2000/svg" width="16" height="16" viewBox="0 0 16 16">
    <path fill="#FFF" fill-rule="evenodd" d="M0 8c0-4.418 3.59-8 8-8 4.418 0 8 3.59 8 8 0 4.418-3.59 8-8 8-4.418 0-8-3.59-8-8zm5.756-2.891a.31.31 0 0 0-.437 0l-.22.219a.309.309 0 0 0 0 .436l2.235 2.231-2.244 2.24a.309.309 0 0 0 0 .437l.22.219c.12.12.317.12.437 0l2.244-2.24 2.262 2.26c.12.119.316.12.437-.001l.22-.22a.309.309 0 0 0 0-.436L8.647 7.995l2.253-2.25a.309.309 0 0 0 0-.436l-.22-.219a.31.31 0 0 0-.436 0L7.99 7.34 5.756 5.109z" opacity=".8"/>
</svg>
