<svg width="20px" height="20px" viewBox="0 0 20 20" version="1.1" xmlns="http://www.w3.org/2000/svg" xmlns:xlink="http://www.w3.org/1999/xlink">
            <path d="M5,1 L18,1 C18.5522847,1 19,1.44771525 19,2 L19,4 C19,4.55228475 18.5522847,5 18,5 L5,5 C4.44771525,5 4,4.55228475 4,4 L4,2 C4,1.44771525 4.44771525,1 5,1 Z M5,15 L14,15 C14.5522847,15 15,15.4477153 15,16 L15,18 C15,18.5522847 14.5522847,19 14,19 L5,19 C4.44771525,19 4,18.5522847 4,18 L4,16 C4,15.4477153 4.44771525,15 5,15 Z M5,8 L9,8 C9.55228475,8 10,8.44771525 10,9 L10,11 C10,11.5522847 9.55228475,12 9,12 L5,12 C4.44771525,12 4,11.5522847 4,11 L4,9 C4,8.44771525 4.44771525,8 5,8 Z M1,0 L2,0 L2,0 C2.55228475,-1.01453063e-16 3,0.44771525 3,1 L3,19 C3,19.5522847 2.55228475,20 2,20 L1,20 C0.44771525,20 6.76353751e-17,19.5522847 0,19 L0,1 L0,1 C-6.76353751e-17,0.44771525 0.44771525,1.01453063e-16 1,0 L1,0 Z" id="Results" />
</svg>