<svg width="20px" height="20px" viewBox="0 0 20 20" version="1.1" xmlns="http://www.w3.org/2000/svg">
   <path d="M13.5259046,15.490625 L8.05818257,15.490625 L8.05818257,14.825 C8.5392705,14.7937498 8.93862917,14.7312505 9.25627056,14.6375 C9.57391195,14.5437495 9.73273026,14.4281257 9.73273026,14.290625 C9.73273026,14.2343747 9.72656256,14.1656254 9.71422697,14.084375 C9.70189139,14.0031246 9.68338828,13.9312503 9.65871711,13.86875 L8.56702303,10.8875 L3.96895559,10.8875 C3.79625736,11.3250022 3.65594215,11.7062484 3.54800576,12.03125 C3.44006936,12.3562516 3.34292806,12.6562486 3.25657895,12.93125 C3.17639763,13.2000013 3.12088831,13.4187492 3.09004934,13.5875 C3.05921037,13.7562508 3.04379112,13.8937495 3.04379112,14 C3.04379112,14.2500012 3.23807372,14.4437493 3.62664474,14.58125 C4.01521576,14.7187507 4.45312256,14.7999999 4.94037829,14.825 L4.94037829,15.490625 L0,15.490625 L0,14.825 C0.160362644,14.8124999 0.360812942,14.7765628 0.601356908,14.7171875 C0.841900874,14.6578122 1.03926732,14.5781255 1.19346217,14.478125 C1.44017393,14.3093742 1.63137268,14.1328134 1.76706414,13.9484375 C1.90275561,13.7640616 2.03536119,13.5093766 2.16488487,13.184375 C2.82483883,11.5156167 3.5526276,9.64063541 4.34827303,7.559375 C5.14391845,5.47811459 5.85320412,3.62500812 6.47615132,2 L7.21628289,2 L11.5923109,13.475 C11.6848278,13.7187512 11.7896787,13.9156243 11.9068668,14.065625 C12.0240549,14.2156257 12.187499,14.3624993 12.3972039,14.50625 C12.5390632,14.5937504 12.7240943,14.6671872 12.9523026,14.7265625 C13.180511,14.7859378 13.3717098,14.81875 13.5259046,14.825 L13.5259046,15.490625 Z M8.38096217,10.053125 L6.39185855,4.896875 L4.43976151,10.053125 L8.38096217,10.053125 Z M19.8982319,15.3875 C19.7210792,15.4524309 19.5656017,15.5049477 19.4317948,15.5450521 C19.297988,15.5851565 19.1462796,15.6052083 18.9766653,15.6052083 C18.6826671,15.6052083 18.4480375,15.5355042 18.2727693,15.3960937 C18.0975012,15.2566833 17.9853689,15.0532999 17.9363692,14.7859375 L17.9024465,14.7859375 C17.6574481,15.0609389 17.3945498,15.2710062 17.1137438,15.4161458 C16.8329379,15.5612854 16.4946566,15.6338542 16.0988898,15.6338542 C15.6805078,15.6338542 15.3365728,15.5039944 15.0670744,15.2442708 C14.7975761,14.9845473 14.6628289,14.6446202 14.6628289,14.2244792 C14.6628289,14.0067697 14.6929822,13.81198 14.7532895,13.6401042 C14.8135968,13.4682283 14.9040564,13.3135424 15.0246711,13.1760417 C15.1189012,13.0614578 15.2432832,12.9592886 15.3978207,12.8695312 C15.5523582,12.7797739 15.6974705,12.70816 15.833162,12.6546875 C16.0027763,12.5897566 16.3467114,12.4694453 16.8649774,12.29375 C17.3832434,12.1180547 17.7328322,11.9805561 17.9137541,11.88125 L17.9137541,11.3140625 C17.9137541,11.2644095 17.9033889,11.1689243 17.8826583,11.0276042 C17.8619277,10.886284 17.8176401,10.7526048 17.7497944,10.6265625 C17.6744103,10.4852423 17.5679317,10.3620665 17.4303557,10.2570312 C17.2927796,10.151996 17.097726,10.0994792 16.8451891,10.0994792 C16.6718056,10.0994792 16.5106744,10.1290796 16.3617907,10.1882812 C16.212907,10.2474829 16.1083131,10.3095483 16.0480058,10.3744792 C16.0480058,10.4508684 16.0659092,10.5635409 16.1017167,10.7125 C16.1375242,10.8614591 16.1554276,10.9989577 16.1554276,11.125 C16.1554276,11.2586812 16.0960635,11.3809022 15.9773335,11.4916667 C15.8586034,11.6024311 15.6937031,11.6578125 15.4826275,11.6578125 C15.2941671,11.6578125 15.1556508,11.590018 15.0670744,11.4544271 C14.978498,11.3188361 14.9342105,11.1670147 14.9342105,10.9989583 C14.9342105,10.823263 14.9954592,10.6552091 15.1179585,10.4947917 C15.2404577,10.3343742 15.3997043,10.1911465 15.5957031,10.0651042 C15.7653175,9.95815919 15.9707362,9.86744829 16.2119655,9.79296875 C16.4531947,9.71848921 16.6887667,9.68125 16.9186883,9.68125 C17.2353017,9.68125 17.5113921,9.70321159 17.7469675,9.74713542 C17.982543,9.79105925 18.1964423,9.88558955 18.3886719,10.0307292 C18.5809015,10.1720493 18.7269561,10.3639745 18.82684,10.6065104 C18.926724,10.8490464 18.9766653,11.1612828 18.9766653,11.5432292 C18.9766653,12.0894125 18.9710116,12.5735222 18.9597039,12.9955729 C18.9483963,13.4176236 18.9427426,13.8788169 18.9427426,14.3791667 C18.9427426,14.5281257 18.9681844,14.6465273 19.0190687,14.734375 C19.069953,14.8222227 19.1481628,14.8967011 19.2537007,14.9578125 C19.3102388,14.9921877 19.3997561,15.0112847 19.5222553,15.0151042 C19.6447546,15.0189236 19.7700789,15.0208333 19.8982319,15.0208333 L19.8982319,15.3875 Z M17.9250617,12.3625 C17.604679,12.4579866 17.3238773,12.551562 17.082648,12.6432292 C16.8414187,12.7348963 16.6171543,12.8494785 16.4098479,12.9869792 C16.2213875,13.1168409 16.072506,13.270572 15.963199,13.4481771 C15.853892,13.6257821 15.7992393,13.8368043 15.7992393,14.08125 C15.7992393,14.3982655 15.8812183,14.6312493 16.0451789,14.7802083 C16.2091394,14.9291674 16.417385,15.0036458 16.6699219,15.0036458 C16.9375356,15.0036458 17.1731075,14.9377611 17.3766447,14.8059896 C17.5801819,14.6742181 17.7516783,14.5185773 17.891139,14.3390625 L17.9250617,12.3625 Z M0,16.9333333 L20,16.9333333 L20,18 L0,18 L0,16.9333333 Z" id="Rich-Text" />
</svg>