<svg width="20px" height="20px" viewBox="0 0 20 20">
            <path d="M9.37192232,5.61182051 L0.269483325,14.4735354 L0.269483325,14.4735354 C-0.0793226167,14.8131168 -0.0868006002,15.371165 0.252780782,15.7199709 C0.258273444,15.7256128 0.263841458,15.7311808 0.269483325,15.7366735 L0.289768298,15.756422 L0.289768298,15.756422 C0.63953742,16.0969411 1.1968798,16.0969411 1.54664893,15.756422 L10.0003626,7.52627611 L18.4540763,15.756422 L18.4540763,15.756422 C18.8038455,16.0969411 19.3611878,16.0969411 19.710957,15.756422 L19.7312419,15.7366735 L19.7312419,15.7366735 C20.0800479,15.3970921 20.0875259,14.8390439 19.7479445,14.4902379 C19.7424518,14.4845961 19.7368838,14.4790281 19.7312419,14.4735354 L10.6490879,5.63156903 L10.6288029,5.61182051 L10.6288029,5.61182051 C10.2790338,5.27130142 9.72169144,5.27130142 9.37192232,5.61182051 Z" id="right-chevron" transform="translate(10.000000, 10.500000) scale(-1, -1) rotate(-90.000000) translate(-10.000000, -10.500000) " />
</svg>