<svg width="20px" height="20px" viewBox="0 0 20 20" version="1.1" xmlns="http://www.w3.org/2000/svg">
        <path d="M10,20 C4.4771525,20 0,15.5228475 0,10 C0,4.4771525 4.4771525,0 10,0 C15.5228475,0 20,4.4771525 20,10 C20,15.5228475 15.5228475,20 10,20 Z M10,17.2727273 C14.0166164,17.2727273 17.2727273,14.0166164 17.2727273,10 C17.2727273,5.98338364 14.0166164,2.72727273 10,2.72727273 C5.98338364,2.72727273 2.72727273,5.98338364 2.72727273,10 C2.72727273,14.0166164 5.98338364,17.2727273 10,17.2727273 Z" id="internet" ></path>
            <path d="M11.2399646,11.2399646 L8.66866719,8.66866719 L14.4540863,5.45454545 L11.2399646,11.2399646 Z M5.45454545,14.4540863 L11.2399646,11.2399646 L8.66866719,8.66866719 L5.45454545,14.4540863 L5.45454545,14.4540863 Z" id="Rectangle-302"></path>
            <circle id="Oval-18" cx="10" cy="10" r="1"></circle>
</svg>