<svg width="20px" height="20px" viewBox="0 0 20 20">
            <path d="M14,9.5 L18.4997903,9.5 C18.7760485,9.5 19,9.71930742 19,9.99937305 L19,19 L19.4956124,19 C19.774178,19 20,19.2219324 20,19.5 L20,20 L0,20 L0,19.5 C0,19.2238576 0.224609375,19 0.50438758,19 L1,19 L1,9.99937305 C1,9.72357693 1.22758651,9.5 1.50020972,9.5 L6,9.5 L9.64840971,5.85159029 C9.84258767,5.65741233 10.1551229,5.65512288 10.3515903,5.85159029 L14,9.5 L14,9.5 Z M10,13 C8.8954305,13 8,13.8954305 8,15 L8,19 L12,19 L12,15 C12,13.8954305 11.1045695,13 10,13 Z M4,16.5 L4,18 L5.5,18 L5.5,16.5 L4,16.5 Z M14.5,16.5 L14.5,18 L16,18 L16,16.5 L14.5,16.5 Z M4,13 L4,14.5 L5.5,14.5 L5.5,13 L4,13 Z M14.5,13 L14.5,14.5 L16,14.5 L16,13 L14.5,13 Z M10,11 C10.8284271,11 11.5,10.3284271 11.5,9.5 C11.5,8.67157288 10.8284271,8 10,8 C9.17157288,8 8.5,8.67157288 8.5,9.5 C8.5,10.3284271 9.17157288,11 10,11 Z M15.9128134,5.5 L19.0001925,5.5 C19.5523709,5.5 20,5.94913031 20,6.49895656 L20,7.50104344 C20,8.05275191 19.5499119,8.5 19.0039915,8.5 L14.5,8.5 L14.5029508,8.48229496 L14.5,8.48718046 L10.3456354,4.18754864 C10.1549002,3.99014389 9.84525375,3.98998457 9.65436458,4.18754864 L5.5,8.48718046 L5.49704916,8.48229496 L5.5,8.5 L0.996008508,8.5 C0.450088084,8.5 0,8.05275191 0,7.50104344 L0,6.49895656 C0,5.94913031 0.447629061,5.5 0.999807492,5.5 L4.08718657,5.5 L9.29373053,0.293456033 C9.68621622,-0.099029656 10.3162076,-0.0966058228 10.7062695,0.293456033 L15.9128134,5.5 Z" id="school" />
</svg>