<svg width="20px" height="20px" viewBox="0 0 20 20">
            <path d="M13,2.37301964 L13,1.58603287 C13,0.710091102 12.2899089,5.6682511e-14 11.4139671,5.68434189e-14 L11.4139671,5.68434189e-14 L9.58603287,5.68434189e-14 L9.58603287,5.68434189e-14 C8.7100911,5.70043268e-14 8,0.710091102 8,1.58603287 L8,1.58603287 L8,2.37301964 L13,2.37301964 Z M13,3.16603607 L13,15.0673122 L8,15.0673122 L8,3.16603607 L13,3.16603607 Z M10.8433671,19.6081719 L10.8433671,19.6081719 C10.8085734,19.668423 10.7585383,19.7184581 10.6982872,19.7532519 C10.5086507,19.8627628 10.2661439,19.7978083 10.1566329,19.6081719 L10.1566329,19.6081719 L8,15.8736042 L13,15.8736042 L10.8433671,19.6081719 Z" id="scribble" transform="translate(10.500000, 10.000000) rotate(45.000000) translate(-10.500000, -10.000000) " />
</svg>