<svg width="20px" height="20px" viewBox="0 0 20 20">
            <path d="M14.5538078,13.1052632 C17.7061453,13.1052632 19.4878879,14.4551366 19.7951605,15.0504051 C19.8609195,15.1777977 19.9114327,15.2969141 19.9467003,15.4077541 C19.9608786,15.4523142 19.9680951,15.4987955 19.9680951,15.5455569 C19.9680951,15.7965628 19.7646146,16.0000434 19.5136086,16.0000434 L19.5136086,16 L9.55937241,16 C9.51067669,16 9.46229753,15.9921726 9.41608619,15.9768173 C9.17793218,15.8976825 9.04902164,15.6404691 9.12815643,15.4023151 L9.12811423,15.4023011 C9.16442998,15.2930098 9.21492882,15.1757112 9.27961076,15.0504051 C9.60395402,14.4693097 11.4014703,13.1052632 14.5538078,13.1052632 Z M14.5260412,12.5263158 C12.6026141,12.5263158 11.9389953,10.5601775 11.9389953,8.27449437 C11.9389953,5.98881129 13.1056357,5 14.5260412,5 C14.659402,5 14.9488507,5.07570757 15.1063588,5.16685727 C15.2638668,5.25800697 15.3958199,5.44590852 15.3958199,5.44590852 C15.3958199,5.44590852 15.5003301,5.35442152 15.6532582,5.35442152 C15.8061863,5.35442152 15.8970712,5.39233477 15.9713377,5.4459085 C16.6664098,5.94731374 17.1299705,6.87851677 17.1299705,8.27449437 C17.1299705,10.5050531 16.4494682,12.5263158 14.5260412,12.5263158 Z M4.08998832,9.58333333 L7.5401499,9.58333333 L5.83542102,7.85129638 C5.65828782,7.67117005 5.65873893,7.37902921 5.83621002,7.19855928 C6.01491841,7.01683114 6.30106535,7.01773013 6.47810068,7.19775694 L8.95627907,9.71591633 C9.04471442,9.80584603 9.08888518,9.92369642 9.08886157,10.0416309 C9.08914566,10.1604317 9.04466656,10.2779701 8.95627907,10.3678511 L6.47810068,12.8860105 C6.30096748,13.0661368 6.01368111,13.0656781 5.83621002,12.8852082 C5.65750164,12.70348 5.65838569,12.4124979 5.83542102,12.232471 L7.54057716,10.5 L4.08998832,10.5 L2.69506298,10.5 C1.70517018,10.4981331 0.894096723,11.3214528 0.894096723,12.3342668 C0.894096723,12.5891039 0.696118163,12.7916667 0.447048361,12.7916667 C0.19797856,12.7916667 0,12.5891039 0,12.3342668 C-8.07253191e-16,10.818313 1.20703058,9.58333333 2.69506298,9.58333333 L4.08998832,9.58333333 Z" id="send" />
</svg>