<svg width="20px" height="20px" viewBox="0 0 20 20">
            <path d="M14.5538078,13.1052632 C17.7061453,13.1052632 19.4878879,14.4551366 19.7951605,15.0504051 C19.8609195,15.1777977 19.9114327,15.2969141 19.9467003,15.4077541 C19.9608786,15.4523142 19.9680951,15.4987955 19.9680951,15.5455569 C19.9680951,15.7965628 19.7646146,16.0000434 19.5136086,16.0000434 L19.5136086,16 L9.55937241,16 C9.51067669,16 9.46229753,15.9921726 9.41608619,15.9768173 C9.17793218,15.8976825 9.04902164,15.6404691 9.12815643,15.4023151 L9.12811423,15.4023011 C9.16442998,15.2930098 9.21492882,15.1757112 9.27961076,15.0504051 C9.60395402,14.4693097 11.4014703,13.1052632 14.5538078,13.1052632 Z M14.5260412,12.5263158 C12.6026141,12.5263158 11.9389953,10.5601775 11.9389953,8.27449437 C11.9389953,5.98881129 13.1056357,5 14.5260412,5 C14.659402,5 14.9488507,5.07570757 15.1063588,5.16685727 C15.2638668,5.25800697 15.3958199,5.44590852 15.3958199,5.44590852 C15.3958199,5.44590852 15.5003301,5.35442152 15.6532582,5.35442152 C15.8061863,5.35442152 15.8970712,5.39233477 15.9713377,5.4459085 C16.6664098,5.94731374 17.1299705,6.87851677 17.1299705,8.27449437 C17.1299705,10.5050531 16.4494682,12.5263158 14.5260412,12.5263158 Z M2.70010955,13.5242722 L8.31354685,7.88457557 C8.49119558,7.70609581 8.77760733,7.70447451 8.95602448,7.88372628 C9.13320634,8.061737 9.13335992,8.3501951 8.95517915,8.52920939 L3.02177103,14.4903737 C2.9329365,14.5796238 2.81690498,14.6246491 2.70037691,14.6249996 C2.58441906,14.6251551 2.46850338,14.5808502 2.38008112,14.4920144 L0.132792632,12.2342132 C-0.0439541906,12.0566395 -0.0448367971,11.7696225 0.13358035,11.5903708 C0.310762217,11.41236 0.597580405,11.4119076 0.774424933,11.5895794 L2.70010955,13.5242722 Z" id="sent" />
</svg>