<svg width="20px" height="20px" viewBox="0 0 20 20">
            <path d="M5.95497236,17.1135797 L5.95497236,17.1135797 L4.95127745,17.8305047 C4.54441117,18.1211234 3.92958267,18.0717183 3.57236678,17.7145024 L2.28549759,16.4276332 C1.93081254,16.0729482 1.88041086,15.4534408 2.16949533,15.0487226 L2.88642027,14.0450276 C2.55365044,13.461078 2.29071063,12.8321719 2.10896778,12.1696764 L0.893011093,11.967017 C0.399814685,11.8848176 -9.27999771e-17,11.4151335 0,10.9099539 L3.3431165e-16,9.09004607 C4.26454151e-16,8.58844566 0.402418483,8.11474843 0.893011093,8.032983 L2.10896778,7.83032355 C2.29071063,7.16782809 2.55365044,6.53892204 2.88642027,5.95497236 L2.16949533,4.95127745 C1.87887656,4.54441117 1.92828171,3.92958267 2.28549759,3.57236678 L3.57236678,2.28549759 C3.92705184,1.93081254 4.54655919,1.88041086 4.95127745,2.16949533 L5.95497236,2.88642027 C6.53892204,2.55365044 7.16782809,2.29071063 7.83032355,2.10896778 L8.032983,0.893011093 C8.1151824,0.399814685 8.58486652,0 9.09004607,0 L10.9099539,0 C11.4115543,0 11.8852516,0.402418483 11.967017,0.893011093 L12.1696764,2.10896778 C12.8321719,2.29071063 13.461078,2.55365044 14.0450276,2.88642027 L15.0487226,2.16949533 C15.4555888,1.87887656 16.0704173,1.92828171 16.4276332,2.28549759 L17.7145024,3.57236678 C18.0691875,3.92705184 18.1195891,4.54655919 17.8305047,4.95127745 L17.1135797,5.95497236 C17.4463496,6.53892204 17.7092894,7.16782809 17.8910322,7.83032355 L19.1069889,8.032983 C19.6001853,8.1151824 20,8.58486652 20,9.09004607 L20,10.9099539 C20,11.4115543 19.5975815,11.8852516 19.1069889,11.967017 L17.8910322,12.1696764 C17.7092894,12.8321719 17.4463496,13.461078 17.1135797,14.0450276 L17.8305047,15.0487226 C18.1211234,15.4555888 18.0717183,16.0704173 17.7145024,16.4276332 L16.4276332,17.7145024 C16.0729482,18.0691875 15.4534408,18.1195891 15.0487226,17.8305047 L14.0450276,17.1135797 C13.461078,17.4463496 12.8321719,17.7092894 12.1696764,17.8910322 L11.967017,19.1069889 C11.8852516,19.5975815 11.4115543,20 10.9099539,20 L9.09004607,20 C8.58486652,20 8.1151824,19.6001853 8.032983,19.1069889 L7.83032355,17.8910322 C7.16782809,17.7092894 6.53892204,17.4463496 5.95497236,17.1135797 Z M10,16.3636364 C13.5145393,16.3636364 16.3636364,13.5145393 16.3636364,10 C16.3636364,6.48546068 13.5145393,3.63636364 10,3.63636364 C6.48546068,3.63636364 3.63636364,6.48546068 3.63636364,10 C3.63636364,13.5145393 6.48546068,16.3636364 10,16.3636364 Z" id="settings" />
</svg>