<svg width="20px" height="20px" viewBox="0 0 20 20">
    <path d="M4.87501197,6.36363636 L6.77840909,6.36363636 C7.28048614,6.36363636 7.6875,6.77065023 7.6875,7.27272727 L7.6875,7.27272727 L7.6875,7.27272727 C7.6875,7.77480432 7.28048614,8.18181818 6.77840909,8.18181818 L5.81331718,8.18181818 C5.29184143,8.18181818 4.875,8.58695879 4.875,9.08672506 L4.875,17.2769113 C4.875,17.7735398 5.29509891,18.1818182 5.81331718,18.1818182 L15.1866828,18.1818182 C15.7081586,18.1818182 16.125,17.7766776 16.125,17.2769113 L16.125,9.08672506 C16.125,8.59009654 15.7049011,8.18181818 15.1866828,8.18181818 L14.2215909,8.18181818 C13.7195139,8.18181818 13.3125,7.77480432 13.3125,7.27272727 L13.3125,7.27272727 L13.3125,7.27272727 C13.3125,6.77065023 13.7195139,6.36363636 14.2215909,6.36363636 L14.2215909,6.36363636 L16.124988,6.36363636 C17.1605285,6.36363636 18,7.17914557 18,8.1803813 L18,18.1832551 C18,19.1866156 17.1579259,20 16.124988,20 L4.87501197,20 C3.83947145,20 3,19.1844908 3,18.1832551 L3,8.1803813 C3,7.17702078 3.84207411,6.36363636 4.87501197,6.36363636 Z M11.4375,3.14543935 L11.4375,10.9068425 C11.4375,11.4101613 11.0213767,11.8181818 10.5,11.8181818 C9.98223305,11.8181818 9.5625,11.4104426 9.5625,10.9068425 L9.5625,3.14636067 L8.28051983,4.44612106 C7.93131664,4.80016746 7.36345069,4.8003048 7.01328517,4.44528272 C6.66067836,4.08778549 6.66351141,3.51425892 7.01416018,3.15874689 L9.8655486,0.267811606 C10.2171876,-0.0887043951 10.7835053,-0.0889232207 11.1326663,0.265080428 L11.1344851,0.266924467 L13.9901543,3.16219985 C14.3362846,3.51313079 14.3377891,4.09026064 13.9876235,4.44528272 C13.6350167,4.80277995 13.0700977,4.80068014 12.7203889,4.44612106 L11.4375,3.14543935 L11.4375,3.14543935 Z" id="share" />
</svg>