<svg width="40" height="34" viewBox="0 0 40 34">
    <path d="M19.422 9.045l.087 1.47-1.445-.18c-5.26-.69-9.856-3.031-13.758-6.963L2.4 1.422l-.491 1.44c-1.04 3.211-.376 6.603 1.791 8.884 1.157 1.26.896 1.44-1.098.69-.693-.24-1.3-.42-1.358-.33-.203.21.491 2.941 1.04 4.021.752 1.501 2.284 2.972 3.96 3.842l1.416.69-1.676.03c-1.619 0-1.677.03-1.503.66.578 1.951 2.861 4.022 5.405 4.923l1.791.63-1.56.96a15.932 15.932 0 0 1-7.746 2.221c-1.3.03-2.37.15-2.37.24 0 .3 3.526 1.981 5.578 2.641 6.156 1.951 13.469 1.11 18.96-2.22 3.902-2.372 7.804-7.084 9.624-11.645.983-2.431 1.966-6.873 1.966-9.004 0-1.38.086-1.56 1.705-3.211.954-.96 1.85-2.011 2.023-2.311.29-.57.26-.57-1.214-.06-2.456.9-2.803.78-1.59-.57.897-.96 1.966-2.702 1.966-3.212 0-.09-.434.06-.925.33-.52.3-1.676.75-2.543 1.02l-1.561.51-1.416-.99c-.78-.54-1.879-1.14-2.457-1.32-1.474-.42-3.728-.36-5.058.12-3.613 1.35-5.896 4.832-5.636 8.644z"/>
</svg>
