<svg class="ef-class-icon student-avatar" viewBox="0 0 60 60" version="1.1">
    <path class="shape_center" d="M53.8441411,48.2085319 C52.6515222,49.7679026 51.3093983,51.2068532 49.8391755,52.5039776 L15.3375524,42.6375036 L8.75431536,23.1582118 L39.9290059,13.0962034 L53.8441411,48.2085319 L53.8441411,48.2085319 Z" ></path>
    <path class="shape_bottom" d="M15.3375524,42.6375036 L49.8391755,52.5039776 C44.551237,57.1693345 37.6061872,60 30,60 C26.7574192,60 23.6349927,59.4855583 20.7098854,58.5338398 L15.3375524,42.6375036 Z" id="shape_bottom"></path>
    <path class="shape_top" d="M10.1991968,7.46222574 C15.4823396,2.81699842 22.4121972,0 30,0 C31.6674417,0 33.3031103,0.13603662 34.8965129,0.397616878 L39.9290059,13.0962034 L8.75431536,23.1582118 L5.30709342,12.9581473 C6.70869396,10.9311357 8.35344951,9.0851074 10.1991968,7.46222574 Z"></path>
    <path class="shape_left" d="M20.7098916,58.5338418 C8.68863998,54.6225874 0,43.325964 0,30 C0,23.670176 1.96036887,17.7982207 5.30709342,12.9581473 L20.7098916,58.5338418 Z"></path>
    <path class="shape_right" d="M60,30 C60,36.8475824 57.7058117,43.1593283 53.8441411,48.2085319 L34.8965129,0.397616878 C49.135963,2.73523016 60,15.0988992 60,30 Z"></path>
    <path class="user-icon" d="M42.9811266,38.125 C42.9697163,38.1023121 42.9580078,38.0793627 42.9459937,38.05615 C42.4892186,37.1736079 40.4782613,35.49778 36.990758,34.5973735 C38.3465714,34.0286123 40.1611909,33.5855263 42.4170726,33.5855263 C47.373687,33.5855263 50.1752306,35.7023734 50.6583741,36.6358625 C51.1415177,37.5693517 50.9706876,37.8812425 50.9706876,37.8812425 C50.9527897,38.0235942 50.8185738,38.125 50.6850857,38.125 L42.9811266,38.125 Z M23.0957668,34.6053262 C19.6026138,35.5132426 17.5710925,37.1954485 17.0894043,38.05615 C17.0773922,38.0793587 17.0656768,38.1023082 17.0542513,38.125 L9.29954503,38.125 C9.16702746,38.125 9.04225719,38.0158661 9.02303045,37.8812425 C9.02303045,37.8812425 8.86995438,37.5693517 9.35309794,36.6358625 C9.86308281,35.7245993 12.6894283,33.5855263 17.6460427,33.5855263 C19.9224523,33.5855263 21.7443009,34.0320248 23.0957668,34.6053262 Z M17.6023835,32.6776316 C14.5780607,32.6776316 13.534612,29.5943692 13.534612,26.0100025 C13.534612,22.4256359 15.3689925,20.875 17.6023835,20.875 C17.812075,20.875 18.267193,20.9937232 18.5148526,21.1366625 C18.7625122,21.2796018 18.9699901,21.5742656 18.9699901,21.5742656 C18.9699901,21.5742656 19.1343179,21.4307974 19.3747763,21.4307974 C19.6152346,21.4307974 19.7581385,21.4902523 19.8749122,21.5742656 C20.9678168,22.3605602 21.6967019,23.8208559 21.6967019,26.0100025 C21.6967019,29.5079241 20.6267062,32.6776316 17.6023835,32.6776316 Z M42.3734134,32.6776316 C39.3490906,32.6776316 38.3056419,29.5943692 38.3056419,26.0100025 C38.3056419,22.4256359 40.1400224,20.875 42.3734134,20.875 C42.5831049,20.875 43.0382229,20.9937232 43.2858825,21.1366625 C43.5335421,21.2796018 43.74102,21.5742656 43.74102,21.5742656 C43.74102,21.5742656 43.9053478,21.4307974 44.1458062,21.4307974 C44.3862645,21.4307974 44.5291684,21.4902523 44.6459421,21.5742656 C45.7388467,22.3605602 46.4677318,23.8208559 46.4677318,26.0100025 C46.4677318,29.5079241 45.3977361,32.6776316 42.3734134,32.6776316 Z M30.0521278,34.9473684 C36.660947,34.9473684 40.3963384,37.7698311 41.0405298,39.0144834 C41.6847212,40.2591356 41.4504823,40.7469991 41.4504823,40.7469991 C41.4267777,40.896127 41.2837883,41 41.1423905,41 L18.857219,41 C18.7028353,41 18.5826609,40.8917243 18.5597972,40.7581595 C18.5597972,40.7581595 18.3506767,40.2591356 18.9948681,39.0144834 C19.6748479,37.7994657 23.4433086,34.9473684 30.0521278,34.9473684 Z M29.9939155,33.7368421 C25.9614851,33.7368421 24.5702202,29.6258256 24.5702202,24.8466701 C24.5702202,20.0675145 27.0160608,18 29.9939155,18 C30.2735042,18 30.8803281,18.1582976 31.2105409,18.3488834 C31.5407538,18.5394691 31.817391,18.9323542 31.817391,18.9323542 C31.817391,18.9323542 32.0364948,18.7410632 32.3571059,18.7410632 C32.6777169,18.7410632 32.8682555,18.8203363 33.0239538,18.9323541 C34.48116,19.9807469 35.4530067,21.9278078 35.4530067,24.8466701 C35.4530067,29.5105655 34.0263458,33.7368421 29.9939155,33.7368421 Z" id="grouping" fill="#FFFFFF"></path>
</svg>
