<svg width="20px" height="20px" viewBox="0 0 20 20">
            <path d="M2,1 L18,1 C19.1045695,1 20,1.8954305 20,3 L20,12.8235762 L20,12.8235762 C20,13.9281457 19.1045695,14.8235762 18,14.8235762 L17.0083008,14.8235762 L17.0083008,16.2877438 C17.0083008,17.3923133 16.1128703,18.2877438 15.0083008,18.2877438 C14.6557512,18.2877438 14.3094659,18.1945529 14.0045334,18.0176141 L8.5,14.8235762 L2,14.8235762 L2,14.8235762 C0.8954305,14.8235762 1.32822382e-15,13.9281457 2.66453526e-15,12.8235762 L0,3 L0,3 C-1.3527075e-16,1.8954305 0.8954305,1 2,1 L2,1 Z M3,2.9747966 L3,2.9747966 C2.44771525,2.9747966 2,3.42251185 2,3.9747966 L2,3.9747966 L2,11.8487796 C2,12.4010644 2.44771525,12.8487796 3,12.8487796 L3,12.8487796 L9,12.8487796 L15.0202026,16.3046737 L15.0184937,13.3487797 C15.0184937,13.3486973 15.0184937,13.3486148 15.0184937,13.3485324 C15.0184937,13.0723901 15.2423513,12.8485324 15.5184937,12.8485324 L15.5184937,12.8487796 L17,12.8487796 C17.5522847,12.8487796 18,12.4010644 18,11.8487796 L18,11.8487796 L18,3.9747966 C18,3.42251185 17.5522847,2.9747966 17,2.9747966 L17,2.9747966 L3,2.9747966 Z" id="Combined-Shape-Copy-13" transform="translate(10.000000, 10.000000) scale(-1, 1) translate(-10.000000, -10.000000) "/>
</svg>