<svg width="20px" height="20px" viewBox="0 0 20 20" version="1.1">
    <path d="M1.63 8.026a.97.97 0 0 1 .97.97c0 .126-.137.507-.18.918-.013.185-.02.373-.02.562 0 4.208 3.403 7.62 7.6 7.62 4.197 0 7.6-3.412 7.6-7.62S14.197 2.857 10 2.857c-1.654 0-3.184.53-4.431 1.429h2.055a.95.95 0 0 1 .951.952.95.95 0 0 1-.951.952H3.346a.95.95 0 0 1-.946-.948V.954a.95.95 0 1 1 1.9 0v1.902A9.442 9.442 0 0 1 10 .952c5.247 0 9.5 4.264 9.5 9.524C19.5 15.736 15.247 20 10 20S.5 15.736.5 10.476c0-.355.02-.706.057-1.051.034-.31.093-.557.145-.711a.97.97 0 0 1 .928-.688zm9.32 2.45a.965.965 0 0 1-.02.197l3.228 2.865a.473.473 0 0 1 .04.672.478.478 0 0 1-.676.036l-3.227-2.864a.954.954 0 0 1-.77-1.732V6.665c0-.262.21-.475.475-.475.262 0 .475.216.475.475V9.65a.95.95 0 0 1 .475.826z" id="taught-lessons" />
</svg>