<svg width="20px" height="20px" viewBox="0 0 20 20">
            <path d="M4.98664537,11.0577865 C7.37357892,12.4503094 9.04469713,13.1465708 10,13.1465708 C10.9552884,13.1465708 12.6263705,12.4503304 15.0132463,11.0578497 L15.0132102,11.0577879 C15.2410962,10.9248414 15.5336086,11.001805 15.6665551,11.2296909 C15.7091794,11.3027539 15.7316393,11.3858245 15.7316393,11.4704119 L15.7316393,15.2795877 L15.7316798,15.2795877 C15.7316798,15.3552948 15.713685,15.4299178 15.6791791,15.4973041 C14.9015845,17.0158612 13.0085248,17.8500932 10,18 C6.99153109,17.8500959 5.09848586,17.0158922 4.32086428,15.4973888 L4.32086323,15.4973893 C4.28635613,15.4300055 4.26836065,15.3553842 4.26836065,15.2796787 L4.26836065,11.4702832 L4.26843575,11.4702832 C4.26843575,11.2065332 4.48224732,10.9927216 4.74599726,10.9927216 C4.83055909,10.9927216 4.91360458,11.0151749 4.98664537,11.0577865 L4.98664537,11.0577865 Z M3.31308743,9.26000429 L3.31308743,13.4852681 C3.31308743,13.7487728 3.10108134,13.9623856 2.83545081,13.9623856 C2.5716594,13.9623856 2.3578142,13.7454706 2.3578142,13.4852681 L2.3578142,8.82733124 L0.360848639,7.92284321 C-0.119006237,7.70550197 -0.121557831,7.35427787 0.360848639,7.13578093 L9.13114589,3.16343961 C9.61100076,2.94609836 10.3864476,2.94494266 10.8688541,3.16343961 L19.6391514,7.13578093 C20.1190062,7.35312218 20.1215578,7.70434627 19.6391514,7.92284321 L10.8688541,11.8951845 C10.3889992,12.1125258 9.61355236,12.1136815 9.13114589,11.8951845 L3.31308743,9.26000429 L3.31308743,9.26000429 Z" id="teacher-notes"/>
</svg>