<svg class="ef-class-icon teacher-avatar" viewBox="0 0 60 60">
    <defs>
        <rect id="path-1" x="0" y="0" width="60" height="60" rx="30"></rect>
    </defs>
    <mask id="mask-2" fill="white">
        <use xlink:href="#path-1"></use>
    </mask>
    <use id="Mask" xlink:href="#path-1"></use>
    <polygon class="shape_left" mask="url(#mask-2)" points="-3.5 1.75 69.4550781 -7.66259766 -2.18701172 51.3515625 -3.5 37.1293945"></polygon>
    <polygon class="shape_top" mask="url(#mask-2)" points="4.75 -2.25 60.9619141 -2.92919922 62.6044922 29.0537109 -8.29492188 2.49707031"></polygon>
    <polygon class="shape_right" mask="url(#mask-2)" points="0.676269531 61.0209961 60.7646484 21.6166992 68.2348633 66.5307617"></polygon>
    <polygon class="shape_bottom" mask="url(#mask-2)" points="-8.25 34.1010742 66.375 56 46.5 64.625 -8.25 63.5"></polygon>
    <path class="user_icon" d="M30.5654641,36.7894737 C40.6438984,36.7894737 46.3403618,41.0845257 47.3227523,42.9785616 C48.3051427,44.8725976 47.9285228,45.7544946 47.9285228,45.7544946 C47.9023424,45.8834724 47.7521862,46 47.6086753,46 L13.362668,46 C13.2152555,46 13.0812678,45.8961857 13.0546837,45.7681242 C13.0546837,45.7681242 12.7207778,44.8725976 13.7031683,42.9785616 C14.7401359,41.1296218 20.4870299,36.7894737 30.5654641,36.7894737 Z M30.4766905,34.9473684 C24.3272434,34.9473684 22.2055676,28.6914737 22.2055676,21.4188457 C22.2055676,14.1462177 25.9354689,11 30.4766905,11 C30.9030626,11 31.8284678,11.2408877 32.3320416,11.5309095 C32.8356153,11.8209313 33.2574866,12.4187998 33.2574866,12.4187998 C33.2574866,12.4187998 33.5916193,12.1277048 34.0805505,12.1277048 C34.5694816,12.1277048 34.8600524,12.2483379 35.0974921,12.4187998 C37.3197282,14.0141801 38.8017921,16.9770988 38.8017921,21.4188457 C38.8017921,28.5160779 36.6261376,34.9473684 30.4766905,34.9473684 Z" id="teacher-avatar-icon"></path>
</svg>
