<svg width="64" height="63" viewBox="0 0 64 63">
    <path d="M19.032 26.285c0-.522.017-1.03.048-1.524a.9.9 0 0 0-.238-.663.872.872 0 0 0-.648-.282h-.212v-9.563l5.566 2.215a.888.888 0 0 0 .328.056.893.893 0 0 0 .823-.55.871.871 0 0 0-.495-1.143l-12.467-4.95 20.299-8.054 20.3 8.054-11.07 4.386a.878.878 0 0 0-.496 1.143.886.886 0 0 0 1.153.493l4.106-1.622v9.535h-.294a.927.927 0 0 0-.648.282.894.894 0 0 0-.238.663c.031.494.048 1.002.048 1.524 0 11.495-4.715 18.082-12.934 18.082-8.218 0-12.931-6.587-12.931-18.082zm29.26 20.17c-1.958-.423-3.805-.818-5.241-1.41-.983-.41-1.63-1.171-2-2.286 3.609-3.314 5.621-8.985 5.621-16.474 0-.24-.003-.466-.01-.706h.254a.884.884 0 0 0 .888-.874V13.576l7.254-2.877a.87.87 0 0 0 .56-.818.884.884 0 0 0-.56-.819L32.365.063a.883.883 0 0 0-.658 0l-22.692 9a.883.883 0 0 0-.558.818c0 .028.008.042.01.07-.002.014-.01.028-.01.056v12.695c0 .48.397.875.887.875a.884.884 0 0 0 .888-.875V11.178l5.975 2.37v11.157c0 .48.398.874.888.874h.172c-.007.24-.01.466-.01.706 0 7.532 2.032 13.216 5.677 16.53-.38 1.073-1.04 1.834-2 2.23-1.434.592-3.281.987-5.236 1.41C9.073 47.894 0 49.855 0 62.11a.886.886 0 1 0 1.775 0c0-10.832 7.598-12.483 14.302-13.935 2.035-.438 3.957-.86 5.54-1.51 1.245-.521 2.174-1.452 2.759-2.708 2.117 1.425 4.663 2.172 7.587 2.172 2.95 0 5.511-.761 7.642-2.2.577 1.27 1.508 2.215 2.764 2.736 1.584.65 3.508 1.072 5.544 1.51 6.707 1.452 14.312 3.103 14.312 13.935a.886.886 0 1 0 1.775 0c0-12.257-9.08-14.217-15.709-15.656z"/>
</svg>
