<svg class="ef-class-icon teacher-avatar" viewBox="0 0 60 60">
    <polygon class="shape_center" points="36.6734745 19.3407856 54.2154858 25.9114589 26.276601 44.2330068 11.6613962 39.944132"></polygon>
    <path class="shape_left" d="M50.4180301,8.01890193 L4.51247929,45.8329514 C1.65220318,41.2378624 0,35.8123257 0,30 C0,13.4314575 13.4278145,0 30,0 C37.8870022,0 45.0631484,3.04271058 50.4180301,8.01890193 L50.4180301,8.01890193 Z"></path>
    <path class="shape_top" d="M59.9379812,28.0549217 L8.70705838,8.86546539 C14.1416069,3.39032058 21.673958,0 30,0 C45.9152276,0 58.9358898,12.3897468 59.9379812,28.0549217 Z"></path>
    <path class="shape_right" d="M11.7118688,53.7841553 L59.1068626,22.7038293 C59.6902714,25.0393704 60,27.4834307 60,30 C60,46.5685425 46.5721855,60 30,60 C23.1163868,60 16.7742638,57.6822337 11.7118688,53.7841553 L11.7118688,53.7841553 Z"></path>
    <path class="shape_bottom" d="M50.9508403,51.473735 C45.5444543,56.7493597 38.1527227,60 30,60 C15.7504116,60 3.82122036,50.0678937 0.761108397,36.745411 L50.9508403,51.473735 Z"></path>
    <path class="user-icon"  d="M30.5654641,36.7894737 C40.6438984,36.7894737 46.3403618,41.0845257 47.3227523,42.9785616 C48.3051427,44.8725976 47.9285228,45.7544946 47.9285228,45.7544946 C47.9023424,45.8834724 47.7521862,46 47.6086753,46 L13.362668,46 C13.2152555,46 13.0812678,45.8961857 13.0546837,45.7681242 C13.0546837,45.7681242 12.7207778,44.8725976 13.7031683,42.9785616 C14.7401359,41.1296218 20.4870299,36.7894737 30.5654641,36.7894737 Z M30.4766905,34.9473684 C24.3272434,34.9473684 22.2055676,28.6914737 22.2055676,21.4188457 C22.2055676,14.1462177 25.9354689,11 30.4766905,11 C30.9030626,11 31.8284678,11.2408877 32.3320416,11.5309095 C32.8356153,11.8209313 33.2574866,12.4187998 33.2574866,12.4187998 C33.2574866,12.4187998 33.5916193,12.1277048 34.0805505,12.1277048 C34.5694816,12.1277048 34.8600524,12.2483379 35.0974921,12.4187998 C37.3197282,14.0141801 38.8017921,16.9770988 38.8017921,21.4188457 C38.8017921,28.5160779 36.6261376,34.9473684 30.4766905,34.9473684 Z" fill="#FFFFFF"></path>
</svg>
