<svg width="20px" height="20px" viewBox="0 0 20 20" version="1.1" xmlns="http://www.w3.org/2000/svg">
        <path d="M3.44957222,9.5180157 L6.19953335,9.5180157 C6.7239676,9.5180157 7.14910557,9.95448732 7.14910557,10.4929024 L7.14910557,10.7249254 C7.66777573,10.6130847 8.10120231,10.249538 8.31138196,9.75003872 L9.69585825,6.76493578 C9.82917597,6.47642557 9.91883447,6.16871996 9.96173847,5.85244187 L10.1041743,4.79956429 C10.1075621,4.77581745 10.1126401,4.75235737 10.1193675,4.72937245 C10.2505619,4.28960968 10.6495098,3.99216461 11.0974268,4.00015723 L11.1563003,4.00015723 C11.7866083,4.08447416 12.347988,4.45156402 12.6889099,5.00234071 C13.0972259,5.6828116 13.1276122,6.573858 12.7800688,7.65208264 C12.4040382,8.81609731 12.4021391,9.43417544 12.4496177,9.72859121 C13.6954564,9.72859121 14.5424748,9.74613917 15.8016076,10.0210572 L15.8224982,10.0210572 C16.0866097,10.0743721 16.3357744,10.18762 16.5517696,10.3525187 C16.5948169,10.3863147 16.635965,10.4220606 16.675214,10.4597562 C17.2335868,10.9737001 17.408796,11.7969068 17.1101181,12.5031186 C17.3432688,12.8256095 17.4786836,13.2114882 17.4994427,13.6125396 C17.5110009,14.1245068 17.342439,14.6235991 17.0246566,15.0183262 C17.328527,15.8667143 17.0816725,16.8196311 16.4074347,17.4009492 C16.5023919,18.0833698 16.3010826,19.1109004 15.0191601,19.6958324 C14.5727251,19.8914612 14.0915689,19.9897267 13.6061966,19.9843988 L9.59330445,19.9843988 C8.93961562,19.984068 8.29829249,19.8014357 7.73784034,19.4560103 L7.14910557,19.0933524 C7.11413945,19.604949 6.69906929,20.0012549 6.19953335,19.999997 L3.44957222,19.999997 C2.92513796,19.999997 2.5,19.5635254 2.5,19.0251104 L2.5,10.4929024 C2.5,9.95448732 2.92513796,9.5180157 3.44957222,9.5180157 Z M3.44957222,19.0251104 L6.19953335,19.0251104 L6.19953335,10.4929024 L3.44957222,10.4929024 L3.44957222,19.0251104 Z M4.5,6.96734601 C4.5,6.63597515 4.76398305,6.36734599 5.08962264,6.36734599 L6.41037736,6.36734599 C6.73601695,6.36734599 7,6.63597515 7,6.96734601 C7,7.29871688 6.73601695,7.56734604 6.41037736,7.56734604 L5.08962264,7.56734604 C4.76398305,7.56734604 4.5,7.29871688 4.5,6.96734601 Z M11.7,2.10141509 C11.7,2.45961865 11.4313709,2.75 11.1,2.75 C10.7686292,2.75 10.5,2.45961865 10.5,2.10141509 L10.5,0.648584906 C10.5,0.290381353 10.7686292,-5.76059117e-17 11.1,0 C11.4313709,0 11.7,0.290381353 11.7,0.648584906 L11.7,2.10141509 Z M15,6.96734601 C15,6.80821611 15.0621208,6.65560376 15.1726965,6.54308193 C15.2832722,6.4305601 15.433245,6.36734599 15.5896226,6.36734599 L16.9103774,6.36734599 C17.236017,6.36734599 17.5,6.63597515 17.5,6.96734601 C17.5,7.29871688 17.236017,7.56734604 16.9103774,7.56734604 L15.5896226,7.56734604 C15.263983,7.56734604 15,7.29871688 15,6.96734601 Z M15.7087289,2.18724458 C15.8702177,2.0257558 16.1055927,1.96268725 16.3261905,2.02179625 C16.5467882,2.08090524 16.7190947,2.25321172 16.7782037,2.4738095 C16.8373127,2.69440727 16.7742442,2.9297823 16.6127554,3.09127108 L15.5912565,4.11276995 C15.3416165,4.36240996 14.93687,4.36240995 14.68723,4.11276993 C14.43759,3.86312991 14.43759,3.45838347 14.68723,3.20874345 L15.7087289,2.18724458 Z M7.6604966,4.29999616 C7.49102642,4.30058135 7.32833602,4.23344927 7.20855017,4.11350635 L6.18720232,3.09164439 C5.93759922,2.84191562 5.93759923,2.43702532 6.18720234,2.18729657 C6.43680545,1.93756782 6.84149205,1.93756781 7.09109517,2.18729655 L8.11244302,3.20915851 C8.29549006,3.39183447 8.35032789,3.66693919 8.2513263,3.90589374 C8.15232472,4.1448483 7.91903661,4.30045896 7.6604966,4.29999616 Z"></path>
</svg>