<svg width="20px" height="20px" viewBox="0 0 20 20" version="1.1">
            <path d="M2.88888889,4.54545455 L17.1111111,4.54545455 L15.9211574,18.3381004 L15.9211574,18.3381004 C15.840052,19.2781854 15.0532818,20 14.1097046,20 L6.28768819,20 C5.3639235,20 4.58698481,19.3073111 4.48141784,18.3895983 L2.88888889,4.54545455 Z M2.90909091,1.81818182 L17.0909091,1.81818182 L17.0909091,1.81818182 C17.5929861,1.81818182 18,2.22519568 18,2.72727273 L18,3.63636364 L2,3.63636364 L2,2.72727273 L2,2.72727273 C2,2.22519568 2.40701386,1.81818182 2.90909091,1.81818182 L2.90909091,1.81818182 Z M13.1111111,1.81818182 L12.2222222,1.81818182 L12.2222222,1.36363636 C12.2222222,1.11259784 12.0187153,0.909090909 11.7676768,0.909090909 L11.7676768,0.909090909 L8.23232323,0.909090909 C7.98128471,0.909090909 7.77777778,1.11259784 7.77777778,1.36363636 L7.77777778,1.36363636 L7.77777778,1.81818182 L6.88888889,1.81818182 L6.88888889,1.36363636 C6.88888889,0.610520796 7.49940968,1.38345085e-16 8.25252525,0 L8.25252525,0 L11.7474747,0 C12.5005903,-1.38345085e-16 13.1111111,0.610520796 13.1111111,1.36363636 L13.1111111,1.36363636 L13.1111111,1.81818182 Z" id="trash"/>
</svg>