<svg width="20px" height="20px" viewBox="0 0 20 20" version="1.1" xmlns="http://www.w3.org/2000/svg">
            <path d="M0,18.6179904 L19,18.6179904 L19,20 L0,20 L0,18.6179904 Z M18.9614633,0.86240637 C18.7216785,0.870504123 18.3705702,0.919089912 17.908128,1.00816519 C17.4456858,1.09724048 17.0688867,1.23085139 16.7777194,1.40900196 C16.486552,1.59525027 16.285307,1.97988777 16.1739784,2.56292597 C16.0626497,3.14596418 16.0069862,3.85855575 16.0069862,4.70072205 L16.0069862,12.1951549 C16.0069862,13.1506897 15.7971776,13.9806969 15.3775541,14.6852014 C14.9579306,15.3897059 14.4055773,15.9686866 13.7204778,16.4221607 C13.0439419,16.8594394 12.3310209,17.1732226 11.5816932,17.3635198 C10.8323655,17.553817 10.1151627,17.6489642 9.4300631,17.6489642 C8.33390377,17.6489642 7.35765152,17.5133288 6.50127704,17.2420541 C5.64490257,16.9707794 4.9255588,16.6043616 4.34322416,16.1427897 C3.76945326,15.6812177 3.33699064,15.1528473 3.04582332,14.5576625 C2.754656,13.9624776 2.60907452,13.3409844 2.60907452,12.6931642 L2.60907452,2.50219313 C2.60907452,2.21877178 2.55983373,1.98191606 2.46135066,1.79161887 C2.3628676,1.60132167 2.16376352,1.42519819 1.86403245,1.26324313 C1.64993883,1.14987459 1.37590311,1.05877624 1.04191707,0.98994534 C0.707931022,0.921114441 0.433895301,0.878601876 0.219801683,0.86240637 L0.219801683,0 L7.81152344,0 L7.81152344,0.86240637 C7.57173858,0.870504123 7.26987111,0.906943464 6.90591196,0.971725488 C6.54195281,1.03650751 6.2743398,1.09723975 6.1030649,1.15392402 C5.81189758,1.25109705 5.61707531,1.41304968 5.51859225,1.63978676 C5.42010918,1.86652384 5.37086839,2.1135016 5.37086839,2.38072744 L5.37086839,11.9036372 C5.37086839,12.3652091 5.42439099,12.8490426 5.5314378,13.3551522 C5.63848461,13.8612617 5.85043411,14.3329488 6.16729267,14.7702274 C6.50127871,15.2156038 6.95515038,15.5799972 7.52892127,15.8634186 C8.10269217,16.1468399 8.89054487,16.2885485 9.892503,16.2885485 C10.8345149,16.2885485 11.6245085,16.1468399 12.2625075,15.8634186 C12.9005065,15.5799972 13.403619,15.2075062 13.77186,14.7459343 C14.1229735,14.3086556 14.3713184,13.8511394 14.516902,13.373372 C14.6624857,12.8956046 14.7352764,12.4137955 14.7352764,11.9279304 L14.7352764,4.85862744 C14.7352764,3.95977687 14.6667675,3.22491682 14.5297476,2.65402524 C14.3927277,2.08313366 14.1914827,1.70861821 13.9260066,1.53046764 C13.6262755,1.32802382 13.2173629,1.17012001 12.6992563,1.05675147 C12.1811498,0.943382927 11.7850825,0.878601876 11.5110427,0.86240637 L11.5110427,0 L18.9614633,0 L18.9614633,0.86240637 Z" id="underline"></path>
</svg>