<svg width="20px" height="20px" viewBox="0 0 20 20">
            <path d="M4.77672219,4.02631579 L8.83063502,0.201221126 C9.22541953,-0.17128025 9.54545561,-0.0115791493 9.54545561,0.556120216 L9.54545561,16.4444403 C9.54545561,17.012947 9.22358037,17.1701054 8.83063502,16.7993393 L4.77612819,12.9736842 L1.81581084,12.9736842 C0.812966204,12.9736842 0,12.1717908 0,11.184555 L0,5.81544499 C0,4.82733622 0.814416282,4.02631579 1.81581084,4.02631579 L4.77672219,4.02631579 Z M15.2985698,2.52265599 C14.9625313,2.16267118 14.9742305,1.60056901 15.3249565,1.25487804 L15.3249472,1.25486857 L15.4837146,1.09838043 C15.4895616,1.09261735 15.4954864,1.08693373 15.5014874,1.08133115 C15.868492,0.738691772 16.4437722,0.758443725 16.7864116,1.12544837 L16.7863948,1.12546404 C16.8769161,1.22242235 16.9430209,1.29443769 16.9847093,1.34151005 C18.7655114,3.35229857 20.0028777,5.50515598 19.999995,8.51277846 C19.9972567,11.3697435 18.8650811,13.4817851 17.2007659,15.4156672 C17.1134239,15.5171559 16.9752305,15.6694384 16.7861856,15.8725146 C16.7802928,15.8788447 16.7743101,15.8850903 16.7682392,15.8912497 C16.4157801,16.2488424 15.8401694,16.253004 15.4825768,15.9005449 L15.4826002,15.9005212 L15.4203324,15.8391473 C15.0732594,15.4970569 15.0576665,14.9421409 15.3849817,14.5811006 L15.3849786,14.5810977 C15.5489474,14.4002342 15.6671094,14.2658429 15.7394647,14.1779237 C16.9951286,12.6521621 17.9834862,10.8406603 17.9834862,8.5 C17.9834862,6.04767334 16.859392,4.282729 15.4928573,2.73453912 C15.452312,2.68860408 15.3875495,2.61797637 15.2985698,2.52265599 Z M12.1146729,4.7854037 L12.1146729,4.7854037 C11.7939794,4.42404284 11.8119625,3.87495953 12.1556133,3.53535669 L12.1556139,3.53535729 L12.2463207,3.44571897 C12.2577579,3.43441646 12.269493,3.42341938 12.2815136,3.41273936 C12.6568456,3.07926453 13.2314471,3.11319648 13.5649219,3.48852849 L13.5649244,3.48852629 C13.7229241,3.66635793 13.8333337,3.79293982 13.8961532,3.86827194 C14.96935,5.15523391 15.8082744,6.47611997 15.7935366,8.51599016 C15.7783842,10.6132436 14.9132128,12.1123085 13.7308973,13.5149472 C13.6933061,13.5595434 13.6393381,13.6212772 13.5689932,13.7001485 C13.5586747,13.7117178 13.5480618,13.7230212 13.5371652,13.7340477 C13.1842548,14.0911647 12.6086639,14.0945748 12.251547,13.7416644 L12.251543,13.7416684 L12.1537928,13.6450697 C11.8115253,13.3068338 11.7921329,12.7604641 12.1095593,12.3988136 L12.1095285,12.3987865 C12.2343458,12.2565795 12.3246813,12.1513511 12.380535,12.0831013 C13.1805503,11.1055311 13.8578553,10.0173917 13.8370339,8.5 C13.8151511,6.90525172 13.1396804,5.97718136 12.2874239,4.98222933 C12.2518463,4.94069491 12.1942627,4.87508637 12.1146729,4.7854037 Z" id="unmuted"/>
</svg>