<svg width="20px" height="20px" viewBox="0 0 20 20" xmlns="http://www.w3.org/2000/svg">
    <path d="M3.82720497,20 C3.27573499,20 3,19.4953895 3,18.4861684 C3,15.9375391 6.14141052,13 10,13 C13.8522915,13 16.8317155,15.9582419 16.9825134,18.4861684 C17.0768484,19.4953895 16.7895014,20 16.1204722,20 C15.1169285,20 4.65440995,20 3.82720497,20 Z M9.98699012,11 C7.02272697,11 6,8.1264132 6,4.78579947 C6,1.44518573 7.79795175,-4.70734562e-14 9.98699012,-4.70734562e-14 C10.1925174,-4.70734562e-14 10.6385972,0.110649518 10.8813386,0.243868314 C11.12408,0.37708711 11.3274377,0.651712445 11.3274377,0.651712445 C11.3274377,0.651712445 11.4885021,0.518000676 11.7241852,0.518000676 C11.9598683,0.518000676 12.0999343,0.573412358 12.214389,0.651712423 C13.2855898,1.38453547 14,2.74552452 14,4.78579947 C14,8.04584679 12.9512533,11 9.98699012,11 Z" id="path-1"></path>
</svg>