<svg width="20px" height="20px" viewBox="0 0 20 20" version="1.1" xmlns="http://www.w3.org/2000/svg">
            <path d="M7.06641004,14.072571 C5.80074602,14.6511987 5.04450885,15.3544891 4.81996763,15.7675978 C4.75714603,15.892573 4.70439955,16.0117071 4.66172819,16.125 L0.500707996,16.125 C0.442770476,16.125 0.385366898,16.1139261 0.331586981,16.0923744 C0.0985103402,15.9989714 -0.0147175511,15.7343074 0.0786854067,15.5012308 L0.0787027976,15.5012378 C0.102496506,15.4418632 0.13056095,15.3800127 0.162896129,15.3156862 C0.432085385,14.8204344 1.92393719,13.6578947 4.54022527,13.6578947 C5.55514487,13.6578947 6.39888403,13.8310213 7.06641004,14.072571 Z M4.51718028,13.1644737 C2.92082861,13.1644737 2.37005704,11.4887876 2.37005704,9.54076225 C2.37005704,7.5927369 3.33831225,6.75 4.51718028,6.75 C4.62786336,6.75 4.86809181,6.81452349 4.99881589,6.8922079 C5.12953998,6.9698923 5.23905467,7.13003567 5.23905467,7.13003567 C5.23905467,7.13003567 5.32579309,7.05206379 5.45271606,7.05206379 C5.57963903,7.05206379 5.6550691,7.08437623 5.71670669,7.13003565 C6.29358299,7.55736967 6.678316,8.35100861 6.678316,9.54076225 C6.678316,11.4418066 6.11353194,13.1644737 4.51718028,13.1644737 Z M12.7546852,14.0526316 C16.9407461,14.0526316 19.3067627,15.8933681 19.714797,16.7050978 C19.8603847,16.9947252 19.9496975,17.2529816 19.9827353,17.4798669 C19.985894,17.5015585 19.9874795,17.5234502 19.9874795,17.5453705 C19.9874795,17.7964316 19.7839543,17.9999568 19.5328933,17.9999568 L19.5328933,18 L5.92650568,18 C5.90070189,18 5.87494497,17.9978027 5.84951407,17.9934318 C5.60211331,17.9509105 5.43602568,17.7158822 5.47854697,17.4684815 L5.4784459,17.4684641 C5.51696662,17.2443398 5.60780416,16.9898844 5.75095854,16.7050978 C6.18166135,15.912695 8.56862423,14.0526316 12.7546852,14.0526316 Z M12.7178132,13.2631579 C10.1636505,13.2631579 9.28241599,10.5820602 9.28241599,7.4652196 C9.28241599,4.34837903 10.8316243,3 12.7178132,3 C12.8949061,3 13.2792716,3.10323759 13.4884302,3.22753264 C13.6975887,3.35182769 13.8728122,3.60805707 13.8728122,3.60805707 C13.8728122,3.60805707 14.0115937,3.48330207 14.2146704,3.48330207 C14.4177472,3.48330207 14.5384353,3.53500196 14.6370554,3.60805705 C15.5600575,4.29179147 16.1756303,5.56161378 16.1756303,7.4652196 C16.1756303,10.5068905 15.2719758,13.2631579 12.7178132,13.2631579 Z" id="users"></path>
</svg>