<svg xmlns="http://www.w3.org/2000/svg" width="48" height="48" viewBox="0 0 48 48">
    <g fill="none" fill-rule="evenodd">
        <circle cx="24" cy="24" r="24" fill="#FFF"/>
        <path fill="#203444" fill-rule="nonzero" d="M23.873 12c.938 0 1.717.717 1.84 1.645.24-.116.508-.182.79-.182 1.024 0 1.858.852 1.858 1.902l-.001.889c.238-.114.503-.178.783-.178 1.023 0 1.857.852 1.857 1.902v11.17c0 3.214-2.325 5.997-5.652 6.776-.252.057-.623.076-1.01.076l-.484-.009c-.584-.02-1.111-.066-1.216-.075l-.054-.008C19.35 35.281 17 32.438 17 29.148V21.04c0-.466.246-.88.658-1.107.455-.251 1.04-.232 1.486.049l.235.162v-4.8c0-1.048.834-1.9 1.857-1.9.286 0 .558.067.8.186.128-.92.904-1.63 1.837-1.63zm0 1.082c-.428 0-.774.368-.774.82v8.628c0 .297-.244.54-.542.54-.298 0-.541-.243-.541-.54l-.002-7.124-.004-.063c0-.452-.346-.817-.774-.817-.427 0-.774.368-.774.817v5.862l-.003.058c.25.432.385.904.385 1.375v3.173l.32.173c1.042.592 2.974 1.986 2.974 4.195 0 .298-.244.541-.541.541-.298 0-.542-.243-.542-.54 0-2.254-2.926-3.514-2.956-3.525-.078-.033-.146-.084-.203-.149-.084-.097-.135-.23-.135-.36v-3.508c0-.495-.26-1.006-.717-1.412l-.496-.343c-.113-.07-.273-.054-.365-.006-.087.049-.098.106-.098.16v8.109c0 2.762 1.968 5.153 4.683 5.69l.355.03c.701.049 1.63.08 1.979 0 2.834-.662 4.815-3.013 4.815-5.72V17.975c0-.452-.346-.82-.774-.82-.428 0-.774.368-.774.82v5.434c0 .298-.244.541-.541.541-.298 0-.542-.243-.542-.541v-5.123c-.005-.03-.008-.06-.008-.092v-2.83c0-.45-.35-.819-.774-.819-.425 0-.774.368-.774.82v7.165c0 .297-.244.54-.542.54-.297 0-.541-.243-.541-.54V13.9c0-.451-.347-.82-.774-.82z"/>
    </g>
</svg>
