<svg xmlns="http://www.w3.org/2000/svg" width="48" height="48" viewBox="0 0 48 48">
    <g fill="none" fill-rule="evenodd">
        <circle cx="24" cy="24" r="24" fill="#FFF"/>
        <path fill="#203444" fill-rule="nonzero" d="M23.45 14.541l.005.113v18.692c0 .63-.343.83-.776.488l-.082-.07-4.866-4.5H14.18c-1.151 0-2.094-.864-2.174-1.956l-.005-.15v-6.316c0-1.112.894-2.023 2.024-2.1l.155-.005h3.553l4.865-4.5c.446-.413.812-.27.854.304zm8.686.775l.246.262c2.137 2.366 3.621 4.899 3.618 8.437-.003 3.361-1.362 5.846-3.36 8.121l-.257.283-.253.269c-.389.402-1.012.441-1.446.11l-.097-.084-.06-.058c-.427-.412-.446-1.09-.044-1.525l.348-.385.056-.066c1.507-1.795 2.693-3.926 2.693-6.68 0-2.77-1.243-4.794-2.793-6.563l-.282-.314-.125-.133c-.383-.403-.398-1.023-.053-1.442l.086-.093.181-.176c.436-.415 1.127-.399 1.542.037zm-3.865 2.78l.404.455c1.288 1.514 2.295 3.068 2.277 5.468-.017 2.355-.964 4.069-2.284 5.655l-.311.362-.104.114c-.39.402-1.013.44-1.446.108l-.097-.083-.104-.1c-.42-.408-.444-1.075-.054-1.511l.305-.349c.96-1.15 1.772-2.43 1.747-4.215-.023-1.679-.674-2.73-1.544-3.77l-.315-.369-.186-.208c-.364-.402-.373-1.004-.04-1.416l.09-.1.121-.116c.447-.405 1.136-.37 1.541.076z"/>
    </g>
</svg>
