<svg width="20px" height="20px" viewBox="0 0 20 20" version="1.1" xmlns="http://www.w3.org/2000/svg">
            <path d="M1.81818182,5 L13.6363636,5 L13.6363636,5 C14.6405177,5 15.4545455,5.81402773 15.4545455,6.81818182 L15.4545455,14.1818182 C15.4545455,15.1859723 14.6405177,16 13.6363636,16 L1.81818182,16 L1.81818182,16 C0.814027728,16 1.23688601e-15,15.1859723 2.22044605e-16,14.1818182 L0,6.81818182 L-2.22044605e-16,6.81818182 C-3.45018014e-16,5.81402773 0.814027728,5 1.81818182,5 L1.81818182,5 Z M18.4164219,14.2210843 L16.3636364,11.9494938 L16.3636364,9.26685304 L18.4164219,6.99526249 L18.4164219,6.99526249 C18.75305,6.62275352 19.3279191,6.59366627 19.700428,6.93029429 C19.8911595,7.10265405 20,7.34770874 20,7.60478145 L20,13.6115653 C20,14.1136424 19.5929861,14.5206563 19.0909091,14.5206563 C18.8338364,14.5206563 18.5887817,14.4118158 18.4164219,14.2210843 Z" id="Video-Recorder-Tool"></path>
</svg>