<svg xmlns="http://www.w3.org/2000/svg" xmlns:xlink="http://www.w3.org/1999/xlink" width="20" height="20" viewBox="0 0 20 20">
    <defs>
        <path id="prefix__a" d="M19.453 18.72c.303 0 .547.286.547.64 0 .318-.198.582-.458.632l-.089.008H.547C.244 20 0 19.714 0 19.36c0-.319.198-.582.458-.632l.089-.008h18.906zM7.625 4.638c.34 0 .62.287.62.64 0 .322-.231.588-.533.634l-.087.006H2.25V16.16l4.76.001c-.124-.076-.185-.265-.185-.567 0-1.019 1.257-2.194 2.8-2.194 1.54 0 2.733 1.183 2.793 2.194.028.302-.029.491-.171.567l5.628-.001.001-5.774.006-.068c.044-.309.304-.545.618-.545.303 0 .556.22.613.513l.012.1v5.89c0 .598-.437 1.089-1 1.156l-.133.008H2.132c-.58 0-1.059-.449-1.124-1.028L1 16.276V5.802c0-.597.437-1.089 1-1.156l.133-.007h5.492zM9.62 8.2c.082 0 .26.044.358.098.097.053.178.163.178.163l.029-.02c.027-.015.073-.034.13-.034.094 0 .15.022.196.054.428.293.714.837.714 1.653 0 1.304-.42 2.486-1.605 2.486-1.186 0-1.595-1.15-1.595-2.486 0-1.336.72-1.914 1.595-1.914zM19 0c.515 0 .94.406.994.927L20 1.04v5.21c0 .537-.39.978-.891 1.035L19 7.29h-2.625l-2.774 1.581c-.147.084-.312.128-.48.128-.516 0-.94-.406-.994-.927l-.006-.113v-.67h-.496c-.515 0-.94-.405-.994-.926l-.006-.113V1.04c0-.537.39-.978.891-1.035L11.625 0H19zm-5.25 1.93v3.74c0 .133.142.17.315.083l3.555-1.794c.174-.088.173-.23 0-.318l-3.555-1.794c-.174-.087-.315-.05-.315.084z"/>
    </defs>
    <g fill="none" fill-rule="evenodd">
        <mask id="prefix__b" fill="#fff">
            <use xlink:href="#prefix__a"/>
        </mask>
        <use fill="#FFF" fill-rule="nonzero" xlink:href="#prefix__a"/>
        <g fill="#284155" mask="url(#prefix__b)">
            <path d="M0 0H20V20H0z"/>
        </g>
    </g>
</svg>
