<svg xmlns="http://www.w3.org/2000/svg" width="48" height="48" viewBox="0 0 48 48">
    <g fill="none" fill-rule="evenodd">
        <circle cx="24" cy="24" r="24" fill="#FFF"/>
        <path fill="#D75049" d="M23.66 14.237c.436-.413.795-.27.836.304l.004.113v18.692c0 .63-.335.83-.76.488l-.08-.07-4.77-4.5h-3.483c-1.129 0-2.053-.864-2.13-1.956l-.006-.15v-6.316c0-1.112.876-2.023 1.984-2.1l.152-.005h3.483l4.77-4.5zm11.217 6.076c.428-.419 1.12-.417 1.55.003.4.393.428 1.005.088 1.425l-.085.093-2.721 2.666 2.72 2.666c.428.418.43 1.095-.003 1.518-.398.39-1.024.42-1.454.086l-.095-.083-2.72-2.666-2.721 2.666c-.428.419-1.121.417-1.55-.003-.4-.393-.428-1.005-.088-1.425l.085-.093 2.72-2.666-2.72-2.666c-.427-.418-.429-1.095.003-1.518.398-.39 1.024-.42 1.454-.086l.096.083 2.72 2.666 2.721-2.666z"/>
    </g>
</svg>
