<svg xmlns="http://www.w3.org/2000/svg" width="48" height="48" viewBox="0 0 48 48">
    <g fill="none" fill-rule="evenodd">
        <circle cx="24" cy="24" r="24" fill="#FFF"/>
        <path fill="#4B96CC" fill-rule="nonzero" d="M23.848 12c-.506 0-.916.404-.916.9v9.486c0 .327-.288.594-.64.594-.353 0-.641-.267-.641-.594l-.002-7.831-.005-.07c0-.496-.41-.897-.916-.897s-.916.404-.916.898v6.443l-.004.064c.296.475.456.994.456 1.512v3.487l.38.19c1.232.651 3.518 2.184 3.518 4.612 0 .327-.289.595-.64.595-.353 0-.641-.268-.641-.595 0-2.477-3.463-3.862-3.498-3.874-.093-.036-.173-.092-.24-.164-.1-.107-.16-.252-.16-.395v-3.856c0-.545-.308-1.107-.85-1.553l-.585-.377c-.135-.077-.324-.06-.433-.006-.102.053-.115.116-.115.175v8.914c0 3.036 2.329 5.664 5.541 6.256l.42.03c.83.055 1.929.09 2.341.003C28.655 35.218 31 32.634 31 29.658v-12.28c0-.496-.41-.9-.916-.9s-.916.404-.916.9v5.974c0 .327-.288.595-.64.595-.353 0-.641-.268-.641-.595V17.72c-.007-.033-.01-.066-.01-.1v-3.11c0-.497-.413-.901-.916-.901-.503 0-.916.404-.916.9v7.877c0 .327-.288.594-.64.594-.353 0-.641-.267-.641-.594V12.9c0-.497-.41-.901-.916-.901z"/>
    </g>
</svg>
