<svg width="20px" height="20px" viewBox="0 0 20 20" version="1.1" xmlns="http://www.w3.org/2000/svg">
        <path d="M17.8568515,14.841525 C18.1161118,14.2971157 18.2608696,13.6900825 18.2608696,13.05 C18.2608696,11.3072288 17.1877433,9.80946026 15.6521739,9.15363713 L15.6521739,3.7 L3.47826087,3.7 L3.47826087,13.9 L9.65218967,13.9 C9.6828855,14.0478166 9.72142961,14.1928473 9.76737831,14.3346585 C10.1205638,15.4246712 10.9111886,16.3244568 11.9377936,16.8371049 C11.3451079,16.5411398 10.8310756,16.1161398 10.4344642,15.6 L3.47826087,15.6 L3.47826087,14.75 L9.92699451,14.75 C10.0626303,15.0534524 10.2334688,15.3384298 10.4344642,15.6 L0.871705802,15.6 C0.390275981,15.6 0,15.2220638 0,14.7492591 L0,2.85074091 C0,2.38088968 0.390806571,2 0.871705802,2 L18.258729,2 C18.7401588,2 19.1304348,2.37793623 19.1304348,2.85074091 L19.1304348,14.7492591 C19.1304348,15.1105145 18.899404,15.4191791 18.5740257,15.5425628 L18.5740257,15.5425628 L17.8568515,14.841525 Z M3.47826087,2 L3.47826087,2.85 L15.6521739,2.85 L15.6521739,2 L3.47826087,2 Z M7.82608696,7.52373781 C7.82608696,7.28971388 8.00335635,7.18664042 8.21161146,7.2884251 L10.9188233,8.6115749 C11.1317426,8.71563921 11.1270784,8.88664042 10.9188233,8.9884251 L8.21161146,10.3115749 C7.99869215,10.4156392 7.82608696,10.3074596 7.82608696,10.0762622 L7.82608696,7.52373781 Z M1.30434783,3.7 L2.17391304,3.7 C2.41403685,3.7 2.60869565,3.8946588 2.60869565,4.13478261 L2.60869565,4.96521739 C2.60869565,5.2053412 2.41403685,5.4 2.17391304,5.4 L1.30434783,5.4 C1.06422402,5.4 0.869565217,5.2053412 0.869565217,4.96521739 L0.869565217,4.13478261 C0.869565217,3.8946588 1.06422402,3.7 1.30434783,3.7 Z M1.30434783,7.95 L2.17391304,7.95 C2.41403685,7.95 2.60869565,8.1446588 2.60869565,8.38478261 L2.60869565,9.21521739 C2.60869565,9.4553412 2.41403685,9.65 2.17391304,9.65 L1.30434783,9.65 C1.06422402,9.65 0.869565217,9.4553412 0.869565217,9.21521739 L0.869565217,8.38478261 C0.869565217,8.1446588 1.06422402,7.95 1.30434783,7.95 Z M1.30434783,12.2 L2.17391304,12.2 C2.41403685,12.2 2.60869565,12.3946588 2.60869565,12.6347826 L2.60869565,13.4652174 C2.60869565,13.7053412 2.41403685,13.9 2.17391304,13.9 L1.30434783,13.9 C1.06422402,13.9 0.869565217,13.7053412 0.869565217,13.4652174 L0.869565217,12.6347826 L0.869565217,12.6347826 C0.869565217,12.3946588 1.06422402,12.2 1.30434783,12.2 Z M16.9565217,3.7 L17.826087,3.7 C18.0662108,3.7 18.2608696,3.8946588 18.2608696,4.13478261 L18.2608696,4.96521739 C18.2608696,5.2053412 18.0662108,5.4 17.826087,5.4 L16.9565217,5.4 C16.7163979,5.4 16.5217391,5.2053412 16.5217391,4.96521739 L16.5217391,4.13478261 C16.5217391,3.8946588 16.7163979,3.7 16.9565217,3.7 Z M16.9565217,7.95 L17.826087,7.95 C18.0662108,7.95 18.2608696,8.1446588 18.2608696,8.38478261 L18.2608696,9.21521739 C18.2608696,9.4553412 18.0662108,9.65 17.826087,9.65 L16.9565217,9.65 C16.7163979,9.65 16.5217391,9.4553412 16.5217391,9.21521739 L16.5217391,8.38478261 C16.5217391,8.1446588 16.7163979,7.95 16.9565217,7.95 Z" id="video-background"></path>
            <path d="M16.8883897,14.8119858 L19.7544843,17.6135932 C20.0797263,17.9315172 20.0831039,18.4436723 19.7569853,18.7624532 C19.4331247,19.079027 18.9061311,19.0771584 18.581681,18.7600084 L15.7155865,15.958401 C15.1899149,16.2703689 14.5729396,16.45 13.9130435,16.45 C11.992053,16.45 10.4347826,14.9277681 10.4347826,13.05 C10.4347826,11.1722319 11.992053,9.65 13.9130435,9.65 C15.8340339,9.65 17.3913043,11.1722319 17.3913043,13.05 C17.3913043,13.6950484 17.2075385,14.2981418 16.8883897,14.8119858 Z M13.9130435,15.175 C15.1136625,15.175 16.0869565,14.2236051 16.0869565,13.05 C16.0869565,11.8763949 15.1136625,10.925 13.9130435,10.925 C12.7124245,10.925 11.7391304,11.8763949 11.7391304,13.05 C11.7391304,14.2236051 12.7124245,15.175 13.9130435,15.175 Z" id="Search"></path>
</svg>