<svg width="20px" height="20px" viewBox="0 0 20 20" version="1.1" xmlns="http://www.w3.org/2000/svg">
            <path d="M0.909090909,3 L19.0909091,3 L19.0909091,3 C19.5929861,3 20,3.40701386 20,3.90909091 L20,17.0909091 C20,17.5929861 19.5929861,18 19.0909091,18 L0.909090909,18 L0.909090909,18 C0.407013864,18 1.17170973e-15,17.5929861 1.11022302e-15,17.0909091 L0,3.90909091 L1.11022302e-16,3.90909091 C4.95355978e-17,3.40701386 0.407013864,3 0.909090909,3 L0.909090909,3 Z M3.63636364,4.875 L3.63636364,16.125 L16.3636364,16.125 L16.3636364,4.875 L3.63636364,4.875 Z M3.63636364,17.0625 L3.63636364,18 L16.3636364,18 L16.3636364,17.0625 L3.63636364,17.0625 Z M3.63636364,3 L3.63636364,3.9375 L16.3636364,3.9375 L16.3636364,3 L3.63636364,3 Z M1.36363636,4.875 C1.11259784,4.875 0.909090909,5.07850693 0.909090909,5.32954545 L0.909090909,6.29545455 C0.909090909,6.54649307 1.11259784,6.75 1.36363636,6.75 L2.27272727,6.75 C2.5237658,6.75 2.72727273,6.54649307 2.72727273,6.29545455 L2.72727273,5.32954545 C2.72727273,5.07850693 2.5237658,4.875 2.27272727,4.875 L2.27272727,4.875 L1.36363636,4.875 Z M1.36363636,9.5625 C1.11259784,9.5625 0.909090909,9.76600693 0.909090909,10.0170455 L0.909090909,10.9829545 C0.909090909,11.2339931 1.11259784,11.4375 1.36363636,11.4375 L2.27272727,11.4375 C2.5237658,11.4375 2.72727273,11.2339931 2.72727273,10.9829545 L2.72727273,10.0170455 C2.72727273,9.76600693 2.5237658,9.5625 2.27272727,9.5625 L2.27272727,9.5625 L1.36363636,9.5625 Z M1.36363636,14.25 C1.11259784,14.25 0.909090909,14.4535069 0.909090909,14.7045455 L0.909090909,15.6704545 C0.909090909,15.9214931 1.11259784,16.125 1.36363636,16.125 L2.27272727,16.125 C2.5237658,16.125 2.72727273,15.9214931 2.72727273,15.6704545 L2.72727273,14.7045455 C2.72727273,14.4535069 2.5237658,14.25 2.27272727,14.25 L2.27272727,14.25 L1.36363636,14.25 Z M17.7272727,4.875 C17.4762342,4.875 17.2727273,5.07850693 17.2727273,5.32954545 L17.2727273,6.29545455 C17.2727273,6.54649307 17.4762342,6.75 17.7272727,6.75 L18.6363636,6.75 C18.8874022,6.75 19.0909091,6.54649307 19.0909091,6.29545455 L19.0909091,6.29545455 L19.0909091,5.32954545 C19.0909091,5.07850693 18.8874022,4.875 18.6363636,4.875 L17.7272727,4.875 Z M17.7272727,9.5625 C17.4762342,9.5625 17.2727273,9.76600693 17.2727273,10.0170455 L17.2727273,10.9829545 C17.2727273,11.2339931 17.4762342,11.4375 17.7272727,11.4375 L18.6363636,11.4375 C18.8874022,11.4375 19.0909091,11.2339931 19.0909091,10.9829545 L19.0909091,10.9829545 L19.0909091,10.0170455 C19.0909091,9.76600693 18.8874022,9.5625 18.6363636,9.5625 L17.7272727,9.5625 Z M17.7272727,14.25 C17.4762342,14.25 17.2727273,14.4535069 17.2727273,14.7045455 L17.2727273,15.6704545 C17.2727273,15.9214931 17.4762342,16.125 17.7272727,16.125 L18.6363636,16.125 C18.8874022,16.125 19.0909091,15.9214931 19.0909091,15.6704545 L19.0909091,15.6704545 L19.0909091,14.7045455 C19.0909091,14.4535069 18.8874022,14.25 18.6363636,14.25 L17.7272727,14.25 Z M8.84467688,8.96678652 L11.0346639,10.0959986 L11.0346639,10.0959986 C11.2577877,10.2110468 11.3454003,10.4851894 11.2303521,10.7083132 C11.187048,10.7922968 11.1186475,10.8606974 11.0346639,10.9040014 L8.84467688,12.0332135 C8.62155304,12.1482617 8.34741042,12.0606491 8.2323622,11.8375253 C8.19914804,11.77311 8.18181818,11.7016863 8.18181818,11.629212 L8.18181818,9.37078796 C8.18181818,9.11974943 8.38532511,8.9162425 8.63636364,8.9162425 C8.70883788,8.9162425 8.78026154,8.93357236 8.84467688,8.96678652 Z" id="video" />
</svg>