<svg width="20px" height="20px" viewBox="0 0 20 20" version="1.1" xmlns="http://www.w3.org/2000/svg">
            <path d="M13.8498492,18.3214687 C13.0251729,18.7036382 12.1341223,18.9668254 11.1987339,19.0889939 L10.3217133,19.8791129 C10.1415738,20.0414028 9.85596406,20.0391847 9.67828672,19.8791129 L8.80126614,19.0889939 C7.07750029,18.8638576 5.50430753,18.1598164 4.21959895,17.1147815 L6.26565526,15.5234044 C7.33102416,16.2451036 8.61628141,16.6666667 10,16.6666667 C10.2700642,16.6666667 10.5363777,16.6506083 10.7980378,16.6193944 C11.4974102,17.5782823 12.5962604,18.2272199 13.8498502,18.3214688 L13.8498492,18.3214687 Z M18.3214687,13.8498492 C18.2272196,12.5962599 17.578282,11.49741 16.6193944,10.7980378 C16.6506083,10.5363777 16.6666667,10.2700642 16.6666667,10 C16.6666667,8.61628141 16.2451036,7.33102416 15.5234044,6.26565526 L17.1147815,4.21959895 C18.2080258,5.5635735 18.9280893,7.22326277 19.1170807,9.04077539 L19.8791129,9.88662006 C20.0414028,10.0667595 20.0391847,10.3523693 19.8791129,10.5300466 L19.0531236,11.4468827 C18.9191394,12.2918682 18.6696975,13.0984128 18.3214687,13.8498492 L18.3214687,13.8498492 Z M2.88521851,15.7804011 C1.89054627,14.5576056 1.20479318,13.0734615 0.946876978,11.4468864 L0.120887063,10.5300466 C-0.039184714,10.3523693 -0.0414028455,10.0667595 0.120887063,9.88662006 L0.882919306,9.04077539 C1.32135319,4.82439659 4.61789035,1.45738528 8.80126614,0.911006084 L9.67828672,0.120887063 C9.85596406,-0.039184714 10.1415738,-0.0414028455 10.3217133,0.120887063 L11.1987339,0.911006084 C12.9224997,1.1361424 14.4956925,1.84018356 15.7804011,2.88521851 L13.7343447,4.47659564 C12.6689758,3.75489644 11.3837186,3.33333333 10,3.33333333 C6.31810167,3.33333333 3.33333333,6.31810167 3.33333333,10 C3.33333333,11.3837186 3.75489644,12.6689758 4.47659564,13.7343447 L2.88521851,15.7804011 L2.88521851,15.7804011 Z" id="compass"></path>
            <polygon id="top-niddle" points="17.5281125 2.56584142 10.9033126 10.7010409 9.16666667 8.90269136"></polygon>
            <polygon id="bottom-niddle" points="2.11832296 17.7185328 10.4797688 11.3816828 8.74312292 9.58333333"></polygon>
            <circle id="pin" cx="10" cy="10" r="1"></circle>
            <path d="M17.0180402,15.8941037 L19.7647141,18.6407776 C20.0764043,18.9524679 20.0796413,19.4545807 19.767111,19.767111 C19.4567445,20.0774774 18.951709,20.0756455 18.6407776,19.7647141 L15.8941037,17.0180402 C15.3903351,17.3238911 14.7990671,17.5 14.1666667,17.5 C12.3257175,17.5 10.8333333,16.0076158 10.8333333,14.1666667 C10.8333333,12.3257175 12.3257175,10.8333333 14.1666667,10.8333333 C16.0076158,10.8333333 17.5,12.3257175 17.5,14.1666667 C17.5,14.7990671 17.3238911,15.3903351 17.0180402,15.8941037 L17.0180402,15.8941037 Z M14.1666667,16.25 C15.3172599,16.25 16.25,15.3172599 16.25,14.1666667 C16.25,13.0160734 15.3172599,12.0833333 14.1666667,12.0833333 C13.0160734,12.0833333 12.0833333,13.0160734 12.0833333,14.1666667 C12.0833333,15.3172599 13.0160734,16.25 14.1666667,16.25 Z" id="Search"/>
</svg>