<svg width="20px" height="20px" viewBox="0 0 20 20" xmlns="http://www.w3.org/2000/svg">
        <path d="M3,0 L17,0 C17.5522847,0 18,0.44771525 18,1 L18,19 C18,19.5522847 17.5522847,20 17,20 C16.6781456,20 16.3301076,19.7290442 16.2088937,19.6117566 L10.7118586,14.1147215 C10.5152842,13.9181472 10.2576421,13.81986 10,13.81986 C9.74235788,13.81986 9.48471575,13.9181472 9.28814144,14.1147215 L3.79110633,19.6117566 C3.66989241,19.7290442 3.32185442,20 3,20 C2.44771525,20 2,19.5522847 2,19 L2,1 C2,0.44771525 2.44771527,0 3,0 Z" id="path-1"></path>
</svg>